<svg width="493" height="585" viewBox="0 0 493 585" fill="none" xmlns="http://www.w3.org/2000/svg">
<g clip-path="url(#clip0_3692_76273)">
<path d="M397.589 0.517578L504.619 11.3519L505.551 591.55H411.749L397.313 0.690374L268.628 58.4389V30.7742L60.578 128.249L64.1871 279.877L38.9406 287.1V300.336H64.1871V497.687L0.449219 500.089V514.535L145.97 509.714V516.937L192.872 514.535L230.154 470.005L355.229 457.978L408.14 461.59" stroke="#FF5800" stroke-width="0.52" stroke-miterlimit="10"/>
<path d="M268.629 30.7734L321.609 34.6614" stroke="#FF5800" stroke-width="0.52" stroke-miterlimit="10"/>
<path d="M78.625 147.499L321.558 41.5918L340.795 44.0109V60.8586L321.558 58.4394L78.625 160.735V147.499Z" stroke="#FF5800" stroke-width="0.52" stroke-miterlimit="10"/>
<path d="M321.555 41.5918V58.4394" stroke="#FF5800" stroke-width="0.52" stroke-miterlimit="10"/>
<path d="M312.852 72.6076L340.792 60.8574" stroke="#FF5800" stroke-width="0.52" stroke-miterlimit="10"/>
<path d="M78.625 160.734L106.289 159.524L292.892 81.0059" stroke="#FF5800" stroke-width="0.52" stroke-miterlimit="10"/>
<path d="M79.641 190.644L323.592 95.7793L342.57 98.7168L342.035 115.012L323.057 112.091L79.2266 203.449L79.641 190.644Z" stroke="#FF5800" stroke-width="0.52" stroke-miterlimit="10"/>
<path d="M323.594 95.7793L323.059 112.091" stroke="#FF5800" stroke-width="0.52" stroke-miterlimit="10"/>
<path d="M305.082 128.853L342.037 115.012" stroke="#FF5800" stroke-width="0.52" stroke-miterlimit="10"/>
<path d="M256.004 147.221L285.844 136.059" stroke="#FF5800" stroke-width="0.52" stroke-miterlimit="10"/>
<path d="M202.906 167.111L238.376 153.84" stroke="#FF5800" stroke-width="0.52" stroke-miterlimit="10"/>
<path d="M160.336 183.059L181.628 175.076" stroke="#FF5800" stroke-width="0.52" stroke-miterlimit="10"/>
<path d="M79.2266 203.449L106.649 203.155L146.936 188.07" stroke="#FF5800" stroke-width="0.52" stroke-miterlimit="10"/>
<path d="M64.1875 497.686L212.333 491.293" stroke="#FF5800" stroke-width="0.52" stroke-miterlimit="10"/>
<path d="M0.449219 514.535L50.9594 519.356H65.3958V512.393" stroke="#FF5800" stroke-width="0.52" stroke-miterlimit="10"/>
<path d="M65.3963 521.827L64.1875 587.352H143.571L174.826 544.083L200.09 542.839L232.555 500.815L233.453 500.746L356.421 492.158H409.349L280.665 500.815L253.001 544.083" stroke="#FF5800" stroke-width="0.52" stroke-miterlimit="10"/>
<path d="M200.09 541.008L225.526 541.578L254.209 542.217" stroke="#FF5800" stroke-width="0.52" stroke-miterlimit="10"/>
<path d="M143.57 587.351H200.09L227.15 543.461" stroke="#FF5800" stroke-width="0.52" stroke-miterlimit="10"/>
<path d="M408.916 475.725L356.42 473.617V492.158V473.617L231.344 483.518L195.271 528.013L171.216 529.24L126.387 587.352" stroke="#FF5800" stroke-width="0.52" stroke-miterlimit="10"/>
<path d="M169.524 516.885L112.262 587.351" stroke="#FF5800" stroke-width="0.52" stroke-miterlimit="10"/>
<path d="M64.1879 279.877L323.957 199.25L345.612 201.652V217.204L323.957 214.802L38.9414 300.353" stroke="#FF5800" stroke-width="0.52" stroke-miterlimit="10"/>
<path d="M295.707 232.013L345.613 217.291" stroke="#FF5800" stroke-width="0.52" stroke-miterlimit="10"/>
<path d="M233.191 250.468L274.359 238.32" stroke="#FF5800" stroke-width="0.52" stroke-miterlimit="10"/>
<path d="M136.766 278.91L214.215 256.066" stroke="#FF5800" stroke-width="0.52" stroke-miterlimit="10"/>
<path d="M64.1875 300.337L121.795 283.334" stroke="#FF5800" stroke-width="0.52" stroke-miterlimit="10"/>
<path d="M349.203 58.4393V81.3175L381.685 68.0814V45.2031L349.203 58.4393Z" stroke="#FF5800" stroke-width="0.52" stroke-miterlimit="10"/>
<path d="M350.41 110.191V133.052L382.875 119.816V96.9551L350.41 110.191Z" stroke="#FF5800" stroke-width="0.52" stroke-miterlimit="10"/>
<path d="M351.621 163.845V184.805L384.69 172.675V151.715L351.621 163.845Z" stroke="#FF5800" stroke-width="0.52" stroke-miterlimit="10"/>
<path d="M351.621 220.402V241.362L384.69 229.232V208.271L351.621 220.402Z" stroke="#FF5800" stroke-width="0.52" stroke-miterlimit="10"/>
<path d="M357.629 323.198V344.849L391.302 338.836V314.766L357.629 323.198Z" stroke="#FF5800" stroke-width="0.52" stroke-miterlimit="10"/>
<path d="M353.418 269.044V290.695L387.696 284.682V260.611L353.418 269.044Z" stroke="#FF5800" stroke-width="0.52" stroke-miterlimit="10"/>
<path d="M505.551 498.896H428.586V541.007H505.551V498.896Z" stroke="#FF5800" stroke-width="0.52" stroke-miterlimit="10"/>
<path d="M314.338 504.91L313.129 543.409L404.531 541.007V498.896L314.338 504.91Z" stroke="#FF5800" stroke-width="0.52" stroke-miterlimit="10"/>
<path d="M78.625 231.736V246.182L321.558 163.136L344.404 165.555V151.109L321.558 147.498L78.625 231.736Z" stroke="#FF5800" stroke-width="0.52" stroke-miterlimit="10"/>
<path d="M254.105 195.518L344.402 165.555" stroke="#FF5800" stroke-width="0.52" stroke-miterlimit="10"/>
<path d="M205.305 211.726L236.664 201.307" stroke="#FF5800" stroke-width="0.52" stroke-miterlimit="10"/>
<path d="M167.883 224.134L178.952 220.471" stroke="#FF5800" stroke-width="0.52" stroke-miterlimit="10"/>
<path d="M138.492 233.897L152.411 229.283" stroke="#FF5800" stroke-width="0.52" stroke-miterlimit="10"/>
<path d="M78.625 246.181L97.862 247.373L123.696 238.803" stroke="#FF5800" stroke-width="0.52" stroke-miterlimit="10"/>
<path d="M321.555 163.136V147.498" stroke="#FF5800" stroke-width="0.52" stroke-miterlimit="10"/>
<path d="M323.957 214.888V199.25" stroke="#FF5800" stroke-width="0.52" stroke-miterlimit="10"/>
<path d="M81.0234 330.42V317.184L326.356 252.195L346.802 253.405V269.043H326.356L81.0234 330.42Z" stroke="#FF5800" stroke-width="0.52" stroke-miterlimit="10"/>
<path d="M301.094 281.139L347.408 269.648" stroke="#FF5800" stroke-width="0.52" stroke-miterlimit="10"/>
<path d="M237.77 296.881L270.079 288.846" stroke="#FF5800" stroke-width="0.52" stroke-miterlimit="10"/>
<path d="M81.0234 330.421L105.372 329.764L221.278 300.977" stroke="#FF5800" stroke-width="0.52" stroke-miterlimit="10"/>
<path d="M326.355 252.195V269.043" stroke="#FF5800" stroke-width="0.52" stroke-miterlimit="10"/>
<path d="M79.2266 373.74L79.7792 360.522L327.616 305.918L347.993 307.974L348.01 323.198L326.925 322.748L79.2266 373.74Z" stroke="#FF5800" stroke-width="0.52" stroke-miterlimit="10"/>
<path d="M263.273 341.514L347.923 324.234" stroke="#FF5800" stroke-width="0.52" stroke-miterlimit="10"/>
<path d="M189.797 356.512L246.23 344.986" stroke="#FF5800" stroke-width="0.52" stroke-miterlimit="10"/>
<path d="M150.441 364.547L174.134 359.709" stroke="#FF5800" stroke-width="0.52" stroke-miterlimit="10"/>
<path d="M79.2266 373.741L103.575 374.121L134.624 367.779" stroke="#FF5800" stroke-width="0.52" stroke-miterlimit="10"/>
<path d="M327.634 305.918L326.926 322.748" stroke="#FF5800" stroke-width="0.52" stroke-miterlimit="10"/>
<path d="M81.0234 405.035V417.061L329.965 376.143H351.62V362.907L329.965 361.697L81.0234 405.035Z" stroke="#FF5800" stroke-width="0.52" stroke-miterlimit="10"/>
<path d="M261.168 390.727L351.62 376.143" stroke="#FF5800" stroke-width="0.52" stroke-miterlimit="10"/>
<path d="M197.395 401.007L225.818 396.428" stroke="#FF5800" stroke-width="0.52" stroke-miterlimit="10"/>
<path d="M154.828 407.885L180.714 403.703" stroke="#FF5800" stroke-width="0.52" stroke-miterlimit="10"/>
<path d="M81.0234 417.059H97.8602L139.684 410.32" stroke="#FF5800" stroke-width="0.52" stroke-miterlimit="10"/>
<path d="M329.965 376.143V361.697" stroke="#FF5800" stroke-width="0.52" stroke-miterlimit="10"/>
<path d="M81.0234 448.353L329.965 414.658H354.02V431.506H329.965L81.0234 461.59V448.353Z" stroke="#FF5800" stroke-width="0.52" stroke-miterlimit="10"/>
<path d="M329.965 414.658V431.506" stroke="#FF5800" stroke-width="0.52" stroke-miterlimit="10"/>
<path d="M245.367 543.408L245.782 586.745L411.749 591.549" stroke="#FF5800" stroke-width="0.52" stroke-miterlimit="10"/>
<path d="M414.321 2.21113L416.548 140.275L406.93 145.096L411.748 311.154L424.975 324.39L428.584 489.272H435.803L417.757 1.88281L428.999 3.69717L436.994 234.138L446.63 246.182L452.639 425.476H444.212L445.421 489.272H467.058L446.095 5.42514L472.273 8.06892L480.303 205.264L462.258 223.304L474.277 489.272H499.54L478.766 8.72554L487.47 9.60681L505.36 468.813L498.332 154.721L505.55 144.768" stroke="#FF5800" stroke-width="0.52" stroke-miterlimit="10"/>
<path d="M78.6245 158.143L71.4062 160.735V131.86L89.4518 124.637L90.2807 142.418L101.281 137.614L101.471 118.624L120.708 111.401V129.147L146.248 118.019L145.971 98.165L174.827 86.1211L175.276 105.371" stroke="#FF5800" stroke-width="0.52" stroke-miterlimit="10"/>
<path d="M321.522 476.381L320.348 439.921L374.467 435.117V473.616H356.421" stroke="#FF5800" stroke-width="0.52" stroke-miterlimit="10"/>
<path d="M314.424 61.4453L311.074 101.171L289.367 109.085L293.684 70.1888L314.424 61.4453Z" stroke="#FF5800" stroke-width="0.52" stroke-miterlimit="10"/>
<path d="M306.411 118.312L303.7 153.684L283.375 160.734L286.293 125.864L306.411 118.312Z" stroke="#FF5800" stroke-width="0.52" stroke-miterlimit="10"/>
<path d="M257.422 137.268L254.918 169.874L236.164 176.371L238.858 144.214L257.422 137.268Z" stroke="#FF5800" stroke-width="0.52" stroke-miterlimit="10"/>
<path d="M159.614 173.332L164.259 202.051L149.581 206.457L144.746 178.913L159.614 173.332Z" stroke="#FF5800" stroke-width="0.52" stroke-miterlimit="10"/>
<path d="M139.651 225.326L137.993 256.948L123.332 261.51V230.89L139.651 225.326Z" stroke="#FF5800" stroke-width="0.52" stroke-miterlimit="10"/>
<path d="M151.047 221.42L154.483 251.832L171.406 246.579L167.314 215.873L151.047 221.42Z" stroke="#FF5800" stroke-width="0.52" stroke-miterlimit="10"/>
<path d="M177.418 212.401L181.631 243.418L204.892 236.195L206.446 202.482L177.418 212.401Z" stroke="#FF5800" stroke-width="0.52" stroke-miterlimit="10"/>
<path d="M179.266 196.831L182.184 164.88L201.542 157.623L205.859 187.62L179.266 196.831Z" stroke="#FF5800" stroke-width="0.52" stroke-miterlimit="10"/>
<path d="M234.559 192.874L240.533 225.135L257.422 219.9L253.865 186.273L234.559 192.874Z" stroke="#FF5800" stroke-width="0.52" stroke-miterlimit="10"/>
<path d="M120.637 275.833L123.572 305.917C123.572 305.917 139.338 301.77 139.649 301.649C139.96 301.528 136.196 271.15 136.196 271.15L120.637 275.833Z" stroke="#FF5800" stroke-width="0.52" stroke-miterlimit="10"/>
<path d="M212.109 248.584L219.069 280.62L236.924 275.885L232.78 242.225L212.109 248.584Z" stroke="#FF5800" stroke-width="0.52" stroke-miterlimit="10"/>
<path d="M271.582 266.711L274.293 229.785L295.102 223.305L299.609 259.281L271.582 266.711Z" stroke="#FF5800" stroke-width="0.52" stroke-miterlimit="10"/>
<path d="M221.397 295.29L217.512 330.42L234.556 326.411L239.184 290.85L221.397 295.29Z" stroke="#FF5800" stroke-width="0.52" stroke-miterlimit="10"/>
<path d="M268.664 283.47L274.207 317.684L299.609 312.086L302.182 275.09L268.664 283.47Z" stroke="#FF5800" stroke-width="0.52" stroke-miterlimit="10"/>
<path d="M264.586 335.57L260.822 373.741L243.812 376.696L245.988 339.406L264.586 335.57Z" stroke="#FF5800" stroke-width="0.52" stroke-miterlimit="10"/>
<path d="M192.266 385.664C192.87 384.575 189.969 350.932 189.969 350.932L173.012 354.388L176.828 388.325L192.266 385.664Z" stroke="#FF5800" stroke-width="0.52" stroke-miterlimit="10"/>
<path d="M132.984 362.664L139.011 394.942L154.829 392.177L150.097 359.139L132.984 362.664Z" stroke="#FF5800" stroke-width="0.52" stroke-miterlimit="10"/>
<path d="M139.148 407.504L138.043 440.629L153.412 438.556L155.588 404.809L139.148 407.504Z" stroke="#FF5800" stroke-width="0.52" stroke-miterlimit="10"/>
<path d="M180.18 400.765V434.927L202.542 431.903L197.638 397.896L180.18 400.765Z" stroke="#FF5800" stroke-width="0.52" stroke-miterlimit="10"/>
<path d="M224.852 393.423L229.773 428.224L262.618 423.074L261.737 387.357L224.852 393.423Z" stroke="#FF5800" stroke-width="0.52" stroke-miterlimit="10"/>
<path d="M65.3945 125.984L71.404 277.63" stroke="#FF5800" stroke-width="0.52" stroke-miterlimit="10"/>
<path d="M71.4062 298.193V497.687" stroke="#FF5800" stroke-width="0.52" stroke-miterlimit="10"/>
</g>
<defs>
<clipPath id="clip0_3692_76273">
<rect width="506" height="592" fill="white"/>
</clipPath>
</defs>
</svg>
