<svg width="354" height="32" viewBox="0 0 354 32" fill="none" xmlns="http://www.w3.org/2000/svg">
<path d="M0 16H181.755" stroke="#CCCCCC"/>
<path d="M353.333 9.09765L332.375 23.9995L323.59 23.9995L344.546 9.09766L353.333 9.09765Z" fill="#CBCBCB"/>
<path d="M338.465 9.09765L317.508 23.9995L308.723 23.9995L329.679 9.09766L338.465 9.09765Z" fill="#CBCBCB"/>
<path d="M323.59 9.09765L302.634 23.9995L293.848 23.9995L314.804 9.09766L323.59 9.09765Z" fill="#CBCBCB"/>
<path d="M308.719 9.09765L287.763 23.9995L278.977 23.9995L299.933 9.09766L308.719 9.09765Z" fill="#CBCBCB"/>
<path d="M293.848 9.09765L272.892 23.9995L264.105 23.9995L285.062 9.09766L293.848 9.09765Z" fill="#CBCBCB"/>
<path d="M278.973 9.09765L258.017 23.9995L249.23 23.9995L270.188 9.09766L278.973 9.09765Z" fill="#CBCBCB"/>
<path d="M264.106 9.09765L243.15 23.9995L234.363 23.9995L255.321 9.09766L264.106 9.09765Z" fill="#CBCBCB"/>
<path d="M249.235 9.09765L228.278 23.9995L219.492 23.9995L240.45 9.09766L249.235 9.09765Z" fill="#CBCBCB"/>
<path d="M234.364 9.09765L213.407 23.9995L204.621 23.9995L225.579 9.09766L234.364 9.09765Z" fill="#CBCBCB"/>
<path d="M219.491 9.09765L198.535 23.9995L189.75 23.9995L210.706 9.09766L219.491 9.09765Z" fill="#CBCBCB"/>
</svg>
