<svg width="354" height="32" viewBox="0 0 354 32" fill="none" xmlns="http://www.w3.org/2000/svg">
<path d="M353.333 16H171.579" stroke="#CCCCCC"/>
<path d="M0.00078392 9.09765L20.9584 23.9995L29.7435 23.9995L8.78708 9.09766L0.00078392 9.09765Z" fill="#CBCBCB"/>
<path d="M14.868 9.09765L35.8256 23.9995L44.6107 23.9995L23.6543 9.09766L14.868 9.09765Z" fill="#CBCBCB"/>
<path d="M29.743 9.09765L50.6994 23.9995L59.4857 23.9995L38.5293 9.09766L29.743 9.09765Z" fill="#CBCBCB"/>
<path d="M44.6141 9.09765L65.5705 23.9995L74.3568 23.9995L53.4004 9.09766L44.6141 9.09765Z" fill="#CBCBCB"/>
<path d="M59.4852 9.09765L80.4416 23.9995L89.2279 23.9995L68.2714 9.09766L59.4852 9.09765Z" fill="#CBCBCB"/>
<path d="M74.3602 9.09765L95.3166 23.9995L104.103 23.9995L83.1452 9.09766L74.3602 9.09765Z" fill="#CBCBCB"/>
<path d="M89.2274 9.09765L110.184 23.9995L118.97 23.9995L98.0124 9.09766L89.2274 9.09765Z" fill="#CBCBCB"/>
<path d="M104.098 9.09765L125.055 23.9995L133.841 23.9995L112.884 9.09766L104.098 9.09765Z" fill="#CBCBCB"/>
<path d="M118.97 9.09765L139.926 23.9995L148.712 23.9995L127.755 9.09766L118.97 9.09765Z" fill="#CBCBCB"/>
<path d="M133.842 9.09765L154.798 23.9995L163.583 23.9995L142.627 9.09766L133.842 9.09765Z" fill="#CBCBCB"/>
</svg>
