<svg width="57" height="64" viewBox="0 0 57 64" fill="none" xmlns="http://www.w3.org/2000/svg">
<g clip-path="url(#clip0_6616_6294)">
<path d="M37.5519 25.1113C26.8054 25.1113 18.0859 33.8251 18.0859 44.5645C18.0859 55.304 26.8054 64.0177 37.5519 64.0177C48.2984 64.0177 57.0179 55.304 57.0179 44.5645C57.0179 33.8251 48.2984 25.1113 37.5519 25.1113ZM35.3677 53.3307H35.3502H35.3327L26.5608 44.5645L30.9642 40.164L35.3502 44.5471L44.1221 35.7809L48.5255 40.1814L35.3677 53.3307Z" fill="url(#paint0_linear_6616_6294)"/>
<path d="M0 0V53.7844H17.2468C15.8663 50.9031 15.08 47.69 15.08 44.2849C15.08 32.0786 24.9703 22.1948 37.1846 22.1948C39.4736 22.1948 41.6754 22.5441 43.7373 23.1902V0H0ZM5.34703 6.91514H26.7351V9.01064H5.34703V6.91514ZM23.0307 17.218H5.34703V15.4543H23.0132V17.218H23.0307ZM24.2713 13.1143H5.34703V11.1935H24.2538V13.1143H24.2713ZM5.34703 19.5929H26.7351V21.6884H5.34703V19.5929ZM17.3167 29.8958H5.34703V28.1321H17.3167V29.8958ZM19.7805 25.7921H5.34703V23.8712H19.7805V25.7921ZM33.882 15.0701C30.9114 15.0701 28.5 12.6603 28.5 9.69168C28.5 6.72306 30.9114 4.31323 33.882 4.31323C36.8525 4.31323 39.264 6.72306 39.264 9.69168C39.264 12.6603 36.8525 15.0701 33.882 15.0701ZM34.7207 12.7825H33.0607V6.54843H34.7207V12.7825ZM30.7716 10.495V8.83602H37.0098V10.495H30.7716Z" fill="url(#paint1_linear_6616_6294)"/>
</g>
<defs>
<linearGradient id="paint0_linear_6616_6294" x1="37.5519" y1="77.3591" x2="37.5519" y2="30.9089" gradientUnits="userSpaceOnUse">
<stop stop-color="white"/>
<stop offset="0.49" stop-color="#FF7928"/>
</linearGradient>
<linearGradient id="paint1_linear_6616_6294" x1="-11.4979" y1="26.8922" x2="47.2321" y2="26.8922" gradientUnits="userSpaceOnUse">
<stop stop-color="white"/>
<stop offset="0.31" stop-color="#969696"/>
</linearGradient>
<clipPath id="clip0_6616_6294">
<rect width="57" height="64" fill="white"/>
</clipPath>
</defs>
</svg>
