<svg width="66" height="64" viewBox="0 0 66 64" fill="none" xmlns="http://www.w3.org/2000/svg">
<g clip-path="url(#clip0_6616_6256)">
<path d="M47.644 4.39895V0H43.6556V4.39895H38.0575V0H34.0451V4.39895H28.447V0H24.4587V4.39895H18.8606V0H14.8482V4.39895H9.25009V0H5.23771V4.39895H0V17.9305H53.0018V4.39895H47.644Z" fill="url(#paint0_linear_6616_6256)"/>
<path d="M51.2976 30.4336H0.890625V32.0354H51.2976V30.4336Z" fill="#969696"/>
<path d="M33.6143 40.4746H0.890625V42.0764H33.6143V40.4746Z" fill="#969696"/>
<path d="M11.7734 51.2809L11.7734 20.3926H10.1637L10.1637 51.2809H11.7734Z" fill="#969696"/>
<path d="M22.2266 51.2809L22.2266 20.3926H20.6168L20.6168 51.2809H22.2266Z" fill="#969696"/>
<path d="M31.9531 51.2809L31.9531 20.3926H30.3434L30.3434 51.2809H31.9531Z" fill="#969696"/>
<path d="M42.8359 32.7049V20.3926H41.2262V32.7049H42.8359Z" fill="#969696"/>
<path d="M35.1984 50.5873H1.70586V21.0856H51.296V32.9198C51.8726 33.0393 52.4492 33.2306 53.0018 33.4218V19.4121H0V52.2847H35.8952C35.6309 51.7349 35.3906 51.185 35.1984 50.5873Z" fill="#969696"/>
<path d="M48.1712 28.5215C38.3204 28.5215 30.3438 36.4587 30.3438 46.2607C30.3438 56.0628 38.3204 64 48.1712 64C58.0219 64 65.9986 56.0628 65.9986 46.2607C65.9986 36.4587 58.0219 28.5215 48.1712 28.5215ZM48.2673 59.3859C40.9874 59.3859 35.0769 53.5047 35.0769 46.2607C35.0769 39.0168 40.9874 33.1356 48.2673 33.1356C55.5472 33.1356 61.4577 39.0168 61.4577 46.2607C61.4577 53.5047 55.5472 59.3859 48.2673 59.3859Z" fill="url(#paint1_linear_6616_6256)"/>
<path d="M49.1366 36.2676H47.0703V46.0457H49.1366V36.2676Z" fill="url(#paint2_linear_6616_6256)"/>
<path d="M57.5938 47.9095V45.8535H47.0703V47.9095H57.5938Z" fill="url(#paint3_linear_6616_6256)"/>
</g>
<defs>
<linearGradient id="paint0_linear_6616_6256" x1="26.5009" y1="21.8035" x2="26.5009" y2="-4.04034" gradientUnits="userSpaceOnUse">
<stop stop-color="white"/>
<stop offset="0.49" stop-color="#FF7928"/>
</linearGradient>
<linearGradient id="paint1_linear_6616_6256" x1="35.5574" y1="33.7333" x2="60.66" y2="58.9366" gradientUnits="userSpaceOnUse">
<stop stop-color="white"/>
<stop offset="0.49" stop-color="#FF7928"/>
</linearGradient>
<linearGradient id="paint2_linear_6616_6256" x1="45.1242" y1="38.2041" x2="51.0292" y2="44.1385" gradientUnits="userSpaceOnUse">
<stop stop-color="white"/>
<stop offset="0.49" stop-color="#FF7928"/>
</linearGradient>
<linearGradient id="paint3_linear_6616_6256" x1="55.4794" y1="43.7736" x2="49.2158" y2="50.0684" gradientUnits="userSpaceOnUse">
<stop stop-color="white"/>
<stop offset="0.49" stop-color="#FF7928"/>
</linearGradient>
<clipPath id="clip0_6616_6256">
<rect width="66" height="64" fill="white"/>
</clipPath>
</defs>
</svg>
