<svg width="390" height="260" viewBox="0 0 390 260" fill="none" xmlns="http://www.w3.org/2000/svg">
<g opacity="0.3">
<mask id="mask0_207_707" style="mask-type:alpha" maskUnits="userSpaceOnUse" x="0" y="0" width="390" height="260">
<rect width="389.602" height="259.734" fill="url(#paint0_radial_207_707)"/>
</mask>
<g mask="url(#mask0_207_707)">
<path d="M500.086 25.5626V24.3034H486.992V2.08203H485.609V24.3034H439.04V2.08203H437.657V24.3034H391.09V2.08203H389.707V24.3034H343.138V2.08203H341.755V24.3034H295.186V2.08203H293.803V24.3034H247.234V2.08203H245.851V24.3034H199.283V2.08203H197.9V24.3034H151.331V2.08203H149.948V24.3034H103.379V2.08203H101.996V24.3034H55.4292V2.08203H54.0462V24.3034H7.4773V2.08203H6.09434V24.3034H-7V25.5626H6.09434V67.9654H-7V69.2246H6.09434V111.627H-7V112.887H6.09434V155.289H-7V156.549H6.09434V198.951H-7V200.211H6.09434V242.613H-7V243.873H6.09434V286.275H-7V287.535H6.09434V309.756H7.4773V287.535H54.0462V309.756H55.4292V287.535H101.996V309.756H103.379V287.535H149.948V309.756H151.331V287.535H197.9V309.756H199.283V287.535H245.851V309.756H247.234V287.535H293.803V309.756H295.186V287.535H341.755V309.756H343.138V287.535H389.707V309.756H391.09V287.535H437.657V309.756H439.04V287.535H485.609V309.756H486.992V287.535H500.086V286.275H486.992V243.873H500.086V242.613H486.992V200.211H500.086V198.951H486.992V156.549H500.086V155.289H486.992V112.887H500.086V111.627H486.992V69.2246H500.086V67.9654H486.992V25.5626H500.086ZM54.0462 286.275H7.4773V243.873H54.0462V286.275ZM54.0462 242.613H7.4773V200.211H54.0462V242.613ZM54.0462 198.951H7.4773V156.549H54.0462V198.951ZM54.0462 155.289H7.4773V112.887H54.0462V155.289ZM54.0462 111.627H7.4773V69.2246H54.0462V111.627ZM54.0462 67.9654H7.4773V25.5626H54.0462V67.9654ZM101.996 286.275H55.4292V243.873H101.996V286.275ZM101.996 242.613H55.4292V200.211H101.996V242.613ZM101.996 198.951H55.4292V156.549H101.996V198.951ZM101.996 155.289H55.4292V112.887H101.996V155.289ZM101.996 111.627H55.4292V69.2246H101.996V111.627ZM101.996 67.9654H55.4292V25.5626H101.996V67.9654ZM149.948 286.275H103.379V243.873H149.948V286.275ZM149.948 242.613H103.379V200.211H149.948V242.613ZM149.948 198.951H103.379V156.549H149.948V198.951ZM149.948 155.289H103.379V112.887H149.948V155.289ZM149.948 111.627H103.379V69.2246H149.948V111.627ZM149.948 67.9654H103.379V25.5626H149.948V67.9654ZM197.9 286.275H151.331V243.873H197.9V286.275ZM197.9 242.613H151.331V200.211H197.9V242.613ZM197.9 198.951H151.331V156.549H197.9V198.951ZM197.9 155.289H151.331V112.887H197.9V155.289ZM197.9 111.627H151.331V69.2246H197.9V111.627ZM197.9 67.9654H151.331V25.5626H197.9V67.9654ZM245.851 286.275H199.283V243.873H245.851V286.275ZM245.851 242.613H199.283V200.211H245.851V242.613ZM245.851 198.951H199.283V156.549H245.851V198.951ZM245.851 155.289H199.283V112.887H245.851V155.289ZM245.851 111.627H199.283V69.2246H245.851V111.627ZM245.851 67.9654H199.283V25.5626H245.851V67.9654ZM293.803 286.275H247.234V243.873H293.803V286.275ZM293.803 242.613H247.234V200.211H293.803V242.613ZM293.803 198.951H247.234V156.549H293.803V198.951ZM293.803 155.289H247.234V112.887H293.803V155.289ZM293.803 111.627H247.234V69.2246H293.803V111.627ZM293.803 67.9654H247.234V25.5626H293.803V67.9654ZM341.755 286.275H295.186V243.873H341.755V286.275ZM341.755 242.613H295.186V200.211H341.755V242.613ZM341.755 198.951H295.186V156.549H341.755V198.951ZM341.755 155.289H295.186V112.887H341.755V155.289ZM341.755 111.627H295.186V69.2246H341.755V111.627ZM341.755 67.9654H295.186V25.5626H341.755V67.9654ZM389.707 286.275H343.138V243.873H389.707V286.275ZM389.707 242.613H343.138V200.211H389.707V242.613ZM389.707 198.951H343.138V156.549H389.707V198.951ZM389.707 155.289H343.138V112.887H389.707V155.289ZM389.707 111.627H343.138V69.2246H389.707V111.627ZM389.707 67.9654H343.138V25.5626H389.707V67.9654ZM437.657 286.275H391.09V243.873H437.657V286.275ZM437.657 242.613H391.09V200.211H437.657V242.613ZM437.657 198.951H391.09V156.549H437.657V198.951ZM437.657 155.289H391.09V112.887H437.657V155.289ZM437.657 111.627H391.09V69.2246H437.657V111.627ZM437.657 67.9654H391.09V25.5626H437.657V67.9654ZM485.609 286.275H439.04V243.873H485.609V286.275ZM485.609 242.613H439.04V200.211H485.609V242.613ZM485.609 198.951H439.04V156.549H485.609V198.951ZM485.609 155.289H439.04V112.887H485.609V155.289ZM485.609 111.627H439.04V69.2246H485.609V111.627ZM485.609 67.9654H439.04V25.5626H485.609V67.9654Z" fill="#CCCCCC"/>
</g>
</g>
<defs>
<radialGradient id="paint0_radial_207_707" cx="0" cy="0" r="1" gradientUnits="userSpaceOnUse" gradientTransform="translate(194.801 129.867) rotate(90) scale(129.867 194.801)">
<stop/>
<stop offset="1" stop-opacity="0"/>
</radialGradient>
</defs>
</svg>
