<svg width="20" height="22" viewBox="0 0 20 22" fill="none" xmlns="http://www.w3.org/2000/svg">
<g clip-path="url(#clip0_5535_32746)">
<path d="M11.8335 15.5508C9.40716 14.5235 7.47771 12.5896 6.456 10.1608L9.28933 7.3225L4.07266 2.10167L1.43016 4.74333C0.97183 5.20429 0.609452 5.75155 0.363996 6.35346C0.118539 6.95537 -0.00512351 7.59999 0.000162584 8.25C0.000162584 14.29 7.71016 22 13.7502 22C14.4001 22.0057 15.0447 21.8822 15.6465 21.6367C16.2484 21.3912 16.7954 21.0286 17.256 20.57L19.8985 17.9275L14.6777 12.7067L11.8335 15.5508ZM16.0768 19.3917C15.7708 19.695 15.4075 19.9345 15.0081 20.0962C14.6086 20.2578 14.181 20.3385 13.7502 20.3333C8.55599 20.3333 1.66683 13.4442 1.66683 8.25C1.66192 7.81903 1.74263 7.39137 1.90428 6.99183C2.06593 6.59229 2.30529 6.22882 2.6085 5.9225L4.07266 4.45833L6.93683 7.3225L4.491 9.76833L4.69516 10.28C5.2962 11.8878 6.2358 13.3475 7.45029 14.5605C8.66478 15.7734 10.1258 16.7111 11.7343 17.31L12.2393 17.5025L14.6777 15.0633L17.5418 17.9275L16.0768 19.3917ZM11.6668 3.66667V2C13.8762 2.00243 15.9944 2.88118 17.5567 4.44346C19.119 6.00573 19.9977 8.12394 20.0002 10.3333H18.3335C18.3315 8.56583 17.6285 6.87129 16.3787 5.62148C15.1289 4.37167 13.4343 3.66865 11.6668 3.66667ZM11.6668 7V5.33333C12.9925 5.33466 14.2635 5.86187 15.2009 6.79926C16.1383 7.73666 16.6655 9.00766 16.6668 10.3333H15.0002C15.0002 9.44928 14.649 8.60143 14.0239 7.97631C13.3987 7.35119 12.5509 7 11.6668 7Z" fill="#F37021"/>
</g>
<defs>
<clipPath id="clip0_5535_32746">
<rect width="20" height="20" fill="white" transform="translate(0 2)"/>
</clipPath>
</defs>
</svg>
