<svg width="20" height="22" viewBox="0 0 20 22" fill="none" xmlns="http://www.w3.org/2000/svg">
<g clip-path="url(#clip0_5535_32739)">
<path d="M9.96793 22.0068L9.38703 21.5088C8.58621 20.8383 1.59375 14.7993 1.59375 10.382C1.59375 5.75707 5.34301 2.00781 9.96793 2.00781C14.5929 2.00781 18.3421 5.75707 18.3421 10.382C18.3421 14.7994 11.3496 20.8383 10.5521 21.5121L9.96793 22.0068ZM9.96793 3.81855C6.34477 3.82266 3.40863 6.75879 3.40453 10.382C3.40453 13.157 7.70656 17.5902 9.96793 19.6192C12.2293 17.5893 16.5313 13.1537 16.5313 10.382C16.5272 6.75879 13.5911 3.8227 9.96793 3.81855Z" fill="#F37021"/>
<path d="M9.96789 13.7014C8.13461 13.7014 6.64844 12.2152 6.64844 10.382C6.64844 8.54867 8.13461 7.0625 9.96789 7.0625C11.8012 7.0625 13.2873 8.54867 13.2873 10.382C13.2873 12.2152 11.8012 13.7014 9.96789 13.7014ZM9.96789 8.72219C9.05125 8.72219 8.30816 9.46527 8.30816 10.3819C8.30816 11.2986 9.05125 12.0416 9.96789 12.0416C10.8845 12.0416 11.6276 11.2986 11.6276 10.3819C11.6276 9.46527 10.8846 8.72219 9.96789 8.72219Z" fill="#F37021"/>
</g>
<defs>
<clipPath id="clip0_5535_32739">
<rect width="20" height="20" fill="white" transform="translate(0 2)"/>
</clipPath>
</defs>
</svg>
