<svg width="1440" height="795" viewBox="0 0 1440 795" fill="none" xmlns="http://www.w3.org/2000/svg">
<g opacity="0.3">
<mask id="mask0_5266_44837" style="mask-type:alpha" maskUnits="userSpaceOnUse" x="-551" y="-133" width="2542" height="1254">
<ellipse cx="719.74" cy="494" rx="1270.74" ry="627" fill="url(#paint0_linear_5266_44837)"/>
</mask>
<g mask="url(#mask0_5266_44837)">
<path d="M1779.7 903.778H223.359V-99.625H1779.7V903.778ZM225.372 901.711H1777.69V-97.5527H225.372V901.711Z" fill="#B3B3B3"/>
<path d="M1778.69 751.594H224.375V753.623H1778.69V751.594Z" fill="#B3B3B3"/>
<path d="M1778.69 701.875H224.375V703.904H1778.69V701.875Z" fill="#B3B3B3"/>
<path d="M1778.69 651.156H224.375V654.2H1778.69V651.156Z" fill="#B3B3B3"/>
<path d="M1778.69 601.438H224.375V603.467H1778.69V601.438Z" fill="#B3B3B3"/>
<path d="M1778.69 551.719H224.375V553.748H1778.69V551.719Z" fill="#B3B3B3"/>
<path d="M1778.69 501H224.375V503.029H1778.69V501Z" fill="#B3B3B3"/>
<path d="M1778.69 451.281H224.375V453.31H1778.69V451.281Z" fill="#B3B3B3"/>
<path d="M1778.69 401.57H224.375V403.599H1778.69V401.57Z" fill="#B3B3B3"/>
<path d="M1778.69 350.844H224.375V352.873H1778.69V350.844Z" fill="#B3B3B3"/>
<path d="M1778.69 301.125H224.375V303.154H1778.69V301.125Z" fill="#B3B3B3"/>
<path d="M1778.69 251.414H224.375V253.443H1778.69V251.414Z" fill="#B3B3B3"/>
<path d="M1778.69 200.688H224.375V202.717H1778.69V200.688Z" fill="#B3B3B3"/>
<path d="M1778.69 150.969H224.375V152.998H1778.69V150.969Z" fill="#B3B3B3"/>
<path d="M1778.69 100.242H224.375V103.286H1778.69V100.242Z" fill="#B3B3B3"/>
<path d="M1778.69 50.5312H224.375V52.5604H1778.69V50.5312Z" fill="#B3B3B3"/>
<path d="M1778.69 0.8125H224.375V2.84163H1778.69V0.8125Z" fill="#B3B3B3"/>
<path d="M1402.28 -98.6094H1400.25V902.764H1402.28V-98.6094Z" fill="#B3B3B3"/>
<path d="M1355.61 -98.6094H1353.58V902.764H1355.61V-98.6094Z" fill="#B3B3B3"/>
<path d="M1308.94 -98.6094H1306.91V902.764H1308.94V-98.6094Z" fill="#B3B3B3"/>
<path d="M1261.26 -98.6094H1259.23V902.764H1261.26V-98.6094Z" fill="#B3B3B3"/>
<path d="M1214.58 -98.6094H1212.55V902.764H1214.58V-98.6094Z" fill="#B3B3B3"/>
<path d="M1166.9 -98.6094H1164.88V902.764H1166.9V-98.6094Z" fill="#B3B3B3"/>
<path d="M1120.23 -98.6094H1118.2V902.764H1120.23V-98.6094Z" fill="#B3B3B3"/>
<path d="M1072.54 -98.6094H1070.52V902.764H1072.54V-98.6094Z" fill="#B3B3B3"/>
<path d="M1025.87 -98.6094H1023.84V902.764H1025.87V-98.6094Z" fill="#B3B3B3"/>
<path d="M979.209 -98.6094H977.18V902.764H979.209V-98.6094Z" fill="#B3B3B3"/>
<path d="M931.521 -98.6094H929.492V902.764H931.521V-98.6094Z" fill="#B3B3B3"/>
<path d="M884.849 -98.6094H882.82V902.764H884.849V-98.6094Z" fill="#B3B3B3"/>
<path d="M837.17 -98.6094H835.141V902.764H837.17V-98.6094Z" fill="#B3B3B3"/>
<path d="M790.498 -98.6094H788.469V902.764H790.498V-98.6094Z" fill="#B3B3B3"/>
<path d="M742.81 -98.6094H740.781V902.764H742.81V-98.6094Z" fill="#B3B3B3"/>
<path d="M696.146 -98.6094H694.117V902.764H696.146V-98.6094Z" fill="#B3B3B3"/>
<path d="M648.459 -98.6094H646.43V902.764H648.459V-98.6094Z" fill="#B3B3B3"/>
<path d="M601.787 -98.6094H599.758V902.764H601.787V-98.6094Z" fill="#B3B3B3"/>
<path d="M555.115 -98.6094H553.086V902.764H555.115V-98.6094Z" fill="#B3B3B3"/>
<path d="M507.435 -98.6094H505.406V902.764H507.435V-98.6094Z" fill="#B3B3B3"/>
<path d="M460.764 -98.6094H458.734V902.764H460.764V-98.6094Z" fill="#B3B3B3"/>
<path d="M413.084 -98.6094H411.055V902.764H413.084V-98.6094Z" fill="#B3B3B3"/>
<path d="M366.412 -98.6094H364.383V902.764H366.412V-98.6094Z" fill="#B3B3B3"/>
<path d="M318.724 -98.6094H316.695V902.764H318.724V-98.6094Z" fill="#B3B3B3"/>
<path d="M272.053 -98.6094H270.023V902.764H272.053V-98.6094Z" fill="#B3B3B3"/>
</g>
</g>
<defs>
<linearGradient id="paint0_linear_5266_44837" x1="758" y1="4.53233e-05" x2="862.115" y2="781.327" gradientUnits="userSpaceOnUse">
<stop offset="0.0163309" stop-opacity="0"/>
<stop offset="0.807473"/>
<stop offset="1" stop-opacity="0"/>
</linearGradient>
</defs>
</svg>
