<svg width="16" height="18" viewBox="0 0 16 18" fill="none" xmlns="http://www.w3.org/2000/svg">
<g clip-path="url(#clip0_4454_72587)">
<path d="M12.7194 11.0801H7.78125V15.3601H8.6467C8.77034 15.1383 9.0067 14.9855 9.2867 14.9855C9.5667 14.9855 9.80307 15.1383 9.9267 15.3601H12.7231V11.0801H12.7194Z" fill="url(#paint0_linear_4454_72587)"/>
<path d="M2.64844 8.57435H4.75389V6.75616C4.10662 6.74162 3.49207 6.66162 2.93935 6.52344C2.76116 7.13071 2.65571 7.83253 2.64844 8.57435Z" fill="url(#paint1_linear_4454_72587)"/>
<path d="M7.21537 8.92383H5.11719V10.742C5.74628 10.7566 6.34264 10.8329 6.88446 10.9675C7.07719 10.3675 7.19355 9.66928 7.21537 8.92383Z" fill="url(#paint2_linear_4454_72587)"/>
<path d="M5.11719 4.30273V6.39364C5.72082 6.3791 6.29537 6.30273 6.81537 6.17183C6.43719 5.12092 5.82264 4.40819 5.11719 4.30273Z" fill="url(#paint3_linear_4454_72587)"/>
<path d="M4.06486 4.18164C3.08304 4.37073 2.22122 4.87255 1.57031 5.578C1.89031 5.77437 2.26849 5.94891 2.69759 6.07982C3.01395 5.19255 3.49395 4.52346 4.06486 4.18164Z" fill="url(#paint4_linear_4454_72587)"/>
<path d="M6.76082 11.3127C6.25537 11.1927 5.70264 11.12 5.11719 11.1055V13.0437C5.78628 12.9418 6.37537 12.2873 6.76082 11.3127Z" fill="url(#paint5_linear_4454_72587)"/>
<path d="M4.74911 13.0437V11.1055C4.16365 11.1164 3.61092 11.1891 3.10547 11.3091C3.49092 12.2837 4.08001 12.9418 4.74911 13.0437Z" fill="url(#paint6_linear_4454_72587)"/>
<path d="M2.98325 10.9641C3.52507 10.8332 4.12143 10.7568 4.75053 10.7459V8.92773H2.65234C2.67416 9.66955 2.79053 10.3677 2.98325 10.9677V10.9641Z" fill="url(#paint7_linear_4454_72587)"/>
<path d="M3.05078 6.1791C3.57078 6.30637 4.14533 6.38273 4.74896 6.39728V4.30273C4.04715 4.41183 3.42896 5.12455 3.05078 6.1791Z" fill="url(#paint8_linear_4454_72587)"/>
<path d="M6.932 6.51953C6.37928 6.66135 5.76837 6.74135 5.12109 6.75589V8.57771H7.22655C7.21928 7.83226 7.11382 7.13044 6.93564 6.52317L6.932 6.51953Z" fill="url(#paint9_linear_4454_72587)"/>
<path d="M8.96528 10.822C9.2671 10.2511 9.45619 9.60746 9.49256 8.92383H7.57619C7.55438 9.70565 7.43438 10.4329 7.23438 11.062C7.30347 11.0838 7.36528 11.1056 7.43074 11.1275V10.8184H8.96528V10.822Z" fill="url(#paint10_linear_4454_72587)"/>
<path d="M7.58697 8.5752H9.50697C9.48516 7.54611 9.12516 6.60429 8.53606 5.85156C8.18334 6.08065 7.76152 6.27338 7.28516 6.42247C7.47425 7.06247 7.5797 7.79338 7.58697 8.57884V8.5752Z" fill="url(#paint11_linear_4454_72587)"/>
<path d="M2.28746 8.92383H0.371094C0.425639 9.93474 0.803821 10.8584 1.40746 11.5893C1.75655 11.3784 2.16746 11.1966 2.62928 11.0584C2.42928 10.4293 2.31291 9.70201 2.28746 8.92383Z" fill="url(#paint12_linear_4454_72587)"/>
<path d="M2.5851 6.4286C2.10874 6.27951 1.68692 6.08678 1.33055 5.86133C0.741463 6.61406 0.385099 7.55224 0.363281 8.57406H2.28328C2.29055 7.79224 2.39965 7.06496 2.5851 6.42496V6.4286Z" fill="url(#paint13_linear_4454_72587)"/>
<path d="M7.11741 11.4102C6.80105 12.2247 6.34287 12.8392 5.80469 13.1629C6.39741 13.0502 6.95014 12.8211 7.43742 12.5011V11.5265C7.33196 11.4865 7.23014 11.4465 7.12105 11.4102H7.11741Z" fill="url(#paint14_linear_4454_72587)"/>
<path d="M7.16832 6.07255C7.59741 5.938 7.97196 5.7671 8.28832 5.5671C7.64105 4.86891 6.77923 4.37073 5.80469 4.18164C6.37196 4.52346 6.85196 5.18891 7.16832 6.07255Z" fill="url(#paint15_linear_4454_72587)"/>
<path d="M2.74716 11.404C2.33989 11.5277 1.96898 11.6804 1.65625 11.8622C2.29625 12.5168 3.12534 12.9822 4.05989 13.1604C3.51807 12.8368 3.05989 12.2222 2.74352 11.4004L2.74716 11.404Z" fill="url(#paint16_linear_4454_72587)"/>
<path d="M15.6314 14.1054L14.6314 12.1309H12.9805V15.36H13.235C13.3587 15.1309 13.595 14.9709 13.875 14.9709C14.155 14.9709 14.3914 15.1309 14.515 15.36H15.6314V14.1054ZM13.4168 13.5709V12.5818H14.2423L14.7441 13.5709H13.4168Z" fill="url(#paint17_linear_4454_72587)"/>
<path d="M14.4153 15.4662C14.3134 15.2735 14.1134 15.1426 13.8807 15.1426C13.648 15.1426 13.448 15.2735 13.3462 15.4662C13.3025 15.5499 13.2734 15.6444 13.2734 15.7462C13.2734 16.0808 13.5462 16.3535 13.8807 16.3535C14.2153 16.3535 14.488 16.0808 14.488 15.7462C14.488 15.6444 14.4589 15.5499 14.4153 15.4662ZM13.8807 15.9426C13.768 15.9426 13.6771 15.8517 13.6771 15.7389C13.6771 15.6262 13.768 15.5353 13.8807 15.5353C13.9934 15.5353 14.0843 15.6262 14.0843 15.7389C14.0843 15.8517 13.9934 15.9426 13.8807 15.9426Z" fill="url(#paint18_linear_4454_72587)"/>
<path d="M9.82151 15.4662C9.71969 15.2735 9.51969 15.1426 9.28696 15.1426C9.05423 15.1426 8.85423 15.2735 8.75241 15.4662C8.70878 15.5499 8.67969 15.6444 8.67969 15.7462C8.67969 16.0808 8.95241 16.3535 9.28696 16.3535C9.62151 16.3535 9.89423 16.0808 9.89423 15.7462C9.89423 15.6444 9.86514 15.5499 9.82151 15.4662ZM9.28696 15.9426C9.17423 15.9426 9.08332 15.8517 9.08332 15.7389C9.08332 15.6262 9.17423 15.5353 9.28696 15.5353C9.39969 15.5353 9.4906 15.6262 9.4906 15.7389C9.4906 15.8517 9.39969 15.9426 9.28696 15.9426Z" fill="url(#paint19_linear_4454_72587)"/>
</g>
<defs>
<linearGradient id="paint0_linear_4454_72587" x1="10.2503" y1="18.7492" x2="10.2503" y2="8.21826" gradientUnits="userSpaceOnUse">
<stop stop-color="white"/>
<stop offset="0.49" stop-color="#969696"/>
</linearGradient>
<linearGradient id="paint1_linear_4454_72587" x1="3.69935" y1="3.10162" x2="3.69935" y2="14.6507" gradientUnits="userSpaceOnUse">
<stop stop-color="white"/>
<stop offset="0.49" stop-color="#FF7928"/>
</linearGradient>
<linearGradient id="paint2_linear_4454_72587" x1="6.1681" y1="4.18201" x2="6.1681" y2="14.6511" gradientUnits="userSpaceOnUse">
<stop stop-color="white"/>
<stop offset="0.49" stop-color="#FF7928"/>
</linearGradient>
<linearGradient id="paint3_linear_4454_72587" x1="5.9681" y1="4.18273" x2="5.9681" y2="14.6518" gradientUnits="userSpaceOnUse">
<stop stop-color="white"/>
<stop offset="0.49" stop-color="#FF7928"/>
</linearGradient>
<linearGradient id="paint4_linear_4454_72587" x1="2.81759" y1="4.18164" x2="2.81759" y2="14.6507" gradientUnits="userSpaceOnUse">
<stop stop-color="white"/>
<stop offset="0.49" stop-color="#FF7928"/>
</linearGradient>
<linearGradient id="paint5_linear_4454_72587" x1="5.93901" y1="4.18183" x2="5.93901" y2="14.6509" gradientUnits="userSpaceOnUse">
<stop stop-color="white"/>
<stop offset="0.49" stop-color="#FF7928"/>
</linearGradient>
<linearGradient id="paint6_linear_4454_72587" x1="3.92729" y1="3.10183" x2="3.92729" y2="14.6509" gradientUnits="userSpaceOnUse">
<stop stop-color="white"/>
<stop offset="0.49" stop-color="#FF7928"/>
</linearGradient>
<linearGradient id="paint7_linear_4454_72587" x1="3.70325" y1="3.10228" x2="3.70325" y2="14.6514" gradientUnits="userSpaceOnUse">
<stop stop-color="white"/>
<stop offset="0.49" stop-color="#FF7928"/>
</linearGradient>
<linearGradient id="paint8_linear_4454_72587" x1="3.90169" y1="3.10273" x2="3.90169" y2="14.6518" gradientUnits="userSpaceOnUse">
<stop stop-color="white"/>
<stop offset="0.49" stop-color="#FF7928"/>
</linearGradient>
<linearGradient id="paint9_linear_4454_72587" x1="6.172" y1="3.10135" x2="6.172" y2="14.6504" gradientUnits="userSpaceOnUse">
<stop stop-color="white"/>
<stop offset="0.49" stop-color="#FF7928"/>
</linearGradient>
<linearGradient id="paint10_linear_4454_72587" x1="8.36528" y1="3.10201" x2="8.36528" y2="14.6511" gradientUnits="userSpaceOnUse">
<stop stop-color="white"/>
<stop offset="0.49" stop-color="#FF7928"/>
</linearGradient>
<linearGradient id="paint11_linear_4454_72587" x1="8.39425" y1="3.10247" x2="8.39425" y2="14.6516" gradientUnits="userSpaceOnUse">
<stop stop-color="white"/>
<stop offset="0.49" stop-color="#FF7928"/>
</linearGradient>
<linearGradient id="paint12_linear_4454_72587" x1="1.49837" y1="3.10201" x2="1.49837" y2="14.6511" gradientUnits="userSpaceOnUse">
<stop stop-color="white"/>
<stop offset="0.49" stop-color="#FF7928"/>
</linearGradient>
<linearGradient id="paint13_linear_4454_72587" x1="1.47237" y1="3.10133" x2="1.47237" y2="14.6504" gradientUnits="userSpaceOnUse">
<stop stop-color="white"/>
<stop offset="0.49" stop-color="#FF7928"/>
</linearGradient>
<linearGradient id="paint14_linear_4454_72587" x1="6.61923" y1="4.18106" x2="6.61923" y2="14.6502" gradientUnits="userSpaceOnUse">
<stop stop-color="white"/>
<stop offset="0.49" stop-color="#FF7928"/>
</linearGradient>
<linearGradient id="paint15_linear_4454_72587" x1="7.04832" y1="4.18164" x2="7.04832" y2="14.6507" gradientUnits="userSpaceOnUse">
<stop stop-color="white"/>
<stop offset="0.49" stop-color="#FF7928"/>
</linearGradient>
<linearGradient id="paint16_linear_4454_72587" x1="2.85989" y1="3.10221" x2="2.85989" y2="14.6513" gradientUnits="userSpaceOnUse">
<stop stop-color="white"/>
<stop offset="0.49" stop-color="#FF7928"/>
</linearGradient>
<linearGradient id="paint17_linear_4454_72587" x1="14.3041" y1="4.18177" x2="14.3041" y2="8.21813" gradientUnits="userSpaceOnUse">
<stop stop-color="white"/>
<stop offset="0.49" stop-color="#969696"/>
</linearGradient>
<linearGradient id="paint18_linear_4454_72587" x1="13.8843" y1="18.7499" x2="13.8843" y2="8.21894" gradientUnits="userSpaceOnUse">
<stop stop-color="white"/>
<stop offset="0.49" stop-color="#969696"/>
</linearGradient>
<linearGradient id="paint19_linear_4454_72587" x1="9.2906" y1="4.18257" x2="9.2906" y2="8.21894" gradientUnits="userSpaceOnUse">
<stop stop-color="white"/>
<stop offset="0.49" stop-color="#969696"/>
</linearGradient>
<clipPath id="clip0_4454_72587">
<rect width="16" height="16" fill="white" transform="translate(0 2)"/>
</clipPath>
</defs>
</svg>
