<svg width="17" height="16" viewBox="0 0 17 16" fill="none" xmlns="http://www.w3.org/2000/svg">
<g clip-path="url(#clip0_4027_11172)">
<path d="M11.1758 7.8363C11.1758 8.94661 12.0755 9.84252 13.182 9.84252C14.2923 9.84252 15.1882 8.94278 15.1882 7.8363C15.1882 6.72599 14.2885 5.83008 13.182 5.83008C12.0717 5.83008 11.1758 6.72982 11.1758 7.8363ZM12.7226 8.50632V7.03994L13.9937 7.77504L12.7226 8.51014V8.50632Z" fill="url(#paint0_linear_4027_11172)"/>
<path d="M10.3633 1.69531V5.29809H10.8725V6.21697L11.8526 5.29809H15.9953V1.69531H10.3633ZM12.224 3.69005H11.8067V3.27272H12.224V3.69005ZM13.3918 3.69005H12.9744V3.27272H13.3918V3.69005ZM14.5595 3.69005H14.1422V3.27272H14.5595V3.69005Z" fill="url(#paint1_linear_4027_11172)"/>
<path d="M10.2189 6.54015L9.9375 6.05273L8.6079 6.82038L8.8893 7.30779L10.2189 6.54015Z" fill="#FF7928"/>
<path d="M8.45954 5.12394L7.89844 5.08008L7.78475 6.53436L8.34585 6.57823L8.45954 5.12394Z" fill="#FF7928"/>
<path d="M10.3047 8.3343V7.77148H8.94168V8.3343H10.3047Z" fill="#FF7928"/>
<path d="M1.1492 11.1159L0 11.9766L1.47343 13.944L2.62263 13.0833L1.1492 11.1159Z" fill="url(#paint2_linear_4027_11172)"/>
<path d="M5.78592 4.93037L4.63672 5.79102L8.60259 11.0865L9.75179 10.2259L5.78592 4.93037Z" fill="url(#paint3_linear_4027_11172)"/>
<path d="M7.9764 10.8048L2.8881 12.8875L1.41406 10.9196L4.72969 6.4707L7.9764 10.8048Z" fill="url(#paint4_linear_4027_11172)"/>
<path d="M5.90983 14.3565C5.39679 14.659 4.73826 14.4905 4.43197 13.9775L3.77344 12.8671L5.81795 12.0938L6.28504 12.8825C6.58751 13.3955 6.41905 14.054 5.90601 14.3603L5.90983 14.3565Z" fill="url(#paint5_linear_4027_11172)"/>
</g>
<defs>
<linearGradient id="paint0_linear_4027_11172" x1="11.976" y1="11.5118" x2="13.9401" y2="5.52761" gradientUnits="userSpaceOnUse">
<stop stop-color="white"/>
<stop offset="0.49" stop-color="#FF7928"/>
</linearGradient>
<linearGradient id="paint1_linear_4027_11172" x1="9.48652" y1="7.19328" x2="16.6461" y2="0.0336714" gradientUnits="userSpaceOnUse">
<stop stop-color="white"/>
<stop offset="0.49" stop-color="#969696"/>
</linearGradient>
<linearGradient id="paint2_linear_4027_11172" x1="8.60588" y1="14.8316" x2="0.741775" y2="12.3539" gradientUnits="userSpaceOnUse">
<stop offset="0.58" stop-color="white"/>
<stop offset="0.9" stop-color="#FF7928"/>
</linearGradient>
<linearGradient id="paint3_linear_4027_11172" x1="11.6286" y1="9.406" x2="3.76831" y2="6.92817" gradientUnits="userSpaceOnUse">
<stop stop-color="white"/>
<stop offset="0.61" stop-color="#FF7928"/>
</linearGradient>
<linearGradient id="paint4_linear_4027_11172" x1="10.843" y1="11.8989" x2="2.98276" y2="9.42109" gradientUnits="userSpaceOnUse">
<stop offset="0.19" stop-color="white"/>
<stop offset="0.65" stop-color="#FF7928"/>
</linearGradient>
<linearGradient id="paint5_linear_4027_11172" x1="4.27433" y1="11.2477" x2="6.13148" y2="15.2177" gradientUnits="userSpaceOnUse">
<stop stop-color="white"/>
<stop offset="0.72" stop-color="#969696"/>
</linearGradient>
<clipPath id="clip0_4027_11172">
<rect width="16" height="12.8107" fill="white" transform="translate(0 1.69531)"/>
</clipPath>
</defs>
</svg>
