<svg width="48" height="48" viewBox="0 0 48 48" fill="none" xmlns="http://www.w3.org/2000/svg">
<g clip-path="url(#clip0_4814_10821)">
<path d="M28.75 41.7999C28.793 41.7999 33.2204 40.016 33.2204 40.016L35.8282 44.3145L37.5476 35.6745C37.5476 35.6745 34.4025 35.3521 32.4825 33.9551L28.75 41.7999Z" fill="url(#paint0_linear_4814_10821)"/>
<path d="M40.6122 44.3535L42.8904 40.1123L47.6402 41.7171L43.4134 33.9941C43.4134 33.9941 40.7913 35.7637 38.3984 35.9213L40.6122 44.3535Z" fill="url(#paint1_linear_4814_10821)"/>
<path d="M41.6766 36.5946L38.4313 35.8854L35.3937 37.2251L33.1871 34.7319L29.9417 34.0155L29.6122 30.6985L27.3984 28.2054L29.0749 25.3254L28.7453 22.0084L31.7829 20.6687L33.4593 17.7887L36.6975 18.4979L39.7423 17.1582L41.9489 19.6513L45.1943 20.3678L45.5238 23.6848L47.7304 26.1779L46.0611 29.0579L46.3907 32.3749L43.3531 33.7146L41.6766 36.5946Z" fill="url(#paint2_linear_4814_10821)"/>
<path d="M37.5143 34.1166C41.3365 34.1166 44.4349 31.0181 44.4349 27.196C44.4349 23.3738 41.3365 20.2754 37.5143 20.2754C33.6922 20.2754 30.5938 23.3738 30.5938 27.196C30.5938 31.0181 33.6922 34.1166 37.5143 34.1166Z" fill="url(#paint3_linear_4814_10821)"/>
<path d="M26.6899 28.2118L28.4738 25.1599L28.1227 21.6351L31.3609 20.2166L33.152 17.1575L36.6051 17.9169L39.8505 16.4912L42.2003 19.1348L43.6475 19.45V3.57422H-0.132812V34.0936H29.3621L29.0397 30.8554L26.6899 28.2118Z" fill="#FF7928"/>
<path d="M6.39062 10.5137H37.1178" stroke="white" stroke-width="0.716418" stroke-miterlimit="10"/>
<path d="M6.39062 14.5996H37.1178" stroke="white" stroke-width="0.716418" stroke-miterlimit="10"/>
<path d="M6.39062 23.0684H25.8127" stroke="white" stroke-width="0.687761" stroke-miterlimit="10"/>
<path d="M6.39062 27.166H25.8127" stroke="white" stroke-width="0.687761" stroke-miterlimit="10"/>
<path d="M41.1972 29.7111L38.396 29.3672C38.3643 29.3646 38.3325 29.369 38.3028 29.3801C38.273 29.3913 38.2461 29.4089 38.224 29.4317L36.3398 31.5164C36.3143 31.5416 36.2824 31.5595 36.2476 31.5681C36.2128 31.5768 36.1763 31.576 36.1419 31.5657C36.1075 31.5555 36.0765 31.5362 36.0521 31.5099C36.0277 31.4836 36.0108 31.4512 36.0031 31.4162L35.4873 28.6508C35.4829 28.6198 35.4707 28.5904 35.4519 28.5654C35.4331 28.5403 35.4084 28.5204 35.3798 28.5075L32.8222 27.3397C32.7909 27.3224 32.7647 27.297 32.7465 27.2661C32.7284 27.2352 32.7188 27.2 32.7188 27.1642C32.7188 27.1284 32.7284 27.0932 32.7465 27.0623C32.7647 27.0315 32.7909 27.006 32.8222 26.9887L35.301 25.6418C35.329 25.6291 35.3531 25.6091 35.3708 25.5839C35.3884 25.5587 35.399 25.5292 35.4013 25.4985L35.6879 22.6902C35.6933 22.6547 35.708 22.6213 35.7307 22.5935C35.7534 22.5656 35.7831 22.5444 35.8167 22.532C35.8504 22.5195 35.8868 22.5163 35.9221 22.5228C35.9574 22.5292 35.9903 22.5449 36.0175 22.5684L38.0593 24.5099C38.0821 24.531 38.1095 24.5465 38.1393 24.5552C38.1692 24.5639 38.2006 24.5656 38.2312 24.56L40.9966 23.9797C41.0319 23.9722 41.0685 23.9747 41.1025 23.987C41.1364 23.9993 41.1662 24.0208 41.1886 24.0491C41.211 24.0774 41.225 24.1114 41.229 24.1473C41.233 24.1831 41.227 24.2194 41.2115 24.252L39.9864 26.7953C39.972 26.8229 39.9644 26.8536 39.9644 26.8848C39.9644 26.916 39.972 26.9467 39.9864 26.9744L41.4192 29.4245C41.44 29.458 41.4501 29.4971 41.448 29.5365C41.446 29.5759 41.4319 29.6138 41.4077 29.6449C41.3836 29.6761 41.3505 29.6992 41.3128 29.711C41.2752 29.7228 41.2348 29.7228 41.1972 29.7111Z" fill="white"/>
</g>
<defs>
<linearGradient id="paint0_linear_4814_10821" x1="29.2893" y1="42.7278" x2="37.4732" y2="35.6899" gradientUnits="userSpaceOnUse">
<stop offset="0.54" stop-color="#FF7928"/>
<stop offset="1" stop-color="white"/>
</linearGradient>
<linearGradient id="paint1_linear_4814_10821" x1="41.1487" y1="45.5351" x2="44.6323" y2="35.3941" gradientUnits="userSpaceOnUse">
<stop offset="0.41" stop-color="#FF7928"/>
<stop offset="1" stop-color="white"/>
</linearGradient>
<linearGradient id="paint2_linear_4814_10821" x1="27.649" y1="27.1181" x2="49.7472" y2="27.1181" gradientUnits="userSpaceOnUse">
<stop offset="0.06" stop-color="#969696"/>
<stop offset="1" stop-color="white"/>
</linearGradient>
<linearGradient id="paint3_linear_4814_10821" x1="32.6243" y1="32.0893" x2="42.4115" y2="22.3021" gradientUnits="userSpaceOnUse">
<stop offset="0.38" stop-color="#969696"/>
<stop offset="1" stop-color="white"/>
</linearGradient>
<clipPath id="clip0_4814_10821">
<rect width="48" height="48" fill="white"/>
</clipPath>
</defs>
</svg>
