<svg width="16" height="18" viewBox="0 0 16 18" fill="none" xmlns="http://www.w3.org/2000/svg">
<g clip-path="url(#clip0_4454_71967)">
<path d="M15.5944 9.24801V7.33286H13.655V4.42377H11.2841V2.48438H9.36896V4.42377H7.00775V2.48438H5.09259V4.42377H2.45502V7.33286H0.515625V9.24801H2.45502V11.6092H0.515625V13.5244H2.45502V15.6238H5.09259V17.5632H7.00775V15.6238H9.36896V17.5632H11.2841V15.6238H13.655V13.5244H15.5944V11.6092H13.655V9.24801H15.5944ZM11.5508 13.5244H4.55926V6.52801H11.5556V13.5244H11.5508Z" fill="url(#paint0_linear_4454_71967)"/>
<path d="M11.2862 2.48438H9.37109V4.42377H11.2862V2.48438Z" fill="#969696"/>
<path d="M7.005 2.48438H5.08984V4.42377H7.005V2.48438Z" fill="#969696"/>
<path d="M11.2862 15.6289H9.37109V17.5683H11.2862V15.6289Z" fill="#969696"/>
<path d="M7.005 15.6289H5.08984V17.5683H7.005V15.6289Z" fill="#969696"/>
<path d="M15.6102 11.6094H13.6562V13.5245H15.6102V11.6094Z" fill="#969696"/>
<path d="M15.6102 7.34766H13.6562V9.26281H15.6102V7.34766Z" fill="#969696"/>
<path d="M2.46956 11.6094H0.515625V13.5245H2.46956V11.6094Z" fill="#969696"/>
<path d="M2.46956 7.34766H0.515625V9.26281H2.46956V7.34766Z" fill="#969696"/>
</g>
<defs>
<linearGradient id="paint0_linear_4454_71967" x1="0.515625" y1="10.0238" x2="15.5944" y2="10.0238" gradientUnits="userSpaceOnUse">
<stop offset="0.54" stop-color="#FF7928"/>
<stop offset="0.95" stop-color="white"/>
</linearGradient>
<clipPath id="clip0_4454_71967">
<rect width="16" height="16" fill="white" transform="translate(0 2)"/>
</clipPath>
</defs>
</svg>
