<svg width="16" height="17" viewBox="0 0 16 17" fill="none" xmlns="http://www.w3.org/2000/svg">
<g clip-path="url(#clip0_4027_11065)">
<path d="M1.81912 12.1415L0.484375 13.1191L2.16026 15.4073L3.49501 14.4297L1.81912 12.1415Z" fill="url(#paint0_linear_4027_11065)"/>
<path d="M7.23709 5.06537L5.90234 6.04297L10.4119 12.1999L11.7466 11.2223L7.23709 5.06537Z" fill="url(#paint1_linear_4027_11065)"/>
<path d="M9.69463 11.8683L3.79611 14.2079L2.12109 11.9197L6.00206 6.82617L9.69463 11.8683Z" fill="url(#paint2_linear_4027_11065)"/>
<path d="M7.27043 15.9378C6.67441 16.2803 5.91397 16.0782 5.57143 15.4822L4.82812 14.1943L7.1985 13.3242L7.72601 14.2388C8.06854 14.8348 7.86645 15.5953 7.27043 15.9378Z" fill="url(#paint3_linear_4027_11065)"/>
<path d="M8.02657 0.101562C6.85508 0.101562 5.90625 1.0504 5.90625 2.22188C5.90625 3.39336 6.85508 4.3422 8.02657 4.3422C8.30745 4.3422 8.57463 4.28739 8.82126 4.18805C9.47208 3.9243 9.96191 3.34541 10.1024 2.6432C10.1298 2.50961 10.1435 2.36917 10.1435 2.2253C10.1435 1.05382 9.19463 0.104988 8.02314 0.104988L8.02657 0.101562ZM7.62237 2.93094V1.51282L8.85209 2.22188L7.62237 2.93094Z" fill="url(#paint4_linear_4027_11065)"/>
<path d="M10.92 2.85547H10.4712C10.3205 3.60905 9.79644 4.22905 9.09766 4.51336V6.32196H10.1595V7.05842L11.4132 6.32196H15.4655V2.85547H10.9165H10.92ZM11.081 4.86617H10.5534V4.33866H11.081V4.86617ZM12.5436 4.86617H12.0161V4.33866H12.5436V4.86617ZM14.0062 4.86617H13.4787V4.33866H14.0062V4.86617Z" fill="url(#paint5_linear_4027_11065)"/>
</g>
<defs>
<linearGradient id="paint0_linear_4027_11065" x1="10.3752" y1="16.5204" x2="1.33559" y2="13.5608" gradientUnits="userSpaceOnUse">
<stop offset="0.58" stop-color="white"/>
<stop offset="0.9" stop-color="#FF7928"/>
</linearGradient>
<linearGradient id="paint1_linear_4027_11065" x1="13.9266" y1="10.3005" x2="4.88694" y2="7.34441" gradientUnits="userSpaceOnUse">
<stop stop-color="white"/>
<stop offset="0.61" stop-color="#FF7928"/>
</linearGradient>
<linearGradient id="paint2_linear_4027_11065" x1="12.9899" y1="13.1631" x2="3.95025" y2="10.207" gradientUnits="userSpaceOnUse">
<stop offset="0.19" stop-color="white"/>
<stop offset="0.65" stop-color="#FF7928"/>
</linearGradient>
<linearGradient id="paint3_linear_4027_11065" x1="5.42414" y1="12.3309" x2="7.51706" y2="16.9346" gradientUnits="userSpaceOnUse">
<stop stop-color="white"/>
<stop offset="0.72" stop-color="#969696"/>
</linearGradient>
<linearGradient id="paint4_linear_4027_11065" x1="5.34106" y1="6.87013" x2="12.0925" y2="-4.8173" gradientUnits="userSpaceOnUse">
<stop stop-color="white"/>
<stop offset="0.49" stop-color="#969696"/>
</linearGradient>
<linearGradient id="paint5_linear_4027_11065" x1="11.9236" y1="8.31554" x2="12.6155" y2="2.70818" gradientUnits="userSpaceOnUse">
<stop stop-color="white"/>
<stop offset="0.49" stop-color="#FF7928"/>
</linearGradient>
<clipPath id="clip0_4027_11065">
<rect width="14.9861" height="16" fill="white" transform="translate(0.480469 0.101562)"/>
</clipPath>
</defs>
</svg>
