<svg width="16" height="18" viewBox="0 0 16 18" fill="none" xmlns="http://www.w3.org/2000/svg">
<g clip-path="url(#clip0_4454_71954)">
<path d="M14.9694 5.50767C14.0376 5.41356 12.7953 5.19238 11.4165 4.6512C9.79764 4.02062 8.58823 3.18767 7.79764 2.54297C7.00234 3.18767 5.79764 4.01591 4.17882 4.6512C2.79999 5.18767 1.55293 5.41356 0.625874 5.50767C0.371757 6.55709 0.079992 8.47709 0.757639 10.6418C2.26823 15.47 7.23764 17.1124 7.80234 17.2912C8.36234 17.1171 13.3318 15.47 14.8471 10.6418C15.5247 8.47709 15.2329 6.55709 14.9788 5.50767H14.9694ZM12.3765 10.3877C11.3929 13.5265 8.15999 14.5994 7.79293 14.7124C7.42587 14.5994 4.19293 13.5265 3.2094 10.3877C2.76705 8.98062 2.95999 7.72885 3.1247 7.0465C3.73176 6.98532 4.54117 6.83944 5.43529 6.4912C6.4894 6.08179 7.27529 5.54062 7.79293 5.12179C8.31058 5.54062 9.09176 6.08179 10.1506 6.4912C11.0494 6.83944 11.8588 6.98532 12.4612 7.0465C12.6259 7.72885 12.8188 8.97591 12.3765 10.3877Z" fill="url(#paint0_linear_4454_71954)"/>
</g>
<defs>
<linearGradient id="paint0_linear_4454_71954" x1="0.33411" y1="9.92179" x2="15.2565" y2="9.92179" gradientUnits="userSpaceOnUse">
<stop stop-color="#FF7928"/>
<stop offset="0.14" stop-color="#FFA36B"/>
<stop offset="0.46" stop-color="#FFDDC8"/>
<stop offset="0.84" stop-color="#FF8E49"/>
<stop offset="0.9" stop-color="#FF9453"/>
<stop offset="1" stop-color="#FF8B45"/>
</linearGradient>
<clipPath id="clip0_4454_71954">
<rect width="16" height="16" fill="white" transform="translate(0 2)"/>
</clipPath>
</defs>
</svg>
