<svg width="48" height="48" viewBox="0 0 48 48" fill="none" xmlns="http://www.w3.org/2000/svg">
<g clip-path="url(#clip0_4814_10784)">
<path d="M1.35156 9.87109V19.7064H36.7869V9.87109H1.35156ZM5.97274 15.4334H4.64568V14.1534H5.97274V15.4334ZM8.35392 15.4334H7.02686V14.1534H8.35392V15.4334ZM10.7351 15.4334H9.40803V14.1534H10.7351V15.4334ZM33.088 15.4334H19.3186V14.1534H33.088V15.4334Z" fill="url(#paint0_linear_4814_10784)"/>
<path d="M1.35156 -0.474609V9.36068H36.7869V-0.474609H1.35156ZM5.97274 5.08774H4.64568V3.80774H5.97274V5.08774ZM8.35392 5.08774H7.02686V3.80774H8.35392V5.08774ZM10.7351 5.08774H9.40803V3.80774H10.7351V5.08774ZM33.088 5.08774H19.3186V3.80774H33.088V5.08774Z" fill="url(#paint1_linear_4814_10784)"/>
<path d="M45.6604 36.421L46.1028 33.381L43.5146 31.7151L42.2346 28.9198H39.1569L36.5687 27.2539L33.9804 28.9198H30.9028L29.6228 31.7151L27.0346 33.381L27.4675 36.421L26.1875 39.2163L28.2016 41.541L28.6346 44.581L31.5804 45.4468L33.5946 47.7716L36.5404 46.9057L39.4863 47.7716L41.5004 45.4468L44.4463 44.581L44.8793 41.541L46.8934 39.2163L45.6134 36.421H45.6604ZM36.5687 44.1386C32.9075 44.1386 29.9428 41.1739 29.9428 37.5127C29.9428 33.8516 32.9075 30.8868 36.5687 30.8868C40.2299 30.8868 43.1946 33.8516 43.1946 37.5127C43.1946 41.1739 40.2299 44.1386 36.5687 44.1386Z" fill="url(#paint2_linear_4814_10784)"/>
<path d="M42.0694 35.4413L40.5165 33.8789L35.8859 38.5095L33.0529 35.6671L31.5 37.2295L35.8765 41.606L35.8859 41.5966L35.9047 41.606L42.0694 35.4413Z" fill="url(#paint3_linear_4814_10784)"/>
<path d="M33.521 27.8984L36.7774 25.6113V20.209H1.35156V30.0443H29.0504L29.9445 27.889H33.5116L33.521 27.8984ZM5.97274 25.7807H4.65509V24.5008H5.97274V25.7807ZM8.35392 25.7807H7.03627V24.5008H8.35392V25.7807ZM10.7351 25.7807H9.41744V24.5008H10.7351V25.7807ZM19.3186 24.5008H33.088V25.7807H19.3186V24.5008Z" fill="url(#paint4_linear_4814_10784)"/>
<path d="M26.208 36.5516L26.1516 36.2127H19.328V34.9327H25.9351L25.6151 33.0504L28.3351 31.1586L28.5516 30.6504H1.35156V40.4857H25.7845L24.9469 39.3186L26.2174 36.561L26.208 36.5516ZM5.97274 36.2127H4.65509V34.9327H5.97274V36.2127ZM8.35392 36.2127H7.03627V34.9327H8.35392V36.2127ZM10.7351 36.2127H9.41744V34.9327H10.7351V36.2127Z" fill="url(#paint5_linear_4814_10784)"/>
</g>
<defs>
<linearGradient id="paint0_linear_4814_10784" x1="7.0645" y1="2.78404" x2="40.0057" y2="35.7252" gradientUnits="userSpaceOnUse">
<stop offset="0.67" stop-color="#FF7928"/>
<stop offset="1" stop-color="white"/>
</linearGradient>
<linearGradient id="paint1_linear_4814_10784" x1="7.0645" y1="-7.56167" x2="40.0057" y2="25.3795" gradientUnits="userSpaceOnUse">
<stop offset="0.67" stop-color="#FF7928"/>
<stop offset="1" stop-color="white"/>
</linearGradient>
<linearGradient id="paint2_linear_4814_10784" x1="36.5687" y1="56.6563" x2="36.5687" y2="15.9127" gradientUnits="userSpaceOnUse">
<stop stop-color="white"/>
<stop offset="0.49" stop-color="#969696"/>
</linearGradient>
<linearGradient id="paint3_linear_4814_10784" x1="36.7894" y1="43.046" x2="36.7894" y2="32.0624" gradientUnits="userSpaceOnUse">
<stop stop-color="white"/>
<stop offset="0.49" stop-color="#FF7928"/>
</linearGradient>
<linearGradient id="paint4_linear_4814_10784" x1="7.0645" y1="13.1219" x2="40.0057" y2="46.0631" gradientUnits="userSpaceOnUse">
<stop offset="0.67" stop-color="#FF7928"/>
<stop offset="1" stop-color="white"/>
</linearGradient>
<linearGradient id="paint5_linear_4814_10784" x1="5.00333" y1="25.6151" x2="37.9445" y2="58.5563" gradientUnits="userSpaceOnUse">
<stop offset="0.67" stop-color="#FF7928"/>
<stop offset="1" stop-color="white"/>
</linearGradient>
<clipPath id="clip0_4814_10784">
<rect width="48" height="48" fill="white"/>
</clipPath>
</defs>
</svg>
