<svg width="16" height="18" viewBox="0 0 16 18" fill="none" xmlns="http://www.w3.org/2000/svg">
<g clip-path="url(#clip0_4454_72726)">
<path d="M7.87349 18.1435C8.26961 18.1435 8.59073 17.8223 8.59073 17.4262C8.59073 17.0301 8.26961 16.709 7.87349 16.709C7.47737 16.709 7.15625 17.0301 7.15625 17.4262C7.15625 17.8223 7.47737 18.1435 7.87349 18.1435Z" fill="#969696"/>
<path d="M14.7094 18.1435C15.1056 18.1435 15.4267 17.8223 15.4267 17.4262C15.4267 17.0301 15.1056 16.709 14.7094 16.709C14.3133 16.709 13.9922 17.0301 13.9922 17.4262C13.9922 17.8223 14.3133 18.1435 14.7094 18.1435Z" fill="#969696"/>
<path d="M1.29537 18.1435C1.69149 18.1435 2.01261 17.8223 2.01261 17.4262C2.01261 17.0301 1.69149 16.709 1.29537 16.709C0.899245 16.709 0.578125 17.0301 0.578125 17.4262C0.578125 17.8223 0.899245 18.1435 1.29537 18.1435Z" fill="#969696"/>
<path d="M14.2756 17.2773H1.58594V17.5698H14.2756V17.2773Z" fill="#969696"/>
<path d="M8.02344 17.1721V4.48242H7.72551L7.72551 17.1721H8.02344Z" fill="#969696"/>
<path d="M0.757812 2.55078V6.65009H15.533V2.55078H0.757812ZM2.68885 4.86802H2.13712V4.33837H2.68885V4.86802ZM3.68195 4.86802H3.13023V4.33837H3.68195V4.86802ZM4.67505 4.86802H4.12333V4.33837H4.67505V4.86802ZM13.9937 4.86802H8.25023V4.33837H13.9882V4.86802H13.9937Z" fill="url(#paint0_linear_4454_72726)"/>
<path d="M0.757812 7.21875V11.3181H15.533V7.21875H0.757812ZM2.68333 9.53599H2.13161V9.00634H2.68333V9.53599ZM3.67643 9.53599H3.12471V9.00634H3.67643V9.53599ZM4.66954 9.53599H4.11781V9.00634H4.66954V9.53599ZM13.9882 9.53599H8.25023V9.00634H13.9882V9.53599Z" fill="url(#paint1_linear_4454_72726)"/>
<path d="M0.757812 11.8809V15.9802H15.533V11.8809H0.757812ZM2.68333 14.1981H2.13161V13.6684H2.68333V14.1981ZM3.67643 14.1981H3.12471V13.6684H3.67643V14.1981ZM4.66954 14.1981H4.11781V13.6684H4.66954V14.1981ZM13.9882 14.1981H8.25023V13.6684H13.9882V14.1981Z" fill="url(#paint2_linear_4454_72726)"/>
</g>
<defs>
<linearGradient id="paint0_linear_4454_72726" x1="3.14126" y1="-0.40646" x2="16.8737" y2="13.3315" gradientUnits="userSpaceOnUse">
<stop offset="0.67" stop-color="#FF7928"/>
<stop offset="1" stop-color="white"/>
</linearGradient>
<linearGradient id="paint1_linear_4454_72726" x1="0.807468" y1="1.92772" x2="14.5399" y2="15.6601" gradientUnits="userSpaceOnUse">
<stop offset="0.67" stop-color="#FF7928"/>
<stop offset="1" stop-color="white"/>
</linearGradient>
<linearGradient id="paint2_linear_4454_72726" x1="-2.52495" y1="4.85741" x2="14.1978" y2="19.0809" gradientUnits="userSpaceOnUse">
<stop offset="0.7" stop-color="#FF7928"/>
<stop offset="1" stop-color="white"/>
</linearGradient>
<clipPath id="clip0_4454_72726">
<rect width="16" height="16" fill="white" transform="translate(0 2)"/>
</clipPath>
</defs>
</svg>
