<svg width="16" height="18" viewBox="0 0 16 18" fill="none" xmlns="http://www.w3.org/2000/svg">
<path d="M4.73931 17.1857C5.03976 17.1857 5.28331 16.9421 5.28331 16.6417C5.28331 16.3412 5.03976 16.0977 4.73931 16.0977C4.43887 16.0977 4.19531 16.3412 4.19531 16.6417C4.19531 16.9421 4.43887 17.1857 4.73931 17.1857Z" fill="url(#paint0_linear_4454_72677)"/>
<path d="M9.55931 4.7793L4.19531 8.6433H14.9273L9.55931 4.7793Z" fill="url(#paint1_linear_4454_72677)"/>
<path d="M14.2303 13.0059H4.40625V14.4339H14.2303V13.0059Z" fill="url(#paint2_linear_4454_72677)"/>
<path d="M7.04041 8.96289H5.31641V12.6869H7.04041V8.96289Z" fill="url(#paint3_linear_4454_72677)"/>
<path d="M9.11463 8.96289H7.39062V12.6869H9.11463V8.96289Z" fill="url(#paint4_linear_4454_72677)"/>
<path d="M11.1927 8.96289H9.46875V12.6869H11.1927V8.96289Z" fill="url(#paint5_linear_4454_72677)"/>
<path d="M13.267 8.96289H11.543V12.6869H13.267V8.96289Z" fill="url(#paint6_linear_4454_72677)"/>
<path d="M7.97272 14.7584V15.7304H1.51272V4.20644H7.97272V5.59044L8.84872 4.93044V2.39844H0.636719V17.5784H8.84472V14.7584H7.96872H7.97272ZM4.74472 17.3144C4.37272 17.3144 4.07272 17.0144 4.07272 16.6424C4.07272 16.2704 4.37272 15.9704 4.74472 15.9704C5.11672 15.9704 5.41672 16.2704 5.41672 16.6424C5.41672 17.0144 5.11672 17.3144 4.74472 17.3144Z" fill="url(#paint7_linear_4454_72677)"/>
<defs>
<linearGradient id="paint0_linear_4454_72677" x1="4.73931" y1="17.5857" x2="4.73931" y2="15.6977" gradientUnits="userSpaceOnUse">
<stop stop-color="white"/>
<stop offset="0.49" stop-color="#969696"/>
</linearGradient>
<linearGradient id="paint1_linear_4454_72677" x1="9.55931" y1="3.2953" x2="9.55931" y2="8.8033" gradientUnits="userSpaceOnUse">
<stop stop-color="white"/>
<stop offset="0.49" stop-color="#FF7928"/>
</linearGradient>
<linearGradient id="paint2_linear_4454_72677" x1="9.31825" y1="16.7299" x2="9.31825" y2="9.36986" gradientUnits="userSpaceOnUse">
<stop stop-color="white"/>
<stop offset="0.49" stop-color="#969696"/>
</linearGradient>
<linearGradient id="paint3_linear_4454_72677" x1="6.17641" y1="14.2869" x2="6.17641" y2="7.42289" gradientUnits="userSpaceOnUse">
<stop stop-color="white"/>
<stop offset="0.49" stop-color="#FF7928"/>
</linearGradient>
<linearGradient id="paint4_linear_4454_72677" x1="8.25063" y1="14.2869" x2="8.25063" y2="7.42289" gradientUnits="userSpaceOnUse">
<stop stop-color="white"/>
<stop offset="0.49" stop-color="#FF7928"/>
</linearGradient>
<linearGradient id="paint5_linear_4454_72677" x1="10.3287" y1="14.2869" x2="10.3287" y2="7.42289" gradientUnits="userSpaceOnUse">
<stop stop-color="white"/>
<stop offset="0.49" stop-color="#FF7928"/>
</linearGradient>
<linearGradient id="paint6_linear_4454_72677" x1="12.403" y1="14.2869" x2="12.403" y2="7.42289" gradientUnits="userSpaceOnUse">
<stop stop-color="white"/>
<stop offset="0.49" stop-color="#FF7928"/>
</linearGradient>
<linearGradient id="paint7_linear_4454_72677" x1="4.74072" y1="20.1984" x2="4.74072" y2="7.91044" gradientUnits="userSpaceOnUse">
<stop stop-color="white"/>
<stop offset="0.49" stop-color="#969696"/>
</linearGradient>
</defs>
</svg>
