<svg width="48" height="48" viewBox="0 0 48 48" fill="none" xmlns="http://www.w3.org/2000/svg">
<g clip-path="url(#clip0_4814_10936)">
<path d="M26.8263 33.877H21.6484V42.7825H26.8263V33.877Z" fill="#969696"/>
<path d="M33.7553 39.6855H14.7188V42.78H33.7553V39.6855Z" fill="#969696"/>
<path d="M0.117188 5.21875V37.3787H48.3521V5.21875H0.117188ZM43.0108 33.2426H5.22357V9.92684H43.0108V33.2426Z" fill="url(#paint0_linear_4814_10936)"/>
<path d="M17.0431 22.8624L19.6677 21.2999C19.9378 21.1318 20.2408 21.0238 20.5563 20.9833C20.9026 20.9337 21.2555 20.9601 21.5906 21.0606C21.9257 21.1611 22.2349 21.3334 22.4967 21.5654L23.3035 21.0752C22.7844 20.5363 22.0985 20.1885 21.3569 20.0884C20.6154 19.9883 19.8618 20.1417 19.2184 20.5237L16.4609 22.1373C16.4875 22.2006 16.5182 22.262 16.5529 22.3212C16.6843 22.5282 16.8501 22.7112 17.0431 22.8624Z" fill="#969696"/>
<path d="M22.1292 25.3877L17.0228 28.4516C16.7549 28.6204 16.4563 28.7345 16.1441 28.7873C15.8319 28.8402 15.5123 28.8307 15.2038 28.7595C14.8953 28.6883 14.6039 28.5568 14.3464 28.3725C14.0889 28.1882 13.8705 27.9547 13.7037 27.6856C13.541 27.4178 13.4331 27.1205 13.3862 26.8107C13.3393 26.501 13.3542 26.185 13.4302 25.8811C13.5062 25.5772 13.6417 25.2913 13.8289 25.0401C14.016 24.7889 14.2512 24.5773 14.5207 24.4175L16.216 23.3963C16.0508 23.2271 15.9068 23.0385 15.7871 22.8346C15.7524 22.7754 15.7217 22.714 15.6951 22.6507L14.0509 23.672C13.6788 23.8928 13.3541 24.185 13.0954 24.5318C12.8368 24.8787 12.6494 25.2733 12.544 25.6929C12.4387 26.1126 12.4174 26.5489 12.4814 26.9768C12.5455 27.4047 12.6936 27.8157 12.9173 28.186C13.2604 28.7383 13.7572 29.1783 14.3468 29.4523C14.9364 29.7262 15.5931 29.8221 16.2364 29.7282C16.6702 29.6652 17.0869 29.5159 17.4619 29.289L22.5683 26.2252C23.2875 25.7943 23.8142 25.1043 24.0403 24.297C24.2663 23.4897 24.1745 22.6264 23.7837 21.8848L22.9973 22.3546C23.2502 22.8785 23.3016 23.4773 23.1415 24.0366C22.9814 24.596 22.6211 25.077 22.1292 25.3877Z" fill="#969696"/>
<path d="M27.616 15.0621C27.0533 14.3582 26.2342 13.9064 25.3386 13.8059C24.4164 13.696 23.4861 13.9286 22.7241 14.4595L17.5565 18.0442C16.8117 18.5478 16.2974 19.3266 16.1267 20.2093C15.9979 20.9915 16.1772 21.7932 16.6271 22.4459L17.4135 21.9047C17.1033 21.4394 16.9861 20.8717 17.0867 20.3217C17.2077 19.6865 17.5747 19.1249 18.1079 18.7591L23.2756 15.1642C23.5544 14.9729 23.8659 14.8344 24.1948 14.7557C24.5294 14.6775 24.8753 14.6602 25.216 14.7047C25.8612 14.7757 26.4521 15.0987 26.8603 15.6034C27.0551 15.8456 27.1952 16.1271 27.271 16.4285C27.3468 16.7299 27.3565 17.0442 27.2994 17.3498C27.2413 17.6663 27.1211 17.9682 26.9459 18.2381C26.7706 18.5081 26.5437 18.7406 26.2782 18.9225L24.5318 20.1072C24.7186 20.2566 24.8866 20.428 25.0322 20.6178L25.1548 20.7812L26.799 19.6374C27.1678 19.3892 27.4834 19.0698 27.7271 18.698C27.9709 18.3262 28.138 17.9095 28.2186 17.4723C28.292 17.0508 28.2764 16.6185 28.1726 16.2034C28.0688 15.7883 27.8792 15.3995 27.616 15.0621Z" fill="#969696"/>
<path d="M18.557 23.684C18.1767 23.5919 17.8255 23.4058 17.5358 23.1427L16.7188 23.6329C17.1538 24.0891 17.7101 24.4116 18.3222 24.5623C18.7365 24.6623 19.1656 24.6865 19.5885 24.6338C20.0274 24.5721 20.4484 24.419 20.8243 24.1844L23.6124 22.581C23.5859 22.5178 23.5551 22.4564 23.5205 22.3972C23.3984 22.1895 23.2432 22.0032 23.0609 21.8457L20.426 23.4185C20.1493 23.5884 19.8406 23.6997 19.5191 23.7454C19.1976 23.7911 18.8701 23.7702 18.557 23.684Z" fill="#969696"/>
<path d="M23.299 21.0801L22.4922 21.5703C22.6692 21.7291 22.8238 21.9112 22.9518 22.1116L23.0335 22.2954L23.8198 21.8256C23.7954 21.7647 23.7646 21.7065 23.7279 21.652C23.605 21.4471 23.4612 21.2555 23.299 21.0801Z" fill="#969696"/>
<path d="M36.0388 23.4494H35.1299V20.0077H31.0448V18.8945H28.4814V20.0077H24.3963V23.4494H23.375V25.6452H24.3963V29.4239H35.1299V25.6452H36.0388V23.4494ZM33.6899 28.1167H25.8669V21.2537H33.6899V28.1167Z" fill="url(#paint1_linear_4814_10936)"/>
<path d="M31.0171 26.002H28.4844V26.87H31.0171V26.002Z" fill="#969696"/>
<path d="M32.5619 23.4492H30.8359V25.1752H32.5619V23.4492Z" fill="#FF7928"/>
<path d="M28.9838 23.4492H27.2578V25.1752H28.9838V23.4492Z" fill="#FF7928"/>
</g>
<defs>
<linearGradient id="paint0_linear_4814_10936" x1="2.34357" y1="-0.592314" x2="69.37" y2="66.4239" gradientUnits="userSpaceOnUse">
<stop offset="0.28" stop-color="#FF7928"/>
<stop offset="0.95" stop-color="white"/>
</linearGradient>
<linearGradient id="paint1_linear_4814_10936" x1="25.0499" y1="20.0077" x2="35.3546" y2="30.3124" gradientUnits="userSpaceOnUse">
<stop offset="0.7" stop-color="#FF7928"/>
<stop offset="1" stop-color="white"/>
</linearGradient>
<clipPath id="clip0_4814_10936">
<rect width="48" height="48" fill="white"/>
</clipPath>
</defs>
</svg>
