<svg width="17" height="17" viewBox="0 0 17 17" fill="none" xmlns="http://www.w3.org/2000/svg">
<g clip-path="url(#clip0_4027_11194)">
<path d="M8.84071 7.90264L8.45703 7.42969L7.16686 8.47631L7.55054 8.94927L8.84071 7.90264Z" fill="#FF7928"/>
<path d="M6.84339 6.77734H6.23438V8.3558H6.84339V6.77734Z" fill="#FF7928"/>
<path d="M9.15752 9.96425L9.14062 9.35547L7.66631 9.39639L7.68321 10.0052L9.15752 9.96425Z" fill="#FF7928"/>
<path d="M13.2323 10.4395C11.7036 10.4395 10.4648 11.6782 10.4648 13.2069C10.4648 14.7357 11.7036 15.9744 13.2323 15.9744C14.7611 15.9744 15.9998 14.7357 15.9998 13.2069C15.9998 11.6782 14.7611 10.4395 13.2323 10.4395ZM14.4586 12.9086C14.3178 12.9004 14.0153 12.8672 13.7129 12.6518C13.7046 12.6476 13.7005 12.6393 13.6922 12.6352V13.7952C13.6922 14.2634 13.3152 14.6404 12.847 14.6404C12.3789 14.6404 12.0019 14.2634 12.0019 13.7952C12.0019 13.3271 12.3789 12.9501 12.847 12.9501V13.5259C12.6979 13.5259 12.5777 13.6461 12.5777 13.7952C12.5777 13.9444 12.6979 14.0645 12.847 14.0645C12.9962 14.0645 13.1163 13.9444 13.1163 13.7952V11.7735H13.6922C13.7088 11.8315 13.775 12.0428 13.9822 12.1919C14.1893 12.3369 14.4006 12.3245 14.4586 12.3162V12.9086Z" fill="url(#paint0_linear_4027_11194)"/>
<path d="M13.2323 2.99414C11.7036 2.99414 10.4648 4.23288 10.4648 5.76162C10.4648 7.29036 11.7036 8.5291 13.2323 8.5291C14.7611 8.5291 15.9998 7.29036 15.9998 5.76162C15.9998 4.23288 14.7611 2.99414 13.2323 2.99414ZM13.4478 5.06975C13.4063 5.08218 13.3815 5.09875 13.3566 5.12361C13.3235 5.16089 13.3069 5.21889 13.3235 5.40947H13.8248V5.94391H13.34V7.22407H12.6689V5.94391H12.1842V5.40947H12.6357C12.6316 5.26861 12.6275 4.82532 12.7559 4.60988C12.9465 4.29088 13.5845 4.19973 14.2805 4.41517C14.2805 4.62231 14.2805 4.8336 14.2805 5.04075C14.1603 5.02832 13.6839 4.98689 13.4436 5.06561L13.4478 5.06975Z" fill="url(#paint1_linear_4027_11194)"/>
<path d="M6.50185 0.115234C4.97311 0.115234 3.73438 1.35397 3.73438 2.88271C3.73438 4.41145 4.97311 5.65019 6.50185 5.65019C8.03059 5.65019 9.26933 4.41145 9.26933 2.88271C9.26933 1.35397 8.02645 0.115234 6.50185 0.115234ZM5.65255 4.09245V1.66883L7.74888 2.87857L5.65255 4.08831V4.09245Z" fill="url(#paint2_linear_4027_11194)"/>
<path d="M0.909863 13.6073L0 14.5312L1.58222 16.0894L2.49208 15.1654L0.909863 13.6073Z" fill="url(#paint3_linear_4027_11194)"/>
<path d="M4.21455 7.45887L3.30469 8.38281L7.56133 12.5746L8.4712 11.6506L4.21455 7.45887Z" fill="url(#paint4_linear_4027_11194)"/>
<path d="M6.96263 12.4047L2.69955 14.9526L1.12109 13.3949L3.47842 8.97852L6.96263 12.4047Z" fill="url(#paint5_linear_4027_11194)"/>
<path d="M5.5968 15.8511C5.1825 16.1908 4.56935 16.1287 4.22963 15.7144L3.49219 14.8112L5.2115 13.8418L5.73351 14.4798C6.07323 14.8941 6.01109 15.5073 5.5968 15.847V15.8511Z" fill="url(#paint6_linear_4027_11194)"/>
</g>
<defs>
<linearGradient id="paint0_linear_4027_11194" x1="12.963" y1="20.0966" x2="13.5679" y2="4.71392" gradientUnits="userSpaceOnUse">
<stop stop-color="white"/>
<stop offset="0.49" stop-color="#969696"/>
</linearGradient>
<linearGradient id="paint1_linear_4027_11194" x1="13.2323" y1="12.2329" x2="13.2323" y2="-0.287061" gradientUnits="userSpaceOnUse">
<stop stop-color="white"/>
<stop offset="0.49" stop-color="#969696"/>
</linearGradient>
<linearGradient id="paint2_linear_4027_11194" x1="6.50185" y1="7.72994" x2="6.50185" y2="-2.81382" gradientUnits="userSpaceOnUse">
<stop stop-color="white"/>
<stop offset="0.49" stop-color="#969696"/>
</linearGradient>
<linearGradient id="paint3_linear_4027_11194" x1="8.06791" y1="15.9108" x2="0.71689" y2="14.762" gradientUnits="userSpaceOnUse">
<stop offset="0.58" stop-color="white"/>
<stop offset="0.9" stop-color="#FF7928"/>
</linearGradient>
<linearGradient id="paint4_linear_4027_11194" x1="10.036" y1="10.6671" x2="2.68433" y2="9.51419" gradientUnits="userSpaceOnUse">
<stop stop-color="white"/>
<stop offset="0.61" stop-color="#FF7928"/>
</linearGradient>
<linearGradient id="paint5_linear_4027_11194" x1="9.67298" y1="12.9924" x2="2.32196" y2="11.8436" gradientUnits="userSpaceOnUse">
<stop offset="0.19" stop-color="white"/>
<stop offset="0.65" stop-color="#FF7928"/>
</linearGradient>
<linearGradient id="paint6_linear_4027_11194" x1="3.7222" y1="13.2984" x2="5.91502" y2="16.594" gradientUnits="userSpaceOnUse">
<stop stop-color="white"/>
<stop offset="0.72" stop-color="#969696"/>
</linearGradient>
<clipPath id="clip0_4027_11194">
<rect width="16" height="15.971" fill="white" transform="translate(0 0.115234)"/>
</clipPath>
</defs>
</svg>
