<svg width="48" height="48" viewBox="0 0 48 48" fill="none" xmlns="http://www.w3.org/2000/svg">
<g clip-path="url(#clip0_4814_10853)">
<path d="M23.8476 3.2168C22.9429 3.2168 22.0585 3.48506 21.3063 3.98767C20.5541 4.49029 19.9678 5.20466 19.6216 6.04048C19.2754 6.87629 19.1848 7.79599 19.3613 8.68328C19.5378 9.57057 19.9735 10.3856 20.6132 11.0253C21.2529 11.665 22.0679 12.1006 22.9552 12.2771C23.8425 12.4536 24.7622 12.3631 25.598 12.0168C26.4338 11.6706 27.1482 11.0844 27.6508 10.3322C28.1534 9.57995 28.4217 8.69559 28.4217 7.79091C28.4192 6.57855 27.9365 5.41655 27.0792 4.55927C26.2219 3.702 25.0599 3.21928 23.8476 3.2168Z" fill="url(#paint0_linear_4814_10853)"/>
<path d="M29.5261 15.0931C29.1827 14.372 28.6922 13.7308 28.0861 13.2107C27.6266 12.8194 27.109 12.5019 26.552 12.2695C25.769 12.8495 24.8204 13.1626 23.8461 13.1626C22.8717 13.1626 21.9231 12.8495 21.1402 12.2695C20.1092 12.6952 19.2274 13.4167 18.606 14.343C17.9846 15.2693 17.6514 16.3588 17.6484 17.4742V23.8836C17.6484 23.981 17.6871 24.0744 17.7559 24.1432C17.8248 24.212 17.9181 24.2507 18.0155 24.2507H29.6767C29.7252 24.252 29.7735 24.2434 29.8187 24.2254C29.8638 24.2074 29.9048 24.1804 29.9391 24.1461C29.9735 24.1117 30.0004 24.0708 30.0184 24.0256C30.0364 23.9805 30.045 23.9322 30.0437 23.8836V17.446C30.0424 16.6336 29.8659 15.831 29.5261 15.0931Z" fill="url(#paint1_linear_4814_10853)"/>
<path d="M9.39458 8.05469C8.00778 8.05469 6.65213 8.46592 5.49905 9.23638C4.34597 10.0068 3.44726 11.1019 2.91655 12.3832C2.38585 13.6644 2.24699 15.0742 2.51754 16.4344C2.7881 17.7945 3.4559 19.0439 4.43651 20.0245C5.41713 21.0051 6.6665 21.6729 8.02665 21.9435C9.3868 22.214 10.7966 22.0752 12.0779 21.5445C13.3591 21.0138 14.4542 20.1151 15.2246 18.962C15.9951 17.8089 16.4063 16.4532 16.4063 15.0665C16.4039 13.2076 15.6643 11.4256 14.3499 10.1111C13.0355 8.79671 11.2535 8.05718 9.39458 8.05469Z" fill="url(#paint2_linear_4814_10853)"/>
<path d="M10.252 23.0703H8.53906V25.1691H10.252V23.0703Z" fill="url(#paint3_linear_4814_10853)"/>
<path d="M10.5827 29.0134L9.38741 30.6605L8.21094 29.0982L8.53094 25.3711H10.2439L10.5827 29.0134Z" fill="url(#paint4_linear_4814_10853)"/>
<path d="M18.0992 26.2616C17.5868 25.1425 16.8388 24.1472 15.9062 23.3439C15.2059 22.7409 14.4151 22.2517 13.5627 21.8945C13.2554 23.9197 12.6196 25.8812 11.6804 27.7016C11.053 28.9018 10.2989 30.0314 9.43095 31.071C6.97853 28.619 5.50591 25.3558 5.28978 21.8945C3.70189 22.5352 2.34132 23.6352 1.38225 25.0537C0.423186 26.4722 -0.0907446 28.1446 -0.09375 29.8569L-0.09375 40.2098H18.8992V29.8569C18.8979 28.6144 18.6249 27.3873 18.0992 26.2616Z" fill="url(#paint5_linear_4814_10853)"/>
<path d="M28.3828 20.7617V22.8229V23.2747V26.1264H31.4605V23.2747H37.5028V26.1264H40.571V23.2747V22.8229V20.7617H28.3828Z" fill="url(#paint6_linear_4814_10853)"/>
<path d="M21.2578 26.1289V34.5713H27.7613V33.4795H30.839V34.5713H38.1237V33.4795H41.2013V34.5713H47.7049V26.1289H21.2578Z" fill="url(#paint7_linear_4814_10853)"/>
<path d="M21.2578 45.4092V36.9668H27.7613V38.0586H30.839V36.9668H38.1237V38.0586H41.2013V36.9668H47.7049V45.4092H21.2578Z" fill="url(#paint8_linear_4814_10853)"/>
</g>
<defs>
<linearGradient id="paint0_linear_4814_10853" x1="20.6099" y1="4.55327" x2="27.0852" y2="11.0286" gradientUnits="userSpaceOnUse">
<stop offset="0.38" stop-color="#969696"/>
<stop offset="1" stop-color="white"/>
</linearGradient>
<linearGradient id="paint1_linear_4814_10853" x1="18.5237" y1="14.246" x2="29.1684" y2="24.8907" gradientUnits="userSpaceOnUse">
<stop offset="0.38" stop-color="#969696"/>
<stop offset="1" stop-color="white"/>
</linearGradient>
<linearGradient id="paint2_linear_4814_10853" x1="1.66752" y1="7.33939" x2="20.1428" y2="25.8053" gradientUnits="userSpaceOnUse">
<stop offset="0.38" stop-color="#969696"/>
<stop offset="1" stop-color="white"/>
</linearGradient>
<linearGradient id="paint3_linear_4814_10853" x1="8.53906" y1="24.1244" x2="10.252" y2="24.1244" gradientUnits="userSpaceOnUse">
<stop offset="0.38" stop-color="#969696"/>
<stop offset="1" stop-color="white"/>
</linearGradient>
<linearGradient id="paint4_linear_4814_10853" x1="8.21094" y1="28.0158" x2="10.5827" y2="28.0158" gradientUnits="userSpaceOnUse">
<stop offset="0.38" stop-color="#969696"/>
<stop offset="1" stop-color="white"/>
</linearGradient>
<linearGradient id="paint5_linear_4814_10853" x1="1.15801" y1="25.0381" x2="17.638" y2="41.5181" gradientUnits="userSpaceOnUse">
<stop offset="0.38" stop-color="#969696"/>
<stop offset="1" stop-color="white"/>
</linearGradient>
<linearGradient id="paint6_linear_4814_10853" x1="34.4816" y1="27.397" x2="34.4816" y2="19.5194" gradientUnits="userSpaceOnUse">
<stop stop-color="white"/>
<stop offset="0.49" stop-color="#FF7928"/>
</linearGradient>
<linearGradient id="paint7_linear_4814_10853" x1="34.4813" y1="49.696" x2="34.4813" y2="27.2113" gradientUnits="userSpaceOnUse">
<stop stop-color="white"/>
<stop offset="0.49" stop-color="#FF7928"/>
</linearGradient>
<linearGradient id="paint8_linear_4814_10853" x1="34.4813" y1="49.6915" x2="34.4813" y2="27.2068" gradientUnits="userSpaceOnUse">
<stop stop-color="white"/>
<stop offset="0.49" stop-color="#FF7928"/>
</linearGradient>
<clipPath id="clip0_4814_10853">
<rect width="48" height="48" fill="white"/>
</clipPath>
</defs>
</svg>
