<svg width="366" height="260" viewBox="0 0 366 260" fill="none" xmlns="http://www.w3.org/2000/svg">
<g opacity="0.3">
<mask id="mask0_4814_10703" style="mask-type:alpha" maskUnits="userSpaceOnUse" x="-12" y="0" width="390" height="260">
<rect x="-12" width="389.602" height="259.734" fill="url(#paint0_radial_4814_10703)"/>
</mask>
<g mask="url(#mask0_4814_10703)">
<path d="M384.358 28.1092V26.7572H374.112V2.89844H373.029V26.7572H336.589V2.89844H335.507V26.7572H299.068V2.89844H297.986V26.7572H261.546V2.89844H260.464V26.7572H224.024V2.89844H222.942V26.7572H186.501V2.89844H185.419V26.7572H148.979V2.89844H147.897V26.7572H111.456V2.89844H110.374V26.7572H73.934V2.89844H72.8519V26.7572H36.4134V2.89844H35.3312V26.7572H-1.10899V2.89844H-2.19116V26.7572H-12.4375V28.1092H-2.19116V73.6364H-12.4375V74.9884H-2.19116V120.516H-12.4375V121.868H-2.19116V167.395H-12.4375V168.747H-2.19116V214.274H-12.4375V215.626H-2.19116V261.153H-12.4375V262.505H-2.19116V308.032H-12.4375V309.384H-2.19116V333.243H-1.10899V309.384H35.3312V333.243H36.4134V309.384H72.8519V333.243H73.934V309.384H110.374V333.243H111.456V309.384H147.897V333.243H148.979V309.384H185.419V333.243H186.501V309.384H222.942V333.243H224.024V309.384H260.464V333.243H261.546V309.384H297.986V333.243H299.068V309.384H335.507V333.243H336.589V309.384H373.029V333.243H374.112V309.384H384.358V308.032H374.112V262.505H384.358V261.153H374.112V215.626H384.358V214.274H374.112V168.747H384.358V167.395H374.112V121.868H384.358V120.516H374.112V74.9884H384.358V73.6364H374.112V28.1092H384.358ZM35.3312 308.032H-1.10899V262.505H35.3312V308.032ZM35.3312 261.153H-1.10899V215.626H35.3312V261.153ZM35.3312 214.274H-1.10899V168.747H35.3312V214.274ZM35.3312 167.395H-1.10899V121.868H35.3312V167.395ZM35.3312 120.516H-1.10899V74.9884H35.3312V120.516ZM35.3312 73.6364H-1.10899V28.1092H35.3312V73.6364ZM72.8519 308.032H36.4134V262.505H72.8519V308.032ZM72.8519 261.153H36.4134V215.626H72.8519V261.153ZM72.8519 214.274H36.4134V168.747H72.8519V214.274ZM72.8519 167.395H36.4134V121.868H72.8519V167.395ZM72.8519 120.516H36.4134V74.9884H72.8519V120.516ZM72.8519 73.6364H36.4134V28.1092H72.8519V73.6364ZM110.374 308.032H73.934V262.505H110.374V308.032ZM110.374 261.153H73.934V215.626H110.374V261.153ZM110.374 214.274H73.934V168.747H110.374V214.274ZM110.374 167.395H73.934V121.868H110.374V167.395ZM110.374 120.516H73.934V74.9884H110.374V120.516ZM110.374 73.6364H73.934V28.1092H110.374V73.6364ZM147.897 308.032H111.456V262.505H147.897V308.032ZM147.897 261.153H111.456V215.626H147.897V261.153ZM147.897 214.274H111.456V168.747H147.897V214.274ZM147.897 167.395H111.456V121.868H147.897V167.395ZM147.897 120.516H111.456V74.9884H147.897V120.516ZM147.897 73.6364H111.456V28.1092H147.897V73.6364ZM185.419 308.032H148.979V262.505H185.419V308.032ZM185.419 261.153H148.979V215.626H185.419V261.153ZM185.419 214.274H148.979V168.747H185.419V214.274ZM185.419 167.395H148.979V121.868H185.419V167.395ZM185.419 120.516H148.979V74.9884H185.419V120.516ZM185.419 73.6364H148.979V28.1092H185.419V73.6364ZM222.942 308.032H186.501V262.505H222.942V308.032ZM222.942 261.153H186.501V215.626H222.942V261.153ZM222.942 214.274H186.501V168.747H222.942V214.274ZM222.942 167.395H186.501V121.868H222.942V167.395ZM222.942 120.516H186.501V74.9884H222.942V120.516ZM222.942 73.6364H186.501V28.1092H222.942V73.6364ZM260.464 308.032H224.024V262.505H260.464V308.032ZM260.464 261.153H224.024V215.626H260.464V261.153ZM260.464 214.274H224.024V168.747H260.464V214.274ZM260.464 167.395H224.024V121.868H260.464V167.395ZM260.464 120.516H224.024V74.9884H260.464V120.516ZM260.464 73.6364H224.024V28.1092H260.464V73.6364ZM297.986 308.032H261.546V262.505H297.986V308.032ZM297.986 261.153H261.546V215.626H297.986V261.153ZM297.986 214.274H261.546V168.747H297.986V214.274ZM297.986 167.395H261.546V121.868H297.986V167.395ZM297.986 120.516H261.546V74.9884H297.986V120.516ZM297.986 73.6364H261.546V28.1092H297.986V73.6364ZM335.507 308.032H299.068V262.505H335.507V308.032ZM335.507 261.153H299.068V215.626H335.507V261.153ZM335.507 214.274H299.068V168.747H335.507V214.274ZM335.507 167.395H299.068V121.868H335.507V167.395ZM335.507 120.516H299.068V74.9884H335.507V120.516ZM335.507 73.6364H299.068V28.1092H335.507V73.6364ZM373.029 308.032H336.589V262.505H373.029V308.032ZM373.029 261.153H336.589V215.626H373.029V261.153ZM373.029 214.274H336.589V168.747H373.029V214.274ZM373.029 167.395H336.589V121.868H373.029V167.395ZM373.029 120.516H336.589V74.9884H373.029V120.516ZM373.029 73.6364H336.589V28.1092H373.029V73.6364Z" fill="#CCCCCC"/>
</g>
</g>
<defs>
<radialGradient id="paint0_radial_4814_10703" cx="0" cy="0" r="1" gradientUnits="userSpaceOnUse" gradientTransform="translate(182.801 129.867) rotate(90) scale(129.867 194.801)">
<stop/>
<stop offset="1" stop-opacity="0"/>
</radialGradient>
</defs>
</svg>
