<svg width="48" height="49" viewBox="0 0 48 49" fill="none" xmlns="http://www.w3.org/2000/svg">
<g clip-path="url(#clip0_4449_9837)">
<path d="M42.1903 45.9199H4.57031V48.1699H42.1903V45.9199Z" fill="#969696"/>
<path d="M39.6353 8.85646L25.9453 0L19.859 9.40794L33.549 18.2644L39.6353 8.85646Z" fill="url(#paint0_linear_4449_9837)"/>
<path d="M6.15844 44.9754L15.2784 30.8754C14.3334 30.0654 14.0784 28.6854 14.7684 27.6054C15.5334 26.4354 17.0934 26.0904 18.2784 26.8554C19.4634 27.6204 19.7934 29.1804 19.0284 30.3654C18.3384 31.4454 16.9734 31.7754 15.8484 31.2504L6.74344 45.3504L7.62844 45.9204L26.6634 35.2554L32.4384 20.0004L18.7434 11.1504L7.19344 22.6704L5.27344 44.4054L6.15844 44.9754Z" fill="url(#paint1_linear_4449_9837)"/>
</g>
<defs>
<linearGradient id="paint0_linear_4449_9837" x1="29.7613" y1="-15.5666" x2="29.7613" y2="52.0534" gradientUnits="userSpaceOnUse">
<stop offset="0.7" stop-color="#FF7928"/>
<stop offset="1" stop-color="white"/>
</linearGradient>
<linearGradient id="paint1_linear_4449_9837" x1="18.8484" y1="-15.5646" x2="18.8484" y2="52.0554" gradientUnits="userSpaceOnUse">
<stop offset="0.7" stop-color="#FF7928"/>
<stop offset="1" stop-color="white"/>
</linearGradient>
<clipPath id="clip0_4449_9837">
<rect width="37.62" height="48.165" fill="white" transform="translate(4.55859)"/>
</clipPath>
</defs>
</svg>
