<svg width="48" height="48" viewBox="0 0 48 48" fill="none" xmlns="http://www.w3.org/2000/svg">
<g clip-path="url(#clip0_4449_9873)">
<path d="M46.5208 30.6585H43.9448V20.8825H32.2808V17.7305H25.0808V20.8825H13.4168V30.6585H10.6328V36.9785H13.4168V47.6505H43.9448V36.9785H46.5208V30.6585ZM39.8648 43.9225H17.6408V24.4505H39.8648V43.9385V43.9225Z" fill="url(#paint0_linear_4449_9873)"/>
<path d="M32.282 37.9375H25.082V40.4175H32.282V37.9375Z" fill="#969696"/>
<path d="M36.6932 30.6562H31.7812V35.5682H36.6932V30.6562Z" fill="#FF7928"/>
<path d="M26.5057 30.6562H21.5938V35.5682H26.5057V30.6562Z" fill="#FF7928"/>
<path d="M11.9321 24.3717C11.9321 24.3717 11.7881 24.3878 11.7081 24.3878C8.10809 24.3878 5.19609 21.4757 5.19609 17.8758C5.19609 14.2758 8.10809 11.3637 11.7081 11.3637C15.3081 11.3637 18.2201 14.2758 18.2201 17.8758C18.2201 18.5798 18.0761 19.2358 17.8841 19.8598H21.4841C21.5321 19.6518 21.5801 19.4597 21.5961 19.2517L23.7561 18.9797V16.1958L21.5001 15.8758C21.2121 14.4517 20.6041 13.1398 19.7721 12.0037L21.1641 10.2277L19.1961 8.25975L17.3401 9.63575C16.1721 8.83575 14.8441 8.29175 13.4041 8.03575L13.1321 5.84375H10.3481L10.0281 8.01975C8.54009 8.27575 7.14809 8.85175 5.96409 9.68375L4.36409 8.43575L2.39609 10.4037L3.59609 12.0198C2.70009 13.2518 2.09209 14.6757 1.83609 16.2437L-0.00390625 16.4677V19.2517L1.83609 19.5237C2.10809 21.1237 2.74809 22.5958 3.67609 23.8438L2.58809 25.2358L4.55609 27.2038L6.01209 26.1158C7.29209 26.9958 8.78009 27.5878 10.3801 27.7958L10.6041 29.6038H11.9001V24.3717H11.9321Z" fill="url(#paint1_linear_4449_9873)"/>
<path d="M19.0495 7.55358C19.0495 7.55358 19.0495 7.45758 19.0495 7.40958C19.0495 5.12158 20.9055 3.28158 23.1775 3.28158C25.4495 3.28158 27.3055 5.13758 27.3055 7.40958C27.3055 9.85758 25.0015 11.6496 23.1775 11.5376C22.5855 11.5056 22.0895 11.2656 21.7215 11.0416C21.3375 11.6176 20.9375 12.1776 20.5375 12.7536C20.6975 12.8976 20.8895 13.0416 21.1295 13.1856C21.5615 13.4416 21.9615 13.6016 22.2975 13.6976L22.4735 15.0736H24.2495L24.4575 13.6336C25.3695 13.4416 26.2015 13.0736 26.9215 12.5456L28.0575 13.4256L29.3055 12.1776L28.4255 11.0096C28.9375 10.2736 29.2735 9.42558 29.4335 8.51358L30.8255 8.33758V6.56158L29.4495 6.36958C29.2895 5.42558 28.9215 4.54558 28.3935 3.79358L29.1935 2.78558L27.9455 1.53758L26.9215 2.30558C26.1375 1.74558 25.2255 1.34558 24.2495 1.18558L24.1055 0.0175781H22.3295L22.1535 1.18558C21.1295 1.34558 20.2015 1.76158 19.4175 2.35358L18.5375 1.66558L17.2895 2.91358L17.9775 3.84158C17.4175 4.65758 17.0495 5.60158 16.9215 6.60958L15.7695 6.75358C15.7855 7.21758 15.8015 7.68158 15.8335 8.14558L17.2095 8.56158C17.2095 8.56158 19.0335 7.55358 19.0975 7.58558L19.0495 7.55358Z" fill="url(#paint2_linear_4449_9873)"/>
</g>
<defs>
<linearGradient id="paint0_linear_4449_9873" x1="17.9928" y1="20.7865" x2="43.1128" y2="52.4665" gradientUnits="userSpaceOnUse">
<stop offset="0.7" stop-color="#FF7928"/>
<stop offset="1" stop-color="white"/>
</linearGradient>
<linearGradient id="paint1_linear_4449_9873" x1="4.46009" y1="8.37175" x2="17.6761" y2="25.0278" gradientUnits="userSpaceOnUse">
<stop offset="0.7" stop-color="#969696"/>
<stop offset="1" stop-color="white"/>
</linearGradient>
<linearGradient id="paint2_linear_4449_9873" x1="16.0895" y1="-1.08642" x2="30.7295" y2="13.9696" gradientUnits="userSpaceOnUse">
<stop offset="0.69" stop-color="#969696"/>
<stop offset="1" stop-color="white"/>
</linearGradient>
<clipPath id="clip0_4449_9873">
<rect width="46.512" height="47.648" fill="white"/>
</clipPath>
</defs>
</svg>
