<svg width="1440" height="76" viewBox="0 0 1440 76" fill="none" xmlns="http://www.w3.org/2000/svg">
<g filter="url(#filter0_d_4027_11581)">
<path d="M0.015625 -369.43L1401.88 -369.43L1401.88 -20.0876L957.582 -20.0876L916.136 45.9043L387.4 45.9043L345.974 -20.0876L0.0156097 -20.0876L0.015625 -369.43Z" fill="white"/>
</g>
<g filter="url(#filter1_d_4027_11581)">
<path d="M19.5703 -349.867L1382.32 -349.867L1382.32 -39.6429L946.761 -39.6429L905.316 26.3489L398.212 26.3489L356.786 -39.643L19.5703 -39.643L19.5703 -349.867Z" fill="#CBCBCB"/>
</g>
<g filter="url(#filter2_d_4027_11581)">
<path d="M1441 -369.43L39.1328 -369.43L39.1328 -20.0876L483.433 -20.0876L524.879 45.9043L1053.62 45.9043L1095.04 -20.0876L1441 -20.0876L1441 -369.43Z" fill="white"/>
</g>
<g filter="url(#filter3_d_4027_11581)">
<path d="M1421.44 -349.867L58.6953 -349.867L58.6953 -39.643L494.253 -39.643L535.699 26.3489L1042.8 26.3489L1084.23 -39.6429L1421.44 -39.6429L1421.44 -349.867Z" fill="#CBCBCB"/>
</g>
<g filter="url(#filter4_d_4027_11581)">
<path d="M494.489 65.4518L453.044 -0.54005L-1.69801e-05 -0.54007L0 -389L1440.98 -389L1440.98 -0.540007L987.941 -0.540026L946.496 65.4518L494.489 65.4518Z" fill="white"/>
</g>
<defs>
<filter id="filter0_d_4027_11581" x="-9.98438" y="-379.43" width="1421.87" height="435.334" filterUnits="userSpaceOnUse" color-interpolation-filters="sRGB">
<feFlood flood-opacity="0" result="BackgroundImageFix"/>
<feColorMatrix in="SourceAlpha" type="matrix" values="0 0 0 0 0 0 0 0 0 0 0 0 0 0 0 0 0 0 127 0" result="hardAlpha"/>
<feOffset/>
<feGaussianBlur stdDeviation="5"/>
<feColorMatrix type="matrix" values="0 0 0 0 0 0 0 0 0 0 0 0 0 0 0 0 0 0 0.15 0"/>
<feBlend mode="normal" in2="BackgroundImageFix" result="effect1_dropShadow_4027_11581"/>
<feBlend mode="normal" in="SourceGraphic" in2="effect1_dropShadow_4027_11581" result="shape"/>
</filter>
<filter id="filter1_d_4027_11581" x="9.57031" y="-359.867" width="1382.75" height="396.217" filterUnits="userSpaceOnUse" color-interpolation-filters="sRGB">
<feFlood flood-opacity="0" result="BackgroundImageFix"/>
<feColorMatrix in="SourceAlpha" type="matrix" values="0 0 0 0 0 0 0 0 0 0 0 0 0 0 0 0 0 0 127 0" result="hardAlpha"/>
<feOffset/>
<feGaussianBlur stdDeviation="5"/>
<feColorMatrix type="matrix" values="0 0 0 0 0 0 0 0 0 0 0 0 0 0 0 0 0 0 0.15 0"/>
<feBlend mode="normal" in2="BackgroundImageFix" result="effect1_dropShadow_4027_11581"/>
<feBlend mode="normal" in="SourceGraphic" in2="effect1_dropShadow_4027_11581" result="shape"/>
</filter>
<filter id="filter2_d_4027_11581" x="29.1328" y="-379.43" width="1421.87" height="435.334" filterUnits="userSpaceOnUse" color-interpolation-filters="sRGB">
<feFlood flood-opacity="0" result="BackgroundImageFix"/>
<feColorMatrix in="SourceAlpha" type="matrix" values="0 0 0 0 0 0 0 0 0 0 0 0 0 0 0 0 0 0 127 0" result="hardAlpha"/>
<feOffset/>
<feGaussianBlur stdDeviation="5"/>
<feColorMatrix type="matrix" values="0 0 0 0 0 0 0 0 0 0 0 0 0 0 0 0 0 0 0.15 0"/>
<feBlend mode="normal" in2="BackgroundImageFix" result="effect1_dropShadow_4027_11581"/>
<feBlend mode="normal" in="SourceGraphic" in2="effect1_dropShadow_4027_11581" result="shape"/>
</filter>
<filter id="filter3_d_4027_11581" x="48.6953" y="-359.867" width="1382.75" height="396.217" filterUnits="userSpaceOnUse" color-interpolation-filters="sRGB">
<feFlood flood-opacity="0" result="BackgroundImageFix"/>
<feColorMatrix in="SourceAlpha" type="matrix" values="0 0 0 0 0 0 0 0 0 0 0 0 0 0 0 0 0 0 127 0" result="hardAlpha"/>
<feOffset/>
<feGaussianBlur stdDeviation="5"/>
<feColorMatrix type="matrix" values="0 0 0 0 0 0 0 0 0 0 0 0 0 0 0 0 0 0 0.15 0"/>
<feBlend mode="normal" in2="BackgroundImageFix" result="effect1_dropShadow_4027_11581"/>
<feBlend mode="normal" in="SourceGraphic" in2="effect1_dropShadow_4027_11581" result="shape"/>
</filter>
<filter id="filter4_d_4027_11581" x="-10" y="-399" width="1460.98" height="474.451" filterUnits="userSpaceOnUse" color-interpolation-filters="sRGB">
<feFlood flood-opacity="0" result="BackgroundImageFix"/>
<feColorMatrix in="SourceAlpha" type="matrix" values="0 0 0 0 0 0 0 0 0 0 0 0 0 0 0 0 0 0 127 0" result="hardAlpha"/>
<feOffset/>
<feGaussianBlur stdDeviation="5"/>
<feColorMatrix type="matrix" values="0 0 0 0 0 0 0 0 0 0 0 0 0 0 0 0 0 0 0.15 0"/>
<feBlend mode="normal" in2="BackgroundImageFix" result="effect1_dropShadow_4027_11581"/>
<feBlend mode="normal" in="SourceGraphic" in2="effect1_dropShadow_4027_11581" result="shape"/>
</filter>
</defs>
</svg>
