<svg width="129" height="158" viewBox="0 0 129 158" fill="none" xmlns="http://www.w3.org/2000/svg">
<path d="M7.56934 43.2891L10.4377 43.2891L10.4377 32.1424L7.56935 32.1424L7.56934 43.2891Z" fill="#F37021"/>
<path d="M4.84278 21.4907L11.2277 27.8672L11.2278 8.14997L23.3297 8.14998L23.3297 8.12059L58.5158 8.12059L52.6122 2.23383L14.3023 2.23383L12.0922 0.000581498L6.25087e-06 0.00058044L5.61892e-06 7.22925L4.84278 12.0581L4.84278 21.4907Z" fill="#F37021"/>
<path d="M126.235 6.10156C127.602 6.10156 128.711 4.9955 128.711 3.63268C128.711 2.26986 127.602 1.1638 126.235 1.1638C124.868 1.1638 123.759 2.26986 123.759 3.63268C123.759 4.9955 124.868 6.10156 126.235 6.10156ZM126.235 2.12501C127.067 2.12501 127.747 2.80314 127.747 3.63268C127.747 4.46223 127.067 5.14033 126.235 5.14033C125.403 5.14033 124.723 4.46223 124.723 3.63268C124.723 2.80314 125.403 2.12501 126.235 2.12501Z" fill="#F37021"/>
<path d="M118.837 6.10156C120.203 6.10156 121.313 4.9955 121.313 3.63268C121.313 2.26986 120.203 1.1638 118.837 1.1638C117.47 1.1638 116.361 2.26986 116.361 3.63268C116.361 4.9955 117.47 6.10156 118.837 6.10156ZM118.837 2.12501C119.669 2.12501 120.349 2.80314 120.349 3.63268C120.349 4.46223 119.669 5.14033 118.837 5.14033C118.005 5.14033 117.325 4.46223 117.325 3.63268C117.325 2.80314 118.005 2.12501 118.837 2.12501Z" fill="#F37021"/>
<path d="M111.446 6.10156C112.813 6.10156 113.922 4.9955 113.922 3.63268C113.922 2.26986 112.813 1.1638 111.446 1.1638C110.079 1.1638 108.97 2.26986 108.97 3.63268C108.97 4.9955 110.079 6.10156 111.446 6.10156ZM111.446 2.12501C112.278 2.12501 112.958 2.80314 112.958 3.63268C112.958 4.46223 112.278 5.14033 111.446 5.14033C110.614 5.14033 109.934 4.46223 109.934 3.63268C109.934 2.80314 110.614 2.12501 111.446 2.12501Z" fill="#F37021"/>
<path d="M104.037 5.61719C105.14 5.61719 106.031 4.7284 106.031 3.62892C106.031 2.52945 105.14 1.64064 104.037 1.64064C102.935 1.64064 102.043 2.52945 102.043 3.62892C102.043 4.7284 102.935 5.61719 104.037 5.61719Z" fill="#F37021"/>
<path d="M96.6312 5.61719C97.7338 5.61719 98.6252 4.7284 98.6252 3.62892C98.6252 2.52945 97.7338 1.64064 96.6312 1.64064C95.5286 1.64064 94.6372 2.52945 94.6372 3.62892C94.6372 4.7284 95.5286 5.61719 96.6312 5.61719Z" fill="#F37021"/>
<path d="M89.2328 5.61719C90.3354 5.61719 91.2267 4.7284 91.2267 3.62892C91.2267 2.52945 90.3354 1.64064 89.2328 1.64064C88.1301 1.64064 87.2388 2.52945 87.2388 3.62892C87.2388 4.7284 88.1301 5.61719 89.2328 5.61719Z" fill="#F37021"/>
<path d="M81.8367 6.10156C83.2035 6.10156 84.3127 4.9955 84.3127 3.63268C84.3127 2.26986 83.2035 1.1638 81.8367 1.1638C80.47 1.1638 79.3608 2.26986 79.3608 3.63268C79.3608 4.9955 80.47 6.10156 81.8367 6.10156ZM81.8367 2.12501C82.6686 2.12501 83.3487 2.80314 83.3487 3.63268C83.3487 4.46223 82.6686 5.14033 81.8367 5.14033C81.0048 5.14033 80.3247 4.46223 80.3247 3.63268C80.3247 2.80314 81.0048 2.12501 81.8367 2.12501Z" fill="#F37021"/>
<path d="M74.4383 6.10156C75.805 6.10156 76.9142 4.9955 76.9142 3.63268C76.9142 2.26986 75.805 1.1638 74.4383 1.1638C73.0716 1.1638 71.9623 2.26986 71.9623 3.63268C71.9623 4.9955 73.0716 6.10156 74.4383 6.10156ZM74.4383 2.12501C75.2702 2.12501 75.9503 2.80314 75.9503 3.63268C75.9503 4.46223 75.2702 5.14033 74.4383 5.14033C73.6064 5.14033 72.9263 4.46223 72.9263 3.63268C72.9263 2.80314 73.6064 2.12501 74.4383 2.12501Z" fill="#F37021"/>
<path d="M67.0398 6.10156C68.4066 6.10156 69.5158 4.9955 69.5158 3.63268C69.5158 2.26986 68.4066 1.1638 67.0398 1.1638C65.6731 1.1638 64.5639 2.26986 64.5639 3.63268C64.5639 4.9955 65.6731 6.10156 67.0398 6.10156ZM67.0398 2.12501C67.8718 2.12501 68.5518 2.80314 68.5518 3.63268C68.5518 4.46223 67.8718 5.14033 67.0398 5.14033C66.2079 5.14033 65.5279 4.46223 65.5279 3.63268C65.5279 2.80314 66.2079 2.12501 67.0398 2.12501Z" fill="#F37021"/>
<path d="M4.44491 110.354L0.515701 114.242L0.515699 142.932L14.9064 157.281L14.9064 124.272L10.8594 120.247L10.8594 58.0879L4.44492 64.5232L4.44491 110.354Z" fill="#F37021"/>
</svg>
