<svg width="24" height="24" viewBox="0 0 24 24" fill="none" xmlns="http://www.w3.org/2000/svg">
<g clip-path="url(#clip0_6618_23749)">
<path d="M12.0469 0C5.45166 0 0 5.35781 0 11.9531C0 18.5484 5.45166 24 12.0469 24C18.6421 24 24 18.5484 24 11.9531C24 5.35781 18.6421 0 12.0469 0Z" fill="#FE4141"/>
<path d="M12.0469 0C5.45166 0 0 5.35781 0 11.9531C0 18.5484 5.45166 24 12.0469 24C18.6421 24 24 18.5484 24 11.9531C24 5.35781 18.6421 0 12.0469 0Z" fill="url(#paint0_linear_6618_23749)"/>
<path d="M12.0469 0C5.45166 0 0 5.35781 0 11.9531C0 18.5484 5.45166 24 12.0469 24C18.6421 24 24 18.5484 24 11.9531C24 5.35781 18.6421 0 12.0469 0Z" fill="url(#paint1_linear_6618_23749)"/>
<path d="M24 11.9531C24 18.5484 18.6421 24 12.0469 24V0C18.6421 0 24 5.35781 24 11.9531Z" fill="url(#paint2_linear_6618_23749)"/>
<path d="M24 11.9531C24 18.5484 18.6421 24 12.0469 24V0C18.6421 0 24 5.35781 24 11.9531Z" fill="url(#paint3_linear_6618_23749)"/>
<path d="M12.0469 2.8125C7.01241 2.8125 2.8125 6.9187 2.8125 11.9531C2.8125 16.9875 7.01241 21.1875 12.0469 21.1875C17.0813 21.1875 21.1875 16.9875 21.1875 11.9531C21.1875 6.9187 17.0813 2.8125 12.0469 2.8125Z" fill="#FEA832"/>
<path d="M12.0469 2.8125C7.01241 2.8125 2.8125 6.9187 2.8125 11.9531C2.8125 16.9875 7.01241 21.1875 12.0469 21.1875C17.0813 21.1875 21.1875 16.9875 21.1875 11.9531C21.1875 6.9187 17.0813 2.8125 12.0469 2.8125Z" fill="url(#paint4_linear_6618_23749)"/>
<path d="M12.0469 2.8125C7.01241 2.8125 2.8125 6.9187 2.8125 11.9531C2.8125 16.9875 7.01241 21.1875 12.0469 21.1875C17.0813 21.1875 21.1875 16.9875 21.1875 11.9531C21.1875 6.9187 17.0813 2.8125 12.0469 2.8125Z" fill="url(#paint5_linear_6618_23749)"/>
<path d="M12.0469 2.8125C7.01241 2.8125 2.8125 6.9187 2.8125 11.9531C2.8125 16.9875 7.01241 21.1875 12.0469 21.1875C17.0813 21.1875 21.1875 16.9875 21.1875 11.9531C21.1875 6.9187 17.0813 2.8125 12.0469 2.8125Z" fill="url(#paint6_linear_6618_23749)"/>
<path d="M12.0469 2.8125C7.01241 2.8125 2.8125 6.9187 2.8125 11.9531C2.8125 16.9875 7.01241 21.1875 12.0469 21.1875C17.0813 21.1875 21.1875 16.9875 21.1875 11.9531C21.1875 6.9187 17.0813 2.8125 12.0469 2.8125Z" fill="url(#paint7_linear_6618_23749)"/>
<path d="M21.1875 11.9531C21.1875 16.9875 17.0813 21.1875 12.0469 21.1875V2.8125C17.0813 2.8125 21.1875 6.9187 21.1875 11.9531Z" fill="#FE9923"/>
<path d="M21.1875 11.9531C21.1875 16.9875 17.0813 21.1875 12.0469 21.1875V2.8125C17.0813 2.8125 21.1875 6.9187 21.1875 11.9531Z" fill="url(#paint8_linear_6618_23749)"/>
<path d="M21.1875 11.9531C21.1875 16.9875 17.0813 21.1875 12.0469 21.1875V2.8125C17.0813 2.8125 21.1875 6.9187 21.1875 11.9531Z" fill="url(#paint9_linear_6618_23749)"/>
<path d="M21.1875 11.9531C21.1875 16.9875 17.0813 21.1875 12.0469 21.1875V2.8125C17.0813 2.8125 21.1875 6.9187 21.1875 11.9531Z" fill="url(#paint10_linear_6618_23749)"/>
<path d="M21.1875 11.9531C21.1875 16.9875 17.0813 21.1875 12.0469 21.1875V2.8125C17.0813 2.8125 21.1875 6.9187 21.1875 11.9531Z" fill="url(#paint11_linear_6618_23749)"/>
<path d="M12.8604 15.7568V6.40039H14.9476V17.4554H13.0691L12.8604 15.7568ZM7.9375 13.6552V13.5041C7.9375 12.9091 8.00467 12.3693 8.13902 11.8847C8.27337 11.3953 8.4701 10.9754 8.7292 10.6252C8.9883 10.2749 9.30738 10.0038 9.68643 9.81188C10.0655 9.61996 10.4973 9.524 10.9819 9.524C11.4378 9.524 11.836 9.61996 12.1767 9.81188C12.5221 10.0038 12.8148 10.2773 13.0547 10.6324C13.2994 10.9826 13.4962 11.3977 13.6449 11.8775C13.7937 12.3525 13.9016 12.8731 13.9688 13.4393V13.7704C13.9016 14.3126 13.7937 14.8164 13.6449 15.2818C13.4962 15.7472 13.2994 16.1551 13.0547 16.5053C12.8148 16.8508 12.5221 17.1195 12.1767 17.3114C11.8312 17.5033 11.4282 17.5993 10.9675 17.5993C10.4829 17.5993 10.0511 17.5009 9.67204 17.3042C9.29778 17.1075 8.9811 16.8316 8.722 16.4765C8.4677 16.1215 8.27337 15.704 8.13902 15.2242C8.00467 14.7444 7.9375 14.2214 7.9375 13.6552ZM10.0103 13.5041V13.6552C10.0103 13.9767 10.0343 14.2766 10.0823 14.5549C10.1351 14.8332 10.219 15.0803 10.3342 15.2962C10.4541 15.5073 10.6077 15.6728 10.7948 15.7928C10.9867 15.908 11.2194 15.9655 11.4929 15.9655C11.848 15.9655 12.1407 15.8864 12.371 15.728C12.6013 15.5649 12.7764 15.3418 12.8964 15.0587C13.0212 14.7756 13.0931 14.4493 13.1123 14.0799V13.137C13.0979 12.8347 13.0547 12.5636 12.9828 12.3237C12.9156 12.079 12.8148 11.8703 12.6805 11.6976C12.5509 11.5248 12.3878 11.3905 12.1911 11.2945C11.9991 11.1986 11.7712 11.1506 11.5073 11.1506C11.2386 11.1506 11.0083 11.2129 10.8164 11.3377C10.6245 11.4577 10.4685 11.6232 10.3486 11.8343C10.2334 12.0454 10.1471 12.2949 10.0895 12.5828C10.0367 12.8659 10.0103 13.173 10.0103 13.5041ZM16.0632 7.38641V8.66752H11.0251V7.38641H16.0632Z" fill="white"/>
<path d="M12.8604 15.7568V6.40039H14.9476V17.4554H13.0691L12.8604 15.7568ZM7.9375 13.6552V13.5041C7.9375 12.9091 8.00467 12.3693 8.13902 11.8847C8.27337 11.3953 8.4701 10.9754 8.7292 10.6252C8.9883 10.2749 9.30738 10.0038 9.68643 9.81188C10.0655 9.61996 10.4973 9.524 10.9819 9.524C11.4378 9.524 11.836 9.61996 12.1767 9.81188C12.5221 10.0038 12.8148 10.2773 13.0547 10.6324C13.2994 10.9826 13.4962 11.3977 13.6449 11.8775C13.7937 12.3525 13.9016 12.8731 13.9688 13.4393V13.7704C13.9016 14.3126 13.7937 14.8164 13.6449 15.2818C13.4962 15.7472 13.2994 16.1551 13.0547 16.5053C12.8148 16.8508 12.5221 17.1195 12.1767 17.3114C11.8312 17.5033 11.4282 17.5993 10.9675 17.5993C10.4829 17.5993 10.0511 17.5009 9.67204 17.3042C9.29778 17.1075 8.9811 16.8316 8.722 16.4765C8.4677 16.1215 8.27337 15.704 8.13902 15.2242C8.00467 14.7444 7.9375 14.2214 7.9375 13.6552ZM10.0103 13.5041V13.6552C10.0103 13.9767 10.0343 14.2766 10.0823 14.5549C10.1351 14.8332 10.219 15.0803 10.3342 15.2962C10.4541 15.5073 10.6077 15.6728 10.7948 15.7928C10.9867 15.908 11.2194 15.9655 11.4929 15.9655C11.848 15.9655 12.1407 15.8864 12.371 15.728C12.6013 15.5649 12.7764 15.3418 12.8964 15.0587C13.0212 14.7756 13.0931 14.4493 13.1123 14.0799V13.137C13.0979 12.8347 13.0547 12.5636 12.9828 12.3237C12.9156 12.079 12.8148 11.8703 12.6805 11.6976C12.5509 11.5248 12.3878 11.3905 12.1911 11.2945C11.9991 11.1986 11.7712 11.1506 11.5073 11.1506C11.2386 11.1506 11.0083 11.2129 10.8164 11.3377C10.6245 11.4577 10.4685 11.6232 10.3486 11.8343C10.2334 12.0454 10.1471 12.2949 10.0895 12.5828C10.0367 12.8659 10.0103 13.173 10.0103 13.5041ZM16.0632 7.38641V8.66752H11.0251V7.38641H16.0632Z" fill="url(#paint12_linear_6618_23749)"/>
</g>
<defs>
<linearGradient id="paint0_linear_6618_23749" x1="-3.82984e-07" y1="9.55636" x2="10.9923" y2="2.73972" gradientUnits="userSpaceOnUse">
<stop stop-color="#E9E9E9"/>
<stop offset="1" stop-color="white"/>
</linearGradient>
<linearGradient id="paint1_linear_6618_23749" x1="12.0114" y1="37.9442" x2="12.0114" y2="-8.79634" gradientUnits="userSpaceOnUse">
<stop stop-color="white"/>
<stop offset="0.49" stop-color="#FF7928"/>
</linearGradient>
<linearGradient id="paint2_linear_6618_23749" x1="4.12647" y1="-24.6803" x2="70.3375" y2="17.3637" gradientUnits="userSpaceOnUse">
<stop offset="0.318117" stop-color="white"/>
<stop offset="0.481862" stop-color="#969696"/>
</linearGradient>
<linearGradient id="paint3_linear_6618_23749" x1="-12.1156" y1="14.5739" x2="24.9064" y2="14.5739" gradientUnits="userSpaceOnUse">
<stop stop-color="white"/>
<stop offset="1" stop-color="#FF7928"/>
</linearGradient>
<linearGradient id="paint4_linear_6618_23749" x1="0.237142" y1="13.9707" x2="23.7804" y2="13.9707" gradientUnits="userSpaceOnUse">
<stop stop-color="#FFC5A3"/>
<stop offset="1" stop-color="white"/>
</linearGradient>
<linearGradient id="paint5_linear_6618_23749" x1="-34.3313" y1="13.9707" x2="22.5809" y2="13.9707" gradientUnits="userSpaceOnUse">
<stop stop-color="white"/>
<stop offset="1" stop-color="#FF7928"/>
</linearGradient>
<linearGradient id="paint6_linear_6618_23749" x1="12.0088" y1="31.8635" x2="12.0088" y2="-3.92219" gradientUnits="userSpaceOnUse">
<stop stop-color="white"/>
<stop offset="0.49" stop-color="#FF7928"/>
</linearGradient>
<linearGradient id="paint7_linear_6618_23749" x1="2.8125" y1="10.1291" x2="11.2285" y2="4.9101" gradientUnits="userSpaceOnUse">
<stop stop-color="#E9E9E9"/>
<stop offset="1" stop-color="white"/>
</linearGradient>
<linearGradient id="paint8_linear_6618_23749" x1="10.7658" y1="13.9707" x2="22.4773" y2="13.9707" gradientUnits="userSpaceOnUse">
<stop stop-color="#FFC5A3"/>
<stop offset="1" stop-color="white"/>
</linearGradient>
<linearGradient id="paint9_linear_6618_23749" x1="16.6215" y1="31.8635" x2="16.6215" y2="-3.92219" gradientUnits="userSpaceOnUse">
<stop stop-color="white"/>
<stop offset="0.49" stop-color="#FF7928"/>
</linearGradient>
<linearGradient id="paint10_linear_6618_23749" x1="-6.43028" y1="13.9707" x2="21.8807" y2="13.9707" gradientUnits="userSpaceOnUse">
<stop stop-color="white"/>
<stop offset="1" stop-color="#FF7928"/>
</linearGradient>
<linearGradient id="paint11_linear_6618_23749" x1="5.9901" y1="-16.0834" x2="56.657" y2="16.0515" gradientUnits="userSpaceOnUse">
<stop offset="0.318117" stop-color="white"/>
<stop offset="0.569095" stop-color="#969696"/>
</linearGradient>
<linearGradient id="paint12_linear_6618_23749" x1="-8.48803" y1="13.2009" x2="16.6794" y2="13.2009" gradientUnits="userSpaceOnUse">
<stop stop-color="white"/>
<stop offset="1" stop-color="#FF7928"/>
</linearGradient>
<clipPath id="clip0_6618_23749">
<rect width="24" height="24" fill="white"/>
</clipPath>
</defs>
</svg>
