<svg width="46" height="40" viewBox="0 0 46 40" fill="none" xmlns="http://www.w3.org/2000/svg">
<g clip-path="url(#clip0_9005_9430)">
<path d="M30.6016 0C22.0916 0 15.2031 6.90052 15.2031 15.3997C15.2031 23.8988 22.1031 30.7993 30.6016 30.7993C39.1001 30.7993 46.0001 23.8988 46.0001 15.3997C46.0001 6.90052 39.1001 0 30.6016 0ZM31.1191 14.2036C33.2006 14.8706 36.3516 15.8827 36.2826 20.2645C36.0871 22.9327 34.3506 24.9339 31.8666 25.5549V27.7516H28.7041V25.5664C25.5876 24.7844 24.5986 21.7251 24.6561 19.402L27.4851 19.2524C27.7381 20.8166 27.7381 22.8522 30.7511 22.7487C32.0276 22.6222 32.9476 21.8056 33.0741 20.092C33.0971 18.0794 32.4416 17.7458 30.2221 17.0328C28.1061 16.3542 25.1966 15.4227 24.9551 11.4204C24.8861 8.37263 26.5996 6.44048 28.7156 5.68143V3.04773H31.8781V5.41691C34.2931 5.86544 36.4551 7.76308 36.5586 11.0983L33.5801 11.1903C33.5111 8.98217 31.9701 8.28062 30.7051 8.28062C29.6471 8.31512 27.8646 8.97067 27.9221 11.2938C28.0371 13.1225 29.0376 13.525 31.1306 14.1921L31.1191 14.2036Z" fill="url(#paint0_linear_9005_9430)"/>
<path d="M13.4665 21.9308C7.7165 21.9308 3.059 20.7577 0.023 19.7227C0.023 19.7227 0.0153333 19.7227 0 19.7227V25.1166H0.023C3.197 26.0826 7.82 27.1292 13.4665 27.1177C15.1685 27.1177 16.767 27.0142 18.2735 26.8532C16.928 25.4156 15.8355 23.748 15.065 21.8963C14.536 21.9193 14.0185 21.9308 13.4665 21.9308Z" fill="url(#paint1_linear_9005_9430)"/>
<path d="M13.4628 28.2001C7.68981 28.2001 3.03231 27.004 0.0078125 25.9805V31.3744C3.18181 32.3519 7.81631 33.387 13.4628 33.387C18.6263 33.387 22.9273 32.513 26.0438 31.6159C23.4563 30.8913 21.1333 29.5687 19.2128 27.7976C17.4533 28.0391 15.5328 28.2001 13.4628 28.2001Z" fill="url(#paint2_linear_9005_9430)"/>
<path d="M0 32.5938V37.9877C3.174 38.9652 7.8085 40.0003 13.455 40.0003C19.0785 40.0003 23.69 38.9652 26.864 37.9877V32.5938C23.8395 33.6173 19.205 34.8134 13.455 34.8134C7.682 34.8134 3.0245 33.6173 0 32.5938Z" fill="url(#paint3_linear_9005_9430)"/>
<path d="M13.4055 16.1914C7.97753 16.1914 3.44653 17.1115 0.169026 18.0545C-0.0609737 18.1236 -0.0724737 18.4571 0.169026 18.5261C3.33153 19.5382 7.90853 20.5847 13.463 20.5847C13.8425 20.5847 14.199 20.5732 14.567 20.5617C14.1185 19.1816 13.8655 17.7095 13.7965 16.1914C13.67 16.1914 13.5435 16.1914 13.4055 16.1914Z" fill="url(#paint4_linear_9005_9430)"/>
</g>
<defs>
<linearGradient id="paint0_linear_9005_9430" x1="30.6016" y1="35.2501" x2="30.6016" y2="8.14261" gradientUnits="userSpaceOnUse">
<stop stop-color="white"/>
<stop offset="0.49" stop-color="#FF7928"/>
</linearGradient>
<linearGradient id="paint1_linear_9005_9430" x1="9.131" y1="29.4409" x2="9.131" y2="15.4443" gradientUnits="userSpaceOnUse">
<stop stop-color="white"/>
<stop offset="0.49" stop-color="#FF7928"/>
</linearGradient>
<linearGradient id="paint2_linear_9005_9430" x1="13.0258" y1="35.7102" x2="13.0258" y2="21.7021" gradientUnits="userSpaceOnUse">
<stop stop-color="white"/>
<stop offset="0.49" stop-color="#FF7928"/>
</linearGradient>
<linearGradient id="paint3_linear_9005_9430" x1="13.4435" y1="42.335" x2="13.4435" y2="28.3154" gradientUnits="userSpaceOnUse">
<stop stop-color="white"/>
<stop offset="0.49" stop-color="#FF7928"/>
</linearGradient>
<linearGradient id="paint4_linear_9005_9430" x1="7.27603" y1="11.016" x2="7.27603" y2="31.7981" gradientUnits="userSpaceOnUse">
<stop stop-color="white"/>
<stop offset="0.49" stop-color="#FF7928"/>
</linearGradient>
<clipPath id="clip0_9005_9430">
<rect width="46" height="40" fill="white"/>
</clipPath>
</defs>
</svg>
