<svg width="80" height="28" viewBox="0 0 80 28" fill="none" xmlns="http://www.w3.org/2000/svg">
<g clip-path="url(#clip0_9005_9665)">
<path d="M63.47 2.03231H65.561V1.26643H58.2734V2.03231H60.3759V16.6078H58.2734V17.3672H65.561V16.6078H63.47V2.03231Z" fill="black"/>
<mask id="mask0_9005_9665" style="mask-type:luminance" maskUnits="userSpaceOnUse" x="-8" y="-7" width="96" height="43">
<path d="M-7.78125 35.6328H87.5104V-6.78541H-7.78125V35.6328Z" fill="white"/>
</mask>
<g mask="url(#mask0_9005_9665)">
<path d="M76.7242 17.3672V16.6111H74.4909V1.8703C77.9042 1.70092 78.4877 2.42753 78.9255 5.50825H79.6751L79.4093 1.26643H66.4438L66.1797 5.50825H66.9491C67.3902 2.42753 67.9662 1.70092 71.3861 1.8703V16.6111H69.1511V17.3672H76.7242Z" fill="black"/>
<path d="M56.8819 2.02658V1.26643H50.9094L47.3989 12.2785L44.0095 1.26643H38.0591V2.02658H40.1517V16.6119L37.8913 16.6095C35.7912 16.6602 35.7591 14.8805 35.7682 14.5123C35.797 10.5871 34.9157 9.15847 31.1328 8.57752V8.52515C33.3892 8.28785 36.2734 7.64962 36.2734 4.92974C36.2734 1.58145 33.13 1.26643 30.4786 1.26643H22.6719V2.02658H24.762V16.6095H22.6719V17.3672H29.9553V16.6095H27.8651V8.92118C29.2081 8.868 30.7214 9.20921 31.4044 9.79344C32.0356 10.3253 32.3754 11.9782 32.3754 13.9731C32.3754 16.4352 33.6534 17.3672 36.1056 17.3672H43.1248V16.6119H41.08V2.27615H41.1302L45.9507 17.3672H46.7694L51.6204 2.27615H51.6936V16.6119H49.6084V17.3672H56.8819V16.6119H54.7951V2.02658H56.8819ZM27.8651 8.16921V2.02658H29.9742C32.1335 2.02658 32.9309 2.56581 32.9309 5.27341C32.9309 7.43278 32.0356 8.16921 29.8524 8.16921H27.8651Z" fill="black"/>
<path d="M9.78398 0.30901H7.36632V2.26218H3.34074V6.33462H0.3125V12.3152H3.34074V16.3885H7.36632V18.3359H9.49761C14.4778 18.3359 18.8712 14.3388 18.8712 9.34498C18.8712 4.38555 14.7723 0.30901 9.78398 0.30901Z" fill="#E42A20"/>
<path d="M24.7639 22.2378C24.7639 22.1036 24.6915 22.0414 24.5664 22.0414H24.1797V21.2722H25.0873C25.4922 21.2722 25.6634 21.4424 25.6634 21.845V25.3406C25.6634 26.2873 26.2649 26.8519 27.1824 26.8519C28.0991 26.8519 28.7023 26.2873 28.7023 25.3316V21.845C28.7023 21.4424 28.8817 21.2722 29.2857 21.2722H30.1851V22.0414H29.7984C29.6725 22.0414 29.6017 22.1036 29.6017 22.2378V25.3758C29.6017 26.7521 28.6389 27.6914 27.1915 27.6914C25.735 27.6914 24.7639 26.7521 24.7639 25.3758V22.2378Z" fill="black"/>
<path d="M30.7891 26.8168H31.175C31.3017 26.8168 31.3733 26.7448 31.3733 26.6204V21.2739H32.1913L35.0146 25.2703C35.2483 25.6099 35.5454 26.1286 35.5454 26.1286H35.5627C35.5627 26.1286 35.5001 25.6279 35.5001 25.2703V21.8467C35.5001 21.4441 35.6705 21.2739 36.0844 21.2739H36.9838V22.0431H36.597C36.4711 22.0431 36.3995 22.1053 36.3995 22.2395V27.5859H35.5898L32.7582 23.5904C32.5245 23.2492 32.2365 22.7312 32.2365 22.7312H32.2184C32.2184 22.7312 32.2727 23.241 32.2727 23.5904V27.0132C32.2727 27.4157 32.1008 27.5859 31.6967 27.5859H30.7891V26.8168Z" fill="black"/>
<path d="M37.9609 26.8168H38.5814V22.0431H37.9609V21.2739H40.056V22.0431H39.4356V26.8168H40.056V27.5859H37.9609V26.8168Z" fill="black"/>
<path d="M41.0385 22.2395C40.985 22.0783 40.8945 22.0431 40.7431 22.0431H40.6172V21.2739H41.12C41.5693 21.2739 41.7232 21.3729 41.8663 21.7927L43.2595 25.6819C43.3772 26.0214 43.5031 26.5484 43.5031 26.5484H43.5212C43.5212 26.5484 43.6372 26.0214 43.7639 25.6819L45.1571 21.7927C45.3093 21.3729 45.4533 21.2739 45.9026 21.2739H46.4062V22.0431H46.2811C46.1182 22.0431 46.0384 22.0783 45.9841 22.2395L43.9878 27.5859H43.0348L41.0385 22.2395Z" fill="black"/>
<path d="M47.5131 22.0392H46.9297V21.2708H50.6615C51.0655 21.2708 51.2359 21.4402 51.2359 21.8428V22.6381H50.4171V22.2356C50.4171 22.1014 50.3455 22.0392 50.2196 22.0392H48.4134V24.0153H50.6327V24.7836H48.4134V26.6165C48.4134 26.7409 48.485 26.8129 48.6109 26.8129H50.4624C50.5891 26.8129 50.6615 26.7409 50.6615 26.6165V26.2139H51.4877V27.0093C51.4877 27.4127 51.3173 27.582 50.9125 27.582H48.0891C47.6843 27.582 47.5131 27.4127 47.5131 27.0093V22.0392Z" fill="black"/>
<path d="M54.8171 24.3017C55.5001 24.3017 55.9041 23.8631 55.9041 23.1569C55.9041 22.45 55.5001 22.0392 54.8343 22.0392H53.6477V24.3017H54.8171ZM52.7483 22.0392H52.1641V21.2708H54.9331C56.0481 21.2708 56.8307 21.968 56.8307 23.1217C56.8307 24.1756 56.1386 24.6952 55.6885 24.7926V24.8106C55.6885 24.8106 55.8514 24.8908 55.9576 25.097L56.7229 26.6075C56.8134 26.7957 56.9566 26.8137 57.1722 26.8137H57.2899V27.582H56.848C56.3542 27.582 56.174 27.5198 55.9683 27.1083L55.1051 25.4104C54.943 25.115 54.8253 25.07 54.4747 25.07H53.6477V27.582H52.7483V22.0392Z" fill="black"/>
<path d="M58.4362 26.1179C58.4362 26.1179 59.0838 26.8781 60.0268 26.8781C60.621 26.8781 61.1163 26.5197 61.1163 25.9387C61.1163 24.6156 58.0494 24.821 58.0494 22.8547C58.0494 21.9072 58.8855 21.165 60.082 21.165C60.7567 21.165 61.8882 21.4694 61.8882 22.3269V22.8465H61.062V22.5511C61.062 22.2197 60.5856 21.9784 60.082 21.9784C59.3982 21.9784 58.967 22.3539 58.967 22.8277C58.967 24.1066 62.024 23.8203 62.024 25.8937C62.024 26.8601 61.2678 27.6914 60.0104 27.6914C58.6608 27.6914 57.9062 26.7521 57.9062 26.7521L58.4362 26.1179Z" fill="black"/>
<path d="M62.9688 26.8168H63.5892V22.0431H62.9688V21.2739H65.0647V22.0431H64.4434V26.8168H65.0647V27.5859H62.9688V26.8168Z" fill="black"/>
<path d="M67.9229 22.0392H66.6458C66.5199 22.0392 66.4483 22.1014 66.4483 22.2356V22.6381H65.6484V21.8068C65.6484 21.405 65.7826 21.2708 66.1874 21.2708H70.5578C70.961 21.2708 71.0968 21.405 71.0968 21.8068V22.6381H70.297V22.2356C70.297 22.1014 70.2254 22.0392 70.0986 22.0392H68.8215V27.582H67.9229V22.0392Z" fill="black"/>
<path d="M73.6609 24.8325L72.0513 22.2665C71.9345 22.0783 71.853 22.0431 71.6638 22.0431H71.4844V21.2739H71.8975C72.3295 21.2739 72.4998 21.3369 72.7525 21.7575L73.7144 23.349C73.9218 23.6968 74.1012 24.0552 74.1012 24.0552H74.1193C74.1193 24.0552 74.2896 23.6968 74.5052 23.349L75.4598 21.7575C75.7099 21.3369 75.8901 21.2739 76.3123 21.2739H76.7262V22.0431H76.5542C76.3666 22.0431 76.2769 22.0783 76.16 22.2665L74.5587 24.8325V27.5859H73.6609V24.8325Z" fill="black"/>
</g>
</g>
<defs>
<clipPath id="clip0_9005_9665">
<rect width="80" height="28" fill="white"/>
</clipPath>
</defs>
</svg>
