<svg width="47" height="40" viewBox="0 0 47 40" fill="none" xmlns="http://www.w3.org/2000/svg">
<g clip-path="url(#clip0_9005_9421)">
<path d="M16.9083 8.37109C7.567 8.37109 0 15.8901 0 25.172C0 30.3909 2.40875 35.0611 6.16875 38.1434C6.157 38.0383 6.1335 37.9216 6.1335 37.8165V36.4505C6.1335 32.3991 8.648 28.9198 12.2083 27.4721C11.985 27.332 11.7618 27.1919 11.5503 27.0401C9.306 25.3939 7.83725 22.7552 7.83725 19.7663C7.83725 14.7926 11.891 10.7529 16.9083 10.7529C21.9255 10.7529 25.9793 14.7926 25.9793 19.7663C25.9793 22.7552 24.5105 25.3822 22.2663 27.0401C22.0548 27.1919 21.8315 27.332 21.6082 27.4721C25.1803 28.9198 27.683 32.3874 27.683 36.4505V37.8165C27.683 37.9216 27.6595 38.0383 27.6478 38.1434C31.4195 35.0611 33.8165 30.3909 33.8165 25.172C33.8165 15.8901 26.2495 8.37109 16.9083 8.37109Z" fill="url(#paint0_linear_9005_9421)"/>
<path d="M16.764 13.0781C13.0393 13.0781 10.0312 16.0787 10.0312 19.7681C10.0312 21.9865 11.124 23.9363 12.7925 25.1622C13.9088 25.9795 15.2835 26.4698 16.7757 26.4698C18.268 26.4698 19.6427 25.9795 20.759 25.1622C22.4275 23.9479 23.5203 21.9865 23.5203 19.7681C23.5203 16.067 20.5005 13.0781 16.7875 13.0781H16.764Z" fill="url(#paint1_linear_9005_9421)"/>
<path d="M20.8359 0V5.38237C29.9539 7.19206 36.8159 15.1897 36.8159 24.7752C36.8159 26.4799 36.5809 28.1261 36.1697 29.7023H47.0032V0H20.8359ZM43.1139 14.5709H36.8394V12.3292H43.1139V14.5709ZM43.1139 10.5429H35.4764V8.30123H43.1139V10.5429ZM43.1139 6.51489H31.4109V4.27321H43.1139V6.51489Z" fill="url(#paint2_linear_9005_9421)"/>
<path d="M25.3115 34.5841C25.241 34.1171 25.1588 33.6501 24.9943 33.1947C23.878 30.1358 20.9523 27.9174 16.9103 27.7773C12.8683 27.9174 9.94254 30.1358 8.8263 33.1947C8.6618 33.6384 8.57954 34.1054 8.50904 34.5841L8.25054 36.3471C8.21529 38.3903 9.89554 40.0015 11.9283 40.0015H21.8688C23.9015 40.0015 25.57 38.3903 25.5465 36.3471L25.288 34.5841H25.3115Z" fill="url(#paint3_linear_9005_9421)"/>
</g>
<defs>
<linearGradient id="paint0_linear_9005_9421" x1="16.9083" y1="52.7494" x2="16.9083" y2="5.41721" gradientUnits="userSpaceOnUse">
<stop stop-color="white"/>
<stop offset="0.49" stop-color="#FF7928"/>
</linearGradient>
<linearGradient id="paint1_linear_9005_9421" x1="16.764" y1="47.6724" x2="16.764" y2="7.6257" gradientUnits="userSpaceOnUse">
<stop stop-color="white"/>
<stop offset="0.49" stop-color="#FF7928"/>
</linearGradient>
<linearGradient id="paint2_linear_9005_9421" x1="33.9254" y1="44.2732" x2="33.9254" y2="-2.94221" gradientUnits="userSpaceOnUse">
<stop stop-color="white"/>
<stop offset="0.49" stop-color="#969696"/>
</linearGradient>
<linearGradient id="paint3_linear_9005_9421" x1="0.00204523" y1="43.8544" x2="16.7696" y2="20.6122" gradientUnits="userSpaceOnUse">
<stop stop-color="white"/>
<stop offset="0.49" stop-color="#FF7928"/>
</linearGradient>
<clipPath id="clip0_9005_9421">
<rect width="47" height="40" fill="white"/>
</clipPath>
</defs>
</svg>
