<svg width="178" height="32" viewBox="0 0 178 32" fill="none" xmlns="http://www.w3.org/2000/svg">
<path d="M-0.000497818 9.09765L20.9559 23.9995L29.7422 23.9995L8.78577 9.09766L-0.000497818 9.09765Z" fill="white"/>
<path d="M14.8745 9.09765L35.8309 23.9995L44.6172 23.9995L23.6608 9.09766L14.8745 9.09765Z" fill="white"/>
<path d="M29.7417 9.09765L50.6981 23.9995L59.4844 23.9995L38.5279 9.09766L29.7417 9.09765Z" fill="white"/>
<path d="M44.6167 9.09765L65.5731 23.9995L74.3594 23.9995L53.4017 9.09766L44.6167 9.09765Z" fill="white"/>
<path d="M59.4839 9.09765L80.4403 23.9995L89.2266 23.9995L68.2689 9.09766L59.4839 9.09765Z" fill="white"/>
<path d="M74.3589 9.09765L95.3153 23.9995L104.102 23.9995L83.1439 9.09766L74.3589 9.09765Z" fill="white"/>
<path d="M89.226 9.09765L110.182 23.9995L118.969 23.9995L98.0111 9.09766L89.226 9.09765Z" fill="white"/>
<path d="M104.102 9.09765L125.059 23.9995L133.844 23.9995L112.887 9.09766L104.102 9.09765Z" fill="white"/>
<path d="M141.844 16H177.999" stroke="#FAFAFA"/>
</svg>
