<svg width="178" height="32" viewBox="0 0 178 32" fill="none" xmlns="http://www.w3.org/2000/svg">
<path d="M0 16H36.1557" stroke="#FAFAFA"/>
<path d="M178.001 9.09765L157.043 23.9995L148.258 23.9995L169.214 9.09766L178.001 9.09765Z" fill="white"/>
<path d="M163.133 9.09765L142.176 23.9995L133.391 23.9995L154.347 9.09766L163.133 9.09765Z" fill="white"/>
<path d="M148.258 9.09765L127.302 23.9995L118.516 23.9995L139.472 9.09766L148.258 9.09765Z" fill="white"/>
<path d="M133.383 9.09765L112.427 23.9995L103.641 23.9995L124.597 9.09766L133.383 9.09765Z" fill="white"/>
<path d="M118.516 9.09765L97.5597 23.9995L88.7734 23.9995L109.73 9.09766L118.516 9.09765Z" fill="white"/>
<path d="M103.641 9.09765L82.6847 23.9995L73.8984 23.9995L94.8561 9.09766L103.641 9.09765Z" fill="white"/>
<path d="M88.7739 9.09765L67.8175 23.9995L59.0313 23.9995L79.9889 9.09766L88.7739 9.09765Z" fill="white"/>
<path d="M73.8989 9.09765L52.9425 23.9995L44.1563 23.9995L65.1139 9.09766L73.8989 9.09765Z" fill="white"/>
</svg>
