<svg width="24" height="24" viewBox="0 0 24 24" fill="none" xmlns="http://www.w3.org/2000/svg">
<path d="M3.52899 8.0625H20.4749C20.577 8.06252 20.6781 8.04167 20.7719 8.00124C20.8656 7.96082 20.9502 7.90166 21.0203 7.8274C21.0904 7.75314 21.1446 7.66534 21.1796 7.56938C21.2146 7.47343 21.2296 7.37134 21.2237 7.26937L21.2144 7.07475C21.0925 5.10525 19.4462 3.5625 17.4659 3.5625H16.5021V2.8125C16.5021 2.61359 16.4231 2.42282 16.2824 2.28217C16.1418 2.14152 15.951 2.0625 15.7521 2.0625C15.5532 2.0625 15.3624 2.14152 15.2218 2.28217C15.0811 2.42282 15.0021 2.61359 15.0021 2.8125V3.5625H9.00212V2.8125C9.00212 2.61359 8.9231 2.42282 8.78245 2.28217C8.64179 2.14152 8.45103 2.0625 8.25212 2.0625C8.0532 2.0625 7.86244 2.14152 7.72179 2.28217C7.58113 2.42282 7.50212 2.61359 7.50212 2.8125V3.5625H6.53837C4.55799 3.5625 2.91137 5.10563 2.78949 7.07625L2.78012 7.26975C2.77413 7.37172 2.78907 7.47384 2.82402 7.56982C2.85896 7.66581 2.91317 7.75363 2.98332 7.82788C3.05346 7.90214 3.13806 7.96126 3.2319 8.0016C3.32574 8.04195 3.42684 8.06268 3.52899 8.0625ZM21.3411 10.2938C21.3363 10.0981 21.2552 9.91216 21.1152 9.77552C20.9751 9.63889 20.7872 9.56244 20.5915 9.5625H3.41274C3.21706 9.56253 3.02914 9.639 2.88904 9.77561C2.74893 9.91221 2.66773 10.0981 2.66274 10.2938C2.59499 12.9476 2.64228 15.603 2.80449 18.2528C2.92149 20.1353 4.42937 21.6427 6.31112 21.7598C10.1012 21.9972 13.9023 21.9971 17.6924 21.7594C19.5749 21.6424 21.0824 20.1345 21.1997 18.2524C21.361 15.6581 21.4086 12.9803 21.3411 10.2938ZM15.7521 14.0625C15.4537 14.0625 15.1676 13.944 14.9566 13.733C14.7456 13.522 14.6271 13.2359 14.6271 12.9375C14.6271 12.6391 14.7456 12.353 14.9566 12.142C15.1676 11.931 15.4537 11.8125 15.7521 11.8125C16.0505 11.8125 16.3366 11.931 16.5476 12.142C16.7586 12.353 16.8771 12.6391 16.8771 12.9375C16.8771 13.2359 16.7586 13.522 16.5476 13.733C16.3366 13.944 16.0505 14.0625 15.7521 14.0625ZM16.8771 16.6875C16.8771 16.9859 16.7586 17.272 16.5476 17.483C16.3366 17.694 16.0505 17.8125 15.7521 17.8125C15.4537 17.8125 15.1676 17.694 14.9566 17.483C14.7456 17.272 14.6271 16.9859 14.6271 16.6875C14.6271 16.3891 14.7456 16.103 14.9566 15.892C15.1676 15.681 15.4537 15.5625 15.7521 15.5625C16.0505 15.5625 16.3366 15.681 16.5476 15.892C16.7586 16.103 16.8771 16.3891 16.8771 16.6875ZM8.25212 15.5625C8.55048 15.5625 8.83663 15.681 9.04761 15.892C9.25859 16.103 9.37712 16.3891 9.37712 16.6875C9.37712 16.9859 9.25859 17.272 9.04761 17.483C8.83663 17.694 8.55048 17.8125 8.25212 17.8125C7.95375 17.8125 7.6676 17.694 7.45662 17.483C7.24564 17.272 7.12712 16.9859 7.12712 16.6875C7.12712 16.3891 7.24564 16.103 7.45662 15.892C7.6676 15.681 7.95375 15.5625 8.25212 15.5625ZM7.12712 12.9375C7.12712 12.7898 7.15621 12.6435 7.21275 12.507C7.26929 12.3705 7.35215 12.2465 7.45662 12.142C7.56109 12.0375 7.68511 11.9547 7.8216 11.8981C7.95809 11.8416 8.10438 11.8125 8.25212 11.8125C8.39985 11.8125 8.54614 11.8416 8.68263 11.8981C8.81913 11.9547 8.94315 12.0375 9.04761 12.142C9.15208 12.2465 9.23494 12.3705 9.29148 12.507C9.34802 12.6435 9.37712 12.7898 9.37712 12.9375C9.37712 13.2359 9.25859 13.522 9.04761 13.733C8.83663 13.944 8.55048 14.0625 8.25212 14.0625C7.95375 14.0625 7.6676 13.944 7.45662 13.733C7.24564 13.522 7.12712 13.2359 7.12712 12.9375ZM10.8771 16.6875C10.8771 16.3891 10.9956 16.103 11.2066 15.892C11.4176 15.681 11.7037 15.5625 12.0021 15.5625C12.3005 15.5625 12.5866 15.681 12.7976 15.892C13.0086 16.103 13.1271 16.3891 13.1271 16.6875C13.1271 16.9859 13.0086 17.272 12.7976 17.483C12.5866 17.694 12.3005 17.8125 12.0021 17.8125C11.7037 17.8125 11.4176 17.694 11.2066 17.483C10.9956 17.272 10.8771 16.9859 10.8771 16.6875ZM12.0021 14.0625C11.7037 14.0625 11.4176 13.944 11.2066 13.733C10.9956 13.522 10.8771 13.2359 10.8771 12.9375C10.8771 12.6391 10.9956 12.353 11.2066 12.142C11.4176 11.931 11.7037 11.8125 12.0021 11.8125C12.3005 11.8125 12.5866 11.931 12.7976 12.142C13.0086 12.353 13.1271 12.6391 13.1271 12.9375C13.1271 13.2359 13.0086 13.522 12.7976 13.733C12.5866 13.944 12.3005 14.0625 12.0021 14.0625Z" fill="#F37321"/>
</svg>
