<svg width="40" height="40" viewBox="0 0 40 40" fill="none" xmlns="http://www.w3.org/2000/svg">
<g clip-path="url(#clip0_1690_8969)">
<path d="M38 16H30V12C30 10.8 29.2 10 28 10H22V8L30 5L22 2C22 0.8 21.2 0 20 0C18.8 0 18 0.8 18 2V10H12C10.8 10 10 10.8 10 12V16H2C0.8 16 0 16.8 0 18V40H16V32C16 30.8 16.8 30 18 30H22C23.2 30 24 30.8 24 32V40H40V18C40 16.8 39.2 16 38 16ZM8 36H4V32H8V36ZM8 28H4V24H8V28ZM20 22C17.8 22 16 20.2 16 18C16 15.8 17.8 14 20 14C22.2 14 24 15.8 24 18C24 20.2 22.2 22 20 22ZM36 36H32V32H36V36ZM36 28H32V24H36V28Z" fill="#F37021"/>
</g>
<defs>
<clipPath id="clip0_1690_8969">
<rect width="40" height="40" fill="white"/>
</clipPath>
</defs>
</svg>
