<svg width="40" height="40" viewBox="0 0 40 40" fill="none" xmlns="http://www.w3.org/2000/svg">
<g clip-path="url(#clip0_1690_8949)">
<path d="M39.2179 10.0282L20.3897 3.38516C20.1374 3.29609 19.8623 3.29609 19.61 3.38516L0.781843 10.0282C0.553445 10.1088 0.355638 10.2582 0.21563 10.4559C0.0756223 10.6535 0.000292059 10.8897 8.47512e-07 11.1319C-0.000290364 11.3741 0.0744718 11.6105 0.214004 11.8085C0.353536 12.0064 0.550983 12.1563 0.779187 12.2375L19.6073 18.931C19.8612 19.0213 20.1384 19.0213 20.3923 18.931L39.2204 12.2375C39.4487 12.1564 39.6462 12.0065 39.7857 11.8085C39.9253 11.6105 40.0001 11.3742 39.9998 11.1319C39.9995 10.8897 39.9242 10.6535 39.7842 10.4559C39.6441 10.2582 39.4463 10.1088 39.2179 10.0282ZM37.1852 25.6704V15.4485L34.8415 16.2817V25.6704C34.1355 26.0767 33.6598 26.838 33.6598 27.7111C33.6598 28.5841 34.1355 29.3455 34.8415 29.7518V35.5109C34.8415 36.158 35.3661 36.6827 36.0133 36.6827C36.6605 36.6827 37.1852 36.158 37.1852 35.5109V29.7519C37.8911 29.3456 38.3668 28.5841 38.3668 27.7112C38.3668 26.8381 37.8912 26.0767 37.1852 25.6704Z" fill="#F37021"/>
<path d="M20.0005 21.343C19.5982 21.343 19.202 21.2746 18.8229 21.1398L8.23828 17.377V22.5338C8.23828 23.7955 9.55445 24.8624 12.1502 25.7049C14.4128 26.4393 17.2008 26.8438 20.0005 26.8438C22.8002 26.8438 25.588 26.4393 27.8507 25.7049C30.4465 24.8624 31.7627 23.7955 31.7627 22.5338V17.377L21.1781 21.1398C20.8001 21.2744 20.4017 21.3431 20.0005 21.343Z" fill="#F37021"/>
</g>
<defs>
<clipPath id="clip0_1690_8949">
<rect width="40" height="40" fill="white"/>
</clipPath>
</defs>
</svg>
