<svg width="40" height="40" viewBox="0 0 40 40" fill="none" xmlns="http://www.w3.org/2000/svg">
<g clip-path="url(#clip0_1690_8959)">
<path d="M34.2362 20.9443C34.1258 20.9008 31.4958 19.8785 28.3548 19.6896C25.4067 19.5119 22.9774 20.1257 21.1719 21.4808V39.983C22.4865 37.8875 24.8357 36.9203 28.1621 37.1089C30.9405 37.2664 33.3554 38.1995 33.3784 38.2085C33.556 38.2784 33.7481 38.3038 33.9379 38.2825C34.1276 38.2613 34.3093 38.1939 34.4671 38.0864C34.6249 37.9789 34.7541 37.8345 34.8433 37.6657C34.9326 37.4969 34.9792 37.3089 34.9792 37.1179V22.0348C34.9792 21.7994 34.9083 21.5695 34.7758 21.375C34.6433 21.1805 34.4552 21.0304 34.2362 20.9443ZM31.1255 31.0582C31.067 31.7028 30.4967 32.1779 29.8527 32.1196C28.5912 32.0053 27.4388 32.0523 26.4278 32.2593C25.533 32.4422 25.1109 31.6699 25.0447 31.3463C24.9148 30.7122 25.3237 30.093 25.9577 29.9632C27.193 29.7103 28.5746 29.6504 30.0641 29.7854C30.7087 29.8438 31.1838 30.4136 31.1255 31.0582ZM31.1255 26.0304C31.0671 26.675 30.4967 27.1502 29.8527 27.0918C28.5925 26.9777 27.4402 27.025 26.4277 27.2322C25.5328 27.4152 25.1109 26.6428 25.0446 26.3192C24.9148 25.6851 25.3236 25.0659 25.9577 24.9361C27.1944 24.6829 28.5759 24.6229 30.0641 24.7576C30.7086 24.816 31.1838 25.3858 31.1255 26.0304ZM11.6452 19.6896C8.50422 19.8785 5.87422 20.9008 5.76383 20.9443C5.54478 21.0304 5.35675 21.1805 5.22423 21.375C5.09171 21.5695 5.02084 21.7994 5.02086 22.0348V37.118C5.02086 37.3089 5.06751 37.497 5.15676 37.6658C5.24602 37.8346 5.37516 37.979 5.53297 38.0865C5.69077 38.194 5.87245 38.2613 6.0622 38.2826C6.25196 38.3039 6.44403 38.2785 6.62172 38.2086C6.64531 38.1993 9.01219 37.2789 11.7861 37.1119C15.1394 36.9101 17.5065 37.8761 18.8282 39.9831V21.4809C17.0225 20.1259 14.593 19.5122 11.6452 19.6896ZM14.9554 31.3463C14.8891 31.6698 14.4671 32.4422 13.5723 32.2593C12.5612 32.0524 11.409 32.0053 10.1474 32.1196C9.50336 32.1779 8.93297 31.7029 8.87461 31.0582C8.81625 30.4136 9.29141 29.8438 9.93602 29.7854C11.4255 29.6504 12.8072 29.7103 14.0424 29.9632C14.6764 30.093 15.0852 30.7122 14.9554 31.3463ZM14.9554 26.3191C14.8891 26.6427 14.4672 27.4151 13.5723 27.2321C12.5598 27.0249 11.4075 26.9776 10.1473 27.0918C8.59562 27.1743 8.39523 24.9545 9.93594 24.7575C11.4241 24.6229 12.8056 24.6829 14.0423 24.936C14.6764 25.0658 15.0852 25.6851 14.9554 26.3191ZM20 9.94145C22.7455 9.94145 24.9791 7.70777 24.9791 4.9623C24.7288 -1.63418 15.2701 -1.63238 15.0208 4.96238C15.0209 7.70777 17.2545 9.94145 20 9.94145ZM7.44789 13.0782C10.1934 13.0782 12.427 10.8445 12.427 8.09902C12.1767 1.50254 2.71805 1.50434 2.46875 8.0991C2.46875 10.8446 4.70234 13.0782 7.44789 13.0782ZM32.5521 13.0782C35.2977 13.0782 37.5312 10.8445 37.5312 8.09902C37.2809 1.50254 27.8222 1.50434 27.5729 8.0991C27.573 10.8446 29.8066 13.0782 32.5521 13.0782ZM27.4479 15.406C27.4479 13.5229 26.4016 11.8306 24.7177 10.9895L24.3853 10.8234C21.949 12.7525 18.052 12.7526 15.6155 10.8241L15.2806 10.9916C13.5976 11.8339 12.552 13.5261 12.552 15.4079V17.3164C14.6276 17.3094 17.4934 17.6676 19.9999 19.4364C22.5064 17.6673 25.3716 17.3092 27.4479 17.3164V15.406Z" fill="#F37021"/>
<path d="M37.2698 14.127L36.9374 13.9609C35.0255 15.4638 32.0501 15.8659 29.7724 14.8742C29.7852 15.0504 29.7917 15.228 29.7917 15.4069V17.4707C32.6316 17.8212 34.8217 18.657 35.0938 18.7639C36.448 19.2965 37.3229 20.5807 37.3229 22.0356V24.9214H38.8281C39.4753 24.9214 40 24.3967 40 23.7495V18.5435C40 16.6605 38.9537 14.9681 37.2698 14.127ZM10.2083 15.4087C10.2083 15.2292 10.2149 15.0509 10.2277 14.8741C7.95008 15.8657 4.9757 15.464 3.06344 13.9616L2.72852 14.1291C1.04555 14.9714 0 16.6637 0 18.5454V23.7495C0 24.3967 0.524687 24.9214 1.17188 24.9214H2.67711V22.0356C2.67711 20.5807 3.55203 19.2965 4.90609 18.764C5.17828 18.657 7.36828 17.8212 10.2083 17.4708V15.4087Z" fill="#F37021"/>
</g>
<defs>
<clipPath id="clip0_1690_8959">
<rect width="40" height="40" fill="white"/>
</clipPath>
</defs>
</svg>
