<svg width="45" height="45" viewBox="0 0 45 45" fill="none" xmlns="http://www.w3.org/2000/svg">
<path d="M5.93408 7.40756C6.22533 7.40464 6.50933 7.31632 6.75086 7.15353C6.99239 6.99075 7.18084 6.76066 7.29286 6.4918C7.40487 6.22293 7.43553 5.9271 7.38102 5.64098C7.3265 5.35486 7.18922 5.09102 6.9862 4.88218L2.52176 0.41774C2.24109 0.146662 1.86518 -0.00333436 1.47499 5.62558e-05C1.08481 0.00344688 0.711563 0.159953 0.435646 0.435868C0.159733 0.711782 0.00322723 1.08503 -0.000164032 1.47521C-0.0035553 1.8654 0.146442 2.24131 0.417519 2.52198L4.88196 6.98642C5.16321 7.26034 5.54149 7.41176 5.93408 7.40756ZM1.57529 14.8632H4.44593C4.84061 14.8632 5.21913 14.7064 5.49821 14.4273C5.77729 14.1482 5.93408 13.7697 5.93408 13.375C5.93408 12.9803 5.77729 12.6018 5.49821 12.3227C5.21913 12.0437 4.84061 11.8869 4.44593 11.8869H1.57529C1.18061 11.8869 0.802101 12.0437 0.523022 12.3227C0.243938 12.6018 0.0871506 12.9803 0.0871506 13.375C0.0871506 13.7697 0.243938 14.1482 0.523022 14.4273C0.802101 14.7064 1.18061 14.8632 1.57529 14.8632ZM13.3748 5.9343C13.7695 5.9343 14.148 5.77751 14.4271 5.49843C14.7062 5.21935 14.863 4.84083 14.863 4.44615V1.57552C14.863 1.18084 14.7062 0.802321 14.4271 0.52324C14.148 0.244158 13.7695 0.0873717 13.3748 0.0873717C12.9801 0.0873717 12.6016 0.244158 12.3225 0.52324C12.0434 0.802321 11.8867 1.18084 11.8867 1.57552V4.44615C11.8867 4.84083 12.0434 5.21935 12.3225 5.49843C12.6016 5.77751 12.9801 5.9343 13.3748 5.9343ZM1.46964 26.7579C1.66438 26.7597 1.85756 26.723 2.0381 26.6499C2.21864 26.5769 2.383 26.469 2.52176 26.3323L6.9862 21.8679C7.25727 21.5872 7.40727 21.2113 7.40388 20.8211C7.40049 20.4309 7.24398 20.0577 6.96807 19.7818C6.69215 19.5058 6.31891 19.3493 5.92872 19.346C5.53853 19.3426 5.16262 19.4926 4.88196 19.7636L0.417519 24.2281C0.215771 24.4377 0.0796394 24.7018 0.0258255 24.9877C-0.0279846 25.2737 0.00286865 25.5691 0.114601 25.8378C0.226334 26.1064 0.414078 26.3366 0.654789 26.5001C0.895504 26.6635 1.17871 26.7531 1.46964 26.7579ZM20.8155 7.41351C21.0104 7.41513 21.2037 7.37824 21.3842 7.30494C21.5648 7.23165 21.7291 7.1234 21.8677 6.98642L26.3321 2.52198C26.6032 2.24131 26.7532 1.8654 26.7498 1.47521C26.7464 1.08503 26.5899 0.711782 26.314 0.435868C26.038 0.159953 25.6648 0.00344688 25.2746 5.62558e-05C24.8844 -0.00333436 24.5085 0.146662 24.2279 0.41774L19.7634 4.88218C19.5619 5.09203 19.4259 5.35613 19.3722 5.6421C19.3185 5.92807 19.3494 6.22349 19.461 6.49218C19.5727 6.76086 19.7603 6.99114 20.0009 7.15479C20.2415 7.31843 20.5246 7.40835 20.8155 7.41351ZM11.342 11.3422C11.7774 10.9006 12.3326 10.5963 12.939 10.4667C13.5454 10.3371 14.1765 10.388 14.7543 10.613L42.5603 21.2057C43.1866 21.4442 43.7225 21.8728 44.0928 22.4314C44.4631 22.99 44.6491 23.6506 44.6248 24.3204C44.6005 24.9901 44.3671 25.6354 43.9574 26.1658C43.5476 26.6961 42.982 27.0848 42.3401 27.2773L30.8724 30.7179C30.8356 30.7286 30.802 30.7484 30.7747 30.7754C30.7474 30.8025 30.7273 30.8359 30.7162 30.8726L27.2771 42.3403C27.0903 42.9853 26.7033 43.5544 26.1721 43.9652C25.6409 44.3761 24.9929 44.6075 24.3216 44.6261C23.6521 44.6487 22.9921 44.4621 22.4336 44.0921C21.8751 43.7222 21.4458 43.1874 21.2054 42.562L10.6128 14.7545C10.3875 14.177 10.3365 13.5461 10.4661 12.9398C10.5957 12.3336 10.9002 11.7786 11.342 11.3437V11.3422Z" fill="white"/>
</svg>
