<svg width="32" height="32" viewBox="0 0 32 32" fill="none" xmlns="http://www.w3.org/2000/svg">
<g clip-path="url(#clip0_2210_6845)">
<path d="M29.5345 26.6921C27.4907 27.9052 25.1848 28.6452 22.8331 28.9971C18.4309 29.656 13.6371 29.1049 9.69309 27.0038C8.28262 27.6091 6.71902 28.0212 5.16684 27.9109C5.05684 27.903 4.7884 27.8926 4.77777 27.7535C5.33621 27.092 5.87387 26.3852 6.0798 25.5121C6.43543 24.0045 5.68637 23.6012 5.02215 22.4359C2.53012 18.0638 2.17402 12.1451 3.64559 7.3743C4.3298 5.15617 5.47043 3.04977 7.15043 1.43555C6.83918 1.5593 6.51809 1.73055 6.22418 1.8982C1.94762 4.33805 0.312305 8.54555 0.156055 13.3134C0.0993363 15.0437 0.0987113 16.9868 0.156055 18.717C0.334336 24.0959 2.4209 28.5891 7.55637 30.7509C9.37402 31.516 11.2 31.7615 13.1615 31.8423C16.1611 31.9657 20.0003 32.0695 22.8918 31.304C25.3618 30.6501 28.002 29.0401 29.4354 26.8896C29.4586 26.8549 29.5604 26.7207 29.5345 26.6924V26.6921Z" fill="#1E1E1E"/>
<path d="M13.1734 10.8945V11.4409C13.1734 11.5997 12.9694 11.9694 12.8741 12.1094L9.33469 16.5311L8.70906 17.357H13.1578C13.1611 17.357 13.2047 17.4006 13.2047 17.4039V18.1844C13.2047 18.2467 13.0747 18.4489 13.0183 18.4975C12.9653 18.543 12.7786 18.637 12.7208 18.637H6.80469V17.9658C6.80469 17.9383 6.90203 17.6916 6.92422 17.6483C8.34406 15.8234 9.82328 14.042 11.2691 12.237H6.96078V10.8945H13.1734Z" fill="#1E1E1E"/>
<path d="M18.8397 18.6381C18.5641 18.6009 18.3488 18.3856 18.3243 18.1075C16.6607 19.2846 14.3077 18.5428 13.6644 16.6017C12.735 13.7971 15.9435 11.4914 18.3243 13.1746C18.3329 13.1043 18.2947 12.7689 18.3714 12.7689H19.5733V18.6381C19.3433 18.6159 19.0627 18.6682 18.8397 18.6381ZM16.3196 13.8701C14.0775 14.1223 14.3616 17.6215 16.7163 17.42C19.0341 17.2217 18.7294 13.599 16.3196 13.8701Z" fill="#1E1E1E"/>
<path d="M25.7804 12.5601C28.1526 12.4498 29.7581 15.0092 28.602 17.0987C27.46 19.1627 24.4748 19.2027 23.284 17.1612C22.1307 15.184 23.5025 12.6662 25.7804 12.5602V12.5601ZM25.7806 13.8402C23.4318 14.0224 23.6918 17.6324 26.1142 17.4206C28.3845 17.222 28.1576 13.6557 25.7806 13.8402Z" fill="#1E1E1E"/>
<path d="M21.9791 10.8945V18.637H21.0894C20.9609 18.637 20.668 18.4414 20.668 18.3092V10.8945H21.9792H21.9791Z" fill="#1E1E1E"/>
</g>
<defs>
<clipPath id="clip0_2210_6845">
<rect width="32" height="32" fill="white"/>
</clipPath>
</defs>
</svg>
