<svg width="32" height="32" viewBox="0 0 32 32" fill="none" xmlns="http://www.w3.org/2000/svg">
<path d="M24.562 7.61395C23.054 6.63095 21.965 5.05695 21.626 3.22295C21.553 2.82695 21.512 2.41895 21.512 2.00195H16.698L16.69 21.294C16.609 23.454 14.831 25.188 12.651 25.188C11.974 25.188 11.336 25.019 10.774 24.723C9.48602 24.045 8.60502 22.695 8.60502 21.141C8.60502 18.91 10.42 17.094 12.651 17.094C13.068 17.094 13.467 17.163 13.845 17.281V12.367C13.454 12.314 13.057 12.28 12.651 12.28C7.76502 12.28 3.79102 16.255 3.79102 21.14C3.79102 24.138 5.28902 26.79 7.57402 28.394C9.01302 29.404 10.764 30 12.652 30C17.538 30 21.512 26.025 21.512 21.14V11.358C23.4 12.713 25.713 13.512 28.209 13.512V8.69795C26.864 8.69795 25.612 8.29895 24.562 7.61395Z" fill="#1E1E1E"/>
</svg>
