<svg width="20" height="22" viewBox="0 0 20 22" fill="none" xmlns="http://www.w3.org/2000/svg">
<g clip-path="url(#clip0_2165_5756)">
<path d="M10 22C15.5228 22 20 17.5228 20 12C20 6.47715 15.5228 2 10 2C4.47715 2 0 6.47715 0 12C0 17.5228 4.47715 22 10 22Z" fill="#F37021"/>
<path fill-rule="evenodd" clip-rule="evenodd" d="M6.87284 16.8822L3.22717 12.9531C2.98531 12.6939 2.85612 12.3494 2.86793 11.9952C2.87974 11.6409 3.03159 11.3058 3.29016 11.0633C3.55032 10.8224 3.89541 10.6946 4.2497 10.7079C4.60398 10.7212 4.93853 10.8745 5.17992 11.1342L7.99882 14.1499L12.4634 9.97668C12.5033 9.94004 12.5453 9.90586 12.5894 9.87432L14.6839 7.91369C14.943 7.67184 15.2875 7.54265 15.6418 7.55445C15.996 7.56626 16.3312 7.71811 16.5736 7.97668C16.8155 8.23583 16.9447 8.58032 16.9329 8.93459C16.921 9.28886 16.7692 9.62398 16.5106 9.86645L10.0933 15.8507L7.86496 17.9216L6.88071 16.8664L6.87284 16.8822Z" fill="white"/>
</g>
<defs>
<clipPath id="clip0_2165_5756">
<rect width="20" height="20" fill="white" transform="translate(0 2)"/>
</clipPath>
</defs>
</svg>
