<svg width="56" height="60" viewBox="0 0 56 60" fill="none" xmlns="http://www.w3.org/2000/svg">
<rect width="56" height="56" transform="translate(0 4)" fill="#F37021"/>
<rect width="52" height="24" transform="translate(2 4)" fill="#F37021"/>
<path d="M17.0078 11.0469V21H15.1348V11.0469H17.0078ZM20.0977 11.0469V12.5303H12.0791V11.0469H20.0977ZM22.9824 10.5V21H21.1709V10.5H22.9824ZM22.6953 17.0352H22.1621C22.1621 16.5202 22.2305 16.0462 22.3672 15.6133C22.5039 15.1803 22.6976 14.8044 22.9482 14.4854C23.1989 14.1618 23.4974 13.9111 23.8438 13.7334C24.1947 13.5557 24.582 13.4668 25.0059 13.4668C25.3704 13.4668 25.7008 13.5192 25.9971 13.624C26.2979 13.7243 26.5553 13.8861 26.7695 14.1094C26.9837 14.3327 27.1478 14.6243 27.2617 14.9844C27.3802 15.3398 27.4395 15.7728 27.4395 16.2832V21H25.6211V16.2695C25.6211 15.9277 25.571 15.6589 25.4707 15.4629C25.3704 15.2624 25.2269 15.1188 25.04 15.0322C24.8577 14.9456 24.6322 14.9023 24.3633 14.9023C24.0716 14.9023 23.821 14.9593 23.6113 15.0732C23.4017 15.1826 23.2285 15.3353 23.0918 15.5312C22.9596 15.7272 22.8594 15.9528 22.791 16.208C22.7272 16.4632 22.6953 16.7389 22.6953 17.0352ZM35.5264 15.1689V16.8438C35.5264 17.6094 35.4489 18.2633 35.2939 18.8057C35.139 19.348 34.9157 19.7923 34.624 20.1387C34.3324 20.4805 33.9837 20.7334 33.5781 20.8975C33.1725 21.057 32.7214 21.1367 32.2246 21.1367C31.8281 21.1367 31.459 21.0866 31.1172 20.9863C30.7754 20.8815 30.4678 20.722 30.1943 20.5078C29.9255 20.2891 29.693 20.0111 29.4971 19.6738C29.3057 19.3366 29.1576 18.9333 29.0527 18.4639C28.9525 17.9945 28.9023 17.4544 28.9023 16.8438V15.1689C28.9023 14.4033 28.9798 13.7516 29.1348 13.2139C29.2943 12.6761 29.5199 12.2363 29.8115 11.8945C30.1032 11.5527 30.4518 11.3044 30.8574 11.1494C31.263 10.9899 31.7142 10.9102 32.2109 10.9102C32.612 10.9102 32.9811 10.9603 33.3184 11.0605C33.6602 11.1608 33.9655 11.318 34.2344 11.5322C34.5078 11.7419 34.7402 12.0153 34.9316 12.3525C35.123 12.6852 35.2689 13.0863 35.3691 13.5557C35.474 14.0205 35.5264 14.5583 35.5264 15.1689ZM33.7217 17.0898V14.916C33.7217 14.5332 33.6989 14.2005 33.6533 13.918C33.6123 13.6309 33.5508 13.387 33.4688 13.1865C33.3867 12.986 33.2842 12.8242 33.1611 12.7012C33.0381 12.5736 32.8968 12.4801 32.7373 12.4209C32.5778 12.3617 32.4023 12.332 32.2109 12.332C31.974 12.332 31.762 12.3799 31.5752 12.4756C31.3883 12.5667 31.2311 12.7126 31.1035 12.9131C30.9759 13.1136 30.8779 13.3802 30.8096 13.7129C30.7458 14.041 30.7139 14.4421 30.7139 14.916V17.0898C30.7139 17.4727 30.7344 17.8076 30.7754 18.0947C30.821 18.3818 30.8848 18.6279 30.9668 18.833C31.0534 19.0381 31.1559 19.2067 31.2744 19.3389C31.3975 19.4665 31.5387 19.5622 31.6982 19.626C31.8577 19.6852 32.0332 19.7148 32.2246 19.7148C32.4661 19.7148 32.6781 19.667 32.8604 19.5713C33.0472 19.4756 33.2044 19.3252 33.332 19.1201C33.4596 18.9105 33.5553 18.6393 33.6191 18.3066C33.6875 17.9694 33.7217 17.5638 33.7217 17.0898ZM41.583 11.0195V21H39.7715V13.1318L37.3721 13.9248V12.4619L41.3779 11.0195H41.583Z" fill="white"/>
<rect width="52" height="30" transform="translate(2 28)" fill="white"/>
<path d="M24.3477 35.752V50H21.5352V38.9941L18.1562 40.0684V37.8516L24.0449 35.752H24.3477ZM38.9375 44.6875V46.8945H28.6934L28.5566 45.1855L34.4844 35.7812H36.7207L34.2988 39.834L31.3496 44.6875H38.9375ZM37.3262 35.7812V50H34.5137V35.7812H37.3262Z" fill="#F37021"/>
<rect x="8" width="4" height="8" fill="#F37021"/>
<rect x="26" width="4" height="8" fill="#F37021"/>
<rect x="44" width="4" height="8" fill="#F37021"/>
</svg>
