<svg width="578" height="187" viewBox="0 0 578 187" fill="none" xmlns="http://www.w3.org/2000/svg">
<path d="M383.777 374.846L380.677 490.608L393.51 523.573L573.643 554.202L555.583 655.305L278.891 597.425L380.677 490.611L144.411 456.383L231.315 272.049L-6.4841 239.703L30.694 82.822L-125.869 16.7447L-57.5755 34.3696L-33.0245 97.8996L101.025 146.53L121.083 320.14L327.693 310.126L217.998 395.24L383.782 374.848L276.324 534.048L393.515 523.576L278.058 696.528L573.648 554.207L458.314 739.529L458.309 739.534L551.843 425.29L363.22 762.529L231.473 770.418L278.056 696.533L363.223 762.529L203.02 696.701L47.4399 627.807M383.777 374.846L144.409 456.383L217.993 395.237L121.08 320.137M383.777 374.846L-6.4841 239.701M383.777 374.846L278.051 696.526L555.58 655.305L393.508 523.573L217.99 395.237L101.02 146.528M121.08 320.137L231.315 272.047L-33.027 97.897L-6.4841 239.701M121.08 320.137L51.9156 324.857L101.023 146.528L-6.4841 239.701M121.08 320.137L-6.4841 239.701M101.02 146.528L-101.55 143.015M101.02 146.528L231.313 272.047L-101.55 143.015M101.02 146.528L-120.988 227.705M-101.55 143.015L-6.48659 239.701L-125.874 16.7422M-101.55 143.015L-125.874 16.7422M-101.55 143.015L-57.5806 34.3671L-125.874 16.7422M-101.55 143.015L-33.0296 97.897M-125.874 16.7422L-33.0296 97.897M-33.0296 97.897L30.6889 82.8195M-120.988 227.705L-101.55 143.018L51.913 324.857L-120.988 227.705ZM-120.988 227.705L30.6889 82.822L-164.585 68.0833M-164.585 68.0833L-57.5806 34.3696L-125.874 16.7447L-164.585 68.0833ZM-164.585 68.0833L-101.552 143.018L6.83841 420.374M6.83841 420.374L217.988 395.237L51.9105 324.857L144.406 456.383L121.075 320.137L6.83841 420.371L51.9105 324.855L-96.7429 309.411L-120.988 227.703L-6.4892 239.701L-96.7429 309.413L231.31 272.047L383.772 374.846L189.527 525.109L276.311 534.045L144.403 456.383M6.83841 420.374L189.527 525.112L144.403 456.383M6.83841 420.374L144.403 456.383M144.403 456.383L173.3 615.358L278.881 597.425L276.308 534.048L173.298 615.358L189.524 525.112L56.8064 525.089L144.401 456.385L-96.748 309.416L6.8358 420.377L56.809 525.089L121.073 320.14L307.933 384.177L380.669 490.614L231.308 272.052L555.575 655.31L383.769 374.851L573.636 554.207L458.301 739.529M458.301 739.529L278.046 696.528L173.3 615.361L2.7346 415.982L458.301 739.529ZM458.301 739.529L363.212 762.524L393.505 523.576L563.291 733.923L458.301 739.527L437.049 630.509L278.884 597.422L203.007 696.691L573.636 554.202M573.636 554.202L551.836 425.283M573.636 554.202L454.755 370.003M551.836 425.283L393.503 523.573L454.755 370.003M551.836 425.283L454.755 370.003M454.755 370.003L378.545 371.323L208.924 167.23L231.308 272.049C231.308 272.049 352.305 250.713 335.648 248.55C318.991 246.385 101.015 146.53 101.015 146.53L69.7697 41.8103L30.6864 82.8246L-37.5052 0.816406L-57.5704 34.3747L69.7825 41.8128L51.9207 324.863L-96.7328 309.418M-96.7328 309.418L-234.835 256.113M-96.7328 309.418L-178.639 315.007M-96.7328 309.418L-79.3066 462.573M-96.7328 309.418L-154.078 380.312M-234.835 256.113L-120.978 227.711M-234.835 256.113L-164.575 68.0884L-178.639 315.007M-234.835 256.113L-178.639 315.007M-234.835 256.113L-269.43 167.408L-120.978 227.711M-120.978 227.711L-178.639 315.007M-120.978 227.711L-224.638 104.925L-101.542 143.023M-178.639 315.007L6.84861 420.379M-178.639 315.007L-154.078 380.312M-79.3066 462.573L203.02 696.699L56.8217 525.091L-79.3066 462.573ZM-79.3066 462.573L6.8511 420.379L-154.078 380.312M-101.542 143.023L-269.433 167.408L-224.641 104.925L-96.7353 309.418L-120.981 227.711L-101.542 143.023ZM-101.542 143.023L-227.639 47.3558L-224.638 104.928L-164.575 68.0909L-227.639 47.3583L-269.433 167.413L-249.243 346.242L-178.642 315.012L-234.838 256.118L-249.243 346.24L-154.08 380.315L56.8217 525.097L47.4399 627.807M47.4399 627.807L173.313 615.366" stroke="#4F4F4F" stroke-width="0.227772" stroke-miterlimit="10"/>
<path d="M68.0675 43.9744C67.8312 42.9764 68.4487 41.9758 69.4467 41.7395C70.4447 41.5032 71.4453 42.1207 71.6815 43.1187C71.9178 44.1167 71.3003 45.1173 70.3023 45.3536C69.3043 45.5899 68.3038 44.9724 68.0675 43.9744Z" fill="#6D6E71"/>
<path d="M207.052 168.119C207.052 168.697 207.521 169.163 208.096 169.163C208.672 169.163 209.141 168.694 209.141 168.119C209.141 167.543 208.672 167.074 208.096 167.074C207.521 167.074 207.052 167.543 207.052 168.119Z" fill="#6D6E71"/>
<path d="M6.90906 183.475C5.55145 183.475 4.45092 182.374 4.45092 181.017C4.45092 179.659 5.55145 178.559 6.90906 178.559C8.26666 178.559 9.36719 179.659 9.36719 181.017C9.36719 182.374 8.26666 183.475 6.90906 183.475Z" fill="#6D6E71"/>
<path d="M28.9212 85.0991C28.0363 85.0991 27.3189 84.3817 27.3189 83.4968C27.3189 82.6119 28.0363 81.8945 28.9212 81.8945C29.8061 81.8945 30.5234 82.6119 30.5234 83.4968C30.5234 84.3817 29.8061 85.0991 28.9212 85.0991Z" fill="#6D6E71"/>
<path d="M39.5668 148.735C38.598 148.386 38.0959 147.317 38.4452 146.348C38.7946 145.38 39.8631 144.877 40.8319 145.227C41.8006 145.576 42.3027 146.645 41.9534 147.613C41.6041 148.582 40.5355 149.084 39.5668 148.735Z" fill="#6D6E71"/>
<path d="M99.7449 146.503C99.7449 147.437 100.504 148.197 101.439 148.197C102.374 148.197 103.133 147.437 103.133 146.503C103.133 145.568 102.374 144.809 101.439 144.809C100.504 144.809 99.7449 145.568 99.7449 146.503Z" fill="#6D6E71"/>
</svg>
