<svg width="1401" height="475" viewBox="0 0 1401 475" fill="none" xmlns="http://www.w3.org/2000/svg">
<g clip-path="url(#clip0_138_5657)">
<path d="M1084.75 405.917L1084.86 405.917L1084.93 405.836L1084.75 405.917Z" fill="#D7D7D7"/>
<path d="M1063.47 426.631L1063.36 426.631L1063.29 426.704L1063.47 426.631Z" fill="#D7D7D7"/>
<path d="M731.161 435.238L731.161 435.128L731.08 435.055L731.161 435.238Z" fill="#D7D7D7"/>
<path d="M883.053 450.157L882.943 450.157L882.869 450.23L883.053 450.157Z" fill="#D7D7D7"/>
<path d="M906.624 427.15L906.727 427.15L906.808 427.077L906.624 427.15Z" fill="#D7D7D7"/>
<path d="M746.3 450.23L746.226 450.157L746.116 450.157L746.3 450.23Z" fill="#D7D7D7"/>
<path d="M743.957 275.301L743.883 275.228L744.06 275.301L743.957 275.301L758.05 289.361L758.05 289.251L758.123 289.435L758.05 289.361L758.05 344.698L758.123 344.617L758.05 344.801L758.05 344.698L730.711 371.965L730.637 372.039L730.637 372.149L730.637 435.235L730.637 435.338L730.711 435.419L745.93 450.596L746.004 450.669L746.114 450.669L883.051 450.669L883.154 450.669L883.235 450.596L906.73 427.148L906.627 427.148L906.811 427.074L906.73 427.148L1063.47 427.148L1063.58 427.148L1063.65 427.074L1084.86 405.918L1084.75 405.918L1084.94 405.837L1084.86 405.918L1180.01 405.918L1180.01 405.396L1084.75 405.396L1084.65 405.396L1084.57 405.47L1063.36 426.633L1063.47 426.633L1063.29 426.707L1063.36 426.633L906.627 426.633L906.517 426.633L906.443 426.707L882.941 450.155L883.051 450.155L882.867 450.228L882.941 450.155L746.225 450.155L746.298 450.228L746.114 450.155L746.225 450.155L731.16 435.125L731.16 435.235L731.079 435.052L731.16 435.125L731.16 372.252L731.079 372.333L731.16 372.149L731.16 372.252L758.492 344.984L758.565 344.911L758.565 344.801L758.565 289.251L758.565 289.141L758.492 289.068L744.244 274.861L744.171 274.78L744.06 274.78L721.824 274.78L721.824 275.301L743.957 275.301Z" fill="#D7D7D7"/>
<path d="M877.002 411.374L1006.5 411.374L1006.6 411.374L1006.67 411.301L1021.35 396.66L1021.17 396.734L1053.11 396.734L1053.21 396.734L1053.29 396.66L1069.69 380.294L1069.77 380.22L1069.77 380.11L1069.77 349.97L1069.77 349.86L1069.69 349.786L1058.9 339.017L1058.98 339.201L1058.98 291.402L1058.98 291.299L1058.9 291.218L1041.42 273.779L1041.05 274.146L1058.54 291.585L1058.46 291.402L1058.46 339.201L1058.46 339.311L1058.54 339.385L1069.32 350.154L1069.25 349.97L1069.25 380.11L1069.32 379.926L1052.93 396.293L1053.11 396.22L1021.17 396.22L1021.06 396.22L1020.99 396.293L1006.31 410.933L1006.5 410.86L877.002 410.86L877.002 411.374Z" fill="#D7D7D7"/>
<path d="M839.022 409.996L810.535 409.996L810.424 409.996L810.351 410.077L806.036 414.382L806.22 414.308L766.504 414.308L766.688 414.382L752.014 399.741L752.095 399.925L752.095 374.949L752.014 375.125L766.261 360.918L766.077 360.992L810.535 360.992L810.645 360.992L810.719 360.918L826.903 344.772L826.719 344.846L910.671 344.846L910.782 344.846L910.856 344.772L923.697 331.961L923.512 332.034L965.923 332.034L966.026 332.034L966.1 331.961L995.397 302.732L995.478 302.651L995.478 302.548L995.478 206.141L995.397 206.325L1016.58 185.198L1016.21 184.831L995.036 205.958L994.955 206.031L994.955 206.141L994.955 302.548L995.036 302.365L965.739 331.594L965.923 331.52L923.512 331.52L923.402 331.52L923.328 331.594L910.487 344.405L910.671 344.324L826.719 344.324L826.616 344.324L826.535 344.405L810.351 360.551L810.535 360.478L766.077 360.478L765.967 360.478L765.893 360.551L751.653 374.765L751.572 374.839L751.572 374.949L751.572 399.925L751.572 400.028L751.653 400.109L766.328 414.749L766.401 414.822L766.504 414.822L806.22 414.822L806.323 414.822L806.404 414.749L810.719 410.437L810.535 410.518L839.022 410.518L839.022 409.996Z" fill="#D7D7D7"/>
<path d="M1088.5 447.287L1088.39 447.287L1088.32 447.36L1088.5 447.287Z" fill="#D7D7D7"/>
<path d="M1174.83 435.035L1174.72 435.035L1174.65 435.108L1174.83 435.035Z" fill="#D7D7D7"/>
<path d="M885.633 466.488L885.522 466.488L885.449 466.562L885.633 466.488Z" fill="#D7D7D7"/>
<path d="M748.55 466.927L748.624 467L748.734 467L885.634 467L885.737 467L885.818 466.927L904.984 447.798L904.881 447.798L905.065 447.725L904.984 447.798L1088.5 447.798L1088.61 447.798L1088.68 447.725L1109.45 427.002L1109.34 427.002L1109.53 426.928L1109.45 427.002L1151.41 427.002L1151.33 426.928L1151.52 427.002L1151.41 427.002L1159.91 435.479L1159.98 435.552L1160.09 435.552L1174.82 435.552L1174.93 435.552L1175.01 435.479L1262.15 348.533L1262.04 348.533L1262.23 348.46L1262.15 348.533L1294.82 348.533L1294.93 348.533L1295 348.46L1304.44 339.05L1304.33 339.05L1304.51 338.969L1304.44 339.05L1393.23 339.05L1393.23 338.528L1304.33 338.528L1304.23 338.528L1304.15 338.602L1294.71 348.019L1294.82 348.019L1294.63 348.093L1294.71 348.019L1262.04 348.019L1261.94 348.019L1261.87 348.093L1174.72 435.038L1174.82 435.038L1174.65 435.112L1174.72 435.038L1160.19 435.038L1160.27 435.112L1160.09 435.038L1160.19 435.038L1151.7 426.561L1151.62 426.488L1151.52 426.488L1109.34 426.488L1109.23 426.488L1109.16 426.561L1088.39 447.284L1088.5 447.284L1088.31 447.357L1088.39 447.284L904.881 447.284L904.77 447.284L904.697 447.357L885.524 466.486L885.634 466.486L885.45 466.559L885.524 466.486L748.837 466.486L748.918 466.559L748.734 466.486L748.837 466.486L721.823 439.534L721.823 440.261L748.55 466.927Z" fill="#D7D7D7"/>
<path d="M748.917 466.562L748.836 466.488L748.733 466.488L748.917 466.562Z" fill="#D7D7D7"/>
<path d="M1160.27 435.108L1160.19 435.035L1160.09 435.035L1160.27 435.108Z" fill="#D7D7D7"/>
<path d="M1109.34 427.005L1109.45 427.005L1109.53 426.931L1109.34 427.005Z" fill="#D7D7D7"/>
<path d="M904.876 447.799L904.979 447.799L905.06 447.725L904.876 447.799Z" fill="#D7D7D7"/>
<path d="M1151.33 426.931L1151.41 427.005L1151.52 427.005L1151.33 426.931Z" fill="#D7D7D7"/>
<path d="M1063.65 404.409L1098.17 369.964L1098 370.038L1201.59 370.038L1201.69 370.038L1201.77 369.964L1239.75 332.067L1239.57 332.141L1269.78 332.141L1269.78 331.626L1239.57 331.626L1239.46 331.626L1239.39 331.7L1201.4 369.597L1201.59 369.516L1098 369.516L1097.89 369.516L1097.81 369.597L1063.28 404.049L1063.65 404.409Z" fill="#D7D7D7"/>
<path d="M845.716 409.827C845.716 412.325 843.691 414.353 841.188 414.353C838.684 414.353 836.652 412.332 836.652 409.827C836.652 407.323 838.677 405.302 841.188 405.302C843.698 405.302 845.716 407.323 845.716 409.827Z" fill="#D7D7D7"/>
<path d="M1183.87 405.949C1183.87 408.446 1181.84 410.474 1179.33 410.474C1176.82 410.474 1174.79 408.454 1174.79 405.949C1174.79 403.444 1176.82 401.424 1179.33 401.424C1181.84 401.424 1183.87 403.444 1183.87 405.949Z" fill="#D7D7D7"/>
<path d="M874.414 405.949C871.91 405.949 869.878 407.976 869.878 410.474C869.878 412.972 871.91 414.999 874.414 414.999C876.917 414.999 878.949 412.979 878.949 410.474C878.949 407.969 876.917 405.949 874.414 405.949ZM874.414 412.839C873.103 412.839 872.043 411.782 872.043 410.467C872.043 409.152 873.103 408.101 874.414 408.101C875.724 408.101 876.785 409.159 876.785 410.467C876.785 411.774 875.724 412.839 874.414 412.839Z" fill="#D7D7D7"/>
<path d="M1061.74 402.509C1059.24 402.509 1057.21 404.529 1057.21 407.034C1057.21 409.538 1059.25 411.559 1061.74 411.559C1064.24 411.559 1066.28 409.531 1066.28 407.034C1066.28 404.536 1064.24 402.509 1061.74 402.509ZM1061.74 409.392C1060.43 409.392 1059.37 408.334 1059.37 407.026C1059.37 405.719 1060.43 404.653 1061.74 404.653C1063.05 404.653 1064.11 405.711 1064.11 407.026C1064.11 408.341 1063.05 409.392 1061.74 409.392Z" fill="#D7D7D7"/>
</g>
<g filter="url(#filter0_d_138_5657)">
<path d="M-487.984 29.5703L913.882 29.5704L913.882 378.912L469.582 378.912L428.136 444.904L-100.6 444.904L-142.026 378.912L-487.984 378.912L-487.984 29.5703Z" fill="white"/>
</g>
<g filter="url(#filter1_d_138_5657)">
<path d="M-468.43 49.1328L894.319 49.1329L894.319 359.357L458.761 359.357L417.316 425.349L-89.7883 425.349L-131.214 359.357L-468.43 359.357L-468.43 49.1328Z" fill="#CBCBCB"/>
</g>
<g filter="url(#filter2_d_138_5657)">
<path d="M953 29.5704L-448.867 29.5703L-448.867 378.912L-4.56653 378.912L36.8788 444.904L565.615 444.904L607.041 378.912L953 378.912L953 29.5704Z" fill="white"/>
</g>
<g filter="url(#filter3_d_138_5657)">
<path d="M933.444 49.1329L-429.305 49.1328L-429.305 359.357L6.25315 359.357L47.6985 425.349L554.803 425.349L596.229 359.357L933.444 359.357L933.444 49.1329Z" fill="#CBCBCB"/>
</g>
<g filter="url(#filter4_d_138_5657)">
<path d="M6.48887 464.452L-34.9565 398.46L-488 398.46L-488 10L952.985 10.0001L952.985 398.46L499.941 398.46L458.496 464.452L6.48887 464.452Z" fill="#FAFAFA"/>
</g>
<defs>
<filter id="filter0_d_138_5657" x="-497.984" y="19.5703" width="1421.87" height="435.334" filterUnits="userSpaceOnUse" color-interpolation-filters="sRGB">
<feFlood flood-opacity="0" result="BackgroundImageFix"/>
<feColorMatrix in="SourceAlpha" type="matrix" values="0 0 0 0 0 0 0 0 0 0 0 0 0 0 0 0 0 0 127 0" result="hardAlpha"/>
<feOffset/>
<feGaussianBlur stdDeviation="5"/>
<feColorMatrix type="matrix" values="0 0 0 0 0 0 0 0 0 0 0 0 0 0 0 0 0 0 0.15 0"/>
<feBlend mode="normal" in2="BackgroundImageFix" result="effect1_dropShadow_138_5657"/>
<feBlend mode="normal" in="SourceGraphic" in2="effect1_dropShadow_138_5657" result="shape"/>
</filter>
<filter id="filter1_d_138_5657" x="-478.43" y="39.1328" width="1382.75" height="396.216" filterUnits="userSpaceOnUse" color-interpolation-filters="sRGB">
<feFlood flood-opacity="0" result="BackgroundImageFix"/>
<feColorMatrix in="SourceAlpha" type="matrix" values="0 0 0 0 0 0 0 0 0 0 0 0 0 0 0 0 0 0 127 0" result="hardAlpha"/>
<feOffset/>
<feGaussianBlur stdDeviation="5"/>
<feColorMatrix type="matrix" values="0 0 0 0 0 0 0 0 0 0 0 0 0 0 0 0 0 0 0.15 0"/>
<feBlend mode="normal" in2="BackgroundImageFix" result="effect1_dropShadow_138_5657"/>
<feBlend mode="normal" in="SourceGraphic" in2="effect1_dropShadow_138_5657" result="shape"/>
</filter>
<filter id="filter2_d_138_5657" x="-458.867" y="19.5703" width="1421.87" height="435.334" filterUnits="userSpaceOnUse" color-interpolation-filters="sRGB">
<feFlood flood-opacity="0" result="BackgroundImageFix"/>
<feColorMatrix in="SourceAlpha" type="matrix" values="0 0 0 0 0 0 0 0 0 0 0 0 0 0 0 0 0 0 127 0" result="hardAlpha"/>
<feOffset/>
<feGaussianBlur stdDeviation="5"/>
<feColorMatrix type="matrix" values="0 0 0 0 0 0 0 0 0 0 0 0 0 0 0 0 0 0 0.15 0"/>
<feBlend mode="normal" in2="BackgroundImageFix" result="effect1_dropShadow_138_5657"/>
<feBlend mode="normal" in="SourceGraphic" in2="effect1_dropShadow_138_5657" result="shape"/>
</filter>
<filter id="filter3_d_138_5657" x="-439.305" y="39.1328" width="1382.75" height="396.216" filterUnits="userSpaceOnUse" color-interpolation-filters="sRGB">
<feFlood flood-opacity="0" result="BackgroundImageFix"/>
<feColorMatrix in="SourceAlpha" type="matrix" values="0 0 0 0 0 0 0 0 0 0 0 0 0 0 0 0 0 0 127 0" result="hardAlpha"/>
<feOffset/>
<feGaussianBlur stdDeviation="5"/>
<feColorMatrix type="matrix" values="0 0 0 0 0 0 0 0 0 0 0 0 0 0 0 0 0 0 0.15 0"/>
<feBlend mode="normal" in2="BackgroundImageFix" result="effect1_dropShadow_138_5657"/>
<feBlend mode="normal" in="SourceGraphic" in2="effect1_dropShadow_138_5657" result="shape"/>
</filter>
<filter id="filter4_d_138_5657" x="-498" y="0" width="1460.98" height="474.452" filterUnits="userSpaceOnUse" color-interpolation-filters="sRGB">
<feFlood flood-opacity="0" result="BackgroundImageFix"/>
<feColorMatrix in="SourceAlpha" type="matrix" values="0 0 0 0 0 0 0 0 0 0 0 0 0 0 0 0 0 0 127 0" result="hardAlpha"/>
<feOffset/>
<feGaussianBlur stdDeviation="5"/>
<feColorMatrix type="matrix" values="0 0 0 0 0 0 0 0 0 0 0 0 0 0 0 0 0 0 0.15 0"/>
<feBlend mode="normal" in2="BackgroundImageFix" result="effect1_dropShadow_138_5657"/>
<feBlend mode="normal" in="SourceGraphic" in2="effect1_dropShadow_138_5657" result="shape"/>
</filter>
<clipPath id="clip0_138_5657">
<rect width="685" height="66.0001" fill="white" transform="translate(1401 467) rotate(180)"/>
</clipPath>
</defs>
</svg>
