<svg width="724" height="764" viewBox="0 0 724 764" fill="none" xmlns="http://www.w3.org/2000/svg">
<path d="M711.734 426.291C734.317 326.485 725.573 222.144 686.696 127.488C647.819 32.8324 580.7 -47.5327 494.486 -102.654C408.272 -157.774 307.158 -184.969 204.926 -180.532C102.694 -176.095 4.31652 -140.241 -76.797 -77.8567L-7.39657 12.38C55.1565 -35.7292 131.023 -63.3791 209.863 -66.8012C288.702 -70.2232 366.679 -49.251 433.166 -6.74287C499.652 35.7652 551.413 97.7412 581.394 170.738C611.376 243.735 618.118 324.201 600.703 401.169L711.734 426.291Z" fill="url(#paint0_linear_40_9084)"/>
<g opacity="0.2">
<path d="M394.727 257.605L407.821 276.554L362.337 294.517L368.828 301.392L384.868 309.412L400.145 324.689L413.511 340.345L403.963 354.094L398.233 370.133L401.669 389.612L413.506 379.302C413.506 379.302 409.688 369.755 416.941 360.969C424.199 352.183 435.275 354.094 435.275 354.094L452.081 351.804L468.12 357.534C468.12 357.534 474.232 367.465 472.704 369.755C471.176 372.045 466.592 396.108 466.592 396.108L465.063 403.366L430.691 445.758L424.199 470.962C424.199 470.962 507.171 416.968 517.863 337.146C521.976 306.44 525.143 283.388 523.655 260.96C522.907 249.657 519.423 234.861 517.418 224.426C514.411 208.779 512.076 198.63 504.497 183.437C498.461 171.332 483.553 164.36 470.16 166.262C455.293 168.374 436.768 169.318 430.695 162.377C420.002 150.156 413.15 161.29 413.609 165.616C414.42 173.257 431.06 190.927 431.06 190.927C434.023 193.934 433.319 198.933 429.639 201.005C423.762 204.315 397.57 220.804 393.907 226.743C388.026 236.277 388.352 248.391 394.723 257.609L394.727 257.605Z" fill="url(#paint1_linear_40_9084)"/>
<path d="M284.618 46.0883C284.618 46.0883 267.434 51.4347 262.088 55.636C256.741 59.8374 278.893 50.6728 284.618 55.636C290.348 60.5993 309.443 56.7811 309.443 56.7811C309.443 56.7811 325.104 65.567 330.45 58.3092C335.797 51.0515 344.583 53.7247 344.583 53.7247C344.583 53.7247 363.678 60.5993 359.86 61.3611C356.042 62.123 348.022 61.3611 348.022 61.3611L348.784 70.9089L356.804 78.9285H379.334L387.354 84.658H409.506V76.6384L402.248 65.1793L430.508 84.658C430.508 84.658 375.511 31.1897 330.45 26.2264L285.385 21.2632L292.642 29.2828L318.229 35.7742L322.431 43.7938L296.077 45.3219L284.618 46.0838V46.0883Z" fill="url(#paint2_linear_40_9084)"/>
<path d="M71.7074 475.159C71.7074 475.159 9.83625 431.621 -14.9844 328.886C-14.9844 328.886 -12.3112 265.491 -5.81977 262.434C0.671644 259.378 0.292942 271.22 0.292942 271.22L15.5703 268.93C15.5703 268.93 12.5139 279.24 15.9534 284.969C19.3885 290.699 28.1744 290.316 28.1744 290.316C28.1744 290.316 47.6531 294.9 51.4713 299.864C55.2895 304.827 61.4022 307.121 58.729 315.903C56.0558 324.689 60.2572 344.163 60.2572 344.163C60.2572 344.163 69.0431 376.624 74.3895 381.209C79.7359 385.794 67.5149 397.631 67.5149 397.631L62.5517 416.727C62.5517 416.727 61.7898 432.383 68.2812 435.061C74.7726 437.734 78.5909 443.846 75.9177 446.136C73.2445 448.427 67.1318 448.427 71.7163 475.163L71.7074 475.159Z" fill="url(#paint3_linear_40_9084)"/>
<path d="M133.824 41.3122C133.824 41.3122 78.5778 71.6084 71.4493 84.5288C64.3207 97.4493 59.4199 113.488 59.4199 120.617C59.4199 127.746 54.519 122.399 63.4297 114.825C72.3403 107.251 77.6867 104.132 79.9144 114.825C82.142 125.518 87.934 137.547 92.8348 133.092C97.7357 128.637 93.2804 132.646 92.8348 125.518C92.3893 118.389 92.8348 111.706 92.8348 111.706L103.528 101.014C103.528 101.014 100.409 97.4493 112.884 105.469C125.359 113.488 132.933 113.488 130.705 109.033C128.477 104.578 110.211 101.014 119.121 96.1127C128.032 91.2118 128.477 85.4199 148.526 87.6476C168.575 89.8752 178.377 98.3403 182.387 97.0037C186.397 95.6671 193.971 88.0931 185.506 84.5288C177.04 80.9646 169.021 79.1824 161.892 74.2816C154.764 69.3807 152.982 65.3709 153.427 62.6977C153.873 60.0245 156.992 56.4603 159.219 55.1237C161.447 53.7871 168.13 46.6585 169.466 45.7675C170.803 44.8764 174.367 39.9756 174.813 38.639C175.258 37.3024 181.941 36.4113 182.387 33.2926C182.832 30.1738 191.298 23.9364 191.298 23.9364V21.2632C191.298 21.2632 145.853 34.1836 133.824 41.3122Z" fill="url(#paint4_linear_40_9084)"/>
<path d="M445.808 477.145C338.141 581.213 169.217 581.213 61.5498 477.145C-42.5088 369.491 -42.5088 200.594 61.5498 92.9401C169.217 -11.1275 338.141 -11.1275 445.808 92.9401C549.867 200.594 549.867 369.491 445.808 477.145Z" stroke="#757575" stroke-width="0.308613" stroke-miterlimit="10"/>
<path d="M462.323 111.064C341.602 18.1928 165.763 18.1928 45.0415 111.064" stroke="#757575" stroke-width="0.308613" stroke-miterlimit="10"/>
<path d="M477.164 130.628C344.261 49.1798 163.094 49.1798 30.1919 130.628" stroke="#757575" stroke-width="0.308613" stroke-miterlimit="10"/>
<path d="M490.232 151.514C345.995 81.7036 161.367 81.7036 17.1299 151.514" stroke="#757575" stroke-width="0.308613" stroke-miterlimit="10"/>
<path d="M501.401 173.617C346.779 115.68 160.582 115.68 5.95996 173.617" stroke="#757575" stroke-width="0.308613" stroke-miterlimit="10"/>
<path d="M510.562 196.816C346.686 151.069 160.676 151.069 -3.19971 196.816" stroke="#757575" stroke-width="0.308613" stroke-miterlimit="10"/>
<path d="M517.602 221.004C345.925 187.852 161.438 187.852 -10.2388 221.004" stroke="#757575" stroke-width="0.308613" stroke-miterlimit="10"/>
<path d="M522.408 246.065C344.948 225.936 162.418 225.936 -15.0425 246.065" stroke="#757575" stroke-width="0.308613" stroke-miterlimit="10"/>
<path d="M524.864 271.884C344.272 265.125 163.087 265.125 -17.501 271.884" stroke="#757575" stroke-width="0.308613" stroke-miterlimit="10"/>
<path d="M524.864 298.201C344.272 304.96 163.087 304.96 -17.501 298.201" stroke="#757575" stroke-width="0.308613" stroke-miterlimit="10"/>
<path d="M522.408 324.02C344.948 344.149 162.418 344.149 -15.0425 324.02" stroke="#757575" stroke-width="0.308613" stroke-miterlimit="10"/>
<path d="M517.602 349.082C345.925 382.234 161.438 382.234 -10.2388 349.082" stroke="#757575" stroke-width="0.308613" stroke-miterlimit="10"/>
<path d="M510.562 373.269C346.686 419.017 160.676 419.017 -3.19971 373.269" stroke="#757575" stroke-width="0.308613" stroke-miterlimit="10"/>
<path d="M501.401 396.473C346.779 454.41 160.582 454.41 5.95996 396.473" stroke="#757575" stroke-width="0.308613" stroke-miterlimit="10"/>
<path d="M490.232 418.571C345.995 488.381 161.367 488.381 17.1299 418.571" stroke="#757575" stroke-width="0.308613" stroke-miterlimit="10"/>
<path d="M477.164 439.462C344.261 520.91 163.094 520.91 30.1919 439.462" stroke="#757575" stroke-width="0.308613" stroke-miterlimit="10"/>
<path d="M462.323 459.025C341.602 551.897 165.763 551.897 45.0415 459.025" stroke="#757575" stroke-width="0.308613" stroke-miterlimit="10"/>
<path d="M74.8044 489.509C-20.994 372.12 -20.994 197.97 74.8044 80.5808" stroke="#757575" stroke-width="0.308613" stroke-miterlimit="10"/>
<path d="M88.8604 500.977C1.44238 374.321 1.44238 195.769 88.8604 69.1128" stroke="#757575" stroke-width="0.308613" stroke-miterlimit="10"/>
<path d="M103.67 511.5C24.7436 376.049 24.7436 194.036 103.67 58.585" stroke="#757575" stroke-width="0.308613" stroke-miterlimit="10"/>
<path d="M119.197 521.039C48.8829 377.292 48.8829 192.788 119.197 49.0461" stroke="#757575" stroke-width="0.308613" stroke-miterlimit="10"/>
<path d="M135.388 529.549C73.8105 378.01 73.8061 192.08 135.388 40.5408" stroke="#757575" stroke-width="0.308613" stroke-miterlimit="10"/>
<path d="M152.197 536.976C99.5221 378.192 99.5221 191.888 152.197 33.1094" stroke="#757575" stroke-width="0.308613" stroke-miterlimit="10"/>
<path d="M169.583 543.285C126 377.943 126 192.147 169.583 26.8052" stroke="#757575" stroke-width="0.308613" stroke-miterlimit="10"/>
<path d="M187.492 548.417C153.231 377.359 153.231 192.726 187.492 21.6682" stroke="#757575" stroke-width="0.308613" stroke-miterlimit="10"/>
<path d="M205.888 552.338C181.183 376.638 181.183 193.452 205.888 17.7476" stroke="#757575" stroke-width="0.308613" stroke-miterlimit="10"/>
<path d="M224.716 554.998C209.786 375.982 209.786 194.107 224.716 15.092" stroke="#757575" stroke-width="0.308613" stroke-miterlimit="10"/>
<path d="M243.937 556.347C238.943 375.586 238.943 194.499 243.937 13.7375" stroke="#757575" stroke-width="0.308613" stroke-miterlimit="10"/>
<path d="M263.425 556.347C268.42 375.586 268.42 194.499 263.425 13.7375" stroke="#757575" stroke-width="0.308613" stroke-miterlimit="10"/>
<path d="M282.646 554.998C297.575 375.982 297.575 194.107 282.646 15.092" stroke="#757575" stroke-width="0.308613" stroke-miterlimit="10"/>
<path d="M301.474 552.338C326.178 376.638 326.178 193.452 301.474 17.7476" stroke="#757575" stroke-width="0.308613" stroke-miterlimit="10"/>
<path d="M319.869 548.417C354.13 377.359 354.13 192.726 319.869 21.6682" stroke="#757575" stroke-width="0.308613" stroke-miterlimit="10"/>
<path d="M337.779 543.285C381.361 377.943 381.361 192.147 337.779 26.8052" stroke="#757575" stroke-width="0.308613" stroke-miterlimit="10"/>
<path d="M355.164 536.976C407.839 378.192 407.839 191.888 355.164 33.1094" stroke="#757575" stroke-width="0.308613" stroke-miterlimit="10"/>
<path d="M371.974 529.549C433.551 378.01 433.555 192.08 371.974 40.5408" stroke="#757575" stroke-width="0.308613" stroke-miterlimit="10"/>
<path d="M388.165 521.039C458.479 377.292 458.479 192.788 388.165 49.0459" stroke="#757575" stroke-width="0.308613" stroke-miterlimit="10"/>
<path d="M403.688 511.5C482.614 376.049 482.614 194.036 403.688 58.585" stroke="#757575" stroke-width="0.308613" stroke-miterlimit="10"/>
<path d="M418.502 500.977C505.92 374.321 505.92 195.769 418.502 69.113" stroke="#757575" stroke-width="0.308613" stroke-miterlimit="10"/>
<path d="M432.558 489.509C528.356 372.12 528.356 197.97 432.558 80.5808" stroke="#757575" stroke-width="0.308613" stroke-miterlimit="10"/>
<path d="M-45.4501 279.828C-46.1674 197.44 -12.8772 126.293 38.6086 74.2677C96.7907 15.4796 178.216 -18.8888 260.074 -17.4497C285.541 -16.9997 311.052 -13.0879 335.917 -5.36239C404.587 15.9653 452.923 49.75 486.877 87.9277C581.624 194.459 564.382 335.23 564.382 335.23C564.382 335.23 434.304 255.234 438.737 254.348C443.17 253.461 520.729 149.313 520.729 149.313L550.423 392.182L475.525 319.057L553.083 229.531L357.637 115.631L470.205 84.6085L494.139 234.851L328.829 92.1424L500.786 132.031L143.131 197.622L358.519 8.37338L276.086 218.446L242.404 -12.0097L368.272 61.1155L211.382 110.752L296.033 3.05817L438.742 53.5816L284.512 107.206L190.558 -0.9338L132.055 241.935L-39.0166 268.083L205.18 113.412L27.0158 101.004L192.767 238.393L136.924 16.7984L334.585 278.282L260.127 23.8868L-23.9531 197.618L280.961 286.698L3.08182 143.102L81.5268 275.617L65.1267 65.9897L207.835 221.106L212.709 -0.929343L334.585 227.313L511.417 136.901L459.12 338.994L334.585 187.424L553.079 269.415L433.859 352.293L553.079 361.155L294.701 293.791L412.148 252.129L424.556 352.289L-45.4501 279.828Z" stroke="#757575" stroke-width="0.15" stroke-miterlimit="10"/>
<path opacity="0.5" d="M424.551 353.839C425.408 353.839 426.102 353.145 426.102 352.289C426.102 351.432 425.408 350.738 424.551 350.738C423.695 350.738 423.001 351.432 423.001 352.289C423.001 353.145 423.695 353.839 424.551 353.839Z" fill="#757575"/>
<path opacity="0.5" d="M412.144 253.68C411.288 253.68 410.593 252.984 410.593 252.129C410.593 251.274 411.288 250.579 412.144 250.579C412.999 250.579 413.694 251.274 413.694 252.129C413.694 252.984 412.999 253.68 412.144 253.68Z" fill="#757575"/>
<path opacity="0.5" d="M294.697 295.341C295.553 295.341 296.247 294.647 296.247 293.791C296.247 292.934 295.553 292.24 294.697 292.24C293.841 292.24 293.146 292.934 293.146 293.791C293.146 294.647 293.841 295.341 294.697 295.341Z" fill="#757575"/>
<path opacity="0.5" d="M553.08 362.705C553.936 362.705 554.63 362.011 554.63 361.155C554.63 360.299 553.936 359.604 553.08 359.604C552.223 359.604 551.529 360.299 551.529 361.155C551.529 362.011 552.223 362.705 553.08 362.705Z" fill="#757575"/>
<path opacity="0.5" d="M433.859 353.839C434.715 353.839 435.409 353.145 435.409 352.289C435.409 351.432 434.715 350.738 433.859 350.738C433.003 350.738 432.309 351.432 432.309 352.289C432.309 353.145 433.003 353.839 433.859 353.839Z" fill="#757575"/>
<path opacity="0.5" d="M553.08 270.966C553.936 270.966 554.63 270.272 554.63 269.415C554.63 268.559 553.936 267.865 553.08 267.865C552.223 267.865 551.529 268.559 551.529 269.415C551.529 270.272 552.223 270.966 553.08 270.966Z" fill="#757575"/>
<path opacity="0.5" d="M334.586 188.974C335.442 188.974 336.137 188.28 336.137 187.424C336.137 186.568 335.442 185.874 334.586 185.874C333.73 185.874 333.036 186.568 333.036 187.424C333.036 188.28 333.73 188.974 334.586 188.974Z" fill="#757575"/>
<path opacity="0.5" d="M459.121 340.545C458.265 340.545 457.57 339.85 457.57 338.994C457.57 338.139 458.265 337.444 459.121 337.444C459.976 337.444 460.671 338.139 460.671 338.994C460.671 339.85 459.976 340.545 459.121 340.545Z" fill="#757575"/>
<path opacity="0.5" d="M511.418 138.451C512.274 138.451 512.968 137.757 512.968 136.901C512.968 136.045 512.274 135.35 511.418 135.35C510.561 135.35 509.867 136.045 509.867 136.901C509.867 137.757 510.561 138.451 511.418 138.451Z" fill="#757575"/>
<path opacity="0.5" d="M334.586 228.863C335.442 228.863 336.137 228.169 336.137 227.313C336.137 226.457 335.442 225.762 334.586 225.762C333.73 225.762 333.036 226.457 333.036 227.313C333.036 228.169 333.73 228.863 334.586 228.863Z" fill="#757575"/>
<path opacity="0.5" d="M212.71 0.616776C213.566 0.616776 214.26 -0.0773852 214.26 -0.933677C214.26 -1.78997 213.566 -2.48413 212.71 -2.48413C211.853 -2.48413 211.159 -1.78997 211.159 -0.933677C211.159 -0.0773852 211.853 0.616776 212.71 0.616776Z" fill="#757575"/>
<path opacity="0.5" d="M207.836 222.657C206.981 222.657 206.286 221.962 206.286 221.106C206.286 220.251 206.981 219.556 207.836 219.556C208.692 219.556 209.387 220.251 209.387 221.106C209.387 221.962 208.692 222.657 207.836 222.657Z" fill="#757575"/>
<path opacity="0.5" d="M65.1276 67.5401C65.9839 67.5401 66.6781 66.846 66.6781 65.9897C66.6781 65.1334 65.9839 64.4392 65.1276 64.4392C64.2713 64.4392 63.5771 65.1334 63.5771 65.9897C63.5771 66.846 64.2713 67.5401 65.1276 67.5401Z" fill="#757575"/>
<path opacity="0.5" d="M81.5226 277.168C82.3789 277.168 83.0731 276.474 83.0731 275.617C83.0731 274.761 82.3789 274.067 81.5226 274.067C80.6663 274.067 79.9722 274.761 79.9722 275.617C79.9722 276.474 80.6663 277.168 81.5226 277.168Z" fill="#757575"/>
<path opacity="0.5" d="M3.08219 144.658C2.22677 144.658 1.53174 143.963 1.53174 143.107C1.53174 142.252 2.22677 141.557 3.08219 141.557C3.93762 141.557 4.63265 142.252 4.63265 143.107C4.63265 143.963 3.93762 144.658 3.08219 144.658Z" fill="#757575"/>
<path opacity="0.5" d="M280.961 288.248C281.817 288.248 282.511 287.554 282.511 286.698C282.511 285.842 281.817 285.147 280.961 285.147C280.104 285.147 279.41 285.842 279.41 286.698C279.41 287.554 280.104 288.248 280.961 288.248Z" fill="#757575"/>
<path opacity="0.5" d="M260.128 25.4373C260.984 25.4373 261.678 24.7432 261.678 23.8869C261.678 23.0306 260.984 22.3364 260.128 22.3364C259.271 22.3364 258.577 23.0306 258.577 23.8869C258.577 24.7432 259.271 25.4373 260.128 25.4373Z" fill="#757575"/>
<path opacity="0.5" d="M334.586 279.827C335.442 279.827 336.137 279.133 336.137 278.277C336.137 277.421 335.442 276.727 334.586 276.727C333.73 276.727 333.036 277.421 333.036 278.277C333.036 279.133 333.73 279.827 334.586 279.827Z" fill="#757575"/>
<path opacity="0.5" d="M136.924 18.3446C137.781 18.3446 138.475 17.6504 138.475 16.7941C138.475 15.9378 137.781 15.2437 136.924 15.2437C136.068 15.2437 135.374 15.9378 135.374 16.7941C135.374 17.6504 136.068 18.3446 136.924 18.3446Z" fill="#757575"/>
<path opacity="0.5" d="M194.303 238.653C194.441 237.808 193.867 237.012 193.021 236.875C192.176 236.737 191.38 237.311 191.243 238.157C191.105 239.002 191.679 239.798 192.525 239.935C193.37 240.073 194.166 239.499 194.303 238.653Z" fill="#757575"/>
<path opacity="0.5" d="M27.0119 102.55C27.8682 102.55 28.5623 101.856 28.5623 101C28.5623 100.143 27.8682 99.4492 27.0119 99.4492C26.1556 99.4492 25.4614 100.143 25.4614 101C25.4614 101.856 26.1556 102.55 27.0119 102.55Z" fill="#757575"/>
<path opacity="0.5" d="M205.175 114.963C204.32 114.963 203.625 114.268 203.625 113.412C203.625 112.557 204.32 111.862 205.175 111.862C206.031 111.862 206.726 112.557 206.726 113.412C206.726 114.268 206.031 114.963 205.175 114.963Z" fill="#757575"/>
<path opacity="0.5" d="M132.046 243.485C131.191 243.485 130.496 242.79 130.496 241.935C130.496 241.08 131.191 240.385 132.046 240.385C132.901 240.385 133.597 241.08 133.597 241.935C133.597 242.79 132.901 243.485 132.046 243.485Z" fill="#757575"/>
<path opacity="0.5" d="M191.143 0.500539C191.934 0.17285 192.31 -0.734112 191.982 -1.52522C191.654 -2.31633 190.747 -2.69201 189.956 -2.36433C189.165 -2.03664 188.79 -1.12967 189.117 -0.338564C189.445 0.452547 190.352 0.828228 191.143 0.500539Z" fill="#757575"/>
<path opacity="0.5" d="M284.507 108.756C285.364 108.756 286.058 108.062 286.058 107.206C286.058 106.35 285.364 105.656 284.507 105.656C283.651 105.656 282.957 106.35 282.957 107.206C282.957 108.062 283.651 108.756 284.507 108.756Z" fill="#757575"/>
<path opacity="0.5" d="M438.733 55.1322C439.589 55.1322 440.284 54.438 440.284 53.5817C440.284 52.7254 439.589 52.0312 438.733 52.0312C437.877 52.0312 437.183 52.7254 437.183 53.5817C437.183 54.438 437.877 55.1322 438.733 55.1322Z" fill="#757575"/>
<path opacity="0.5" d="M296.029 4.60872C295.174 4.60872 294.479 3.91369 294.479 3.05827C294.479 2.20284 295.174 1.50781 296.029 1.50781C296.884 1.50781 297.579 2.20284 297.579 3.05827C297.579 3.91369 296.884 4.60872 296.029 4.60872Z" fill="#757575"/>
<path opacity="0.5" d="M211.377 112.303C212.233 112.303 212.928 111.609 212.928 110.752C212.928 109.896 212.233 109.202 211.377 109.202C210.521 109.202 209.827 109.896 209.827 110.752C209.827 111.609 210.521 112.303 211.377 112.303Z" fill="#757575"/>
<path opacity="0.5" d="M368.267 62.6659C369.124 62.6659 369.818 61.9717 369.818 61.1154C369.818 60.2591 369.124 59.5649 368.267 59.5649C367.411 59.5649 366.717 60.2591 366.717 61.1154C366.717 61.9717 367.411 62.6659 368.267 62.6659Z" fill="#757575"/>
<path opacity="0.5" d="M276.087 219.997C275.232 219.997 274.537 219.302 274.537 218.446C274.537 217.591 275.232 216.896 276.087 216.896C276.942 216.896 277.638 217.591 277.638 218.446C277.638 219.302 276.942 219.997 276.087 219.997Z" fill="#757575"/>
<path opacity="0.5" d="M358.519 9.92391C359.375 9.92391 360.07 9.22974 360.07 8.37345C360.07 7.51716 359.375 6.823 358.519 6.823C357.663 6.823 356.969 7.51716 356.969 8.37345C356.969 9.22974 357.663 9.92391 358.519 9.92391Z" fill="#757575"/>
<path opacity="0.5" d="M143.126 199.169C143.982 199.169 144.677 198.474 144.677 197.618C144.677 196.762 143.982 196.068 143.126 196.068C142.27 196.068 141.576 196.762 141.576 197.618C141.576 198.474 142.27 199.169 143.126 199.169Z" fill="#757575"/>
<path opacity="0.5" d="M500.782 133.577C501.639 133.577 502.333 132.883 502.333 132.027C502.333 131.17 501.639 130.476 500.782 130.476C499.926 130.476 499.232 131.17 499.232 132.027C499.232 132.883 499.926 133.577 500.782 133.577Z" fill="#757575"/>
<path opacity="0.5" d="M328.824 93.6886C329.681 93.6886 330.375 92.9944 330.375 92.1381C330.375 91.2818 329.681 90.5876 328.824 90.5876C327.968 90.5876 327.274 91.2818 327.274 92.1381C327.274 92.9944 327.968 93.6886 328.824 93.6886Z" fill="#757575"/>
<path opacity="0.5" d="M494.135 236.397C494.991 236.397 495.685 235.703 495.685 234.847C495.685 233.991 494.991 233.296 494.135 233.296C493.279 233.296 492.584 233.991 492.584 234.847C492.584 235.703 493.279 236.397 494.135 236.397Z" fill="#757575"/>
<path opacity="0.5" d="M470.202 86.1546C469.346 86.1546 468.651 85.4596 468.651 84.6042C468.651 83.7487 469.346 83.0537 470.202 83.0537C471.057 83.0537 471.752 83.7487 471.752 84.6042C471.752 85.4596 471.057 86.1546 470.202 86.1546Z" fill="#757575"/>
<path opacity="0.5" d="M357.633 117.177C358.489 117.177 359.183 116.483 359.183 115.627C359.183 114.77 358.489 114.076 357.633 114.076C356.777 114.076 356.083 114.77 356.083 115.627C356.083 116.483 356.777 117.177 357.633 117.177Z" fill="#757575"/>
<path opacity="0.5" d="M553.08 231.077C553.936 231.077 554.63 230.383 554.63 229.527C554.63 228.671 553.936 227.977 553.08 227.977C552.223 227.977 551.529 228.671 551.529 229.527C551.529 230.383 552.223 231.077 553.08 231.077Z" fill="#757575"/>
<path opacity="0.5" d="M475.521 320.603C474.666 320.603 473.971 319.908 473.971 319.052C473.971 318.197 474.666 317.502 475.521 317.502C476.377 317.502 477.072 318.197 477.072 319.052C477.072 319.908 476.377 320.603 475.521 320.603Z" fill="#757575"/>
<path opacity="0.5" d="M550.419 393.728C549.564 393.728 548.869 393.033 548.869 392.178C548.869 391.322 549.564 390.627 550.419 390.627C551.275 390.627 551.97 391.322 551.97 392.178C551.97 393.033 551.275 393.728 550.419 393.728Z" fill="#757575"/>
<path opacity="0.5" d="M520.724 150.859C521.581 150.859 522.275 150.165 522.275 149.309C522.275 148.453 521.581 147.759 520.724 147.759C519.868 147.759 519.174 148.453 519.174 149.309C519.174 150.165 519.868 150.859 520.724 150.859Z" fill="#757575"/>
<path opacity="0.5" d="M438.733 255.894C439.589 255.894 440.284 255.199 440.284 254.343C440.284 253.487 439.589 252.793 438.733 252.793C437.877 252.793 437.183 253.487 437.183 254.343C437.183 255.199 437.877 255.894 438.733 255.894Z" fill="#757575"/>
<path opacity="0.5" d="M564.378 336.78C563.522 336.78 562.827 336.085 562.827 335.23C562.827 334.374 563.522 333.679 564.378 333.679C565.233 333.679 565.928 334.374 565.928 335.23C565.928 336.085 565.233 336.78 564.378 336.78Z" fill="#757575"/>
<path opacity="0.5" d="M486.877 89.4737C487.733 89.4737 488.428 88.7796 488.428 87.9233C488.428 87.067 487.733 86.3728 486.877 86.3728C486.021 86.3728 485.327 87.067 485.327 87.9233C485.327 88.7796 486.021 89.4737 486.877 89.4737Z" fill="#757575"/>
<path opacity="0.5" d="M38.6086 75.8182C37.7531 75.8182 37.0581 75.1232 37.0581 74.2677C37.0581 73.4123 37.7531 72.7173 38.6086 72.7173C39.464 72.7173 40.159 73.4123 40.159 74.2677C40.159 75.1232 39.464 75.8182 38.6086 75.8182Z" fill="#757575"/>
<path d="M566.16 297.172C566.877 379.56 533.587 450.707 482.101 502.732C423.919 561.524 342.494 595.888 260.636 594.449C235.169 593.999 209.658 590.087 184.793 582.362C116.123 561.034 67.7872 527.249 33.8332 489.072C-60.9093 382.54 -43.6672 241.774 -43.6672 241.774C-43.6672 241.774 86.4105 321.77 81.9774 322.656C77.5444 323.543 -0.0139313 427.691 -0.0139313 427.691L-29.7042 184.822L45.1943 257.947L-32.3641 347.472L163.082 461.373L50.5139 492.395L26.5799 342.153L191.89 484.861L19.9326 444.973L377.588 379.381L162.2 568.622L244.633 358.548L278.315 589.005L152.447 515.879L309.337 466.243L224.686 573.937L81.9774 523.413L236.207 469.789L330.161 577.929L388.664 335.06L559.735 308.912L315.539 463.583L493.703 475.991L327.952 338.602L383.795 560.196L186.134 298.713L260.592 553.104L544.676 379.373L239.763 290.293L517.642 433.888L439.197 301.373L455.597 511.001L312.888 355.884L308.014 577.92L186.139 349.678L9.30661 440.09L61.6032 237.996L186.139 389.566L-32.3641 307.584L86.856 224.706L-32.3641 215.844L226.014 283.209L108.567 324.871L96.1588 224.71L566.16 297.172Z" stroke="#757575" stroke-width="0.15" stroke-miterlimit="10"/>
<path opacity="0.5" d="M96.1593 226.261C97.0156 226.261 97.7098 225.567 97.7098 224.711C97.7098 223.854 97.0156 223.16 96.1593 223.16C95.3031 223.16 94.6089 223.854 94.6089 224.711C94.6089 225.567 95.3031 226.261 96.1593 226.261Z" fill="#757575"/>
<path opacity="0.5" d="M108.567 323.32C109.422 323.32 110.118 324.015 110.118 324.871C110.118 325.726 109.422 326.421 108.567 326.421C107.712 326.421 107.017 325.726 107.017 324.871C107.017 324.015 107.712 323.32 108.567 323.32Z" fill="#757575"/>
<path opacity="0.5" d="M226.014 284.759C226.871 284.759 227.565 284.065 227.565 283.208C227.565 282.352 226.871 281.658 226.014 281.658C225.158 281.658 224.464 282.352 224.464 283.208C224.464 284.065 225.158 284.759 226.014 284.759Z" fill="#757575"/>
<path opacity="0.5" d="M86.8517 226.261C87.708 226.261 88.4022 225.567 88.4022 224.711C88.4022 223.854 87.708 223.16 86.8517 223.16C85.9954 223.16 85.3013 223.854 85.3013 224.711C85.3013 225.567 85.9954 226.261 86.8517 226.261Z" fill="#757575"/>
<path opacity="0.5" d="M186.125 391.125C186.981 391.125 187.675 390.431 187.675 389.575C187.675 388.719 186.981 388.024 186.125 388.024C185.268 388.024 184.574 388.719 184.574 389.575C184.574 390.431 185.268 391.125 186.125 391.125Z" fill="#757575"/>
<path opacity="0.5" d="M61.5905 236.455C62.4459 236.455 63.1409 237.15 63.1409 238.005C63.1409 238.861 62.4459 239.556 61.5905 239.556C60.7351 239.556 60.04 238.861 60.04 238.005C60.04 237.15 60.7351 236.455 61.5905 236.455Z" fill="#757575"/>
<path opacity="0.5" d="M9.29313 441.649C10.1494 441.649 10.8436 440.955 10.8436 440.099C10.8436 439.242 10.1494 438.548 9.29313 438.548C8.43684 438.548 7.74268 439.242 7.74268 440.099C7.74268 440.955 8.43684 441.649 9.29313 441.649Z" fill="#757575"/>
<path opacity="0.5" d="M186.125 351.237C186.981 351.237 187.675 350.543 187.675 349.687C187.675 348.83 186.981 348.136 186.125 348.136C185.268 348.136 184.574 348.83 184.574 349.687C184.574 350.543 185.268 351.237 186.125 351.237Z" fill="#757575"/>
<path opacity="0.5" d="M308.006 579.484C308.862 579.484 309.556 578.79 309.556 577.933C309.556 577.077 308.862 576.383 308.006 576.383C307.149 576.383 306.455 577.077 306.455 577.933C306.455 578.79 307.149 579.484 308.006 579.484Z" fill="#757575"/>
<path opacity="0.5" d="M312.879 354.343C313.734 354.343 314.43 355.038 314.43 355.893C314.43 356.748 313.734 357.443 312.879 357.443C312.024 357.443 311.329 356.748 311.329 355.893C311.329 355.038 312.024 354.343 312.879 354.343Z" fill="#757575"/>
<path opacity="0.5" d="M455.588 512.56C456.444 512.56 457.138 511.866 457.138 511.01C457.138 510.153 456.444 509.459 455.588 509.459C454.731 509.459 454.037 510.153 454.037 511.01C454.037 511.866 454.731 512.56 455.588 512.56Z" fill="#757575"/>
<path opacity="0.5" d="M439.187 302.932C440.043 302.932 440.737 302.238 440.737 301.382C440.737 300.526 440.043 299.832 439.187 299.832C438.33 299.832 437.636 300.526 437.636 301.382C437.636 302.238 438.33 302.932 439.187 302.932Z" fill="#757575"/>
<path opacity="0.5" d="M517.632 432.342C518.488 432.342 519.183 433.037 519.183 433.893C519.183 434.748 518.488 435.443 517.632 435.443C516.777 435.443 516.082 434.748 516.082 433.893C516.082 433.037 516.777 432.342 517.632 432.342Z" fill="#757575"/>
<path opacity="0.5" d="M239.754 291.852C240.61 291.852 241.305 291.158 241.305 290.301C241.305 289.445 240.61 288.751 239.754 288.751C238.898 288.751 238.204 289.445 238.204 290.301C238.204 291.158 238.898 291.852 239.754 291.852Z" fill="#757575"/>
<path opacity="0.5" d="M544.667 380.932C545.523 380.932 546.218 380.238 546.218 379.381C546.218 378.525 545.523 377.831 544.667 377.831C543.811 377.831 543.117 378.525 543.117 379.381C543.117 380.238 543.811 380.932 544.667 380.932Z" fill="#757575"/>
<path opacity="0.5" d="M260.582 554.663C261.438 554.663 262.132 553.969 262.132 553.113C262.132 552.256 261.438 551.562 260.582 551.562C259.725 551.562 259.031 552.256 259.031 553.113C259.031 553.969 259.725 554.663 260.582 554.663Z" fill="#757575"/>
<path opacity="0.5" d="M186.125 300.273C186.981 300.273 187.675 299.579 187.675 298.722C187.675 297.866 186.981 297.172 186.125 297.172C185.268 297.172 184.574 297.866 184.574 298.722C184.574 299.579 185.268 300.273 186.125 300.273Z" fill="#757575"/>
<path opacity="0.5" d="M383.791 561.756C384.647 561.756 385.341 561.062 385.341 560.205C385.341 559.349 384.647 558.655 383.791 558.655C382.934 558.655 382.24 559.349 382.24 560.205C382.24 561.062 382.934 561.756 383.791 561.756Z" fill="#757575"/>
<path opacity="0.5" d="M329.492 338.877C329.629 338.032 329.055 337.235 328.21 337.098C327.365 336.961 326.568 337.535 326.431 338.38C326.294 339.225 326.868 340.022 327.713 340.159C328.558 340.296 329.355 339.722 329.492 338.877Z" fill="#757575"/>
<path opacity="0.5" d="M493.699 477.55C494.556 477.55 495.25 476.856 495.25 475.999C495.25 475.143 494.556 474.449 493.699 474.449C492.843 474.449 492.149 475.143 492.149 475.999C492.149 476.856 492.843 477.55 493.699 477.55Z" fill="#757575"/>
<path opacity="0.5" d="M315.539 462.037C316.395 462.037 317.09 462.732 317.09 463.587C317.09 464.443 316.395 465.138 315.539 465.138C314.684 465.138 313.989 464.443 313.989 463.587C313.989 462.732 314.684 462.037 315.539 462.037Z" fill="#757575"/>
<path opacity="0.5" d="M559.736 310.467C560.592 310.467 561.286 309.772 561.286 308.916C561.286 308.06 560.592 307.366 559.736 307.366C558.879 307.366 558.185 308.06 558.185 308.916C558.185 309.772 558.879 310.467 559.736 310.467Z" fill="#757575"/>
<path opacity="0.5" d="M388.664 333.514C389.52 333.514 390.215 334.209 390.215 335.064C390.215 335.92 389.52 336.615 388.664 336.615C387.809 336.615 387.114 335.92 387.114 335.064C387.114 334.209 387.809 333.514 388.664 333.514Z" fill="#757575"/>
<path opacity="0.5" d="M330.754 579.368C331.545 579.04 331.921 578.133 331.593 577.342C331.266 576.551 330.359 576.175 329.568 576.503C328.777 576.831 328.401 577.738 328.729 578.529C329.056 579.32 329.963 579.695 330.754 579.368Z" fill="#757575"/>
<path opacity="0.5" d="M236.207 471.344C237.063 471.344 237.758 470.65 237.758 469.794C237.758 468.937 237.063 468.243 236.207 468.243C235.351 468.243 234.657 468.937 234.657 469.794C234.657 470.65 235.351 471.344 236.207 471.344Z" fill="#757575"/>
<path opacity="0.5" d="M81.9777 524.968C82.834 524.968 83.5282 524.274 83.5282 523.418C83.5282 522.561 82.834 521.867 81.9777 521.867C81.1214 521.867 80.4272 522.561 80.4272 523.418C80.4272 524.274 81.1214 524.968 81.9777 524.968Z" fill="#757575"/>
<path opacity="0.5" d="M224.686 572.391C225.542 572.391 226.237 573.086 226.237 573.941C226.237 574.796 225.542 575.492 224.686 575.492C223.831 575.492 223.136 574.796 223.136 573.941C223.136 573.086 223.831 572.391 224.686 572.391Z" fill="#757575"/>
<path opacity="0.5" d="M309.332 467.797C310.188 467.797 310.883 467.103 310.883 466.247C310.883 465.391 310.188 464.697 309.332 464.697C308.476 464.697 307.782 465.391 307.782 466.247C307.782 467.103 308.476 467.797 309.332 467.797Z" fill="#757575"/>
<path opacity="0.5" d="M152.443 517.434C153.299 517.434 153.993 516.74 153.993 515.884C153.993 515.027 153.299 514.333 152.443 514.333C151.586 514.333 150.892 515.027 150.892 515.884C150.892 516.74 151.586 517.434 152.443 517.434Z" fill="#757575"/>
<path opacity="0.5" d="M278.31 590.56C279.167 590.56 279.861 589.866 279.861 589.009C279.861 588.153 279.167 587.459 278.31 587.459C277.454 587.459 276.76 588.153 276.76 589.009C276.76 589.866 277.454 590.56 278.31 590.56Z" fill="#757575"/>
<path opacity="0.5" d="M244.628 357.002C245.484 357.002 246.179 357.697 246.179 358.553C246.179 359.408 245.484 360.103 244.628 360.103C243.773 360.103 243.078 359.408 243.078 358.553C243.078 357.697 243.773 357.002 244.628 357.002Z" fill="#757575"/>
<path opacity="0.5" d="M162.195 570.177C163.052 570.177 163.746 569.483 163.746 568.626C163.746 567.77 163.052 567.076 162.195 567.076C161.339 567.076 160.645 567.77 160.645 568.626C160.645 569.483 161.339 570.177 162.195 570.177Z" fill="#757575"/>
<path opacity="0.5" d="M377.583 380.932C378.439 380.932 379.134 380.238 379.134 379.381C379.134 378.525 378.439 377.831 377.583 377.831C376.727 377.831 376.033 378.525 376.033 379.381C376.033 380.238 376.727 380.932 377.583 380.932Z" fill="#757575"/>
<path opacity="0.5" d="M19.9323 446.523C20.7886 446.523 21.4827 445.829 21.4827 444.973C21.4827 444.117 20.7886 443.422 19.9323 443.422C19.076 443.422 18.3818 444.117 18.3818 444.973C18.3818 445.829 19.076 446.523 19.9323 446.523Z" fill="#757575"/>
<path opacity="0.5" d="M191.891 486.412C192.747 486.412 193.441 485.718 193.441 484.862C193.441 484.005 192.747 483.311 191.891 483.311C191.034 483.311 190.34 484.005 190.34 484.862C190.34 485.718 191.034 486.412 191.891 486.412Z" fill="#757575"/>
<path opacity="0.5" d="M26.5802 343.703C27.4365 343.703 28.1307 343.009 28.1307 342.153C28.1307 341.296 27.4365 340.602 26.5802 340.602C25.7239 340.602 25.0298 341.296 25.0298 342.153C25.0298 343.009 25.7239 343.703 26.5802 343.703Z" fill="#757575"/>
<path opacity="0.5" d="M50.5094 490.845C51.3649 490.845 52.0599 491.54 52.0599 492.395C52.0599 493.251 51.3649 493.946 50.5094 493.946C49.654 493.946 48.959 493.251 48.959 492.395C48.959 491.54 49.654 490.845 50.5094 490.845Z" fill="#757575"/>
<path opacity="0.5" d="M163.082 462.923C163.938 462.923 164.633 462.229 164.633 461.373C164.633 460.516 163.938 459.822 163.082 459.822C162.226 459.822 161.532 460.516 161.532 461.373C161.532 462.229 162.226 462.923 163.082 462.923Z" fill="#757575"/>
<path opacity="0.5" d="M45.194 256.397C46.0494 256.397 46.7445 257.092 46.7445 257.947C46.7445 258.803 46.0494 259.498 45.194 259.498C44.3386 259.498 43.6436 258.803 43.6436 257.947C43.6436 257.092 44.3386 256.397 45.194 256.397Z" fill="#757575"/>
<path opacity="0.5" d="M-0.013513 429.241C0.842779 429.241 1.53694 428.547 1.53694 427.69C1.53694 426.834 0.842779 426.14 -0.013513 426.14C-0.869805 426.14 -1.56396 426.834 -1.56396 427.69C-1.56396 428.547 -0.869805 429.241 -0.013513 429.241Z" fill="#757575"/>
<path opacity="0.5" d="M81.9777 324.207C82.834 324.207 83.5282 323.512 83.5282 322.656C83.5282 321.8 82.834 321.106 81.9777 321.106C81.1214 321.106 80.4272 321.8 80.4272 322.656C80.4272 323.512 81.1214 324.207 81.9777 324.207Z" fill="#757575"/>
<path opacity="0.5" d="M33.838 490.627C34.6943 490.627 35.3885 489.933 35.3885 489.076C35.3885 488.22 34.6943 487.526 33.838 487.526C32.9818 487.526 32.2876 488.22 32.2876 489.076C32.2876 489.933 32.9818 490.627 33.838 490.627Z" fill="#757575"/>
<path opacity="0.5" d="M184.798 580.811C185.653 580.811 186.348 581.506 186.348 582.362C186.348 583.217 185.653 583.912 184.798 583.912C183.943 583.912 183.248 583.217 183.248 582.362C183.248 581.506 183.943 580.811 184.798 580.811Z" fill="#757575"/>
<path opacity="0.5" d="M260.641 592.898C261.496 592.898 262.191 593.593 262.191 594.449C262.191 595.304 261.496 595.999 260.641 595.999C259.785 595.999 259.09 595.304 259.09 594.449C259.09 593.593 259.785 592.898 260.641 592.898Z" fill="#757575"/>
<path opacity="0.5" d="M482.106 501.181C482.962 501.181 483.657 501.876 483.657 502.732C483.657 503.587 482.962 504.282 482.106 504.282C481.251 504.282 480.556 503.587 480.556 502.732C480.556 501.876 481.251 501.181 482.106 501.181Z" fill="#757575"/>
<path opacity="0.5" d="M566.16 298.722C567.016 298.722 567.71 298.028 567.71 297.172C567.71 296.316 567.016 295.621 566.16 295.621C565.304 295.621 564.609 296.316 564.609 297.172C564.609 298.028 565.304 298.722 566.16 298.722Z" fill="#757575"/>
</g>
<defs>
<linearGradient id="paint0_linear_40_9084" x1="226.5" y1="-181" x2="712.269" y2="317.033" gradientUnits="userSpaceOnUse">
<stop stop-color="white" stop-opacity="0"/>
<stop offset="0.778846" stop-color="#F3F3F3"/>
<stop offset="0.975962" stop-color="white" stop-opacity="0"/>
</linearGradient>
<linearGradient id="paint1_linear_40_9084" x1="510.022" y1="349.394" x2="335.872" y2="253.417" gradientUnits="userSpaceOnUse">
<stop stop-color="#757575"/>
<stop offset="0.22" stop-color="#757575" stop-opacity="0.76"/>
<stop offset="0.6" stop-color="#757575" stop-opacity="0.36"/>
<stop offset="0.87" stop-color="#757575" stop-opacity="0.1"/>
<stop offset="1" stop-color="#757575" stop-opacity="0"/>
</linearGradient>
<linearGradient id="paint2_linear_40_9084" x1="393.867" y1="10.1115" x2="302.564" y2="119.035" gradientUnits="userSpaceOnUse">
<stop stop-color="#757575"/>
<stop offset="0.22" stop-color="#757575" stop-opacity="0.76"/>
<stop offset="0.6" stop-color="#757575" stop-opacity="0.36"/>
<stop offset="0.87" stop-color="#757575" stop-opacity="0.1"/>
<stop offset="1" stop-color="#757575" stop-opacity="0"/>
</linearGradient>
<linearGradient id="paint3_linear_40_9084" x1="-1.57829" y1="285.308" x2="63.563" y2="407.58" gradientUnits="userSpaceOnUse">
<stop stop-color="#757575"/>
<stop offset="0.22" stop-color="#757575" stop-opacity="0.76"/>
<stop offset="0.6" stop-color="#757575" stop-opacity="0.36"/>
<stop offset="0.87" stop-color="#757575" stop-opacity="0.1"/>
<stop offset="1" stop-color="#757575" stop-opacity="0"/>
</linearGradient>
<linearGradient id="paint4_linear_40_9084" x1="100.805" y1="27.5541" x2="145.292" y2="111.06" gradientUnits="userSpaceOnUse">
<stop stop-color="#757575"/>
<stop offset="0.02" stop-color="#757575" stop-opacity="0.95"/>
<stop offset="0.14" stop-color="#757575" stop-opacity="0.73"/>
<stop offset="0.25" stop-color="#757575" stop-opacity="0.54"/>
<stop offset="0.37" stop-color="#757575" stop-opacity="0.37"/>
<stop offset="0.49" stop-color="#757575" stop-opacity="0.24"/>
<stop offset="0.61" stop-color="#757575" stop-opacity="0.13"/>
<stop offset="0.74" stop-color="#757575" stop-opacity="0.06"/>
<stop offset="0.86" stop-color="#757575" stop-opacity="0.01"/>
<stop offset="1" stop-color="#757575" stop-opacity="0"/>
</linearGradient>
</defs>
</svg>
