<svg width="24" height="24" viewBox="0 0 24 24" fill="none" xmlns="http://www.w3.org/2000/svg">
<path d="M21.6651 11.2532L12.6651 3.25316C12.482 3.09009 12.2453 3 12.0001 3C11.7549 3 11.5182 3.09009 11.3351 3.25316L2.33512 11.2532C2.23702 11.3405 2.15708 11.4463 2.09987 11.5645C2.04266 11.6827 2.0093 11.8111 2.00168 11.9422C1.99407 12.0733 2.01235 12.2046 2.05549 12.3287C2.09864 12.4527 2.16579 12.5671 2.25312 12.6652C2.34045 12.7633 2.44624 12.8432 2.56446 12.9004C2.68269 12.9576 2.81102 12.991 2.94213 12.9986C3.07325 13.0062 3.20458 12.9879 3.32863 12.9448C3.45268 12.9016 3.56702 12.8345 3.66512 12.7472L4.00012 12.4472V20.0002C4.00012 20.2654 4.10547 20.5197 4.29301 20.7073C4.48055 20.8948 4.7349 21.0002 5.00012 21.0002H9.00012C9.26533 21.0002 9.51969 20.8948 9.70722 20.7073C9.89476 20.5197 10.0001 20.2654 10.0001 20.0002V17.0002C10.0001 16.7349 10.1055 16.4806 10.293 16.293C10.4805 16.1055 10.7349 16.0002 11.0001 16.0002H13.0001C13.2653 16.0002 13.5197 16.1055 13.7072 16.293C13.8948 16.4806 14.0001 16.7349 14.0001 17.0002V20.0002C14.0001 20.2654 14.1055 20.5197 14.293 20.7073C14.4805 20.8948 14.7349 21.0002 15.0001 21.0002H19.0001C19.2653 21.0002 19.5197 20.8948 19.7072 20.7073C19.8948 20.5197 20.0001 20.2654 20.0001 20.0002V12.4492L20.3351 12.7492C20.4332 12.8365 20.5476 12.9036 20.6716 12.9468C20.7957 12.9899 20.927 13.0082 21.0581 13.0006C21.1892 12.993 21.3175 12.9596 21.4358 12.9024C21.554 12.8452 21.6598 12.7653 21.7471 12.6672C21.8344 12.5691 21.9016 12.4547 21.9447 12.3307C21.9879 12.2066 22.0062 12.0753 21.9986 11.9442C21.9909 11.8131 21.9576 11.6847 21.9004 11.5665C21.8431 11.4483 21.7632 11.3425 21.6651 11.2552V11.2532Z" fill="#F37021"/>
</svg>
