<svg width="843" height="330" viewBox="0 0 843 330" fill="none" xmlns="http://www.w3.org/2000/svg">
<g clip-path="url(#clip0_122_615)">
<path d="M212.379 0.0575886L220.552 4.97566H820.293L815.32 0L212.379 0.0575886Z" fill="#F37021"/>
<path d="M206.895 1.16429L217.796 8.89269L218.084 9.09425H822.907L841.786 24.4128V316.52L830.735 328.901H186.066L171.85 321.559L171.614 321.438H11.4306L1.09931 310.559V22.0344L23.5115 1.16429H206.89M207.241 0.0585938H23.0798L0 21.5564V311.003L10.9586 322.543H171.343L185.795 330.007H831.224L842.885 316.946V23.8888L823.299 7.98854H218.435L207.241 0.0585938Z" fill="#F37021"/>
<path d="M35.5078 324.711H171.028L181.906 329.998H41.1022L35.5078 324.711Z" fill="#F37021"/>
<path d="M38.6264 329.998H33.3428L27.9844 324.711H33.268L38.6264 329.998Z" fill="#F37021"/>
<path d="M31.2025 329.998H25.9189L20.5547 324.711H25.8383L31.2025 329.998Z" fill="#F37021"/>
<path d="M11.4766 0.0585938H20.438L0 19.0686V10.5167L11.4766 0.0585938Z" fill="#F37021"/>
<path opacity="0.1" d="M842.419 34.1484L835.195 41.3816V324.867L843.006 317.052L842.419 34.1484Z" fill="#F37021"/>
<path d="M841.787 304.969L817.078 329.692H831.22L842.88 316.941L841.787 304.969Z" fill="#F37021"/>
<path opacity="0.1" d="M0 311.004H107.002L118.133 322.136H10.9586L0 311.004Z" fill="#F37021"/>
<g filter="url(#filter0_d_122_615)">
<path d="M155.705 10.6406H33.4219V22.1987H155.705V10.6406Z" stroke="#F37021" stroke-width="1.29" stroke-miterlimit="10"/>
</g>
<path d="M75.8734 11.8828L71.2344 20.93H75.6028L80.2418 11.8828H75.8734Z" fill="#F37021"/>
<path d="M69.557 11.8828L64.918 20.93H69.2864L73.9254 11.8828H69.557Z" fill="#F37021"/>
<path d="M63.2405 11.8828L58.6016 20.93H62.9758L67.6148 11.8828H63.2405Z" fill="#F37021"/>
<path d="M82.1898 11.8828L77.5508 20.93H81.925L86.564 11.8828H82.1898Z" fill="#F37021"/>
<path d="M88.5062 11.8828L83.8672 20.93H88.2357L92.8747 11.8828H88.5062Z" fill="#F37021"/>
<path d="M56.9184 11.8828L52.2852 20.93H56.6536L61.2926 11.8828H56.9184Z" fill="#F37021"/>
<path d="M37.9629 11.8828L34.9297 17.8087V20.93H37.6981L42.3371 11.8828H37.9629Z" fill="#F37021"/>
<path d="M44.2796 11.8828L39.6406 20.93H44.0149L48.6481 11.8828H44.2796Z" fill="#F37021"/>
<path d="M50.6077 11.8828L45.9688 20.93H50.3372L54.9762 11.8828H50.6077Z" fill="#F37021"/>
<path d="M101.139 11.8828L96.5 20.93H100.874L105.513 11.8828H101.139Z" fill="#F37021"/>
<path opacity="0.45" d="M132.733 11.8828L128.094 20.93H132.462L137.101 11.8828H132.733Z" fill="#F37021"/>
<path opacity="0.45" d="M139.043 11.8828L134.41 20.93H138.779L143.418 11.8828H139.043Z" fill="#F37021"/>
<path opacity="0.45" d="M145.366 11.8828L140.727 20.93H145.101L149.74 11.8828H145.366Z" fill="#F37021"/>
<path d="M94.8226 11.8828L90.1836 20.93H94.5521L99.1911 11.8828H94.8226Z" fill="#F37021"/>
<path opacity="0.45" d="M154.45 11.8828H151.682L147.043 20.93H151.411L154.45 15.0041V11.8828Z" fill="#F37021"/>
<path opacity="0.45" d="M113.784 11.8828L109.145 20.93H113.513L118.152 11.8828H113.784Z" fill="#F37021"/>
<path opacity="0.45" d="M107.467 11.8828L102.828 20.93H107.202L111.836 11.8828H107.467Z" fill="#F37021"/>
<path opacity="0.45" d="M126.416 11.8828L121.777 20.93H126.152L130.791 11.8828H126.416Z" fill="#F37021"/>
<path opacity="0.45" d="M120.094 11.8828L115.461 20.93H119.829L124.468 11.8828H120.094Z" fill="#F37021"/>
<path d="M799.334 299.633H805.102V283.917H799.334V299.633Z" fill="#F37021"/>
<path d="M809.776 299.633H815.543V283.917H809.776V299.633Z" fill="#F37021"/>
<path opacity="0.8" d="M789.069 299.633H794.836V283.917H789.069V299.633Z" fill="#F37021"/>
<path opacity="0.6" d="M778.792 299.633H784.559V283.917H778.792V299.633Z" fill="#F37021"/>
<path opacity="0.4" d="M768.526 299.633H774.293V283.917H768.526V299.633Z" fill="#F37021"/>
<path opacity="0.2" d="M758.249 299.633H764.016V283.917H758.249V299.633Z" fill="#F37021"/>
<path d="M809.78 254.836H815.547V239.12H809.78V254.836Z" fill="#F37021"/>
<path opacity="0.8" d="M799.514 254.836H805.281V239.12H799.514V254.836Z" fill="#F37021"/>
<path opacity="0.6" d="M789.237 254.836H795.004V239.12H789.237V254.836Z" fill="#F37021"/>
<path opacity="0.4" d="M778.971 254.836H784.738V239.12H778.971V254.836Z" fill="#F37021"/>
<path opacity="0.2" d="M768.694 254.836H774.461V239.12H768.694V254.836Z" fill="#F37021"/>
<path d="M809.768 277.234H815.535V261.518H809.768V277.234Z" fill="#F37021"/>
<path opacity="0.6" d="M799.502 277.234H805.27V261.518H799.502V277.234Z" fill="#F37021"/>
<path opacity="0.3" d="M789.237 277.234H795.004V261.518H789.237V277.234Z" fill="#F37021"/>
<path opacity="0.15" d="M778.96 277.234H784.727V261.518H778.96V277.234Z" fill="#F37021"/>
<path d="M809.776 232.461H815.543V216.745H809.776V232.461Z" fill="#F37021"/>
<path opacity="0.45" d="M799.51 232.461H805.277V216.745H799.51V232.461Z" fill="#F37021"/>
<path opacity="0.15" d="M789.233 232.461H795V216.745H789.233V232.461Z" fill="#F37021"/>
</g>
<defs>
<filter id="filter0_d_122_615" x="27.4669" y="4.68561" width="134.193" height="23.4681" filterUnits="userSpaceOnUse" color-interpolation-filters="sRGB">
<feFlood flood-opacity="0" result="BackgroundImageFix"/>
<feColorMatrix in="SourceAlpha" type="matrix" values="0 0 0 0 0 0 0 0 0 0 0 0 0 0 0 0 0 0 127 0" result="hardAlpha"/>
<feOffset/>
<feGaussianBlur stdDeviation="2.655"/>
<feColorMatrix type="matrix" values="0 0 0 0 0.403922 0 0 0 0 0.905882 0 0 0 0 0.545098 0 0 0 0.45 0"/>
<feBlend mode="normal" in2="BackgroundImageFix" result="effect1_dropShadow_122_615"/>
<feBlend mode="normal" in="SourceGraphic" in2="effect1_dropShadow_122_615" result="shape"/>
</filter>
<clipPath id="clip0_122_615">
<rect width="843" height="330" fill="white"/>
</clipPath>
</defs>
</svg>
