<svg width="529" height="32" viewBox="0 0 529 32" fill="none" xmlns="http://www.w3.org/2000/svg">
<path d="M0 16H357.421" stroke="#CCCCCC"/>
<path d="M529.001 9.09765L508.043 23.9995L499.258 23.9995L520.214 9.09766L529.001 9.09765Z" fill="#CBCBCB"/>
<path d="M514.133 9.09765L493.176 23.9995L484.391 23.9995L505.347 9.09766L514.133 9.09765Z" fill="#CBCBCB"/>
<path d="M499.258 9.09765L478.302 23.9995L469.516 23.9995L490.472 9.09766L499.258 9.09765Z" fill="#CBCBCB"/>
<path d="M484.387 9.09765L463.431 23.9995L454.645 23.9995L475.601 9.09766L484.387 9.09765Z" fill="#CBCBCB"/>
<path d="M469.516 9.09765L448.56 23.9995L439.773 23.9995L460.73 9.09766L469.516 9.09765Z" fill="#CBCBCB"/>
<path d="M454.641 9.09765L433.685 23.9995L424.898 23.9995L445.856 9.09766L454.641 9.09765Z" fill="#CBCBCB"/>
<path d="M439.774 9.09765L418.818 23.9995L410.031 23.9995L430.989 9.09766L439.774 9.09765Z" fill="#CBCBCB"/>
<path d="M424.903 9.09765L403.946 23.9995L395.16 23.9995L416.118 9.09766L424.903 9.09765Z" fill="#CBCBCB"/>
<path d="M410.032 9.09765L389.075 23.9995L380.289 23.9995L401.247 9.09766L410.032 9.09765Z" fill="#CBCBCB"/>
<path d="M395.159 9.09765L374.203 23.9995L365.418 23.9995L386.374 9.09766L395.159 9.09765Z" fill="#CBCBCB"/>
</svg>
