<svg width="48" height="48" viewBox="0 0 48 48" fill="none" xmlns="http://www.w3.org/2000/svg">
<g clip-path="url(#clip0_4814_10738)">
<path d="M23.1226 44.9512V36.7188C20.9943 36.764 18.9475 36.9904 17.0547 37.3618C18.4675 41.4916 20.6592 44.3806 23.1226 44.9512Z" fill="url(#paint0_linear_4814_10738)"/>
<path d="M24.9141 36.7188V44.9512C27.3775 44.3806 29.5601 41.4916 30.982 37.3799C29.0892 36.9995 27.0424 36.7731 24.9141 36.7188Z" fill="url(#paint1_linear_4814_10738)"/>
<path d="M15.3984 26.0456H23.1237V17.6592C20.8686 17.6139 18.7222 17.3875 16.7388 16.998C15.9418 19.6607 15.4528 22.758 15.3984 26.0456Z" fill="url(#paint2_linear_4814_10738)"/>
<path d="M31.4075 35.9992C31.5977 35.3381 31.7607 34.6498 31.9056 33.9434C30.0218 34.4868 28.0747 34.9668 26.1094 35.3562C27.966 35.4558 29.7501 35.6641 31.4075 35.9992Z" fill="url(#paint3_linear_4814_10738)"/>
<path d="M32.6212 27.8379H24.9141V32.9549C27.3503 32.502 30.0039 31.8771 32.3676 31.1617C32.6303 30.0658 32.5759 29.4319 32.6303 27.8379H32.6212Z" fill="url(#paint4_linear_4814_10738)"/>
<path d="M23.1212 27.8379H15.4141C15.4956 30.4462 15.4593 31.7232 16.0209 33.942C18.2397 33.8515 20.9114 33.6522 23.1303 33.3171V27.8379H23.1212Z" fill="url(#paint5_linear_4814_10738)"/>
<path d="M28.1094 44.7925C31.7048 43.9683 34.8928 42.0846 37.3381 39.4853C35.9162 38.7698 34.2498 38.1631 32.4022 37.7012C31.3607 40.8166 29.8754 43.28 28.1094 44.7925Z" fill="url(#paint6_linear_4814_10738)"/>
<path d="M32.8281 36.3231C34.9021 36.8394 36.7496 37.5367 38.3164 38.3699C40.2455 35.9518 41.5587 33.0356 42.0659 29.8477C39.693 31.2061 36.7134 32.4378 33.453 33.4703C33.281 34.4575 33.0727 35.4175 32.8281 36.3141V36.3231Z" fill="url(#paint7_linear_4814_10738)"/>
<path d="M15.6152 37.6738C13.7495 38.1357 12.065 38.7425 10.625 39.467C13.0884 42.0935 16.3035 43.9863 19.9442 44.8104C18.1692 43.298 16.6658 40.8165 15.6152 37.6738Z" fill="url(#paint8_linear_4814_10738)"/>
<path d="M19.2701 9.21484C16.1999 10.0299 13.4376 11.6148 11.2188 13.7703C12.5591 14.3862 14.0806 14.9114 15.7561 15.319C16.6527 12.765 17.8572 10.673 19.2701 9.2239V9.21484Z" fill="url(#paint9_linear_4814_10738)"/>
<path d="M31.2899 16.9766C29.3065 17.366 27.1692 17.6015 24.9141 17.6468V26.0422H32.6393C32.585 22.7456 32.0959 19.6392 31.2899 16.9766Z" fill="url(#paint10_linear_4814_10738)"/>
<path d="M15.3237 16.6863C13.4128 16.2244 11.683 15.6086 10.1796 14.875C7.5441 17.8908 5.88675 21.7761 5.6875 26.0508H13.9924C14.0467 22.6184 14.5177 19.4395 15.3237 16.6954V16.6863Z" fill="url(#paint11_linear_4814_10738)"/>
<path d="M8.28906 36.3848C8.69661 37.064 9.14944 37.7251 9.6385 38.35C10.8883 37.6889 12.3283 37.1183 13.9042 36.6565C13.723 36.6565 13.5238 36.6746 13.3426 36.6746C11.5494 36.6746 9.8468 36.584 8.28906 36.3938V36.3848Z" fill="url(#paint12_linear_4814_10738)"/>
<path d="M14.6264 33.942C14.1011 31.7051 14.0739 30.4643 14.0015 27.8379H5.6875C5.80524 30.2832 5.87769 31.2522 6.8558 33.3534C9.0475 33.6975 11.8732 33.9783 14.6173 33.942H14.6264Z" fill="url(#paint13_linear_4814_10738)"/>
<path d="M36.7354 13.7556C34.5347 11.6273 31.8086 10.0605 28.7656 9.23633C30.1603 10.6854 31.3558 12.7684 32.2524 15.2952C33.9007 14.8876 35.4041 14.3624 36.7354 13.7556Z" fill="url(#paint14_linear_4814_10738)"/>
<path d="M23.1183 16.2468V8.62109C22.9191 8.63015 22.7198 8.63921 22.5206 8.64826C20.3832 9.48147 18.4904 12.0445 17.1953 15.6218C19.0519 15.9841 21.0444 16.1924 23.1183 16.2377V16.2468Z" fill="url(#paint15_linear_4814_10738)"/>
<path d="M34.0513 26.0494H42.3019C42.1026 21.7657 40.4362 17.8804 37.7917 14.8555C36.3064 15.5891 34.6038 16.2049 32.7109 16.6668C33.517 19.42 33.997 22.6079 34.0513 26.0494Z" fill="url(#paint16_linear_4814_10738)"/>
<path d="M25.5209 8.65608C25.3216 8.63796 25.1133 8.63796 24.9141 8.62891V16.2455C26.988 16.1912 28.9805 15.9738 30.8371 15.6115C29.542 12.0523 27.6582 9.49834 25.5209 8.65608Z" fill="url(#paint17_linear_4814_10738)"/>
<path d="M47.5153 22.1452C47.298 20.9679 45.8942 19.8177 45.6225 19.5913C43.9199 18.2147 41.9636 18.0879 41.1123 18.0879C41.2572 18.2871 41.4202 18.5226 41.5742 18.8124C41.701 19.0479 41.8006 19.2743 41.8731 19.4735C44.3093 20.0713 45.9304 21.0313 46.184 22.3898C46.9085 26.3656 35.5516 31.3196 24.901 33.2758C14.6127 35.1686 1.94251 34.2811 1.13648 30.6675C0.792326 29.1369 2.63987 27.389 4.52365 25.9943C4.52365 25.7769 4.55082 25.5324 4.58704 25.2607C4.64138 24.9256 4.72289 24.6268 4.81346 24.3822C1.40818 26.42 -0.620504 28.6841 -0.2039 30.9211C0.411949 34.263 6.14478 35.7392 13.3538 35.7392C17.058 35.7392 21.1606 35.3498 25.1455 34.6162C36.8738 32.4607 48.4482 27.2079 47.5153 22.1452Z" fill="url(#paint18_linear_4814_10738)"/>
<path d="M40.2846 27.8391H34.0355C33.9993 29.1705 34.0355 29.2972 33.8906 30.384C34.7329 30.2029 35.6748 29.9584 36.6801 29.5871C38.1201 29.0618 39.3155 28.4278 40.2936 27.8301L40.2846 27.8391Z" fill="url(#paint19_linear_4814_10738)"/>
<path d="M12.0454 8.98252L8.57669 9.39007L6.95555 12.4874L5.48838 9.31762L2.04688 8.72894L4.60989 6.35611L4.11178 2.89648L7.1548 4.59913L10.2884 3.0595L9.60914 6.4829L12.0454 8.98252Z" fill="url(#paint20_linear_4814_10738)"/>
<path d="M16.8906 7.64014L15.034 6.68919L13.1955 7.68542L13.5215 5.62051L12 4.18957L14.0649 3.85448L14.9706 1.9707L15.9125 3.83636L17.9864 4.10806L16.5102 5.58429L16.8906 7.64014Z" fill="url(#paint21_linear_4814_10738)"/>
<path d="M4.63275 17.687L2.76709 16.7361L0.937659 17.7323L1.25464 15.6674L-0.257812 14.2274L1.80709 13.9014L2.7037 12.0176L3.65464 13.8742L5.7286 14.1459L4.25238 15.6312L4.63275 17.687Z" fill="url(#paint22_linear_4814_10738)"/>
</g>
<defs>
<linearGradient id="paint0_linear_4814_10738" x1="20.0887" y1="58.6901" x2="20.0887" y2="-13.8533" gradientUnits="userSpaceOnUse">
<stop stop-color="white"/>
<stop offset="0.49" stop-color="#FF7928"/>
</linearGradient>
<linearGradient id="paint1_linear_4814_10738" x1="27.948" y1="1.97761" x2="27.948" y2="1.97761" gradientUnits="userSpaceOnUse">
<stop stop-color="white"/>
<stop offset="0.49" stop-color="#FF7928"/>
</linearGradient>
<linearGradient id="paint2_linear_4814_10738" x1="19.2656" y1="1.97314" x2="19.2656" y2="1.97314" gradientUnits="userSpaceOnUse">
<stop stop-color="white"/>
<stop offset="0.49" stop-color="#FF7928"/>
</linearGradient>
<linearGradient id="paint3_linear_4814_10738" x1="29.0075" y1="58.686" x2="29.0075" y2="-13.8574" gradientUnits="userSpaceOnUse">
<stop stop-color="white"/>
<stop offset="0.49" stop-color="#FF7928"/>
</linearGradient>
<linearGradient id="paint4_linear_4814_10738" x1="28.7722" y1="52.653" x2="28.7722" y2="-5.70776" gradientUnits="userSpaceOnUse">
<stop stop-color="white"/>
<stop offset="0.49" stop-color="#FF7928"/>
</linearGradient>
<linearGradient id="paint5_linear_4814_10738" x1="19.2631" y1="53.6854" x2="19.2631" y2="-7.11154" gradientUnits="userSpaceOnUse">
<stop stop-color="white"/>
<stop offset="0.49" stop-color="#FF7928"/>
</linearGradient>
<linearGradient id="paint6_linear_4814_10738" x1="32.7282" y1="58.6853" x2="32.7282" y2="-13.8581" gradientUnits="userSpaceOnUse">
<stop stop-color="white"/>
<stop offset="0.49" stop-color="#FF7928"/>
</linearGradient>
<linearGradient id="paint7_linear_4814_10738" x1="37.447" y1="58.6839" x2="37.447" y2="-13.8595" gradientUnits="userSpaceOnUse">
<stop stop-color="white"/>
<stop offset="0.49" stop-color="#FF7928"/>
</linearGradient>
<linearGradient id="paint8_linear_4814_10738" x1="15.2801" y1="58.6852" x2="15.2801" y2="-13.8583" gradientUnits="userSpaceOnUse">
<stop stop-color="white"/>
<stop offset="0.49" stop-color="#FF7928"/>
</linearGradient>
<linearGradient id="paint9_linear_4814_10738" x1="15.2489" y1="58.682" x2="15.2489" y2="-13.8614" gradientUnits="userSpaceOnUse">
<stop stop-color="white"/>
<stop offset="0.49" stop-color="#FF7928"/>
</linearGradient>
<linearGradient id="paint10_linear_4814_10738" x1="28.7722" y1="58.6822" x2="28.7722" y2="-13.8612" gradientUnits="userSpaceOnUse">
<stop stop-color="white"/>
<stop offset="0.49" stop-color="#FF7928"/>
</linearGradient>
<linearGradient id="paint11_linear_4814_10738" x1="10.5056" y1="58.6818" x2="10.5056" y2="-13.8616" gradientUnits="userSpaceOnUse">
<stop stop-color="white"/>
<stop offset="0.49" stop-color="#FF7928"/>
</linearGradient>
<linearGradient id="paint12_linear_4814_10738" x1="11.0966" y1="58.6821" x2="11.0966" y2="-13.8612" gradientUnits="userSpaceOnUse">
<stop stop-color="white"/>
<stop offset="0.49" stop-color="#FF7928"/>
</linearGradient>
<linearGradient id="paint13_linear_4814_10738" x1="10.1615" y1="53.5224" x2="10.1615" y2="-6.88513" gradientUnits="userSpaceOnUse">
<stop stop-color="white"/>
<stop offset="0.49" stop-color="#FF7928"/>
</linearGradient>
<linearGradient id="paint14_linear_4814_10738" x1="32.7596" y1="58.6854" x2="32.7596" y2="-13.858" gradientUnits="userSpaceOnUse">
<stop stop-color="white"/>
<stop offset="0.49" stop-color="#FF7928"/>
</linearGradient>
<linearGradient id="paint15_linear_4814_10738" x1="20.1568" y1="1.97355" x2="20.1568" y2="1.97355" gradientUnits="userSpaceOnUse">
<stop stop-color="white"/>
<stop offset="0.49" stop-color="#FF7928"/>
</linearGradient>
<linearGradient id="paint16_linear_4814_10738" x1="37.5019" y1="58.6894" x2="37.5019" y2="-13.854" gradientUnits="userSpaceOnUse">
<stop stop-color="white"/>
<stop offset="0.49" stop-color="#FF7928"/>
</linearGradient>
<linearGradient id="paint17_linear_4814_10738" x1="27.8756" y1="1.9723" x2="27.8756" y2="1.9723" gradientUnits="userSpaceOnUse">
<stop stop-color="white"/>
<stop offset="0.49" stop-color="#FF7928"/>
</linearGradient>
<linearGradient id="paint18_linear_4814_10738" x1="60.0678" y1="23.4494" x2="-30.9964" y2="33.5566" gradientUnits="userSpaceOnUse">
<stop stop-color="white"/>
<stop offset="0.49" stop-color="#969696"/>
</linearGradient>
<linearGradient id="paint19_linear_4814_10738" x1="37.0876" y1="48.6874" x2="37.0876" y2="-0.345032" gradientUnits="userSpaceOnUse">
<stop stop-color="white"/>
<stop offset="0.49" stop-color="#FF7928"/>
</linearGradient>
<linearGradient id="paint20_linear_4814_10738" x1="1.96886" y1="8.27457" x2="11.6686" y2="6.70181" gradientUnits="userSpaceOnUse">
<stop stop-color="white"/>
<stop offset="0.49" stop-color="#FF7928"/>
</linearGradient>
<linearGradient id="paint21_linear_4814_10738" x1="12.1149" y1="3.93007" x2="17.47" y2="6.37502" gradientUnits="userSpaceOnUse">
<stop stop-color="white"/>
<stop offset="0.49" stop-color="#FF7928"/>
</linearGradient>
<linearGradient id="paint22_linear_4814_10738" x1="-0.142252" y1="13.9796" x2="5.20456" y2="16.4208" gradientUnits="userSpaceOnUse">
<stop stop-color="white"/>
<stop offset="0.49" stop-color="#FF7928"/>
</linearGradient>
<clipPath id="clip0_4814_10738">
<rect width="48" height="48" fill="white"/>
</clipPath>
</defs>
</svg>
