<svg width="16" height="17" viewBox="0 0 16 17" fill="none" xmlns="http://www.w3.org/2000/svg">
<g clip-path="url(#clip0_4027_11131)">
<path d="M2.45114 0.101562C1.62182 0.101562 0.953125 0.770253 0.953125 1.59958C0.953125 2.09643 1.19595 2.5335 1.56578 2.80621C1.81234 2.98926 2.11866 3.09759 2.45114 3.09759C2.78362 3.09759 3.08621 2.98926 3.3365 2.80621C3.70634 2.5335 3.94916 2.09643 3.94916 1.59958C3.94916 0.770253 3.27673 0.101562 2.45114 0.101562Z" fill="url(#paint0_linear_4027_11131)"/>
<path d="M4.6322 3.89688C5.54745 3.2394 6.66442 2.84715 7.87479 2.84715C9.08516 2.84715 10.2918 3.27302 11.2294 3.97907C11.3415 3.70636 11.5096 3.46354 11.7226 3.26555C10.6467 2.46237 9.31677 1.98047 7.87479 1.98047C6.43281 1.98047 5.16641 2.43996 4.10547 3.20578C4.32587 3.3963 4.50519 3.63165 4.62847 3.89688H4.6322Z" fill="url(#paint1_linear_4027_11131)"/>
<path d="M13.4547 8.42895C13.4547 10.7264 12.0575 12.7063 10.0664 13.5581C10.1 13.7075 10.1262 13.8607 10.1262 14.0213V14.4658C12.5731 13.5506 14.3214 11.1934 14.3214 8.42895C14.3214 8.01428 14.2765 7.60709 14.2018 7.21484H13.3127C13.3986 7.60709 13.451 8.01055 13.451 8.42895H13.4547Z" fill="url(#paint2_linear_4027_11131)"/>
<path d="M5.68074 13.5581C3.69335 12.7026 2.2962 10.7264 2.2962 8.42895C2.2962 8.01055 2.34476 7.60709 2.43442 7.21484H1.54532C1.47061 7.60709 1.42578 8.01428 1.42578 8.42895C1.42578 11.1934 3.17409 13.5469 5.62097 14.4658V14.0213C5.62097 13.8607 5.64339 13.7075 5.68074 13.5581Z" fill="url(#paint3_linear_4027_11131)"/>
<path d="M4.307 3.98861C4.19493 3.74953 4.0343 3.53659 3.8363 3.36475C3.68688 3.23774 3.51877 3.1294 3.33572 3.05469C3.08916 3.23774 2.78284 3.34607 2.45036 3.34607C2.11788 3.34607 1.81529 3.23774 1.565 3.05469C0.896309 3.32739 0.421875 3.98488 0.421875 4.75443V6.05445C0.421875 6.56251 0.832802 6.97344 1.34086 6.97344H3.55986C4.06792 6.97344 4.47884 6.56251 4.47884 6.05445V4.75443C4.47884 4.47799 4.41534 4.22023 4.307 3.98488V3.98861Z" fill="url(#paint4_linear_4027_11131)"/>
<path d="M13.4941 0.101562C12.6685 0.101562 11.9961 0.770253 11.9961 1.59958C11.9961 2.09643 12.2389 2.5335 12.6087 2.80621C12.8553 2.98926 13.1616 3.09759 13.4941 3.09759C13.8266 3.09759 14.1292 2.98926 14.3795 2.80621C14.7493 2.5335 14.9921 2.09643 14.9921 1.59958C14.9921 0.773988 14.3234 0.101562 13.4941 0.101562Z" fill="url(#paint5_linear_4027_11131)"/>
<path d="M15.35 3.98861C15.2379 3.74953 15.0773 3.53659 14.8793 3.36475C14.7298 3.23774 14.5617 3.1294 14.3787 3.05469C14.1321 3.23774 13.8258 3.34607 13.4933 3.34607C13.1609 3.34607 12.8583 3.23774 12.608 3.05469C11.9393 3.32739 11.4648 3.98488 11.4648 4.75443V6.05445C11.4648 6.56251 11.8758 6.97344 12.3838 6.97344H14.6028C15.1109 6.97344 15.5218 6.56251 15.5218 6.05445V4.75443C15.5218 4.47799 15.4583 4.22023 15.35 3.98488V3.98861Z" fill="url(#paint6_linear_4027_11131)"/>
<path d="M7.87692 9.22852C7.05133 9.22852 6.37891 9.89721 6.37891 10.7265C6.37891 11.2234 6.62173 11.6605 6.99156 11.9332C7.23812 12.1162 7.54444 12.2245 7.87692 12.2245C8.2094 12.2245 8.51199 12.1162 8.76228 11.9332C9.13212 11.6605 9.37494 11.2234 9.37494 10.7265C9.37494 9.90094 8.70625 9.22852 7.87692 9.22852Z" fill="url(#paint7_linear_4027_11131)"/>
<path d="M9.73278 13.1136C9.62071 12.8745 9.46008 12.6616 9.26208 12.4897C9.11266 12.3627 8.94455 12.2544 8.7615 12.1797C8.51495 12.3627 8.20862 12.4711 7.87614 12.4711C7.54366 12.4711 7.24107 12.3627 6.99078 12.1797C6.32209 12.4524 5.84766 13.1099 5.84766 13.8794V15.1795C5.84766 15.6875 6.25858 16.0984 6.76664 16.0984H8.98564C9.4937 16.0984 9.90462 15.6875 9.90462 15.1795V13.8794C9.90462 13.603 9.84112 13.3452 9.73278 13.1099V13.1136Z" fill="url(#paint8_linear_4027_11131)"/>
</g>
<defs>
<linearGradient id="paint0_linear_4027_11131" x1="0.508577" y1="-0.342986" x2="5.18941" y2="4.33785" gradientUnits="userSpaceOnUse">
<stop stop-color="white"/>
<stop offset="0.49" stop-color="#FF7928"/>
</linearGradient>
<linearGradient id="paint1_linear_4027_11131" x1="4.1092" y1="2.9779" x2="11.7226" y2="2.9779" gradientUnits="userSpaceOnUse">
<stop stop-color="white"/>
<stop offset="0.49" stop-color="#969696"/>
</linearGradient>
<linearGradient id="paint2_linear_4027_11131" x1="10.0701" y1="10.8385" x2="14.3251" y2="10.8385" gradientUnits="userSpaceOnUse">
<stop stop-color="white"/>
<stop offset="0.49" stop-color="#969696"/>
</linearGradient>
<linearGradient id="paint3_linear_4027_11131" x1="1.42578" y1="10.8385" x2="5.68074" y2="10.8385" gradientUnits="userSpaceOnUse">
<stop stop-color="white"/>
<stop offset="0.49" stop-color="#969696"/>
</linearGradient>
<linearGradient id="paint4_linear_4027_11131" x1="-1.30402" y1="1.46702" x2="3.38055" y2="6.14785" gradientUnits="userSpaceOnUse">
<stop offset="0.13" stop-color="white"/>
<stop offset="0.71" stop-color="#FF7928"/>
</linearGradient>
<linearGradient id="paint5_linear_4027_11131" x1="11.5515" y1="-0.342986" x2="16.2324" y2="4.33785" gradientUnits="userSpaceOnUse">
<stop stop-color="white"/>
<stop offset="0.49" stop-color="#FF7928"/>
</linearGradient>
<linearGradient id="paint6_linear_4027_11131" x1="9.73895" y1="1.46702" x2="14.4235" y2="6.14785" gradientUnits="userSpaceOnUse">
<stop offset="0.13" stop-color="white"/>
<stop offset="0.71" stop-color="#FF7928"/>
</linearGradient>
<linearGradient id="paint7_linear_4027_11131" x1="5.93436" y1="8.78397" x2="10.6152" y2="13.4648" gradientUnits="userSpaceOnUse">
<stop stop-color="white"/>
<stop offset="0.49" stop-color="#FF7928"/>
</linearGradient>
<linearGradient id="paint8_linear_4027_11131" x1="4.1255" y1="10.592" x2="8.80633" y2="15.2728" gradientUnits="userSpaceOnUse">
<stop offset="0.13" stop-color="white"/>
<stop offset="0.71" stop-color="#FF7928"/>
</linearGradient>
<clipPath id="clip0_4027_11131">
<rect width="15.0997" height="16" fill="white" transform="translate(0.421875 0.101562)"/>
</clipPath>
</defs>
</svg>
