<svg width="16" height="16" viewBox="0 0 16 16" fill="none" xmlns="http://www.w3.org/2000/svg">
<g clip-path="url(#clip0_4027_11048)">
<path d="M6.86694 4.34766C4.57094 4.34766 2.71094 6.20766 2.71094 8.50366C2.71094 10.7997 4.57094 12.6597 6.86694 12.6597C9.16294 12.6597 11.0229 10.7997 11.0229 8.50366C11.0229 6.20766 9.16294 4.34766 6.86694 4.34766ZM7.00694 8.18366C7.57094 8.36366 8.41894 8.63566 8.39894 9.81966C8.34694 10.5397 7.87494 11.0797 7.20694 11.2477V11.8397H6.35094V11.2477C5.51094 11.0357 5.24294 10.2117 5.25894 9.58366L6.02294 9.54366C6.09094 9.96766 6.09094 10.5157 6.90294 10.4877C7.24694 10.4557 7.49494 10.2317 7.53094 9.77166C7.53894 9.22766 7.35894 9.13966 6.75894 8.94766C6.18694 8.76366 5.40294 8.51166 5.33494 7.43166C5.31494 6.61166 5.77894 6.08766 6.35094 5.88366V5.17166H7.20694V5.81166C7.85894 5.93166 8.44294 6.44366 8.47094 7.34766L7.66694 7.37166C7.64694 6.77566 7.23494 6.58766 6.89094 6.58366C6.60294 6.59166 6.12294 6.77166 6.13894 7.39966C6.17094 7.89566 6.44294 8.00366 7.00294 8.18366H7.00694Z" fill="#FF7928"/>
<path d="M9.41719 12.9594L8.99719 13.1394C8.36919 13.4114 7.70119 13.5474 7.01319 13.5474C4.23319 13.5474 1.96919 11.2874 1.96919 8.50342C1.96919 5.71942 4.23319 3.46742 7.00919 3.46342H7.35319L7.50119 2.03542L7.51719 1.61542L7.09719 1.60742C7.06919 1.60742 7.04119 1.60742 7.01319 1.60742C3.21319 1.60742 0.117188 4.70342 0.117188 8.50742C0.117188 12.3114 3.21319 15.4074 7.01719 15.4074C7.88119 15.4074 8.73319 15.2434 9.54919 14.9194L9.85719 14.7954L9.41719 12.9594Z" fill="url(#paint0_linear_4027_11048)"/>
<path d="M11.9111 0.800781L9.37109 4.05678C10.8151 4.82478 11.8431 6.27678 12.0231 7.97678L15.8351 6.72478C15.7231 4.10878 14.1511 1.87278 11.9111 0.800781Z" fill="url(#paint1_linear_4027_11048)"/>
<path d="M12.0744 9.53711C11.8904 10.3651 11.4984 11.1571 10.8984 11.8171L13.2064 13.6811C14.1344 12.6291 14.6784 11.3531 14.8544 10.0291L12.0744 9.53711Z" fill="url(#paint2_linear_4027_11048)"/>
</g>
<defs>
<linearGradient id="paint0_linear_4027_11048" x1="-0.726812" y1="15.9394" x2="17.5292" y2="-2.31658" gradientUnits="userSpaceOnUse">
<stop stop-color="white"/>
<stop offset="0.49" stop-color="#969696"/>
</linearGradient>
<linearGradient id="paint1_linear_4027_11048" x1="17.7111" y1="2.50478" x2="6.22709" y2="6.26878" gradientUnits="userSpaceOnUse">
<stop stop-color="white"/>
<stop offset="0.49" stop-color="#FF7928"/>
</linearGradient>
<linearGradient id="paint2_linear_4027_11048" x1="16.7784" y1="12.9211" x2="8.86244" y2="9.84511" gradientUnits="userSpaceOnUse">
<stop stop-color="white"/>
<stop offset="0.49" stop-color="#FF7928"/>
</linearGradient>
<clipPath id="clip0_4027_11048">
<rect width="15.716" height="14.604" fill="white" transform="translate(0.117188 0.800781)"/>
</clipPath>
</defs>
</svg>
