<svg width="17" height="16" viewBox="0 0 17 16" fill="none" xmlns="http://www.w3.org/2000/svg">
<g clip-path="url(#clip0_4027_11244)">
<mask id="mask0_4027_11244" style="mask-type:luminance" maskUnits="userSpaceOnUse" x="0" y="2" width="16" height="12">
<path d="M15.8443 2.96875H0.160156V13.2368H15.8443V2.96875Z" fill="white"/>
</mask>
<g mask="url(#mask0_4027_11244)">
<path d="M17.1941 2.00195H-0.570312V13.3305H17.1941V2.00195Z" fill="#6262F4"/>
<path d="M17.4515 3.459L16.5375 1.9375L7.9998 7.06611L-0.535235 1.9375L-1.44922 3.459L6.2776 8.10214L-1.44922 12.7453L-0.535235 14.2641L7.9998 9.13546L16.5375 14.2641L17.4515 12.7453L9.72199 8.10214L17.4515 3.459Z" fill="#F2E6C4"/>
<path d="M16.6383 3.50308L16.1175 2.64062L8.01374 7.51159L0.053677 2.7464L-0.467049 3.61156L7.03195 8.10012L-0.640625 12.6999L-0.119899 13.565L8.01374 8.68865L15.9738 13.4999L16.4945 12.6375L8.99281 8.10012L16.6383 3.50308Z" fill="#F2521C"/>
<path d="M9.5111 2.96875H6.48438V13.2368H9.5111V2.96875Z" fill="#F2E6C4"/>
<path d="M15.8438 9.61461V6.58789L0.159577 6.58789V9.61461H15.8438Z" fill="#F2E6C4"/>
<path d="M8.88701 2.96875H7.11328V13.2368H8.88701V2.96875Z" fill="#F2521C"/>
<path d="M0.160156 7.21651L0.160156 8.99023L15.8443 8.99023V7.21651L0.160156 7.21651Z" fill="#F2521C"/>
</g>
</g>
<defs>
<clipPath id="clip0_4027_11244">
<rect width="16" height="10.4348" fill="white" transform="translate(0 2.88477)"/>
</clipPath>
</defs>
</svg>
