<svg width="17" height="16" viewBox="0 0 17 16" fill="none" xmlns="http://www.w3.org/2000/svg">
<g clip-path="url(#clip0_4027_11217)">
<path d="M13.0483 6.78317C12.6984 6.43328 12.5022 5.95914 12.5022 5.4621C12.5022 4.43206 11.6651 3.59494 10.6351 3.59494C10.1413 3.59494 9.66387 3.39874 9.31399 3.04886C8.58478 2.31965 7.40105 2.31965 6.67184 3.04886C6.32196 3.39874 5.84781 3.59494 5.35077 3.59494C4.32073 3.59494 3.48362 4.43206 3.48362 5.4621C3.48362 5.95587 3.28742 6.43328 2.93753 6.78317C2.20832 7.51238 2.20832 8.69611 2.93753 9.42531C3.28742 9.7752 3.48362 10.2493 3.48362 10.7464C3.48362 11.7764 4.32073 12.6135 5.35077 12.6135C5.84454 12.6135 6.32196 12.8097 6.67184 13.1596C7.40105 13.8888 8.58478 13.8888 9.31399 13.1596C9.66387 12.8097 10.138 12.6135 10.6351 12.6135C11.6651 12.6135 12.5022 11.7764 12.5022 10.7464C12.5022 10.2526 12.6984 9.7752 13.0483 9.42531C13.7775 8.69611 13.7775 7.51238 13.0483 6.78317ZM9.22243 8.74843L9.51345 10.439L7.99618 9.64113L6.47891 10.439L6.76994 8.74843L5.54043 7.55162L7.23755 7.30637L7.99618 5.76621L8.75482 7.30637L10.4519 7.55162L9.22243 8.74843Z" fill="url(#paint0_linear_4027_11217)"/>
<path d="M14.8064 5.55776L13.6797 6.44727L14.0809 6.95544L15.2076 6.06593L14.8064 5.55776Z" fill="#FF7928"/>
<path d="M15.6072 8.64384L14.2852 8.25977L14.1045 8.88151L15.4265 9.26559L15.6072 8.64384Z" fill="#FF7928"/>
<path d="M15.9042 6.98394L14.2578 7.22852L14.353 7.86894L15.9993 7.62436L15.9042 6.98394Z" fill="#FF7928"/>
<path d="M0.857658 6.27455L1.98438 7.16406L2.38557 6.65588L1.25885 5.76638L0.857658 6.27455Z" fill="#FF7928"/>
<path d="M0.706706 9.59229L1.99219 9.09961L1.76048 8.49504L0.474995 8.98771L0.706706 9.59229Z" fill="#FF7928"/>
<path d="M0.000118134 7.75361L1.63672 8.05664L1.7546 7.42001L0.117996 7.11698L0.000118134 7.75361Z" fill="#FF7928"/>
</g>
<defs>
<linearGradient id="paint0_linear_4027_11217" x1="7.99291" y1="15.3276" x2="7.99291" y2="3.84346" gradientUnits="userSpaceOnUse">
<stop stop-color="white"/>
<stop offset="0.49" stop-color="#FF7928"/>
</linearGradient>
<clipPath id="clip0_4027_11217">
<rect width="16" height="11.2062" fill="white" transform="translate(0 2.49805)"/>
</clipPath>
</defs>
</svg>
