<svg width="16" height="17" viewBox="0 0 16 17" fill="none" xmlns="http://www.w3.org/2000/svg">
<g clip-path="url(#clip0_4027_11084)">
<path d="M13.8135 12.2205L14.0109 11.3926L2.54919 11.3969H2.30469V12.984V13.5073V13.8076H13.02V12.984H3.12828V12.2247L13.8135 12.2205Z" fill="url(#paint0_linear_4027_11084)"/>
<path d="M13.0223 12.9824C12.1601 12.9824 11.4609 13.6816 11.4609 14.5438C11.4609 15.406 12.1601 16.1052 13.0223 16.1052C13.8845 16.1052 14.5837 15.406 14.5837 14.5438C14.5837 13.6816 13.8845 12.9824 13.0223 12.9824ZM13.0223 14.9942C12.7735 14.9942 12.5719 14.7926 12.5719 14.5438C12.5719 14.295 12.7735 14.0934 13.0223 14.0934C13.2711 14.0934 13.4727 14.295 13.4727 14.5438C13.4727 14.7926 13.2711 14.9942 13.0223 14.9942Z" fill="#969696"/>
<path d="M5.17468 12.9824C4.31248 12.9824 3.61328 13.6816 3.61328 14.5438C3.61328 15.406 4.31248 16.1052 5.17468 16.1052C6.03687 16.1052 6.73607 15.406 6.73607 14.5438C6.73607 13.6816 6.03687 12.9824 5.17468 12.9824ZM5.17468 14.9942C4.92588 14.9942 4.72427 14.7926 4.72427 14.5438C4.72427 14.295 4.92588 14.0934 5.17468 14.0934C5.42347 14.0934 5.62508 14.295 5.62508 14.5438C5.62508 14.7926 5.42347 14.9942 5.17468 14.9942Z" fill="#969696"/>
<path d="M8.72026 0.101562C6.68272 0.101562 5.03125 1.75304 5.03125 3.79057C5.03125 5.8281 6.68272 7.47958 8.72026 7.47958C10.7578 7.47958 12.4093 5.8281 12.4093 3.79057C12.4093 1.75304 10.7621 0.101562 8.72026 0.101562ZM8.84465 3.50746C9.34224 3.66617 10.0972 3.91068 10.08 4.96162C10.0329 5.60076 9.61677 6.08119 9.02053 6.22703V6.75465H8.26128V6.23132C7.5149 6.04258 7.27897 5.31336 7.29184 4.75572L7.96959 4.7214C8.02964 5.09888 8.02964 5.5836 8.75028 5.55786C9.05913 5.52784 9.2779 5.33052 9.30793 4.92301C9.3165 4.44258 9.15779 4.36108 8.62589 4.1895C8.11972 4.0265 7.42053 3.80344 7.36476 2.84258C7.3476 2.11336 7.7594 1.65009 8.26557 1.46564V0.830785H9.02482V1.40129C9.6039 1.50853 10.1229 1.96322 10.1487 2.76537L9.43661 2.78682C9.41945 2.2592 9.05055 2.09191 8.746 2.08762C8.49291 2.0962 8.06396 2.25491 8.07683 2.81255C8.10256 3.25009 8.34707 3.34875 8.84465 3.50746Z" fill="url(#paint1_linear_4027_11084)"/>
<path d="M12.7629 4.83609C12.3296 6.66773 10.6868 8.0318 8.72214 8.0318C6.75753 8.0318 5.11464 6.66773 4.68139 4.83609H2.90123L2.4637 3.33046L0.421875 3.32617V4.094H1.70874L1.92322 4.83609L3.65619 11.3948H14.0112L15.5254 4.83609H12.7672H12.7629Z" fill="url(#paint2_linear_4027_11084)"/>
</g>
<defs>
<linearGradient id="paint0_linear_4027_11084" x1="8.15992" y1="11.0837" x2="8.15992" y2="13.0526" gradientUnits="userSpaceOnUse">
<stop stop-color="white"/>
<stop offset="0.49" stop-color="#969696"/>
</linearGradient>
<linearGradient id="paint1_linear_4027_11084" x1="8.47575" y1="9.44848" x2="8.86181" y2="0.577702" gradientUnits="userSpaceOnUse">
<stop stop-color="white"/>
<stop offset="0.49" stop-color="#FF7928"/>
</linearGradient>
<linearGradient id="paint2_linear_4027_11084" x1="7.97147" y1="-0.156938" x2="7.97147" y2="19.4463" gradientUnits="userSpaceOnUse">
<stop stop-color="white"/>
<stop offset="0.49" stop-color="#FF7928"/>
</linearGradient>
<clipPath id="clip0_4027_11084">
<rect width="15.1035" height="16" fill="white" transform="translate(0.421875 0.101562)"/>
</clipPath>
</defs>
</svg>
