<svg width="16" height="17" viewBox="0 0 16 17" fill="none" xmlns="http://www.w3.org/2000/svg">
<g clip-path="url(#clip0_4027_11102)">
<path d="M9.09594 10.9922C8.77093 11.2294 8.37566 11.3699 7.94085 11.3699C7.50604 11.3699 7.11076 11.2294 6.78576 10.9922C5.91175 11.3479 5.29688 12.2088 5.29688 13.2101V14.9054C5.29688 15.5686 5.8327 16.1045 6.49589 16.1045H9.38581C10.049 16.1045 10.5848 15.5686 10.5848 14.9054V13.2101C10.5848 12.2088 9.96995 11.3523 9.09594 10.9922Z" fill="url(#paint0_linear_4027_11102)"/>
<path d="M7.94223 7.14453C6.86619 7.14453 5.99219 8.01854 5.99219 9.09457C5.99219 9.74019 6.30841 10.3112 6.79153 10.6669C7.11654 10.9041 7.51181 11.0446 7.94662 11.0446C8.38143 11.0446 8.77671 10.9041 9.10171 10.6669C9.58483 10.3112 9.90105 9.74019 9.90105 9.09457C9.90105 8.01854 9.02705 7.14453 7.95101 7.14453H7.94223Z" fill="#FF7928"/>
<path d="M14.439 10.5312C14.1579 10.7377 13.811 10.8606 13.4376 10.8606C13.0643 10.8606 12.7173 10.7377 12.4363 10.5312C11.6764 10.8431 11.1406 11.5853 11.1406 12.4593V13.9306C11.1406 14.506 11.6062 14.9715 12.1815 14.9715H14.6937C15.2691 14.9715 15.7346 14.506 15.7346 13.9306V12.4593C15.7346 11.5897 15.1988 10.8431 14.439 10.5312Z" fill="url(#paint1_linear_4027_11102)"/>
<path d="M3.77885 10.5312C3.49776 10.7377 3.1508 10.8606 2.77748 10.8606C2.40416 10.8606 2.05719 10.7377 1.7761 10.5312C1.01629 10.8431 0.480469 11.5853 0.480469 12.4593V13.9306C0.480469 14.506 0.946019 14.9715 1.52137 14.9715H4.03358C4.60893 14.9715 5.07448 14.506 5.07448 13.9306V12.4593C5.07448 11.5897 4.53866 10.8431 3.77885 10.5312Z" fill="url(#paint2_linear_4027_11102)"/>
<path d="M13.4336 7.18945C12.4981 7.18945 11.7383 7.94927 11.7383 8.88476C11.7383 9.44693 12.0106 9.94323 12.4322 10.2507C12.7133 10.4571 13.0603 10.5801 13.4336 10.5801C13.8069 10.5801 14.1539 10.4571 14.435 10.2507C14.8566 9.94323 15.1289 9.44693 15.1289 8.88476C15.1289 7.94927 14.3691 7.18945 13.4336 7.18945Z" fill="#969696"/>
<path d="M2.77343 7.18945C1.83794 7.18945 1.07812 7.94927 1.07812 8.88476C1.07812 9.44693 1.35043 9.94323 1.77206 10.2507C2.05315 10.4571 2.40011 10.5801 2.77343 10.5801C3.14675 10.5801 3.49372 10.4571 3.7748 10.2507C4.19643 9.94323 4.46874 9.44693 4.46874 8.88476C4.46874 7.94927 3.70892 7.18945 2.77343 7.18945Z" fill="#969696"/>
<path d="M7.94008 0.101562L8.90632 2.06039L11.0716 2.37661L9.50802 3.90502L9.87694 6.05709L7.94008 5.04254L6.00321 6.05709L6.37653 3.90502L4.80859 2.37661L6.97384 2.06039L7.94008 0.101562Z" fill="url(#paint3_linear_4027_11102)"/>
<path d="M13.4376 2.12109L14.1447 3.55727L15.7346 3.79005L14.5839 4.91L14.8562 6.49112L13.4376 5.74448L12.019 6.49112L12.2869 4.91L11.1406 3.79005L12.7261 3.55727L13.4376 2.12109Z" fill="url(#paint4_linear_4027_11102)"/>
<path d="M2.51185 2.12109L3.22335 3.55727L4.80886 3.79005L3.66255 4.91L3.93046 6.49112L2.51185 5.74448L1.09324 6.49112L1.36554 4.91L0.214844 3.79005L1.80035 3.55727L2.51185 2.12109Z" fill="url(#paint5_linear_4027_11102)"/>
</g>
<defs>
<linearGradient id="paint0_linear_4027_11102" x1="7.94085" y1="17.7383" x2="7.94085" y2="10.5442" gradientUnits="userSpaceOnUse">
<stop stop-color="white"/>
<stop offset="0.49" stop-color="#FF7928"/>
</linearGradient>
<linearGradient id="paint1_linear_4027_11102" x1="13.4376" y1="17.5936" x2="13.4376" y2="5.35749" gradientUnits="userSpaceOnUse">
<stop stop-color="white"/>
<stop offset="0.49" stop-color="#969696"/>
</linearGradient>
<linearGradient id="paint2_linear_4027_11102" x1="2.77748" y1="17.5936" x2="2.77748" y2="5.35749" gradientUnits="userSpaceOnUse">
<stop stop-color="white"/>
<stop offset="0.49" stop-color="#969696"/>
</linearGradient>
<linearGradient id="paint3_linear_4027_11102" x1="7.94008" y1="7.22536" x2="7.94008" y2="0.189402" gradientUnits="userSpaceOnUse">
<stop stop-color="white"/>
<stop offset="0.49" stop-color="#FF7928"/>
</linearGradient>
<linearGradient id="paint4_linear_4027_11102" x1="13.4376" y1="7.22458" x2="13.4376" y2="0.188621" gradientUnits="userSpaceOnUse">
<stop stop-color="white"/>
<stop offset="0.49" stop-color="#FF7928"/>
</linearGradient>
<linearGradient id="paint5_linear_4027_11102" x1="2.51185" y1="7.22458" x2="2.51185" y2="0.188621" gradientUnits="userSpaceOnUse">
<stop stop-color="white"/>
<stop offset="0.49" stop-color="#FF7928"/>
</linearGradient>
<clipPath id="clip0_4027_11102">
<rect width="15.5169" height="16" fill="white" transform="translate(0.214844 0.101562)"/>
</clipPath>
</defs>
</svg>
