<svg width="17" height="16" viewBox="0 0 17 16" fill="none" xmlns="http://www.w3.org/2000/svg">
<g clip-path="url(#clip0_4027_11364)">
<path d="M16 2.86328H0V13.3398H16V2.86328Z" fill="#F2521C"/>
<path d="M2.99062 4.07617L3.37373 5.25584H4.61129L3.61077 5.98349L3.99113 7.16041L2.99062 6.43276L1.98734 7.16041L2.37046 5.98349L1.36719 5.25584H2.6075L2.99062 4.07617Z" fill="#FFBC15"/>
<path d="M5.92891 3.72492L5.77456 4.02535L6.01435 4.26514L5.68085 4.21277L5.5265 4.5132L5.47413 4.1797L5.14062 4.12457L5.44106 3.97298L5.38869 3.63672L5.62848 3.87651L5.92891 3.72492Z" fill="#FFBC15"/>
<path d="M7.12214 4.62644L6.94299 4.91309L7.16073 5.17218L6.83274 5.08949L6.65358 5.37614L6.62877 5.03988L6.30078 4.95719L6.61499 4.8304L6.59019 4.49414L6.80793 4.75323L7.12214 4.62644Z" fill="#FFBC15"/>
<path d="M7.291 6.4044L7.02365 6.61112L7.13665 6.93085L6.85827 6.73791L6.58816 6.94463L6.68463 6.61939L6.40625 6.42921L6.74527 6.41818L6.83898 6.0957L6.95199 6.41267L7.291 6.4044Z" fill="#FFBC15"/>
<path d="M6.10469 7.38622L5.95034 7.68666L6.19014 7.92645L5.85663 7.87408L5.70228 8.17451L5.64991 7.841L5.31641 7.78864L5.61684 7.63429L5.56447 7.30078L5.80426 7.54057L6.10469 7.38622Z" fill="#FFBC15"/>
</g>
<defs>
<clipPath id="clip0_4027_11364">
<rect width="16" height="10.4765" fill="white" transform="translate(0 2.86328)"/>
</clipPath>
</defs>
</svg>
