<svg width="16" height="16" viewBox="0 0 16 16" fill="none" xmlns="http://www.w3.org/2000/svg">
<g clip-path="url(#clip0_4027_11005)">
<path d="M12.7097 6.75696V6.74241H12.5449C12.5449 5.45756 11.5024 4.41514 10.2176 4.41514C9.70364 4.41514 9.23334 4.58969 8.84546 4.8709C8.28303 3.71211 7.1097 2.91211 5.74243 2.91211C3.82728 2.91211 2.27576 4.46362 2.27576 6.37878C2.27576 6.81029 2.36304 7.21756 2.50849 7.60059C1.3691 7.92544 0.535156 8.96302 0.535156 10.2091C0.535156 11.717 1.75697 12.9388 3.26485 12.9388H7.34728V10.5145H5.82485L8.0891 8.25029L10.3533 10.5145H8.83091V12.9388H12.4527C12.4818 12.9388 12.5109 12.9485 12.5449 12.9485C12.5788 12.9485 12.603 12.9388 12.637 12.9388H12.7097V12.9291C14.3436 12.8418 15.6479 11.4988 15.6479 9.84544C15.6479 8.19211 14.3436 6.84908 12.7097 6.76181V6.75696Z" fill="url(#paint0_linear_4027_11005)"/>
</g>
<defs>
<linearGradient id="paint0_linear_4027_11005" x1="8.09394" y1="3.77514" x2="8.09394" y2="15.1157" gradientUnits="userSpaceOnUse">
<stop stop-color="#FF7928"/>
<stop offset="0.95" stop-color="#FFE4C3"/>
</linearGradient>
<clipPath id="clip0_4027_11005">
<rect width="15.1127" height="10.0315" fill="white" transform="translate(0.527344 2.9082)"/>
</clipPath>
</defs>
</svg>
