<svg width="17" height="16" viewBox="0 0 17 16" fill="none" xmlns="http://www.w3.org/2000/svg">
<g clip-path="url(#clip0_4027_11290)">
<path d="M16 2.86328H0V13.3398H16V2.86328Z" fill="#F2E6C4"/>
<path d="M8.7891 8.14812C7.7941 8.40996 7.73071 9.34984 6.85146 9.51246C6.33329 9.60893 5.89229 9.36362 5.73519 9.26164C5.00754 8.78757 4.94414 7.88352 4.94139 7.64648C4.91934 7.79532 4.89453 7.94416 4.89453 8.10126C4.89453 9.81565 6.28368 11.2076 8.00082 11.2076C9.31004 11.2076 10.4263 10.3945 10.8811 9.24511C10.735 8.78206 9.8475 7.79532 8.78635 8.14812H8.7891Z" fill="#6262F4"/>
<path d="M8.00474 4.99609C6.44471 4.99609 5.16581 6.1482 4.94531 7.6476C4.94807 7.88464 5.01146 8.78869 5.73911 9.26276C5.89622 9.36474 6.33722 9.61005 6.85539 9.51358C7.73188 9.35096 7.79803 8.41108 8.79303 8.14924C9.85418 7.79644 10.7417 8.78317 10.8878 9.24622C11.0283 8.89067 11.111 8.50755 11.111 8.10238C11.111 6.388 9.72188 4.99609 8.00474 4.99609Z" fill="#F2521C"/>
<path d="M2.51797 10.5508L2.125 10.8398L3.43489 12.6204L3.82787 12.3313L2.51797 10.5508Z" fill="black"/>
<path d="M3.54922 9.79294L3.15625 10.082L4.46614 11.8626L4.85912 11.5735L3.54922 9.79294Z" fill="black"/>
<path d="M3.82367 3.86975L3.42969 3.58203L2.12602 5.36719L2.52 5.65491L3.82367 3.86975Z" fill="black"/>
<path d="M4.33929 4.2467L3.94531 3.95898L2.64164 5.74414L3.03562 6.03186L4.33929 4.2467Z" fill="black"/>
<path d="M4.85883 4.62561L4.46484 4.33789L3.16117 6.12305L3.55516 6.41077L4.85883 4.62561Z" fill="black"/>
<path d="M11.9906 3.88083L11.5977 4.16992L12.9075 5.95052L13.3005 5.66143L11.9906 3.88083Z" fill="black"/>
<path d="M12.5004 9.84993L11.9844 10.6289L12.3911 10.8983L12.9071 10.1193L12.5004 9.84993Z" fill="black"/>
<path d="M11.8627 10.8195L11.2812 11.6973L11.688 11.9667L12.2694 11.0889L11.8627 10.8195Z" fill="black"/>
<path d="M13.0316 10.2054L12.5156 10.9844L12.9223 11.2538L13.4383 10.4748L13.0316 10.2054Z" fill="black"/>
<path d="M12.3939 11.171L11.8125 12.0488L12.2192 12.3182L12.8007 11.4405L12.3939 11.171Z" fill="black"/>
<path d="M12.9291 11.5246L12.3477 12.4023L12.7544 12.6718L13.3358 11.794L12.9291 11.5246Z" fill="black"/>
<path d="M13.5629 10.557L13.0469 11.3359L13.4536 11.6053L13.9696 10.8264L13.5629 10.557Z" fill="black"/>
<path d="M12.5063 3.50192L12.1133 3.79102L12.7486 4.65467L13.1416 4.36558L12.5063 3.50192Z" fill="black"/>
<path d="M13.2641 4.53122L12.8711 4.82031L13.4248 5.57296L13.8178 5.28387L13.2641 4.53122Z" fill="black"/>
<path d="M11.4789 4.25974L11.0859 4.54883L11.7213 5.41248L12.1143 5.12339L11.4789 4.25974Z" fill="black"/>
<path d="M12.2328 5.29099L11.8398 5.58008L12.3935 6.33272L12.7865 6.04363L12.2328 5.29099Z" fill="black"/>
<path d="M3.0336 10.1699L2.64062 10.459L3.22861 11.2583L3.62158 10.9692L3.0336 10.1699Z" fill="black"/>
<path d="M3.74454 11.1328L3.35156 11.4219L3.95261 12.2389L4.34559 11.9498L3.74454 11.1328Z" fill="black"/>
</g>
<defs>
<clipPath id="clip0_4027_11290">
<rect width="16" height="10.4765" fill="white" transform="translate(0 2.86328)"/>
</clipPath>
</defs>
</svg>
