<svg width="1440" height="1020" viewBox="0 0 1440 1020" fill="none" xmlns="http://www.w3.org/2000/svg">
<g clip-path="url(#clip0_144_4482)">
<path d="M56.9922 699.128L56.9922 699.24L56.9102 699.314L56.9922 699.128Z" fill="#D7D7D7"/>
<path d="M78.0192 677.531L78.0192 677.427L78.0938 677.352L78.0192 677.531Z" fill="#D7D7D7"/>
<path d="M22.8984 340.291L22.8164 340.373L22.712 340.373L22.8984 340.291Z" fill="#D7D7D7"/>
<path d="M86.7578 340.373L86.646 340.373L86.5714 340.291L86.7578 340.373Z" fill="#D7D7D7"/>
<path d="M101.902 494.482L101.902 494.37L101.977 494.296L101.902 494.482Z" fill="#D7D7D7"/>
<path d="M78.5469 518.403L78.5469 518.508L78.4723 518.59L78.5469 518.403Z" fill="#D7D7D7"/>
<path d="M101.977 355.732L101.902 355.658L101.902 355.546L101.977 355.732Z" fill="#D7D7D7"/>
<path d="M-75.6028 353.357L-75.6774 353.283L-75.6028 353.462L-75.6028 353.357L-61.3298 367.656L-61.4416 367.656L-61.2552 367.731L-61.3298 367.656L-5.15504 367.656L-5.23707 367.731L-5.05064 367.656L-5.15504 367.656L22.5259 339.918L22.6005 339.843L22.7124 339.843L86.7544 339.843L86.8588 339.843L86.9408 339.918L102.347 355.36L102.422 355.434L102.422 355.546L102.422 494.482L102.422 494.587L102.347 494.669L78.5441 518.507L78.5441 518.402L78.4695 518.589L78.5441 518.507L78.5441 677.531L78.5441 677.643L78.4695 677.718L56.9929 699.24L56.9929 699.128L56.9109 699.315L56.9929 699.24L56.9929 795.773L56.4634 795.773L56.4634 699.128L56.4634 699.023L56.538 698.941L78.0221 677.426L78.0221 677.531L78.0966 677.352L78.0221 677.426L78.0221 518.402L78.0221 518.29L78.0966 518.216L101.9 494.37L101.9 494.482L101.974 494.295L101.9 494.37L101.9 355.658L101.974 355.733L101.9 355.546L101.9 355.658L86.6426 340.374L86.7544 340.374L86.568 340.292L86.6426 340.374L22.8168 340.374L22.8988 340.292L22.7124 340.374L22.8168 340.374L-4.86421 368.104L-4.93878 368.179L-5.05064 368.179L-61.4416 368.179L-61.5535 368.179L-61.6281 368.104L-76.0502 353.649L-76.1323 353.574L-76.1323 353.462L-76.1323 330.901L-75.6028 330.901L-75.6028 353.357Z" fill="#D7D7D7"/>
<path d="M62.5313 488.349L62.5313 619.732L62.5313 619.837L62.4567 619.911L47.5946 634.807L47.6691 634.621L47.6691 667.028L47.6691 667.132L47.5946 667.214L30.98 683.851L30.9055 683.926L30.7936 683.926L0.196884 683.926L0.08502 683.926L0.0104553 683.851L-10.9217 672.899L-10.7353 672.982L-59.259 672.982L-59.3634 672.982L-59.4454 672.899L-77.1487 655.164L-76.7759 654.791L-59.0726 672.533L-59.259 672.451L-10.7353 672.451L-10.6235 672.451L-10.5489 672.533L0.383313 683.478L0.196884 683.403L30.7936 683.403L30.6072 683.478L47.2217 666.841L47.1471 667.028L47.1471 634.621L47.1471 634.509L47.2217 634.434L62.0838 619.545L62.0093 619.732L62.0093 488.349L62.5313 488.349Z" fill="#D7D7D7"/>
<path d="M44.1719 427.031L44.1719 554.037L44.1719 554.141L44.0898 554.223L24.8578 573.49L24.9399 573.303L24.9399 616.221L24.4104 616.221L24.4104 573.303L24.4104 573.198L24.485 573.116L43.7244 553.85L43.6424 554.037L43.6424 427.031L44.1719 427.031Z" fill="#D7D7D7"/>
<path d="M61.1319 449.809L61.1319 420.905L61.1319 420.793L61.2139 420.719L65.5838 416.341L65.5093 416.528L65.5093 376.232L65.5838 376.419L50.7217 361.53L50.9082 361.612L25.5538 361.612L25.7328 361.53L11.3106 375.985L11.3852 375.799L11.3852 420.905L11.3852 421.017L11.3106 421.092L-5.08018 437.512L-5.0056 437.325L-5.00561 522.504L-5.00561 522.616L-5.08018 522.691L-18.0855 535.719L-18.0109 535.532L-18.0109 578.562L-18.0109 578.667L-18.0855 578.741L-47.7575 608.466L-47.8395 608.549L-47.9439 608.549L-145.812 608.549L-145.625 608.466L-167.072 629.959L-167.445 629.585L-145.998 608.1L-145.923 608.018L-145.812 608.018L-47.9439 608.018L-48.1303 608.1L-18.4583 578.375L-18.5329 578.562L-18.5329 535.532L-18.5329 535.42L-18.4583 535.345L-5.45304 522.317L-5.53507 522.504L-5.53506 437.325L-5.53506 437.221L-5.45304 437.139L10.9378 420.719L10.8632 420.905L10.8632 375.799L10.8632 375.687L10.9378 375.612L25.3674 361.164L25.442 361.082L25.5538 361.082L50.9082 361.082L51.0126 361.082L51.0946 361.164L65.9567 376.053L66.0313 376.127L66.0313 376.232L66.0313 416.528L66.0313 416.632L65.9567 416.714L61.5793 421.092L61.6614 420.905L61.6614 449.809L61.1319 449.809Z" fill="#D7D7D7"/>
<path d="M98.9879 702.932L98.9879 702.82L99.0625 702.745L98.9879 702.932Z" fill="#D7D7D7"/>
<path d="M86.5504 790.516L86.5504 790.411L86.625 790.336L86.5504 790.516Z" fill="#D7D7D7"/>
<path d="M118.48 497.105L118.48 496.993L118.555 496.919L118.48 497.105Z" fill="#D7D7D7"/>
<path d="M118.925 358.02L119 358.094L119 358.206L119 497.105L119 497.209L118.925 497.292L99.507 516.737L99.507 516.633L99.4324 516.819L99.507 516.737L99.507 702.931L99.507 703.043L99.4324 703.118L78.3958 724.192L78.3958 724.08L78.3212 724.267L78.3958 724.192L78.3958 766.759L78.3212 766.684L78.3958 766.871L78.3958 766.759L87.0014 775.38L87.0759 775.454L87.0759 775.566L87.0759 790.515L87.0759 790.627L87.0014 790.702L-1.26155 879.122L-1.26155 879.01L-1.33611 879.197L-1.26155 879.122L-1.26155 912.261L-1.26155 912.373L-1.33611 912.448L-10.8887 922.025L-10.8887 921.913L-10.9708 922.1L-10.8887 922.025L-10.8887 1012.11L-11.4182 1012.11L-11.4182 921.913L-11.4182 921.808L-11.3436 921.726L-1.78355 912.149L-1.78355 912.261L-1.70897 912.074L-1.78355 912.149L-1.78354 879.01L-1.78354 878.905L-1.70897 878.831L86.5539 790.41L86.5539 790.515L86.6285 790.336L86.5539 790.41L86.5539 775.671L86.6285 775.753L86.5539 775.566L86.5539 775.671L77.9484 767.058L77.8738 766.975L77.8738 766.871L77.8738 724.08L77.8738 723.968L77.9484 723.893L98.985 702.819L98.985 702.931L99.0596 702.744L98.985 702.819L98.985 516.633L98.985 516.521L99.0596 516.446L118.478 496.993L118.478 497.105L118.553 496.918L118.478 496.993L118.478 358.311L118.553 358.393L118.478 358.206L118.478 358.311L91.1177 330.902L91.856 330.902L118.925 358.02Z" fill="#D7D7D7"/>
<path d="M118.555 358.393L118.48 358.31L118.48 358.206L118.555 358.393Z" fill="#D7D7D7"/>
<path d="M86.625 775.754L86.5504 775.672L86.5504 775.567L86.625 775.754Z" fill="#D7D7D7"/>
<path d="M78.3984 724.081L78.3984 724.193L78.3239 724.268L78.3984 724.081Z" fill="#D7D7D7"/>
<path d="M99.5078 516.632L99.5078 516.736L99.4332 516.818L99.5078 516.632Z" fill="#D7D7D7"/>
<path d="M78.3239 766.684L78.3984 766.759L78.3984 766.871L78.3239 766.684Z" fill="#D7D7D7"/>
<path d="M55.4609 677.718L20.4943 712.747L20.5689 712.568L20.5689 817.67L20.5689 817.774L20.4943 817.857L-17.9771 856.389L-17.9026 856.203L-17.9026 886.861L-18.4246 886.861L-18.4246 856.203L-18.4246 856.098L-18.35 856.023L20.1215 817.483L20.0394 817.67L20.0394 712.568L20.0394 712.456L20.1215 712.381L55.0955 677.345L55.4609 677.718Z" fill="#D7D7D7"/>
<path d="M5.62501 700.488L-48.5885 754.791L-48.5065 754.612L-48.5065 808.907L-48.5065 809.019L-48.5885 809.094L-62.5707 823.108L-62.4961 822.922L-62.4961 889.491L-62.4961 889.596L-62.5707 889.678L-78.3127 905.44L-78.2307 905.254L-78.2307 939.416L-78.3127 939.229L-67.3805 950.174L-67.306 950.256L-67.306 950.36L-67.306 1013.86L-67.828 1013.86L-67.828 950.36L-67.7534 950.547L-78.6781 939.603L-78.7602 939.521L-78.7602 939.416L-78.7602 905.254L-78.7602 905.149L-78.6781 905.067L-62.9435 889.304L-63.0181 889.491L-63.0181 822.922L-63.0181 822.817L-62.9435 822.735L-48.9539 808.72L-49.0359 808.907L-49.0359 754.612L-49.0359 754.5L-48.9539 754.425L5.25216 700.115L5.62501 700.488Z" fill="#D7D7D7"/>
<path d="M-203.29 1013.21L-178.398 988.272L-178.481 988.459L-178.481 968.371L-178.398 968.558L-194.193 952.735L-194.275 952.66L-194.275 952.548L-194.275 896.385L-194.275 896.273L-194.193 896.199L-170.479 872.442L-170.404 872.368L-170.293 872.368L-141.657 872.368L-141.844 872.442L-126.325 856.896L-126.4 857.083L-126.4 817.228L-126.4 817.124L-126.325 817.041L-104.028 794.712L-104.11 794.899L-104.11 745.848L-104.11 745.736L-104.028 745.661L-93.5435 735.15L-93.6181 735.337L-93.6181 712.567L-93.5435 712.746L-107.093 699.172L-106.907 699.247L-144.938 699.247L-145.05 699.247L-145.125 699.172L-172.448 671.801L-172.522 671.726L-172.522 671.614L-172.522 650.375L-172.522 650.271L-172.448 650.189L-142.612 620.299L-142.537 620.225L-142.425 620.225L-39.1436 620.225L-39.3374 620.299L-6.60051 587.511L-6.67509 587.698L-6.67509 547.903L-6.67509 547.791L-6.60051 547.716L2.38536 538.707L2.45993 538.632L2.57178 538.632L15.0625 538.632L15.0625 539.163L2.57178 539.163L2.75821 539.08L-6.22765 548.09L-6.15309 547.903L-6.15309 587.698L-6.15309 587.81L-6.22765 587.885L-38.9646 620.673L-39.0391 620.755L-39.1436 620.755L-142.425 620.755L-142.239 620.673L-172.075 650.562L-172 650.375L-172 671.614L-172.075 671.435L-144.752 698.799L-144.938 698.724L-106.907 698.724L-106.795 698.724L-106.72 698.799L-93.1706 712.38L-93.0886 712.455L-93.0886 712.567L-93.0886 735.337L-93.0886 735.449L-93.1706 735.524L-103.663 746.035L-103.581 745.848L-103.581 794.899L-103.581 795.004L-103.663 795.086L-125.952 817.415L-125.878 817.228L-125.878 857.083L-125.878 857.188L-125.952 857.27L-141.478 872.816L-141.553 872.891L-141.657 872.891L-170.293 872.891L-170.106 872.816L-193.82 896.572L-193.745 896.385L-193.745 952.548L-193.82 952.362L-178.033 968.184L-177.951 968.266L-177.951 968.371L-177.951 988.459L-177.951 988.571L-178.033 988.646L-202.925 1013.58L-203.29 1013.21Z" fill="#D7D7D7"/>
<path d="M60.9611 456.6C63.4965 456.6 65.5547 454.545 65.5547 452.005C65.5547 449.465 63.504 447.403 60.9611 447.403C58.4182 447.403 56.3675 449.458 56.3675 452.005C56.3675 454.553 58.4182 456.6 60.9611 456.6Z" fill="#D7D7D7"/>
<path d="M25.1173 619.508C27.6528 619.508 29.7109 617.453 29.7109 614.914C29.7109 612.374 27.6602 610.312 25.1173 610.312C22.5744 610.312 20.5237 612.374 20.5237 614.914C20.5237 617.453 22.5744 619.508 25.1173 619.508Z" fill="#D7D7D7"/>
<path d="M10.469 538.894C10.469 536.353 12.5257 534.293 15.0626 534.293C17.5996 534.293 19.6563 536.353 19.6563 538.894C19.6563 541.436 17.5996 543.496 15.0626 543.496C12.5257 543.496 10.469 541.436 10.469 538.894Z" fill="#D7D7D7"/>
<path d="M57.0236 799.687C59.559 799.687 61.6172 797.633 61.6172 795.086C61.6172 792.538 59.5665 790.484 57.0236 790.484C54.4807 790.484 52.43 792.538 52.43 795.086C52.43 797.633 54.4807 799.687 57.0236 799.687Z" fill="#D7D7D7"/>
<path d="M-0.671724 756.77C1.86371 756.77 3.92188 754.715 3.92188 752.168C3.92188 749.62 1.87117 747.566 -0.671724 747.566C-3.21461 747.566 -5.26533 749.62 -5.26533 752.168C-5.26533 754.715 -3.21461 756.77 -0.671724 756.77Z" fill="#D7D7D7"/>
<path d="M39.3284 424.193C39.3284 421.653 41.3791 419.591 43.922 419.591C46.4649 419.591 48.5156 421.646 48.5156 424.193C48.5156 426.741 46.4574 428.795 43.922 428.795C41.3866 428.795 39.3284 426.733 39.3284 424.193ZM46.3158 424.193C46.3158 422.863 45.2419 421.78 43.9146 421.78C42.5872 421.78 41.5059 422.856 41.5059 424.193C41.5059 425.53 42.5797 426.599 43.9146 426.599C45.2494 426.599 46.3158 425.523 46.3158 424.193Z" fill="#D7D7D7"/>
<path d="M57.0237 485.719C57.0237 483.179 59.0819 481.117 61.6173 481.117C64.1528 481.117 66.2109 483.179 66.2109 485.719C66.2109 488.258 64.1602 490.32 61.6173 490.32C59.0744 490.32 57.0237 488.258 57.0237 485.719ZM64.0185 485.719C64.0185 484.389 62.9447 483.313 61.6099 483.313C60.275 483.313 59.2087 484.389 59.2087 485.719C59.2087 487.048 60.2825 488.124 61.6099 488.124C62.9372 488.124 64.0185 487.048 64.0185 485.719Z" fill="#D7D7D7"/>
<path d="M53.5315 675.783C53.5315 673.243 55.5823 671.189 58.1251 671.189C60.668 671.189 62.7188 673.25 62.7188 675.783C62.7188 678.315 60.6606 680.385 58.1251 680.385C55.5897 680.385 53.5315 678.323 53.5315 675.783ZM60.5189 675.783C60.5189 674.453 59.4451 673.377 58.1177 673.377C56.7903 673.377 55.709 674.453 55.709 675.783C55.709 677.113 56.7829 678.188 58.1177 678.188C59.4525 678.188 60.5189 677.113 60.5189 675.783Z" fill="#D7D7D7"/>
<path d="M2.38309 698.119C2.38309 695.579 4.43381 693.517 6.9767 693.517C9.51959 693.517 11.5703 695.579 11.5703 698.119C11.5703 700.659 9.51213 702.721 6.9767 702.721C4.44127 702.721 2.38309 700.659 2.38309 698.119ZM9.37791 698.119C9.37791 696.789 8.30408 695.713 6.9767 695.713C5.64933 695.713 4.56804 696.789 4.56804 698.119C4.56804 699.449 5.64187 700.524 6.9767 700.524C8.31153 700.524 9.37791 699.449 9.37791 698.119Z" fill="#D7D7D7"/>
<path d="M-154.733 718.477L-163.189 710.013L-163.085 710.057L-177.499 710.057L-177.559 710.057L-177.604 710.013L-186.306 701.294L-186.351 701.25L-186.351 701.19L-186.351 639.185L-186.351 639.125L-186.306 639.08L-178.969 631.737L-179.013 631.842L-179.013 605.321L-179.013 605.254L-178.969 605.217L-167.104 593.324L-167.059 593.279L-167 593.279L-114.36 593.279L-114.3 593.279L-114.255 593.324L-108.573 599.016L-108.677 598.979L-93.9793 598.979L-93.9196 598.979L-93.8749 599.016L-88.0509 604.858L-88.0061 604.903L-88.0061 604.963L-88.0061 612.792L-88.0509 612.687L-80.7727 619.978L-80.8771 619.934L-75.0903 619.934L-75.1947 619.978L-48.9381 593.667L-48.8933 593.623L-48.8262 593.623L-31.3392 593.623L-31.4436 593.667L-23.539 585.749L-23.5763 585.853L-23.5763 550.533L-23.539 550.645L-31.2199 542.943L-31.2646 542.898L-31.2646 542.838L-31.2646 503.223L-31.2646 503.163L-31.2199 503.118L-23.1289 495.012L-23.0841 494.968L-23.0245 494.968L1.4723 494.968L1.3679 495.012L12.4865 483.874L12.6953 484.083L1.5767 495.222L1.53196 495.266L1.4723 495.266L-23.0245 495.266L-22.9201 495.222L-31.0111 503.327L-30.9663 503.223L-30.9663 542.838L-31.0111 542.734L-23.3227 550.428L-23.278 550.473L-23.278 550.533L-23.278 585.853L-23.278 585.913L-23.3227 585.958L-31.2348 593.884L-31.2795 593.921L-31.3392 593.921L-48.8262 593.921L-48.7218 593.884L-74.9859 620.188L-75.0232 620.232L-75.0903 620.232L-80.8771 620.232L-80.9367 620.232L-80.9815 620.188L-88.2597 612.896L-88.3044 612.852L-88.3044 612.792L-88.3044 604.963L-88.2597 605.067L-94.0837 599.233L-93.9793 599.278L-108.677 599.278L-108.737 599.278L-108.782 599.233L-114.472 593.533L-114.36 593.578L-167 593.578L-166.895 593.533L-178.76 605.426L-178.715 605.321L-178.715 631.842L-178.715 631.901L-178.76 631.946L-186.098 639.29L-186.053 639.185L-186.053 701.19L-186.098 701.085L-177.395 709.803L-177.499 709.759L-163.085 709.759L-163.018 709.759L-162.98 709.803L-154.524 718.267L-154.733 718.477Z" fill="#B2B2B2"/>
<path d="M15.8906 482.805C15.8906 484.247 14.7199 485.42 13.2806 485.42C11.8414 485.42 10.6706 484.247 10.6706 482.805C10.6706 481.363 11.8414 480.191 13.2806 480.191C14.7199 480.191 15.8906 481.363 15.8906 482.805ZM11.916 482.805C11.916 483.56 12.5274 484.172 13.2806 484.172C14.0338 484.172 14.6453 483.56 14.6453 482.805C14.6453 482.051 14.0338 481.438 13.2806 481.438C12.5274 481.438 11.916 482.051 11.916 482.805Z" fill="#B2B2B2"/>
</g>
<g clip-path="url(#clip1_144_4482)">
<path d="M1383.01 699.128L1383.01 699.24L1383.09 699.314L1383.01 699.128Z" fill="#D7D7D7"/>
<path d="M1361.98 677.531L1361.98 677.427L1361.91 677.352L1361.98 677.531Z" fill="#D7D7D7"/>
<path d="M1417.1 340.291L1417.18 340.373L1417.29 340.373L1417.1 340.291Z" fill="#D7D7D7"/>
<path d="M1353.24 340.373L1353.35 340.373L1353.43 340.291L1353.24 340.373Z" fill="#D7D7D7"/>
<path d="M1338.1 494.482L1338.1 494.37L1338.02 494.296L1338.1 494.482Z" fill="#D7D7D7"/>
<path d="M1361.45 518.403L1361.45 518.508L1361.53 518.59L1361.45 518.403Z" fill="#D7D7D7"/>
<path d="M1338.02 355.732L1338.1 355.658L1338.1 355.546L1338.02 355.732Z" fill="#D7D7D7"/>
<path d="M1515.6 353.357L1515.68 353.283L1515.6 353.462L1515.6 353.357L1501.33 367.656L1501.44 367.656L1501.26 367.731L1501.33 367.656L1445.16 367.656L1445.24 367.731L1445.05 367.656L1445.16 367.656L1417.47 339.918L1417.4 339.843L1417.29 339.843L1353.25 339.843L1353.14 339.843L1353.06 339.918L1337.65 355.36L1337.58 355.434L1337.58 355.546L1337.58 494.482L1337.58 494.587L1337.65 494.669L1361.46 518.507L1361.46 518.402L1361.53 518.589L1361.46 518.507L1361.46 677.531L1361.46 677.643L1361.53 677.718L1383.01 699.24L1383.01 699.128L1383.09 699.315L1383.01 699.24L1383.01 795.773L1383.54 795.773L1383.54 699.128L1383.54 699.023L1383.46 698.941L1361.98 677.426L1361.98 677.531L1361.9 677.352L1361.98 677.426L1361.98 518.402L1361.98 518.29L1361.9 518.216L1338.1 494.37L1338.1 494.482L1338.03 494.295L1338.1 494.37L1338.1 355.658L1338.03 355.733L1338.1 355.546L1338.1 355.658L1353.36 340.374L1353.25 340.374L1353.43 340.292L1353.36 340.374L1417.18 340.374L1417.1 340.292L1417.29 340.374L1417.18 340.374L1444.86 368.104L1444.94 368.179L1445.05 368.179L1501.44 368.179L1501.55 368.179L1501.63 368.104L1516.05 353.649L1516.13 353.574L1516.13 353.462L1516.13 330.901L1515.6 330.901L1515.6 353.357Z" fill="#D7D7D7"/>
<path d="M1377.47 488.349L1377.47 619.732L1377.47 619.837L1377.54 619.911L1392.41 634.807L1392.33 634.621L1392.33 667.028L1392.33 667.132L1392.41 667.214L1409.02 683.851L1409.09 683.926L1409.21 683.926L1439.8 683.926L1439.91 683.926L1439.99 683.851L1450.92 672.899L1450.74 672.982L1499.26 672.982L1499.36 672.982L1499.45 672.899L1517.15 655.164L1516.78 654.791L1499.07 672.533L1499.26 672.451L1450.74 672.451L1450.62 672.451L1450.55 672.533L1439.62 683.478L1439.8 683.403L1409.21 683.403L1409.39 683.478L1392.78 666.841L1392.85 667.028L1392.85 634.621L1392.85 634.509L1392.78 634.434L1377.92 619.545L1377.99 619.732L1377.99 488.349L1377.47 488.349Z" fill="#D7D7D7"/>
<path d="M1395.83 427.031L1395.83 554.037L1395.83 554.141L1395.91 554.223L1415.14 573.49L1415.06 573.303L1415.06 616.221L1415.59 616.221L1415.59 573.303L1415.59 573.198L1415.52 573.116L1396.28 553.85L1396.36 554.037L1396.36 427.031L1395.83 427.031Z" fill="#D7D7D7"/>
<path d="M1378.87 449.809L1378.87 420.905L1378.87 420.793L1378.79 420.719L1374.42 416.341L1374.49 416.528L1374.49 376.232L1374.42 376.419L1389.28 361.53L1389.09 361.612L1414.45 361.612L1414.27 361.53L1428.69 375.985L1428.61 375.799L1428.61 420.905L1428.61 421.017L1428.69 421.092L1445.08 437.512L1445.01 437.325L1445.01 522.504L1445.01 522.616L1445.08 522.691L1458.09 535.719L1458.01 535.532L1458.01 578.562L1458.01 578.667L1458.09 578.741L1487.76 608.466L1487.84 608.549L1487.94 608.549L1585.81 608.549L1585.63 608.466L1607.07 629.959L1607.44 629.585L1586 608.1L1585.92 608.018L1585.81 608.018L1487.94 608.018L1488.13 608.1L1458.46 578.375L1458.53 578.562L1458.53 535.532L1458.53 535.42L1458.46 535.345L1445.45 522.317L1445.54 522.504L1445.54 437.325L1445.54 437.221L1445.45 437.139L1429.06 420.719L1429.14 420.905L1429.14 375.799L1429.14 375.687L1429.06 375.612L1414.63 361.164L1414.56 361.082L1414.45 361.082L1389.09 361.082L1388.99 361.082L1388.91 361.164L1374.04 376.053L1373.97 376.127L1373.97 376.232L1373.97 416.528L1373.97 416.632L1374.04 416.714L1378.42 421.092L1378.34 420.905L1378.34 449.809L1378.87 449.809Z" fill="#D7D7D7"/>
<path d="M1341.01 702.932L1341.01 702.82L1340.94 702.745L1341.01 702.932Z" fill="#D7D7D7"/>
<path d="M1353.45 790.516L1353.45 790.411L1353.37 790.336L1353.45 790.516Z" fill="#D7D7D7"/>
<path d="M1321.52 497.105L1321.52 496.993L1321.45 496.919L1321.52 497.105Z" fill="#D7D7D7"/>
<path d="M1321.07 358.02L1321 358.094L1321 358.206L1321 497.105L1321 497.209L1321.07 497.292L1340.49 516.737L1340.49 516.633L1340.57 516.819L1340.49 516.737L1340.49 702.931L1340.49 703.043L1340.57 703.118L1361.6 724.192L1361.6 724.08L1361.68 724.267L1361.6 724.192L1361.6 766.759L1361.68 766.684L1361.6 766.871L1361.6 766.759L1353 775.38L1352.92 775.454L1352.92 775.566L1352.92 790.515L1352.92 790.627L1353 790.702L1441.26 879.122L1441.26 879.01L1441.34 879.197L1441.26 879.122L1441.26 912.261L1441.26 912.373L1441.34 912.448L1450.89 922.025L1450.89 921.913L1450.97 922.1L1450.89 922.025L1450.89 1012.11L1451.42 1012.11L1451.42 921.913L1451.42 921.808L1451.34 921.726L1441.78 912.149L1441.78 912.261L1441.71 912.074L1441.78 912.149L1441.78 879.01L1441.78 878.905L1441.71 878.831L1353.45 790.41L1353.45 790.515L1353.37 790.336L1353.45 790.41L1353.45 775.671L1353.37 775.753L1353.45 775.566L1353.45 775.671L1362.05 767.058L1362.13 766.975L1362.13 766.871L1362.13 724.08L1362.13 723.968L1362.05 723.893L1341.01 702.819L1341.01 702.931L1340.94 702.744L1341.01 702.819L1341.01 516.633L1341.01 516.521L1340.94 516.446L1321.52 496.993L1321.52 497.105L1321.45 496.918L1321.52 496.993L1321.52 358.311L1321.45 358.393L1321.52 358.206L1321.52 358.311L1348.88 330.902L1348.14 330.902L1321.07 358.02Z" fill="#D7D7D7"/>
<path d="M1321.45 358.393L1321.52 358.31L1321.52 358.206L1321.45 358.393Z" fill="#D7D7D7"/>
<path d="M1353.38 775.754L1353.45 775.672L1353.45 775.567L1353.38 775.754Z" fill="#D7D7D7"/>
<path d="M1361.6 724.081L1361.6 724.193L1361.68 724.268L1361.6 724.081Z" fill="#D7D7D7"/>
<path d="M1340.49 516.632L1340.49 516.736L1340.57 516.818L1340.49 516.632Z" fill="#D7D7D7"/>
<path d="M1361.68 766.684L1361.6 766.759L1361.6 766.871L1361.68 766.684Z" fill="#D7D7D7"/>
<path d="M1384.54 677.718L1419.51 712.747L1419.43 712.568L1419.43 817.67L1419.43 817.774L1419.51 817.857L1457.98 856.389L1457.9 856.203L1457.9 886.861L1458.42 886.861L1458.42 856.203L1458.42 856.098L1458.35 856.023L1419.88 817.483L1419.96 817.67L1419.96 712.568L1419.96 712.456L1419.88 712.381L1384.9 677.345L1384.54 677.718Z" fill="#D7D7D7"/>
<path d="M1434.37 700.488L1488.59 754.791L1488.51 754.612L1488.51 808.907L1488.51 809.019L1488.59 809.094L1502.57 823.108L1502.5 822.922L1502.5 889.491L1502.5 889.596L1502.57 889.678L1518.31 905.44L1518.23 905.254L1518.23 939.416L1518.31 939.229L1507.38 950.174L1507.31 950.256L1507.31 950.36L1507.31 1013.86L1507.83 1013.86L1507.83 950.36L1507.75 950.547L1518.68 939.603L1518.76 939.521L1518.76 939.416L1518.76 905.254L1518.76 905.149L1518.68 905.067L1502.94 889.304L1503.02 889.491L1503.02 822.922L1503.02 822.817L1502.94 822.735L1488.95 808.72L1489.04 808.907L1489.04 754.612L1489.04 754.5L1488.95 754.425L1434.75 700.115L1434.37 700.488Z" fill="#D7D7D7"/>
<path d="M1643.29 1013.21L1618.4 988.272L1618.48 988.459L1618.48 968.371L1618.4 968.558L1634.19 952.735L1634.27 952.66L1634.27 952.548L1634.27 896.385L1634.27 896.273L1634.19 896.199L1610.48 872.442L1610.4 872.368L1610.29 872.368L1581.66 872.368L1581.84 872.442L1566.33 856.896L1566.4 857.083L1566.4 817.228L1566.4 817.124L1566.33 817.041L1544.03 794.712L1544.11 794.899L1544.11 745.848L1544.11 745.736L1544.03 745.661L1533.54 735.15L1533.62 735.337L1533.62 712.567L1533.54 712.746L1547.09 699.172L1546.91 699.247L1584.94 699.247L1585.05 699.247L1585.12 699.172L1612.45 671.801L1612.52 671.726L1612.52 671.614L1612.52 650.375L1612.52 650.271L1612.45 650.189L1582.61 620.299L1582.54 620.225L1582.43 620.225L1479.14 620.225L1479.34 620.299L1446.6 587.511L1446.68 587.698L1446.68 547.903L1446.68 547.791L1446.6 547.716L1437.61 538.707L1437.54 538.632L1437.43 538.632L1424.94 538.632L1424.94 539.163L1437.43 539.163L1437.24 539.08L1446.23 548.09L1446.15 547.903L1446.15 587.698L1446.15 587.81L1446.23 587.885L1478.96 620.673L1479.04 620.755L1479.14 620.755L1582.43 620.755L1582.24 620.673L1612.07 650.562L1612 650.375L1612 671.614L1612.07 671.435L1584.75 698.799L1584.94 698.724L1546.91 698.724L1546.79 698.724L1546.72 698.799L1533.17 712.38L1533.09 712.455L1533.09 712.567L1533.09 735.337L1533.09 735.449L1533.17 735.524L1543.66 746.035L1543.58 745.848L1543.58 794.899L1543.58 795.004L1543.66 795.086L1565.95 817.415L1565.88 817.228L1565.88 857.083L1565.88 857.188L1565.95 857.27L1581.48 872.816L1581.55 872.891L1581.66 872.891L1610.29 872.891L1610.11 872.816L1633.82 896.572L1633.75 896.385L1633.75 952.548L1633.82 952.362L1618.03 968.184L1617.95 968.266L1617.95 968.371L1617.95 988.459L1617.95 988.571L1618.03 988.646L1642.93 1013.58L1643.29 1013.21Z" fill="#D7D7D7"/>
<path d="M1379.04 456.6C1376.5 456.6 1374.45 454.545 1374.45 452.005C1374.45 449.465 1376.5 447.403 1379.04 447.403C1381.58 447.403 1383.63 449.458 1383.63 452.005C1383.63 454.553 1381.58 456.6 1379.04 456.6Z" fill="#D7D7D7"/>
<path d="M1414.88 619.508C1412.35 619.508 1410.29 617.453 1410.29 614.914C1410.29 612.374 1412.34 610.312 1414.88 610.312C1417.43 610.312 1419.48 612.374 1419.48 614.914C1419.48 617.453 1417.43 619.508 1414.88 619.508Z" fill="#D7D7D7"/>
<path d="M1429.53 538.894C1429.53 536.353 1427.47 534.293 1424.94 534.293C1422.4 534.293 1420.34 536.353 1420.34 538.894C1420.34 541.436 1422.4 543.496 1424.94 543.496C1427.47 543.496 1429.53 541.436 1429.53 538.894Z" fill="#D7D7D7"/>
<path d="M1382.98 799.687C1380.44 799.687 1378.38 797.633 1378.38 795.086C1378.38 792.538 1380.43 790.484 1382.98 790.484C1385.52 790.484 1387.57 792.538 1387.57 795.086C1387.57 797.633 1385.52 799.687 1382.98 799.687Z" fill="#D7D7D7"/>
<path d="M1440.67 756.77C1438.14 756.77 1436.08 754.715 1436.08 752.168C1436.08 749.62 1438.13 747.566 1440.67 747.566C1443.21 747.566 1445.27 749.62 1445.27 752.168C1445.27 754.715 1443.21 756.77 1440.67 756.77Z" fill="#D7D7D7"/>
<path d="M1400.67 424.193C1400.67 421.653 1398.62 419.591 1396.08 419.591C1393.54 419.591 1391.48 421.646 1391.48 424.193C1391.48 426.741 1393.54 428.795 1396.08 428.795C1398.61 428.795 1400.67 426.733 1400.67 424.193ZM1393.68 424.193C1393.68 422.863 1394.76 421.78 1396.09 421.78C1397.41 421.78 1398.49 422.856 1398.49 424.193C1398.49 425.53 1397.42 426.599 1396.09 426.599C1394.75 426.599 1393.68 425.523 1393.68 424.193Z" fill="#D7D7D7"/>
<path d="M1382.98 485.719C1382.98 483.179 1380.92 481.117 1378.38 481.117C1375.85 481.117 1373.79 483.179 1373.79 485.719C1373.79 488.258 1375.84 490.32 1378.38 490.32C1380.93 490.32 1382.98 488.258 1382.98 485.719ZM1375.98 485.719C1375.98 484.389 1377.06 483.313 1378.39 483.313C1379.72 483.313 1380.79 484.389 1380.79 485.719C1380.79 487.048 1379.72 488.124 1378.39 488.124C1377.06 488.124 1375.98 487.048 1375.98 485.719Z" fill="#D7D7D7"/>
<path d="M1386.47 675.783C1386.47 673.243 1384.42 671.189 1381.87 671.189C1379.33 671.189 1377.28 673.25 1377.28 675.783C1377.28 678.315 1379.34 680.385 1381.87 680.385C1384.41 680.385 1386.47 678.323 1386.47 675.783ZM1379.48 675.783C1379.48 674.453 1380.55 673.377 1381.88 673.377C1383.21 673.377 1384.29 674.453 1384.29 675.783C1384.29 677.113 1383.22 678.188 1381.88 678.188C1380.55 678.188 1379.48 677.113 1379.48 675.783Z" fill="#D7D7D7"/>
<path d="M1437.62 698.119C1437.62 695.579 1435.57 693.517 1433.02 693.517C1430.48 693.517 1428.43 695.579 1428.43 698.119C1428.43 700.659 1430.49 702.721 1433.02 702.721C1435.56 702.721 1437.62 700.659 1437.62 698.119ZM1430.62 698.119C1430.62 696.789 1431.7 695.713 1433.02 695.713C1434.35 695.713 1435.43 696.789 1435.43 698.119C1435.43 699.449 1434.36 700.524 1433.02 700.524C1431.69 700.524 1430.62 699.449 1430.62 698.119Z" fill="#D7D7D7"/>
<path d="M1594.73 718.477L1603.19 710.013L1603.08 710.057L1617.5 710.057L1617.56 710.057L1617.6 710.013L1626.31 701.294L1626.35 701.25L1626.35 701.19L1626.35 639.185L1626.35 639.125L1626.31 639.08L1618.97 631.737L1619.01 631.842L1619.01 605.321L1619.01 605.254L1618.97 605.217L1607.1 593.324L1607.06 593.279L1607 593.279L1554.36 593.279L1554.3 593.279L1554.26 593.324L1548.57 599.016L1548.68 598.979L1533.98 598.979L1533.92 598.979L1533.87 599.016L1528.05 604.858L1528.01 604.903L1528.01 604.963L1528.01 612.792L1528.05 612.687L1520.77 619.978L1520.88 619.934L1515.09 619.934L1515.19 619.978L1488.94 593.667L1488.89 593.623L1488.83 593.623L1471.34 593.623L1471.44 593.667L1463.54 585.749L1463.58 585.853L1463.58 550.533L1463.54 550.645L1471.22 542.943L1471.26 542.898L1471.26 542.838L1471.26 503.223L1471.26 503.163L1471.22 503.118L1463.13 495.012L1463.08 494.968L1463.02 494.968L1438.53 494.968L1438.63 495.012L1427.51 483.874L1427.3 484.083L1438.42 495.222L1438.47 495.266L1438.53 495.266L1463.02 495.266L1462.92 495.222L1471.01 503.327L1470.97 503.223L1470.97 542.838L1471.01 542.734L1463.32 550.428L1463.28 550.473L1463.28 550.533L1463.28 585.853L1463.28 585.913L1463.32 585.958L1471.23 593.884L1471.28 593.921L1471.34 593.921L1488.83 593.921L1488.72 593.884L1514.99 620.188L1515.02 620.232L1515.09 620.232L1520.88 620.232L1520.94 620.232L1520.98 620.188L1528.26 612.896L1528.3 612.852L1528.3 612.792L1528.3 604.963L1528.26 605.067L1534.08 599.233L1533.98 599.278L1548.68 599.278L1548.74 599.278L1548.78 599.233L1554.47 593.533L1554.36 593.578L1607 593.578L1606.9 593.533L1618.76 605.426L1618.71 605.321L1618.71 631.842L1618.71 631.901L1618.76 631.946L1626.1 639.29L1626.05 639.185L1626.05 701.19L1626.1 701.085L1617.4 709.803L1617.5 709.759L1603.08 709.759L1603.02 709.759L1602.98 709.803L1594.52 718.267L1594.73 718.477Z" fill="#B2B2B2"/>
<path d="M1424.11 482.805C1424.11 484.247 1425.28 485.42 1426.72 485.42C1428.16 485.42 1429.33 484.247 1429.33 482.805C1429.33 481.363 1428.16 480.191 1426.72 480.191C1425.28 480.191 1424.11 481.363 1424.11 482.805ZM1428.08 482.805C1428.08 483.56 1427.47 484.172 1426.72 484.172C1425.97 484.172 1425.35 483.56 1425.35 482.805C1425.35 482.051 1425.97 481.438 1426.72 481.438C1427.47 481.438 1428.08 482.051 1428.08 482.805Z" fill="#B2B2B2"/>
</g>
<g filter="url(#filter0_d_144_4482)">
<path d="M0.015625 -369.43L1401.88 -369.43L1401.88 -20.0875L957.582 -20.0876L916.136 45.9043L387.4 45.9043L345.974 -20.0876L0.0156097 -20.0876L0.015625 -369.43Z" fill="white"/>
</g>
<g filter="url(#filter1_d_144_4482)">
<path d="M19.5703 -349.867L1382.32 -349.867L1382.32 -39.6429L946.761 -39.6429L905.316 26.3489L398.212 26.3489L356.786 -39.643L19.5703 -39.643L19.5703 -349.867Z" fill="#ADBECC"/>
</g>
<g filter="url(#filter2_d_144_4482)">
<path d="M1441 -369.43L39.1328 -369.43L39.1328 -20.0876L483.433 -20.0876L524.879 45.9043L1053.62 45.9043L1095.04 -20.0876L1441 -20.0875L1441 -369.43Z" fill="white"/>
</g>
<g filter="url(#filter3_d_144_4482)">
<path d="M1421.44 -349.867L58.6953 -349.867L58.6953 -39.643L494.253 -39.643L535.699 26.3489L1042.8 26.3489L1084.23 -39.6429L1421.44 -39.6429L1421.44 -349.867Z" fill="#ADBECC"/>
</g>
<g filter="url(#filter4_d_144_4482)">
<path d="M494.489 65.4518L453.044 -0.54005L-1.69801e-05 -0.54007L0 -389L1440.98 -389L1440.98 -0.540007L987.941 -0.540026L946.496 65.4518L494.489 65.4518Z" fill="white"/>
</g>
<defs>
<filter id="filter0_d_144_4482" x="-9.98438" y="-379.43" width="1421.87" height="435.334" filterUnits="userSpaceOnUse" color-interpolation-filters="sRGB">
<feFlood flood-opacity="0" result="BackgroundImageFix"/>
<feColorMatrix in="SourceAlpha" type="matrix" values="0 0 0 0 0 0 0 0 0 0 0 0 0 0 0 0 0 0 127 0" result="hardAlpha"/>
<feOffset/>
<feGaussianBlur stdDeviation="5"/>
<feColorMatrix type="matrix" values="0 0 0 0 0 0 0 0 0 0 0 0 0 0 0 0 0 0 0.15 0"/>
<feBlend mode="normal" in2="BackgroundImageFix" result="effect1_dropShadow_144_4482"/>
<feBlend mode="normal" in="SourceGraphic" in2="effect1_dropShadow_144_4482" result="shape"/>
</filter>
<filter id="filter1_d_144_4482" x="9.57031" y="-359.867" width="1382.75" height="396.216" filterUnits="userSpaceOnUse" color-interpolation-filters="sRGB">
<feFlood flood-opacity="0" result="BackgroundImageFix"/>
<feColorMatrix in="SourceAlpha" type="matrix" values="0 0 0 0 0 0 0 0 0 0 0 0 0 0 0 0 0 0 127 0" result="hardAlpha"/>
<feOffset/>
<feGaussianBlur stdDeviation="5"/>
<feColorMatrix type="matrix" values="0 0 0 0 0 0 0 0 0 0 0 0 0 0 0 0 0 0 0.15 0"/>
<feBlend mode="normal" in2="BackgroundImageFix" result="effect1_dropShadow_144_4482"/>
<feBlend mode="normal" in="SourceGraphic" in2="effect1_dropShadow_144_4482" result="shape"/>
</filter>
<filter id="filter2_d_144_4482" x="29.1328" y="-379.43" width="1421.87" height="435.334" filterUnits="userSpaceOnUse" color-interpolation-filters="sRGB">
<feFlood flood-opacity="0" result="BackgroundImageFix"/>
<feColorMatrix in="SourceAlpha" type="matrix" values="0 0 0 0 0 0 0 0 0 0 0 0 0 0 0 0 0 0 127 0" result="hardAlpha"/>
<feOffset/>
<feGaussianBlur stdDeviation="5"/>
<feColorMatrix type="matrix" values="0 0 0 0 0 0 0 0 0 0 0 0 0 0 0 0 0 0 0.15 0"/>
<feBlend mode="normal" in2="BackgroundImageFix" result="effect1_dropShadow_144_4482"/>
<feBlend mode="normal" in="SourceGraphic" in2="effect1_dropShadow_144_4482" result="shape"/>
</filter>
<filter id="filter3_d_144_4482" x="48.6953" y="-359.867" width="1382.75" height="396.216" filterUnits="userSpaceOnUse" color-interpolation-filters="sRGB">
<feFlood flood-opacity="0" result="BackgroundImageFix"/>
<feColorMatrix in="SourceAlpha" type="matrix" values="0 0 0 0 0 0 0 0 0 0 0 0 0 0 0 0 0 0 127 0" result="hardAlpha"/>
<feOffset/>
<feGaussianBlur stdDeviation="5"/>
<feColorMatrix type="matrix" values="0 0 0 0 0 0 0 0 0 0 0 0 0 0 0 0 0 0 0.15 0"/>
<feBlend mode="normal" in2="BackgroundImageFix" result="effect1_dropShadow_144_4482"/>
<feBlend mode="normal" in="SourceGraphic" in2="effect1_dropShadow_144_4482" result="shape"/>
</filter>
<filter id="filter4_d_144_4482" x="-10" y="-399" width="1460.98" height="474.452" filterUnits="userSpaceOnUse" color-interpolation-filters="sRGB">
<feFlood flood-opacity="0" result="BackgroundImageFix"/>
<feColorMatrix in="SourceAlpha" type="matrix" values="0 0 0 0 0 0 0 0 0 0 0 0 0 0 0 0 0 0 127 0" result="hardAlpha"/>
<feOffset/>
<feGaussianBlur stdDeviation="5"/>
<feColorMatrix type="matrix" values="0 0 0 0 0 0 0 0 0 0 0 0 0 0 0 0 0 0 0.15 0"/>
<feBlend mode="normal" in2="BackgroundImageFix" result="effect1_dropShadow_144_4482"/>
<feBlend mode="normal" in="SourceGraphic" in2="effect1_dropShadow_144_4482" result="shape"/>
</filter>
<clipPath id="clip0_144_4482">
<rect width="695" height="493" fill="white" transform="matrix(4.37114e-08 -1 -1 -4.37114e-08 119 1019.99)"/>
</clipPath>
<clipPath id="clip1_144_4482">
<rect width="695" height="493" fill="white" transform="translate(1321 1019.99) rotate(-90)"/>
</clipPath>
</defs>
</svg>
