<svg width="16" height="18" viewBox="0 0 16 18" fill="none" xmlns="http://www.w3.org/2000/svg">
<g clip-path="url(#clip0_4454_72621)">
<path d="M6.86694 6.34766C4.57094 6.34766 2.71094 8.20766 2.71094 10.5037C2.71094 12.7997 4.57094 14.6597 6.86694 14.6597C9.16294 14.6597 11.0229 12.7997 11.0229 10.5037C11.0229 8.20766 9.16294 6.34766 6.86694 6.34766ZM7.00694 10.1837C7.57094 10.3637 8.41894 10.6357 8.39894 11.8197C8.34694 12.5397 7.87494 13.0797 7.20694 13.2477V13.8397H6.35094V13.2477C5.51094 13.0357 5.24294 12.2117 5.25894 11.5837L6.02294 11.5437C6.09094 11.9677 6.09094 12.5157 6.90294 12.4877C7.24694 12.4557 7.49494 12.2317 7.53094 11.7717C7.53894 11.2277 7.35894 11.1397 6.75894 10.9477C6.18694 10.7637 5.40294 10.5117 5.33494 9.43166C5.31494 8.61166 5.77894 8.08766 6.35094 7.88366V7.17166H7.20694V7.81166C7.85894 7.93166 8.44294 8.44366 8.47094 9.34766L7.66694 9.37166C7.64694 8.77566 7.23494 8.58766 6.89094 8.58366C6.60294 8.59166 6.12294 8.77166 6.13894 9.39966C6.17094 9.89566 6.44294 10.0037 7.00294 10.1837H7.00694Z" fill="#FF7928"/>
<path d="M9.41719 14.9614L8.99719 15.1414C8.36919 15.4134 7.70119 15.5494 7.01319 15.5494C4.23319 15.5494 1.96919 13.2894 1.96919 10.5054C1.96919 7.72137 4.23319 5.46938 7.00919 5.46537H7.35319L7.50119 4.03737L7.51719 3.61737L7.09719 3.60938C7.06919 3.60938 7.04119 3.60938 7.01319 3.60938C3.21319 3.60938 0.117188 6.70537 0.117188 10.5094C0.117188 14.3134 3.21319 17.4094 7.01719 17.4094C7.88119 17.4094 8.73319 17.2454 9.54919 16.9214L9.85719 16.7974L9.41719 14.9614Z" fill="url(#paint0_linear_4454_72621)"/>
<path d="M11.9111 2.80078L9.37109 6.05678C10.8151 6.82478 11.8431 8.27678 12.0231 9.97678L15.8351 8.72478C15.7231 6.10878 14.1511 3.87278 11.9111 2.80078Z" fill="url(#paint1_linear_4454_72621)"/>
<path d="M12.0744 11.5352C11.8904 12.3632 11.4984 13.1552 10.8984 13.8152L13.2064 15.6792C14.1344 14.6272 14.6784 13.3512 14.8544 12.0272L12.0744 11.5352Z" fill="url(#paint2_linear_4454_72621)"/>
</g>
<defs>
<linearGradient id="paint0_linear_4454_72621" x1="-0.726812" y1="17.9414" x2="17.5292" y2="-0.314626" gradientUnits="userSpaceOnUse">
<stop stop-color="white"/>
<stop offset="0.49" stop-color="#969696"/>
</linearGradient>
<linearGradient id="paint1_linear_4454_72621" x1="17.7111" y1="4.50478" x2="6.22709" y2="8.26878" gradientUnits="userSpaceOnUse">
<stop stop-color="white"/>
<stop offset="0.49" stop-color="#FF7928"/>
</linearGradient>
<linearGradient id="paint2_linear_4454_72621" x1="16.7784" y1="14.9192" x2="8.86244" y2="11.8432" gradientUnits="userSpaceOnUse">
<stop stop-color="white"/>
<stop offset="0.49" stop-color="#FF7928"/>
</linearGradient>
<clipPath id="clip0_4454_72621">
<rect width="15.716" height="14.604" fill="white" transform="translate(0.117188 2.80078)"/>
</clipPath>
</defs>
</svg>
