<svg width="48" height="48" viewBox="0 0 48 48" fill="none" xmlns="http://www.w3.org/2000/svg">
<g clip-path="url(#clip0_4814_10884)">
<path d="M23.9836 25.3176C26.5807 25.3176 28.686 22.7316 28.686 19.5416C28.686 16.3516 26.5807 13.7656 23.9836 13.7656C21.3866 13.7656 19.2812 16.3516 19.2812 19.5416C19.2812 22.7316 21.3866 25.3176 23.9836 25.3176Z" stroke="url(#paint0_linear_4814_10884)" stroke-width="1.2" stroke-miterlimit="10"/>
<path d="M31.4617 18.0859H16.4922V31.6699H31.4617V18.0859Z" fill="url(#paint1_linear_4814_10884)" stroke="url(#paint2_linear_4814_10884)" stroke-width="0.8" stroke-miterlimit="10"/>
<path d="M23.9874 39.0739C32.83 39.0739 39.9983 32.0251 39.9983 23.3299C39.9983 14.6348 32.83 7.58594 23.9874 7.58594C15.1449 7.58594 7.97656 14.6348 7.97656 23.3299C7.97656 32.0251 15.1449 39.0739 23.9874 39.0739Z" stroke="#FF7928" stroke-width="1.168" stroke-miterlimit="10"/>
<path d="M8.12443 19.9416H1.84375V13.7656" stroke="#FF7928" stroke-width="1.168" stroke-miterlimit="10"/>
<path d="M8.12615 24.875H4.35938" stroke="#FF7928" stroke-width="1.168" stroke-miterlimit="10"/>
<path d="M9.38717 29.8203H4.35938V33.5243" stroke="#FF7928" stroke-width="1.168" stroke-miterlimit="10"/>
<path d="M1.84663 13.7609C2.53858 13.7609 3.09951 13.2093 3.09951 12.5289C3.09951 11.8485 2.53858 11.2969 1.84663 11.2969C1.15468 11.2969 0.59375 11.8485 0.59375 12.5289C0.59375 13.2093 1.15468 13.7609 1.84663 13.7609Z" stroke="#FF7928" stroke-width="1.168" stroke-miterlimit="10"/>
<path d="M3.10444 26.1046C3.79639 26.1046 4.35733 25.553 4.35733 24.8726C4.35733 24.1922 3.79639 23.6406 3.10444 23.6406C2.4125 23.6406 1.85156 24.1922 1.85156 24.8726C1.85156 25.553 2.4125 26.1046 3.10444 26.1046Z" stroke="#FF7928" stroke-width="1.168" stroke-miterlimit="10"/>
<path d="M4.36226 35.9874C5.0542 35.9874 5.61514 35.4359 5.61514 34.7554C5.61514 34.075 5.0542 33.5234 4.36226 33.5234C3.67031 33.5234 3.10938 34.075 3.10938 34.7554C3.10938 35.4359 3.67031 35.9874 4.36226 35.9874Z" stroke="#FF7928" stroke-width="1.168" stroke-miterlimit="10"/>
<path d="M39.5234 19.9416H45.8041V13.7656" stroke="#FF7928" stroke-width="1.168" stroke-miterlimit="10"/>
<path d="M39.5234 24.875H43.2902" stroke="#FF7928" stroke-width="1.168" stroke-miterlimit="10"/>
<path d="M38.2656 29.8203H43.2853V33.5243" stroke="#FF7928" stroke-width="1.168" stroke-miterlimit="10"/>
<path d="M45.7998 13.7609C46.4917 13.7609 47.0526 13.2093 47.0526 12.5289C47.0526 11.8485 46.4917 11.2969 45.7998 11.2969C45.1078 11.2969 44.5469 11.8485 44.5469 12.5289C44.5469 13.2093 45.1078 13.7609 45.7998 13.7609Z" stroke="#FF7928" stroke-width="1.168" stroke-miterlimit="10"/>
<path d="M44.5498 26.1046C45.2417 26.1046 45.8026 25.553 45.8026 24.8726C45.8026 24.1922 45.2417 23.6406 44.5498 23.6406C43.8578 23.6406 43.2969 24.1922 43.2969 24.8726C43.2969 25.553 43.8578 26.1046 44.5498 26.1046Z" stroke="#FF7928" stroke-width="1.168" stroke-miterlimit="10"/>
<path d="M43.2919 35.9874C43.9839 35.9874 44.5448 35.4359 44.5448 34.7554C44.5448 34.075 43.9839 33.5234 43.2919 33.5234C42.6 33.5234 42.0391 34.075 42.0391 34.7554C42.0391 35.4359 42.6 35.9874 43.2919 35.9874Z" stroke="#FF7928" stroke-width="1.168" stroke-miterlimit="10"/>
<path d="M24.1406 39.7031V43.4071" stroke="#FF7928" stroke-width="1.216" stroke-miterlimit="10"/>
<path d="M29.1641 38.4609V43.4049H32.9308" stroke="#FF7928" stroke-width="1.216" stroke-miterlimit="10"/>
<path d="M19.1215 38.4609V46.4929H14.0938" stroke="#FF7928" stroke-width="1.216" stroke-miterlimit="10"/>
<path d="M12.831 47.1046C13.523 47.1046 14.0839 46.553 14.0839 45.8726C14.0839 45.1922 13.523 44.6406 12.831 44.6406C12.1391 44.6406 11.5781 45.1922 11.5781 45.8726C11.5781 46.553 12.1391 47.1046 12.831 47.1046Z" stroke="#FF7928" stroke-width="1.168" stroke-miterlimit="10"/>
<path d="M24.1357 45.8703C24.8276 45.8703 25.3886 45.3187 25.3886 44.6383C25.3886 43.9578 24.8276 43.4062 24.1357 43.4062C23.4437 43.4062 22.8828 43.9578 22.8828 44.6383C22.8828 45.3187 23.4437 45.8703 24.1357 45.8703Z" stroke="#FF7928" stroke-width="1.168" stroke-miterlimit="10"/>
<path d="M34.1826 44.6359C34.8745 44.6359 35.4355 44.0843 35.4355 43.4039C35.4355 42.7235 34.8745 42.1719 34.1826 42.1719C33.4906 42.1719 32.9297 42.7235 32.9297 43.4039C32.9297 44.0843 33.4906 44.6359 34.1826 44.6359Z" stroke="#FF7928" stroke-width="1.168" stroke-miterlimit="10"/>
<path d="M23.5156 7.59462V3.89062" stroke="#FF7928" stroke-width="1.216" stroke-miterlimit="10"/>
<path d="M18.173 8.83462V3.89062H14.4062" stroke="#FF7928" stroke-width="1.216" stroke-miterlimit="10"/>
<path d="M28.8438 8.20487V0.796875H33.237" stroke="#FF7928" stroke-width="1.088" stroke-miterlimit="10"/>
<path d="M34.5029 2.64369C35.1948 2.64369 35.7558 2.0921 35.7558 1.41169C35.7558 0.731273 35.1948 0.179688 34.5029 0.179688C33.8109 0.179688 33.25 0.731273 33.25 1.41169C33.25 2.0921 33.8109 2.64369 34.5029 2.64369Z" stroke="#FF7928" stroke-width="1.168" stroke-miterlimit="10"/>
<path d="M23.1982 3.88588C23.8901 3.88588 24.4511 3.33429 24.4511 2.65387C24.4511 1.97346 23.8901 1.42188 23.1982 1.42188C22.5062 1.42188 21.9453 1.97346 21.9453 2.65387C21.9453 3.33429 22.5062 3.88588 23.1982 3.88588Z" stroke="#FF7928" stroke-width="1.168" stroke-miterlimit="10"/>
<path d="M13.1513 5.12025C13.8433 5.12025 14.4042 4.56867 14.4042 3.88825C14.4042 3.20784 13.8433 2.65625 13.1513 2.65625C12.4594 2.65625 11.8984 3.20784 11.8984 3.88825C11.8984 4.56867 12.4594 5.12025 13.1513 5.12025Z" stroke="#FF7928" stroke-width="1.168" stroke-miterlimit="10"/>
<path d="M26.3383 21.7891H22.1484V24.8771H26.3383V21.7891Z" fill="white"/>
<path d="M25.2862 23.8594H23.1953V27.9794H25.2862V23.8594Z" fill="white"/>
</g>
<defs>
<linearGradient id="paint0_linear_4814_10884" x1="18.6711" y1="19.5416" x2="29.2962" y2="19.5416" gradientUnits="userSpaceOnUse">
<stop stop-color="white"/>
<stop offset="0.49" stop-color="#969696"/>
</linearGradient>
<linearGradient id="paint1_linear_4814_10884" x1="23.9769" y1="31.6699" x2="23.9769" y2="18.0859" gradientUnits="userSpaceOnUse">
<stop stop-color="white"/>
<stop offset="0.49" stop-color="#969696"/>
</linearGradient>
<linearGradient id="paint2_linear_4814_10884" x1="16.0854" y1="24.8779" x2="31.8685" y2="24.8779" gradientUnits="userSpaceOnUse">
<stop stop-color="white"/>
<stop offset="0.49" stop-color="#969696"/>
</linearGradient>
<clipPath id="clip0_4814_10884">
<rect width="48" height="48" fill="white"/>
</clipPath>
</defs>
</svg>
