<svg width="48" height="48" viewBox="0 0 48 48" fill="none" xmlns="http://www.w3.org/2000/svg">
<path d="M44.2609 9.64901C41.6275 9.34269 38.1163 8.62285 34.2194 6.86152C29.6442 4.80919 26.2261 2.09828 23.9917 0C21.744 2.09828 18.3392 4.79387 13.764 6.86152C9.86706 8.60753 6.34256 9.34269 3.72246 9.64901C3.00426 13.0645 2.17966 19.3133 4.09486 26.3586C8.36416 42.0728 22.409 47.418 24.005 48C25.5877 47.4333 39.6325 42.0728 43.9151 26.3586C45.8303 19.3133 45.0057 13.0645 44.2875 9.64901H44.2609ZM36.9326 25.5316C34.1529 35.7473 25.0158 39.2393 23.9784 39.6069C22.941 39.2393 13.8039 35.7473 11.0242 25.5316C9.77396 20.9521 10.3193 16.8781 10.7848 14.6573C12.5005 14.4582 14.7881 13.9834 17.3151 12.85C20.2943 11.5176 22.5154 9.75622 23.9784 8.39311C25.4414 9.75622 27.6492 11.5176 30.6417 12.85C33.182 13.9834 35.4696 14.4582 37.172 14.6573C37.6375 16.8781 38.1828 20.9368 36.9326 25.5316Z" fill="url(#paint0_linear_4449_9805)"/>
<defs>
<linearGradient id="paint0_linear_4449_9805" x1="2.89786" y1="24.0153" x2="45.0722" y2="24.0153" gradientUnits="userSpaceOnUse">
<stop stop-color="#FF7928"/>
<stop offset="0.14" stop-color="#FFA36B"/>
<stop offset="0.46" stop-color="#FFDDC8"/>
<stop offset="0.84" stop-color="#FF8E49"/>
<stop offset="0.9" stop-color="#FF9453"/>
<stop offset="1" stop-color="#FF8B45"/>
</linearGradient>
</defs>
</svg>
