<svg width="48" height="49" viewBox="0 0 48 49" fill="none" xmlns="http://www.w3.org/2000/svg">
<g clip-path="url(#clip0_4449_9912)">
<path d="M22.6661 48.4454C23.8969 48.4454 24.8946 47.4477 24.8946 46.2169C24.8946 44.986 23.8969 43.9883 22.6661 43.9883C21.4353 43.9883 20.4375 44.986 20.4375 46.2169C20.4375 47.4477 21.4353 48.4454 22.6661 48.4454Z" fill="#969696"/>
<path d="M43.9083 48.4454C45.1391 48.4454 46.1368 47.4477 46.1368 46.2169C46.1368 44.986 45.1391 43.9883 43.9083 43.9883C42.6775 43.9883 41.6797 44.986 41.6797 46.2169C41.6797 47.4477 42.6775 48.4454 43.9083 48.4454Z" fill="#969696"/>
<path d="M2.22857 48.4454C3.45938 48.4454 4.45714 47.4477 4.45714 46.2169C4.45714 44.986 3.45938 43.9883 2.22857 43.9883C0.997765 43.9883 0 44.986 0 46.2169C0 47.4477 0.997765 48.4454 2.22857 48.4454Z" fill="#969696"/>
<path d="M42.5497 45.7559H3.12109V46.6644H42.5497V45.7559Z" fill="#969696"/>
<path d="M23.1289 45.4286L23.1289 6H22.2032L22.2032 45.4286H23.1289Z" fill="#969696"/>
<path d="M0.550781 0V12.7371H46.4594V0H0.550781ZM6.55078 7.2H4.8365V5.55429H6.55078V7.2ZM9.6365 7.2H7.92221V5.55429H9.6365V7.2ZM12.7222 7.2H11.0079V5.55429H12.7222V7.2ZM41.6765 7.2H23.8308V5.55429H41.6594V7.2H41.6765Z" fill="url(#paint0_linear_4449_9912)"/>
<path d="M0.550781 14.5039V27.241H46.4594V14.5039H0.550781ZM6.53364 21.7039H4.81935V20.0582H6.53364V21.7039ZM9.61935 21.7039H7.90507V20.0582H9.61935V21.7039ZM12.7051 21.7039H10.9908V20.0582H12.7051V21.7039ZM41.6594 21.7039H23.8308V20.0582H41.6594V21.7039Z" fill="url(#paint1_linear_4449_9912)"/>
<path d="M0.550781 28.9883V41.7254H46.4594V28.9883H0.550781ZM6.53364 36.1883H4.81935V34.5426H6.53364V36.1883ZM9.61935 36.1883H7.90507V34.5426H9.61935V36.1883ZM12.7051 36.1883H10.9908V34.5426H12.7051V36.1883ZM41.6594 36.1883H23.8308V34.5426H41.6594V36.1883Z" fill="url(#paint2_linear_4449_9912)"/>
</g>
<defs>
<linearGradient id="paint0_linear_4449_9912" x1="7.9565" y1="-9.18857" x2="50.6251" y2="33.4971" gradientUnits="userSpaceOnUse">
<stop offset="0.67" stop-color="#FF7928"/>
<stop offset="1" stop-color="white"/>
</linearGradient>
<linearGradient id="paint1_linear_4449_9912" x1="0.705068" y1="-1.93609" x2="43.3736" y2="40.7325" gradientUnits="userSpaceOnUse">
<stop offset="0.67" stop-color="#FF7928"/>
<stop offset="1" stop-color="white"/>
</linearGradient>
<linearGradient id="paint2_linear_4449_9912" x1="-9.64922" y1="7.16542" x2="42.3108" y2="51.3597" gradientUnits="userSpaceOnUse">
<stop offset="0.7" stop-color="#FF7928"/>
<stop offset="1" stop-color="white"/>
</linearGradient>
<clipPath id="clip0_4449_9912">
<rect width="46.4571" height="48.4457" fill="white"/>
</clipPath>
</defs>
</svg>
