<svg width="48" height="48" viewBox="0 0 48 48" fill="none" xmlns="http://www.w3.org/2000/svg">
<g clip-path="url(#clip0_4449_9697)">
<path d="M38.1018 20.2611V20.2175H37.6072C37.6072 16.3629 34.4799 13.2357 30.6254 13.2357C29.0836 13.2357 27.6727 13.7593 26.509 14.6029C24.8218 11.1266 21.3018 8.72656 17.1999 8.72656C11.4545 8.72656 6.79994 13.3811 6.79994 19.1266C6.79994 20.4211 7.06176 21.6429 7.49813 22.792C4.07994 23.7666 1.57812 26.8793 1.57812 30.6175C1.57812 35.1411 5.24358 38.8066 9.76722 38.8066H22.0145V31.5338H17.4472L24.2399 24.7411L31.0327 31.5338H26.4654V38.8066H37.3308C37.4181 38.8066 37.5054 38.8357 37.6072 38.8357C37.709 38.8357 37.7818 38.8066 37.8836 38.8066H38.1018V38.7775C43.0036 38.5157 46.9163 34.4866 46.9163 29.5266C46.9163 24.5666 43.0036 20.5375 38.1018 20.2757V20.2611Z" fill="url(#paint0_linear_4449_9697)"/>
</g>
<defs>
<linearGradient id="paint0_linear_4449_9697" x1="24.2545" y1="11.3157" x2="24.2545" y2="45.3375" gradientUnits="userSpaceOnUse">
<stop stop-color="#FF7928"/>
<stop offset="0.95" stop-color="#FFE4C3"/>
</linearGradient>
<clipPath id="clip0_4449_9697">
<rect width="45.3382" height="30.0945" fill="white" transform="translate(1.57812 8.72656)"/>
</clipPath>
</defs>
</svg>
