<svg width="164" height="29" viewBox="0 0 164 29" fill="none" xmlns="http://www.w3.org/2000/svg">
<path d="M163.583 -1.3001e-06L142.625 14.9019L133.84 14.9019L154.796 -9.16034e-07L163.583 -1.3001e-06Z" fill="#CBCBCB"/>
<path d="M148.715 -1.30009e-06L127.758 14.9019L118.973 14.9019L139.929 -9.16034e-07L148.715 -1.30009e-06Z" fill="#CBCBCB"/>
<path d="M133.84 -1.30009e-06L112.884 14.9019L104.098 14.9019L125.054 -9.16034e-07L133.84 -1.30009e-06Z" fill="#CBCBCB"/>
<path d="M118.969 -1.30009e-06L98.0128 14.9019L89.2266 14.9019L110.183 -9.16033e-07L118.969 -1.30009e-06Z" fill="#CBCBCB"/>
<path d="M104.098 -1.30009e-06L83.1418 14.9019L74.3555 14.9019L95.3119 -9.16035e-07L104.098 -1.30009e-06Z" fill="#CBCBCB"/>
<path d="M89.2232 -1.30009e-06L68.2668 14.9019L59.4805 14.9019L80.4381 -9.16088e-07L89.2232 -1.30009e-06Z" fill="#CBCBCB"/>
<path d="M74.356 -1.30009e-06L53.3996 14.9019L44.6133 14.9019L65.5709 -9.16088e-07L74.356 -1.30009e-06Z" fill="#CBCBCB"/>
<path d="M59.4849 -1.30009e-06L38.5285 14.9019L29.7422 14.9019L50.6998 -9.16088e-07L59.4849 -1.30009e-06Z" fill="#CBCBCB"/>
<path d="M44.6138 -1.30009e-06L23.6574 14.9019L14.8711 14.9019L35.8287 -9.16088e-07L44.6138 -1.30009e-06Z" fill="#CBCBCB"/>
<path d="M29.7415 -1.30004e-06L8.78506 14.9019L6.51381e-07 14.9019L20.9564 -9.16034e-07L29.7415 -1.30004e-06Z" fill="#CBCBCB"/>
</svg>
