<svg width="25" height="24" viewBox="0 0 25 24" fill="none" xmlns="http://www.w3.org/2000/svg">
<g clip-path="url(#clip0_4027_14636)">
<path d="M15.0442 4.01586V1.32617H0.152344V16.9513H3.05904V4.01586H15.0442Z" fill="url(#paint0_linear_4027_14636)"/>
<path d="M22.1498 18.6829L19.8613 21.8822L15.521 18.7026L14.5312 15.5756L17.8062 15.5L22.1498 18.6829Z" fill="url(#paint1_linear_4027_14636)"/>
<path d="M22.4329 18.8622L20.1445 22.0645L21.862 23.2918L24.1504 20.0895L22.4329 18.8622Z" fill="url(#paint2_linear_4027_14636)"/>
<path d="M14.6583 18.7176L14.3328 17.5108H6.4479V16.3534H14.0204L13.7705 15.4295H6.4479V14.272H16.9239V14.7094L17.7755 14.7258L19.1335 15.7846V5.11133H4.23828V20.7365H17.2461L14.6616 18.7176H14.6583ZM6.4479 8.03447H15.043V9.19189H6.4479V8.03447ZM6.4479 10.1158H16.9239V11.2733H6.4479V10.1158ZM6.4479 12.1972H15.043V13.3547H6.4479V12.1972Z" fill="url(#paint3_linear_4027_14636)"/>
</g>
<defs>
<linearGradient id="paint0_linear_4027_14636" x1="7.59994" y1="20.3151" x2="7.59994" y2="1.36892" gradientUnits="userSpaceOnUse">
<stop stop-color="white"/>
<stop offset="0.31" stop-color="#969696"/>
</linearGradient>
<linearGradient id="paint1_linear_4027_14636" x1="28.1474" y1="28.008" x2="4.32492" y2="4.18557" gradientUnits="userSpaceOnUse">
<stop stop-color="white"/>
<stop offset="0.49" stop-color="#969696"/>
</linearGradient>
<linearGradient id="paint2_linear_4027_14636" x1="8.81234" y1="11.5455" x2="26.1238" y2="23.9165" gradientUnits="userSpaceOnUse">
<stop stop-color="white"/>
<stop offset="0.49" stop-color="#FF7928"/>
</linearGradient>
<linearGradient id="paint3_linear_4027_14636" x1="11.6859" y1="26.1093" x2="11.6859" y2="7.44261" gradientUnits="userSpaceOnUse">
<stop stop-color="white"/>
<stop offset="0.49" stop-color="#FF7928"/>
</linearGradient>
<clipPath id="clip0_4027_14636">
<rect width="24" height="21.9647" fill="white" transform="translate(0.152344 1.32617)"/>
</clipPath>
</defs>
</svg>
