<svg width="20" height="20" viewBox="0 0 20 20" fill="none" xmlns="http://www.w3.org/2000/svg">
<g clip-path="url(#clip0_3692_71729)">
<path d="M19.9519 14.0375L9.99938 20.0092L0.046875 14.0375L4.76688 11.2058L5.99854 12.41L3.28604 14.0375L10.0002 18.0658L16.7144 14.0375L14.001 12.41L15.2327 11.2058L19.9535 14.0383L19.9519 14.0375ZM5.88104 9.96417C3.60104 7.68333 3.60104 3.9825 5.87438 1.70833C6.97604 0.606667 8.44188 0 9.99938 0C11.5569 0 13.0227 0.606667 14.1235 1.70833C15.2252 2.81 15.8327 4.275 15.8327 5.83333C15.8327 7.39167 15.2252 8.85583 14.1235 9.95833L9.99938 13.9925L5.88104 9.96417ZM7.05271 8.77917L9.99938 11.6608L12.9519 8.7725C13.7327 7.99167 14.166 6.94583 14.166 5.8325C14.166 4.71917 13.7319 3.67333 12.9452 2.88583C12.1585 2.09833 11.1127 1.66583 9.99938 1.66583C8.88604 1.66583 7.83938 2.09917 7.05271 2.88583C6.27255 3.66788 5.83441 4.72743 5.83441 5.83208C5.83441 6.93673 6.27255 7.99629 7.05271 8.77833V8.77917ZM9.99938 8.325C10.3277 8.325 10.6528 8.26034 10.9561 8.1347C11.2594 8.00906 11.535 7.82491 11.7671 7.59277C11.9993 7.36062 12.1834 7.08502 12.3091 6.78171C12.4347 6.47839 12.4994 6.15331 12.4994 5.825C12.4994 5.4967 12.4347 5.17161 12.3091 4.86829C12.1834 4.56498 11.9993 4.28938 11.7671 4.05723C11.535 3.82509 11.2594 3.64094 10.9561 3.5153C10.6528 3.38966 10.3277 3.325 9.99938 3.325C9.33633 3.325 8.70045 3.58839 8.23161 4.05723C7.76277 4.52607 7.49938 5.16196 7.49938 5.825C7.49938 6.48804 7.76277 7.12393 8.23161 7.59277C8.70045 8.06161 9.33633 8.325 9.99938 8.325Z" fill="#F37021"/>
</g>
<defs>
<clipPath id="clip0_3692_71729">
<rect width="20" height="20" fill="white"/>
</clipPath>
</defs>
</svg>
