<svg width="794" height="520" viewBox="0 0 794 520" fill="none" xmlns="http://www.w3.org/2000/svg">
<g clip-path="url(#clip0_3692_76459)">
<path d="M529.127 145.153V255.446H271.086V0.195312H284.112V3.33917H286.819V12.7965H301.292V19.1049H329.99V25.3978H334.586V34.8603H346.609V50.6105H381.226V69.5201H387.515V66.3659H393.809V67.912H400.104V72.6742H425.281V85.2754H431.571V110.488H475.627V123.089H478.776V145.153H529.127Z" stroke="#FF5800" stroke-width="0.75" stroke-miterlimit="10"/>
<path d="M330.875 94.7285H296.258V104.181H330.875V94.7285Z" stroke="#FF5800" stroke-width="0.75" stroke-miterlimit="10"/>
<path d="M328.431 70.0918H281.23V79.544H328.431V70.0918Z" stroke="#FF5800" stroke-width="0.75" stroke-miterlimit="10"/>
<path d="M362.599 70.0918H333.211V79.544H362.599V70.0918Z" stroke="#FF5800" stroke-width="0.75" stroke-miterlimit="10"/>
<path d="M378.075 94.7285H356.047V104.181H378.075V94.7285Z" stroke="#FF5800" stroke-width="0.75" stroke-miterlimit="10"/>
<path d="M310.289 49.8887H275.672V59.3409H310.289V49.8887Z" stroke="#FF5800" stroke-width="0.75" stroke-miterlimit="10"/>
<path d="M324.829 34.5312H277.629V43.9834H324.829V34.5312Z" stroke="#FF5800" stroke-width="0.75" stroke-miterlimit="10"/>
<path d="M338.446 49.8887H316.418V59.3409H338.446V49.8887Z" stroke="#FF5800" stroke-width="0.75" stroke-miterlimit="10"/>
<path d="M352.902 116.787H318.285V126.239H352.902V116.787Z" stroke="#FF5800" stroke-width="0.75" stroke-miterlimit="10"/>
<path d="M415.837 116.787H368.637V126.239H415.837V116.787Z" stroke="#FF5800" stroke-width="0.75" stroke-miterlimit="10"/>
<path d="M475.629 116.787H441.012V126.239H475.629V116.787Z" stroke="#FF5800" stroke-width="0.75" stroke-miterlimit="10"/>
<path d="M417.618 146.035H395.59V155.487H417.618V146.035Z" stroke="#FF5800" stroke-width="0.75" stroke-miterlimit="10"/>
<path d="M371.988 146.035H337.371V155.487H371.988V146.035Z" stroke="#FF5800" stroke-width="0.75" stroke-miterlimit="10"/>
<path d="M320.063 146.035H298.035V155.487H320.063V146.035Z" stroke="#FF5800" stroke-width="0.75" stroke-miterlimit="10"/>
<path d="M341.89 159.332H307.273V168.784H341.89V159.332Z" stroke="#FF5800" stroke-width="0.75" stroke-miterlimit="10"/>
<path d="M392.24 160.904H368.637V170.356H392.24V160.904Z" stroke="#FF5800" stroke-width="0.75" stroke-miterlimit="10"/>
<path d="M379.647 186.115H330.871V195.567H379.647V186.115Z" stroke="#FF5800" stroke-width="0.75" stroke-miterlimit="10"/>
<path d="M447.304 186.115H409.543V195.567H447.304V186.115Z" stroke="#FF5800" stroke-width="0.75" stroke-miterlimit="10"/>
<path d="M516.539 186.115H478.777V195.567H516.539V186.115Z" stroke="#FF5800" stroke-width="0.75" stroke-miterlimit="10"/>
<path d="M455.167 160.904H418.98V170.356H455.167V160.904Z" stroke="#FF5800" stroke-width="0.75" stroke-miterlimit="10"/>
<path d="M527.546 160.904H491.359V170.356H527.546V160.904Z" stroke="#FF5800" stroke-width="0.75" stroke-miterlimit="10"/>
<path d="M323.007 209.752H288.391V219.204H323.007V209.752Z" stroke="#FF5800" stroke-width="0.75" stroke-miterlimit="10"/>
<path d="M379.65 211.324H356.047V220.776H379.65V211.324Z" stroke="#FF5800" stroke-width="0.75" stroke-miterlimit="10"/>
<path d="M436.292 211.324H400.105V220.776H436.292V211.324Z" stroke="#FF5800" stroke-width="0.75" stroke-miterlimit="10"/>
<path d="M489.784 211.324H453.598V220.776H489.784V211.324Z" stroke="#FF5800" stroke-width="0.75" stroke-miterlimit="10"/>
<path d="M529.125 257.012V255.445" stroke="#FF5800" stroke-width="0.75" stroke-miterlimit="10"/>
<path d="M478.071 128.336H428.426V154.605H529.126" stroke="#FF5800" stroke-width="0.75" stroke-miterlimit="10"/>
<path d="M475.827 111.52H270.988V116.673H475.827V111.52Z" stroke="#FF5800" stroke-width="0.75" stroke-miterlimit="10"/>
<path d="M428.478 131.619H270.988V143.473H428.478V131.619Z" stroke="#FF5800" stroke-width="0.75" stroke-miterlimit="10"/>
<path d="M509.28 226.965H284.883V255.311H509.28V226.965Z" stroke="#FF5800" stroke-width="0.75" stroke-miterlimit="10"/>
<path d="M528.839 200.166H270.988V206.351H528.839V200.166Z" stroke="#FF5800" stroke-width="0.75" stroke-miterlimit="10"/>
<path d="M528.841 171.818H272.02V177.488H528.841V171.818Z" stroke="#FF5800" stroke-width="0.75" stroke-miterlimit="10"/>
<path d="M300.325 226.965H292.09V255.311H300.325V226.965Z" stroke="#FF5800" stroke-width="0.75" stroke-miterlimit="10"/>
<path d="M332.75 226.965H324.516V255.311H332.75V226.965Z" stroke="#FF5800" stroke-width="0.75" stroke-miterlimit="10"/>
<path d="M365.172 226.965H356.938V255.311H365.172V226.965Z" stroke="#FF5800" stroke-width="0.75" stroke-miterlimit="10"/>
<path d="M397.598 226.965H389.363V255.311H397.598V226.965Z" stroke="#FF5800" stroke-width="0.75" stroke-miterlimit="10"/>
<path d="M430.024 226.965H421.789V255.311H430.024V226.965Z" stroke="#FF5800" stroke-width="0.75" stroke-miterlimit="10"/>
<path d="M462.446 226.965H454.211V255.311H462.446V226.965Z" stroke="#FF5800" stroke-width="0.75" stroke-miterlimit="10"/>
<path d="M494.871 226.965H486.637V255.311H494.871V226.965Z" stroke="#FF5800" stroke-width="0.75" stroke-miterlimit="10"/>
<path d="M232.901 141.215L0.269531 147.595V519.54L232.901 292.481V141.215Z" stroke="#FF5800" stroke-width="0.75" stroke-miterlimit="10"/>
<path d="M248.855 140.777V276.911L270.986 255.311V140.174L248.855 140.777Z" stroke="#FF5800" stroke-width="0.75" stroke-miterlimit="10"/>
<path d="M20.3427 205.835L0.785156 209.458V183.153L20.3427 180.844V205.835Z" stroke="#FF5800" stroke-width="0.75" stroke-miterlimit="10"/>
<path d="M99.6016 195.012L55.3398 203.804V179.55L99.6016 173.938V195.012Z" stroke="#FF5800" stroke-width="0.75" stroke-miterlimit="10"/>
<path d="M168.569 184.699L134.086 192.075V172.335L168.569 167.594V184.699Z" stroke="#FF5800" stroke-width="0.75" stroke-miterlimit="10"/>
<path d="M206.656 178.52L193.789 181.442V166.661L206.656 164.697V178.52Z" stroke="#FF5800" stroke-width="0.75" stroke-miterlimit="10"/>
<path d="M229.033 173.938L215.98 176.953V163.826L229.033 161.77V173.938Z" stroke="#FF5800" stroke-width="0.75" stroke-miterlimit="10"/>
<path d="M269.446 165.629L257.094 168.886V158.934L269.446 156.584V165.629Z" stroke="#FF5800" stroke-width="0.75" stroke-miterlimit="10"/>
<path d="M4.38672 323.342L56.3171 298.604V265.047L4.38672 284.647V323.342Z" stroke="#FF5800" stroke-width="0.75" stroke-miterlimit="10"/>
<path d="M123.164 267.141L83.5703 286.056V254.983L123.164 240.006V267.141Z" stroke="#FF5800" stroke-width="0.75" stroke-miterlimit="10"/>
<path d="M170.467 244.077L139.617 258.75V234.429L170.467 222.684V244.077Z" stroke="#FF5800" stroke-width="0.75" stroke-miterlimit="10"/>
<path d="M206.464 227.301L183.324 238.346V217.236L206.464 208.484V227.301Z" stroke="#FF5800" stroke-width="0.75" stroke-miterlimit="10"/>
<path d="M232.685 214.297L217.77 221.374V205.072L232.685 199.361V214.297Z" stroke="#FF5800" stroke-width="0.75" stroke-miterlimit="10"/>
<path d="M270.472 197.403L253.766 205.284V190.775L270.472 183.941V197.403Z" stroke="#FF5800" stroke-width="0.75" stroke-miterlimit="10"/>
<path d="M193.787 166.666H188.641V181.612H193.787V166.666Z" stroke="#FF5800" stroke-width="0.75" stroke-miterlimit="10"/>
<path d="M215.984 163.902H211.285V176.967H215.984V163.902Z" stroke="#FF5800" stroke-width="0.75" stroke-miterlimit="10"/>
<path d="M257.092 158.936H251.945V168.728H257.092V158.936Z" stroke="#FF5800" stroke-width="0.75" stroke-miterlimit="10"/>
<path d="M134.084 172.334H124.82V191.919H134.084V172.334Z" stroke="#FF5800" stroke-width="0.75" stroke-miterlimit="10"/>
<path d="M55.3413 179.551H43.5039V203.774H55.3413V179.551Z" stroke="#FF5800" stroke-width="0.75" stroke-miterlimit="10"/>
<path d="M83.5723 254.859H65.5742V286.154H83.5723V254.859Z" stroke="#FF5800" stroke-width="0.75" stroke-miterlimit="10"/>
<path d="M139.62 234.449H127.793V258.94H139.62V234.449Z" stroke="#FF5800" stroke-width="0.75" stroke-miterlimit="10"/>
<path d="M183.326 217.215H173.043V238.531H183.326V217.215Z" stroke="#FF5800" stroke-width="0.75" stroke-miterlimit="10"/>
<path d="M217.771 204.969H209.547V221.296H217.771V204.969Z" stroke="#FF5800" stroke-width="0.75" stroke-miterlimit="10"/>
<path d="M248.859 204.908L253.769 205.423V190.91L248.859 190.395V204.908Z" stroke="#FF5800" stroke-width="0.75" stroke-miterlimit="10"/>
<path d="M0.199219 420.798L52.5156 383.412V349.85L0.199219 382.108V420.798Z" stroke="#FF5800" stroke-width="0.75" stroke-miterlimit="10"/>
<path d="M119.856 335.666L79.9688 364.218V333.145L119.856 308.525V335.666Z" stroke="#FF5800" stroke-width="0.75" stroke-miterlimit="10"/>
<path d="M167.509 301.074L136.434 323.262V298.946L167.509 279.686V301.074Z" stroke="#FF5800" stroke-width="0.75" stroke-miterlimit="10"/>
<path d="M203.77 275.53L180.461 292.213V271.103L203.77 256.719V275.53Z" stroke="#FF5800" stroke-width="0.75" stroke-miterlimit="10"/>
<path d="M230.191 256.141L215.168 266.846V250.549L230.191 241.205V256.141Z" stroke="#FF5800" stroke-width="0.75" stroke-miterlimit="10"/>
<path d="M269.444 229.548L251.426 241.989V227.481L269.444 216.086V229.548Z" stroke="#FF5800" stroke-width="0.75" stroke-miterlimit="10"/>
<path d="M62.043 358.384L79.969 364.316V333.022L62.043 327.09V358.384Z" stroke="#FF5800" stroke-width="0.75" stroke-miterlimit="10"/>
<path d="M124.328 321.704L136.433 323.451V298.96L124.328 297.213V321.704Z" stroke="#FF5800" stroke-width="0.75" stroke-miterlimit="10"/>
<path d="M170.66 289.209L180.465 292.394V271.083L170.66 267.893V289.209Z" stroke="#FF5800" stroke-width="0.75" stroke-miterlimit="10"/>
<path d="M207.207 264.64L215.169 266.769V250.441L207.207 248.312V264.64Z" stroke="#FF5800" stroke-width="0.75" stroke-miterlimit="10"/>
<path d="M248.902 241.422L251.424 242.128V227.614L248.902 226.908V241.422Z" stroke="#FF5800" stroke-width="0.75" stroke-miterlimit="10"/>
<path d="M248.859 285.719L242.168 292.239V141.411L248.859 141.215V285.719Z" stroke="#FF5800" stroke-width="0.75" stroke-miterlimit="10"/>
<path d="M242.166 141.412H232.902V292.421H242.166V141.412Z" stroke="#FF5800" stroke-width="0.75" stroke-miterlimit="10"/>
<path d="M232.902 186.766L0.785156 259.425V265.099L232.902 189.075V186.766Z" stroke="#FF5800" stroke-width="0.75" stroke-miterlimit="10"/>
<path d="M270.99 175.422L248.859 182.457V184.699L270.99 177.324V175.422Z" stroke="#FF5800" stroke-width="0.75" stroke-miterlimit="10"/>
<path d="M232.901 176.973L0.269531 235.505V173.88L232.901 151.904V176.973Z" stroke="#FF5800" stroke-width="0.75" stroke-miterlimit="10"/>
<path d="M248.859 150.652L270.99 148.385" stroke="#FF5800" stroke-width="0.75" stroke-miterlimit="10"/>
<path d="M248.859 173.066L270.99 167.695" stroke="#FF5800" stroke-width="0.75" stroke-miterlimit="10"/>
<path d="M232.901 219.75L0.269531 340.691V279.019L232.901 194.666V219.75Z" stroke="#FF5800" stroke-width="0.75" stroke-miterlimit="10"/>
<path d="M248.902 213.133L270.987 199.949" stroke="#FF5800" stroke-width="0.75" stroke-miterlimit="10"/>
<path d="M270.987 140.38L0.269531 148.256V119.76L270.987 131.557V140.38Z" stroke="#FF5800" stroke-width="0.75" stroke-miterlimit="10"/>
<path d="M270.987 140.375L0.269531 148.256V119.76L270.987 131.557V140.375Z" stroke="#FF5800" stroke-width="0.75" stroke-miterlimit="10"/>
<path d="M193.789 126.466L161.879 124.796V108.422L193.789 112.359V126.466Z" stroke="#FF5800" stroke-width="0.75" stroke-miterlimit="10"/>
<path d="M232.904 128.522L206.656 127.157V113.576L232.904 116.869V128.522Z" stroke="#FF5800" stroke-width="0.75" stroke-miterlimit="10"/>
<path d="M254.52 129.557L242.168 128.902V117.188L254.52 118.801V129.557Z" stroke="#FF5800" stroke-width="0.75" stroke-miterlimit="10"/>
<path d="M269.445 130.588L258.637 130.037V119.76L269.445 121.141V130.588Z" stroke="#FF5800" stroke-width="0.75" stroke-miterlimit="10"/>
<path d="M152.613 94.5121L270.473 115.323V110.484L152.613 84.998V94.5121Z" stroke="#FF5800" stroke-width="0.75" stroke-miterlimit="10"/>
<path d="M210.258 61.0054L270.474 86.0841V82.1363L210.258 55.1094V61.0054Z" stroke="#FF5800" stroke-width="0.75" stroke-miterlimit="10"/>
<path d="M228.784 97.5984L198.418 90.316V73.8906L228.784 83.75V97.5984Z" stroke="#FF5800" stroke-width="0.75" stroke-miterlimit="10"/>
<path d="M254.003 102.757L238.562 98.9486V86.2598L254.003 91.3415V102.757Z" stroke="#FF5800" stroke-width="0.75" stroke-miterlimit="10"/>
<path d="M270.473 108.426L262.238 106.503V92.959L270.473 95.7369V108.426Z" stroke="#FF5800" stroke-width="0.75" stroke-miterlimit="10"/>
<path d="M245.255 66.165L228.785 58.2487V47.0957L245.255 56.1304V66.165Z" stroke="#FF5800" stroke-width="0.75" stroke-miterlimit="10"/>
<path d="M262.241 73.8901L248.859 67.4168V58.4336L262.241 65.7418V73.8901Z" stroke="#FF5800" stroke-width="0.75" stroke-miterlimit="10"/>
<path d="M270.474 79.0448L264.812 76.3648V66.1602L270.474 69.2989V79.0448Z" stroke="#FF5800" stroke-width="0.75" stroke-miterlimit="10"/>
<path d="M270.988 66.1652L228.785 41.5864V36.2676L270.988 62.2173V66.1652Z" stroke="#FF5800" stroke-width="0.75" stroke-miterlimit="10"/>
<path d="M255.549 49.1575L242.168 40.5763V30.6035L255.549 40.066V49.1575Z" stroke="#FF5800" stroke-width="0.75" stroke-miterlimit="10"/>
<path d="M269.445 57.9197L258.637 50.9774V41.9375L269.445 49.6116V57.9197Z" stroke="#FF5800" stroke-width="0.75" stroke-miterlimit="10"/>
<path d="M228.784 97.6041L198.418 90.3166V86.2656L228.784 94.182V97.6041Z" stroke="#FF5800" stroke-width="0.75" stroke-miterlimit="10"/>
<path d="M254.003 102.758L238.562 98.9492V96.0527L254.003 100.15V102.758Z" stroke="#FF5800" stroke-width="0.75" stroke-miterlimit="10"/>
<path d="M270.988 108.427L262.238 106.376V103.783L270.988 106.01V108.427Z" stroke="#FF5800" stroke-width="0.75" stroke-miterlimit="10"/>
<path d="M245.255 66.1591L228.785 58.2479V55.3359L245.255 63.5461V66.1591Z" stroke="#FF5800" stroke-width="0.75" stroke-miterlimit="10"/>
<path d="M124.309 114.096L152.616 96.5262V94.5059L124.309 111.792V114.096Z" stroke="#FF5800" stroke-width="0.75" stroke-miterlimit="10"/>
<path d="M124.307 116.431V116.674L104.234 116.431V118.735L124.307 118.689V118.735L152.613 101.166V99.1504L124.307 116.431Z" stroke="#FF5800" stroke-width="0.75" stroke-miterlimit="10"/>
<path d="M176.422 77.6795L209.999 56.8578V54.8633L176.422 75.4066V77.6795Z" stroke="#FF5800" stroke-width="0.75" stroke-miterlimit="10"/>
<path d="M176.422 79.9867V80.2238L152.613 82.4399V84.718L176.422 82.2183V82.2647L209.999 61.4379V59.4434L176.422 79.9867Z" stroke="#FF5800" stroke-width="0.75" stroke-miterlimit="10"/>
<path d="M90.8516 115.127L104.233 116.091V124.404L90.8516 123.822V115.127Z" stroke="#FF5800" stroke-width="0.75" stroke-miterlimit="10"/>
<path d="M9.82812 120.178V104.186H137.42" stroke="#FF5800" stroke-width="0.75" stroke-miterlimit="10"/>
<path d="M98.0069 94.7276V85.2754H123.18H152.614V94.7276H85.4181V97.5983H82.2734V104.185" stroke="#FF5800" stroke-width="0.75" stroke-miterlimit="10"/>
<path d="M123.18 85.2758V78.9727H126.329H177.678" stroke="#FF5800" stroke-width="0.75" stroke-miterlimit="10"/>
<path d="M176.421 66.3711H126.328V78.9775H176.421V66.3711Z" stroke="#FF5800" stroke-width="0.75" stroke-miterlimit="10"/>
<path d="M191.472 60.2324H129.418V66.0872H191.472V60.2324Z" stroke="#FF5800" stroke-width="0.75" stroke-miterlimit="10"/>
<path d="M200.734 50.9551H145.371V60.4176H200.734V50.9551Z" stroke="#FF5800" stroke-width="0.75" stroke-miterlimit="10"/>
<path d="M213.603 41.6797H154.637V51.1422H213.603V41.6797Z" stroke="#FF5800" stroke-width="0.75" stroke-miterlimit="10"/>
<path d="M222.866 36.0098H166.988V41.8646H222.866V36.0098Z" stroke="#FF5800" stroke-width="0.75" stroke-miterlimit="10"/>
<path d="M229.042 31.3711H160.297V36.0096H229.042V31.3711Z" stroke="#FF5800" stroke-width="0.75" stroke-miterlimit="10"/>
<path d="M232.129 22.0938H176.766V31.3707H232.129V22.0938Z" stroke="#FF5800" stroke-width="0.75" stroke-miterlimit="10"/>
<path d="M239.336 15.9102H192.723V22.0948H239.336V15.9102Z" stroke="#FF5800" stroke-width="0.75" stroke-miterlimit="10"/>
<path d="M243.966 9.72461H195.809V15.9093H243.966V9.72461Z" stroke="#FF5800" stroke-width="0.75" stroke-miterlimit="10"/>
<path d="M209.23 0.195312L201.988 4.8338V9.72998H248.602L248.859 0.195312H209.23Z" stroke="#FF5800" stroke-width="0.75" stroke-miterlimit="10"/>
<path d="M214.375 56.8882L228.786 41.5864V36.2676L210 54.8627L214.375 56.8882Z" stroke="#FF5800" stroke-width="0.75" stroke-miterlimit="10"/>
<path d="M228.785 36.2673L256.016 0.195312H270.988" stroke="#FF5800" stroke-width="0.75" stroke-miterlimit="10"/>
<path d="M284.114 0.195312H248.859" stroke="#FF5800" stroke-width="0.75" stroke-miterlimit="10"/>
<path d="M567.105 146.457L799.737 152.745V519.541L567.105 295.626V146.457Z" stroke="#FF5800" stroke-width="0.75" stroke-miterlimit="10"/>
<path d="M551.15 146.024V280.267L529.02 258.966V145.426L551.15 146.024Z" stroke="#FF5800" stroke-width="0.75" stroke-miterlimit="10"/>
<path d="M779.664 205.835L799.222 209.458V183.158L779.664 180.844V205.835Z" stroke="#FF5800" stroke-width="0.75" stroke-miterlimit="10"/>
<path d="M700.406 195.012L744.668 203.804V179.55L700.406 173.938V195.012Z" stroke="#FF5800" stroke-width="0.75" stroke-miterlimit="10"/>
<path d="M631.438 184.698L665.92 192.073V172.333L631.438 167.592V184.698Z" stroke="#FF5800" stroke-width="0.75" stroke-miterlimit="10"/>
<path d="M593.352 178.513L606.218 181.44V166.659L593.352 164.695V178.513Z" stroke="#FF5800" stroke-width="0.75" stroke-miterlimit="10"/>
<path d="M570.977 173.937L584.029 176.952V163.825L570.977 161.764V173.937Z" stroke="#FF5800" stroke-width="0.75" stroke-miterlimit="10"/>
<path d="M530.562 165.629L542.915 168.886V158.929L530.562 156.584V165.629Z" stroke="#FF5800" stroke-width="0.75" stroke-miterlimit="10"/>
<path d="M795.618 323.342L743.688 298.604V265.047L795.618 284.647V323.342Z" stroke="#FF5800" stroke-width="0.75" stroke-miterlimit="10"/>
<path d="M676.844 267.139L716.437 286.054V254.981L676.844 240.004V267.139Z" stroke="#FF5800" stroke-width="0.75" stroke-miterlimit="10"/>
<path d="M629.539 244.075L660.388 258.748V234.427L629.539 222.682V244.075Z" stroke="#FF5800" stroke-width="0.75" stroke-miterlimit="10"/>
<path d="M593.543 227.301L616.683 238.346V217.236L593.543 208.484V227.301Z" stroke="#FF5800" stroke-width="0.75" stroke-miterlimit="10"/>
<path d="M567.32 214.297L582.235 221.374V205.072L567.32 199.361V214.297Z" stroke="#FF5800" stroke-width="0.75" stroke-miterlimit="10"/>
<path d="M529.535 197.403L546.241 205.284V190.775L529.535 183.941V197.403Z" stroke="#FF5800" stroke-width="0.75" stroke-miterlimit="10"/>
<path d="M606.224 181.611H611.371V166.665H606.224V181.611Z" stroke="#FF5800" stroke-width="0.75" stroke-miterlimit="10"/>
<path d="M584.024 176.973H588.723V163.908H584.024V176.973Z" stroke="#FF5800" stroke-width="0.75" stroke-miterlimit="10"/>
<path d="M542.92 168.727H548.066V158.934H542.92V168.727Z" stroke="#FF5800" stroke-width="0.75" stroke-miterlimit="10"/>
<path d="M665.927 191.914H675.191V172.329H665.927V191.914Z" stroke="#FF5800" stroke-width="0.75" stroke-miterlimit="10"/>
<path d="M744.67 203.768H756.508V179.544H744.67V203.768Z" stroke="#FF5800" stroke-width="0.75" stroke-miterlimit="10"/>
<path d="M716.436 286.146H734.434V254.852H716.436V286.146Z" stroke="#FF5800" stroke-width="0.75" stroke-miterlimit="10"/>
<path d="M660.388 258.936H672.215V234.444H660.388V258.936Z" stroke="#FF5800" stroke-width="0.75" stroke-miterlimit="10"/>
<path d="M616.689 238.525H626.973V217.209H616.689V238.525Z" stroke="#FF5800" stroke-width="0.75" stroke-miterlimit="10"/>
<path d="M582.236 221.291H590.461V204.964H582.236V221.291Z" stroke="#FF5800" stroke-width="0.75" stroke-miterlimit="10"/>
<path d="M551.152 204.906L546.242 205.421V190.908L551.152 190.393V204.906Z" stroke="#FF5800" stroke-width="0.75" stroke-miterlimit="10"/>
<path d="M799.814 420.798L747.492 383.412V349.85L799.814 382.108V420.798Z" stroke="#FF5800" stroke-width="0.75" stroke-miterlimit="10"/>
<path d="M680.152 335.666L720.039 364.218V333.145L680.152 308.525V335.666Z" stroke="#FF5800" stroke-width="0.75" stroke-miterlimit="10"/>
<path d="M632.5 301.072L663.576 323.26V298.944L632.5 279.684V301.072Z" stroke="#FF5800" stroke-width="0.75" stroke-miterlimit="10"/>
<path d="M596.234 275.53L619.544 292.213V271.103L596.234 256.719V275.53Z" stroke="#FF5800" stroke-width="0.75" stroke-miterlimit="10"/>
<path d="M569.816 256.141L584.84 266.846V250.549L569.816 241.205V256.141Z" stroke="#FF5800" stroke-width="0.75" stroke-miterlimit="10"/>
<path d="M530.562 229.548L548.581 241.989V227.481L530.562 216.086V229.548Z" stroke="#FF5800" stroke-width="0.75" stroke-miterlimit="10"/>
<path d="M737.965 358.384L720.039 364.316V333.022L737.965 327.09V358.384Z" stroke="#FF5800" stroke-width="0.75" stroke-miterlimit="10"/>
<path d="M675.679 321.704L663.574 323.451V298.96L675.679 297.213V321.704Z" stroke="#FF5800" stroke-width="0.75" stroke-miterlimit="10"/>
<path d="M629.351 289.209L619.547 292.394V271.083L629.351 267.893V289.209Z" stroke="#FF5800" stroke-width="0.75" stroke-miterlimit="10"/>
<path d="M592.802 264.64L584.84 266.769V250.441L592.802 248.312V264.64Z" stroke="#FF5800" stroke-width="0.75" stroke-miterlimit="10"/>
<path d="M551.104 241.422L548.582 242.128V227.614L551.104 226.908V241.422Z" stroke="#FF5800" stroke-width="0.75" stroke-miterlimit="10"/>
<path d="M551.152 288.956L557.843 295.383V146.643L551.152 146.457V288.956Z" stroke="#FF5800" stroke-width="0.75" stroke-miterlimit="10"/>
<path d="M557.845 295.562H567.109V146.647H557.845V295.562Z" stroke="#FF5800" stroke-width="0.75" stroke-miterlimit="10"/>
<path d="M567.105 186.76L799.222 259.424V265.104L567.105 189.074V186.76Z" stroke="#FF5800" stroke-width="0.75" stroke-miterlimit="10"/>
<path d="M529.02 175.422L551.15 182.457V184.699L529.02 177.324V175.422Z" stroke="#FF5800" stroke-width="0.75" stroke-miterlimit="10"/>
<path d="M567.105 181.714L799.737 239.437V178.663L567.105 156.996V181.714Z" stroke="#FF5800" stroke-width="0.75" stroke-miterlimit="10"/>
<path d="M551.15 155.759L529.02 153.527" stroke="#FF5800" stroke-width="0.75" stroke-miterlimit="10"/>
<path d="M551.15 173.067L529.02 167.691" stroke="#FF5800" stroke-width="0.75" stroke-miterlimit="10"/>
<path d="M567.105 219.745L799.737 340.691V279.019L567.105 194.666V219.745Z" stroke="#FF5800" stroke-width="0.75" stroke-miterlimit="10"/>
<path d="M551.104 213.133L529.02 199.949" stroke="#FF5800" stroke-width="0.75" stroke-miterlimit="10"/>
<path d="M425.389 83.168H270.473V86.2603H425.389V83.168Z" stroke="#FF5800" stroke-width="0.75" stroke-miterlimit="10"/>
<path d="M381.128 62.041H270.988V66.1641H381.128V62.041Z" stroke="#FF5800" stroke-width="0.75" stroke-miterlimit="10"/>
</g>
<defs>
<clipPath id="clip0_3692_76459">
<rect width="800" height="520" fill="white"/>
</clipPath>
</defs>
</svg>
