<svg width="922" height="444" viewBox="0 0 922 444" fill="none" xmlns="http://www.w3.org/2000/svg">
<path d="M158.285 102.34H117.117V148.375H158.285V102.34Z" stroke="#FF5800" stroke-width="0.7" stroke-miterlimit="10"/>
<path d="M208.591 47.1367H162.852V93.1721H208.591V47.1367Z" stroke="#FF5800" stroke-width="0.7" stroke-miterlimit="10"/>
<path d="M258.872 97.7422H213.133V143.778H258.872V97.7422Z" stroke="#FF5800" stroke-width="0.7" stroke-miterlimit="10"/>
<path d="M208.591 157.578H162.852V203.613H208.591V157.578Z" stroke="#FF5800" stroke-width="0.7" stroke-miterlimit="10"/>
<path d="M213.161 272.617H167.422V318.653H213.161V272.617Z" stroke="#FF5800" stroke-width="0.7" stroke-miterlimit="10"/>
<path d="M258.872 212.812H213.133V258.848H258.872V212.812Z" stroke="#FF5800" stroke-width="0.7" stroke-miterlimit="10"/>
<path d="M309.177 157.578H263.438V203.613H309.177V157.578Z" stroke="#FF5800" stroke-width="0.7" stroke-miterlimit="10"/>
<path d="M309.177 47.1367H263.438V93.1721H309.177V47.1367Z" stroke="#FF5800" stroke-width="0.7" stroke-miterlimit="10"/>
<path d="M414.341 152.977H368.602V199.012H414.341V152.977Z" stroke="#FF5800" stroke-width="0.7" stroke-miterlimit="10"/>
<path d="M364.067 208.215H318.328V254.25H364.067V208.215Z" stroke="#FF5800" stroke-width="0.7" stroke-miterlimit="10"/>
<path d="M309.177 272.617H263.438V318.653H309.177V272.617Z" stroke="#FF5800" stroke-width="0.7" stroke-miterlimit="10"/>
<path d="M414.341 272.617H368.602V318.653H414.341V272.617Z" stroke="#FF5800" stroke-width="0.7" stroke-miterlimit="10"/>
<path d="M469.216 208.215H423.477V254.25H469.216V208.215Z" stroke="#FF5800" stroke-width="0.7" stroke-miterlimit="10"/>
<path d="M574.376 208.215H528.637V254.25H574.376V208.215Z" stroke="#FF5800" stroke-width="0.7" stroke-miterlimit="10"/>
<path d="M519.532 268.02H473.793V314.055H519.532V268.02Z" stroke="#FF5800" stroke-width="0.7" stroke-miterlimit="10"/>
<path d="M469.216 327.855H423.477V373.891H469.216V327.855Z" stroke="#FF5800" stroke-width="0.7" stroke-miterlimit="10"/>
<path d="M524.106 383.09H478.367V429.125H524.106V383.09Z" stroke="#FF5800" stroke-width="0.7" stroke-miterlimit="10"/>
<path d="M578.95 323.254H533.211V369.289H578.95V323.254Z" stroke="#FF5800" stroke-width="0.7" stroke-miterlimit="10"/>
<path d="M633.829 268.02H588.09V314.055H633.829V268.02Z" stroke="#FF5800" stroke-width="0.7" stroke-miterlimit="10"/>
<path d="M745.005 258.816H699.266V304.852H745.005V258.816Z" stroke="#FF5800" stroke-width="0.7" stroke-miterlimit="10"/>
<path d="M688.716 323.254H642.977V369.289H688.716V323.254Z" stroke="#FF5800" stroke-width="0.7" stroke-miterlimit="10"/>
<path d="M688.716 203.582H642.977V249.617H688.716V203.582Z" stroke="#FF5800" stroke-width="0.7" stroke-miterlimit="10"/>
<path d="M743.563 143.777H697.824V189.813H743.563V143.777Z" stroke="#FF5800" stroke-width="0.7" stroke-miterlimit="10"/>
<path d="M803.013 203.582H757.273V249.617H803.013V203.582Z" stroke="#FF5800" stroke-width="0.7" stroke-miterlimit="10"/>
<path d="M867.036 254.219H821.297V300.254H867.036V254.219Z" stroke="#FF5800" stroke-width="0.7" stroke-miterlimit="10"/>
<path d="M921.884 198.98H876.145V245.016H921.884V198.98Z" stroke="#FF5800" stroke-width="0.7" stroke-miterlimit="10"/>
<path d="M867.036 139.176H821.297V185.211H867.036V139.176Z" stroke="#FF5800" stroke-width="0.7" stroke-miterlimit="10"/>
<path d="M812.149 74.7383H766.41V120.774H812.149V74.7383Z" stroke="#FF5800" stroke-width="0.7" stroke-miterlimit="10"/>
<path d="M926.489 74.7383H880.75V120.774H926.489V74.7383Z" stroke="#FF5800" stroke-width="0.7" stroke-miterlimit="10"/>
<path d="M107.973 217.414H158.283" stroke="#FF5800" stroke-width="0.7" stroke-miterlimit="10"/>
<path d="M158.277 217.414V327.855" stroke="#FF5800" stroke-width="0.7" stroke-miterlimit="10"/>
<path d="M158.277 327.855H186.422H364.025" stroke="#FF5800" stroke-width="0.7" stroke-miterlimit="10"/>
<path d="M364.027 327.855V378.491" stroke="#FF5800" stroke-width="0.7" stroke-miterlimit="10"/>
<path d="M364.027 378.492H418.908" stroke="#FF5800" stroke-width="0.7" stroke-miterlimit="10"/>
<path d="M418.914 378.492V442.898" stroke="#FF5800" stroke-width="0.7" stroke-miterlimit="10"/>
<path d="M167.422 442.895H748.13" stroke="#FF5800" stroke-width="0.7" stroke-miterlimit="10"/>
<path d="M588.09 378.492V442.898" stroke="#FF5800" stroke-width="0.7" stroke-miterlimit="10"/>
<path d="M588.09 378.492H748.13" stroke="#FF5800" stroke-width="0.7" stroke-miterlimit="10"/>
<path d="M748.129 378.49V309.453" stroke="#FF5800" stroke-width="0.7" stroke-miterlimit="10"/>
<path d="M748.129 309.453H1502.59" stroke="#FF5800" stroke-width="0.7" stroke-miterlimit="10"/>
<path d="M107.973 37.9062H318.322" stroke="#FF5800" stroke-width="0.7" stroke-miterlimit="10"/>
<path d="M107.973 36.9863L107.973 218.33" stroke="#FF5800" stroke-width="0.7" stroke-miterlimit="10"/>
<path d="M318.328 37.9062V143.778" stroke="#FF5800" stroke-width="0.7" stroke-miterlimit="10"/>
<path d="M318.328 143.777H473.797" stroke="#FF5800" stroke-width="0.7" stroke-miterlimit="10"/>
<path d="M473.793 143.777V198.982" stroke="#FF5800" stroke-width="0.7" stroke-miterlimit="10"/>
<path d="M473.793 198.98H638.404" stroke="#FF5800" stroke-width="0.7" stroke-miterlimit="10"/>
<path d="M638.406 198.98V134.574" stroke="#FF5800" stroke-width="0.7" stroke-miterlimit="10"/>
<path d="M638.406 134.574H757.278" stroke="#FF5800" stroke-width="0.7" stroke-miterlimit="10"/>
<path d="M757.273 134.576V65.5391" stroke="#FF5800" stroke-width="0.7" stroke-miterlimit="10"/>
<path d="M757.273 65.5391H931.026" stroke="#FF5800" stroke-width="0.7" stroke-miterlimit="10"/>
<path d="M318.328 37.9062L446.341 56.3393" stroke="#FF5800" stroke-width="0.7" stroke-miterlimit="10"/>
<path d="M446.332 56.3359V143.775" stroke="#FF5800" stroke-width="0.7" stroke-miterlimit="10"/>
<path d="M473.793 143.777L615.518 162.179" stroke="#FF5800" stroke-width="0.7" stroke-miterlimit="10"/>
<path d="M615.52 162.18V198.983" stroke="#FF5800" stroke-width="0.7" stroke-miterlimit="10"/>
<path d="M167.422 327.855V442.897" stroke="#FF5800" stroke-width="0.7" stroke-miterlimit="10"/>
<path d="M716.105 378.492V442.898" stroke="#FF5800" stroke-width="0.7" stroke-miterlimit="10"/>
<path d="M803.016 309.453V419.894" stroke="#FF5800" stroke-width="0.7" stroke-miterlimit="10"/>
<path d="M748.129 378.492V442.898" stroke="#FF5800" stroke-width="0.7" stroke-miterlimit="10"/>
<path d="M748.129 442.896L803.01 419.895" stroke="#FF5800" stroke-width="0.7" stroke-miterlimit="10"/>
<path d="M418.906 429.097L186.234 429.633V328.803" stroke="#FF5800" stroke-width="0.7" stroke-miterlimit="10"/>
</svg>
