<svg width="663" height="410" viewBox="0 0 663 410" fill="none" xmlns="http://www.w3.org/2000/svg">
<path d="M376.278 18.5058L384.664 10.1367H389.534L381.146 18.5058H376.278Z" fill="#F37021"/>
<path d="M366.548 18.5058L374.933 10.1367H379.801L371.415 18.5058H366.548Z" fill="#F37021"/>
<path d="M356.801 18.5058L365.189 10.1367H370.057L361.671 18.5058H356.801Z" fill="#F37021"/>
<path d="M347.071 18.5058L355.459 10.1367H360.326L351.94 18.5058H347.071Z" fill="#F37021"/>
<path d="M337.332 18.5058L345.718 10.1367H350.587L342.202 18.5058H337.332Z" fill="#F37021"/>
<path d="M493.326 43.6998H553.833L562.434 35.1116H574.882L584.123 25.8841H621.016L617.678 29.2171H581.691L575.788 35.1116H596.542L615.245 53.788V70.4919L627.927 83.1551V63.4583L645.91 45.501V28.756L635.855 18.7158H542.983L525.443 36.2302H485.841L493.324 43.7021L493.326 43.6998ZM639.557 41.5334C640.432 40.659 641.852 40.659 642.728 41.5334C643.603 42.4077 643.603 43.8254 642.728 44.6997C641.852 45.5741 640.432 45.5741 639.557 44.6997C638.681 43.8254 638.681 42.4077 639.557 41.5334ZM633.69 47.3913C634.566 46.5169 635.986 46.5169 636.861 47.3913C637.737 48.2656 637.737 49.6833 636.861 50.5577C635.986 51.432 634.566 51.432 633.69 50.5577C632.815 49.6833 632.815 48.2656 633.69 47.3913Z" fill="#F37021"/>
<path d="M584.384 26.5215L582.326 28.5761H617.408L619.465 26.5215H584.384Z" fill="#F37021"/>
<path d="M468.096 18.512L483.706 34.0996H524.559L542.098 16.5852H554.346L562.336 8.60652H567.066L559.076 16.5852H563.874L571.865 8.60652H576.595L568.605 16.5852H573.403L581.394 8.60652H586.124L578.134 16.5852H582.932L590.923 8.60652H595.653L587.662 16.5852H592.461L600.451 8.60652H605.182L597.191 16.5852H601.99L609.98 8.60652H614.711L606.72 16.5852H636.743L648.048 27.8742V68.0691L663.004 83.0038V0H523.822L513.665 10.1429H394.366L385.982 18.5143H468.103L468.096 18.512ZM650.375 37.1975L651.102 36.4715H659.545C659.829 36.7546 659.989 36.9144 660.272 37.1975V38.4257C659.989 38.7088 659.829 38.8686 659.545 39.1517H651.102L650.375 38.4257V37.1975ZM650.375 42.56C650.659 42.2769 650.819 42.1171 651.102 41.8341H659.545L660.272 42.56V43.7882L659.545 44.5142H651.102C650.819 44.2311 650.659 44.0713 650.375 43.7882V42.56ZM650.375 47.9225L651.102 47.1966H659.545C659.829 47.4797 659.989 47.6395 660.272 47.9225V49.1507C659.989 49.4338 659.829 49.5936 659.545 49.8767H651.102C650.819 49.5936 650.659 49.4338 650.375 49.1507V47.9225ZM650.375 53.2828L651.102 52.5568H659.545C659.829 52.8399 659.989 52.9997 660.272 53.2828V54.511C659.989 54.7941 659.829 54.9539 659.545 55.2369H651.102L650.375 54.511V53.2828ZM650.375 58.6453C650.659 58.3622 650.819 58.2024 651.102 57.9193H659.545C659.829 58.2024 659.989 58.3622 660.272 58.6453V59.8735L659.545 60.5995H651.102C650.819 60.3164 650.659 60.1566 650.375 59.8735V58.6453ZM650.375 64.0078C650.659 63.7248 650.819 63.565 651.102 63.2819H659.545C659.829 63.565 659.989 63.7248 660.272 64.0078V65.236C659.989 65.5191 659.829 65.6789 659.545 65.962H651.102C650.819 65.6789 650.659 65.5191 650.375 65.236V64.0078ZM527.547 20.4068C528.422 19.5325 529.842 19.5325 530.718 20.4068C531.593 21.2812 531.593 22.6988 530.718 23.5732C529.842 24.4475 528.422 24.4475 527.547 23.5732C526.671 22.6988 526.671 21.2812 527.547 20.4068ZM521.678 26.2647C522.554 25.3904 523.973 25.3904 524.849 26.2647C525.725 27.1391 525.725 28.5567 524.849 29.4311C523.973 30.3054 522.554 30.3054 521.678 29.4311C520.802 28.5567 520.802 27.1391 521.678 26.2647Z" fill="#F37021"/>
<path d="M1.60034 297.927H0V0.0654297H540.887V1.66346H1.60034V297.927Z" fill="#F37021"/>
<path d="M649.306 114.137L662.998 127.81V86.0236L645.908 68.9589V48.5225L630.058 64.3498V94.9178L647.849 112.683L644.155 116.372V139.678L653.14 148.65V164.436L655.673 166.966V179.508L651.238 183.937V207.798L648.35 210.681V254.83L651.238 257.713V281.408L661.519 291.674L662.973 290.222L653.295 280.558V184.789L657.73 180.36V150.328L646.215 138.829V117.226L649.308 114.137H649.306ZM637.55 94.1804C636.674 95.0547 635.255 95.0547 634.379 94.1804C633.503 93.306 633.503 91.8884 634.379 91.014C635.255 90.1397 636.674 90.1397 637.55 91.014C638.426 91.8884 638.426 93.306 637.55 94.1804ZM643.416 100.041C642.541 100.915 641.121 100.915 640.245 100.041C639.37 99.1662 639.37 97.7485 640.245 96.8742C641.121 95.9998 642.541 95.9998 643.416 96.8742C644.292 97.7485 644.292 99.1662 643.416 100.041Z" fill="#F37021"/>
<path d="M286.715 390.598L278.33 398.969H273.46L281.848 390.598H286.715Z" fill="#F37021"/>
<path d="M296.444 390.598L288.058 398.969H283.191L291.576 390.598H296.444Z" fill="#F37021"/>
<path d="M306.192 390.598L297.804 398.969H292.937L301.323 390.598H306.192Z" fill="#F37021"/>
<path d="M315.923 390.598L307.535 398.969H302.668L311.054 390.598H315.923Z" fill="#F37021"/>
<path d="M325.662 390.598L317.276 398.969H312.406L320.792 390.598H325.662Z" fill="#F37021"/>
<path d="M169.676 365.412H109.17L100.569 374.001H88.1206L78.8798 383.228H41.9873L45.3251 379.895H81.3123L87.2153 374.001H66.4611L47.7577 355.324V338.62L35.0761 325.957V345.654L17.0928 363.611V380.356L27.1475 390.396H120.02L137.56 372.882H177.162L169.679 365.41L169.676 365.412ZM23.4461 367.579C22.5705 368.453 21.1508 368.453 20.2752 367.579C19.3996 366.704 19.3996 365.287 20.2752 364.412C21.1508 363.538 22.5705 363.538 23.4461 364.412C24.3218 365.287 24.3218 366.704 23.4461 367.579ZM29.3148 361.721C28.4392 362.595 27.0195 362.595 26.1439 361.721C25.2682 360.847 25.2682 359.429 26.1439 358.555C27.0195 357.68 28.4392 357.68 29.3148 358.555C30.1905 359.429 30.1905 360.847 29.3148 361.721Z" fill="#F37021"/>
<path d="M78.619 382.583L80.6765 380.528H45.5947L43.5371 382.583H78.619Z" fill="#F37021"/>
<path d="M194.901 390.599L179.291 375.011H138.439L120.899 392.526H108.652L100.662 400.504H95.9315L103.922 392.526H99.1231L91.1328 400.504H86.4026L94.3929 392.526H89.5942L81.6039 400.504H76.8737L84.864 392.526H80.0653L72.075 400.504H67.3448L75.3351 392.526H70.5363L62.546 400.504H57.8159L65.8062 392.526H61.0074L53.0171 400.504H48.287L56.2773 392.526H26.2594L14.9541 381.237V341.042L0 326.109V409.113H139.182L149.34 398.97H268.638L277.022 390.599H194.901ZM12.6221 371.913L11.8951 372.639H3.45217C3.16868 372.356 3.00865 372.196 2.72516 371.913V370.685C3.00865 370.402 3.16868 370.242 3.45217 369.959H11.8951L12.6221 370.685V371.913ZM12.6221 366.553C12.3387 366.836 12.1786 366.996 11.8951 367.279H3.45217C3.16868 366.996 3.00865 366.836 2.72516 366.553V365.325C3.00865 365.042 3.16868 364.882 3.45217 364.599H11.8951C12.1786 364.882 12.3387 365.042 12.6221 365.325V366.553ZM12.6221 361.191L11.8951 361.917H3.45217C3.16868 361.634 3.00865 361.474 2.72516 361.191V359.962C3.00865 359.679 3.16868 359.52 3.45217 359.236H11.8951C12.1786 359.52 12.3387 359.679 12.6221 359.962V361.191ZM12.6221 355.828L11.8951 356.554H3.45217C3.16868 356.271 3.00865 356.111 2.72516 355.828V354.6C3.00865 354.317 3.16868 354.157 3.45217 353.874H11.8951L12.6221 354.6V355.828ZM12.6221 350.468C12.3387 350.751 12.1786 350.911 11.8951 351.194H3.45217C3.16868 350.911 3.00865 350.751 2.72516 350.468V349.24C3.00865 348.957 3.16868 348.797 3.45217 348.514H11.8951C12.1786 348.797 12.3387 348.957 12.6221 349.24V350.468ZM12.6221 345.105C12.3387 345.388 12.1786 345.548 11.8951 345.831H3.45217C3.16868 345.548 3.00865 345.388 2.72516 345.105V343.877L3.45217 343.151H11.8951C12.1786 343.434 12.3387 343.594 12.6221 343.877V345.105ZM135.451 388.706C134.575 389.581 133.156 389.581 132.28 388.706C131.404 387.832 131.404 386.414 132.28 385.54C133.156 384.666 134.575 384.666 135.451 385.54C136.327 386.414 136.327 387.832 135.451 388.706ZM141.32 382.848C140.444 383.723 139.024 383.723 138.149 382.848C137.273 381.974 137.273 380.556 138.149 379.682C139.024 378.808 140.444 378.808 141.32 379.682C142.195 380.556 142.195 381.974 141.32 382.848Z" fill="#F37021"/>
<path d="M661.401 120.654H663.002V399.708H122.115V398.11H661.401V120.654Z" fill="#F37021"/>
<path d="M14.7072 295.984L19.0167 291.681V268.375L10.0319 259.403V243.617L7.49876 241.088V228.545L11.934 224.117V200.256L14.8215 197.372V153.224L11.934 150.34V126.646L1.65521 116.38L0.201186 117.832L9.8787 127.495V223.265L5.44346 227.694V257.725L16.9591 269.224V290.827L13.2509 294.53L0 281.299V323.085L17.0894 340.149V360.586L32.9397 344.759V314.191L14.7072 295.984ZM22.7523 312.236C21.8767 313.111 20.457 313.111 19.5814 312.236C18.7057 311.362 18.7057 309.944 19.5814 309.07C20.457 308.196 21.8767 308.196 22.7523 309.07C23.6279 309.944 23.6279 311.362 22.7523 312.236ZM28.6187 318.094C27.7431 318.969 26.3234 318.969 25.4478 318.094C24.5722 317.22 24.5722 315.802 25.4478 314.928C26.3234 314.054 27.7431 314.054 28.6187 314.928C29.4944 315.802 29.4944 317.22 28.6187 318.094Z" fill="#F37021"/>
</svg>
