<svg width="370" height="312" viewBox="0 0 370 312" fill="none" xmlns="http://www.w3.org/2000/svg">
<path d="M89.2002 192.623L98.4348 187.859L100.925 192.686C102.3 195.353 101.299 195.945 100.022 196.604L95.405 198.986C94.1288 199.645 93.0653 200.117 91.6905 197.45L89.2002 192.623Z" fill="#303030"/>
<path d="M50.8141 106.841L90.625 184.096L86.009 186.476L46.1981 109.221L50.8141 106.841Z" fill="#303030"/>
<path d="M55.4391 104.462L95.25 181.717L90.634 184.097L50.8231 106.842L55.4391 104.462Z" fill="#FF8B2A"/>
<path d="M97.1829 185.473L97.5703 186.225L88.3337 190.987L87.9463 190.235L97.1829 185.473Z" fill="#ECACB5"/>
<path d="M96.1672 183.506L96.5547 184.258L87.3181 189.02L86.9306 188.269L96.1672 183.506Z" fill="#ECACB5"/>
<path d="M44.7241 99.0683L48.0703 97.3402L43.8732 93.3027L44.7241 99.0683Z" fill="#F37021"/>
<path d="M46.2185 109.201L50.8358 106.824L55.4531 104.442L48.0654 97.3379L44.7192 99.066L46.2185 109.201Z" fill="#F6D5DA"/>
<path d="M85.1849 171.892L95.1095 168.814L96.7178 174.004C97.6049 176.869 96.5155 177.279 95.1458 177.704L90.1809 179.24C88.8113 179.666 87.6803 179.946 86.7932 177.081L85.1849 171.892Z" fill="#303030"/>
<path d="M62.3555 80.7156L88.0781 163.734L83.1177 165.272L57.3952 82.2534L62.3555 80.7156Z" fill="#303030"/>
<path d="M67.3243 79.1804L93.0469 162.199L88.0865 163.737L62.3639 80.7183L67.3243 79.1804Z" fill="#FF8B2A"/>
<path d="M94.2965 166.231L94.5469 167.039L84.6211 170.116L84.3708 169.308L94.2965 166.231Z" fill="#ECACB5"/>
<path d="M93.6325 164.118L93.8828 164.926L83.9571 168.003L83.7067 167.195L93.6325 164.118Z" fill="#ECACB5"/>
<path d="M57.7016 72.0004L61.2969 70.8847L57.8728 66.1777L57.7016 72.0004Z" fill="#F37021"/>
<path d="M57.4113 82.2447L62.371 80.7086L67.3359 79.1673L61.2971 70.8848L57.7018 72.0005L57.4113 82.2447Z" fill="#F6D5DA"/>
<path d="M181.912 252.399C187.629 262.337 191.364 281.689 190.498 292.888C190.363 294.626 190.218 296.178 190.052 297.392C189.844 298.975 191.084 300.412 192.791 300.563L212.205 300.418C213.45 300.532 214.627 299.914 215.167 298.866C217.019 295.28 219.307 283.832 221.922 284.543C228.9 286.432 236.822 286.852 244.853 286.743C251.4 286.655 257.968 286.063 264.11 285.555C267.145 285.306 271.405 293.744 273.075 297.32C273.527 298.285 274.502 298.939 275.617 299.027L290.808 300.205C292.639 300.345 294.164 298.944 294.035 297.231C293.578 291.18 292.93 278.679 295.212 277.594C310.149 270.495 319.269 263.572 324.213 247.536C325.194 244.365 337.598 238.138 337.598 238.138C339.321 238.268 340.794 237.017 340.82 235.408L344.203 214.811C344.234 213.311 342.874 212.553 341.391 211.925C337.837 210.41 334.07 208.521 330.631 206.912C327.57 205.48 325.09 204.255 324.213 201.448C321.204 191.79 317.962 188.375 310.512 181.603C307.482 178.857 316.727 166.377 313.116 164.135C308.571 161.317 292.089 168.027 285.77 166.818C285.485 166.766 285.22 166.693 284.977 166.605C275.716 163.206 265.407 161.057 254.487 160.237C235.784 158.831 218.295 161.545 204.168 168.312C185.289 177.347 172.413 193.622 170.659 216.964C169.793 228.501 176.19 242.45 181.917 252.409L181.912 252.399Z" fill="url(#paint0_linear_5535_25662)"/>
<path d="M204.153 170.338C204.625 171.376 205.611 172.014 206.675 172.097C207.142 172.128 207.624 172.061 208.091 171.853C208.496 171.682 208.906 171.51 209.315 171.344C209.476 171.277 209.647 171.209 209.813 171.147C211.183 170.597 212.579 170.089 214.016 169.611C214.171 169.559 214.322 169.507 214.477 169.461C219.333 167.873 224.516 166.695 229.953 165.942C230.041 165.926 230.135 165.921 230.223 165.906C235.681 165.164 241.382 164.837 247.271 164.951C249.569 164.992 251.893 165.101 254.249 165.278C254.404 165.293 254.555 165.299 254.71 165.314C261.403 165.833 267.831 166.871 273.916 168.402C274.062 168.433 274.202 168.469 274.342 168.511C275.81 168.885 277.257 169.284 278.679 169.72C278.834 169.767 278.985 169.813 279.135 169.86C280.08 170.146 281.008 170.447 281.927 170.763C283.504 171.303 285.221 170.462 285.755 168.885C285.755 168.874 285.755 168.864 285.766 168.859C285.48 168.802 285.216 168.734 284.972 168.646C283.182 167.987 281.351 167.38 279.483 166.814C279.395 166.788 279.307 166.762 279.218 166.736C277.703 166.279 276.168 165.859 274.606 165.475C274.539 165.454 274.477 165.444 274.409 165.428C269.045 164.089 263.426 163.129 257.616 162.558C256.578 162.449 255.535 162.361 254.492 162.278H254.482C247.323 161.739 240.345 161.806 233.657 162.475C232.89 162.548 232.127 162.631 231.37 162.725C225.237 163.467 219.38 164.728 213.886 166.508C213.808 166.528 213.73 166.554 213.647 166.58C212.122 167.073 210.623 167.608 209.16 168.189C209.056 168.231 208.957 168.267 208.854 168.308C207.256 168.942 205.694 169.621 204.164 170.353L204.153 170.338Z" fill="#F38B46"/>
<path d="M279.825 161.632C279.872 163.775 279.726 165.87 279.413 167.912C279.254 168.923 279.058 169.918 278.815 170.9C277.433 170.38 276.027 169.902 274.58 169.456C274.423 169.408 274.271 169.359 274.115 169.316C269.225 167.835 264.018 166.771 258.565 166.139C258.477 166.125 258.383 166.122 258.295 166.108C252.822 165.486 247.115 165.285 241.23 165.528C238.933 165.62 236.612 165.78 234.261 166.009C234.106 166.028 233.956 166.036 233.801 166.055C227.121 166.721 220.717 167.9 214.667 169.565C214.523 169.599 214.383 169.638 214.244 169.683C212.785 170.089 211.346 170.52 209.935 170.987C209.69 170.011 209.487 169.019 209.33 168.01C209.082 166.443 208.933 164.837 208.897 163.203C208.466 143.607 223.994 127.381 243.579 126.951C263.164 126.52 279.39 142.052 279.82 161.643L279.825 161.632Z" fill="#FFDC8E"/>
<path d="M274.904 161.737C274.938 163.299 274.858 164.827 274.662 166.331C274.534 167.336 274.359 168.331 274.131 169.312C269.241 167.831 264.034 166.767 258.582 166.135C258.493 166.121 258.4 166.118 258.311 166.104C252.839 165.482 247.131 165.281 241.247 165.524C238.95 165.617 236.629 165.777 234.278 166.005C234.122 166.024 233.972 166.032 233.817 166.051C227.137 166.717 220.734 167.896 214.683 169.561C214.449 168.59 214.267 167.597 214.125 166.588C213.97 165.439 213.877 164.273 213.851 163.085C213.48 146.218 226.847 132.246 243.704 131.876C260.561 131.505 274.533 144.875 274.904 161.742L274.904 161.737Z" fill="#FFAF00"/>
<path d="M257.084 162.931C256.769 162.538 256.408 162.178 256.001 161.849C254.19 160.41 251.03 159.228 246.526 158.31C246.234 158.249 245.973 158.192 245.697 158.136L245.562 152.009C246.318 152.153 246.962 152.398 247.483 152.74C247.899 153.016 248.254 153.34 248.553 153.723C249.369 154.743 250.627 155.308 251.908 155.041L253.075 154.797C255.617 154.269 256.566 151.159 254.78 149.267C254.217 148.673 253.583 148.147 252.878 147.695C251.13 146.581 248.641 145.956 245.431 145.814L245.265 138.254C245.241 137.144 244.324 136.266 243.214 136.291C242.104 136.315 241.221 137.232 241.245 138.343L241.411 145.866C237.697 146.16 234.911 147.14 233.054 148.821C230.911 150.748 229.878 153.091 229.939 155.851C230.006 158.912 231.319 161.271 233.872 162.933C233.904 162.953 233.936 162.973 233.967 162.993C235.267 163.8 237.693 164.645 241.241 165.517C247.125 165.278 252.838 165.474 258.305 166.096C258.394 166.11 258.487 166.113 258.576 166.127C258.31 164.897 257.82 163.823 257.094 162.926L257.084 162.931ZM238.654 152.872C239.303 152.432 240.283 152.14 241.54 151.983L241.655 157.202C240.063 156.78 239.033 156.419 238.6 156.117C238.031 155.709 237.74 155.207 237.727 154.605C237.711 153.91 238.02 153.332 238.649 152.877L238.654 152.872Z" fill="#FFDC8E"/>
<path d="M113.462 162.705C93.0835 167.511 73.7375 169.047 63.8336 166.675L73.2602 208.856C81.5247 213.802 102.91 213.189 123.739 208.695C144.507 203.885 164.123 195.327 169.492 187.335L160.066 145.154C152.112 151.522 133.954 158.367 113.462 162.7V162.705Z" fill="#2E2E2E"/>
<path d="M114.742 289.726C114.742 293.613 129.273 296.768 147.203 296.768C165.133 296.768 179.664 293.618 179.664 289.726V282.746H114.736V289.726H114.742Z" fill="#FFECBC"/>
<path d="M114.742 288.224C114.742 292.111 129.273 295.266 147.203 295.266C165.133 295.266 179.664 292.116 179.664 288.224V281.244H114.736V288.224H114.742Z" fill="#FFCA55"/>
<path opacity="0.5" d="M160.435 281.244H179.672V288.224C179.672 291.089 171.771 293.554 160.435 294.654V281.244Z" fill="#FFECBC"/>
<path opacity="0.5" d="M143.109 281.244V295.209C134.84 294.981 127.535 294.083 122.414 292.77V281.244H143.109Z" fill="#FFFDF1"/>
<path d="M114.742 281.239C114.742 285.126 129.273 288.282 147.203 288.282C165.133 288.282 179.664 285.132 179.664 281.239C179.664 277.347 165.127 274.197 147.203 274.197C129.278 274.197 114.742 277.347 114.742 281.239Z" fill="#FFFDF1"/>
<path d="M121.245 281.24C121.245 283.606 132.872 285.526 147.216 285.526C161.561 285.526 173.188 283.606 173.188 281.24C173.188 278.873 161.561 276.953 147.216 276.953C132.872 276.953 121.245 278.873 121.245 281.24Z" fill="#FFF1CA"/>
<path d="M114.742 279.871C114.742 283.758 129.273 286.913 147.203 286.913C165.133 286.913 179.664 283.763 179.664 279.871V272.891H114.736V279.871H114.742Z" fill="#FFECBC"/>
<path d="M114.742 278.373C114.742 282.26 129.273 285.415 147.203 285.415C165.133 285.415 179.664 282.265 179.664 278.373V271.393H114.736V278.373H114.742Z" fill="#FFCA55"/>
<path opacity="0.5" d="M160.435 271.389H179.672V278.369C179.672 281.233 171.771 283.698 160.435 284.799V271.389Z" fill="#FFECBC"/>
<path opacity="0.5" d="M143.109 271.389V285.354C134.84 285.125 127.535 284.228 122.414 282.915V271.389H143.109Z" fill="#FFFDF1"/>
<path d="M147.203 278.426C129.275 278.426 114.742 275.273 114.742 271.384C114.742 267.495 129.275 264.342 147.203 264.342C165.131 264.342 179.664 267.495 179.664 271.384C179.664 275.273 165.131 278.426 147.203 278.426Z" fill="#FFFDF1"/>
<path d="M147.209 275.671C132.865 275.671 121.238 273.752 121.238 271.384C121.238 269.017 132.865 267.098 147.209 267.098C161.552 267.098 173.18 269.017 173.18 271.384C173.18 273.752 161.552 275.671 147.209 275.671Z" fill="#FFF1CA"/>
<path d="M114.742 270.023C114.742 273.91 129.273 277.065 147.203 277.065C165.133 277.065 179.664 273.915 179.664 270.023V263.043H114.736V270.023H114.742Z" fill="#FFECBC"/>
<path d="M114.742 268.519C114.742 272.406 129.273 275.561 147.203 275.561C165.133 275.561 179.664 272.411 179.664 268.519V261.539H114.736V268.519H114.742Z" fill="#FFCA55"/>
<path opacity="0.5" d="M160.435 261.539H179.672V268.519C179.672 271.384 171.771 273.849 160.435 274.949V261.539Z" fill="#FFECBC"/>
<path opacity="0.5" d="M143.109 261.539V275.504C134.84 275.276 127.535 274.378 122.414 273.065V261.539H143.109Z" fill="#FFFDF1"/>
<path d="M114.742 261.54C114.742 265.427 129.273 268.583 147.203 268.583C165.133 268.583 179.664 265.432 179.664 261.54C179.664 257.648 165.127 254.498 147.203 254.498C129.278 254.498 114.742 257.648 114.742 261.54Z" fill="#FFFDF1"/>
<path d="M121.245 261.535C121.245 263.901 132.872 265.821 147.216 265.821C161.561 265.821 173.188 263.901 173.188 261.535C173.188 259.168 161.561 257.248 147.216 257.248C132.872 257.248 121.245 259.168 121.245 261.535Z" fill="#FFF1CA"/>
<path d="M114.742 260.179C114.742 264.066 129.273 267.221 147.203 267.221C165.133 267.221 179.664 264.071 179.664 260.179V253.199H114.736V260.179H114.742Z" fill="#FFECBC"/>
<path d="M114.742 258.671C114.742 262.558 129.273 265.714 147.203 265.714C165.133 265.714 179.664 262.564 179.664 258.671V251.691H114.736V258.671H114.742Z" fill="#FFCA55"/>
<path opacity="0.5" d="M160.435 251.686H179.672V258.665C179.672 261.53 171.771 263.995 160.435 265.095V251.686Z" fill="#FFECBC"/>
<path opacity="0.5" d="M143.109 251.686V265.651C134.84 265.422 127.535 264.525 122.414 263.212V251.686H143.109Z" fill="#FFFDF1"/>
<path d="M147.203 258.729C129.275 258.729 114.742 255.576 114.742 251.687C114.742 247.797 129.275 244.645 147.203 244.645C165.131 244.645 179.664 247.797 179.664 251.687C179.664 255.576 165.131 258.729 147.203 258.729Z" fill="#FFFDF1"/>
<path d="M147.209 255.968C132.865 255.968 121.238 254.049 121.238 251.681C121.238 249.314 132.865 247.395 147.209 247.395C161.552 247.395 173.18 249.314 173.18 251.681C173.18 254.049 161.552 255.968 147.209 255.968Z" fill="#FFF1CA"/>
<path d="M114.742 250.318C114.742 254.205 129.273 257.36 147.203 257.36C165.133 257.36 179.664 254.21 179.664 250.318V243.338H114.736V250.318H114.742Z" fill="#FFECBC"/>
<path d="M114.742 248.81C114.742 252.697 129.273 255.852 147.203 255.852C165.133 255.852 179.664 252.702 179.664 248.81V241.83H114.736V248.81H114.742Z" fill="#FFCA55"/>
<path opacity="0.5" d="M160.435 241.83H179.672V248.81C179.672 251.675 171.771 254.14 160.435 255.24V241.83Z" fill="#FFECBC"/>
<path opacity="0.5" d="M143.109 241.83V255.795C134.84 255.567 127.535 254.669 122.414 253.356V241.83H143.109Z" fill="#FFFDF1"/>
<path d="M114.742 241.831C114.742 245.718 129.273 248.874 147.203 248.874C165.133 248.874 179.664 245.723 179.664 241.831C179.664 237.939 165.127 234.789 147.203 234.789C129.278 234.789 114.742 237.939 114.742 241.831Z" fill="#FFFDF1"/>
<path d="M121.245 241.826C121.245 244.192 132.872 246.112 147.216 246.112C161.561 246.112 173.188 244.192 173.188 241.826C173.188 239.459 161.561 237.539 147.216 237.539C132.872 237.539 121.245 239.459 121.245 241.826Z" fill="#FFF1CA"/>
<path d="M114.742 240.47C114.742 244.357 129.273 247.512 147.203 247.512C165.133 247.512 179.664 244.362 179.664 240.47V233.49H114.736V240.47H114.742Z" fill="#FFECBC"/>
<path d="M114.742 238.966C114.742 242.853 129.273 246.009 147.203 246.009C165.133 246.009 179.664 242.858 179.664 238.966V231.986H114.736V238.966H114.742Z" fill="#FFCA55"/>
<path opacity="0.5" d="M160.435 231.982H179.672V238.962C179.672 241.827 171.771 244.292 160.435 245.392V231.982Z" fill="#FFECBC"/>
<path opacity="0.5" d="M143.109 231.982V245.948C134.84 245.719 127.535 244.821 122.414 243.508V231.982H143.109Z" fill="#FFFDF1"/>
<path d="M147.203 239.02C129.275 239.02 114.742 235.867 114.742 231.978C114.742 228.088 129.275 224.936 147.203 224.936C165.131 224.936 179.664 228.088 179.664 231.978C179.664 235.867 165.131 239.02 147.203 239.02Z" fill="#FFFDF1"/>
<path d="M147.209 236.265C132.865 236.265 121.238 234.345 121.238 231.978C121.238 229.611 132.865 227.691 147.209 227.691C161.552 227.691 173.18 229.611 173.18 231.978C173.18 234.345 161.552 236.265 147.209 236.265Z" fill="#FFF1CA"/>
<path d="M114.742 230.615C114.742 234.502 129.273 237.657 147.203 237.657C165.133 237.657 179.664 234.507 179.664 230.615V223.635H114.736V230.615H114.742Z" fill="#FFECBC"/>
<path d="M114.742 229.113C114.742 233 129.273 236.155 147.203 236.155C165.133 236.155 179.664 233.005 179.664 229.113V222.133H114.736V229.113H114.742Z" fill="#FFCA55"/>
<path opacity="0.5" d="M160.435 222.133H179.672V229.113C179.672 231.977 171.771 234.442 160.435 235.543V222.133Z" fill="#FFECBC"/>
<path opacity="0.5" d="M143.109 222.133V236.098C134.84 235.87 127.535 234.972 122.414 233.659V222.133H143.109Z" fill="#FFFDF1"/>
<path d="M147.203 229.17C129.275 229.17 114.742 226.017 114.742 222.128C114.742 218.239 129.275 215.086 147.203 215.086C165.131 215.086 179.664 218.239 179.664 222.128C179.664 226.017 165.131 229.17 147.203 229.17Z" fill="#FFFDF1"/>
<path d="M121.245 222.128C121.245 224.495 132.872 226.415 147.216 226.415C161.561 226.415 173.188 224.495 173.188 222.128C173.188 219.762 161.561 217.842 147.216 217.842C132.872 217.842 121.245 219.762 121.245 222.128Z" fill="#FFF1CA"/>
<path d="M114.742 220.767C114.742 224.654 129.273 227.809 147.203 227.809C165.133 227.809 179.664 224.659 179.664 220.767V213.787H114.736V220.767H114.742Z" fill="#FFECBC"/>
<path d="M114.742 219.263C114.742 223.15 129.273 226.305 147.203 226.305C165.133 226.305 179.664 223.155 179.664 219.263V212.283H114.736V219.263H114.742Z" fill="#FFCA55"/>
<path opacity="0.5" d="M160.435 212.279H179.672V219.259C179.672 222.124 171.771 224.589 160.435 225.689V212.279Z" fill="#FFECBC"/>
<path opacity="0.5" d="M143.109 212.279V226.244C134.84 226.016 127.535 225.118 122.414 223.805V212.279H143.109Z" fill="#FFFDF1"/>
<path d="M114.742 212.275C114.742 216.162 129.273 219.317 147.203 219.317C165.133 219.317 179.664 216.167 179.664 212.275C179.664 208.382 165.127 205.232 147.203 205.232C129.278 205.232 114.742 208.382 114.742 212.275Z" fill="#FFFDF1"/>
<path d="M121.245 212.275C121.245 214.641 132.872 216.561 147.216 216.561C161.561 216.561 173.188 214.641 173.188 212.275C173.188 209.908 161.561 207.988 147.216 207.988C132.872 207.988 121.245 209.908 121.245 212.275Z" fill="#FFF1CA"/>
<path d="M114.742 210.908C114.742 214.795 129.273 217.95 147.203 217.95C165.133 217.95 179.664 214.8 179.664 210.908V203.928H114.736V210.908H114.742Z" fill="#FFE597"/>
<path d="M114.742 209.404C114.742 213.291 129.273 216.446 147.203 216.446C165.133 216.446 179.664 213.296 179.664 209.404V202.424H114.736V209.404H114.742Z" fill="#FFCA55"/>
<path opacity="0.5" d="M160.435 202.424H179.672V209.404C179.672 212.268 171.771 214.733 160.435 215.834V202.424Z" fill="#FFECBC"/>
<path opacity="0.5" d="M143.109 202.424V216.389C134.84 216.161 127.535 215.263 122.414 213.95V202.424H143.109Z" fill="#FFFDF1"/>
<path d="M114.742 202.425C114.742 206.312 129.273 209.467 147.203 209.467C165.133 209.467 179.664 206.317 179.664 202.425C179.664 198.533 165.127 195.383 147.203 195.383C129.278 195.383 114.742 198.533 114.742 202.425Z" fill="#FFFDF1"/>
<path d="M121.245 202.419C121.245 204.786 132.872 206.706 147.216 206.706C161.561 206.706 173.188 204.786 173.188 202.419C173.188 200.053 161.561 198.133 147.216 198.133C132.872 198.133 121.245 200.053 121.245 202.419Z" fill="#FFF1CA"/>
<path d="M114.742 201.058C114.742 204.945 129.273 208.1 147.203 208.1C165.133 208.1 179.664 204.95 179.664 201.058V194.078H114.736V201.058H114.742Z" fill="#FFE597"/>
<path d="M114.742 199.554C114.742 203.441 129.273 206.596 147.203 206.596C165.133 206.596 179.664 203.446 179.664 199.554V192.574H114.736V199.554H114.742Z" fill="#FFCA55"/>
<path opacity="0.5" d="M160.435 192.574H179.672V199.554C179.672 202.419 171.771 204.884 160.435 205.984V192.574Z" fill="#FFECBC"/>
<path opacity="0.5" d="M143.109 192.574V206.539C134.84 206.311 127.535 205.413 122.414 204.1V192.574H143.109Z" fill="#FFFDF1"/>
<path d="M147.203 199.618C129.275 199.618 114.742 196.465 114.742 192.575C114.742 188.686 129.275 185.533 147.203 185.533C165.131 185.533 179.664 188.686 179.664 192.575C179.664 196.465 165.131 199.618 147.203 199.618Z" fill="#FFFDF1"/>
<path d="M121.245 192.57C121.245 194.936 132.872 196.856 147.216 196.856C161.561 196.856 173.188 194.936 173.188 192.57C173.188 190.203 161.561 188.283 147.216 188.283C132.872 188.283 121.245 190.203 121.245 192.57Z" fill="#FFCA55"/>
<path d="M78.8041 296.755C78.8041 300.642 93.3356 303.798 111.265 303.798C129.195 303.798 143.727 300.648 143.727 296.755V289.775H78.7989V296.755H78.8041Z" fill="#FFECBC"/>
<path d="M78.8041 295.251C78.8041 299.138 93.3356 302.294 111.265 302.294C129.195 302.294 143.727 299.144 143.727 295.251V288.271H78.7989V295.251H78.8041Z" fill="#FFCA55"/>
<path opacity="0.5" d="M124.489 288.271H143.727V295.251C143.727 298.116 135.825 300.581 124.489 301.681V288.271Z" fill="#FFECBC"/>
<path opacity="0.5" d="M107.172 288.271V302.237C98.9022 302.008 91.5976 301.11 86.477 299.797V288.271H107.172Z" fill="#FFFDF1"/>
<path d="M78.8041 288.273C78.8041 292.16 93.3356 295.315 111.265 295.315C129.195 295.315 143.727 292.165 143.727 288.273C143.727 284.381 129.19 281.23 111.265 281.23C93.3408 281.23 78.8041 284.381 78.8041 288.273Z" fill="#FFFDF1"/>
<path d="M85.3001 288.267C85.3001 290.633 96.9263 292.554 111.271 292.554C125.616 292.554 137.242 290.633 137.242 288.267C137.242 285.901 125.616 283.98 111.271 283.98C96.9263 283.98 85.3001 285.901 85.3001 288.267Z" fill="#FFF1CA"/>
<path d="M78.8041 286.912C78.8041 290.799 93.3356 293.954 111.265 293.954C129.195 293.954 143.727 290.804 143.727 286.912V279.932H78.7989V286.912H78.8041Z" fill="#FFECBC"/>
<path d="M78.8041 285.404C78.8041 289.291 93.3356 292.446 111.265 292.446C129.195 292.446 143.727 289.296 143.727 285.404V278.424H78.7989V285.404H78.8041Z" fill="#FFCA55"/>
<path opacity="0.5" d="M124.489 278.418H143.727V285.398C143.727 288.263 135.825 290.728 124.489 291.828V278.418Z" fill="#FFECBC"/>
<path opacity="0.5" d="M107.172 278.418V292.383C98.9022 292.155 91.5976 291.257 86.477 289.944V278.418H107.172Z" fill="#FFFDF1"/>
<path d="M111.265 285.461C93.3375 285.461 78.8041 282.308 78.8041 278.419C78.8041 274.53 93.3375 271.377 111.265 271.377C129.193 271.377 143.727 274.53 143.727 278.419C143.727 282.308 129.193 285.461 111.265 285.461Z" fill="#FFFDF1"/>
<path d="M111.271 282.7C96.9277 282.7 85.3001 280.781 85.3001 278.414C85.3001 276.046 96.9277 274.127 111.271 274.127C125.615 274.127 137.242 276.046 137.242 278.414C137.242 280.781 125.615 282.7 111.271 282.7Z" fill="#FFF1CA"/>
<path d="M78.8041 277.056C78.8041 280.943 93.3356 284.098 111.265 284.098C129.195 284.098 143.727 280.948 143.727 277.056V270.076H78.7989V277.056H78.8041Z" fill="#FFECBC"/>
<path d="M78.8041 275.554C78.8041 279.441 93.3356 282.596 111.265 282.596C129.195 282.596 143.727 279.446 143.727 275.554V268.574H78.7989V275.554H78.8041Z" fill="#FFCA55"/>
<path opacity="0.5" d="M124.489 268.574H143.727V275.554C143.727 278.419 135.825 280.884 124.489 281.984V268.574Z" fill="#FFECBC"/>
<path opacity="0.5" d="M107.172 268.574V282.539C98.9022 282.311 91.5976 281.413 86.477 280.1V268.574H107.172Z" fill="#FFFDF1"/>
<path d="M78.8041 268.57C78.8041 272.457 93.3356 275.612 111.265 275.612C129.195 275.612 143.727 272.462 143.727 268.57C143.727 264.677 129.19 261.527 111.265 261.527C93.3408 261.527 78.8041 264.677 78.8041 268.57Z" fill="#FFFDF1"/>
<path d="M85.3001 268.57C85.3001 270.936 96.9263 272.856 111.271 272.856C125.616 272.856 137.242 270.936 137.242 268.57C137.242 266.203 125.616 264.283 111.271 264.283C96.9263 264.283 85.3001 266.203 85.3001 268.57Z" fill="#FFF1CA"/>
<path d="M78.8041 267.208C78.8041 271.095 93.3356 274.251 111.265 274.251C129.195 274.251 143.727 271.101 143.727 267.208V260.229H78.7989V267.208H78.8041Z" fill="#FFECBC"/>
<path d="M78.8041 265.705C78.8041 269.592 93.3356 272.747 111.265 272.747C129.195 272.747 143.727 269.597 143.727 265.705V258.725H78.7989V265.705H78.8041Z" fill="#FFCA55"/>
<path opacity="0.5" d="M124.489 258.725H143.727V265.705C143.727 268.569 135.825 271.034 124.489 272.134V258.725Z" fill="#FFECBC"/>
<path opacity="0.5" d="M107.172 258.725V272.69C98.9022 272.461 91.5976 271.564 86.477 270.251V258.725H107.172Z" fill="#FFFDF1"/>
<path d="M111.265 265.758C93.3375 265.758 78.8041 262.605 78.8041 258.716C78.8041 254.827 93.3375 251.674 111.265 251.674C129.193 251.674 143.727 254.827 143.727 258.716C143.727 262.605 129.193 265.758 111.265 265.758Z" fill="#FFFDF1"/>
<path d="M111.271 263.003C96.9277 263.003 85.3001 261.084 85.3001 258.716C85.3001 256.349 96.9277 254.43 111.271 254.43C125.615 254.43 137.242 256.349 137.242 258.716C137.242 261.084 125.615 263.003 111.271 263.003Z" fill="#FFF1CA"/>
<path d="M78.8041 257.347C78.8041 261.234 93.3356 264.389 111.265 264.389C129.195 264.389 143.727 261.239 143.727 257.347V250.367H78.7989V257.347H78.8041Z" fill="#FFECBC"/>
<path d="M78.8041 255.845C78.8041 259.732 93.3356 262.887 111.265 262.887C129.195 262.887 143.727 259.737 143.727 255.845V248.865H78.7989V255.845H78.8041Z" fill="#FFCA55"/>
<path opacity="0.5" d="M124.489 248.865H143.727V255.845C143.727 258.71 135.825 261.175 124.489 262.275V248.865Z" fill="#FFECBC"/>
<path opacity="0.5" d="M107.172 248.865V262.83C98.9022 262.602 91.5976 261.704 86.477 260.391V248.865H107.172Z" fill="#FFFDF1"/>
<path d="M78.8041 248.861C78.8041 252.748 93.3356 255.903 111.265 255.903C129.195 255.903 143.727 252.753 143.727 248.861C143.727 244.968 129.19 241.818 111.265 241.818C93.3408 241.818 78.8041 244.968 78.8041 248.861Z" fill="#FFFDF1"/>
<path d="M85.3001 248.861C85.3001 251.227 96.9263 253.147 111.271 253.147C125.616 253.147 137.242 251.227 137.242 248.861C137.242 246.494 125.616 244.574 111.271 244.574C96.9263 244.574 85.3001 246.494 85.3001 248.861Z" fill="#FFF1CA"/>
<path d="M78.8041 247.499C78.8041 251.386 93.3356 254.542 111.265 254.542C129.195 254.542 143.727 251.392 143.727 247.499V240.52H78.7989V247.499H78.8041Z" fill="#FFECBC"/>
<path d="M78.8041 245.996C78.8041 249.883 93.3356 253.038 111.265 253.038C129.195 253.038 143.727 249.888 143.727 245.996V239.016H78.7989V245.996H78.8041Z" fill="#FFCA55"/>
<path opacity="0.5" d="M124.489 239.016H143.727V245.996C143.727 248.86 135.825 251.325 124.489 252.425V239.016Z" fill="#FFECBC"/>
<path opacity="0.5" d="M107.172 239.016V252.981C98.9022 252.752 91.5976 251.855 86.477 250.542V239.016H107.172Z" fill="#FFFDF1"/>
<path d="M111.265 246.059C93.3375 246.059 78.8041 242.906 78.8041 239.017C78.8041 235.128 93.3375 231.975 111.265 231.975C129.193 231.975 143.727 235.128 143.727 239.017C143.727 242.906 129.193 246.059 111.265 246.059Z" fill="#FFFDF1"/>
<path d="M111.271 243.298C96.9277 243.298 85.3001 241.379 85.3001 239.011C85.3001 236.644 96.9277 234.725 111.271 234.725C125.615 234.725 137.242 236.644 137.242 239.011C137.242 241.379 125.615 243.298 111.271 243.298Z" fill="#FFF1CA"/>
<path d="M78.8041 237.65C78.8041 241.537 93.3356 244.692 111.265 244.692C129.195 244.692 143.727 241.542 143.727 237.65V230.67H78.7989V237.65H78.8041Z" fill="#FFECBC"/>
<path d="M78.8041 236.148C78.8041 240.035 93.3356 243.19 111.265 243.19C129.195 243.19 143.727 240.04 143.727 236.148V229.168H78.7989V236.148H78.8041Z" fill="#FFCA55"/>
<path opacity="0.5" d="M124.489 229.162H143.727V236.142C143.727 239.007 135.825 241.472 124.489 242.572V229.162Z" fill="#FFECBC"/>
<path opacity="0.5" d="M107.172 229.162V243.127C98.9022 242.899 91.5976 242.001 86.477 240.688V229.162H107.172Z" fill="#FFFDF1"/>
<path d="M111.265 236.206C93.3375 236.206 78.8041 233.053 78.8041 229.163C78.8041 225.274 93.3375 222.121 111.265 222.121C129.193 222.121 143.727 225.274 143.727 229.163C143.727 233.053 129.193 236.206 111.265 236.206Z" fill="#FFFDF1"/>
<path d="M85.3001 229.158C85.3001 231.524 96.9263 233.444 111.271 233.444C125.616 233.444 137.242 231.524 137.242 229.158C137.242 226.791 125.616 224.871 111.271 224.871C96.9263 224.871 85.3001 226.791 85.3001 229.158Z" fill="#FFF1CA"/>
<path d="M78.8041 227.8C78.8041 231.687 93.3356 234.842 111.265 234.842C129.195 234.842 143.727 231.692 143.727 227.8V220.82H78.7989V227.8H78.8041Z" fill="#FFECBC"/>
<path d="M78.8041 226.292C78.8041 230.179 93.3356 233.335 111.265 233.335C129.195 233.335 143.727 230.185 143.727 226.292V219.312H78.7989V226.292H78.8041Z" fill="#FFCA55"/>
<path opacity="0.5" d="M124.489 219.312H143.727V226.292C143.727 229.157 135.825 231.622 124.489 232.722V219.312Z" fill="#FFECBC"/>
<path opacity="0.5" d="M107.172 219.312V233.278C98.9022 233.049 91.5976 232.151 86.477 230.839V219.312H107.172Z" fill="#FFFDF1"/>
<path d="M111.265 226.356C93.3375 226.356 78.8041 223.203 78.8041 219.314C78.8041 215.424 93.3375 212.271 111.265 212.271C129.193 212.271 143.727 215.424 143.727 219.314C143.727 223.203 129.193 226.356 111.265 226.356Z" fill="#FFFDF1"/>
<path d="M111.271 223.595C96.9277 223.595 85.3001 221.675 85.3001 219.308C85.3001 216.941 96.9277 215.021 111.271 215.021C125.615 215.021 137.242 216.941 137.242 219.308C137.242 221.675 125.615 223.595 111.271 223.595Z" fill="#FFF1CA"/>
<path d="M78.8041 217.947C78.8041 221.834 93.3356 224.989 111.265 224.989C129.195 224.989 143.727 221.839 143.727 217.947V210.967H78.7989V217.947H78.8041Z" fill="#FFECBC"/>
<path d="M78.8041 216.443C78.8041 220.33 93.3356 223.485 111.265 223.485C129.195 223.485 143.727 220.335 143.727 216.443V209.463H78.7989V216.443H78.8041Z" fill="#FFCA55"/>
<path opacity="0.5" d="M124.489 209.453H143.727V216.433C143.727 219.298 135.825 221.763 124.489 222.863V209.453Z" fill="#FFECBC"/>
<path opacity="0.5" d="M107.172 209.453V223.418C98.9022 223.19 91.5976 222.292 86.477 220.979V209.453H107.172Z" fill="#FFFDF1"/>
<path d="M78.8041 209.454C78.8041 213.341 93.3356 216.497 111.265 216.497C129.195 216.497 143.727 213.346 143.727 209.454C143.727 205.562 129.19 202.412 111.265 202.412C93.3408 202.412 78.8041 205.562 78.8041 209.454Z" fill="#FFFDF1"/>
<path d="M85.3001 209.449C85.3001 211.815 96.9263 213.735 111.271 213.735C125.616 213.735 137.242 211.815 137.242 209.449C137.242 207.082 125.616 205.162 111.271 205.162C96.9263 205.162 85.3001 207.082 85.3001 209.449Z" fill="#FFF1CA"/>
<path d="M78.8041 208.091C78.8041 211.978 93.3356 215.134 111.265 215.134C129.195 215.134 143.727 211.983 143.727 208.091V201.111H78.7989V208.091H78.8041Z" fill="#FFECBC"/>
<path d="M78.8041 206.589C78.8041 210.476 93.3356 213.632 111.265 213.632C129.195 213.632 143.727 210.481 143.727 206.589V199.609H78.7989V206.589H78.8041Z" fill="#FFCA55"/>
<path opacity="0.5" d="M124.489 199.609H143.727V206.589C143.727 209.454 135.825 211.919 124.489 213.019V199.609Z" fill="#FFECBC"/>
<path opacity="0.5" d="M107.172 199.609V213.574C98.9022 213.346 91.5976 212.448 86.477 211.135V199.609H107.172Z" fill="#FFFDF1"/>
<path d="M78.8041 199.605C78.8041 203.492 93.3356 206.647 111.265 206.647C129.195 206.647 143.727 203.497 143.727 199.605C143.727 195.713 129.19 192.562 111.265 192.562C93.3408 192.562 78.8041 195.713 78.8041 199.605Z" fill="#FFFDF1"/>
<path d="M85.3001 199.605C85.3001 201.971 96.9263 203.892 111.271 203.892C125.616 203.892 137.242 201.971 137.242 199.605C137.242 197.239 125.616 195.318 111.271 195.318C96.9263 195.318 85.3001 197.239 85.3001 199.605Z" fill="#FFCA55"/>
<path d="M216.099 302.565C201.756 302.565 190.128 300.646 190.128 298.279C190.128 295.911 201.756 293.992 216.099 293.992C230.443 293.992 242.07 295.911 242.07 298.279C242.07 300.646 230.443 302.565 216.099 302.565Z" fill="#FFF1CA"/>
<path d="M183.632 296.915C183.632 300.802 198.164 303.958 216.093 303.958C234.023 303.958 248.555 300.808 248.555 296.915V289.936H183.627V296.915H183.632Z" fill="#FFECBC"/>
<path d="M183.632 295.414C183.632 299.301 198.164 302.456 216.093 302.456C234.023 302.456 248.555 299.306 248.555 295.414V288.434H183.627V295.414H183.632Z" fill="#FFCA55"/>
<path opacity="0.5" d="M229.318 288.434H248.555V295.414C248.555 298.278 240.653 300.743 229.318 301.843V288.434Z" fill="#FFECBC"/>
<path opacity="0.5" d="M211.992 288.434V302.399C203.723 302.17 196.418 301.273 191.297 299.96V288.434H211.992Z" fill="#FFFDF1"/>
<path d="M216.093 295.471C198.166 295.471 183.632 292.318 183.632 288.429C183.632 284.54 198.166 281.387 216.093 281.387C234.021 281.387 248.555 284.54 248.555 288.429C248.555 292.318 234.021 295.471 216.093 295.471Z" fill="#FFFDF1"/>
<path d="M190.128 288.423C190.128 290.79 201.754 292.71 216.099 292.71C230.444 292.71 242.07 290.79 242.07 288.423C242.07 286.057 230.444 284.137 216.099 284.137C201.754 284.137 190.128 286.057 190.128 288.423Z" fill="#FFF1CA"/>
<path d="M183.632 287.068C183.632 290.955 198.164 294.11 216.093 294.11C234.023 294.11 248.555 290.96 248.555 287.068V280.088H183.627V287.068H183.632Z" fill="#FFECBC"/>
<path d="M183.632 285.564C183.632 289.451 198.164 292.606 216.093 292.606C234.023 292.606 248.555 289.456 248.555 285.564V278.584H183.627V285.564H183.632Z" fill="#FFCA55"/>
<path opacity="0.5" d="M229.318 278.58H248.555V285.56C248.555 288.425 240.653 290.89 229.318 291.99V278.58Z" fill="#FFECBC"/>
<path opacity="0.5" d="M211.992 278.58V292.545C203.723 292.317 196.418 291.419 191.297 290.106V278.58H211.992Z" fill="#FFFDF1"/>
<path d="M216.093 285.618C198.166 285.618 183.632 282.465 183.632 278.575C183.632 274.686 198.166 271.533 216.093 271.533C234.021 271.533 248.555 274.686 248.555 278.575C248.555 282.465 234.021 285.618 216.093 285.618Z" fill="#FFFDF1"/>
<path d="M216.099 282.862C201.756 282.862 190.128 280.943 190.128 278.576C190.128 276.208 201.756 274.289 216.099 274.289C230.443 274.289 242.07 276.208 242.07 278.576C242.07 280.943 230.443 282.862 216.099 282.862Z" fill="#FFF1CA"/>
<path d="M183.632 277.207C183.632 281.094 198.164 284.249 216.093 284.249C234.023 284.249 248.555 281.099 248.555 277.207V270.227H183.627V277.207H183.632Z" fill="#FFECBC"/>
<path d="M183.632 275.705C183.632 279.592 198.164 282.747 216.093 282.747C234.023 282.747 248.555 279.597 248.555 275.705V268.725H183.627V275.705H183.632Z" fill="#FFCA55"/>
<path opacity="0.5" d="M229.318 268.725H248.555V275.705C248.555 278.569 240.653 281.034 229.318 282.134V268.725Z" fill="#FFECBC"/>
<path opacity="0.5" d="M211.992 268.725V282.69C203.723 282.461 196.418 281.564 191.297 280.251V268.725H211.992Z" fill="#FFFDF1"/>
<path d="M183.632 268.72C183.632 272.607 198.164 275.762 216.093 275.762C234.023 275.762 248.555 272.612 248.555 268.72C248.555 264.828 234.018 261.678 216.093 261.678C198.169 261.678 183.632 264.828 183.632 268.72Z" fill="#FFFDF1"/>
<path d="M190.128 268.72C190.128 271.087 201.754 273.007 216.099 273.007C230.444 273.007 242.07 271.087 242.07 268.72C242.07 266.354 230.444 264.434 216.099 264.434C201.754 264.434 190.128 266.354 190.128 268.72Z" fill="#FFF1CA"/>
<path d="M183.632 267.359C183.632 271.246 198.164 274.401 216.093 274.401C234.023 274.401 248.555 271.251 248.555 267.359V260.379H183.627V267.359H183.632Z" fill="#FFECBC"/>
<path d="M183.632 265.855C183.632 269.742 198.164 272.897 216.093 272.897C234.023 272.897 248.555 269.747 248.555 265.855V258.875H183.627V265.855H183.632Z" fill="#FFCA55"/>
<path opacity="0.5" d="M229.318 258.871H248.555V265.851C248.555 268.716 240.653 271.181 229.318 272.281V258.871Z" fill="#FFECBC"/>
<path opacity="0.5" d="M211.992 258.871V272.836C203.723 272.608 196.418 271.71 191.297 270.397V258.871H211.992Z" fill="#FFFDF1"/>
<path d="M183.632 258.866C183.632 262.753 198.164 265.909 216.093 265.909C234.023 265.909 248.555 262.759 248.555 258.866C248.555 254.974 234.018 251.824 216.093 251.824C198.169 251.824 183.632 254.974 183.632 258.866Z" fill="#FFFDF1"/>
<path d="M190.128 258.867C190.128 261.233 201.754 263.153 216.099 263.153C230.444 263.153 242.07 261.233 242.07 258.867C242.07 256.5 230.444 254.58 216.099 254.58C201.754 254.58 190.128 256.5 190.128 258.867Z" fill="#FFCA55"/>
<path d="M168.466 308.839C154.123 308.839 142.495 306.92 142.495 304.552C142.495 302.185 154.123 300.266 168.466 300.266C182.81 300.266 194.438 302.185 194.438 304.552C194.438 306.92 182.81 308.839 168.466 308.839Z" fill="#FFF1CA"/>
<path d="M135.999 303.185C135.999 307.072 150.531 310.227 168.461 310.227C186.39 310.227 200.922 307.077 200.922 303.185V296.205H135.994V303.185H135.999Z" fill="#FFECBC"/>
<path d="M135.999 301.681C135.999 305.568 150.531 308.723 168.461 308.723C186.39 308.723 200.922 305.573 200.922 301.681V294.701H135.994V301.681H135.999Z" fill="#FFCA55"/>
<path opacity="0.5" d="M181.693 294.697H200.93V301.677C200.93 304.542 193.028 307.007 181.693 308.107V294.697Z" fill="#FFB300"/>
<path opacity="0.5" d="M164.367 294.697V308.662C156.098 308.434 148.793 307.536 143.672 306.223V294.697H164.367Z" fill="#FFFDF1"/>
<path d="M135.999 294.693C135.999 298.58 150.531 301.735 168.461 301.735C186.39 301.735 200.922 298.585 200.922 294.693C200.922 290.8 186.385 287.65 168.461 287.65C150.536 287.65 135.999 290.8 135.999 294.693Z" fill="#FFFDF1"/>
<path d="M142.495 294.693C142.495 297.059 154.122 298.979 168.466 298.979C182.811 298.979 194.438 297.059 194.438 294.693C194.438 292.326 182.811 290.406 168.466 290.406C154.122 290.406 142.495 292.326 142.495 294.693Z" fill="#FFF1CA"/>
<path d="M135.999 293.33C135.999 297.217 150.531 300.372 168.461 300.372C186.39 300.372 200.922 297.222 200.922 293.33V286.35H135.994V293.33H135.999Z" fill="#FFB300"/>
<path d="M135.999 291.828C135.999 295.715 150.531 298.87 168.461 298.87C186.39 298.87 200.922 295.72 200.922 291.828V284.848H135.994V291.828H135.999Z" fill="#FFCA55"/>
<path opacity="0.5" d="M181.693 284.848H200.93V291.828C200.93 294.692 193.028 297.157 181.693 298.257V284.848Z" fill="#FFB300"/>
<path opacity="0.5" d="M164.367 284.848V298.813C156.098 298.584 148.793 297.687 143.672 296.374V284.848H164.367Z" fill="#FFFDF1"/>
<path d="M168.461 291.885C150.533 291.885 135.999 288.732 135.999 284.843C135.999 280.954 150.533 277.801 168.461 277.801C186.388 277.801 200.922 280.954 200.922 284.843C200.922 288.732 186.388 291.885 168.461 291.885Z" fill="#FFFDF1"/>
<path d="M168.466 289.13C154.123 289.13 142.495 287.211 142.495 284.843C142.495 282.476 154.123 280.557 168.466 280.557C182.81 280.557 194.438 282.476 194.438 284.843C194.438 287.211 182.81 289.13 168.466 289.13Z" fill="#FFF1CA"/>
<path d="M135.999 283.476C135.999 287.363 150.531 290.518 168.461 290.518C186.39 290.518 200.922 287.368 200.922 283.476V276.496H135.994V283.476H135.999Z" fill="#FFB300"/>
<path d="M135.999 281.972C135.999 285.859 150.531 289.014 168.461 289.014C186.39 289.014 200.922 285.864 200.922 281.972V274.992H135.994V281.972H135.999Z" fill="#FFCA55"/>
<path opacity="0.5" d="M181.693 274.988H200.93V281.968C200.93 284.833 193.028 287.298 181.693 288.398V274.988Z" fill="#FFB300"/>
<path opacity="0.5" d="M164.367 274.988V288.953C156.098 288.725 148.793 287.827 143.672 286.514V274.988H164.367Z" fill="#FFFDF1"/>
<path d="M135.999 274.984C135.999 278.871 150.531 282.026 168.461 282.026C186.39 282.026 200.922 278.876 200.922 274.984C200.922 271.091 186.385 267.941 168.461 267.941C150.536 267.941 135.999 271.091 135.999 274.984Z" fill="#FFFDF1"/>
<path d="M142.495 274.984C142.495 277.35 154.122 279.27 168.466 279.27C182.811 279.27 194.438 277.35 194.438 274.984C194.438 272.617 182.811 270.697 168.466 270.697C154.122 270.697 142.495 272.617 142.495 274.984Z" fill="#FFF1CA"/>
<path d="M135.999 273.623C135.999 277.51 150.531 280.665 168.461 280.665C186.39 280.665 200.922 277.515 200.922 273.623V266.643H135.994V273.623H135.999Z" fill="#FFB300"/>
<path d="M135.999 272.119C135.999 276.006 150.531 279.161 168.461 279.161C186.39 279.161 200.922 276.011 200.922 272.119V265.139H135.994V272.119H135.999Z" fill="#FFCA55"/>
<path opacity="0.5" d="M181.693 265.139H200.93V272.119C200.93 274.983 193.028 277.448 181.693 278.548V265.139Z" fill="#FFB300"/>
<path opacity="0.5" d="M164.367 265.139V279.104C156.098 278.875 148.793 277.978 143.672 276.665V265.139H164.367Z" fill="#FFFDF1"/>
<path d="M168.461 272.182C150.533 272.182 135.999 269.029 135.999 265.14C135.999 261.251 150.533 258.098 168.461 258.098C186.388 258.098 200.922 261.251 200.922 265.14C200.922 269.029 186.388 272.182 168.461 272.182Z" fill="#FFFDF1"/>
<path d="M168.466 269.421C154.123 269.421 142.495 267.502 142.495 265.134C142.495 262.767 154.123 260.848 168.466 260.848C182.81 260.848 194.438 262.767 194.438 265.134C194.438 267.502 182.81 269.421 168.466 269.421Z" fill="#FFF1CA"/>
<path d="M135.999 263.773C135.999 267.66 150.531 270.815 168.461 270.815C186.39 270.815 200.922 267.665 200.922 263.773V256.793H135.994V263.773H135.999Z" fill="#FFB300"/>
<path d="M135.999 262.271C135.999 266.158 150.531 269.313 168.461 269.313C186.39 269.313 200.922 266.163 200.922 262.271V255.291H135.994V262.271H135.999Z" fill="#FFCA55"/>
<path opacity="0.5" d="M181.693 255.285H200.93V262.265C200.93 265.13 193.028 267.595 181.693 268.695V255.285Z" fill="#FFB300"/>
<path opacity="0.5" d="M164.367 255.285V269.25C156.098 269.022 148.793 268.124 143.672 266.811V255.285H164.367Z" fill="#FFFDF1"/>
<path d="M168.461 262.329C150.533 262.329 135.999 259.176 135.999 255.286C135.999 251.397 150.533 248.244 168.461 248.244C186.388 248.244 200.922 251.397 200.922 255.286C200.922 259.176 186.388 262.329 168.461 262.329Z" fill="#FFFDF1"/>
<path d="M142.495 255.281C142.495 257.647 154.122 259.567 168.466 259.567C182.811 259.567 194.438 257.647 194.438 255.281C194.438 252.914 182.811 250.994 168.466 250.994C154.122 250.994 142.495 252.914 142.495 255.281Z" fill="#FFF1CA"/>
<path d="M135.999 253.923C135.999 257.81 150.531 260.966 168.461 260.966C186.39 260.966 200.922 257.815 200.922 253.923V246.943H135.994V253.923H135.999Z" fill="#FFB300"/>
<path d="M135.999 252.415C135.999 256.302 150.531 259.458 168.461 259.458C186.39 259.458 200.922 256.308 200.922 252.415V245.436H135.994V252.415H135.999Z" fill="#FFCA55"/>
<path opacity="0.5" d="M181.693 245.436H200.93V252.415C200.93 255.28 193.028 257.745 181.693 258.845V245.436Z" fill="#FFB300"/>
<path opacity="0.5" d="M164.367 245.436V259.401C156.098 259.172 148.793 258.275 143.672 256.962V245.436H164.367Z" fill="#FFFDF1"/>
<path d="M168.461 252.479C150.533 252.479 135.999 249.326 135.999 245.437C135.999 241.547 150.533 238.395 168.461 238.395C186.388 238.395 200.922 241.547 200.922 245.437C200.922 249.326 186.388 252.479 168.461 252.479Z" fill="#FFFDF1"/>
<path d="M168.466 249.718C154.123 249.718 142.495 247.799 142.495 245.431C142.495 243.064 154.123 241.145 168.466 241.145C182.81 241.145 194.438 243.064 194.438 245.431C194.438 247.799 182.81 249.718 168.466 249.718Z" fill="#FFF1CA"/>
<path d="M135.999 244.068C135.999 247.955 150.531 251.11 168.461 251.11C186.39 251.11 200.922 247.96 200.922 244.068V237.088H135.994V244.068H135.999Z" fill="#FFB300"/>
<path d="M135.999 242.566C135.999 246.453 150.531 249.608 168.461 249.608C186.39 249.608 200.922 246.458 200.922 242.566V235.586H135.994V242.566H135.999Z" fill="#FFCA55"/>
<path opacity="0.5" d="M181.693 235.586H200.93V242.566C200.93 245.431 193.028 247.896 181.693 248.996V235.586Z" fill="#FFB300"/>
<path opacity="0.5" d="M164.367 235.586V249.551C156.098 249.323 148.793 248.425 143.672 247.112V235.586H164.367Z" fill="#FFFDF1"/>
<path d="M135.999 235.581C135.999 239.468 150.531 242.624 168.461 242.624C186.39 242.624 200.922 239.473 200.922 235.581C200.922 231.689 186.385 228.539 168.461 228.539C150.536 228.539 135.999 231.689 135.999 235.581Z" fill="#FFFDF1"/>
<path d="M142.495 235.582C142.495 237.948 154.122 239.868 168.466 239.868C182.811 239.868 194.438 237.948 194.438 235.582C194.438 233.215 182.811 231.295 168.466 231.295C154.122 231.295 142.495 233.215 142.495 235.582Z" fill="#FFF1CA"/>
<path d="M135.999 234.22C135.999 238.107 150.531 241.262 168.461 241.262C186.39 241.262 200.922 238.112 200.922 234.22V227.24H135.994V234.22H135.999Z" fill="#FFB300"/>
<path d="M135.999 232.716C135.999 236.603 150.531 239.759 168.461 239.759C186.39 239.759 200.922 236.608 200.922 232.716V225.736H135.994V232.716H135.999Z" fill="#FFCA55"/>
<path opacity="0.5" d="M181.693 225.732H200.93V232.712C200.93 235.577 193.028 238.042 181.693 239.142V225.732Z" fill="#FFB300"/>
<path opacity="0.5" d="M164.367 225.732V239.698C156.098 239.469 148.793 238.571 143.672 237.258V225.732H164.367Z" fill="#FFFDF1"/>
<path d="M135.999 225.728C135.999 229.615 150.531 232.77 168.461 232.77C186.39 232.77 200.922 229.62 200.922 225.728C200.922 221.836 186.385 218.686 168.461 218.686C150.536 218.686 135.999 221.836 135.999 225.728Z" fill="#FFFDF1"/>
<path d="M142.495 225.728C142.495 228.094 154.122 230.015 168.466 230.015C182.811 230.015 194.438 228.094 194.438 225.728C194.438 223.362 182.811 221.441 168.466 221.441C154.122 221.441 142.495 223.362 142.495 225.728Z" fill="#FFC23F"/>
<path d="M37.6764 220.762L36.2756 220.851C33.4741 175.447 49.0329 168.67 55.9277 167.85L56.0938 169.246C55.9952 169.256 55.8966 169.272 55.798 169.282C49.2145 170.211 34.989 177.206 37.6764 220.762Z" fill="#2E2E2E"/>
<path d="M38.0805 225.488C37.7225 225.867 38.4385 230.33 38.48 231.119C38.5993 233.444 38.6304 235.774 38.5837 238.104C38.5474 240.04 38.4125 241.97 38.3866 243.901C38.371 245.063 37.6862 249.064 38.2154 249.895C38.2828 249.999 38.8847 246.267 38.895 245.577C38.9417 243.351 38.978 241.13 39.0299 238.903C39.1285 234.57 38.4074 228.758 38.0805 225.488Z" fill="white"/>
<path d="M36.8935 245.225C36.8623 246.248 37.4797 244.312 37.4278 244.478C37.7651 243.445 37.5886 242.003 37.6613 240.913C37.8117 238.718 37.9985 236.523 38.1075 234.327C38.1541 233.341 39.005 225.583 37.7754 224.939C38.4032 225.272 37.7495 233.103 37.7132 233.902C37.5264 237.68 37.1113 241.447 36.8935 245.225Z" fill="white"/>
<path d="M33.6778 249.965C33.5896 250.629 34.0047 250.271 34.1603 250.209C34.3938 250.121 34.539 246.426 34.5494 246.317C34.7725 244.049 34.98 241.781 35.1564 239.508C35.2343 238.512 36.2563 225.979 35.1876 225.922C35.2083 225.948 35.1409 228.486 35.1616 228.968C35.2654 231.246 35.1201 233.556 34.98 235.829C34.6843 240.546 34.1551 245.258 33.6778 249.965Z" fill="white"/>
<path d="M35.2302 253.787C35.2042 254.659 35.7023 252.635 35.7386 252.329C35.915 250.861 35.9876 249.381 36.1848 247.913C36.5687 245.033 37.0097 242.163 37.295 239.267C37.4247 237.964 38.4208 224.762 37.1186 224.721C38.758 224.778 35.1887 251.125 35.225 253.787H35.2302Z" fill="white"/>
<path d="M35.1202 255.392C33.4238 255.132 35.3433 243.144 35.5093 241.94C35.665 240.794 36.4795 229.413 36.7856 229.356C37.128 229.283 36.0333 241.551 35.8984 242.574C35.7635 243.601 34.3109 255.257 35.1202 255.392Z" fill="white"/>
<path d="M33.9421 248.787C33.8903 249.68 33.6361 256.104 34.4973 256.125C33.3818 255.928 35.0472 240.821 35.2288 239.129C35.5141 236.42 35.8462 233.717 35.9759 230.992C35.9914 230.686 35.7424 225.211 35.7424 225.211C35.042 228.19 35.566 231.828 35.2495 234.941C34.7826 239.55 34.0978 244.148 33.9421 248.782V248.787Z" fill="white"/>
<path d="M33.5174 251.4C33.5122 251.618 33.5952 251.8 33.7716 251.95C34.2697 251.457 33.7976 249.802 33.7664 249.096C33.6212 246.107 33.9117 243.102 34.2126 240.134C34.5083 237.217 34.887 234.306 35.1672 231.384C35.2294 230.746 35.1101 225.831 35.2969 225.66C34.2956 228.971 34.5654 233.336 34.1452 236.802C33.5641 241.54 32.76 246.642 33.5174 251.4Z" fill="white"/>
<path d="M32.7149 244.975C32.6734 246.226 32.5178 255.141 33.7525 255.183C33.1715 254.996 33.1715 247.357 33.1767 246.459C33.1922 243.6 33.4153 240.74 33.7162 237.902C34.0171 235.063 34.4788 232.24 34.7849 229.406C34.8161 229.136 34.6604 226.568 34.6864 226.516C34.0015 227.242 34.2142 231.093 34.0638 232.105C33.4412 236.381 32.8498 240.652 32.7097 244.975H32.7149Z" fill="white"/>
<path d="M31.1174 249.346C30.8269 250.685 31.4287 250.218 31.4027 250.281C32.4144 245.895 32.8346 240.846 33.5298 236.398C33.6543 235.615 35.4079 227.374 34.557 226.865C34.6452 227.083 33.9812 230.316 33.9293 230.768C33.6958 232.859 33.3638 234.935 33.0266 237.011C32.3573 241.09 32.0305 245.314 31.1226 249.346H31.1174Z" fill="white"/>
<path d="M32.1907 250.256C32.2218 251.009 32.1855 251.844 32.668 252.436C31.9417 252.041 33.0467 245.99 33.192 245.233C33.607 243.069 34.1829 240.936 34.6861 238.793C34.987 237.516 37.5447 225.403 36.0506 225.352C37.1608 225.403 32.0558 247.542 32.1907 250.251V250.256Z" fill="white"/>
<path d="M36.2908 250.012C36.1507 250.619 36.5762 250.21 36.6695 250.189C36.9289 250.132 37.5878 246.748 37.6656 246.431C38.4438 243.292 38.7603 240.131 38.8433 236.898C38.8589 236.26 38.4698 224.578 37.2817 224.76C37.8887 224.77 38.4283 234.329 38.4335 234.989C38.4542 240.214 37.5308 244.994 36.296 250.017L36.2908 250.012Z" fill="white"/>
<path d="M30.583 246.686C30.6505 246.816 30.7646 247.361 30.9618 246.966C31.0603 246.873 32.4351 239.312 32.736 238.108C33.177 236.333 33.6076 234.569 33.9033 232.757C34.0538 231.823 35.1173 227.916 34.557 227.246C34.3495 233.401 30.1317 240.324 30.5882 246.691L30.583 246.686Z" fill="white"/>
<path d="M32.683 245.272C32.683 245.428 32.7401 245.547 32.8853 245.625C34.1408 245.983 34.3172 226.901 34.8516 226.621C34.8152 226.621 33.0513 243.809 32.683 245.272Z" fill="white"/>
<path d="M35.1476 249.797C35.0438 253.004 35.656 248.489 35.682 247.975C35.8688 244.618 36.3616 241.26 36.7351 237.918C37.0775 234.877 37.4511 231.831 37.6378 228.774C37.669 228.297 37.4303 225.084 37.3784 225.188C36.9634 225.639 37.2228 229.096 37.1865 229.558C37.0516 231.255 36.8648 232.946 36.6729 234.633C36.1126 239.605 34.966 244.784 35.1372 249.797H35.1476Z" fill="white"/>
<path d="M33.4493 245.947C33.4286 247.893 33.4701 249.834 33.5272 251.78C33.5323 251.998 33.6309 254.39 34.0044 253.991C34.6322 253.326 33.9111 249.035 33.9111 248.064C33.9111 245.807 34.02 243.56 34.2327 241.313C34.3676 239.896 36.0485 225.905 35.4623 225.879C34.461 227.363 35.0109 230.731 34.819 232.553C34.352 237.011 33.5168 241.458 33.4442 245.952L33.4493 245.947Z" fill="white"/>
<path d="M34.1937 254.253C34.1055 254.917 34.4998 254.59 34.6606 254.549C34.9304 254.476 34.8889 251.668 34.9045 251.367C35.0549 248.28 35.1535 245.187 35.4025 242.104C35.6463 239.058 35.968 236.022 36.1652 232.976C36.2067 232.332 36.1859 225.269 36.1392 225.295C35.6723 225.539 35.9524 230.152 35.9265 230.599C35.7657 233.505 35.4855 236.406 35.2106 239.302C34.7436 244.242 34.9719 249.375 34.1937 254.258V254.253Z" fill="white"/>
<path d="M34.9405 247.048C34.7019 248.735 36.0455 244.977 35.589 246.155C36.6007 243.556 36.4606 239.814 36.72 237.048C36.8185 235.968 37.6175 225.096 36.7719 225.07C36.2168 226.933 36.7304 229.653 36.6525 231.697C36.4502 236.819 35.8536 242.004 34.9405 247.048Z" fill="white"/>
<path d="M35.4871 252.658C35.5131 252.658 36.9138 240.047 37.028 238.838C37.1421 237.619 38.1901 225.231 37.2459 225.07C39.6272 225.48 36.5299 252.663 35.4871 252.658Z" fill="white"/>
<path d="M35.4984 255.731C35.4984 255.985 35.571 256.105 35.7318 256.1C36.9251 256.141 40.1157 228.019 37.9367 225.336C38.3777 225.606 38.1806 228.673 38.1754 229.456C38.1494 232.555 37.9108 235.653 37.6566 238.741C37.1897 244.423 36.5671 250.132 35.4932 255.731H35.4984Z" fill="white"/>
<path d="M37.1215 251.486C36.8569 252.373 37.7181 250.765 37.6662 250.868C38.0138 250.137 37.9671 248.99 38.0761 248.175C38.4911 245.108 38.7764 242.02 38.9943 238.932C39.3056 234.584 38.6415 230.224 38.7505 226C39.1759 226.441 38.8439 230.577 38.8491 231.605C38.8594 233.551 38.7712 235.492 38.6467 237.433C38.3458 242.082 38.0812 246.909 37.1215 251.481V251.486Z" fill="white"/>
<path d="M36.2894 225.3C36.3205 230.79 36.5332 236.27 36.6007 241.761C36.6318 244.107 36.6266 246.452 36.5851 248.793C36.5592 250.355 35.9522 252.867 36.471 254.071C38.2245 253.292 37.0676 241.133 37.0105 238.985C36.9275 235.99 36.829 232.996 36.7356 230.001C36.7044 228.938 36.7252 227.863 36.6525 226.805C36.6318 226.535 36.2323 224.417 36.2894 225.3Z" fill="white"/>
<path d="M32.8765 253.396C31.8596 252.628 31.8441 248.149 31.8025 246.868C31.7299 244.47 32.145 242.041 32.56 239.685C32.9802 237.293 33.5354 234.921 34.023 232.544C34.1839 231.766 34.7545 226.244 35.2422 226.094C35.0139 226.213 34.5366 231.73 34.4225 232.326C33.9192 234.973 33.3486 237.604 32.9232 240.266C32.5393 242.669 32.1865 245.113 32.3006 247.553C32.3317 248.206 32.6586 253.24 32.8765 253.401V253.396Z" fill="white"/>
<path d="M32.9699 226.488C32.8921 228.907 34.573 229.514 36.6741 229.581C38.7753 229.649 40.4976 229.156 40.5755 226.737C40.6533 224.319 39.0139 222.306 36.9127 222.238C34.8116 222.171 33.0425 224.07 32.9647 226.488H32.9699Z" fill="#B39E8B"/>
<path d="M32.978 226.333C32.9002 228.663 34.5863 229.249 36.6874 229.317C38.7886 229.384 40.511 228.907 40.5836 226.582C40.6562 224.257 39.0168 222.311 36.9157 222.238C34.8146 222.171 33.0507 224.003 32.9728 226.328L32.978 226.333Z" fill="white"/>
<path opacity="0.4" d="M39.9429 226.44C40.0156 224.177 38.7497 222.423 36.7419 222.252C36.8042 222.252 36.8613 222.236 36.9235 222.236C39.0247 222.304 40.6641 224.25 40.5914 226.58C40.5188 228.91 38.7964 229.388 36.6952 229.315C36.633 229.315 36.5759 229.305 36.5137 229.305C38.5318 229.341 39.8755 228.703 39.9481 226.44H39.9429Z" fill="#B39E8B"/>
<path opacity="0.25" d="M34.4584 226.208C34.5154 224.475 35.1069 222.306 37.125 222.264C37.0627 222.264 37.0057 222.238 36.9434 222.238C34.8423 222.171 33.0784 224.003 33.0005 226.328C32.9227 228.658 34.6088 229.244 36.71 229.312C36.7722 229.312 36.8293 229.312 36.8915 229.312C34.8786 229.213 34.3961 227.983 34.4532 226.203L34.4584 226.208Z" fill="#B39E8B"/>
<path opacity="0.5" d="M33.8124 226.281C33.885 224.019 35.0834 222.306 37.1016 222.27C37.0393 222.265 36.9822 222.244 36.92 222.244C34.8188 222.177 33.0549 224.008 32.9771 226.333C32.8993 228.658 34.5854 229.25 36.6865 229.317C36.7488 229.317 36.8058 229.317 36.8681 229.317C34.8552 229.219 33.7345 228.539 33.8124 226.281Z" fill="#B39E8B"/>
<path opacity="0.61" d="M35.1028 222.209C35.1028 222.209 35.108 222.167 35.108 222.146C35.108 223.143 35.8965 223.402 36.8823 223.439C37.868 223.47 38.6721 223.262 38.7344 222.266C38.7344 222.287 38.7344 222.307 38.7344 222.328C38.6981 223.439 37.8732 223.667 36.8719 223.631C35.8654 223.6 35.0613 223.319 35.0976 222.209H35.1028Z" fill="#ADA3C2"/>
<path opacity="0.61" d="M36.8938 223.434C36.9301 223.434 36.9664 223.434 37.0131 223.434C37.7187 223.445 38.3101 223.32 38.5799 222.837C38.6058 222.806 38.6266 222.749 38.6369 222.713C38.694 222.588 38.7251 222.443 38.7355 222.272C38.7407 222.256 38.7355 222.235 38.7407 222.209C38.7718 221.41 38.3101 220.71 37.6409 220.414C37.5112 220.647 37.1895 220.71 36.8886 220.679C36.6292 220.653 36.3698 220.507 36.3231 220.367C35.6331 220.621 35.1454 221.296 35.1143 222.095C35.1143 222.121 35.1143 222.142 35.1247 222.168C35.1143 222.256 35.1247 222.313 35.1402 222.381C35.2336 223.19 35.9807 223.419 36.8938 223.439V223.434Z" fill="#855946"/>
<path d="M36.8938 223.435C36.9301 223.435 36.9664 223.435 37.0131 223.435C37.7187 223.445 38.3101 223.321 38.5799 222.838C38.6058 222.807 38.6266 222.75 38.6369 222.714C38.694 222.589 38.7251 222.444 38.7355 222.272C38.7407 222.257 38.7355 222.236 38.7407 222.21C38.7718 221.411 38.3101 220.71 37.6409 220.415C37.5423 220.648 37.2725 220.814 36.9664 220.809C36.707 220.799 36.4787 220.674 36.375 220.487C36.349 220.446 36.3283 220.415 36.3179 220.373C35.6279 220.627 35.1402 221.302 35.1091 222.101C35.1091 222.127 35.1091 222.148 35.1195 222.174C35.1091 222.262 35.1195 222.319 35.135 222.387C35.2284 223.196 35.9755 223.425 36.8886 223.445L36.8938 223.435Z" fill="#673518"/>
<path opacity="0.5" d="M36.8963 223.434C36.9326 223.434 36.9689 223.434 37.0156 223.434C36.0662 223.388 35.3192 223.097 35.3607 222.106C35.3918 221.384 35.8017 220.762 36.3827 220.481C36.3568 220.44 36.336 220.409 36.3256 220.367C35.6356 220.621 35.148 221.296 35.1168 222.095C35.1168 222.121 35.1168 222.142 35.1272 222.168C35.1168 222.256 35.1272 222.313 35.1428 222.381C35.2362 223.19 35.9832 223.419 36.8963 223.439V223.434Z" fill="#A48E74"/>
<path d="M195.187 132.942L195.695 135.21L104.605 123.04L27.3658 172.844L26.8626 170.577L104.029 120.461L195.187 132.942Z" fill="#0D0D0D"/>
<path d="M195.688 135.203L118.122 183.528L66.242 177.42L27.3632 172.843L104.602 123.033L158.184 130.2L195.688 135.203Z" fill="#ECB88D"/>
<path d="M195.688 135.203L118.122 183.528L66.242 177.42L27.3632 172.843L104.602 123.033L158.184 130.2L195.688 135.203Z" fill="#2E2E2E"/>
<path opacity="0.5" d="M195.688 135.203L118.117 183.523L66.2368 177.42L63.8348 166.673C78.9526 145.992 121.728 133.594 158.178 130.195L195.688 135.203Z" fill="#4E4E4E"/>
<path d="M169.5 187.337C159.591 184.961 140.25 186.502 119.861 191.307C99.374 195.636 81.2212 202.486 73.2628 208.853L66.2642 177.508L63.8414 166.673C69.2058 158.681 88.8216 150.128 109.584 145.318C130.419 140.823 151.809 140.216 160.073 145.157L169.225 186.128L169.5 187.337Z" fill="#2E2E2E"/>
<path opacity="0.5" d="M169.5 187.339C159.591 184.962 140.25 186.504 119.861 191.309C99.374 195.637 81.2212 202.488 73.2628 208.855L66.2642 177.51C106.284 164.028 150.201 168.304 169.225 186.13L169.5 187.339Z" fill="#4E4E4E"/>
<path d="M163.782 173.044L170.381 176.09L175.922 165.042L170.002 162.67L163.782 173.044Z" fill="#F7C8B3"/>
<path opacity="0.25" d="M174.023 168.827C173.515 168.463 173.043 168.09 172.623 167.695C172.14 168.806 172.291 172.283 172.291 172.283L174.023 168.821V168.827Z" fill="#EF5A29"/>
<path d="M182.577 167.446C181.928 168.364 181.389 169.449 180.222 170.544C179.501 171.224 178.053 170.954 176.829 170.399C174.126 169.169 172.434 167.767 171.127 165.998C170.219 164.773 169.498 163.377 168.756 161.737C168.149 160.403 167.153 155.39 170.214 150.735C173.835 145.224 184.735 149.178 186.546 155.261C186.639 155.577 186.701 156.937 186.193 158.655C186.177 158.701 186.167 158.748 186.152 158.795C185.752 160.071 185.041 161.535 183.801 162.91C183.542 163.195 183.417 163.574 183.547 163.938C183.801 164.654 184.377 165.65 184.761 166.159C185.295 166.875 182.582 167.446 182.582 167.446H182.577Z" fill="#F7C8B3"/>
<path d="M188.107 157.782C189.144 157.819 190.436 156.646 190.815 155.177C191.074 154.17 190.343 152.769 189.289 152.504C190.509 150.408 188.371 148.524 186.571 148.592C186.369 147.377 185.435 146.76 184.267 146.417C183.1 146.075 182.052 146.355 181.051 147.045C180.838 146.287 180.034 145.742 179.251 145.826C179.064 145.846 178.877 145.893 178.695 145.862C178.348 145.794 178.13 145.457 177.891 145.192C177.03 144.238 175.484 144.118 174.421 144.902C173.596 143.931 171.246 143.926 170.332 145.032C169.705 144.627 167.214 145.457 166.867 147.408C165.84 147.258 164.745 147.528 163.946 148.192C163.147 148.851 162.665 149.899 162.742 150.937C162.203 150.979 161.746 151.384 161.492 151.861C161.238 152.338 160.953 153.252 161.435 153.802C159.78 154.326 159.142 156.827 160.138 158.249C159.095 159.132 158.794 160.777 159.458 161.965C160.123 163.153 161.674 163.771 162.976 163.351C163.879 164.425 165.523 164.788 166.789 164.191C167.38 164.679 168.247 164.7 168.973 164.435C169.938 164.238 171.199 163.714 171.51 162.93C169.58 161.732 169.648 158.846 171.609 157.985C173.279 157.248 174.203 159.531 174.011 160.263L175.188 160.102C175.188 160.102 175.484 159.183 175.681 159.033C176.351 158.535 177.331 158.379 177.668 158.088C176.304 156.843 178.939 157.144 179.168 156.874C179.546 156.428 180.148 156.262 180.708 156.433C182.815 157.092 185.45 156.682 185.979 155.898C186.166 156.412 186.649 158.545 185.129 161.104C185.959 162.344 187.577 161.239 187.147 160.019C187.925 160.377 189.196 158.716 188.101 157.793L188.107 157.782Z" fill="#050505"/>
<path d="M184.977 159.615C184.536 159.184 183.602 159.059 183.311 159.049C183.021 159.038 182.725 159.07 182.445 159.132C182.165 159.194 181.9 159.319 181.651 159.448L181.672 159.495C181.942 159.428 182.206 159.371 182.476 159.376C182.741 159.365 183.01 159.381 183.27 159.438C183.529 159.49 184.551 159.744 184.852 159.76L184.977 159.62V159.615Z" fill="#2C1C28"/>
<path d="M181.305 167.366L180.978 167.21L179.442 166.463C179.442 166.463 178.405 168.222 179.188 168.731C179.971 169.239 181.305 167.366 181.305 167.366Z" fill="#F17762"/>
<path d="M183.012 162.447C182.726 162.862 182.265 163.039 181.99 162.847C181.715 162.655 181.72 162.162 182.011 161.752C182.301 161.342 182.758 161.16 183.033 161.352C183.308 161.544 183.302 162.037 183.012 162.447Z" fill="#2C1C28"/>
<path d="M201.511 249.34L209.449 250.404C209.449 250.404 205.989 270.877 208.541 273.015C208.764 273.684 216.318 278.63 215.555 279.159C214.798 279.683 199.415 275.007 199.281 274.462C199.249 274.338 201.61 265.687 201.631 265.568L201.517 249.34H201.511Z" fill="#F7C8B3"/>
<path d="M207.781 269.936C207.781 269.936 210.676 273.444 211.039 274.009C211.371 274.528 213.934 275.717 215.745 276.557C218.401 277.793 218.697 279.209 218.853 279.749C218.982 279.775 219.06 279.91 219.034 280.055L218.936 280.574C218.936 280.574 210.879 279.573 207.709 278.675C207.709 278.675 205.395 276.329 204.918 278.14L198.381 277.04L198.77 275.037H199.107C199.117 273.921 199.392 271.856 200.077 270.065L200.409 270.024C200.409 270.024 200.036 270.942 202.365 271.56C204.694 272.177 205.981 272.12 206.266 271.716C206.552 271.311 206.448 271.482 206.448 271.482C206.448 271.482 206.474 270.294 207.781 269.936Z" fill="#252525"/>
<path d="M199.145 225.811L161.522 227.591L158.445 210.471L205.319 214.072C209.817 214.316 212.431 216.532 212.187 219.526C212.187 219.526 208.115 266.642 208.042 268.495L206.029 269.45L200.509 268.412L198.216 240.601C197.863 235.65 198.175 230.674 199.145 225.806V225.811Z" fill="#252525"/>
<path d="M226.967 253.396L228.591 257.739C229.82 261.04 232.191 270.303 234.391 272.467C234.998 272.82 230.324 277.787 229.867 277.47C229.763 277.398 226.007 267.901 225.95 267.792L223.242 262.078C222.464 260.433 221.629 258.819 220.731 257.241L219.029 254.107L226.962 253.391L226.967 253.396Z" fill="#F7C8B3"/>
<path d="M234.515 271.869C234.515 271.869 236.647 275.881 236.886 276.509C237.109 277.08 239.376 278.756 240.984 279.939C243.339 281.672 243.345 283.12 243.386 283.675C243.505 283.727 243.557 283.878 243.5 284.013L243.298 284.501C243.298 284.501 235.604 281.921 232.678 280.411C232.678 280.411 230.883 277.656 230.048 279.337L223.858 276.965L224.642 275.076L224.969 275.144C225.207 274.054 225.892 272.082 226.925 270.463H227.013C227.013 270.463 227.288 271.428 228.865 272.378C230.925 273.623 232.294 273.644 232.657 273.302C233.02 272.959 232.886 273.11 232.886 273.11C232.886 273.11 233.15 271.947 234.504 271.859L234.515 271.869Z" fill="#252525"/>
<path d="M151.738 221.508C151.754 216.36 151.468 214.419 152.573 206.77L171.261 207.278L171.364 211.544L209.553 216.5C209.958 216.531 213.392 217.055 214.15 219.069C214.15 219.069 232.074 266.761 233.07 269.179L230.445 270.461L225.786 269.646L211.172 244.217C209.034 240.502 207.488 236.475 206.591 232.287L205.709 228.171C205.709 228.171 169.901 230.481 160.018 229.386C153.907 228.711 151.749 223.822 151.738 221.498V221.508Z" fill="#252525"/>
<path d="M171.263 207.096L171.32 209.582L152.156 209.603L152.576 206.77L171.263 207.096Z" fill="#462B20"/>
<path d="M204.261 212.386L217.791 212.458L229.672 186.168L215.659 189.142L204.261 212.386Z" fill="#F7F8FC"/>
<path d="M217.797 212.391H187.52V212.936C187.52 213.444 187.935 213.859 188.443 213.859H216.873C217.382 213.859 217.797 213.444 217.797 212.936V212.391Z" fill="#935E3D"/>
<path d="M219.28 212.22L230.527 187.393C230.698 187.009 230.527 186.563 230.149 186.387L218.273 212.594C218.657 212.765 219.103 212.594 219.28 212.215V212.22Z" fill="#935E3D"/>
<path d="M217.791 212.375L229.666 186.168L230.148 186.386L218.268 212.593L217.791 212.375Z" fill="#FCE3D1"/>
<path d="M214.734 191.034L226.241 188.833L227.227 186.68L215.663 189.129L214.734 191.034Z" fill="#ECB88D"/>
<path d="M214.18 192.172L225.672 190.076L226.242 188.83L214.735 191.03L214.18 192.172Z" fill="#DBC6BE"/>
<path d="M212.485 195.653L223.935 193.889L225.18 191.164L213.699 193.167L212.485 195.653Z" fill="#ECB88D"/>
<path d="M215.384 194.453L223.851 193.099L224.344 192.02L215.867 193.447L215.384 194.453Z" fill="#F4F9F8"/>
<path d="M213.929 194.697L214.666 194.578L215.148 193.576L214.412 193.701L213.929 194.697Z" fill="#F4F9F8"/>
<path d="M212.463 201.557L215.249 201.271L217.562 196.367L214.761 196.762L212.463 201.557Z" fill="#E2D6CB"/>
<path d="M213.198 196.814C213.198 196.814 213.203 196.814 213.209 196.814C213.556 196.762 213.546 197.374 213.235 198.313L211.657 200.005L213.198 196.814Z" fill="#E5E5F1"/>
<path d="M213.234 198.314C213.094 198.74 212.897 199.233 212.638 199.762C212.347 200.37 212.02 200.946 211.699 201.439L211.657 200.006L213.234 198.314Z" fill="#E5E5F1"/>
<path d="M211.613 198.56C212.23 197.574 212.848 196.873 213.195 196.816L211.654 200.008L211.613 198.56Z" fill="#E5E5F1"/>
<path d="M211.615 198.56L211.656 200.008L210.172 201.601C210.318 201.134 210.541 200.573 210.831 199.971C211.075 199.463 211.345 198.985 211.615 198.555V198.56Z" fill="#E9E2D8"/>
<path d="M211.625 201.797C211.039 202.695 210.468 203.312 210.146 203.338L211.584 200.359L211.625 201.797Z" fill="#E2D6CB"/>
<path d="M210.224 202.983C209.908 203.009 209.913 202.454 210.172 201.603L211.656 200.01L210.219 202.983H210.224Z" fill="#E2D6CB"/>
<path d="M219.183 196.347L221.238 196.062L221.461 195.574L219.406 195.865L219.183 196.347Z" fill="#E2D6CB"/>
<path d="M219.22 197.872L221.839 197.54L222.078 197.016L219.458 197.358L219.22 197.872Z" fill="#E2D6CB"/>
<path d="M218.046 199.015L220.977 198.672L221.117 198.355L218.186 198.708L218.046 199.015Z" fill="#E2D6CB"/>
<path d="M217.784 199.563L221.073 199.19L221.219 198.873L217.93 199.257L217.784 199.563Z" fill="#E2D6CB"/>
<path d="M217.534 200.106L220.823 199.748L220.969 199.432L217.68 199.8L217.534 200.106Z" fill="#E2D6CB"/>
<path d="M217.725 200.602L220.573 200.306L220.719 199.984L217.871 200.291L217.725 200.602Z" fill="#E2D6CB"/>
<path d="M217.022 201.202L219.948 200.906L220.094 200.59L217.168 200.891L217.022 201.202Z" fill="#E2D6CB"/>
<path d="M216.774 201.75L220.058 201.433L220.203 201.111L216.919 201.438L216.774 201.75Z" fill="#E2D6CB"/>
<path d="M216.508 202.304L219.792 202.003L219.938 201.682L216.659 201.993L216.508 202.304Z" fill="#E2D6CB"/>
<path d="M216.256 202.857L219.534 202.572L219.68 202.25L216.401 202.546L216.256 202.857Z" fill="#E2D6CB"/>
<path d="M215.998 203.41L219.277 203.14L219.422 202.818L216.143 203.099L215.998 203.41Z" fill="#E2D6CB"/>
<path d="M215.74 203.97L219.014 203.716L219.164 203.389L215.885 203.653L215.74 203.97Z" fill="#E2D6CB"/>
<path d="M216.367 204.466L218.748 204.29L218.898 203.963L216.512 204.145L216.367 204.466Z" fill="#E2D6CB"/>
<path d="M215.216 205.083L216.42 204.999L216.57 204.678L215.367 204.766L215.216 205.083Z" fill="#E2D6CB"/>
<path d="M215.046 205.641L215.943 205.583L216.094 205.262L215.196 205.324L215.046 205.641Z" fill="#E2D6CB"/>
<path d="M214.414 207.119L217.35 206.968C217.443 206.968 217.63 206.709 217.77 206.402C217.91 206.096 217.947 205.852 217.858 205.858L214.917 206.034C214.829 206.039 214.647 206.283 214.507 206.584C214.367 206.885 214.325 207.124 214.414 207.119Z" fill="#E2D6CB"/>
<path d="M210.696 210.5L210.955 210.495L212.797 206.582L212.543 206.592L210.696 210.5Z" fill="#E9E2D8"/>
<path d="M210.384 210.507L210.638 210.501L211.992 207.637L211.738 207.647L210.384 210.507Z" fill="#E9E2D8"/>
<path d="M210.324 210.507L212.539 205.836L212.28 205.852L210.07 210.512L210.324 210.507Z" fill="#E9E2D8"/>
<path d="M209.762 210.52L210.017 210.515L211.594 207.193L211.34 207.209L209.762 210.52Z" fill="#E9E2D8"/>
<path d="M209.462 210.525L209.716 210.519L212.289 205.102L212.035 205.117L209.462 210.525Z" fill="#E9E2D8"/>
<path d="M209.152 210.535L209.406 210.53L211.414 206.301L211.165 206.316L209.152 210.535Z" fill="#E9E2D8"/>
<path d="M208.85 210.543L209.099 210.538L211.781 204.912L211.532 204.928L208.85 210.543Z" fill="#E9E2D8"/>
<path d="M208.55 210.547L208.794 210.542L212.062 203.707L211.813 203.728L208.55 210.547Z" fill="#E9E2D8"/>
<path d="M208.252 210.552L208.495 210.547L211.328 204.631L211.079 204.646L208.252 210.552Z" fill="#E9E2D8"/>
<path d="M205.606 210.611L205.84 210.605L208.117 205.914L207.884 205.93L205.606 210.611Z" fill="#E9E2D8"/>
<path d="M205.898 210.604L206.131 210.598L207.688 207.396L207.449 207.407L205.898 210.604Z" fill="#E9E2D8"/>
<path d="M206.18 210.6L206.419 210.595L208.234 206.838L208.001 206.853L206.18 210.6Z" fill="#E9E2D8"/>
<path d="M206.474 210.593L206.713 210.588L207.859 208.211L207.621 208.221L206.474 210.593Z" fill="#E9E2D8"/>
<path d="M206.763 210.584L207.001 210.579L209.289 205.836L209.045 205.852L206.763 210.584Z" fill="#E9E2D8"/>
<path d="M207.053 210.583L207.297 210.578L209.289 206.432L209.05 206.447L207.053 210.583Z" fill="#E9E2D8"/>
<path d="M207.347 210.568L207.586 210.563L210.258 205.016L210.014 205.031L207.347 210.568Z" fill="#E9E2D8"/>
<path d="M207.644 210.567L207.888 210.562L211.141 203.779L210.897 203.8L207.644 210.567Z" fill="#E9E2D8"/>
<path d="M207.937 210.558L208.18 210.553L210.375 205.971L210.131 205.986L207.937 210.558Z" fill="#E9E2D8"/>
<path d="M217.874 212.396L229.672 186.168L227.228 186.677L215.478 212.406L217.874 212.396Z" fill="#ECB88D"/>
<path d="M225.973 190.874L227.015 190.692L228.281 187.885L227.238 188.092L225.973 190.874Z" fill="#FDF9F3"/>
<path d="M226.245 192.713L226.541 192.666L227.039 191.561L226.743 191.612L226.245 192.713Z" fill="#FFFEFF"/>
<path d="M224.563 192.982L226.197 192.723L226.695 191.617L225.056 191.892L224.563 192.982Z" fill="#FFFEFF"/>
<path d="M224.19 193.796L226.172 193.49L226.281 193.246L224.299 193.552L224.19 193.796Z" fill="#FFFEFF"/>
<path d="M223.761 194.731L225.737 194.441L225.852 194.191L223.87 194.487L223.761 194.731Z" fill="#FFFEFF"/>
<path d="M225.238 195.301C225.196 195.394 225.186 195.472 225.217 195.467C225.248 195.467 225.31 195.379 225.352 195.285C225.393 195.192 225.404 195.114 225.373 195.119C225.341 195.119 225.279 195.208 225.238 195.301Z" fill="#FFFEFF"/>
<path d="M225.089 195.323C225.048 195.416 225.037 195.494 225.068 195.489C225.1 195.489 225.162 195.406 225.203 195.307C225.245 195.214 225.255 195.136 225.224 195.141C225.193 195.141 225.131 195.224 225.089 195.323Z" fill="#FFFEFF"/>
<path d="M224.949 195.338C224.907 195.432 224.897 195.509 224.928 195.504C224.959 195.504 225.021 195.421 225.063 195.323C225.104 195.229 225.115 195.151 225.083 195.156C225.052 195.156 224.99 195.24 224.949 195.338Z" fill="#FFFEFF"/>
<path d="M224.8 195.364C224.759 195.457 224.748 195.535 224.779 195.53C224.811 195.53 224.873 195.447 224.914 195.348C224.956 195.255 224.966 195.177 224.935 195.182C224.904 195.182 224.842 195.265 224.8 195.364Z" fill="#FFFEFF"/>
<path d="M224.652 195.385C224.61 195.478 224.6 195.556 224.631 195.551C224.662 195.551 224.724 195.468 224.766 195.369C224.807 195.276 224.818 195.198 224.787 195.203C224.755 195.203 224.693 195.286 224.652 195.385Z" fill="#FFFEFF"/>
<path d="M224.503 195.401C224.462 195.494 224.451 195.572 224.483 195.567C224.514 195.567 224.576 195.484 224.617 195.385C224.659 195.292 224.669 195.214 224.638 195.219C224.607 195.219 224.545 195.302 224.503 195.401Z" fill="#FFFEFF"/>
<path d="M224.355 195.426C224.313 195.519 224.303 195.597 224.334 195.592C224.365 195.592 224.427 195.509 224.469 195.41C224.51 195.317 224.521 195.244 224.49 195.244C224.459 195.244 224.396 195.327 224.355 195.426Z" fill="#FFFEFF"/>
<path d="M224.206 195.447C224.165 195.541 224.155 195.613 224.186 195.613C224.217 195.613 224.279 195.53 224.321 195.432C224.362 195.338 224.372 195.266 224.341 195.266C224.31 195.266 224.248 195.349 224.206 195.447Z" fill="#FFFEFF"/>
<path d="M224.066 195.463C224.024 195.556 224.014 195.629 224.045 195.629C224.076 195.629 224.138 195.546 224.18 195.447C224.221 195.354 224.232 195.281 224.201 195.281C224.17 195.281 224.107 195.364 224.066 195.463Z" fill="#FFFEFF"/>
<path d="M223.917 195.484C223.876 195.578 223.865 195.65 223.897 195.65C223.928 195.65 223.99 195.567 224.031 195.469C224.073 195.375 224.083 195.303 224.052 195.303C224.021 195.303 223.959 195.386 223.917 195.484Z" fill="#FFFEFF"/>
<path d="M223.769 195.511C223.727 195.604 223.717 195.677 223.748 195.677C223.779 195.677 223.842 195.594 223.883 195.495C223.925 195.402 223.935 195.329 223.904 195.334C223.873 195.334 223.81 195.417 223.769 195.516V195.511Z" fill="#FFFEFF"/>
<path d="M224.941 195.969C224.899 196.068 224.889 196.14 224.92 196.135C224.951 196.135 225.013 196.047 225.055 195.953C225.096 195.855 225.107 195.782 225.076 195.787C225.045 195.787 224.982 195.876 224.941 195.969Z" fill="#FFFEFF"/>
<path d="M224.792 195.99C224.751 196.084 224.74 196.162 224.772 196.157C224.803 196.151 224.865 196.068 224.906 195.975C224.948 195.876 224.958 195.804 224.927 195.809C224.896 195.809 224.834 195.892 224.792 195.99Z" fill="#FFFEFF"/>
<path d="M224.652 196.006C224.61 196.099 224.6 196.177 224.631 196.172C224.662 196.167 224.724 196.089 224.766 195.991C224.807 195.897 224.818 195.819 224.787 195.824C224.755 195.824 224.693 195.907 224.652 196.006Z" fill="#FFFEFF"/>
<path d="M224.503 196.026C224.462 196.119 224.451 196.197 224.483 196.192C224.514 196.187 224.576 196.109 224.617 196.01C224.659 195.917 224.669 195.839 224.638 195.844C224.607 195.844 224.545 195.927 224.503 196.026Z" fill="#FFFEFF"/>
<path d="M224.347 196.047C224.306 196.141 224.295 196.218 224.326 196.213C224.357 196.213 224.42 196.13 224.461 196.032C224.503 195.938 224.513 195.86 224.482 195.865C224.451 195.865 224.389 195.949 224.347 196.047Z" fill="#FFFEFF"/>
<path d="M224.206 196.063C224.165 196.156 224.155 196.234 224.186 196.229C224.217 196.229 224.279 196.146 224.321 196.047C224.362 195.954 224.372 195.876 224.341 195.881C224.31 195.881 224.248 195.964 224.206 196.063Z" fill="#FFFEFF"/>
<path d="M224.058 196.084C224.016 196.178 224.006 196.255 224.037 196.25C224.068 196.25 224.131 196.167 224.172 196.069C224.214 195.975 224.224 195.897 224.193 195.903C224.162 195.903 224.099 195.986 224.058 196.084Z" fill="#FFFEFF"/>
<path d="M223.91 196.11C223.868 196.203 223.858 196.281 223.889 196.276C223.92 196.276 223.982 196.193 224.024 196.094C224.065 196.001 224.076 195.923 224.044 195.928C224.013 195.928 223.951 196.011 223.91 196.11Z" fill="#FFFEFF"/>
<path d="M223.769 196.125C223.727 196.219 223.717 196.297 223.748 196.291C223.779 196.291 223.842 196.208 223.883 196.11C223.925 196.016 223.935 195.938 223.904 195.944C223.873 195.944 223.81 196.027 223.769 196.125Z" fill="#FFFEFF"/>
<path d="M223.62 196.147C223.579 196.24 223.569 196.318 223.6 196.313C223.631 196.313 223.693 196.23 223.735 196.131C223.776 196.033 223.786 195.96 223.755 195.965C223.724 195.965 223.662 196.048 223.62 196.147Z" fill="#FFFEFF"/>
<path d="M223.472 196.162C223.431 196.256 223.42 196.333 223.451 196.328C223.482 196.328 223.545 196.245 223.586 196.147C223.628 196.053 223.638 195.98 223.607 195.98C223.576 195.98 223.514 196.064 223.472 196.162Z" fill="#FFFEFF"/>
<path d="M222.022 199.016L223.542 198.839C223.661 198.824 223.894 198.513 224.066 198.144C224.232 197.776 224.268 197.485 224.149 197.501L222.623 197.693C222.504 197.708 222.276 198.014 222.11 198.378C221.944 198.741 221.902 199.032 222.022 199.016Z" fill="#F4F9F8"/>
<path d="M165.166 168.384L173.565 174.741L174.977 171.238L166.287 166.381L165.166 168.384Z" fill="#E08141"/>
<path d="M176.959 195.156L189.95 206.054C190.033 206.106 190.09 206.168 190.142 206.236L197.358 207.3L203.688 211.171L202.92 211.643L196.004 210.694L190.453 211.073C189.851 211.088 188.092 209.801 187.418 208.551L172.689 199.484L176.949 195.161L176.959 195.156Z" fill="#E6A38C"/>
<path opacity="0.05" d="M182.112 199.377L179.227 196.953L176.104 201.759L183.352 206.222L182.112 199.377Z" fill="black"/>
<path d="M168.172 172.15C171.757 171.678 173.973 175.232 173.978 178.528C173.993 185.347 174.958 193.37 174.958 193.37L179.586 196.868L175.835 202.125L168.753 197.651C168.753 197.651 165.962 184.491 165.298 180.163C164.759 176.654 166.05 172.43 168.178 172.15H168.172Z" fill="#F37021"/>
<path d="M177.304 203.712L174.295 201.968L178.518 194.822L181.227 197.08L177.304 203.712Z" fill="white"/>
<path d="M175.291 187.97C174.694 191.187 173.543 198.38 172.707 203.731C172.324 206.159 172.002 208.209 171.826 209.335C171.717 209.989 171.359 210.57 170.829 210.97C167.935 213.16 164.422 213.71 160.557 213.404C157.901 213.196 155.068 212.589 152.142 211.852C151.406 211.665 150.902 211.001 150.892 210.243C150.85 207.233 151.831 202.968 153.533 198.287L155.727 182.075C156.147 177.643 158.171 173.496 161.47 170.512C162.975 169.163 163.955 168.566 165.159 168.094C166.617 167.539 170.892 171.021 173.558 174.451C174.643 175.842 176.168 183.138 175.281 187.965L175.291 187.97Z" fill="#F37021"/>
<g opacity="0.3">
<path d="M173.945 195.862C173.925 196.127 172.726 203.47 172.705 203.724C172.321 206.153 172 208.203 171.823 209.329C171.714 209.983 171.357 210.564 170.827 210.964C167.932 213.154 164.42 213.704 160.555 213.398C162.921 211.561 167.45 207.642 168.114 206.942C168.565 206.464 169.561 204.601 168.996 204.29L162.501 202.214C160.82 201.576 160.477 200.19 160.114 198.426L157.572 185.862C158.003 181.373 157.551 176.988 160.898 173.962C161.676 173.256 169.001 173.677 169.338 180.87C169.665 187.808 170.412 192.826 173.94 195.852L173.945 195.862Z" fill="#F37021"/>
</g>
<path d="M165.166 168.099L173.565 174.456L174.172 170.616L166.286 166.381L165.166 168.099Z" fill="white"/>
<path d="M172.924 196.127L186.745 207.025C186.833 207.077 186.895 207.139 186.947 207.207L194.625 208.271L201.359 212.142L200.545 212.614L193.188 211.664L187.284 212.043C186.646 212.059 184.773 210.772 184.057 209.521L168.39 200.455L172.924 196.132V196.127Z" fill="#EABBAB"/>
<path opacity="0.05" d="M177.042 199.377L173.97 196.953L170.645 201.759L178.359 206.222L177.042 199.377Z" fill="black"/>
<path d="M162.214 172.15C166.033 171.678 168.383 175.232 168.393 178.528C168.409 185.347 170.069 193.085 170.069 193.085L174.359 196.868L170.365 202.125L167.35 200.334C164.456 198.617 162.406 195.773 161.685 192.488C160.767 188.305 159.568 182.711 159.153 180.168C158.578 176.66 159.952 172.435 162.214 172.155V172.15Z" fill="#F37021"/>
<path d="M171.938 203.712L168.737 201.968L173.23 194.822L176.109 197.08L171.938 203.712Z" fill="white"/>
<defs>
<linearGradient id="paint0_linear_5535_25662" x1="419.652" y1="304.969" x2="228.01" y2="221.61" gradientUnits="userSpaceOnUse">
<stop stop-color="#FFD8BA"/>
<stop offset="1" stop-color="#FFF5EC"/>
</linearGradient>
</defs>
</svg>
