<svg width="56" height="60" viewBox="0 0 56 60" fill="none" xmlns="http://www.w3.org/2000/svg">
<rect width="56" height="56" transform="translate(0 4)" fill="#F37021"/>
<rect width="52" height="24" transform="translate(2 4)" fill="#F37021"/>
<path d="M17.0078 11.0469V21H15.1348V11.0469H17.0078ZM20.0977 11.0469V12.5303H12.0791V11.0469H20.0977ZM22.9824 10.5V21H21.1709V10.5H22.9824ZM22.6953 17.0352H22.1621C22.1621 16.5202 22.2305 16.0462 22.3672 15.6133C22.5039 15.1803 22.6976 14.8044 22.9482 14.4854C23.1989 14.1618 23.4974 13.9111 23.8438 13.7334C24.1947 13.5557 24.582 13.4668 25.0059 13.4668C25.3704 13.4668 25.7008 13.5192 25.9971 13.624C26.2979 13.7243 26.5553 13.8861 26.7695 14.1094C26.9837 14.3327 27.1478 14.6243 27.2617 14.9844C27.3802 15.3398 27.4395 15.7728 27.4395 16.2832V21H25.6211V16.2695C25.6211 15.9277 25.571 15.6589 25.4707 15.4629C25.3704 15.2624 25.2269 15.1188 25.04 15.0322C24.8577 14.9456 24.6322 14.9023 24.3633 14.9023C24.0716 14.9023 23.821 14.9593 23.6113 15.0732C23.4017 15.1826 23.2285 15.3353 23.0918 15.5312C22.9596 15.7272 22.8594 15.9528 22.791 16.208C22.7272 16.4632 22.6953 16.7389 22.6953 17.0352ZM35.5264 15.1689V16.8438C35.5264 17.6094 35.4489 18.2633 35.2939 18.8057C35.139 19.348 34.9157 19.7923 34.624 20.1387C34.3324 20.4805 33.9837 20.7334 33.5781 20.8975C33.1725 21.057 32.7214 21.1367 32.2246 21.1367C31.8281 21.1367 31.459 21.0866 31.1172 20.9863C30.7754 20.8815 30.4678 20.722 30.1943 20.5078C29.9255 20.2891 29.693 20.0111 29.4971 19.6738C29.3057 19.3366 29.1576 18.9333 29.0527 18.4639C28.9525 17.9945 28.9023 17.4544 28.9023 16.8438V15.1689C28.9023 14.4033 28.9798 13.7516 29.1348 13.2139C29.2943 12.6761 29.5199 12.2363 29.8115 11.8945C30.1032 11.5527 30.4518 11.3044 30.8574 11.1494C31.263 10.9899 31.7142 10.9102 32.2109 10.9102C32.612 10.9102 32.9811 10.9603 33.3184 11.0605C33.6602 11.1608 33.9655 11.318 34.2344 11.5322C34.5078 11.7419 34.7402 12.0153 34.9316 12.3525C35.123 12.6852 35.2689 13.0863 35.3691 13.5557C35.474 14.0205 35.5264 14.5583 35.5264 15.1689ZM33.7217 17.0898V14.916C33.7217 14.5332 33.6989 14.2005 33.6533 13.918C33.6123 13.6309 33.5508 13.387 33.4688 13.1865C33.3867 12.986 33.2842 12.8242 33.1611 12.7012C33.0381 12.5736 32.8968 12.4801 32.7373 12.4209C32.5778 12.3617 32.4023 12.332 32.2109 12.332C31.974 12.332 31.762 12.3799 31.5752 12.4756C31.3883 12.5667 31.2311 12.7126 31.1035 12.9131C30.9759 13.1136 30.8779 13.3802 30.8096 13.7129C30.7458 14.041 30.7139 14.4421 30.7139 14.916V17.0898C30.7139 17.4727 30.7344 17.8076 30.7754 18.0947C30.821 18.3818 30.8848 18.6279 30.9668 18.833C31.0534 19.0381 31.1559 19.2067 31.2744 19.3389C31.3975 19.4665 31.5387 19.5622 31.6982 19.626C31.8577 19.6852 32.0332 19.7148 32.2246 19.7148C32.4661 19.7148 32.6781 19.667 32.8604 19.5713C33.0472 19.4756 33.2044 19.3252 33.332 19.1201C33.4596 18.9105 33.5553 18.6393 33.6191 18.3066C33.6875 17.9694 33.7217 17.5638 33.7217 17.0898ZM41.583 11.0195V21H39.7715V13.1318L37.3721 13.9248V12.4619L41.3779 11.0195H41.583Z" fill="white"/>
<rect width="52" height="30" transform="translate(2 28)" fill="white"/>
<path d="M27.0625 41.6406V44.1016C27.0625 45.1693 26.9486 46.0905 26.7207 46.8652C26.4928 47.6335 26.1641 48.265 25.7344 48.7598C25.3112 49.248 24.8066 49.6094 24.2207 49.8438C23.6348 50.0781 22.9837 50.1953 22.2676 50.1953C21.6947 50.1953 21.1608 50.1237 20.666 49.9805C20.1712 49.8307 19.7253 49.5996 19.3281 49.2871C18.9375 48.9746 18.599 48.5807 18.3125 48.1055C18.0326 47.6237 17.8177 47.0508 17.668 46.3867C17.5182 45.7227 17.4434 44.9609 17.4434 44.1016V41.6406C17.4434 40.5729 17.5573 39.6582 17.7852 38.8965C18.0195 38.1283 18.3483 37.5 18.7715 37.0117C19.2012 36.5234 19.709 36.1654 20.2949 35.9375C20.8809 35.7031 21.5319 35.5859 22.248 35.5859C22.821 35.5859 23.3516 35.6608 23.8398 35.8105C24.3346 35.9538 24.7806 36.1784 25.1777 36.4844C25.5749 36.7904 25.9134 37.1842 26.1934 37.666C26.4733 38.1413 26.6882 38.7109 26.8379 39.375C26.9876 40.0326 27.0625 40.7878 27.0625 41.6406ZM24.2402 44.4727V41.2598C24.2402 40.7454 24.2109 40.2962 24.1523 39.9121C24.1003 39.528 24.0189 39.2025 23.9082 38.9355C23.7975 38.6621 23.6608 38.4408 23.498 38.2715C23.3353 38.1022 23.1497 37.9785 22.9414 37.9004C22.7331 37.8223 22.502 37.7832 22.248 37.7832C21.929 37.7832 21.6458 37.8451 21.3984 37.9688C21.1576 38.0924 20.9525 38.291 20.7832 38.5645C20.6139 38.8314 20.4837 39.1895 20.3926 39.6387C20.3079 40.0814 20.2656 40.6217 20.2656 41.2598V44.4727C20.2656 44.987 20.2917 45.4395 20.3438 45.8301C20.4023 46.2207 20.487 46.556 20.5977 46.8359C20.7148 47.1094 20.8516 47.334 21.0078 47.5098C21.1706 47.679 21.3561 47.8027 21.5645 47.8809C21.7793 47.959 22.0137 47.998 22.2676 47.998C22.5801 47.998 22.8568 47.9362 23.0977 47.8125C23.3451 47.6823 23.5534 47.4805 23.7227 47.207C23.8984 46.9271 24.0286 46.5625 24.1133 46.1133C24.1979 45.6641 24.2402 45.1172 24.2402 44.4727ZM35.832 35.752V50H33.0195V38.9941L29.6406 40.0684V37.8516L35.5293 35.752H35.832Z" fill="#F37021"/>
<rect x="8" width="4" height="8" fill="#F37021"/>
<rect x="26" width="4" height="8" fill="#F37021"/>
<rect x="44" width="4" height="8" fill="#F37021"/>
</svg>
