<svg width="328" height="249" viewBox="0 0 328 249" fill="none" xmlns="http://www.w3.org/2000/svg">
<g clip-path="url(#clip0_5535_44513)">
<path d="M34.0908 18.5625C31.7665 18.5625 29.8823 20.4467 29.8823 22.7711V191.898C29.8823 192.981 30.2996 194.022 31.0476 194.805L80.9138 247.009C81.7079 247.84 82.8075 248.31 83.9571 248.31H323.535C325.86 248.31 327.744 246.426 327.744 244.102V103.386C327.744 102.224 327.263 101.113 326.415 100.317L270.432 47.7952H133.679L103.893 18.5625H34.0908Z" fill="#F37021"/>
<path d="M9.94699 138.496L0.159431 124.765V119.01L9.94699 132.74V138.496Z" fill="#CBCBCB"/>
<path d="M9.94699 128.756L0.159431 115.025V109.27L9.94699 122.999V128.756Z" fill="#CBCBCB"/>
<path d="M207.697 47.793L327.744 172.966V153.858L226.022 47.793H207.697Z" fill="#EDAA6F"/>
<path d="M149.285 47.793L327.744 233.872V183.715L197.388 47.793H149.285Z" fill="#EDAA6F"/>
<path d="M29.8788 66.6055V145.366L128.608 248.31H204.142L29.8788 66.6055Z" fill="#EDAA6F"/>
<path d="M9.94699 119.008L0.159431 105.278V99.5215L9.94699 113.251V119.008Z" fill="#CBCBCB"/>
<path d="M9.94699 109.268L0.159431 95.5377V89.7812L9.94699 103.511V109.268Z" fill="#CBCBCB"/>
<path d="M9.94699 99.5273L0.159431 85.7975V80.041L9.94699 93.7709V99.5273Z" fill="#CBCBCB"/>
<path d="M9.94699 89.7773L0.159431 76.0475V70.291L9.94699 84.0217V89.7773Z" fill="#CBCBCB"/>
<path d="M9.94699 80.0371L0.159431 66.3072V60.5508L9.94699 74.2815V80.0371Z" fill="#CBCBCB"/>
<path d="M9.94699 70.2969L0.159431 56.567V50.8105L9.94699 64.5412V70.2969Z" fill="#CBCBCB"/>
<path d="M9.94699 60.5508L0.159431 46.8209V41.0645L9.94699 54.7951V60.5508Z" fill="#CBCBCB"/>
<path d="M9.94699 50.8058L0.159431 37.076V31.3203L9.94699 45.0502V50.8058Z" fill="#CBCBCB"/>
<path d="M244.628 46.5955L229.07 31.2236L234.257 31.2188L249.814 46.5899L244.628 46.5955Z" fill="#CBCBCB"/>
<path d="M236.408 46.5955L220.851 31.2236L226.038 31.2188L241.595 46.5899L236.408 46.5955Z" fill="#CBCBCB"/>
<path d="M228.191 46.5955L212.633 31.2236L217.819 31.2188L233.377 46.5899L228.191 46.5955Z" fill="#CBCBCB"/>
<path d="M219.963 46.5955L204.406 31.2236L209.592 31.2188L225.15 46.5899L219.963 46.5955Z" fill="#CBCBCB"/>
<path d="M211.745 46.5955L196.188 31.2236L201.374 31.2188L216.931 46.5899L211.745 46.5955Z" fill="#CBCBCB"/>
<path d="M203.526 46.5955L187.968 31.2236L193.155 31.2188L208.713 46.5899L203.526 46.5955Z" fill="#CBCBCB"/>
<path d="M195.299 46.5955L179.741 31.2236L184.928 31.2188L200.486 46.5899L195.299 46.5955Z" fill="#CBCBCB"/>
<path d="M187.081 46.5955L171.524 31.2236L176.71 31.2188L192.267 46.5899L187.081 46.5955Z" fill="#CBCBCB"/>
<path d="M178.862 46.5955L163.304 31.2236L168.491 31.2188L184.049 46.5899L178.862 46.5955Z" fill="#CBCBCB"/>
<path d="M170.636 46.5955L155.078 31.2236L160.264 31.2188L175.822 46.5899L170.636 46.5955Z" fill="#CBCBCB"/>
<path d="M162.416 46.5955L146.859 31.2236L152.046 31.2188L167.603 46.5899L162.416 46.5955Z" fill="#CBCBCB"/>
<path d="M154.198 46.5955L138.641 31.2236L143.827 31.2188L159.384 46.5899L154.198 46.5955Z" fill="#CBCBCB"/>
<path d="M145.972 46.5955L130.413 31.2236L135.6 31.2188L151.158 46.5899L145.972 46.5955Z" fill="#CBCBCB"/>
<path d="M137.752 46.5955L122.195 31.2236L127.381 31.2188L142.939 46.5899L137.752 46.5955Z" fill="#CBCBCB"/>
<path d="M52.9938 230.567H299.252V90.7362C299.252 89.6059 298.797 88.5232 297.99 87.7317L237.042 27.9495H104.657L75.3792 0.265625H4.78382C2.45948 0.265625 0.575235 2.14987 0.575235 4.47421V23.3203L12.705 40.4828V148.104L0.443748 130.143L0.570374 173.756C0.573496 174.831 0.98798 175.864 1.72878 176.643L52.9938 230.567Z" stroke="url(#paint0_linear_5535_44513)" stroke-width="0.526074" stroke-miterlimit="10"/>
<path d="M269.916 47.7687L241.478 18.5625H103.385L113.622 28.1121L236.426 28.2045L256.65 47.9293L269.916 47.7687Z" fill="#CBCBCB"/>
<path d="M255.996 236.659H305.541V188.494L299.106 181.676V230.235H250.674L255.996 236.659Z" fill="#FAC6A6"/>
<mask id="path-32-inside-1_5535_44513" fill="white">
<path d="M305.564 192.633V59.9566L242.934 -0.0214844H72.5067"/>
</mask>
<path d="M305.564 59.9566L305.928 59.5767L306.09 59.732V59.9566H305.564ZM242.934 -0.0214844V-0.547558H243.145L243.298 -0.401433L242.934 -0.0214844ZM305.564 192.633H305.038V59.9566H305.564H306.09V192.633H305.564ZM305.564 59.9566L305.2 60.3366L242.57 0.358464L242.934 -0.0214844L243.298 -0.401433L305.928 59.5767L305.564 59.9566ZM242.934 -0.0214844V0.504589H72.5067V-0.0214844V-0.547558H242.934V-0.0214844Z" fill="url(#paint1_linear_5535_44513)" mask="url(#path-32-inside-1_5535_44513)"/>
</g>
<defs>
<linearGradient id="paint0_linear_5535_44513" x1="299.334" y1="230.423" x2="0.524061" y2="92.0654" gradientUnits="userSpaceOnUse">
<stop stop-color="white"/>
<stop offset="1" stop-color="#8B8B8B"/>
</linearGradient>
<linearGradient id="paint1_linear_5535_44513" x1="189.035" y1="192.633" x2="189.035" y2="-0.0214844" gradientUnits="userSpaceOnUse">
<stop stop-color="white" stop-opacity="0"/>
<stop offset="1" stop-color="#656565"/>
</linearGradient>
<clipPath id="clip0_5535_44513">
<rect width="327.744" height="248.307" fill="white" transform="matrix(-1 0 0 1 327.744 0)"/>
</clipPath>
</defs>
</svg>
