<svg width="56" height="60" viewBox="0 0 56 60" fill="none" xmlns="http://www.w3.org/2000/svg">
<rect width="56" height="56" transform="translate(0 4)" fill="#F37021"/>
<rect width="52" height="24" transform="translate(2 4)" fill="#F37021"/>
<path d="M17.0078 11.0469V21H15.1348V11.0469H17.0078ZM20.0977 11.0469V12.5303H12.0791V11.0469H20.0977ZM22.9824 10.5V21H21.1709V10.5H22.9824ZM22.6953 17.0352H22.1621C22.1621 16.5202 22.2305 16.0462 22.3672 15.6133C22.5039 15.1803 22.6976 14.8044 22.9482 14.4854C23.1989 14.1618 23.4974 13.9111 23.8438 13.7334C24.1947 13.5557 24.582 13.4668 25.0059 13.4668C25.3704 13.4668 25.7008 13.5192 25.9971 13.624C26.2979 13.7243 26.5553 13.8861 26.7695 14.1094C26.9837 14.3327 27.1478 14.6243 27.2617 14.9844C27.3802 15.3398 27.4395 15.7728 27.4395 16.2832V21H25.6211V16.2695C25.6211 15.9277 25.571 15.6589 25.4707 15.4629C25.3704 15.2624 25.2269 15.1188 25.04 15.0322C24.8577 14.9456 24.6322 14.9023 24.3633 14.9023C24.0716 14.9023 23.821 14.9593 23.6113 15.0732C23.4017 15.1826 23.2285 15.3353 23.0918 15.5312C22.9596 15.7272 22.8594 15.9528 22.791 16.208C22.7272 16.4632 22.6953 16.7389 22.6953 17.0352ZM33.585 11.0195V21H31.7734V13.1318L29.374 13.9248V12.4619L33.3799 11.0195H33.585ZM43.6748 19.5781V21H36.9346V19.7832L40.168 16.29C40.5052 15.9072 40.7718 15.5745 40.9678 15.292C41.1637 15.0094 41.3027 14.7542 41.3848 14.5264C41.4714 14.2939 41.5146 14.0729 41.5146 13.8633C41.5146 13.5579 41.46 13.2913 41.3506 13.0635C41.2412 12.8311 41.0817 12.651 40.8721 12.5234C40.667 12.3958 40.4141 12.332 40.1133 12.332C39.7806 12.332 39.4958 12.4095 39.2588 12.5645C39.0264 12.7148 38.8486 12.9245 38.7256 13.1934C38.6071 13.4622 38.5479 13.7699 38.5479 14.1162H36.7363C36.7363 13.5283 36.873 12.9928 37.1465 12.5098C37.4199 12.0221 37.8118 11.6325 38.3223 11.3408C38.8327 11.0492 39.4388 10.9033 40.1406 10.9033C40.8242 10.9033 41.403 11.0173 41.877 11.2451C42.3509 11.4684 42.7109 11.7874 42.957 12.2021C43.2031 12.6169 43.3262 13.1113 43.3262 13.6855C43.3262 14.0046 43.2738 14.319 43.1689 14.6289C43.0641 14.9388 42.916 15.2464 42.7246 15.5518C42.5378 15.8525 42.3145 16.1579 42.0547 16.4678C41.7949 16.7777 41.5055 17.0944 41.1865 17.418L39.2451 19.5781H43.6748Z" fill="white"/>
<rect width="52" height="30" transform="translate(2 28)" fill="white"/>
<path d="M27.2188 47.8027V50H17.4922V48.125L22.0918 43.1934C22.554 42.679 22.9186 42.2266 23.1855 41.8359C23.4525 41.4388 23.6445 41.084 23.7617 40.7715C23.8854 40.4525 23.9473 40.1497 23.9473 39.8633C23.9473 39.4336 23.8757 39.0658 23.7324 38.7598C23.5892 38.4473 23.3776 38.2064 23.0977 38.0371C22.8242 37.8678 22.4857 37.7832 22.082 37.7832C21.6523 37.7832 21.2812 37.8874 20.9688 38.0957C20.6628 38.304 20.4284 38.5938 20.2656 38.9648C20.1094 39.3359 20.0312 39.7559 20.0312 40.2246H17.209C17.209 39.3783 17.4108 38.6035 17.8145 37.9004C18.2181 37.1908 18.7878 36.6276 19.5234 36.2109C20.2591 35.7878 21.1315 35.5762 22.1406 35.5762C23.1367 35.5762 23.9766 35.7389 24.6602 36.0645C25.3503 36.3835 25.8711 36.8457 26.2227 37.4512C26.5807 38.0501 26.7598 38.7663 26.7598 39.5996C26.7598 40.0684 26.6849 40.5273 26.5352 40.9766C26.3854 41.4193 26.1706 41.862 25.8906 42.3047C25.6172 42.7409 25.2852 43.1836 24.8945 43.6328C24.5039 44.082 24.071 44.5475 23.5957 45.0293L21.125 47.8027H27.2188ZM31.8574 41.6699H33.3613C33.8431 41.6699 34.2402 41.5885 34.5527 41.4258C34.8652 41.2565 35.0964 41.0221 35.2461 40.7227C35.4023 40.4167 35.4805 40.0618 35.4805 39.6582C35.4805 39.2936 35.4089 38.9714 35.2656 38.6914C35.1289 38.4049 34.9173 38.1836 34.6309 38.0273C34.3444 37.8646 33.9831 37.7832 33.5469 37.7832C33.2018 37.7832 32.8828 37.8516 32.5898 37.9883C32.2969 38.125 32.0625 38.3171 31.8867 38.5645C31.7109 38.8118 31.623 39.1113 31.623 39.4629H28.8008C28.8008 38.6816 29.0091 38.0013 29.4258 37.4219C29.849 36.8424 30.4154 36.39 31.125 36.0645C31.8346 35.7389 32.6159 35.5762 33.4688 35.5762C34.4323 35.5762 35.2754 35.7324 35.998 36.0449C36.7207 36.3509 37.2839 36.8034 37.6875 37.4023C38.0911 38.0013 38.293 38.7435 38.293 39.6289C38.293 40.0781 38.1888 40.5143 37.9805 40.9375C37.7721 41.3542 37.4727 41.7318 37.082 42.0703C36.6979 42.4023 36.2292 42.6693 35.6758 42.8711C35.1224 43.0664 34.5007 43.1641 33.8105 43.1641H31.8574V41.6699ZM31.8574 43.8086V42.3535H33.8105C34.5853 42.3535 35.2656 42.4414 35.8516 42.6172C36.4375 42.793 36.929 43.0469 37.3262 43.3789C37.7233 43.7044 38.0228 44.0918 38.2246 44.541C38.4264 44.9837 38.5273 45.4753 38.5273 46.0156C38.5273 46.6797 38.4004 47.2721 38.1465 47.793C37.8926 48.3073 37.5345 48.7435 37.0723 49.1016C36.6165 49.4596 36.0827 49.7331 35.4707 49.9219C34.8587 50.1042 34.1914 50.1953 33.4688 50.1953C32.8698 50.1953 32.2806 50.1139 31.7012 49.9512C31.1283 49.7819 30.6074 49.5312 30.1387 49.1992C29.6764 48.8607 29.3053 48.4375 29.0254 47.9297C28.752 47.4154 28.6152 46.8066 28.6152 46.1035H31.4375C31.4375 46.4681 31.5286 46.7936 31.7109 47.0801C31.8932 47.3665 32.1439 47.5911 32.4629 47.7539C32.7884 47.9167 33.1497 47.998 33.5469 47.998C33.9961 47.998 34.3802 47.9167 34.6992 47.7539C35.0247 47.5846 35.2721 47.3503 35.4414 47.0508C35.6172 46.7448 35.7051 46.39 35.7051 45.9863C35.7051 45.4655 35.6107 45.0488 35.4219 44.7363C35.2331 44.4173 34.9629 44.1829 34.6113 44.0332C34.2598 43.8835 33.8431 43.8086 33.3613 43.8086H31.8574Z" fill="#F37021"/>
<rect x="8" width="4" height="8" fill="#F37021"/>
<rect x="26" width="4" height="8" fill="#F37021"/>
<rect x="44" width="4" height="8" fill="#F37021"/>
</svg>
