<svg width="97" height="81" viewBox="0 0 97 81" fill="none" xmlns="http://www.w3.org/2000/svg">
<path d="M11.5234 40.5918L19.8194 31.7988L31.7712 43.2274L33.5054 53.1166L23.4752 52.0204L11.5234 40.5918Z" fill="url(#paint0_linear_6616_6241)"/>
<path d="M10.7342 39.9429L19.0234 31.1484L14.2719 26.7123L5.9827 35.5068L10.7342 39.9429Z" fill="url(#paint1_linear_6616_6241)"/>
<path d="M65.0703 60.9305L72.9679 53.0938H65.0703V60.9305Z" fill="url(#paint2_linear_6616_6241)"/>
<path d="M63.3394 53.0933V51.3673H73.1118V5H23.9687V33.0117L31.2804 40.0087L32.6162 41.2915L33.8114 42.4344L35.1238 50.3644L35.8502 54.7726L23.9453 54.0262V61H63.3394V53.0466V53.0933ZM31.3039 11.2507H55.7934V14.0496H31.3039V11.2507ZM56.4261 35.8105H31.3039V33.0117H56.4261V35.8105ZM59.5195 43.8338H36.7173V41.035H59.5195V43.8338ZM56.4261 29H31.3039V26.2012H56.4261V29ZM31.3039 21.3732V18.5743H60.2929V21.3732H31.3039Z" fill="url(#paint3_linear_6616_6241)"/>
<defs>
<linearGradient id="paint0_linear_6616_6241" x1="-3.04228" y1="9.87676" x2="59.5797" y2="92.2061" gradientUnits="userSpaceOnUse">
<stop stop-color="white"/>
<stop offset="0.49" stop-color="#969696"/>
</linearGradient>
<linearGradient id="paint1_linear_6616_6241" x1="49.3266" y1="67.6909" x2="1.75124" y2="22.8486" gradientUnits="userSpaceOnUse">
<stop stop-color="white"/>
<stop offset="0.49" stop-color="#FF7928"/>
</linearGradient>
<linearGradient id="paint2_linear_6616_6241" x1="69.0308" y1="65.4786" x2="69.0308" y2="50.2249" gradientUnits="userSpaceOnUse">
<stop stop-color="white"/>
<stop offset="0.49" stop-color="#FF7928"/>
</linearGradient>
<linearGradient id="paint3_linear_6616_6241" x1="48.552" y1="93.5364" x2="48.552" y2="-15.5248" gradientUnits="userSpaceOnUse">
<stop stop-color="white"/>
<stop offset="0.49" stop-color="#FF7928"/>
</linearGradient>
</defs>
</svg>
