<svg width="563" height="744" viewBox="0 0 563 744" fill="none" xmlns="http://www.w3.org/2000/svg">
<path d="M466.636 597.116C502.405 554.518 529.167 505.11 545.304 451.878C561.44 398.645 566.617 342.694 560.522 287.405C554.426 232.115 537.184 178.636 509.838 130.198C482.492 81.7593 445.609 39.3681 401.418 5.58547L344.232 80.39C378.311 106.443 406.754 139.134 427.843 176.488C448.932 213.843 462.228 255.085 466.929 297.723C471.63 340.361 467.638 383.51 455.193 424.562C442.749 465.613 422.111 503.716 394.526 536.567L466.636 597.116Z" fill="url(#paint0_linear_138_5653)"/>
<g opacity="0.2">
<path d="M277.446 312.113L289.05 328.904L248.743 344.824L254.495 350.916L268.709 358.022L282.247 371.561L294.092 385.435L285.631 397.619L280.553 411.833L283.598 429.094L294.088 419.958C294.088 419.958 290.704 411.497 297.132 403.711C303.564 395.925 313.379 397.619 313.379 397.619L328.272 395.59L342.485 400.667C342.485 400.667 347.902 409.468 346.548 411.497C345.194 413.526 341.131 434.851 341.131 434.851L339.777 441.282L309.316 478.85L303.564 501.185C303.564 501.185 377.091 453.336 386.567 382.6C390.211 355.389 393.018 334.961 391.7 315.086C391.036 305.069 387.949 291.957 386.172 282.71C383.507 268.844 381.438 259.85 374.722 246.387C369.373 235.659 356.162 229.48 344.293 231.166C331.118 233.038 314.702 233.875 309.32 227.723C299.844 216.893 293.772 226.76 294.179 230.594C294.897 237.365 309.644 253.024 309.644 253.024C312.269 255.689 311.646 260.118 308.384 261.954C303.177 264.888 279.965 279.5 276.72 284.763C271.508 293.212 271.796 303.948 277.442 312.116L277.446 312.113Z" fill="url(#paint1_linear_138_5653)"/>
<path d="M179.874 124.674C179.874 124.674 164.646 129.412 159.908 133.135C155.17 136.858 174.801 128.737 179.874 133.135C184.952 137.534 201.874 134.15 201.874 134.15C201.874 134.15 215.752 141.936 220.49 135.504C225.228 129.073 233.014 131.442 233.014 131.442C233.014 131.442 249.936 137.534 246.552 138.209C243.168 138.884 236.062 138.209 236.062 138.209L236.737 146.67L243.843 153.777H263.81L270.916 158.854H290.547V151.747L284.115 141.592L309.159 158.854C309.159 158.854 260.422 111.471 220.49 107.073L180.554 102.675L186.985 109.782L209.66 115.534L213.383 122.641L190.029 123.995L179.874 124.67V124.674Z" fill="url(#paint2_linear_138_5653)"/>
<path d="M46.2377 120.442C46.2377 120.442 -2.72021 147.29 -9.03735 158.739C-15.3545 170.189 -19.6975 184.403 -19.6975 190.72C-19.6975 197.037 -24.0406 192.299 -16.1441 185.587C-8.24771 178.875 -3.50985 176.112 -1.53574 185.587C0.438364 195.063 5.57105 205.723 9.91409 201.775C14.2571 197.827 10.3089 201.38 9.91409 195.063C9.51926 188.746 9.91409 182.824 9.91409 182.824L19.3898 173.348C19.3898 173.348 16.6261 170.189 27.6811 177.296C38.7361 184.403 45.448 184.403 43.4739 180.455C41.4998 176.506 25.3121 173.348 33.2086 169.005C41.105 164.662 41.4998 159.529 59.2668 161.503C77.0338 163.477 85.7198 170.979 89.2732 169.794C92.8266 168.61 99.5386 161.898 92.037 158.739C84.5354 155.581 77.4286 154.002 71.1114 149.659C64.7943 145.316 63.215 141.762 63.6098 139.393C64.0047 137.024 66.7684 133.866 68.7425 132.681C70.7166 131.497 76.6389 125.18 77.8234 124.39C79.0079 123.6 82.1664 119.257 82.5613 118.073C82.9561 116.888 88.8784 116.099 89.2732 113.335C89.6681 110.571 97.1697 105.044 97.1697 105.044V102.675C97.1697 102.675 56.8979 114.125 46.2377 120.442Z" fill="url(#paint3_linear_138_5653)"/>
<path d="M322.717 506.677C227.305 598.9 77.6082 598.9 -17.8044 506.677C-110.019 411.277 -110.019 261.604 -17.8044 166.203C77.6082 73.9805 227.305 73.9805 322.717 166.203C414.932 261.604 414.932 411.277 322.717 506.677Z" stroke="#757575" stroke-width="0.308613" stroke-miterlimit="10"/>
<path d="M337.352 182.26C230.372 99.959 74.5473 99.959 -32.4336 182.26" stroke="#757575" stroke-width="0.308613" stroke-miterlimit="10"/>
<path d="M350.507 199.599C232.732 127.422 72.1854 127.422 -45.5898 199.599" stroke="#757575" stroke-width="0.308613" stroke-miterlimit="10"/>
<path d="M362.084 218.106C234.264 156.242 70.6501 156.242 -57.1694 218.106" stroke="#757575" stroke-width="0.308613" stroke-miterlimit="10"/>
<path d="M371.984 237.695C234.961 186.352 69.9569 186.352 -67.0659 237.695" stroke="#757575" stroke-width="0.308613" stroke-miterlimit="10"/>
<path d="M380.104 258.249C234.881 217.709 70.0426 217.709 -75.1807 258.249" stroke="#757575" stroke-width="0.308613" stroke-miterlimit="10"/>
<path d="M386.336 279.691C234.199 250.313 70.7116 250.313 -81.425 279.691" stroke="#757575" stroke-width="0.308613" stroke-miterlimit="10"/>
<path d="M390.604 301.891C233.342 284.053 71.5876 284.053 -85.6738 301.891" stroke="#757575" stroke-width="0.308613" stroke-miterlimit="10"/>
<path d="M392.776 324.778C232.739 318.789 72.1769 318.789 -87.8562 324.778" stroke="#757575" stroke-width="0.308613" stroke-miterlimit="10"/>
<path d="M392.776 348.096C232.739 354.085 72.1769 354.085 -87.8562 348.096" stroke="#757575" stroke-width="0.308613" stroke-miterlimit="10"/>
<path d="M390.604 370.979C233.342 388.817 71.5876 388.817 -85.6738 370.979" stroke="#757575" stroke-width="0.308613" stroke-miterlimit="10"/>
<path d="M386.336 393.186C234.199 422.564 70.7116 422.564 -81.425 393.186" stroke="#757575" stroke-width="0.308613" stroke-miterlimit="10"/>
<path d="M380.104 414.617C234.881 455.157 70.0426 455.157 -75.1807 414.617" stroke="#757575" stroke-width="0.308613" stroke-miterlimit="10"/>
<path d="M371.984 435.185C234.961 486.527 69.9569 486.527 -67.0659 435.185" stroke="#757575" stroke-width="0.308613" stroke-miterlimit="10"/>
<path d="M362.084 454.764C234.264 516.628 70.6501 516.628 -57.1694 454.764" stroke="#757575" stroke-width="0.308613" stroke-miterlimit="10"/>
<path d="M350.507 473.282C232.732 545.46 72.1854 545.46 -45.5898 473.282" stroke="#757575" stroke-width="0.308613" stroke-miterlimit="10"/>
<path d="M337.352 490.617C230.372 572.917 74.5473 572.917 -32.4336 490.617" stroke="#757575" stroke-width="0.308613" stroke-miterlimit="10"/>
<path d="M6.40078 527.792C-71.0672 415.552 -71.0672 257.323 6.40078 145.083" stroke="#757575" stroke-width="0.308613" stroke-miterlimit="10"/>
<path d="M19.5249 537.121C-50.4178 417.087 -50.4178 255.791 19.5249 135.757" stroke="#757575" stroke-width="0.308613" stroke-miterlimit="10"/>
<path d="M33.2819 545.574C-29.0289 418.189 -29.0289 254.686 33.2819 127.304" stroke="#757575" stroke-width="0.308613" stroke-miterlimit="10"/>
<path d="M47.6343 553.116C-6.93405 418.826 -6.938 254.059 47.6343 119.768" stroke="#757575" stroke-width="0.308613" stroke-miterlimit="10"/>
<path d="M62.5245 559.692C15.8447 418.982 15.8447 253.883 62.5245 113.177" stroke="#757575" stroke-width="0.308613" stroke-miterlimit="10"/>
<path d="M77.93 565.284C39.3085 418.762 39.3085 254.114 77.93 107.591" stroke="#757575" stroke-width="0.308613" stroke-miterlimit="10"/>
<path d="M93.808 569.833C63.4462 418.245 63.4462 254.627 93.808 103.04" stroke="#757575" stroke-width="0.308613" stroke-miterlimit="10"/>
<path d="M110.109 573.309C88.2157 417.607 88.2157 255.272 110.109 99.5659" stroke="#757575" stroke-width="0.308613" stroke-miterlimit="10"/>
<path d="M126.789 575.667C113.559 417.028 113.559 255.854 126.789 97.2144" stroke="#757575" stroke-width="0.308613" stroke-miterlimit="10"/>
<path d="M143.826 576.861C139.4 416.674 139.4 256.199 143.826 96.0117" stroke="#757575" stroke-width="0.308613" stroke-miterlimit="10"/>
<path d="M161.092 576.861C165.518 416.674 165.518 256.199 161.092 96.0117" stroke="#757575" stroke-width="0.308613" stroke-miterlimit="10"/>
<path d="M178.124 575.667C191.354 417.028 191.354 255.854 178.124 97.2144" stroke="#757575" stroke-width="0.308613" stroke-miterlimit="10"/>
<path d="M194.816 573.309C216.709 417.607 216.709 255.272 194.816 99.5659" stroke="#757575" stroke-width="0.308613" stroke-miterlimit="10"/>
<path d="M211.117 569.833C241.479 418.245 241.479 254.627 211.117 103.04" stroke="#757575" stroke-width="0.308613" stroke-miterlimit="10"/>
<path d="M226.981 565.284C265.603 418.762 265.603 254.114 226.981 107.591" stroke="#757575" stroke-width="0.308613" stroke-miterlimit="10"/>
<path d="M242.392 559.692C289.071 418.982 289.071 253.883 242.392 113.177" stroke="#757575" stroke-width="0.308613" stroke-miterlimit="10"/>
<path d="M257.285 553.116C311.853 418.826 311.857 254.059 257.285 119.768" stroke="#757575" stroke-width="0.308613" stroke-miterlimit="10"/>
<path d="M271.635 545.574C333.946 418.189 333.946 254.686 271.635 127.304" stroke="#757575" stroke-width="0.308613" stroke-miterlimit="10"/>
<path d="M285.388 537.121C355.331 417.087 355.331 255.791 285.388 135.757" stroke="#757575" stroke-width="0.308613" stroke-miterlimit="10"/>
<path d="M298.518 527.792C375.986 415.552 375.986 257.323 298.518 145.083" stroke="#757575" stroke-width="0.308613" stroke-miterlimit="10"/>
<path d="M310.979 517.63C395.874 413.603 395.874 259.275 310.979 155.247" stroke="#757575" stroke-width="0.308613" stroke-miterlimit="10"/>
<path d="M-112.627 331.815C-113.263 258.805 -83.7617 195.756 -38.1361 149.652C13.4236 97.5557 85.5812 67.0992 158.122 68.3745C180.69 68.7732 203.297 72.2398 225.332 79.086C286.186 97.9861 329.02 127.925 359.11 161.758C443.073 256.163 427.793 380.911 427.793 380.911C427.793 380.911 312.521 310.021 316.449 309.235C320.378 308.45 389.108 216.156 389.108 216.156L415.423 431.381L349.05 366.579L417.78 287.244L244.58 186.308L344.336 158.816L365.545 291.958L219.051 165.493L371.436 200.841L54.489 258.967L245.362 91.2583L172.312 277.421L142.463 73.1952L254.004 137.997L114.972 181.984L189.988 86.5481L316.453 131.321L179.778 178.842L96.5178 83.0105L44.6738 298.236L-106.926 321.408L109.476 184.341L-48.4094 173.346L98.4761 295.097L48.9892 98.7244L224.152 330.445L158.169 105.006L-93.577 258.963L176.631 337.903L-69.6192 210.652L-0.102957 328.084L-14.6363 142.317L111.829 279.778L116.148 83.0144L224.152 285.278L380.857 205.156L334.512 384.248L224.152 249.929L417.776 322.588L312.126 396.033L417.776 403.886L188.807 344.189L292.886 307.269L303.882 396.029L-112.627 331.815Z" stroke="#757575" stroke-width="0.15" stroke-miterlimit="10"/>
<path opacity="0.5" d="M303.882 397.404C304.641 397.404 305.256 396.789 305.256 396.03C305.256 395.271 304.641 394.656 303.882 394.656C303.123 394.656 302.508 395.271 302.508 396.03C302.508 396.789 303.123 397.404 303.882 397.404Z" fill="#757575"/>
<path opacity="0.5" d="M292.882 308.64C292.124 308.64 291.508 308.024 291.508 307.266C291.508 306.508 292.124 305.892 292.882 305.892C293.64 305.892 294.256 306.508 294.256 307.266C294.256 308.024 293.64 308.64 292.882 308.64Z" fill="#757575"/>
<path opacity="0.5" d="M188.806 345.561C189.564 345.561 190.18 344.946 190.18 344.187C190.18 343.429 189.564 342.813 188.806 342.813C188.047 342.813 187.432 343.429 187.432 344.187C187.432 344.946 188.047 345.561 188.806 345.561Z" fill="#757575"/>
<path opacity="0.5" d="M417.774 405.26C418.533 405.26 419.148 404.645 419.148 403.886C419.148 403.127 418.533 402.512 417.774 402.512C417.016 402.512 416.4 403.127 416.4 403.886C416.4 404.645 417.016 405.26 417.774 405.26Z" fill="#757575"/>
<path opacity="0.5" d="M312.131 397.404C312.89 397.404 313.505 396.789 313.505 396.03C313.505 395.271 312.89 394.656 312.131 394.656C311.372 394.656 310.757 395.271 310.757 396.03C310.757 396.789 311.372 397.404 312.131 397.404Z" fill="#757575"/>
<path opacity="0.5" d="M417.774 323.961C418.533 323.961 419.148 323.346 419.148 322.587C419.148 321.828 418.533 321.213 417.774 321.213C417.016 321.213 416.4 321.828 416.4 322.587C416.4 323.346 417.016 323.961 417.774 323.961Z" fill="#757575"/>
<path opacity="0.5" d="M224.151 251.302C224.91 251.302 225.525 250.687 225.525 249.928C225.525 249.169 224.91 248.554 224.151 248.554C223.392 248.554 222.777 249.169 222.777 249.928C222.777 250.687 223.392 251.302 224.151 251.302Z" fill="#757575"/>
<path opacity="0.5" d="M334.516 385.619C333.758 385.619 333.142 385.003 333.142 384.245C333.142 383.487 333.758 382.871 334.516 382.871C335.274 382.871 335.89 383.487 335.89 384.245C335.89 385.003 335.274 385.619 334.516 385.619Z" fill="#757575"/>
<path opacity="0.5" d="M380.862 206.533C381.621 206.533 382.236 205.917 382.236 205.159C382.236 204.4 381.621 203.785 380.862 203.785C380.103 203.785 379.488 204.4 379.488 205.159C379.488 205.917 380.103 206.533 380.862 206.533Z" fill="#757575"/>
<path opacity="0.5" d="M224.151 286.647C224.91 286.647 225.525 286.032 225.525 285.273C225.525 284.514 224.91 283.899 224.151 283.899C223.392 283.899 222.777 284.514 222.777 285.273C222.777 286.032 223.392 286.647 224.151 286.647Z" fill="#757575"/>
<path opacity="0.5" d="M116.147 84.3832C116.906 84.3832 117.521 83.7681 117.521 83.0092C117.521 82.2504 116.906 81.6353 116.147 81.6353C115.388 81.6353 114.773 82.2504 114.773 83.0092C114.773 83.7681 115.388 84.3832 116.147 84.3832Z" fill="#757575"/>
<path opacity="0.5" d="M111.827 281.151C111.069 281.151 110.453 280.535 110.453 279.777C110.453 279.019 111.069 278.403 111.827 278.403C112.585 278.403 113.201 279.019 113.201 279.777C113.201 280.535 112.585 281.151 111.827 281.151Z" fill="#757575"/>
<path opacity="0.5" d="M-0.105508 329.457C0.653319 329.457 1.26848 328.842 1.26848 328.083C1.26848 327.324 0.653319 326.709 -0.105508 326.709C-0.864336 326.709 -1.47949 327.324 -1.47949 328.083C-1.47949 328.842 -0.864336 329.457 -0.105508 329.457Z" fill="#757575"/>
<path opacity="0.5" d="M176.629 339.273C177.388 339.273 178.003 338.658 178.003 337.899C178.003 337.14 177.388 336.525 176.629 336.525C175.87 336.525 175.255 337.14 175.255 337.899C175.255 338.658 175.87 339.273 176.629 339.273Z" fill="#757575"/>
<path opacity="0.5" d="M158.173 106.376C158.932 106.376 159.547 105.761 159.547 105.002C159.547 104.243 158.932 103.628 158.173 103.628C157.414 103.628 156.799 104.243 156.799 105.002C156.799 105.761 157.414 106.376 158.173 106.376Z" fill="#757575"/>
<path opacity="0.5" d="M224.151 331.817C224.91 331.817 225.525 331.202 225.525 330.443C225.525 329.684 224.91 329.069 224.151 329.069C223.392 329.069 222.777 329.684 222.777 330.443C222.777 331.202 223.392 331.817 224.151 331.817Z" fill="#757575"/>
<path opacity="0.5" d="M48.9926 100.096C49.7515 100.096 50.3666 99.481 50.3666 98.7221C50.3666 97.9633 49.7515 97.3481 48.9926 97.3481C48.2338 97.3481 47.6187 97.9633 47.6187 98.7221C47.6187 99.481 48.2338 100.096 48.9926 100.096Z" fill="#757575"/>
<path opacity="0.5" d="M99.8369 295.329C99.9585 294.58 99.4499 293.874 98.7008 293.753C97.9518 293.631 97.246 294.14 97.1244 294.889C97.0029 295.638 97.5115 296.344 98.2605 296.465C99.0096 296.587 99.7153 296.078 99.8369 295.329Z" fill="#757575"/>
<path opacity="0.5" d="M109.475 185.715C108.717 185.715 108.101 185.099 108.101 184.341C108.101 183.583 108.717 182.967 109.475 182.967C110.233 182.967 110.849 183.583 110.849 184.341C110.849 185.099 110.233 185.715 109.475 185.715Z" fill="#757575"/>
<path opacity="0.5" d="M44.6635 299.607C43.9055 299.607 43.2896 298.991 43.2896 298.233C43.2896 297.475 43.9055 296.859 44.6635 296.859C45.4216 296.859 46.0375 297.475 46.0375 298.233C46.0375 298.991 45.4216 299.607 44.6635 299.607Z" fill="#757575"/>
<path opacity="0.5" d="M97.0339 84.2806C97.7349 83.9902 98.0678 83.1864 97.7775 82.4854C97.4871 81.7843 96.6833 81.4514 95.9823 81.7418C95.2812 82.0322 94.9483 82.8359 95.2387 83.537C95.5291 84.238 96.3328 84.571 97.0339 84.2806Z" fill="#757575"/>
<path opacity="0.5" d="M179.773 180.22C180.532 180.22 181.147 179.604 181.147 178.846C181.147 178.087 180.532 177.472 179.773 177.472C179.015 177.472 178.399 178.087 178.399 178.846C178.399 179.604 179.015 180.22 179.773 180.22Z" fill="#757575"/>
<path opacity="0.5" d="M316.442 132.698C317.201 132.698 317.816 132.083 317.816 131.324C317.816 130.565 317.201 129.95 316.442 129.95C315.684 129.95 315.068 130.565 315.068 131.324C315.068 132.083 315.684 132.698 316.442 132.698Z" fill="#757575"/>
<path opacity="0.5" d="M189.981 87.9193C189.223 87.9193 188.607 87.3034 188.607 86.5454C188.607 85.7873 189.223 85.1714 189.981 85.1714C190.739 85.1714 191.355 85.7873 191.355 86.5454C191.355 87.3034 190.739 87.9193 189.981 87.9193Z" fill="#757575"/>
<path opacity="0.5" d="M114.971 183.355C115.73 183.355 116.345 182.74 116.345 181.981C116.345 181.222 115.73 180.607 114.971 180.607C114.212 180.607 113.597 181.222 113.597 181.981C113.597 182.74 114.212 183.355 114.971 183.355Z" fill="#757575"/>
<path opacity="0.5" d="M254 139.37C254.759 139.37 255.374 138.754 255.374 137.996C255.374 137.237 254.759 136.622 254 136.622C253.241 136.622 252.626 137.237 252.626 137.996C252.626 138.754 253.241 139.37 254 139.37Z" fill="#757575"/>
<path opacity="0.5" d="M142.46 74.5668C143.219 74.5668 143.834 73.9517 143.834 73.1928C143.834 72.434 143.219 71.8188 142.46 71.8188C141.701 71.8188 141.086 72.434 141.086 73.1928C141.086 73.9517 141.701 74.5668 142.46 74.5668Z" fill="#757575"/>
<path opacity="0.5" d="M172.309 278.79C171.551 278.79 170.935 278.175 170.935 277.416C170.935 276.658 171.551 276.042 172.309 276.042C173.067 276.042 173.683 276.658 173.683 277.416C173.683 278.175 173.067 278.79 172.309 278.79Z" fill="#757575"/>
<path opacity="0.5" d="M245.36 92.6313C246.119 92.6313 246.734 92.0161 246.734 91.2573C246.734 90.4985 246.119 89.8833 245.36 89.8833C244.601 89.8833 243.986 90.4985 243.986 91.2573C243.986 92.0161 244.601 92.6313 245.36 92.6313Z" fill="#757575"/>
<path opacity="0.5" d="M54.4887 260.334C55.2475 260.334 55.8627 259.719 55.8627 258.96C55.8627 258.201 55.2475 257.586 54.4887 257.586C53.7299 257.586 53.1147 258.201 53.1147 258.96C53.1147 259.719 53.7299 260.334 54.4887 260.334Z" fill="#757575"/>
<path opacity="0.5" d="M371.429 202.212C372.187 202.212 372.803 201.597 372.803 200.838C372.803 200.08 372.187 199.464 371.429 199.464C370.67 199.464 370.055 200.08 370.055 200.838C370.055 201.597 370.67 202.212 371.429 202.212Z" fill="#757575"/>
<path opacity="0.5" d="M219.047 166.858C219.806 166.858 220.421 166.243 220.421 165.484C220.421 164.726 219.806 164.11 219.047 164.11C218.288 164.11 217.673 164.726 217.673 165.484C217.673 166.243 218.288 166.858 219.047 166.858Z" fill="#757575"/>
<path opacity="0.5" d="M365.54 293.328C366.299 293.328 366.914 292.712 366.914 291.954C366.914 291.195 366.299 290.58 365.54 290.58C364.782 290.58 364.167 291.195 364.167 291.954C364.167 292.712 364.782 293.328 365.54 293.328Z" fill="#757575"/>
<path opacity="0.5" d="M344.331 160.186C343.573 160.186 342.958 159.571 342.958 158.812C342.958 158.054 343.573 157.438 344.331 157.438C345.09 157.438 345.705 158.054 345.705 158.812C345.705 159.571 345.09 160.186 344.331 160.186Z" fill="#757575"/>
<path opacity="0.5" d="M244.576 187.675C245.335 187.675 245.95 187.06 245.95 186.301C245.95 185.542 245.335 184.927 244.576 184.927C243.817 184.927 243.202 185.542 243.202 186.301C243.202 187.06 243.817 187.675 244.576 187.675Z" fill="#757575"/>
<path opacity="0.5" d="M417.774 288.616C418.533 288.616 419.148 288 419.148 287.242C419.148 286.483 418.533 285.868 417.774 285.868C417.016 285.868 416.4 286.483 416.4 287.242C416.4 288 417.016 288.616 417.774 288.616Z" fill="#757575"/>
<path opacity="0.5" d="M349.044 367.946C348.286 367.946 347.67 367.33 347.67 366.572C347.67 365.814 348.286 365.198 349.044 365.198C349.802 365.198 350.418 365.814 350.418 366.572C350.418 367.33 349.802 367.946 349.044 367.946Z" fill="#757575"/>
<path opacity="0.5" d="M415.423 432.749C414.665 432.749 414.049 432.133 414.049 431.375C414.049 430.617 414.665 430.001 415.423 430.001C416.181 430.001 416.797 430.617 416.797 431.375C416.797 432.133 416.181 432.749 415.423 432.749Z" fill="#757575"/>
<path opacity="0.5" d="M389.101 217.524C389.86 217.524 390.475 216.909 390.475 216.15C390.475 215.392 389.86 214.776 389.101 214.776C388.342 214.776 387.727 215.392 387.727 216.15C387.727 216.909 388.342 217.524 389.101 217.524Z" fill="#757575"/>
<path opacity="0.5" d="M316.442 310.608C317.201 310.608 317.816 309.993 317.816 309.234C317.816 308.476 317.201 307.86 316.442 307.86C315.684 307.86 315.068 308.476 315.068 309.234C315.068 309.993 315.684 310.608 316.442 310.608Z" fill="#757575"/>
<path opacity="0.5" d="M427.787 382.287C427.029 382.287 426.413 381.672 426.413 380.914C426.413 380.155 427.029 379.54 427.787 379.54C428.545 379.54 429.161 380.155 429.161 380.914C429.161 381.672 428.545 382.287 427.787 382.287Z" fill="#757575"/>
<path opacity="0.5" d="M359.109 163.126C359.868 163.126 360.483 162.511 360.483 161.752C360.483 160.993 359.868 160.378 359.109 160.378C358.35 160.378 357.735 160.993 357.735 161.752C357.735 162.511 358.35 163.126 359.109 163.126Z" fill="#757575"/>
<path opacity="0.5" d="M225.335 80.4638C224.577 80.4638 223.961 79.8479 223.961 79.0898C223.961 78.3317 224.577 77.7158 225.335 77.7158C226.093 77.7158 226.709 78.3317 226.709 79.0898C226.709 79.8479 226.093 80.4638 225.335 80.4638Z" fill="#757575"/>
<path opacity="0.5" d="M158.119 69.748C157.361 69.748 156.745 69.132 156.745 68.374C156.745 67.6159 157.361 67 158.119 67C158.877 67 159.493 67.6159 159.493 68.374C159.493 69.132 158.877 69.748 158.119 69.748Z" fill="#757575"/>
<path d="M429.366 347.18C430.002 420.191 400.5 483.24 354.875 529.343C303.315 581.444 231.158 611.896 158.617 610.621C136.049 610.222 113.442 606.756 91.4065 599.91C30.5527 581.01 -12.2816 551.07 -42.3709 517.238C-126.33 422.832 -111.05 298.088 -111.05 298.088C-111.05 298.088 4.22198 368.978 0.293509 369.764C-3.63497 370.55 -72.3655 462.843 -72.3655 462.843L-98.6764 247.618L-32.303 312.42L-101.034 391.756L72.1668 492.692L-27.5888 520.183L-48.7986 387.042L97.696 513.507L-54.6893 478.159L262.258 420.033L71.3851 587.733L144.435 401.571L174.284 605.796L62.7425 540.994L201.775 497.007L126.759 592.444L0.293509 547.671L136.969 500.15L220.229 595.981L272.073 380.756L423.673 357.584L207.271 494.65L365.156 505.646L218.271 383.895L267.758 580.267L92.5949 348.546L158.578 573.982L410.328 420.025L140.12 341.084L386.37 468.335L316.854 350.904L331.387 536.671L204.922 399.21L200.602 595.973L92.5989 393.71L-64.1058 473.831L-17.7617 294.74L92.5989 429.058L-101.034 356.407L4.61681 282.963L-101.034 275.11L127.935 334.807L23.8565 371.726L12.8607 282.967L429.366 347.18Z" stroke="#757575" stroke-width="0.15" stroke-miterlimit="10"/>
<path opacity="0.5" d="M12.8637 284.34C13.6226 284.34 14.2377 283.725 14.2377 282.966C14.2377 282.207 13.6226 281.592 12.8637 281.592C12.1049 281.592 11.4897 282.207 11.4897 282.966C11.4897 283.725 12.1049 284.34 12.8637 284.34Z" fill="#757575"/>
<path opacity="0.5" d="M23.8554 370.355C24.6135 370.355 25.2294 370.971 25.2294 371.729C25.2294 372.487 24.6135 373.103 23.8554 373.103C23.0974 373.103 22.4814 372.487 22.4814 371.729C22.4814 370.971 23.0974 370.355 23.8554 370.355Z" fill="#757575"/>
<path opacity="0.5" d="M127.94 336.182C128.699 336.182 129.314 335.566 129.314 334.808C129.314 334.049 128.699 333.434 127.94 333.434C127.182 333.434 126.566 334.049 126.566 334.808C126.566 335.566 127.182 336.182 127.94 336.182Z" fill="#757575"/>
<path opacity="0.5" d="M4.61518 284.34C5.37401 284.34 5.98917 283.725 5.98917 282.966C5.98917 282.207 5.37401 281.592 4.61518 281.592C3.85635 281.592 3.24121 282.207 3.24121 282.966C3.24121 283.725 3.85635 284.34 4.61518 284.34Z" fill="#757575"/>
<path opacity="0.5" d="M92.5864 430.441C93.3452 430.441 93.9603 429.826 93.9603 429.067C93.9603 428.309 93.3452 427.693 92.5864 427.693C91.8275 427.693 91.2124 428.309 91.2124 429.067C91.2124 429.826 91.8275 430.441 92.5864 430.441Z" fill="#757575"/>
<path opacity="0.5" d="M92.5864 395.096C93.3452 395.096 93.9603 394.481 93.9603 393.722C93.9603 392.963 93.3452 392.348 92.5864 392.348C91.8275 392.348 91.2124 392.963 91.2124 393.722C91.2124 394.481 91.8275 395.096 92.5864 395.096Z" fill="#757575"/>
<path opacity="0.5" d="M200.6 597.36C201.358 597.36 201.974 596.745 201.974 595.986C201.974 595.227 201.358 594.612 200.6 594.612C199.841 594.612 199.226 595.227 199.226 595.986C199.226 596.745 199.841 597.36 200.6 597.36Z" fill="#757575"/>
<path opacity="0.5" d="M204.911 397.844C205.669 397.844 206.285 398.46 206.285 399.218C206.285 399.976 205.669 400.592 204.911 400.592C204.153 400.592 203.537 399.976 203.537 399.218C203.537 398.46 204.153 397.844 204.911 397.844Z" fill="#757575"/>
<path opacity="0.5" d="M331.38 538.054C332.139 538.054 332.754 537.438 332.754 536.68C332.754 535.921 332.139 535.306 331.38 535.306C330.622 535.306 330.006 535.921 330.006 536.68C330.006 537.438 330.622 538.054 331.38 538.054Z" fill="#757575"/>
<path opacity="0.5" d="M316.843 352.287C317.602 352.287 318.217 351.671 318.217 350.913C318.217 350.154 317.602 349.539 316.843 349.539C316.084 349.539 315.469 350.154 315.469 350.913C315.469 351.671 316.084 352.287 316.843 352.287Z" fill="#757575"/>
<path opacity="0.5" d="M386.367 466.967C387.125 466.967 387.741 467.583 387.741 468.341C387.741 469.099 387.125 469.715 386.367 469.715C385.609 469.715 384.993 469.099 384.993 468.341C384.993 467.583 385.609 466.967 386.367 466.967Z" fill="#757575"/>
<path opacity="0.5" d="M140.117 342.471C140.876 342.471 141.491 341.855 141.491 341.097C141.491 340.338 140.876 339.723 140.117 339.723C139.358 339.723 138.743 340.338 138.743 341.097C138.743 341.855 139.358 342.471 140.117 342.471Z" fill="#757575"/>
<path opacity="0.5" d="M410.319 421.409C411.078 421.409 411.693 420.794 411.693 420.035C411.693 419.276 411.078 418.661 410.319 418.661C409.56 418.661 408.945 419.276 408.945 420.035C408.945 420.794 409.56 421.409 410.319 421.409Z" fill="#757575"/>
<path opacity="0.5" d="M158.574 575.368C159.333 575.368 159.948 574.752 159.948 573.994C159.948 573.235 159.333 572.62 158.574 572.62C157.815 572.62 157.2 573.235 157.2 573.994C157.2 574.752 157.815 575.368 158.574 575.368Z" fill="#757575"/>
<path opacity="0.5" d="M92.5864 349.935C93.3452 349.935 93.9603 349.32 93.9603 348.561C93.9603 347.802 93.3452 347.187 92.5864 347.187C91.8275 347.187 91.2124 347.802 91.2124 348.561C91.2124 349.32 91.8275 349.935 92.5864 349.935Z" fill="#757575"/>
<path opacity="0.5" d="M267.753 581.656C268.512 581.656 269.127 581.041 269.127 580.282C269.127 579.523 268.512 578.908 267.753 578.908C266.995 578.908 266.379 579.523 266.379 580.282C266.379 581.041 266.995 581.656 267.753 581.656Z" fill="#757575"/>
<path opacity="0.5" d="M219.635 384.137C219.756 383.388 219.248 382.683 218.499 382.561C217.75 382.439 217.044 382.948 216.922 383.697C216.801 384.446 217.309 385.152 218.058 385.273C218.807 385.395 219.513 384.886 219.635 384.137Z" fill="#757575"/>
<path opacity="0.5" d="M365.158 507.029C365.916 507.029 366.532 506.414 366.532 505.655C366.532 504.896 365.916 504.281 365.158 504.281C364.399 504.281 363.784 504.896 363.784 505.655C363.784 506.414 364.399 507.029 365.158 507.029Z" fill="#757575"/>
<path opacity="0.5" d="M207.271 493.28C208.029 493.28 208.645 493.896 208.645 494.654C208.645 495.412 208.029 496.028 207.271 496.028C206.513 496.028 205.897 495.412 205.897 494.654C205.897 493.896 206.513 493.28 207.271 493.28Z" fill="#757575"/>
<path opacity="0.5" d="M423.671 358.967C424.43 358.967 425.045 358.352 425.045 357.593C425.045 356.834 424.43 356.219 423.671 356.219C422.913 356.219 422.297 356.834 422.297 357.593C422.297 358.352 422.913 358.967 423.671 358.967Z" fill="#757575"/>
<path opacity="0.5" d="M272.074 379.388C272.832 379.388 273.448 380.004 273.448 380.762C273.448 381.52 272.832 382.136 272.074 382.136C271.316 382.136 270.7 381.52 270.7 380.762C270.7 380.004 271.316 379.388 272.074 379.388Z" fill="#757575"/>
<path opacity="0.5" d="M220.751 597.258C221.452 596.967 221.785 596.163 221.495 595.462C221.204 594.761 220.401 594.428 219.7 594.719C218.998 595.009 218.666 595.813 218.956 596.514C219.246 597.215 220.05 597.548 220.751 597.258Z" fill="#757575"/>
<path opacity="0.5" d="M136.973 501.533C137.731 501.533 138.347 500.917 138.347 500.159C138.347 499.4 137.731 498.785 136.973 498.785C136.214 498.785 135.599 499.4 135.599 500.159C135.599 500.917 136.214 501.533 136.973 501.533Z" fill="#757575"/>
<path opacity="0.5" d="M0.29487 549.055C1.0537 549.055 1.66885 548.439 1.66885 547.681C1.66885 546.922 1.0537 546.307 0.29487 546.307C-0.463958 546.307 -1.0791 546.922 -1.0791 547.681C-1.0791 548.439 -0.463958 549.055 0.29487 549.055Z" fill="#757575"/>
<path opacity="0.5" d="M126.756 591.076C127.514 591.076 128.13 591.692 128.13 592.45C128.13 593.208 127.514 593.824 126.756 593.824C125.998 593.824 125.382 593.208 125.382 592.45C125.382 591.692 125.998 591.076 126.756 591.076Z" fill="#757575"/>
<path opacity="0.5" d="M201.775 498.389C202.534 498.389 203.149 497.773 203.149 497.015C203.149 496.256 202.534 495.641 201.775 495.641C201.017 495.641 200.401 496.256 200.401 497.015C200.401 497.773 201.017 498.389 201.775 498.389Z" fill="#757575"/>
<path opacity="0.5" d="M62.7373 542.374C63.4961 542.374 64.1112 541.759 64.1112 541C64.1112 540.241 63.4961 539.626 62.7373 539.626C61.9784 539.626 61.3633 540.241 61.3633 541C61.3633 541.759 61.9784 542.374 62.7373 542.374Z" fill="#757575"/>
<path opacity="0.5" d="M174.277 607.176C175.036 607.176 175.651 606.561 175.651 605.802C175.651 605.043 175.036 604.428 174.277 604.428C173.518 604.428 172.903 605.043 172.903 605.802C172.903 606.561 173.518 607.176 174.277 607.176Z" fill="#757575"/>
<path opacity="0.5" d="M144.428 400.205C145.186 400.205 145.802 400.821 145.802 401.579C145.802 402.337 145.186 402.953 144.428 402.953C143.67 402.953 143.054 402.337 143.054 401.579C143.054 400.821 143.67 400.205 144.428 400.205Z" fill="#757575"/>
<path opacity="0.5" d="M71.3862 589.112C72.145 589.112 72.7602 588.497 72.7602 587.738C72.7602 586.979 72.145 586.364 71.3862 586.364C70.6274 586.364 70.0122 586.979 70.0122 587.738C70.0122 588.497 70.6274 589.112 71.3862 589.112Z" fill="#757575"/>
<path opacity="0.5" d="M262.257 421.409C263.016 421.409 263.631 420.794 263.631 420.035C263.631 419.276 263.016 418.661 262.257 418.661C261.498 418.661 260.883 419.276 260.883 420.035C260.883 420.794 261.498 421.409 262.257 421.409Z" fill="#757575"/>
<path opacity="0.5" d="M97.6992 514.885C98.458 514.885 99.0731 514.27 99.0731 513.511C99.0731 512.752 98.458 512.137 97.6992 512.137C96.9403 512.137 96.3252 512.752 96.3252 513.511C96.3252 514.27 96.9403 514.885 97.6992 514.885Z" fill="#757575"/>
<path opacity="0.5" d="M72.1704 494.068C72.9292 494.068 73.5444 493.453 73.5444 492.694C73.5444 491.935 72.9292 491.32 72.1704 491.32C71.4115 491.32 70.7964 491.935 70.7964 492.694C70.7964 493.453 71.4115 494.068 72.1704 494.068Z" fill="#757575"/>
<path opacity="0.5" d="M0.29487 371.144C1.0537 371.144 1.66885 370.529 1.66885 369.77C1.66885 369.011 1.0537 368.396 0.29487 368.396C-0.463958 368.396 -1.0791 369.011 -1.0791 369.77C-1.0791 370.529 -0.463958 371.144 0.29487 371.144Z" fill="#757575"/>
<path opacity="0.5" d="M91.4106 598.541C92.1687 598.541 92.7846 599.156 92.7846 599.914C92.7846 600.673 92.1687 601.288 91.4106 601.288C90.6526 601.288 90.0366 600.673 90.0366 599.914C90.0366 599.156 90.6526 598.541 91.4106 598.541Z" fill="#757575"/>
<path opacity="0.5" d="M158.618 609.248C159.376 609.248 159.992 609.863 159.992 610.622C159.992 611.38 159.376 611.996 158.618 611.996C157.86 611.996 157.244 611.38 157.244 610.622C157.244 609.863 157.86 609.248 158.618 609.248Z" fill="#757575"/>
<path opacity="0.5" d="M354.878 527.975C355.636 527.975 356.252 528.591 356.252 529.349C356.252 530.107 355.636 530.723 354.878 530.723C354.12 530.723 353.504 530.107 353.504 529.349C353.504 528.591 354.12 527.975 354.878 527.975Z" fill="#757575"/>
<path opacity="0.5" d="M429.363 348.554C430.122 348.554 430.737 347.939 430.737 347.18C430.737 346.421 430.122 345.806 429.363 345.806C428.604 345.806 427.989 346.421 427.989 347.18C427.989 347.939 428.604 348.554 429.363 348.554Z" fill="#757575"/>
</g>
<defs>
<linearGradient id="paint0_linear_138_5653" x1="151.5" y1="-79" x2="553.297" y2="332.941" gradientUnits="userSpaceOnUse">
<stop stop-color="white" stop-opacity="0"/>
<stop offset="0.778846" stop-color="#F3F3F3"/>
<stop offset="0.975962" stop-color="white" stop-opacity="0"/>
</linearGradient>
<linearGradient id="paint1_linear_138_5653" x1="379.618" y1="393.454" x2="225.29" y2="308.401" gradientUnits="userSpaceOnUse">
<stop stop-color="#757575"/>
<stop offset="0.22" stop-color="#757575" stop-opacity="0.76"/>
<stop offset="0.6" stop-color="#757575" stop-opacity="0.36"/>
<stop offset="0.87" stop-color="#757575" stop-opacity="0.1"/>
<stop offset="1" stop-color="#757575" stop-opacity="0"/>
</linearGradient>
<linearGradient id="paint2_linear_138_5653" x1="276.689" y1="92.7924" x2="195.778" y2="189.318" gradientUnits="userSpaceOnUse">
<stop stop-color="#757575"/>
<stop offset="0.22" stop-color="#757575" stop-opacity="0.76"/>
<stop offset="0.6" stop-color="#757575" stop-opacity="0.36"/>
<stop offset="0.87" stop-color="#757575" stop-opacity="0.1"/>
<stop offset="1" stop-color="#757575" stop-opacity="0"/>
</linearGradient>
<linearGradient id="paint3_linear_138_5653" x1="16.9774" y1="108.25" x2="56.4004" y2="182.251" gradientUnits="userSpaceOnUse">
<stop stop-color="#757575"/>
<stop offset="0.02" stop-color="#757575" stop-opacity="0.95"/>
<stop offset="0.14" stop-color="#757575" stop-opacity="0.73"/>
<stop offset="0.25" stop-color="#757575" stop-opacity="0.54"/>
<stop offset="0.37" stop-color="#757575" stop-opacity="0.37"/>
<stop offset="0.49" stop-color="#757575" stop-opacity="0.24"/>
<stop offset="0.61" stop-color="#757575" stop-opacity="0.13"/>
<stop offset="0.74" stop-color="#757575" stop-opacity="0.06"/>
<stop offset="0.86" stop-color="#757575" stop-opacity="0.01"/>
<stop offset="1" stop-color="#757575" stop-opacity="0"/>
</linearGradient>
</defs>
</svg>
