<svg width="599" height="204" viewBox="0 0 599 204" fill="none" xmlns="http://www.w3.org/2000/svg">
<mask id="mask0_3692_68105" style="mask-type:alpha" maskUnits="userSpaceOnUse" x="0" y="0" width="599" height="316">
<rect width="599" height="316" fill="url(#paint0_linear_3692_68105)"/>
</mask>
<g mask="url(#mask0_3692_68105)">
<path d="M383.777 391.846L380.677 507.608L393.51 540.573L573.643 571.202L555.583 672.305L278.891 614.425L380.677 507.611L144.411 473.383L231.315 289.049L-6.4841 256.703L30.694 99.822L-125.869 33.7447L-57.5755 51.3696L-33.0245 114.9L101.025 163.53L121.083 337.14L327.693 327.126L217.998 412.24L383.782 391.848L276.324 551.048L393.515 540.576L278.058 713.528L573.648 571.207L458.314 756.529L458.309 756.534L551.843 442.29L363.22 779.529L231.473 787.418L278.056 713.533L363.223 779.529L203.02 713.701L47.4399 644.807M383.777 391.846L144.409 473.383L217.993 412.237L121.08 337.137M383.777 391.846L-6.4841 256.701M383.777 391.846L278.051 713.526L555.58 672.305L393.508 540.573L217.99 412.237L101.02 163.528M121.08 337.137L231.315 289.047L-33.027 114.897L-6.4841 256.701M121.08 337.137L51.9156 341.857L101.023 163.528L-6.4841 256.701M121.08 337.137L-6.4841 256.701M101.02 163.528L-101.55 160.015M101.02 163.528L231.313 289.047L-101.55 160.015M101.02 163.528L-120.988 244.705M-101.55 160.015L-6.48659 256.701L-125.874 33.7422M-101.55 160.015L-125.874 33.7422M-101.55 160.015L-57.5806 51.3671L-125.874 33.7422M-101.55 160.015L-33.0296 114.897M-125.874 33.7422L-33.0296 114.897M-33.0296 114.897L30.6889 99.8195M-120.988 244.705L-101.55 160.018L51.913 341.857L-120.988 244.705ZM-120.988 244.705L30.6889 99.822L-164.585 85.0833M-164.585 85.0833L-57.5806 51.3696L-125.874 33.7447L-164.585 85.0833ZM-164.585 85.0833L-101.552 160.018L6.83841 437.374M6.83841 437.374L217.988 412.237L51.9105 341.857L144.406 473.383L121.075 337.137L6.83841 437.371L51.9105 341.855L-96.7429 326.411L-120.988 244.703L-6.4892 256.701L-96.7429 326.413L231.31 289.047L383.772 391.846L189.527 542.109L276.311 551.045L144.403 473.383M6.83841 437.374L189.527 542.112L144.403 473.383M6.83841 437.374L144.403 473.383M144.403 473.383L173.3 632.358L278.881 614.425L276.308 551.048L173.298 632.358L189.524 542.112L56.8064 542.089L144.401 473.385L-96.748 326.416L6.8358 437.377L56.809 542.089L121.073 337.14L307.933 401.177L380.669 507.614L231.308 289.052L555.575 672.31L383.769 391.851L573.636 571.207L458.301 756.529M458.301 756.529L278.046 713.528L173.3 632.361L2.7346 432.982L458.301 756.529ZM458.301 756.529L363.212 779.524L393.505 540.576L563.291 750.923L458.301 756.527L437.049 647.509L278.884 614.422L203.007 713.691L573.636 571.202M573.636 571.202L551.836 442.283M573.636 571.202L454.755 387.003M551.836 442.283L393.503 540.573L454.755 387.003M551.836 442.283L454.755 387.003M454.755 387.003L378.545 388.323L208.924 184.23L231.308 289.049C231.308 289.049 352.305 267.713 335.648 265.55C318.991 263.385 101.015 163.53 101.015 163.53L69.7697 58.8103L30.6864 99.8246L-37.5052 17.8164L-57.5704 51.3747L69.7825 58.8128L51.9207 341.863L-96.7328 326.418M-96.7328 326.418L-234.835 273.113M-96.7328 326.418L-178.639 332.007M-96.7328 326.418L-79.3066 479.573M-96.7328 326.418L-154.078 397.312M-234.835 273.113L-120.978 244.711M-234.835 273.113L-164.575 85.0884L-178.639 332.007M-234.835 273.113L-178.639 332.007M-234.835 273.113L-269.43 184.408L-120.978 244.711M-120.978 244.711L-178.639 332.007M-120.978 244.711L-224.638 121.925L-101.542 160.023M-178.639 332.007L6.84861 437.379M-178.639 332.007L-154.078 397.312M-79.3066 479.573L203.02 713.699L56.8217 542.091L-79.3066 479.573ZM-79.3066 479.573L6.8511 437.379L-154.078 397.312M-101.542 160.023L-269.433 184.408L-224.641 121.925L-96.7353 326.418L-120.981 244.711L-101.542 160.023ZM-101.542 160.023L-227.639 64.3558L-224.638 121.928L-164.575 85.0909L-227.639 64.3583L-269.433 184.413L-249.243 363.242L-178.642 332.012L-234.838 273.118L-249.243 363.24L-154.08 397.315L56.8217 542.097L47.4399 644.807M47.4399 644.807L173.313 632.366" stroke="#4F4F4F" stroke-width="0.227772" stroke-miterlimit="10"/>
<path d="M68.0675 60.9744C67.8312 59.9764 68.4487 58.9758 69.4467 58.7395C70.4447 58.5032 71.4453 59.1207 71.6815 60.1187C71.9178 61.1167 71.3003 62.1173 70.3023 62.3536C69.3043 62.5899 68.3038 61.9724 68.0675 60.9744Z" fill="#6D6E71"/>
<path d="M207.052 185.119C207.052 185.697 207.521 186.163 208.096 186.163C208.672 186.163 209.141 185.694 209.141 185.119C209.141 184.543 208.672 184.074 208.096 184.074C207.521 184.074 207.052 184.543 207.052 185.119Z" fill="#6D6E71"/>
<path d="M6.90906 200.475C5.55145 200.475 4.45092 199.374 4.45092 198.017C4.45092 196.659 5.55145 195.559 6.90906 195.559C8.26666 195.559 9.36719 196.659 9.36719 198.017C9.36719 199.374 8.26666 200.475 6.90906 200.475Z" fill="#6D6E71"/>
<path d="M28.9212 102.099C28.0363 102.099 27.3189 101.382 27.3189 100.497C27.3189 99.6119 28.0363 98.8945 28.9212 98.8945C29.8061 98.8945 30.5234 99.6119 30.5234 100.497C30.5234 101.382 29.8061 102.099 28.9212 102.099Z" fill="#6D6E71"/>
<path d="M39.5668 165.735C38.598 165.386 38.0959 164.317 38.4452 163.348C38.7946 162.38 39.8631 161.877 40.8319 162.227C41.8006 162.576 42.3027 163.645 41.9534 164.613C41.6041 165.582 40.5355 166.084 39.5668 165.735Z" fill="#6D6E71"/>
<path d="M99.7449 163.503C99.7449 164.437 100.504 165.197 101.439 165.197C102.374 165.197 103.133 164.437 103.133 163.503C103.133 162.568 102.374 161.809 101.439 161.809C100.504 161.809 99.7449 162.568 99.7449 163.503Z" fill="#6D6E71"/>
</g>
<defs>
<linearGradient id="paint0_linear_3692_68105" x1="299.5" y1="395" x2="299.5" y2="0" gradientUnits="userSpaceOnUse">
<stop stop-color="#D9D9D9" stop-opacity="0"/>
<stop offset="1" stop-color="#737373"/>
</linearGradient>
</defs>
</svg>
