<svg width="32" height="32" viewBox="0 0 32 32" fill="none" xmlns="http://www.w3.org/2000/svg">
<g clip-path="url(#clip0_3692_75043)">
<path d="M31.331 8.24756C30.963 6.86156 29.879 5.77056 28.502 5.39956C26.006 4.72656 16 4.72656 16 4.72656C16 4.72656 5.993 4.72656 3.498 5.39956C2.121 5.76956 1.037 6.86156 0.669 8.24756C0 10.7596 0 15.9996 0 15.9996C0 15.9996 0 21.2406 0.669 23.7516C1.037 25.1376 2.121 26.2286 3.498 26.5986C5.994 27.2716 16 27.2716 16 27.2716C16 27.2716 26.007 27.2716 28.502 26.5986C29.879 26.2286 30.963 25.1366 31.331 23.7516C32 21.2396 32 15.9996 32 15.9996C32 15.9996 32 10.7596 31.331 8.24756ZM12.727 20.7576V11.2416L21.091 15.9996L12.727 20.7576Z" fill="#F37021"/>
</g>
<defs>
<clipPath id="clip0_3692_75043">
<rect width="32" height="32" fill="white"/>
</clipPath>
</defs>
</svg>
