<svg width="20" height="22" viewBox="0 0 20 22" fill="none" xmlns="http://www.w3.org/2000/svg">
<path d="M1.49922 7.53186C1.34566 7.42958 1.21974 7.29096 1.13265 7.1283C1.04556 6.96564 0.999993 6.78399 1 6.59949V6.59855C1 5.93618 1.53701 5.39921 2.19942 5.39921H17.8005C18.4629 5.39921 18.9999 5.93618 18.9999 6.59855V6.59949C18.9999 6.97416 18.8127 7.32397 18.5007 7.53186C16.9782 8.54707 12.3906 11.6052 10.6656 12.7554C10.4685 12.8869 10.2369 12.957 9.99995 12.957C9.76302 12.957 9.53139 12.8869 9.33427 12.7554C7.60926 11.6052 3.02171 8.54707 1.49922 7.53186Z" stroke="#F37021" stroke-width="1.91203" stroke-miterlimit="10" stroke-linecap="round" stroke-linejoin="round"/>
<path d="M1 6.58993V17.3899C0.999959 17.5474 1.03099 17.7035 1.09132 17.8491C1.15165 17.9946 1.2401 18.1269 1.3516 18.2382C1.46295 18.3497 1.5952 18.4382 1.74078 18.4985C1.88636 18.5589 2.0424 18.5899 2.19998 18.5898H17.7999C17.9575 18.5899 18.1135 18.5589 18.2591 18.4985C18.4047 18.4382 18.5369 18.3497 18.6483 18.2382C18.7598 18.1269 18.8482 17.9946 18.9085 17.8491C18.9689 17.7035 18.9999 17.5474 18.9999 17.3899V6.58993" stroke="#F37021" stroke-width="1.91203" stroke-miterlimit="10" stroke-linecap="round" stroke-linejoin="round"/>
</svg>
