<svg width="20" height="20" viewBox="0 0 20 20" fill="none" xmlns="http://www.w3.org/2000/svg">
<path d="M16.751 9.58398C16.751 5.62605 13.5429 2.41717 9.58496 2.41699C5.62692 2.41699 2.41797 5.62594 2.41797 9.58398C2.41814 13.5419 5.62703 16.75 9.58496 16.75C13.5427 16.7498 16.7508 13.5418 16.751 9.58398ZM18.251 9.58398C18.2508 14.3702 14.3712 18.2498 9.58496 18.25C4.7986 18.25 0.918145 14.3703 0.917969 9.58398C0.917969 4.79752 4.79849 0.916992 9.58496 0.916992C14.3713 0.917168 18.251 4.79763 18.251 9.58398Z" fill="#8F8F8F"/>
<path d="M16.1376 16.1367C16.4305 15.8438 16.9053 15.8438 17.1982 16.1367L18.8652 17.8037C19.1577 18.0966 19.158 18.5714 18.8652 18.8642C18.5724 19.157 18.0975 19.1568 17.8046 18.8642L16.1376 17.1972C15.8447 16.9043 15.8447 16.4296 16.1376 16.1367Z" fill="#8F8F8F"/>
</svg>
