<svg width="20" height="22" viewBox="0 0 20 22" fill="none" xmlns="http://www.w3.org/2000/svg">
<g clip-path="url(#clip0_5535_32767)">
<path d="M1.66146 2.83123C1.88247 2.83123 2.09443 2.91902 2.25071 3.0753C2.40699 3.23158 2.49479 3.44355 2.49479 3.66456C2.49479 6.75875 3.72395 9.72621 5.91188 11.9141C8.0998 14.1021 11.0673 15.3312 14.1615 15.3312L16.3198 15.3312L13.5698 12.5896C13.4921 12.5119 13.4305 12.4196 13.3884 12.3181C13.3464 12.2166 13.3247 12.1078 13.3247 11.9979C13.3247 11.888 13.3464 11.7792 13.3884 11.6777C13.4305 11.5762 13.4921 11.4839 13.5698 11.4062C13.6475 11.3285 13.7397 11.2669 13.8413 11.2248C13.9428 11.1828 14.0516 11.1611 14.1615 11.1611C14.2713 11.1611 14.3801 11.1828 14.4817 11.2248C14.5832 11.2669 14.6754 11.3285 14.7531 11.4062L18.9198 15.5729C18.9957 15.6521 19.0551 15.7456 19.0948 15.8479C19.1389 15.9476 19.1617 16.0555 19.1617 16.1646C19.1617 16.2736 19.1389 16.3815 19.0948 16.4812C19.0551 16.5835 18.9957 16.677 18.9198 16.7562L14.7531 20.9229C14.5962 21.0798 14.3834 21.168 14.1615 21.168C13.9395 21.168 13.7267 21.0798 13.5698 20.9229C13.4129 20.766 13.3247 20.5531 13.3247 20.3312C13.3247 20.1093 13.4129 19.8965 13.5698 19.7396L16.3198 16.9979L14.1615 16.9979C10.6252 16.9979 7.23385 15.5931 4.73337 13.0926C2.23288 10.5922 0.828124 7.20078 0.828124 3.66456C0.828124 3.44355 0.915922 3.23158 1.0722 3.0753C1.22848 2.91902 1.44044 2.83123 1.66146 2.83123Z" fill="#F37021"/>
</g>
<defs>
<clipPath id="clip0_5535_32767">
<rect width="20" height="20" fill="white" transform="translate(0 22) rotate(-90)"/>
</clipPath>
</defs>
</svg>
