<svg width="32" height="32" viewBox="0 0 32 32" fill="none" xmlns="http://www.w3.org/2000/svg">
<g clip-path="url(#clip0_3692_75037)">
<path d="M22.332 2.9082H8.9987C5.3187 2.9082 2.33203 5.89487 2.33203 9.57487V22.9082C2.33203 26.5882 5.3187 29.5749 8.9987 29.5749H22.332C26.012 29.5749 28.9987 26.5882 28.9987 22.9082V9.57487C28.9987 5.89487 26.012 2.9082 22.332 2.9082ZM15.6654 22.9082C11.9854 22.9082 8.9987 19.9215 8.9987 16.2415C8.9987 12.5615 11.9854 9.57487 15.6654 9.57487C19.3454 9.57487 22.332 12.5615 22.332 16.2415C22.332 19.9215 19.3454 22.9082 15.6654 22.9082ZM22.7987 10.4015C22.0654 10.4015 21.4654 9.80154 21.4654 9.0682C21.4654 8.33487 22.0654 7.73487 22.7987 7.73487C23.532 7.73487 24.132 8.33487 24.132 9.0682C24.132 9.80154 23.532 10.4015 22.7987 10.4015Z" fill="#F37021"/>
<path d="M15.6641 20.2422C17.8732 20.2422 19.6641 18.4513 19.6641 16.2422C19.6641 14.033 17.8732 12.2422 15.6641 12.2422C13.4549 12.2422 11.6641 14.033 11.6641 16.2422C11.6641 18.4513 13.4549 20.2422 15.6641 20.2422Z" fill="#F37021"/>
</g>
<defs>
<clipPath id="clip0_3692_75037">
<rect width="32" height="32" fill="white"/>
</clipPath>
</defs>
</svg>
