<svg width="24" height="24" viewBox="0 0 24 24" fill="none" xmlns="http://www.w3.org/2000/svg">
<g clip-path="url(#clip0_3692_63539)">
<path d="M7.33464 11L6.66797 13.0667H8.0013L7.33464 11Z" fill="#F37021"/>
<path d="M20.2018 1.59963H11.5352C10.4306 1.59963 9.53516 2.49506 9.53516 3.59963V6.2663H12.2018H3.53516C2.40182 6.2663 1.53516 7.13297 1.53516 8.2663V15.5996C1.53516 16.733 2.40182 17.5996 3.53516 17.5996H4.20182V20.9996L8.40182 17.5996H10.8685C11.9731 17.5996 12.8685 16.7042 12.8685 15.5996V12.933H20.2018C21.3352 12.933 22.2018 12.0663 22.2018 10.933V3.59963C22.2018 2.4663 21.3352 1.59963 20.2018 1.59963ZM8.73516 14.8663L8.40182 13.7996H6.33516L5.93516 14.8663H4.33516L6.53516 8.93297H8.13516L10.3352 14.8663H8.73516ZM18.8685 9.59963V10.933C18.0018 10.933 17.0685 10.6663 16.2685 10.2663C15.4685 10.6663 14.5352 10.8663 13.6018 10.933L13.5352 9.59963C14.0018 9.59963 14.4685 9.53297 14.9352 9.39963C14.3352 8.79963 13.9352 8.0663 13.7352 7.2663H15.1352C15.3352 7.8663 15.7352 8.33297 16.2018 8.73297C16.9352 8.13297 17.4018 7.2663 17.4685 6.2663H13.4685V4.93297H15.4685V3.59963H16.8018V4.93297H19.0018L19.0685 5.59963C19.1352 6.99963 18.6018 8.39963 17.6018 9.39963C18.0685 9.53297 18.4685 9.59963 18.8685 9.59963Z" fill="#F37021"/>
</g>
<defs>
<clipPath id="clip0_3692_63539">
<rect width="24" height="24" fill="white"/>
</clipPath>
</defs>
</svg>
