<svg width="56" height="60" viewBox="0 0 56 60" fill="none" xmlns="http://www.w3.org/2000/svg">
<rect width="56" height="56" transform="translate(0 4)" fill="#F37021"/>
<rect width="52" height="24" transform="translate(2 4)" fill="#F37021"/>
<path d="M17.0078 11.0469V21H15.1348V11.0469H17.0078ZM20.0977 11.0469V12.5303H12.0791V11.0469H20.0977ZM22.9824 10.5V21H21.1709V10.5H22.9824ZM22.6953 17.0352H22.1621C22.1621 16.5202 22.2305 16.0462 22.3672 15.6133C22.5039 15.1803 22.6976 14.8044 22.9482 14.4854C23.1989 14.1618 23.4974 13.9111 23.8438 13.7334C24.1947 13.5557 24.582 13.4668 25.0059 13.4668C25.3704 13.4668 25.7008 13.5192 25.9971 13.624C26.2979 13.7243 26.5553 13.8861 26.7695 14.1094C26.9837 14.3327 27.1478 14.6243 27.2617 14.9844C27.3802 15.3398 27.4395 15.7728 27.4395 16.2832V21H25.6211V16.2695C25.6211 15.9277 25.571 15.6589 25.4707 15.4629C25.3704 15.2624 25.2269 15.1188 25.04 15.0322C24.8577 14.9456 24.6322 14.9023 24.3633 14.9023C24.0716 14.9023 23.821 14.9593 23.6113 15.0732C23.4017 15.1826 23.2285 15.3353 23.0918 15.5312C22.9596 15.7272 22.8594 15.9528 22.791 16.208C22.7272 16.4632 22.6953 16.7389 22.6953 17.0352ZM33.585 11.0195V21H31.7734V13.1318L29.374 13.9248V12.4619L33.3799 11.0195H33.585ZM41.583 11.0195V21H39.7715V13.1318L37.3721 13.9248V12.4619L41.3779 11.0195H41.583Z" fill="white"/>
<rect width="52" height="30" transform="translate(2 28)" fill="white"/>
<path d="M20.373 41.6699H21.877C22.3587 41.6699 22.7559 41.5885 23.0684 41.4258C23.3809 41.2565 23.612 41.0221 23.7617 40.7227C23.918 40.4167 23.9961 40.0618 23.9961 39.6582C23.9961 39.2936 23.9245 38.9714 23.7812 38.6914C23.6445 38.4049 23.4329 38.1836 23.1465 38.0273C22.86 37.8646 22.4987 37.7832 22.0625 37.7832C21.7174 37.7832 21.3984 37.8516 21.1055 37.9883C20.8125 38.125 20.5781 38.3171 20.4023 38.5645C20.2266 38.8118 20.1387 39.1113 20.1387 39.4629H17.3164C17.3164 38.6816 17.5247 38.0013 17.9414 37.4219C18.3646 36.8424 18.931 36.39 19.6406 36.0645C20.3503 35.7389 21.1315 35.5762 21.9844 35.5762C22.9479 35.5762 23.791 35.7324 24.5137 36.0449C25.2363 36.3509 25.7995 36.8034 26.2031 37.4023C26.6068 38.0013 26.8086 38.7435 26.8086 39.6289C26.8086 40.0781 26.7044 40.5143 26.4961 40.9375C26.2878 41.3542 25.9883 41.7318 25.5977 42.0703C25.2135 42.4023 24.7448 42.6693 24.1914 42.8711C23.638 43.0664 23.0163 43.1641 22.3262 43.1641H20.373V41.6699ZM20.373 43.8086V42.3535H22.3262C23.1009 42.3535 23.7812 42.4414 24.3672 42.6172C24.9531 42.793 25.4447 43.0469 25.8418 43.3789C26.2389 43.7044 26.5384 44.0918 26.7402 44.541C26.9421 44.9837 27.043 45.4753 27.043 46.0156C27.043 46.6797 26.916 47.2721 26.6621 47.793C26.4082 48.3073 26.0501 48.7435 25.5879 49.1016C25.1322 49.4596 24.5983 49.7331 23.9863 49.9219C23.3743 50.1042 22.707 50.1953 21.9844 50.1953C21.3854 50.1953 20.7962 50.1139 20.2168 49.9512C19.6439 49.7819 19.123 49.5312 18.6543 49.1992C18.1921 48.8607 17.821 48.4375 17.541 47.9297C17.2676 47.4154 17.1309 46.8066 17.1309 46.1035H19.9531C19.9531 46.4681 20.0443 46.7936 20.2266 47.0801C20.4089 47.3665 20.6595 47.5911 20.9785 47.7539C21.304 47.9167 21.6654 47.998 22.0625 47.998C22.5117 47.998 22.8958 47.9167 23.2148 47.7539C23.5404 47.5846 23.7878 47.3503 23.957 47.0508C24.1328 46.7448 24.2207 46.39 24.2207 45.9863C24.2207 45.4655 24.1263 45.0488 23.9375 44.7363C23.7487 44.4173 23.4785 44.1829 23.127 44.0332C22.7754 43.8835 22.3587 43.8086 21.877 43.8086H20.373ZM38.5469 41.6406V44.1016C38.5469 45.1693 38.4329 46.0905 38.2051 46.8652C37.9772 47.6335 37.6484 48.265 37.2188 48.7598C36.7956 49.248 36.291 49.6094 35.7051 49.8438C35.1191 50.0781 34.4681 50.1953 33.752 50.1953C33.179 50.1953 32.6452 50.1237 32.1504 49.9805C31.6556 49.8307 31.2096 49.5996 30.8125 49.2871C30.4219 48.9746 30.0833 48.5807 29.7969 48.1055C29.5169 47.6237 29.3021 47.0508 29.1523 46.3867C29.0026 45.7227 28.9277 44.9609 28.9277 44.1016V41.6406C28.9277 40.5729 29.0417 39.6582 29.2695 38.8965C29.5039 38.1283 29.8327 37.5 30.2559 37.0117C30.6855 36.5234 31.1934 36.1654 31.7793 35.9375C32.3652 35.7031 33.0163 35.5859 33.7324 35.5859C34.3053 35.5859 34.8359 35.6608 35.3242 35.8105C35.819 35.9538 36.265 36.1784 36.6621 36.4844C37.0592 36.7904 37.3978 37.1842 37.6777 37.666C37.9577 38.1413 38.1725 38.7109 38.3223 39.375C38.472 40.0326 38.5469 40.7878 38.5469 41.6406ZM35.7246 44.4727V41.2598C35.7246 40.7454 35.6953 40.2962 35.6367 39.9121C35.5846 39.528 35.5033 39.2025 35.3926 38.9355C35.2819 38.6621 35.1452 38.4408 34.9824 38.2715C34.8197 38.1022 34.6341 37.9785 34.4258 37.9004C34.2174 37.8223 33.9863 37.7832 33.7324 37.7832C33.4134 37.7832 33.1302 37.8451 32.8828 37.9688C32.6419 38.0924 32.4368 38.291 32.2676 38.5645C32.0983 38.8314 31.9681 39.1895 31.877 39.6387C31.7923 40.0814 31.75 40.6217 31.75 41.2598V44.4727C31.75 44.987 31.776 45.4395 31.8281 45.8301C31.8867 46.2207 31.9714 46.556 32.082 46.8359C32.1992 47.1094 32.3359 47.334 32.4922 47.5098C32.6549 47.679 32.8405 47.8027 33.0488 47.8809C33.2637 47.959 33.498 47.998 33.752 47.998C34.0645 47.998 34.3411 47.9362 34.582 47.8125C34.8294 47.6823 35.0378 47.4805 35.207 47.207C35.3828 46.9271 35.513 46.5625 35.5977 46.1133C35.6823 45.6641 35.7246 45.1172 35.7246 44.4727Z" fill="#F37021"/>
<rect x="8" width="4" height="8" fill="#F37021"/>
<rect x="26" width="4" height="8" fill="#F37021"/>
<rect x="44" width="4" height="8" fill="#F37021"/>
</svg>
