<svg width="40" height="40" viewBox="0 0 40 40" fill="none" xmlns="http://www.w3.org/2000/svg">
<path d="M26.3547 21.3084L21.506 27.1297C18.0435 24.9122 15.0872 21.9572 12.871 18.4947L18.6935 13.6434L13.0885 1.02344L3.9835 3.38469C2.191 3.85344 1.031 5.58969 1.28475 7.42719C3.55225 23.5809 16.4185 36.4472 32.576 38.7159C32.7447 38.7397 32.9122 38.7497 33.0772 38.7497C34.7172 38.7497 36.1885 37.6434 36.6147 36.0147L38.976 26.9134L26.3547 21.3084Z" fill="white"/>
<path d="M31.25 17.5H28.75V16.25C28.75 13.4925 26.5075 11.25 23.75 11.25H22.5V8.75H23.75C27.8863 8.75 31.25 12.1137 31.25 16.25V17.5Z" fill="white"/>
<path d="M37.5 17.5H35V16.25C35 10.0475 29.9525 5 23.75 5H22.5V2.5H23.75C31.3313 2.5 37.5 8.66875 37.5 16.25V17.5Z" fill="white"/>
</svg>
