<svg width="20" height="22" viewBox="0 0 20 22" fill="none" xmlns="http://www.w3.org/2000/svg">
<g clip-path="url(#clip0_5535_32759)">
<path d="M18.2143 7.00446H17.8571V6.29018C17.8571 4.32089 16.255 2.71875 14.2857 2.71875H5.71429C3.745 2.71875 2.14286 4.32089 2.14286 6.29018V7.00446H1.78571C1.31229 7.00503 0.858414 7.19335 0.52365 7.52811C0.188886 7.86288 0.000567092 8.31675 0 8.79018V10.5759C0 10.7653 0.0752549 10.947 0.209209 11.081C0.343164 11.2149 0.524845 11.2902 0.714286 11.2902C0.903726 11.2902 1.08541 11.2149 1.21936 11.081C1.35332 10.947 1.42857 10.7653 1.42857 10.5759V8.79018C1.42857 8.69546 1.4662 8.60462 1.53318 8.53764C1.60015 8.47066 1.69099 8.43304 1.78571 8.43304H2.14286V15.5759C2.14286 16.738 2.70929 17.7623 3.57143 18.4145V19.8616C3.57143 20.6495 4.21214 21.2902 5 21.2902H6.42857C7.21643 21.2902 7.85714 20.6495 7.85714 19.8616V19.1473H12.1429V19.8616C12.1429 20.6495 12.7836 21.2902 13.5714 21.2902H15C15.7879 21.2902 16.4286 20.6495 16.4286 19.8616V18.4145C17.2907 17.7616 17.8571 16.7373 17.8571 15.5759V8.43304H18.2143C18.309 8.43304 18.3998 8.47066 18.4668 8.53764C18.5338 8.60462 18.5714 8.69546 18.5714 8.79018V10.5759C18.5714 10.7653 18.6467 10.947 18.7806 11.081C18.9146 11.2149 19.0963 11.2902 19.2857 11.2902C19.4752 11.2902 19.6568 11.2149 19.7908 11.081C19.9247 10.947 20 10.7653 20 10.5759V8.79018C20 7.80589 19.1993 7.00446 18.2143 7.00446ZM3.57143 7.00446H16.4286V12.2652C15.7807 12.561 15.0772 12.7156 14.365 12.7188H5.635C4.92277 12.7155 4.21936 12.5609 3.57143 12.2652V7.00446ZM5.71429 4.14732H14.2857C15.2157 4.14732 16.0014 4.74661 16.2971 5.57589H3.70286C3.8497 5.1593 4.12186 4.79835 4.48199 4.54258C4.84212 4.2868 5.27257 4.14874 5.71429 4.14732ZM6.42857 19.8616H5V19.0752C5.23071 19.1223 5.47 19.1473 5.71429 19.1473H6.42857V19.8616ZM15 19.8616H13.5714V19.1473H14.2857C14.53 19.1473 14.7693 19.1223 15 19.0752V19.8616ZM14.2857 17.7188H5.71429C4.53286 17.7188 3.57143 16.7573 3.57143 15.5759V13.8002C4.23571 14.0245 4.935 14.1473 5.635 14.1473H14.3657C15.0657 14.1473 15.765 14.0245 16.4293 13.8002V15.5759C16.4293 16.7573 15.4671 17.7188 14.2857 17.7188Z" fill="#F37021"/>
<path d="M5.71429 16.2879C6.10877 16.2879 6.42857 15.9681 6.42857 15.5737C6.42857 15.1792 6.10877 14.8594 5.71429 14.8594C5.3198 14.8594 5 15.1792 5 15.5737C5 15.9681 5.3198 16.2879 5.71429 16.2879Z" fill="#F37021"/>
<path d="M14.2846 16.2879C14.6791 16.2879 14.9989 15.9681 14.9989 15.5737C14.9989 15.1792 14.6791 14.8594 14.2846 14.8594C13.8901 14.8594 13.5703 15.1792 13.5703 15.5737C13.5703 15.9681 13.8901 16.2879 14.2846 16.2879Z" fill="#F37021"/>
</g>
<defs>
<clipPath id="clip0_5535_32759">
<rect width="20" height="20" fill="white" transform="translate(0 2)"/>
</clipPath>
</defs>
</svg>
