<svg width="1440" height="451" viewBox="0 0 1440 451" fill="none" xmlns="http://www.w3.org/2000/svg">
<g clip-path="url(#clip0_4510_7905)">
<path d="M1462.24 399.859H1525.22V401.253H1462.82L1442.56 421.49H1320.85V420.096H1441.98L1462.24 399.859Z" fill="#D9D9D9"/>
<path d="M1314.7 414.086C1318.4 414.086 1321.41 417.091 1321.41 420.788C1321.41 424.485 1318.4 427.49 1314.7 427.49C1311 427.49 1307.99 424.485 1307.99 420.788C1307.99 417.091 1311 414.086 1314.7 414.086ZM1314.7 426.101C1317.63 426.101 1320.02 423.717 1320.02 420.793C1320.02 417.869 1317.63 415.485 1314.7 415.485C1311.77 415.485 1309.39 417.869 1309.39 420.793C1309.39 423.717 1311.77 426.101 1314.7 426.101Z" fill="#D9D9D9"/>
<path d="M1312.72 420.797C1312.72 419.701 1313.61 418.812 1314.71 418.812C1315.8 418.812 1316.69 419.701 1316.69 420.797C1316.69 421.893 1315.8 422.782 1314.71 422.782C1313.61 422.782 1312.72 421.893 1312.72 420.797Z" fill="#D9D9D9"/>
<path d="M1462.24 159.289H1525.22V160.688H1462.82L1442.56 180.925H1320.85V179.526H1441.98L1462.24 159.289Z" fill="#D9D9D9"/>
<path d="M1314.7 173.523C1318.4 173.523 1321.41 176.528 1321.41 180.225C1321.41 183.922 1318.4 186.927 1314.7 186.927C1311 186.927 1307.99 183.922 1307.99 180.225C1307.99 176.528 1311 173.523 1314.7 173.523ZM1314.7 185.538C1317.63 185.538 1320.02 183.155 1320.02 180.23C1320.02 177.306 1317.63 174.922 1314.7 174.922C1311.77 174.922 1309.39 177.306 1309.39 180.23C1309.39 183.155 1311.77 185.538 1314.7 185.538Z" fill="#D9D9D9"/>
<path d="M1312.72 180.227C1312.72 179.131 1313.61 178.242 1314.71 178.242C1315.8 178.242 1316.69 179.131 1316.69 180.227C1316.69 181.323 1315.8 182.212 1314.71 182.212C1313.61 182.212 1312.72 181.323 1312.72 180.227Z" fill="#D9D9D9"/>
<path d="M1532.27 423.406H1595.25V424.805H1532.85L1512.59 445.042H1390.88V443.643H1512.01L1532.27 423.406Z" fill="#D9D9D9"/>
<path d="M1384.73 437.641C1388.43 437.641 1391.43 440.646 1391.43 444.343C1391.43 448.039 1388.43 451.044 1384.73 451.044C1381.02 451.044 1378.02 448.039 1378.02 444.343C1378.02 440.646 1381.02 437.641 1384.73 437.641ZM1384.73 449.656C1387.66 449.656 1390.04 447.272 1390.04 444.348C1390.04 441.423 1387.65 439.04 1384.73 439.04C1381.8 439.04 1379.41 441.423 1379.41 444.348C1379.41 447.272 1381.8 449.656 1384.73 449.656Z" fill="#D9D9D9"/>
<path d="M1382.74 444.344C1382.74 443.248 1383.63 442.359 1384.73 442.359C1385.83 442.359 1386.72 443.248 1386.72 444.344C1386.72 445.44 1385.83 446.329 1384.73 446.329C1383.63 446.329 1382.74 445.44 1382.74 444.344Z" fill="#D9D9D9"/>
<path d="M1496.39 39.9688H1559.37V41.3627H1496.97L1476.71 61.5996H1355V60.2057H1476.13L1496.39 39.9688Z" fill="#D9D9D9"/>
<path d="M1348.85 54.2031C1352.55 54.2031 1355.56 57.2081 1355.56 60.905C1355.56 64.6019 1352.55 67.6069 1348.85 67.6069C1345.15 67.6069 1342.14 64.6019 1342.14 60.905C1342.14 57.2081 1345.15 54.2031 1348.85 54.2031ZM1348.85 66.218C1351.78 66.218 1354.16 63.8342 1354.16 60.91C1354.16 57.9859 1351.78 55.6021 1348.85 55.6021C1345.92 55.6021 1343.54 57.9859 1343.54 60.91C1343.54 63.8342 1345.92 66.218 1348.85 66.218Z" fill="#D9D9D9"/>
<path d="M1346.87 60.9067C1346.87 59.8107 1347.76 58.9219 1348.85 58.9219C1349.95 58.9219 1350.84 59.8107 1350.84 60.9067C1350.84 62.0026 1349.95 62.8915 1348.85 62.8915C1347.76 62.8915 1346.87 62.0026 1346.87 60.9067Z" fill="#D9D9D9"/>
<path d="M1460.76 339.727H1525.22V341.12H1461.34L1441.08 361.357H1341.98V359.963H1440.5L1460.76 339.727Z" fill="#D9D9D9"/>
<path d="M1461.05 339.727H1313.78V341.12H1461.05V339.727Z" fill="#D9D9D9"/>
<path d="M1335.96 353.953C1339.66 353.953 1342.67 356.963 1342.67 360.66C1342.67 364.357 1339.66 367.362 1335.96 367.362C1332.26 367.362 1329.25 364.357 1329.25 360.66C1329.25 356.963 1332.26 353.953 1335.96 353.953ZM1335.96 365.968C1338.89 365.968 1341.27 363.584 1341.27 360.66C1341.27 357.736 1338.89 355.352 1335.96 355.352C1333.03 355.352 1330.65 357.736 1330.65 360.66C1330.65 363.584 1333.03 365.968 1335.96 365.968Z" fill="#D9D9D9"/>
<path d="M1333.98 360.664C1333.98 359.569 1334.87 358.68 1335.96 358.68C1337.06 358.68 1337.95 359.569 1337.95 360.664C1337.95 361.76 1337.06 362.649 1335.96 362.649C1334.87 362.649 1333.98 361.76 1333.98 360.664Z" fill="#D9D9D9"/>
<path d="M1306.92 333.719C1310.62 333.719 1313.63 336.729 1313.63 340.426C1313.63 344.123 1310.62 347.128 1306.92 347.128C1303.22 347.128 1300.21 344.123 1300.21 340.426C1300.21 336.729 1303.22 333.719 1306.92 333.719ZM1306.92 345.729C1309.85 345.729 1312.23 343.35 1312.23 340.421C1312.23 337.491 1309.85 335.113 1306.92 335.113C1303.99 335.113 1301.61 337.496 1301.61 340.421C1301.61 343.345 1303.99 345.729 1306.92 345.729Z" fill="#D9D9D9"/>
<path d="M1304.94 340.422C1304.94 339.326 1305.83 338.438 1306.92 338.438C1308.02 338.438 1308.91 339.326 1308.91 340.422C1308.91 341.518 1308.02 342.407 1306.92 342.407C1305.83 342.407 1304.94 341.518 1304.94 340.422Z" fill="#D9D9D9"/>
<path d="M1460.75 27.7871H1525.21V26.3932H1461.33L1441.07 6.15625H1341.97V7.55016H1440.49L1460.75 27.7871Z" fill="#D9D9D9"/>
<path d="M1461.05 26.3906H1313.78V27.7845H1461.05V26.3906Z" fill="#D9D9D9"/>
<path d="M1329.24 6.85031C1329.24 3.15342 1332.25 0.148438 1335.95 0.148438C1339.65 0.148438 1342.66 3.15342 1342.66 6.85031C1342.66 10.5472 1339.65 13.5572 1335.95 13.5572C1332.25 13.5572 1329.24 10.5472 1329.24 6.85031ZM1330.64 6.85031C1330.64 9.77954 1333.02 12.1583 1335.95 12.1583C1338.88 12.1583 1341.27 9.77449 1341.27 6.85031C1341.27 3.92613 1338.88 1.54234 1335.95 1.54234C1333.02 1.54234 1330.64 3.92613 1330.64 6.85031Z" fill="#D9D9D9"/>
<path d="M1333.97 6.85199C1333.97 7.94793 1334.86 8.8368 1335.96 8.8368C1337.05 8.8368 1337.94 7.94793 1337.94 6.85199C1337.94 5.75606 1337.05 4.86719 1335.96 4.86719C1334.86 4.86719 1333.97 5.75606 1333.97 6.85199Z" fill="#D9D9D9"/>
<path d="M1300.2 27.0847C1300.2 23.3878 1303.21 20.3828 1306.91 20.3828C1310.61 20.3828 1313.62 23.3878 1313.62 27.0847C1313.62 30.7816 1310.61 33.7916 1306.91 33.7916C1303.21 33.7916 1300.2 30.7816 1300.2 27.0847ZM1301.6 27.0847C1301.6 30.0139 1303.99 32.3926 1306.91 32.3926C1309.84 32.3926 1312.23 30.0089 1312.23 27.0847C1312.23 24.1605 1309.84 21.7767 1306.91 21.7767C1303.99 21.7767 1301.6 24.1555 1301.6 27.0847Z" fill="#D9D9D9"/>
<path d="M1304.93 27.0864C1304.93 28.1823 1305.82 29.0712 1306.92 29.0712C1308.01 29.0712 1308.9 28.1823 1308.9 27.0864C1308.9 25.9904 1308.01 25.1016 1306.92 25.1016C1305.82 25.1016 1304.93 25.9904 1304.93 27.0864Z" fill="#D9D9D9"/>
<path d="M1341.97 207.938H1406.43L1426.69 228.169H1525.21V229.568H1426.11L1405.85 209.331H1341.97V207.938Z" fill="#D9D9D9"/>
<path d="M1335.96 201.93C1339.66 201.93 1342.67 204.94 1342.67 208.637C1342.67 212.333 1339.66 215.338 1335.96 215.338C1332.26 215.338 1329.25 212.333 1329.25 208.637C1329.25 204.94 1332.26 201.93 1335.96 201.93ZM1335.96 213.945C1338.89 213.945 1341.27 211.566 1341.27 208.637C1341.27 205.707 1338.89 203.329 1335.96 203.329C1333.03 203.329 1330.65 205.712 1330.65 208.637C1330.65 211.561 1333.03 213.945 1335.96 213.945Z" fill="#D9D9D9"/>
<path d="M1333.98 208.641C1333.98 207.545 1334.87 206.656 1335.96 206.656C1337.06 206.656 1337.95 207.545 1337.95 208.641C1337.95 209.737 1337.06 210.626 1335.96 210.626C1334.87 210.626 1333.98 209.737 1333.98 208.641Z" fill="#D9D9D9"/>
</g>
<g clip-path="url(#clip1_4510_7905)">
<path d="M-22.2426 399.859H-85.2173V401.253H-22.819L-2.55885 421.49H119.148V420.096H-1.9825L-22.2426 399.859Z" fill="#D9D9D9"/>
<path d="M125.298 414.086C121.597 414.086 118.589 417.091 118.589 420.788C118.589 424.485 121.597 427.49 125.298 427.49C128.999 427.49 132.008 424.485 132.008 420.788C132.008 417.091 128.999 414.086 125.298 414.086ZM125.298 426.101C122.366 426.101 119.984 423.717 119.984 420.793C119.984 417.869 122.371 415.485 125.298 415.485C128.226 415.485 130.612 417.869 130.612 420.793C130.612 423.717 128.226 426.101 125.298 426.101Z" fill="#D9D9D9"/>
<path d="M127.281 420.797C127.281 419.701 126.391 418.812 125.294 418.812C124.197 418.812 123.307 419.701 123.307 420.797C123.307 421.893 124.197 422.782 125.294 422.782C126.391 422.782 127.281 421.893 127.281 420.797Z" fill="#D9D9D9"/>
<path d="M-22.2426 159.289H-85.2173V160.688H-22.819L-2.55885 180.925H119.148V179.526H-1.9825L-22.2426 159.289Z" fill="#D9D9D9"/>
<path d="M125.298 173.523C121.597 173.523 118.589 176.528 118.589 180.225C118.589 183.922 121.597 186.927 125.298 186.927C128.999 186.927 132.008 183.922 132.008 180.225C132.008 176.528 128.999 173.523 125.298 173.523ZM125.298 185.538C122.366 185.538 119.984 183.155 119.984 180.23C119.984 177.306 122.371 174.922 125.298 174.922C128.226 174.922 130.612 177.306 130.612 180.23C130.612 183.155 128.226 185.538 125.298 185.538Z" fill="#D9D9D9"/>
<path d="M127.281 180.227C127.281 179.131 126.391 178.242 125.294 178.242C124.197 178.242 123.307 179.131 123.307 180.227C123.307 181.323 124.197 182.212 125.294 182.212C126.391 182.212 127.281 181.323 127.281 180.227Z" fill="#D9D9D9"/>
<path d="M-92.266 423.406H-155.246V424.805H-92.8475L-72.5873 445.042H49.125V443.643H-72.0059L-92.266 423.406Z" fill="#D9D9D9"/>
<path d="M55.2748 437.641C51.5737 437.641 48.5653 440.646 48.5653 444.343C48.5653 448.039 51.5737 451.044 55.2748 451.044C58.9759 451.044 61.9844 448.039 61.9844 444.343C61.9844 440.646 58.9759 437.641 55.2748 437.641ZM55.2748 449.656C52.3422 449.656 49.9608 447.272 49.9608 444.348C49.9608 441.423 52.3473 439.04 55.2748 439.04C58.2023 439.04 60.5889 441.423 60.5889 444.348C60.5889 447.272 58.2023 449.656 55.2748 449.656Z" fill="#D9D9D9"/>
<path d="M57.2578 444.344C57.2578 443.248 56.3679 442.359 55.2707 442.359C54.1735 442.359 53.2837 443.248 53.2837 444.344C53.2837 445.44 54.1735 446.329 55.2707 446.329C56.3679 446.329 57.2578 445.44 57.2578 444.344Z" fill="#D9D9D9"/>
<path d="M-56.391 39.9688H-119.366V41.3627H-56.9674L-36.7073 61.5996H85V60.2057H-36.1309L-56.391 39.9688Z" fill="#D9D9D9"/>
<path d="M91.1498 54.2031C87.4487 54.2031 84.4403 57.2081 84.4403 60.905C84.4403 64.6019 87.4487 67.6069 91.1498 67.6069C94.8509 67.6069 97.8594 64.6019 97.8594 60.905C97.8594 57.2081 94.8509 54.2031 91.1498 54.2031ZM91.1498 66.218C88.2172 66.218 85.8358 63.8342 85.8358 60.91C85.8358 57.9859 88.2223 55.6021 91.1498 55.6021C94.0773 55.6021 96.4639 57.9859 96.4639 60.91C96.4639 63.8342 94.0773 66.218 91.1498 66.218Z" fill="#D9D9D9"/>
<path d="M93.1328 60.9067C93.1328 59.8107 92.2429 58.9219 91.1457 58.9219C90.0485 58.9219 89.1586 59.8107 89.1586 60.9067C89.1586 62.0026 90.0485 62.8915 91.1457 62.8915C92.2429 62.8915 93.1328 62.0026 93.1328 60.9067Z" fill="#D9D9D9"/>
<path d="M-20.7614 339.727H-85.2227V341.12H-21.3378L-1.07768 361.357H98.0234V359.963H-0.501274L-20.7614 339.727Z" fill="#D9D9D9"/>
<path d="M-21.0475 339.727H126.219V341.12H-21.0475V339.727Z" fill="#D9D9D9"/>
<path d="M104.04 353.953C100.339 353.953 97.3309 356.963 97.3309 360.66C97.3309 364.357 100.339 367.362 104.04 367.362C107.742 367.362 110.75 364.357 110.75 360.66C110.75 356.963 107.742 353.953 104.04 353.953ZM104.04 365.968C101.108 365.968 98.7264 363.584 98.7264 360.66C98.7264 357.736 101.113 355.352 104.04 355.352C106.968 355.352 109.354 357.736 109.354 360.66C109.354 363.584 106.968 365.968 104.04 365.968Z" fill="#D9D9D9"/>
<path d="M106.023 360.664C106.023 359.569 105.134 358.68 104.036 358.68C102.939 358.68 102.049 359.569 102.049 360.664C102.049 361.76 102.939 362.649 104.036 362.649C105.134 362.649 106.023 361.76 106.023 360.664Z" fill="#D9D9D9"/>
<path d="M133.08 333.719C129.378 333.719 126.37 336.729 126.37 340.426C126.37 344.123 129.378 347.128 133.08 347.128C136.781 347.128 139.789 344.123 139.789 340.426C139.789 336.729 136.781 333.719 133.08 333.719ZM133.08 345.729C130.147 345.729 127.766 343.35 127.766 340.421C127.766 337.491 130.152 335.113 133.08 335.113C136.007 335.113 138.394 337.496 138.394 340.421C138.394 343.345 136.007 345.729 133.08 345.729Z" fill="#D9D9D9"/>
<path d="M135.062 340.422C135.062 339.326 134.173 338.438 133.075 338.438C131.978 338.438 131.088 339.326 131.088 340.422C131.088 341.518 131.978 342.407 133.075 342.407C134.173 342.407 135.062 341.518 135.062 340.422Z" fill="#D9D9D9"/>
<path d="M-20.7535 27.7871H-85.2148V26.3932H-21.33L-1.06987 6.15625H98.0312V7.55016H-0.493462L-20.7535 27.7871Z" fill="#D9D9D9"/>
<path d="M-21.0475 26.3906H126.219V27.7845H-21.0475V26.3906Z" fill="#D9D9D9"/>
<path d="M110.758 6.85031C110.758 3.15342 107.749 0.148438 104.048 0.148438C100.347 0.148438 97.3387 3.15342 97.3387 6.85031C97.3387 10.5472 100.347 13.5572 104.048 13.5572C107.749 13.5572 110.758 10.5472 110.758 6.85031ZM109.362 6.85031C109.362 9.77954 106.976 12.1583 104.048 12.1583C101.121 12.1583 98.7342 9.77449 98.7342 6.85031C98.7342 3.92613 101.121 1.54234 104.048 1.54234C106.976 1.54234 109.362 3.92613 109.362 6.85031Z" fill="#D9D9D9"/>
<path d="M106.031 6.85199C106.031 7.94793 105.141 8.8368 104.044 8.8368C102.947 8.8368 102.057 7.94793 102.057 6.85199C102.057 5.75606 102.947 4.86719 104.044 4.86719C105.141 4.86719 106.031 5.75606 106.031 6.85199Z" fill="#D9D9D9"/>
<path d="M139.797 27.0847C139.797 23.3878 136.788 20.3828 133.087 20.3828C129.386 20.3828 126.378 23.3878 126.378 27.0847C126.378 30.7816 129.386 33.7916 133.087 33.7916C136.788 33.7916 139.797 30.7816 139.797 27.0847ZM138.401 27.0847C138.401 30.0139 136.015 32.3926 133.087 32.3926C130.16 32.3926 127.773 30.0089 127.773 27.0847C127.773 24.1605 130.16 21.7767 133.087 21.7767C136.015 21.7767 138.401 24.1555 138.401 27.0847Z" fill="#D9D9D9"/>
<path d="M135.07 27.0864C135.07 28.1823 134.18 29.0712 133.083 29.0712C131.986 29.0712 131.096 28.1823 131.096 27.0864C131.096 25.9904 131.986 25.1016 133.083 25.1016C134.18 25.1016 135.07 25.9904 135.07 27.0864Z" fill="#D9D9D9"/>
<path d="M98.0312 207.938H33.57L13.3099 228.169H-85.2148V229.568H13.8863L34.1464 209.331H98.0312V207.938Z" fill="#D9D9D9"/>
<path d="M104.04 201.93C100.339 201.93 97.3309 204.94 97.3309 208.637C97.3309 212.333 100.339 215.338 104.04 215.338C107.742 215.338 110.75 212.333 110.75 208.637C110.75 204.94 107.742 201.93 104.04 201.93ZM104.04 213.945C101.108 213.945 98.7264 211.566 98.7264 208.637C98.7264 205.707 101.113 203.329 104.04 203.329C106.968 203.329 109.354 205.712 109.354 208.637C109.354 211.561 106.968 213.945 104.04 213.945Z" fill="#D9D9D9"/>
<path d="M106.023 208.641C106.023 207.545 105.134 206.656 104.036 206.656C102.939 206.656 102.049 207.545 102.049 208.641C102.049 209.737 102.939 210.626 104.036 210.626C105.134 210.626 106.023 209.737 106.023 208.641Z" fill="#D9D9D9"/>
</g>
<defs>
<clipPath id="clip0_4510_7905">
<rect width="140" height="451" fill="white" transform="translate(1300)"/>
</clipPath>
<clipPath id="clip1_4510_7905">
<rect width="140" height="451" fill="white" transform="matrix(-1 0 0 1 140 0)"/>
</clipPath>
</defs>
</svg>
