<svg width="329" height="32" viewBox="0 0 329 32" fill="none" xmlns="http://www.w3.org/2000/svg">
<path d="M329 16H171.579" stroke="#CCCCCC"/>
<path d="M-0.000528336 9.09765L20.9571 23.9995L29.7422 23.9995L8.78577 9.09766L-0.000528336 9.09765Z" fill="#CBCBCB"/>
<path d="M14.8667 9.09765L35.8243 23.9995L44.6094 23.9995L23.653 9.09766L14.8667 9.09765Z" fill="#CBCBCB"/>
<path d="M29.7417 9.09765L50.6981 23.9995L59.4844 23.9995L38.528 9.09766L29.7417 9.09765Z" fill="#CBCBCB"/>
<path d="M44.6128 9.09765L65.5692 23.9995L74.3555 23.9995L53.3991 9.09766L44.6128 9.09765Z" fill="#CBCBCB"/>
<path d="M59.4839 9.09765L80.4403 23.9995L89.2266 23.9995L68.2701 9.09766L59.4839 9.09765Z" fill="#CBCBCB"/>
<path d="M74.3589 9.09765L95.3153 23.9995L104.102 23.9995L83.1439 9.09766L74.3589 9.09765Z" fill="#CBCBCB"/>
<path d="M89.2261 9.09765L110.182 23.9995L118.969 23.9995L98.0111 9.09766L89.2261 9.09765Z" fill="#CBCBCB"/>
<path d="M104.097 9.09765L125.054 23.9995L133.84 23.9995L112.882 9.09766L104.097 9.09765Z" fill="#CBCBCB"/>
<path d="M118.968 9.09765L139.925 23.9995L148.711 23.9995L127.753 9.09766L118.968 9.09765Z" fill="#CBCBCB"/>
<path d="M133.841 9.09765L154.797 23.9995L163.582 23.9995L142.626 9.09766L133.841 9.09765Z" fill="#CBCBCB"/>
</svg>
