<svg width="16" height="18" viewBox="0 0 16 18" fill="none" xmlns="http://www.w3.org/2000/svg">
<g clip-path="url(#clip0_4454_71989)">
<path d="M15.9678 7.84598L12.7402 7.66391L14.594 5.29701L12.1168 2.81977L9.70575 4.9715L9.34162 1.99219H5.83817L5.6561 5.21977L3.2892 3.36598L0.811961 5.84322L2.96369 8.25426L-0.015625 8.61839V12.1218L3.21196 12.3039L1.35817 14.6708L3.83541 17.148L6.24644 14.9963L6.61058 17.9756H10.114L10.2961 14.748L12.663 16.6018L15.1402 14.1246L12.9885 11.7136L15.9678 11.3494V7.84598ZM7.97886 13.5453C6.0092 13.5453 4.41472 11.9508 4.41472 9.98115C4.41472 8.0115 6.0092 6.41702 7.97886 6.41702C9.94851 6.41702 11.543 8.0115 11.543 9.98115C11.543 11.9508 9.94851 13.5453 7.97886 13.5453Z" fill="url(#paint0_linear_4454_71989)"/>
<path d="M7.97039 6.42188C6.00073 6.42188 4.40625 8.01636 4.40625 9.98601C4.40625 11.9557 6.00073 13.5502 7.97039 13.5502C9.94004 13.5502 11.5345 11.9557 11.5345 9.98601C11.5345 8.01636 9.94004 6.42188 7.97039 6.42188ZM7.97039 12.077C6.81728 12.077 5.87935 11.1391 5.87935 9.98601C5.87935 8.83291 6.81728 7.89498 7.97039 7.89498C9.12349 7.89498 10.0614 8.83291 10.0614 9.98601C10.0614 11.1391 9.12349 12.077 7.97039 12.077Z" fill="#969696"/>
</g>
<defs>
<linearGradient id="paint0_linear_4454_71989" x1="7.97334" y1="-1.95816" x2="7.97334" y2="24.2874" gradientUnits="userSpaceOnUse">
<stop offset="0.54" stop-color="#FF7928"/>
<stop offset="0.95" stop-color="white"/>
</linearGradient>
<clipPath id="clip0_4454_71989">
<rect width="16" height="16" fill="white" transform="translate(0 2)"/>
</clipPath>
</defs>
</svg>
