<svg width="16" height="18" viewBox="0 0 16 18" fill="none" xmlns="http://www.w3.org/2000/svg">
<g clip-path="url(#clip0_4454_72706)">
<path d="M15.5065 12.3988H14.6755V9.24529H10.9129V8.22852H8.59033V9.24529H4.82775V12.3988H3.92969V14.4375H4.82775V17.8801H14.6755V14.4375H15.5065V12.3988ZM13.3594 16.6775H6.19033V10.3963H13.3594V16.6827V16.6775Z" fill="url(#paint0_linear_4454_72706)"/>
<path d="M10.9124 14.748H8.58984V15.548H10.9124V14.748Z" fill="#969696"/>
<path d="M12.3384 12.3984H10.7539V13.983H12.3384V12.3984Z" fill="#FF7928"/>
<path d="M9.04936 12.3984H7.46484V13.983H9.04936V12.3984Z" fill="#FF7928"/>
<path d="M4.34642 10.3713C4.34642 10.3713 4.29996 10.3765 4.27416 10.3765C3.11287 10.3765 2.17351 9.43711 2.17351 8.27582C2.17351 7.11453 3.11287 6.17518 4.27416 6.17518C5.43545 6.17518 6.3748 7.11453 6.3748 8.27582C6.3748 8.50292 6.32835 8.71453 6.26642 8.91582H7.42771C7.44319 8.84872 7.45867 8.78679 7.46384 8.71969L8.16061 8.63195V7.73389L7.43287 7.63066C7.33996 7.17131 7.14384 6.74808 6.87545 6.38163L7.32448 5.80872L6.68964 5.17389L6.09093 5.61776C5.71416 5.35969 5.28577 5.18421 4.82126 5.10163L4.73351 4.39453H3.83545L3.73222 5.09647C3.25222 5.17905 2.80319 5.36485 2.42125 5.63324L1.90513 5.23066L1.27029 5.8655L1.65738 6.38679C1.36835 6.78421 1.17222 7.24356 1.08964 7.74937L0.496094 7.82163V8.71969L1.08964 8.80743C1.17738 9.32356 1.38384 9.7984 1.68319 10.201L1.33222 10.65L1.96706 11.2849L2.43674 10.9339C2.84964 11.2178 3.32964 11.4087 3.84577 11.4758L3.91803 12.059H4.33609V10.3713H4.34642Z" fill="url(#paint1_linear_4454_72706)"/>
<path d="M6.644 4.94659C6.644 4.94659 6.644 4.91563 6.644 4.90014C6.644 4.16208 7.24271 3.56853 7.97561 3.56853C8.70852 3.56853 9.30723 4.16724 9.30723 4.90014C9.30723 5.68982 8.564 6.26788 7.97561 6.23175C7.78465 6.22143 7.62465 6.14401 7.50594 6.07175C7.38207 6.25756 7.25303 6.43821 7.124 6.62401C7.17561 6.67046 7.23755 6.71692 7.31497 6.76337C7.45432 6.84595 7.58336 6.89756 7.69174 6.92853L7.74852 7.3724H8.32142L8.38852 6.90788C8.68271 6.84595 8.9511 6.72724 9.18336 6.55692L9.54981 6.84079L9.95239 6.43821L9.66852 6.06143C9.83368 5.82401 9.94207 5.55046 9.99368 5.25627L10.4427 5.1995V4.62659L9.99884 4.56466C9.94723 4.26014 9.82852 3.97627 9.6582 3.73369L9.91626 3.40853L9.51368 3.00595L9.18336 3.25369C8.93045 3.07304 8.63626 2.94401 8.32142 2.8924L8.27497 2.51562H7.70207L7.64529 2.8924C7.31497 2.94401 7.01561 3.07821 6.76271 3.26917L6.47884 3.04724L6.07626 3.44982L6.2982 3.74917C6.11755 4.0124 5.99884 4.31692 5.95755 4.64208L5.58594 4.68853C5.5911 4.83821 5.59626 4.98788 5.60658 5.13756L6.05045 5.27175C6.05045 5.27175 6.63884 4.94659 6.65949 4.95692L6.644 4.94659Z" fill="url(#paint2_linear_4454_72706)"/>
</g>
<defs>
<linearGradient id="paint0_linear_4454_72706" x1="6.30388" y1="9.21432" x2="14.4071" y2="19.4337" gradientUnits="userSpaceOnUse">
<stop offset="0.7" stop-color="#FF7928"/>
<stop offset="1" stop-color="white"/>
</linearGradient>
<linearGradient id="paint1_linear_4454_72706" x1="1.93609" y1="5.21002" x2="6.19932" y2="10.5829" gradientUnits="userSpaceOnUse">
<stop offset="0.7" stop-color="#969696"/>
<stop offset="1" stop-color="white"/>
</linearGradient>
<linearGradient id="paint2_linear_4454_72706" x1="5.68916" y1="2.1595" x2="10.4117" y2="7.01627" gradientUnits="userSpaceOnUse">
<stop offset="0.69" stop-color="#969696"/>
<stop offset="1" stop-color="white"/>
</linearGradient>
<clipPath id="clip0_4454_72706">
<rect width="16" height="16" fill="white" transform="translate(0 2)"/>
</clipPath>
</defs>
</svg>
