<svg width="129" height="158" viewBox="0 0 129 158" fill="none" xmlns="http://www.w3.org/2000/svg">
<path d="M121.142 113.992H118.273V125.139H121.142V113.992Z" fill="#F37021"/>
<path d="M123.868 135.791L117.483 129.414V149.131H105.381V149.161H70.1953L76.099 155.047H114.409L116.619 157.281H128.711V150.052L123.868 145.223V135.791Z" fill="#F37021"/>
<path d="M2.47596 151.18C1.10923 151.18 0 152.286 0 153.649C0 155.011 1.10923 156.117 2.47596 156.117C3.84269 156.117 4.95192 155.011 4.95192 153.649C4.95192 152.286 3.84269 151.18 2.47596 151.18ZM2.47596 155.156C1.64404 155.156 0.963969 154.478 0.963969 153.649C0.963969 152.819 1.64404 152.141 2.47596 152.141C3.30789 152.141 3.98794 152.819 3.98794 153.649C3.98794 154.478 3.30789 155.156 2.47596 155.156Z" fill="#F37021"/>
<path d="M9.8744 151.18C8.50767 151.18 7.39844 152.286 7.39844 153.649C7.39844 155.011 8.50767 156.117 9.8744 156.117C11.2411 156.117 12.3504 155.011 12.3504 153.649C12.3504 152.286 11.2411 151.18 9.8744 151.18ZM9.8744 155.156C9.04248 155.156 8.36243 154.478 8.36243 153.649C8.36243 152.819 9.04248 152.141 9.8744 152.141C10.7063 152.141 11.3864 152.819 11.3864 153.649C11.3864 154.478 10.7063 155.156 9.8744 155.156Z" fill="#F37021"/>
<path d="M17.265 151.18C15.8983 151.18 14.7891 152.286 14.7891 153.649C14.7891 155.011 15.8983 156.117 17.265 156.117C18.6318 156.117 19.741 155.011 19.741 153.649C19.741 152.286 18.6318 151.18 17.265 151.18ZM17.265 155.156C16.4331 155.156 15.753 154.478 15.753 153.649C15.753 152.819 16.4331 152.141 17.265 152.141C18.0969 152.141 18.777 152.819 18.777 153.649C18.777 154.478 18.0969 155.156 17.265 155.156Z" fill="#F37021"/>
<path d="M24.6737 151.664C23.571 151.664 22.6797 152.553 22.6797 153.652C22.6797 154.752 23.571 155.641 24.6737 155.641C25.7763 155.641 26.6676 154.752 26.6676 153.652C26.6676 152.553 25.7763 151.664 24.6737 151.664Z" fill="#F37021"/>
<path d="M32.0799 151.664C30.9773 151.664 30.0859 152.553 30.0859 153.652C30.0859 154.752 30.9773 155.641 32.0799 155.641C33.1825 155.641 34.0739 154.752 34.0739 153.652C34.0739 152.553 33.1825 151.664 32.0799 151.664Z" fill="#F37021"/>
<path d="M39.4783 151.664C38.3757 151.664 37.4844 152.553 37.4844 153.652C37.4844 154.752 38.3757 155.641 39.4783 155.641C40.581 155.641 41.4723 154.752 41.4723 153.652C41.4723 152.553 40.581 151.664 39.4783 151.664Z" fill="#F37021"/>
<path d="M46.8744 151.18C45.5077 151.18 44.3984 152.286 44.3984 153.649C44.3984 155.011 45.5077 156.117 46.8744 156.117C48.2411 156.117 49.3504 155.011 49.3504 153.649C49.3504 152.286 48.2411 151.18 46.8744 151.18ZM46.8744 155.156C46.0425 155.156 45.3624 154.478 45.3624 153.649C45.3624 152.819 46.0425 152.141 46.8744 152.141C47.7063 152.141 48.3864 152.819 48.3864 153.649C48.3864 154.478 47.7063 155.156 46.8744 155.156Z" fill="#F37021"/>
<path d="M54.2728 151.18C52.9061 151.18 51.7969 152.286 51.7969 153.649C51.7969 155.011 52.9061 156.117 54.2728 156.117C55.6396 156.117 56.7488 155.011 56.7488 153.649C56.7488 152.286 55.6396 151.18 54.2728 151.18ZM54.2728 155.156C53.4409 155.156 52.7609 154.478 52.7609 153.649C52.7609 152.819 53.4409 152.141 54.2728 152.141C55.1048 152.141 55.7848 152.819 55.7848 153.649C55.7848 154.478 55.1048 155.156 54.2728 155.156Z" fill="#F37021"/>
<path d="M61.6713 151.18C60.3045 151.18 59.1953 152.286 59.1953 153.649C59.1953 155.011 60.3045 156.117 61.6713 156.117C63.038 156.117 64.1472 155.011 64.1472 153.649C64.1472 152.286 63.038 151.18 61.6713 151.18ZM61.6713 155.156C60.8394 155.156 60.1593 154.478 60.1593 153.649C60.1593 152.819 60.8394 152.141 61.6713 152.141C62.5032 152.141 63.1832 152.819 63.1832 153.649C63.1832 154.478 62.5032 155.156 61.6713 155.156Z" fill="#F37021"/>
<path d="M124.266 46.9275L128.195 43.039V14.3496L113.805 0V33.0089L117.852 37.0347V99.1933L124.266 92.758V46.9275Z" fill="#F37021"/>
</svg>
