<svg width="17" height="16" viewBox="0 0 17 16" fill="none" xmlns="http://www.w3.org/2000/svg">
<g clip-path="url(#clip0_4027_11025)">
<path d="M13.6255 1.00977C12.6586 1.00977 11.8711 1.79292 11.8711 2.76421C11.8711 3.34611 12.1555 3.858 12.5886 4.17739C12.8774 4.39177 13.2361 4.51865 13.6255 4.51865C14.0149 4.51865 14.3693 4.39177 14.6625 4.17739C15.0956 3.858 15.38 3.34611 15.38 2.76421C15.38 1.7973 14.5968 1.00977 13.6255 1.00977Z" fill="url(#paint0_linear_4027_11025)"/>
<path d="M15.8002 5.56059C15.6689 5.28058 15.4808 5.03119 15.2489 4.82994C15.0739 4.68118 14.877 4.5543 14.6626 4.4668C14.3739 4.68118 14.0151 4.80806 13.6257 4.80806C13.2363 4.80806 12.8819 4.68118 12.5888 4.4668C11.8056 4.78618 11.25 5.55621 11.25 6.4575V8.91635C11.25 8.9951 11.3113 9.05635 11.39 9.05635H15.8571C15.9358 9.05635 15.9971 8.9951 15.9971 8.91635V6.4575C15.9971 6.13374 15.9227 5.83185 15.7958 5.55621L15.8002 5.56059Z" fill="url(#paint1_linear_4027_11025)"/>
<path d="M2.37554 1.00977C1.40425 1.00977 0.621094 1.79292 0.621094 2.76421C0.621094 3.34611 0.90548 3.858 1.33862 4.17739C1.62738 4.39177 1.98615 4.51865 2.37554 4.51865C2.76493 4.51865 3.11932 4.39177 3.41245 4.17739C3.84559 3.858 4.12998 3.34611 4.12998 2.76421C4.12998 1.79292 3.34245 1.00977 2.37554 1.00977Z" fill="url(#paint2_linear_4027_11025)"/>
<path d="M4.55018 5.56059C4.41892 5.28058 4.23079 5.03119 3.99891 4.82994C3.8239 4.68118 3.62702 4.5543 3.41263 4.4668C3.12387 4.68118 2.76511 4.80806 2.37572 4.80806C1.98633 4.80806 1.63194 4.68118 1.3388 4.4668C0.555647 4.78618 0 5.55621 0 6.4575V8.91635C0 8.9951 0.0612524 9.05635 0.140005 9.05635H4.61143C4.69018 9.05635 4.75144 8.9951 4.75144 8.91635V6.4575C4.75144 6.13374 4.67706 5.83185 4.55018 5.55621V5.56059Z" fill="url(#paint3_linear_4027_11025)"/>
<path d="M8.08479 2.86523C6.60161 2.86523 5.39844 4.06841 5.39844 5.55159C5.39844 6.43975 5.83158 7.22728 6.49661 7.7173C6.94287 8.04544 7.48977 8.24232 8.08479 8.24232C8.67982 8.24232 9.22671 8.04544 9.67298 7.7173C10.338 7.22728 10.7711 6.44412 10.7711 5.55159C10.7711 4.06841 9.56798 2.86523 8.08479 2.86523Z" fill="url(#paint4_linear_4027_11025)"/>
<path d="M8.41799 8.61328H7.76172V9.41831H8.41799V8.61328Z" fill="#FF7928"/>
<path d="M8.54675 10.8937L8.08736 11.5281L7.63672 10.9287L7.7636 9.49805H8.4155L8.54675 10.8937Z" fill="#FF7928"/>
<path d="M11.4228 9.83733C11.2215 9.40419 10.9328 9.02792 10.5784 8.72166C10.3115 8.49415 10.0096 8.30165 9.68145 8.16602C9.59395 8.73916 9.39707 9.53544 8.95518 10.3886C8.67954 10.9224 8.3689 11.3511 8.09327 11.6793C7.80451 11.3905 7.45012 10.9749 7.14823 10.4105C6.66696 9.51357 6.54008 8.67354 6.50508 8.16602C5.30191 8.65603 4.45312 9.83733 4.45312 11.2199V15.2013H11.729V11.2199C11.729 10.7255 11.6153 10.2617 11.4228 9.84171V9.83733Z" fill="url(#paint5_linear_4027_11025)"/>
</g>
<defs>
<linearGradient id="paint0_linear_4027_11025" x1="12.3874" y1="1.52166" x2="14.8681" y2="4.00238" gradientUnits="userSpaceOnUse">
<stop stop-color="white"/>
<stop offset="0.26" stop-color="#FF9D62"/>
<stop offset="0.49" stop-color="#FF7928"/>
</linearGradient>
<linearGradient id="paint1_linear_4027_11025" x1="11.5869" y1="5.23683" x2="15.6645" y2="9.31449" gradientUnits="userSpaceOnUse">
<stop stop-color="white"/>
<stop offset="0.26" stop-color="#FF9D62"/>
<stop offset="0.49" stop-color="#FF7928"/>
</linearGradient>
<linearGradient id="paint2_linear_4027_11025" x1="1.13736" y1="1.52166" x2="3.61371" y2="4.00238" gradientUnits="userSpaceOnUse">
<stop stop-color="white"/>
<stop offset="0.25" stop-color="#FFA066"/>
<stop offset="0.49" stop-color="#FF7928"/>
</linearGradient>
<linearGradient id="paint3_linear_4027_11025" x1="0.336888" y1="5.23683" x2="4.41455" y2="9.31449" gradientUnits="userSpaceOnUse">
<stop stop-color="white"/>
<stop offset="0.25" stop-color="#FFA066"/>
<stop offset="0.49" stop-color="#FF7928"/>
</linearGradient>
<linearGradient id="paint4_linear_4027_11025" x1="5.12718" y1="2.5896" x2="12.2018" y2="9.66425" gradientUnits="userSpaceOnUse">
<stop offset="0.02" stop-color="white"/>
<stop offset="0.26" stop-color="#FF9D62"/>
<stop offset="0.49" stop-color="#FF7928"/>
</linearGradient>
<linearGradient id="paint5_linear_4027_11025" x1="4.93439" y1="9.36919" x2="11.2434" y2="15.6782" gradientUnits="userSpaceOnUse">
<stop stop-color="white"/>
<stop offset="0.11" stop-color="#FFB181"/>
<stop offset="0.27" stop-color="#FF8236"/>
<stop offset="0.49" stop-color="#FF7928"/>
</linearGradient>
<clipPath id="clip0_4027_11025">
<rect width="16" height="14.1843" fill="white" transform="translate(0 1.00977)"/>
</clipPath>
</defs>
</svg>
