<svg width="48" height="48" viewBox="0 0 48 48" fill="none" xmlns="http://www.w3.org/2000/svg">
<g clip-path="url(#clip0_4449_9729)">
<path d="M46.3802 17.9518L37.3221 17.4409L42.5247 10.7983L35.5725 3.84602L28.806 9.88473L27.7841 1.52344H17.9518L17.4409 10.5815L10.7983 5.37892L3.84602 12.3312L9.88473 19.0976L1.52344 20.1196V29.9518L10.5815 30.4628L5.37892 37.1054L12.3312 44.0576L19.0976 38.0189L20.1196 46.3802H29.9518L30.4628 37.3221L37.1054 42.5247L44.0576 35.5725L38.0189 28.806L46.3802 27.7841V17.9518ZM23.9596 33.9467C18.4318 33.9467 13.957 29.4718 13.957 23.9441C13.957 18.4163 18.4318 13.9415 23.9596 13.9415C29.4873 13.9415 33.9621 18.4163 33.9621 23.9441C33.9621 29.4718 29.4873 33.9467 23.9596 33.9467Z" fill="url(#paint0_linear_4449_9729)"/>
<path d="M23.9518 13.959C18.4241 13.959 13.9492 18.4338 13.9492 23.9616C13.9492 29.4893 18.4241 33.9641 23.9518 33.9641C29.4795 33.9641 33.9544 29.4893 33.9544 23.9616C33.9544 18.4338 29.4795 13.959 23.9518 13.959ZM23.9518 29.83C20.7157 29.83 18.0834 27.1977 18.0834 23.9616C18.0834 20.7254 20.7157 18.0932 23.9518 18.0932C27.1879 18.0932 29.8202 20.7254 29.8202 23.9616C29.8202 27.1977 27.1879 29.83 23.9518 29.83Z" fill="#969696"/>
</g>
<defs>
<linearGradient id="paint0_linear_4449_9729" x1="23.9441" y1="-9.56301" x2="23.9441" y2="64.0938" gradientUnits="userSpaceOnUse">
<stop offset="0.54" stop-color="#FF7928"/>
<stop offset="0.95" stop-color="white"/>
</linearGradient>
<clipPath id="clip0_4449_9729">
<rect width="44.8568" height="44.8568" fill="white" transform="translate(1.52344 1.52344)"/>
</clipPath>
</defs>
</svg>
