<svg width="615" height="312" viewBox="0 0 615 312" fill="none" xmlns="http://www.w3.org/2000/svg">
<g opacity="0.2">
<path d="M441.726 276.606L454.82 295.554L409.336 313.518L415.827 320.393L431.867 328.412L447.144 343.689L460.51 359.345L450.962 373.095L445.233 389.134L448.668 408.612L460.505 398.303C460.505 398.303 456.687 388.755 463.94 379.969C471.198 371.183 482.274 373.095 482.274 373.095L499.08 370.805L515.119 376.534C515.119 376.534 521.231 386.465 519.703 388.755C518.175 391.045 513.591 415.108 513.591 415.108L512.062 422.366L477.69 464.758L471.198 489.962C471.198 489.962 554.17 435.968 564.862 356.146C568.975 325.44 572.142 302.389 570.654 279.96C569.906 268.657 566.422 253.861 564.417 243.427C561.41 227.78 559.075 217.63 551.496 202.438C545.46 190.333 530.552 183.36 517.159 185.262C502.292 187.374 483.767 188.319 477.694 181.377C467.001 169.156 460.149 180.29 460.608 184.616C461.419 192.257 478.059 209.927 478.059 209.927C481.022 212.934 480.318 217.933 476.638 220.005C470.762 223.315 444.569 239.805 440.906 245.743C435.025 255.278 435.351 267.392 441.722 276.61L441.726 276.606Z" fill="url(#paint0_linear_4449_10155)"/>
<path d="M331.618 65.0888C331.618 65.0888 314.434 70.4352 309.087 74.6365C303.741 78.8379 325.893 69.6733 331.618 74.6365C337.347 79.5998 356.443 75.7815 356.443 75.7815C356.443 75.7815 372.103 84.5674 377.45 77.3097C382.796 70.052 391.582 72.7252 391.582 72.7252C391.582 72.7252 410.678 79.5998 406.859 80.3616C403.041 81.1235 395.022 80.3616 395.022 80.3616L395.783 89.9094L403.803 97.929H426.334L434.353 103.659H456.505V95.6389L449.247 84.1798L477.508 103.659C477.508 103.659 422.511 50.1901 377.45 45.2269L332.384 40.2637L339.642 48.2833L365.229 54.7747L369.43 62.7943L343.077 64.3224L331.618 65.0843V65.0888Z" fill="url(#paint1_linear_4449_10155)"/>
<path d="M118.707 494.16C118.707 494.16 56.8363 450.622 32.0156 347.887C32.0156 347.887 34.6888 284.492 41.1802 281.436C47.6716 278.379 47.2929 290.222 47.2929 290.222L62.5703 287.932C62.5703 287.932 59.5139 298.241 62.9534 303.971C66.3885 309.7 75.1744 309.317 75.1744 309.317C75.1744 309.317 94.6531 313.902 98.4713 318.865C102.289 323.828 108.402 326.123 105.729 334.904C103.056 343.69 107.257 363.164 107.257 363.164C107.257 363.164 116.043 395.626 121.389 400.21C126.736 404.795 114.515 416.633 114.515 416.633L109.552 435.728C109.552 435.728 108.79 451.384 115.281 454.062C121.773 456.735 125.591 462.848 122.918 465.138C120.244 467.428 114.132 467.428 118.716 494.164L118.707 494.16Z" fill="url(#paint2_linear_4449_10155)"/>
<path d="M180.823 60.3126C180.823 60.3126 125.577 90.6089 118.448 103.529C111.32 116.45 106.419 132.489 106.419 139.617C106.419 146.746 101.518 141.4 110.429 133.826C119.339 126.251 124.686 123.133 126.913 133.826C129.141 144.518 134.933 156.548 139.834 152.092C144.735 147.637 140.279 151.647 139.834 144.518C139.388 137.39 139.834 130.707 139.834 130.707L150.527 120.014C150.527 120.014 147.408 116.45 159.883 124.469C172.358 132.489 179.932 132.489 177.704 128.034C175.476 123.578 157.21 120.014 166.12 115.113C175.031 110.212 175.476 104.42 195.525 106.648C215.574 108.876 225.376 117.341 229.386 116.004C233.396 114.668 240.97 107.094 232.505 103.529C224.04 99.9651 216.02 98.1829 208.891 93.2821C201.763 88.3812 199.981 84.3714 200.426 81.6982C200.872 79.025 203.991 75.4608 206.218 74.1242C208.446 72.7876 215.129 65.659 216.465 64.768C217.802 63.8769 221.366 58.976 221.812 57.6394C222.257 56.3028 228.94 55.4118 229.386 52.2931C229.831 49.1743 238.297 42.9369 238.297 42.9369V40.2637C238.297 40.2637 192.852 53.1841 180.823 60.3126Z" fill="url(#paint3_linear_4449_10155)"/>
<path d="M492.81 496.146C385.143 600.214 216.219 600.214 108.552 496.146C4.49316 388.492 4.49316 219.595 108.552 111.941C216.219 7.87374 385.143 7.87374 492.81 111.941C596.869 219.595 596.869 388.492 492.81 496.146Z" stroke="#757575" stroke-width="0.308613" stroke-miterlimit="10"/>
<path d="M509.325 130.066C388.603 37.1943 212.765 37.1943 92.043 130.066" stroke="#757575" stroke-width="0.308613" stroke-miterlimit="10"/>
<path d="M524.163 149.629C391.261 68.181 210.094 68.181 77.1914 149.629" stroke="#757575" stroke-width="0.308613" stroke-miterlimit="10"/>
<path d="M537.231 170.514C392.994 100.704 208.366 100.704 64.1289 170.514" stroke="#757575" stroke-width="0.308613" stroke-miterlimit="10"/>
<path d="M548.402 192.617C393.78 134.68 207.583 134.68 52.9609 192.617" stroke="#757575" stroke-width="0.308613" stroke-miterlimit="10"/>
<path d="M557.562 215.816C393.686 170.069 207.677 170.069 43.8008 215.816" stroke="#757575" stroke-width="0.308613" stroke-miterlimit="10"/>
<path d="M564.602 240.005C392.925 206.853 208.439 206.853 36.7617 240.005" stroke="#757575" stroke-width="0.308613" stroke-miterlimit="10"/>
<path d="M569.408 265.066C391.948 244.936 209.417 244.936 31.957 265.066" stroke="#757575" stroke-width="0.308613" stroke-miterlimit="10"/>
<path d="M571.865 290.885C391.273 284.127 210.088 284.127 29.5 290.885" stroke="#757575" stroke-width="0.308613" stroke-miterlimit="10"/>
<path d="M121.806 508.51C26.0074 391.121 26.0074 216.971 121.806 99.582" stroke="#757575" stroke-width="0.308613" stroke-miterlimit="10"/>
<path d="M135.86 519.977C48.4424 393.321 48.4424 214.769 135.86 88.1133" stroke="#757575" stroke-width="0.308613" stroke-miterlimit="10"/>
<path d="M150.671 530.501C71.745 395.05 71.745 213.037 150.671 77.5859" stroke="#757575" stroke-width="0.308613" stroke-miterlimit="10"/>
<path d="M166.196 540.04C95.8824 396.293 95.8824 211.789 166.196 68.0469" stroke="#757575" stroke-width="0.308613" stroke-miterlimit="10"/>
<path d="M182.388 548.549C120.811 397.01 120.806 211.08 182.388 59.541" stroke="#757575" stroke-width="0.308613" stroke-miterlimit="10"/>
<path d="M199.198 555.976C146.523 397.192 146.523 210.888 199.198 52.1094" stroke="#757575" stroke-width="0.308613" stroke-miterlimit="10"/>
<path d="M216.585 562.286C173.003 396.944 173.003 211.148 216.585 45.8066" stroke="#757575" stroke-width="0.308613" stroke-miterlimit="10"/>
<path d="M234.493 567.417C200.232 396.359 200.232 211.726 234.493 40.668" stroke="#757575" stroke-width="0.308613" stroke-miterlimit="10"/>
<path d="M252.888 571.338C228.183 395.638 228.183 212.453 252.888 36.748" stroke="#757575" stroke-width="0.308613" stroke-miterlimit="10"/>
<path d="M271.717 573.997C256.787 394.982 256.787 213.107 271.717 34.0918" stroke="#757575" stroke-width="0.308613" stroke-miterlimit="10"/>
<path d="M290.937 575.348C285.943 394.587 285.943 213.5 290.937 32.7383" stroke="#757575" stroke-width="0.308613" stroke-miterlimit="10"/>
<path d="M310.426 575.348C315.42 394.587 315.42 213.5 310.426 32.7383" stroke="#757575" stroke-width="0.308613" stroke-miterlimit="10"/>
<path d="M329.645 573.997C344.574 394.982 344.574 213.107 329.645 34.0918" stroke="#757575" stroke-width="0.308613" stroke-miterlimit="10"/>
<path d="M348.473 571.338C373.177 395.638 373.177 212.453 348.473 36.748" stroke="#757575" stroke-width="0.308613" stroke-miterlimit="10"/>
<path d="M366.871 567.417C401.133 396.359 401.133 211.726 366.871 40.668" stroke="#757575" stroke-width="0.308613" stroke-miterlimit="10"/>
<path d="M384.781 562.286C428.363 396.944 428.363 211.148 384.781 45.8066" stroke="#757575" stroke-width="0.308613" stroke-miterlimit="10"/>
<path d="M402.164 555.976C454.839 397.192 454.839 210.888 402.164 52.1094" stroke="#757575" stroke-width="0.308613" stroke-miterlimit="10"/>
<path d="M418.973 548.549C480.55 397.01 480.554 211.08 418.973 59.541" stroke="#757575" stroke-width="0.308613" stroke-miterlimit="10"/>
<path d="M435.168 540.04C505.482 396.293 505.482 211.789 435.168 68.0469" stroke="#757575" stroke-width="0.308613" stroke-miterlimit="10"/>
<path d="M450.688 530.501C529.614 395.05 529.614 213.037 450.688 77.5859" stroke="#757575" stroke-width="0.308613" stroke-miterlimit="10"/>
<path d="M465.504 519.977C552.922 393.321 552.922 214.769 465.504 88.1133" stroke="#757575" stroke-width="0.308613" stroke-miterlimit="10"/>
<path d="M479.559 508.51C575.357 391.121 575.357 216.971 479.559 99.582" stroke="#757575" stroke-width="0.308613" stroke-miterlimit="10"/>
<path d="M1.55043 298.827C0.833121 216.439 34.1233 145.292 85.6091 93.2667C143.791 34.4786 225.217 0.110258 307.075 1.54933C332.541 1.99932 358.052 5.91109 382.918 13.6366C451.588 34.9643 499.923 68.749 533.877 106.927C628.624 213.458 611.382 354.229 611.382 354.229C611.382 354.229 481.305 274.233 485.738 273.347C490.171 272.46 567.729 168.312 567.729 168.312L597.424 411.181L522.525 338.056L600.084 248.53L404.637 134.63L517.206 103.608L541.14 253.85L375.829 111.141L547.787 151.03L190.131 216.621L405.519 27.3724L323.087 237.446L289.405 6.98928L415.272 80.1146L258.382 129.751L343.033 22.0572L485.742 72.5806L331.512 126.205L237.558 18.0652L179.055 260.934L7.98392 287.082L252.18 132.411L74.0163 120.003L239.768 257.392L183.925 35.7974L381.585 297.281L307.128 42.8859L23.0474 216.617L327.961 305.697L50.0823 162.101L128.527 294.616L112.127 84.9887L254.836 240.105L259.71 18.0697L381.585 246.312L558.417 155.9L506.121 357.993L381.585 206.423L600.079 288.414L480.859 371.292L600.079 380.154L341.701 312.79L459.148 271.128L471.556 371.288L1.55043 298.827Z" stroke="#757575" stroke-width="0.15" stroke-miterlimit="10"/>
<path opacity="0.5" d="M459.144 272.679C458.289 272.679 457.594 271.984 457.594 271.129C457.594 270.273 458.289 269.578 459.144 269.578C460 269.578 460.695 270.273 460.695 271.129C460.695 271.984 460 272.679 459.144 272.679Z" fill="#757575"/>
<path opacity="0.5" d="M341.695 314.341C342.551 314.341 343.245 313.647 343.245 312.791C343.245 311.934 342.551 311.24 341.695 311.24C340.839 311.24 340.145 311.934 340.145 312.791C340.145 313.647 340.839 314.341 341.695 314.341Z" fill="#757575"/>
<path opacity="0.5" d="M600.078 289.966C600.934 289.966 601.628 289.272 601.628 288.416C601.628 287.559 600.934 286.865 600.078 286.865C599.221 286.865 598.527 287.559 598.527 288.416C598.527 289.272 599.221 289.966 600.078 289.966Z" fill="#757575"/>
<path opacity="0.5" d="M381.586 207.974C382.442 207.974 383.136 207.28 383.136 206.424C383.136 205.567 382.442 204.873 381.586 204.873C380.729 204.873 380.035 205.567 380.035 206.424C380.035 207.28 380.729 207.974 381.586 207.974Z" fill="#757575"/>
<path opacity="0.5" d="M558.418 157.451C559.274 157.451 559.968 156.756 559.968 155.9C559.968 155.044 559.274 154.35 558.418 154.35C557.561 154.35 556.867 155.044 556.867 155.9C556.867 156.756 557.561 157.451 558.418 157.451Z" fill="#757575"/>
<path opacity="0.5" d="M381.586 247.863C382.442 247.863 383.136 247.168 383.136 246.312C383.136 245.456 382.442 244.762 381.586 244.762C380.729 244.762 380.035 245.456 380.035 246.312C380.035 247.168 380.729 247.863 381.586 247.863Z" fill="#757575"/>
<path opacity="0.5" d="M259.711 19.6165C260.567 19.6165 261.261 18.9224 261.261 18.0661C261.261 17.2098 260.567 16.5156 259.711 16.5156C258.854 16.5156 258.16 17.2098 258.16 18.0661C258.16 18.9224 258.854 19.6165 259.711 19.6165Z" fill="#757575"/>
<path opacity="0.5" d="M254.836 241.658C253.98 241.658 253.285 240.963 253.285 240.107C253.285 239.252 253.98 238.557 254.836 238.557C255.691 238.557 256.386 239.252 256.386 240.107C256.386 240.963 255.691 241.658 254.836 241.658Z" fill="#757575"/>
<path opacity="0.5" d="M112.129 86.5404C112.985 86.5404 113.679 85.8462 113.679 84.9899C113.679 84.1336 112.985 83.4395 112.129 83.4395C111.272 83.4395 110.578 84.1336 110.578 84.9899C110.578 85.8462 111.272 86.5404 112.129 86.5404Z" fill="#757575"/>
<path opacity="0.5" d="M128.523 296.167C129.379 296.167 130.074 295.473 130.074 294.617C130.074 293.761 129.379 293.066 128.523 293.066C127.667 293.066 126.973 293.761 126.973 294.617C126.973 295.473 127.667 296.167 128.523 296.167Z" fill="#757575"/>
<path opacity="0.5" d="M50.0817 163.658C49.2263 163.658 48.5312 162.963 48.5312 162.107C48.5312 161.252 49.2263 160.557 50.0817 160.557C50.9371 160.557 51.6322 161.252 51.6322 162.107C51.6322 162.963 50.9371 163.658 50.0817 163.658Z" fill="#757575"/>
<path opacity="0.5" d="M327.961 307.247C328.817 307.247 329.511 306.553 329.511 305.697C329.511 304.841 328.817 304.146 327.961 304.146C327.104 304.146 326.41 304.841 326.41 305.697C326.41 306.553 327.104 307.247 327.961 307.247Z" fill="#757575"/>
<path opacity="0.5" d="M23.0465 218.169C23.9028 218.169 24.597 217.475 24.597 216.619C24.597 215.763 23.9028 215.068 23.0465 215.068C22.1903 215.068 21.4961 215.763 21.4961 216.619C21.4961 217.475 22.1903 218.169 23.0465 218.169Z" fill="#757575"/>
<path opacity="0.5" d="M307.129 44.4368C307.985 44.4368 308.679 43.7427 308.679 42.8864C308.679 42.0301 307.985 41.3359 307.129 41.3359C306.272 41.3359 305.578 42.0301 305.578 42.8864C305.578 43.7427 306.272 44.4368 307.129 44.4368Z" fill="#757575"/>
<path opacity="0.5" d="M381.586 298.827C382.442 298.827 383.136 298.133 383.136 297.277C383.136 296.421 382.442 295.727 381.586 295.727C380.729 295.727 380.035 296.421 380.035 297.277C380.035 298.133 380.729 298.827 381.586 298.827Z" fill="#757575"/>
<path opacity="0.5" d="M183.925 37.345C184.782 37.345 185.476 36.6509 185.476 35.7946C185.476 34.9383 184.782 34.2441 183.925 34.2441C183.069 34.2441 182.375 34.9383 182.375 35.7946C182.375 36.6509 183.069 37.345 183.925 37.345Z" fill="#757575"/>
<path opacity="0.5" d="M241.301 257.654C241.439 256.809 240.865 256.012 240.019 255.875C239.174 255.738 238.378 256.312 238.241 257.157C238.103 258.002 238.677 258.799 239.523 258.936C240.368 259.073 241.164 258.499 241.301 257.654Z" fill="#757575"/>
<path opacity="0.5" d="M74.0114 121.55C74.8677 121.55 75.5618 120.856 75.5618 120C75.5618 119.143 74.8677 118.449 74.0114 118.449C73.1551 118.449 72.4609 119.143 72.4609 120C72.4609 120.856 73.1551 121.55 74.0114 121.55Z" fill="#757575"/>
<path opacity="0.5" d="M252.175 133.962C251.32 133.962 250.625 133.267 250.625 132.412C250.625 131.556 251.32 130.861 252.175 130.861C253.031 130.861 253.726 131.556 253.726 132.412C253.726 133.267 253.031 133.962 252.175 133.962Z" fill="#757575"/>
<path opacity="0.5" d="M7.98014 288.634C8.83643 288.634 9.53059 287.94 9.53059 287.084C9.53059 286.227 8.83643 285.533 7.98014 285.533C7.12385 285.533 6.42969 286.227 6.42969 287.084C6.42969 287.94 7.12385 288.634 7.98014 288.634Z" fill="#757575"/>
<path opacity="0.5" d="M179.047 262.486C178.191 262.486 177.496 261.791 177.496 260.935C177.496 260.08 178.191 259.385 179.047 259.385C179.902 259.385 180.597 260.08 180.597 260.935C180.597 261.791 179.902 262.486 179.047 262.486Z" fill="#757575"/>
<path opacity="0.5" d="M238.143 19.5001C238.934 19.1724 239.309 18.2654 238.982 17.4743C238.654 16.6832 237.747 16.3075 236.956 16.6352C236.165 16.9629 235.789 17.8698 236.117 18.6609C236.444 19.4521 237.351 19.8277 238.143 19.5001Z" fill="#757575"/>
<path opacity="0.5" d="M331.507 127.757C332.364 127.757 333.058 127.063 333.058 126.207C333.058 125.35 332.364 124.656 331.507 124.656C330.651 124.656 329.957 125.35 329.957 126.207C329.957 127.063 330.651 127.757 331.507 127.757Z" fill="#757575"/>
<path opacity="0.5" d="M485.734 74.1322C486.59 74.1322 487.284 73.438 487.284 72.5817C487.284 71.7254 486.59 71.0312 485.734 71.0312C484.878 71.0312 484.184 71.7254 484.184 72.5817C484.184 73.438 484.878 74.1322 485.734 74.1322Z" fill="#757575"/>
<path opacity="0.5" d="M343.027 23.6087C342.172 23.6087 341.477 22.9137 341.477 22.0583C341.477 21.2028 342.172 20.5078 343.027 20.5078C343.882 20.5078 344.577 21.2028 344.577 22.0583C344.577 22.9137 343.882 23.6087 343.027 23.6087Z" fill="#757575"/>
<path opacity="0.5" d="M258.379 131.302C259.235 131.302 259.929 130.608 259.929 129.752C259.929 128.895 259.235 128.201 258.379 128.201C257.522 128.201 256.828 128.895 256.828 129.752C256.828 130.608 257.522 131.302 258.379 131.302Z" fill="#757575"/>
<path opacity="0.5" d="M415.265 81.6654C416.122 81.6654 416.816 80.9712 416.816 80.1149C416.816 79.2586 416.122 78.5645 415.265 78.5645C414.409 78.5645 413.715 79.2586 413.715 80.1149C413.715 80.9712 414.409 81.6654 415.265 81.6654Z" fill="#757575"/>
<path opacity="0.5" d="M289.406 8.54036C290.262 8.54036 290.956 7.8462 290.956 6.98991C290.956 6.13361 290.262 5.43945 289.406 5.43945C288.55 5.43945 287.855 6.13361 287.855 6.98991C287.855 7.8462 288.55 8.54036 289.406 8.54036Z" fill="#757575"/>
<path opacity="0.5" d="M323.086 238.997C322.23 238.997 321.535 238.302 321.535 237.447C321.535 236.592 322.23 235.896 323.086 235.896C323.941 235.896 324.636 236.592 324.636 237.447C324.636 238.302 323.941 238.997 323.086 238.997Z" fill="#757575"/>
<path opacity="0.5" d="M405.519 28.9232C406.375 28.9232 407.07 28.229 407.07 27.3727C407.07 26.5164 406.375 25.8223 405.519 25.8223C404.663 25.8223 403.969 26.5164 403.969 27.3727C403.969 28.229 404.663 28.9232 405.519 28.9232Z" fill="#757575"/>
<path opacity="0.5" d="M190.125 218.169C190.981 218.169 191.675 217.475 191.675 216.619C191.675 215.763 190.981 215.068 190.125 215.068C189.268 215.068 188.574 215.763 188.574 216.619C188.574 217.475 189.268 218.169 190.125 218.169Z" fill="#757575"/>
<path opacity="0.5" d="M547.781 152.577C548.637 152.577 549.331 151.883 549.331 151.027C549.331 150.171 548.637 149.477 547.781 149.477C546.925 149.477 546.23 150.171 546.23 151.027C546.23 151.883 546.925 152.577 547.781 152.577Z" fill="#757575"/>
<path opacity="0.5" d="M375.824 112.689C376.68 112.689 377.374 111.995 377.374 111.138C377.374 110.282 376.68 109.588 375.824 109.588C374.968 109.588 374.273 110.282 374.273 111.138C374.273 111.995 374.968 112.689 375.824 112.689Z" fill="#757575"/>
<path opacity="0.5" d="M541.136 255.398C541.993 255.398 542.687 254.704 542.687 253.847C542.687 252.991 541.993 252.297 541.136 252.297C540.28 252.297 539.586 252.991 539.586 253.847C539.586 254.704 540.28 255.398 541.136 255.398Z" fill="#757575"/>
<path opacity="0.5" d="M517.203 105.156C516.347 105.156 515.652 104.461 515.652 103.605C515.652 102.75 516.347 102.055 517.203 102.055C518.058 102.055 518.753 102.75 518.753 103.605C518.753 104.461 518.058 105.156 517.203 105.156Z" fill="#757575"/>
<path opacity="0.5" d="M404.633 136.177C405.489 136.177 406.183 135.483 406.183 134.627C406.183 133.77 405.489 133.076 404.633 133.076C403.776 133.076 403.082 133.77 403.082 134.627C403.082 135.483 403.776 136.177 404.633 136.177Z" fill="#757575"/>
<path opacity="0.5" d="M600.078 250.077C600.934 250.077 601.628 249.383 601.628 248.527C601.628 247.671 600.934 246.977 600.078 246.977C599.221 246.977 598.527 247.671 598.527 248.527C598.527 249.383 599.221 250.077 600.078 250.077Z" fill="#757575"/>
<path opacity="0.5" d="M567.722 169.859C568.579 169.859 569.273 169.165 569.273 168.308C569.273 167.452 568.579 166.758 567.722 166.758C566.866 166.758 566.172 167.452 566.172 168.308C566.172 169.165 566.866 169.859 567.722 169.859Z" fill="#757575"/>
<path opacity="0.5" d="M485.734 274.894C486.59 274.894 487.284 274.2 487.284 273.343C487.284 272.487 486.59 271.793 485.734 271.793C484.878 271.793 484.184 272.487 484.184 273.343C484.184 274.2 484.878 274.894 485.734 274.894Z" fill="#757575"/>
<path opacity="0.5" d="M533.879 108.474C534.735 108.474 535.429 107.78 535.429 106.924C535.429 106.067 534.735 105.373 533.879 105.373C533.022 105.373 532.328 106.067 532.328 106.924C532.328 107.78 533.022 108.474 533.879 108.474Z" fill="#757575"/>
<path opacity="0.5" d="M382.918 15.1888C382.062 15.1888 381.367 14.4938 381.367 13.6383C381.367 12.7829 382.062 12.0879 382.918 12.0879C383.773 12.0879 384.468 12.7829 384.468 13.6383C384.468 14.4938 383.773 15.1888 382.918 15.1888Z" fill="#757575"/>
<path opacity="0.5" d="M307.074 3.10091C306.218 3.10091 305.523 2.40588 305.523 1.55045C305.523 0.695031 306.218 0 307.074 0C307.929 0 308.624 0.695031 308.624 1.55045C308.624 2.40588 307.929 3.10091 307.074 3.10091Z" fill="#757575"/>
<path opacity="0.5" d="M85.609 94.8177C84.7536 94.8177 84.0586 94.1227 84.0586 93.2672C84.0586 92.4118 84.7536 91.7168 85.609 91.7168C86.4645 91.7168 87.1595 92.4118 87.1595 93.2672C87.1595 94.1227 86.4645 94.8177 85.609 94.8177Z" fill="#757575"/>
<path opacity="0.5" d="M1.55045 300.378C2.40675 300.378 3.10091 299.684 3.10091 298.828C3.10091 297.971 2.40675 297.277 1.55045 297.277C0.694162 297.277 0 297.971 0 298.828C0 299.684 0.694162 300.378 1.55045 300.378Z" fill="#757575"/>
<path d="M613.161 316.172C613.878 398.56 580.588 469.707 529.102 521.732C470.92 580.525 389.494 614.889 307.637 613.45C282.17 613 256.659 609.088 231.794 601.362C163.124 580.035 114.788 546.25 80.8337 508.072C-13.9088 401.541 3.33327 260.775 3.33327 260.775C3.33327 260.775 133.411 340.77 128.978 341.657C124.545 342.543 46.9866 446.691 46.9866 446.691L17.2963 203.822L92.1948 276.948L14.6364 366.473L210.083 480.373L97.5144 511.396L73.5804 361.153L238.891 503.862L66.9331 463.973L424.589 398.382L209.201 587.622L291.633 377.549L325.315 608.005L199.448 534.88L356.338 485.243L271.687 592.937L128.978 542.414L283.208 488.789L377.162 596.929L435.665 354.06L606.736 327.912L362.54 482.583L540.704 494.991L374.952 357.602L430.795 579.197L233.135 317.714L307.592 572.104L591.677 398.373L286.763 309.293L564.642 452.888L486.197 320.374L502.597 530.001L359.889 374.885L355.015 596.92L233.139 368.678L56.3071 459.09L108.604 256.997L233.139 408.567L14.6364 326.584L133.857 243.706L14.6364 234.845L273.014 302.209L155.567 343.871L143.159 243.711L613.161 316.172Z" stroke="#757575" stroke-width="0.15" stroke-miterlimit="10"/>
<path opacity="0.5" d="M143.16 245.261C144.016 245.261 144.71 244.567 144.71 243.711C144.71 242.854 144.016 242.16 143.16 242.16C142.304 242.16 141.609 242.854 141.609 243.711C141.609 244.567 142.304 245.261 143.16 245.261Z" fill="#757575"/>
<path opacity="0.5" d="M273.011 303.759C273.868 303.759 274.562 303.065 274.562 302.209C274.562 301.352 273.868 300.658 273.011 300.658C272.155 300.658 271.461 301.352 271.461 302.209C271.461 303.065 272.155 303.759 273.011 303.759Z" fill="#757575"/>
<path opacity="0.5" d="M14.6325 236.396C15.4888 236.396 16.1829 235.702 16.1829 234.845C16.1829 233.989 15.4888 233.295 14.6325 233.295C13.7762 233.295 13.082 233.989 13.082 234.845C13.082 235.702 13.7762 236.396 14.6325 236.396Z" fill="#757575"/>
<path opacity="0.5" d="M133.851 245.261C134.708 245.261 135.402 244.567 135.402 243.711C135.402 242.854 134.708 242.16 133.851 242.16C132.995 242.16 132.301 242.854 132.301 243.711C132.301 244.567 132.995 245.261 133.851 245.261Z" fill="#757575"/>
<path opacity="0.5" d="M108.59 255.455C109.445 255.455 110.14 256.15 110.14 257.006C110.14 257.861 109.445 258.556 108.59 258.556C107.734 258.556 107.039 257.861 107.039 257.006C107.039 256.15 107.734 255.455 108.59 255.455Z" fill="#757575"/>
<path opacity="0.5" d="M286.754 310.853C287.61 310.853 288.304 310.159 288.304 309.302C288.304 308.446 287.61 307.752 286.754 307.752C285.897 307.752 285.203 308.446 285.203 309.302C285.203 310.159 285.897 310.853 286.754 310.853Z" fill="#757575"/>
<path opacity="0.5" d="M92.195 275.396C93.0504 275.396 93.7454 276.092 93.7454 276.947C93.7454 277.802 93.0504 278.497 92.195 278.497C91.3396 278.497 90.6445 277.802 90.6445 276.947C90.6445 276.092 91.3396 275.396 92.195 275.396Z" fill="#757575"/>
<path opacity="0.5" d="M17.2926 202.271C18.1481 202.271 18.8431 202.967 18.8431 203.822C18.8431 204.677 18.1481 205.372 17.2926 205.372C16.4372 205.372 15.7422 204.677 15.7422 203.822C15.7422 202.967 16.4372 202.271 17.2926 202.271Z" fill="#757575"/>
<path opacity="0.5" d="M3.3317 259.219C4.18713 259.219 4.88216 259.914 4.88216 260.769C4.88216 261.625 4.18713 262.32 3.3317 262.32C2.47628 262.32 1.78125 261.625 1.78125 260.769C1.78125 259.914 2.47628 259.219 3.3317 259.219Z" fill="#757575"/>
</g>
<defs>
<linearGradient id="paint0_linear_4449_10155" x1="557.021" y1="368.394" x2="382.871" y2="272.418" gradientUnits="userSpaceOnUse">
<stop stop-color="#757575"/>
<stop offset="0.22" stop-color="#757575" stop-opacity="0.76"/>
<stop offset="0.6" stop-color="#757575" stop-opacity="0.36"/>
<stop offset="0.87" stop-color="#757575" stop-opacity="0.1"/>
<stop offset="1" stop-color="#757575" stop-opacity="0"/>
</linearGradient>
<linearGradient id="paint1_linear_4449_10155" x1="440.867" y1="29.112" x2="349.564" y2="138.036" gradientUnits="userSpaceOnUse">
<stop stop-color="#757575"/>
<stop offset="0.22" stop-color="#757575" stop-opacity="0.76"/>
<stop offset="0.6" stop-color="#757575" stop-opacity="0.36"/>
<stop offset="0.87" stop-color="#757575" stop-opacity="0.1"/>
<stop offset="1" stop-color="#757575" stop-opacity="0"/>
</linearGradient>
<linearGradient id="paint2_linear_4449_10155" x1="45.4217" y1="304.309" x2="110.563" y2="426.581" gradientUnits="userSpaceOnUse">
<stop stop-color="#757575"/>
<stop offset="0.22" stop-color="#757575" stop-opacity="0.76"/>
<stop offset="0.6" stop-color="#757575" stop-opacity="0.36"/>
<stop offset="0.87" stop-color="#757575" stop-opacity="0.1"/>
<stop offset="1" stop-color="#757575" stop-opacity="0"/>
</linearGradient>
<linearGradient id="paint3_linear_4449_10155" x1="147.804" y1="46.5546" x2="192.291" y2="130.061" gradientUnits="userSpaceOnUse">
<stop stop-color="#757575"/>
<stop offset="0.02" stop-color="#757575" stop-opacity="0.95"/>
<stop offset="0.14" stop-color="#757575" stop-opacity="0.73"/>
<stop offset="0.25" stop-color="#757575" stop-opacity="0.54"/>
<stop offset="0.37" stop-color="#757575" stop-opacity="0.37"/>
<stop offset="0.49" stop-color="#757575" stop-opacity="0.24"/>
<stop offset="0.61" stop-color="#757575" stop-opacity="0.13"/>
<stop offset="0.74" stop-color="#757575" stop-opacity="0.06"/>
<stop offset="0.86" stop-color="#757575" stop-opacity="0.01"/>
<stop offset="1" stop-color="#757575" stop-opacity="0"/>
</linearGradient>
</defs>
</svg>
