<svg width="48" height="48" viewBox="0 0 48 48" fill="none" xmlns="http://www.w3.org/2000/svg">
<g clip-path="url(#clip0_4449_9953)">
<path d="M32.9251 1.55469H16.1406V12.5482H32.9251V1.55469Z" fill="#F2E6C4"/>
<path d="M25.369 7.09481C24.3316 7.37352 24.2542 8.36449 23.3406 8.51933C22.7987 8.61223 22.3342 8.36449 22.1638 8.2561C21.4051 7.76062 21.3277 6.8161 21.3277 6.56836C21.3122 6.7232 21.2812 6.87804 21.2812 7.04836C21.2812 8.84449 22.7367 10.3 24.5329 10.3C25.9109 10.3 27.0722 9.44836 27.5522 8.24062C27.3974 7.76062 26.4683 6.7232 25.3535 7.09481H25.369Z" fill="#6262F4"/>
<path d="M24.5372 3.79883C22.8959 3.79883 21.5643 5.00657 21.332 6.58592C21.332 6.83367 21.394 7.77818 22.1682 8.27367C22.3385 8.38205 22.7875 8.64528 23.3449 8.53689C24.2585 8.36657 24.3359 7.3756 25.3733 7.11238C26.4882 6.74076 27.4172 7.77818 27.572 8.25818C27.7269 7.88657 27.8043 7.48399 27.8043 7.05044C27.8043 5.25431 26.3488 3.79883 24.5527 3.79883H24.5372Z" fill="#F2521C"/>
<path d="M18.7905 9.61713L18.3789 9.91992L19.7552 11.7908L20.1668 11.488L18.7905 9.61713Z" fill="black"/>
<path d="M19.8686 8.83003L19.457 9.13281L20.8333 11.0037L21.2449 10.7009L19.8686 8.83003Z" fill="black"/>
<path d="M20.1587 2.60018L19.7461 2.29883L18.3763 4.17449L18.789 4.47584L20.1587 2.60018Z" fill="black"/>
<path d="M20.69 3.01619L20.2773 2.71484L18.9076 4.59051L19.3202 4.89186L20.69 3.01619Z" fill="black"/>
<path d="M21.2486 3.39705L20.8359 3.0957L19.4662 4.97137L19.8788 5.27272L21.2486 3.39705Z" fill="black"/>
<path d="M28.7202 2.61909L28.3086 2.92188L29.6849 4.79275L30.0965 4.48996L28.7202 2.61909Z" fill="black"/>
<path d="M29.2613 8.8762L28.7227 9.68945L29.1486 9.97162L29.6873 9.15837L29.2613 8.8762Z" fill="black"/>
<path d="M28.5798 9.90379L27.9727 10.8203L28.3986 11.1025L29.0057 10.186L28.5798 9.90379Z" fill="black"/>
<path d="M29.816 9.25706L29.2773 10.0703L29.7033 10.3525L30.242 9.53923L29.816 9.25706Z" fill="black"/>
<path d="M29.1344 10.2788L28.5273 11.1953L28.9533 11.4775L29.5604 10.561L29.1344 10.2788Z" fill="black"/>
<path d="M29.693 10.6538L29.0859 11.5703L29.5119 11.8525L30.119 10.936L29.693 10.6538Z" fill="black"/>
<path d="M30.3746 9.63206L29.8359 10.4453L30.2619 10.7275L30.8006 9.91423L30.3746 9.63206Z" fill="black"/>
<path d="M29.2671 2.22651L28.8555 2.5293L29.5253 3.43979L29.9369 3.137L29.2671 2.22651Z" fill="black"/>
<path d="M30.0639 3.3144L29.6523 3.61719L30.2304 4.40295L30.642 4.10017L30.0639 3.3144Z" fill="black"/>
<path d="M28.1889 3.00971L27.7773 3.3125L28.4471 4.22299L28.8587 3.9202L28.1889 3.00971Z" fill="black"/>
<path d="M28.9741 4.09174L28.5625 4.39453L29.1405 5.1803L29.5521 4.87751L28.9741 4.09174Z" fill="black"/>
<path d="M19.3217 9.2226L18.9102 9.52539L19.5249 10.361L19.9365 10.0583L19.3217 9.2226Z" fill="black"/>
<path d="M20.06 10.2382L19.6484 10.541L20.2815 11.4016L20.6931 11.0988L20.06 10.2382Z" fill="black"/>
<path d="M24.4362 17.488H24.3743C18.5679 17.4725 13.3962 14.1744 11.182 9.0957L9.72656 9.73054C10.7949 12.208 12.5291 14.2518 14.635 15.8312V31.0828H16.1833V16.8531C18.3975 18.1383 20.9524 18.897 23.6466 19.0209V31.0828H25.195V19.0209C27.8272 18.897 30.3201 18.1693 32.5033 16.946V31.0828H34.0517V15.9551C36.2349 14.3757 38.0311 12.2699 39.1304 9.73054L37.6749 9.0957C35.4453 14.2054 30.2582 17.488 24.4362 17.488Z" fill="url(#paint0_linear_4449_9953)"/>
<path d="M7.61909 9.11328C6.44232 11.9623 4.36748 14.223 1.82812 15.6784V17.3972C2.06038 17.2733 2.29264 17.1804 2.5249 17.0565V31.0694H4.07329V16.0655C6.22554 14.4707 7.97522 12.3184 9.05909 9.70167L7.63458 9.11328H7.61909Z" fill="url(#paint1_linear_4449_9953)"/>
<path d="M11.2523 9.125H7.64453V34.2398H11.2523V9.125Z" fill="url(#paint2_linear_4449_9953)"/>
<path d="M41.2956 9.11328L39.8711 9.70167C40.9395 12.272 42.6582 14.4088 44.7795 16.0036V31.0849H46.3279V17.0255C46.6375 17.1959 46.9627 17.3352 47.2724 17.4901V15.7868C44.6401 14.3313 42.5034 12.0242 41.2956 9.11328Z" fill="url(#paint3_linear_4449_9953)"/>
<path d="M41.3382 9.125H37.7305V34.2398H41.3382V9.125Z" fill="url(#paint4_linear_4449_9953)"/>
<path d="M47.2733 37.7246V31.082H24.543H1.82812V37.7246H7.65006V41.6265H6.76748V44.1195H5.45135V46.6124H13.8126V44.1195H12.4965V41.6265H11.6139V37.7246H24.543H37.4875V41.6265H36.6049V44.1195H35.2888V46.6124H43.6501V44.1195H42.3339V41.6265H41.4359V37.7246H47.2733Z" fill="url(#paint5_linear_4449_9953)"/>
</g>
<defs>
<linearGradient id="paint0_linear_4449_9953" x1="24.4362" y1="9.21957" x2="24.4362" y2="31.9189" gradientUnits="userSpaceOnUse">
<stop offset="0.7" stop-color="#FF7928"/>
<stop offset="1" stop-color="white"/>
</linearGradient>
<linearGradient id="paint1_linear_4449_9953" x1="5.43587" y1="10.2436" x2="5.43587" y2="31.9675" gradientUnits="userSpaceOnUse">
<stop offset="0.7" stop-color="#FF7928"/>
<stop offset="1" stop-color="white"/>
</linearGradient>
<linearGradient id="paint2_linear_4449_9953" x1="9.44066" y1="-4.37694" x2="9.44066" y2="36.3147" gradientUnits="userSpaceOnUse">
<stop offset="0.7" stop-color="#969696"/>
<stop offset="1" stop-color="white"/>
</linearGradient>
<linearGradient id="paint3_linear_4449_9953" x1="43.5717" y1="10.2436" x2="43.5717" y2="31.9675" gradientUnits="userSpaceOnUse">
<stop offset="0.7" stop-color="#FF7928"/>
<stop offset="1" stop-color="white"/>
</linearGradient>
<linearGradient id="paint4_linear_4449_9953" x1="39.5266" y1="-4.37694" x2="39.5266" y2="36.3147" gradientUnits="userSpaceOnUse">
<stop offset="0.7" stop-color="#969696"/>
<stop offset="1" stop-color="white"/>
</linearGradient>
<linearGradient id="paint5_linear_4449_9953" x1="24.543" y1="1.833" x2="24.543" y2="53.7814" gradientUnits="userSpaceOnUse">
<stop offset="0.7" stop-color="#969696"/>
<stop offset="1" stop-color="white"/>
</linearGradient>
<clipPath id="clip0_4449_9953">
<rect width="45.4452" height="45.0581" fill="white" transform="translate(1.81641 1.54883)"/>
</clipPath>
</defs>
</svg>
