<svg width="48" height="48" viewBox="0 0 48 48" fill="none" xmlns="http://www.w3.org/2000/svg">
<g clip-path="url(#clip0_4449_9764)">
<path d="M46.7832 21.8202V16.0748H40.9651V7.34748H33.8523V1.5293H28.1069V7.34748H21.0232V1.5293H15.2778V7.34748H7.36506V16.0748H1.54688V21.8202H7.36506V28.9038H1.54688V34.6493H7.36506V40.9475H15.2778V46.7657H21.0232V40.9475H28.1069V46.7657H33.8523V40.9475H40.9651V34.6493H46.7832V28.9038H40.9651V21.8202H46.7832ZM34.6523 34.6493H13.6778V13.6602H34.6669V34.6493H34.6523Z" fill="url(#paint0_linear_4449_9764)"/>
<path d="M33.847 1.5293H28.1016V7.34748H33.847V1.5293Z" fill="#969696"/>
<path d="M21.0072 1.5293H15.2617V7.34748H21.0072V1.5293Z" fill="#969696"/>
<path d="M33.847 40.9609H28.1016V46.7791H33.847V40.9609Z" fill="#969696"/>
<path d="M21.0072 40.9609H15.2617V46.7791H21.0072V40.9609Z" fill="#969696"/>
<path d="M46.8267 28.9043H40.9648V34.6498H46.8267V28.9043Z" fill="#969696"/>
<path d="M46.8267 16.1211H40.9648V21.8665H46.8267V16.1211Z" fill="#969696"/>
<path d="M7.40869 28.9043H1.54688V34.6498H7.40869V28.9043Z" fill="#969696"/>
<path d="M7.40869 16.1211H1.54688V21.8665H7.40869V16.1211Z" fill="#969696"/>
</g>
<defs>
<linearGradient id="paint0_linear_4449_9764" x1="1.54688" y1="24.1475" x2="46.7832" y2="24.1475" gradientUnits="userSpaceOnUse">
<stop offset="0.54" stop-color="#FF7928"/>
<stop offset="0.95" stop-color="white"/>
</linearGradient>
<clipPath id="clip0_4449_9764">
<rect width="45.28" height="45.2509" fill="white" transform="translate(1.54688 1.5332)"/>
</clipPath>
</defs>
</svg>
