<svg width="1140" height="507" viewBox="0 0 1140 507" fill="none" xmlns="http://www.w3.org/2000/svg">
<mask id="path-1-inside-1_192_923" fill="white">
<path d="M1140 67.71V507H69.7109L0 437.289V0H1072.29L1140 67.71Z"/>
</mask>
<path d="M1140 67.71V507H69.7109L0 437.289V0H1072.29L1140 67.71Z" fill="white"/>
<path d="M1140 67.71H1141V67.2957L1140.71 67.0028L1140 67.71ZM1140 507V508H1141V507H1140ZM69.7109 507L69.0038 507.707L69.2967 508H69.7109V507ZM0 437.289H-1V437.703L-0.707107 437.996L0 437.289ZM0 0V-1H-1V0H0ZM1072.29 0L1073 -0.707112L1072.7 -1H1072.29V0ZM1140 67.71H1139V507H1140H1141V67.71H1140ZM1140 507V506H69.7109V507V508H1140V507ZM69.7109 507L70.418 506.293L0.707107 436.582L0 437.289L-0.707107 437.996L69.0038 507.707L69.7109 507ZM0 437.289H1V0H0H-1V437.289H0ZM0 0V1H1072.29V0V-1H0V0ZM1072.29 0L1071.58 0.707112L1139.29 68.4171L1140 67.71L1140.71 67.0028L1073 -0.707112L1072.29 0Z" fill="url(#paint0_linear_192_923)" mask="url(#path-1-inside-1_192_923)"/>
<path d="M1140 67.71H1141V67.2957L1140.71 67.0028L1140 67.71ZM1140 507V508H1141V507H1140ZM69.7109 507L69.0038 507.707L69.2967 508H69.7109V507ZM0 437.289H-1V437.703L-0.707107 437.996L0 437.289ZM0 0V-1H-1V0H0ZM1072.29 0L1073 -0.707112L1072.7 -1H1072.29V0ZM1140 67.71H1139V507H1140H1141V67.71H1140ZM1140 507V506H69.7109V507V508H1140V507ZM69.7109 507L70.418 506.293L0.707107 436.582L0 437.289L-0.707107 437.996L69.0038 507.707L69.7109 507ZM0 437.289H1V0H0H-1V437.289H0ZM0 0V1H1072.29V0V-1H0V0ZM1072.29 0L1071.58 0.707112L1139.29 68.4171L1140 67.71L1140.71 67.0028L1073 -0.707112L1072.29 0Z" fill="url(#paint1_linear_192_923)" mask="url(#path-1-inside-1_192_923)"/>
<defs>
<linearGradient id="paint0_linear_192_923" x1="570" y1="0" x2="570" y2="507" gradientUnits="userSpaceOnUse">
<stop/>
<stop offset="1" stop-color="#666666"/>
</linearGradient>
<linearGradient id="paint1_linear_192_923" x1="1349.72" y1="-1.14774e-08" x2="1349.72" y2="37.4417" gradientUnits="userSpaceOnUse">
<stop stop-color="#F2F2F2"/>
<stop offset="1" stop-color="#FF8B2A"/>
</linearGradient>
</defs>
</svg>
