<svg width="129" height="158" viewBox="0 0 129 158" fill="none" xmlns="http://www.w3.org/2000/svg">
<path d="M7.56934 113.992H10.4377V125.139H7.56934V113.992Z" fill="#F37021"/>
<path d="M4.84278 135.791L11.2277 129.414V149.131H23.3297V149.161H58.5158L52.6122 155.047H14.3023L12.0922 157.281H3.8147e-06V150.052L4.84278 145.223V135.791Z" fill="#F37021"/>
<path d="M126.235 151.18C127.602 151.18 128.711 152.286 128.711 153.649C128.711 155.011 127.602 156.117 126.235 156.117C124.868 156.117 123.759 155.011 123.759 153.649C123.759 152.286 124.868 151.18 126.235 151.18ZM126.235 155.156C127.067 155.156 127.747 154.478 127.747 153.649C127.747 152.819 127.067 152.141 126.235 152.141C125.403 152.141 124.723 152.819 124.723 153.649C124.723 154.478 125.403 155.156 126.235 155.156Z" fill="#F37021"/>
<path d="M118.837 151.18C120.203 151.18 121.313 152.286 121.313 153.649C121.313 155.011 120.203 156.117 118.837 156.117C117.47 156.117 116.361 155.011 116.361 153.649C116.361 152.286 117.47 151.18 118.837 151.18ZM118.837 155.156C119.669 155.156 120.349 154.478 120.349 153.649C120.349 152.819 119.669 152.141 118.837 152.141C118.005 152.141 117.325 152.819 117.325 153.649C117.325 154.478 118.005 155.156 118.837 155.156Z" fill="#F37021"/>
<path d="M111.446 151.18C112.813 151.18 113.922 152.286 113.922 153.649C113.922 155.011 112.813 156.117 111.446 156.117C110.079 156.117 108.97 155.011 108.97 153.649C108.97 152.286 110.079 151.18 111.446 151.18ZM111.446 155.156C112.278 155.156 112.958 154.478 112.958 153.649C112.958 152.819 112.278 152.141 111.446 152.141C110.614 152.141 109.934 152.819 109.934 153.649C109.934 154.478 110.614 155.156 111.446 155.156Z" fill="#F37021"/>
<path d="M104.037 151.664C105.14 151.664 106.031 152.553 106.031 153.652C106.031 154.752 105.14 155.641 104.037 155.641C102.935 155.641 102.043 154.752 102.043 153.652C102.043 152.553 102.935 151.664 104.037 151.664Z" fill="#F37021"/>
<path d="M96.6312 151.664C97.7338 151.664 98.6252 152.553 98.6252 153.652C98.6252 154.752 97.7338 155.641 96.6312 155.641C95.5286 155.641 94.6372 154.752 94.6372 153.652C94.6372 152.553 95.5286 151.664 96.6312 151.664Z" fill="#F37021"/>
<path d="M89.2328 151.664C90.3354 151.664 91.2267 152.553 91.2267 153.652C91.2267 154.752 90.3354 155.641 89.2328 155.641C88.1301 155.641 87.2388 154.752 87.2388 153.652C87.2388 152.553 88.1301 151.664 89.2328 151.664Z" fill="#F37021"/>
<path d="M81.8367 151.18C83.2035 151.18 84.3127 152.286 84.3127 153.649C84.3127 155.011 83.2035 156.117 81.8367 156.117C80.47 156.117 79.3608 155.011 79.3608 153.649C79.3608 152.286 80.47 151.18 81.8367 151.18ZM81.8367 155.156C82.6686 155.156 83.3487 154.478 83.3487 153.649C83.3487 152.819 82.6686 152.141 81.8367 152.141C81.0048 152.141 80.3247 152.819 80.3247 153.649C80.3247 154.478 81.0048 155.156 81.8367 155.156Z" fill="#F37021"/>
<path d="M74.4383 151.18C75.805 151.18 76.9142 152.286 76.9142 153.649C76.9142 155.011 75.805 156.117 74.4383 156.117C73.0716 156.117 71.9623 155.011 71.9623 153.649C71.9623 152.286 73.0716 151.18 74.4383 151.18ZM74.4383 155.156C75.2702 155.156 75.9503 154.478 75.9503 153.649C75.9503 152.819 75.2702 152.141 74.4383 152.141C73.6064 152.141 72.9263 152.819 72.9263 153.649C72.9263 154.478 73.6064 155.156 74.4383 155.156Z" fill="#F37021"/>
<path d="M67.0398 151.18C68.4066 151.18 69.5158 152.286 69.5158 153.649C69.5158 155.011 68.4066 156.117 67.0398 156.117C65.6731 156.117 64.5639 155.011 64.5639 153.649C64.5639 152.286 65.6731 151.18 67.0398 151.18ZM67.0398 155.156C67.8718 155.156 68.5518 154.478 68.5518 153.649C68.5518 152.819 67.8718 152.141 67.0398 152.141C66.2079 152.141 65.5279 152.819 65.5279 153.649C65.5279 154.478 66.2079 155.156 67.0398 155.156Z" fill="#F37021"/>
<path d="M4.44491 46.9275L0.515697 43.039V14.3496L14.9064 0V33.0089L10.8593 37.0347V99.1933L4.44491 92.758V46.9275Z" fill="#F37021"/>
</svg>
