<svg width="48" height="40" viewBox="0 0 48 40" fill="none" xmlns="http://www.w3.org/2000/svg">
<g clip-path="url(#clip0_9005_9467)">
<path d="M37.668 5.51063L32.352 6.94819L31.32 6.34921L29.772 7.64301L29.748 7.65499L18.648 10.6619L0 5.1752L19.02 0L37.668 5.51063Z" fill="url(#paint0_linear_9005_9467)"/>
<path d="M31.9043 7.77528L30.3203 8.19457L31.3763 7.33203L31.9043 7.77528Z" fill="url(#paint1_linear_9005_9467)"/>
<path d="M19.8949 11.2486L18.9109 16.7352L17.1349 18.2327C12.8509 17.9452 9.43094 16.6394 7.21094 15.5732V8.26562L18.4549 11.6559L19.8949 11.2486Z" fill="url(#paint2_linear_9005_9467)"/>
<path d="M28.2967 8.875L26.1247 10.7079H21.8047L28.2967 8.875Z" fill="url(#paint3_linear_9005_9467)"/>
<path d="M31.9329 22.2597C30.4209 21.7805 30.0969 21.5888 30.0369 20.7143C30.0009 19.2528 31.2249 19.145 31.4529 19.145C31.8849 19.145 32.9049 19.3007 32.9409 20.6784V21.2534L36.2289 21.1576V20.5825C36.1449 18.3663 34.8489 16.6532 32.8569 16.0902V14.2812H29.4489V16.3537C27.7089 17.1444 26.7129 18.7976 26.7609 20.87C26.9649 24.1165 29.3409 24.8832 30.9249 25.3864C32.4729 25.8775 32.5809 25.9854 32.5689 26.9916C32.4849 28.1297 31.8729 28.3214 31.4529 28.3573H31.3209C30.0489 28.3573 29.9169 27.7703 29.7489 26.6442L29.6169 25.8296L26.5569 25.9854V26.5125C26.5089 28.2974 27.2529 30.5616 29.4489 31.3403V33.0533H32.8569V31.3403C34.6449 30.7173 35.8689 29.124 36.0129 27.1474C36.0729 23.5894 33.3729 22.7269 31.9209 22.2597H31.9329Z" fill="url(#paint4_linear_9005_9467)"/>
<path d="M47.9972 21.2404L43.3052 17.2991L42.2372 11.2733H36.0932L31.9172 7.77528L31.3892 7.33203L30.3333 8.20654H30.3212L28.8572 9.45243L26.6852 11.2853H20.5413L20.4572 11.8124L19.4732 17.2991L17.6973 18.7965L14.7812 21.2524L17.8412 26.5593L16.7732 32.5971L22.5572 34.6935L25.6173 40.0005L31.3772 37.9041L37.1612 40.0005L40.2212 34.6935L45.9812 32.5971L44.9252 26.5593L47.9852 21.2524L47.9972 21.2404ZM31.3772 34.7055C25.2692 34.7055 20.3253 29.7699 20.3253 23.6603C20.3253 21.8993 20.7332 20.2461 21.4772 18.7726C23.2172 15.2027 26.8532 12.7109 31.0892 12.627C31.1732 12.6151 31.2812 12.615 31.3772 12.615C37.4972 12.615 42.4412 17.5746 42.4412 23.6603C42.4412 29.7459 37.4972 34.7055 31.3772 34.7055Z" fill="url(#paint5_linear_9005_9467)"/>
</g>
<defs>
<linearGradient id="paint0_linear_9005_9467" x1="18.84" y1="18.4247" x2="18.84" y2="-6.86433" gradientUnits="userSpaceOnUse">
<stop stop-color="white"/>
<stop offset="0.49" stop-color="#969696"/>
</linearGradient>
<linearGradient id="paint1_linear_9005_9467" x1="31.1123" y1="9.04512" x2="31.1123" y2="6.14605" gradientUnits="userSpaceOnUse">
<stop stop-color="white"/>
<stop offset="0.49" stop-color="#969696"/>
</linearGradient>
<linearGradient id="paint2_linear_9005_9467" x1="13.5469" y1="26.6783" x2="13.5469" y2="-0.311794" gradientUnits="userSpaceOnUse">
<stop stop-color="white"/>
<stop offset="0.49" stop-color="#969696"/>
</linearGradient>
<linearGradient id="paint3_linear_9005_9467" x1="26.0407" y1="21.9208" x2="24.8208" y2="6.99386" gradientUnits="userSpaceOnUse">
<stop stop-color="white"/>
<stop offset="0.49" stop-color="#969696"/>
</linearGradient>
<linearGradient id="paint4_linear_9005_9467" x1="31.3929" y1="36.5155" x2="31.3929" y2="15.1078" gradientUnits="userSpaceOnUse">
<stop stop-color="white"/>
<stop offset="0.49" stop-color="#FF7928"/>
</linearGradient>
<linearGradient id="paint5_linear_9005_9467" x1="31.3892" y1="46.0981" x2="31.3892" y2="-5.00699" gradientUnits="userSpaceOnUse">
<stop stop-color="white"/>
<stop offset="0.49" stop-color="#FF7928"/>
</linearGradient>
<clipPath id="clip0_9005_9467">
<rect width="48" height="40" fill="white"/>
</clipPath>
</defs>
</svg>
