<svg width="41" height="40" viewBox="0 0 41 40" fill="none" xmlns="http://www.w3.org/2000/svg">
<g clip-path="url(#clip0_9005_9407)">
<path d="M19.7094 0C16.0296 0 13.0469 2.96334 13.0469 6.61914C13.0469 8.80855 14.1231 10.7434 15.7734 11.9552C16.8804 12.7597 18.2334 13.2485 19.7094 13.2485C21.1854 13.2485 22.5486 12.7699 23.6454 11.9552C25.2956 10.7536 26.3719 8.80855 26.3719 6.61914C26.3719 2.96334 23.3891 0 19.7094 0Z" fill="url(#paint0_linear_9005_9407)"/>
<path d="M20.5282 14.1758H18.8984V15.6829H20.5282V14.1758Z" fill="#FF7928"/>
<path d="M20.8434 19.4693L19.7056 21.0273L18.5781 19.5508L18.8959 16.0273H20.5154L20.8434 19.4693Z" fill="#FF7928"/>
<path d="M28.7378 20.5801V26.6494L24.6787 30.1219L18.498 23.574L18.4775 23.5944L18.4365 23.5435L10.6875 28.3704V20.57C10.6875 20.4172 10.6875 20.2746 10.6875 20.1321C10.708 19.6535 10.7797 19.185 10.8822 18.737C11.1077 17.739 11.5383 16.8021 12.102 15.9875C12.9938 14.684 14.2647 13.6657 15.751 13.0547C15.8432 14.3072 16.1507 16.3744 17.35 18.5842C18.1085 19.9691 18.9797 21.0078 19.687 21.7207C20.3737 20.906 21.1323 19.8469 21.819 18.5333C22.926 16.4254 23.4077 14.46 23.623 13.0547C24.443 13.3907 25.1912 13.8592 25.8575 14.4294C26.739 15.1932 27.4565 16.1199 27.9485 17.1789C28.4303 18.2176 28.7172 19.3683 28.7172 20.5801H28.7378Z" fill="url(#paint1_linear_9005_9407)"/>
<path d="M6.35856 9.00391C3.76531 9.00391 1.66406 11.0915 1.66406 13.6679C1.66406 15.2055 2.42256 16.5701 3.58081 17.4255C4.35981 17.9958 5.31306 18.3318 6.34831 18.3318C7.38356 18.3318 8.34706 17.9958 9.11581 17.4255C10.2741 16.5803 11.0326 15.2157 11.0326 13.6679C11.0326 11.0915 8.93131 9.00391 6.33806 9.00391H6.35856Z" fill="url(#paint2_linear_9005_9407)"/>
<path d="M10.1475 18.7476C10.0348 19.2058 9.97325 19.6641 9.95275 20.1427C9.95275 20.2853 9.95275 20.4278 9.95275 20.5806V28.8392L7.47225 30.3871H0.37925C0.17425 30.3871 0 30.2242 0 30.0103V23.4828C0 21.0897 1.476 19.0327 3.57725 18.1875C4.35625 18.7476 5.29925 19.0938 6.34475 19.0938C7.39025 19.0938 8.3435 18.7476 9.11225 18.1875C9.48125 18.3402 9.82975 18.5235 10.1475 18.7374V18.7476Z" fill="url(#paint3_linear_9005_9407)"/>
<path d="M34.973 26.751L24.6922 35.5291L24.4565 35.7429L17.9272 28.8386L0 39.9995V36.1808L18.45 24.694L18.4808 24.7449L18.5012 24.7246L24.6922 31.2724L32.8512 24.2969L34.973 26.751Z" fill="url(#paint4_linear_9005_9407)"/>
<path d="M40.4888 20.2756L30.0133 21.3958C29.6443 21.4365 29.47 21.8744 29.716 22.1493L37.5675 31.1718C37.8135 31.4467 38.2645 31.3449 38.3568 30.9885L40.9808 20.8459C41.0628 20.5404 40.8065 20.2451 40.4888 20.2756Z" fill="url(#paint5_linear_9005_9407)"/>
</g>
<defs>
<linearGradient id="paint0_linear_9005_9407" x1="12.3704" y1="-0.672098" x2="29.8038" y2="16.8755" gradientUnits="userSpaceOnUse">
<stop offset="0.02" stop-color="white"/>
<stop offset="0.26" stop-color="#FF9D62"/>
<stop offset="0.49" stop-color="#FF7928"/>
</linearGradient>
<linearGradient id="paint1_linear_9005_9407" x1="12.389" y1="15.5292" x2="26.0751" y2="29.3049" gradientUnits="userSpaceOnUse">
<stop stop-color="white"/>
<stop offset="0.11" stop-color="#FFB181"/>
<stop offset="0.27" stop-color="#FF8236"/>
<stop offset="0.49" stop-color="#FF7928"/>
</linearGradient>
<linearGradient id="paint2_linear_9005_9407" x1="3.03756" y1="10.3685" x2="9.62602" y2="17.0001" gradientUnits="userSpaceOnUse">
<stop stop-color="white"/>
<stop offset="0.25" stop-color="#FFA066"/>
<stop offset="0.49" stop-color="#FF7928"/>
</linearGradient>
<linearGradient id="paint3_linear_9005_9407" x1="0.861" y1="20.2751" x2="9.65918" y2="29.1309" gradientUnits="userSpaceOnUse">
<stop stop-color="white"/>
<stop offset="0.25" stop-color="#FFA066"/>
<stop offset="0.49" stop-color="#FF7928"/>
</linearGradient>
<linearGradient id="paint4_linear_9005_9407" x1="0" y1="32.1482" x2="34.973" y2="32.1482" gradientUnits="userSpaceOnUse">
<stop stop-color="white"/>
<stop offset="0.49" stop-color="#969696"/>
</linearGradient>
<linearGradient id="paint5_linear_9005_9407" x1="31.1818" y1="29.1453" x2="45.9574" y2="14.2728" gradientUnits="userSpaceOnUse">
<stop stop-color="white"/>
<stop offset="0.49" stop-color="#969696"/>
</linearGradient>
<clipPath id="clip0_9005_9407">
<rect width="41" height="40" fill="white"/>
</clipPath>
</defs>
</svg>
