<svg width="40" height="40" viewBox="0 0 40 40" fill="none" xmlns="http://www.w3.org/2000/svg">
<g clip-path="url(#clip0_9005_9442)">
<path d="M6.04688 11.6487H11.6269V6.82875C9.90687 6.79875 8.28688 6.57875 6.81687 6.21875C6.34687 7.82875 6.06687 9.68875 6.04688 11.6588V11.6487Z" fill="url(#paint0_linear_9005_9442)"/>
<path d="M18.1594 12.5703C18.1294 13.5003 18.0494 14.4003 17.9194 15.2703H16.5894V17.8503C15.3594 17.5703 14.0094 17.4303 12.6094 17.4003V12.5803H18.1594V12.5703Z" fill="url(#paint1_linear_9005_9442)"/>
<path d="M12.6016 0.320312V5.86031C14.2116 5.82031 15.7316 5.62031 17.1016 5.28031C16.1016 2.49031 14.4716 0.600313 12.6016 0.320312Z" fill="url(#paint2_linear_9005_9442)"/>
<path d="M9.81313 0C7.22313 0.5 4.92313 1.83 3.20312 3.7C4.05313 4.22 5.05313 4.68 6.19313 5.03C7.03312 2.68 8.30313 0.91 9.81313 0Z" fill="url(#paint3_linear_9005_9442)"/>
<path d="M16.5894 19.7516C15.5794 21.8616 14.1894 23.2616 12.6094 23.5016V18.3516C14.0094 18.4016 15.3494 18.5416 16.5894 18.8216V19.7516Z" fill="url(#paint4_linear_9005_9442)"/>
<path d="M11.6334 23.4994V18.3594C10.0834 18.3894 8.61344 18.5794 7.27344 18.8994C8.29344 21.4894 9.85344 23.2294 11.6334 23.4994Z" fill="url(#paint5_linear_9005_9442)"/>
<path d="M6.94031 17.9781C8.37031 17.6281 9.95031 17.4281 11.6303 17.3981V12.5781H6.07031C6.13031 14.5481 6.44031 16.3881 6.95031 17.9881L6.94031 17.9781Z" fill="url(#paint6_linear_9005_9442)"/>
<path d="M7.11719 5.29031C8.49719 5.63031 10.0172 5.83031 11.6272 5.86031V0.320312C9.76719 0.610312 8.12719 2.50031 7.11719 5.29031Z" fill="url(#paint7_linear_9005_9442)"/>
<path d="M17.4094 6.19922C15.9494 6.56922 14.3294 6.78922 12.6094 6.82922V11.6592H18.1894C18.1694 9.67922 17.8894 7.82922 17.4094 6.20922V6.19922Z" fill="url(#paint8_linear_9005_9442)"/>
<path d="M24.2184 12.5703C24.1584 13.5003 24.0084 14.4003 23.7684 15.2703H18.8984C19.0284 14.4103 19.1084 13.5003 19.1384 12.5703H24.2184Z" fill="url(#paint9_linear_9005_9442)"/>
<path d="M19.1516 11.6497H24.2416C24.1816 8.92969 23.2316 6.42969 21.6616 4.42969C20.7216 5.02969 19.6116 5.54969 18.3516 5.93969C18.8516 7.63969 19.1316 9.57969 19.1516 11.6497Z" fill="url(#paint10_linear_9005_9442)"/>
<path d="M5.10344 12.5686H0.0234375C0.173438 15.2486 1.16344 17.6886 2.77344 19.6286C3.70344 19.0686 4.79344 18.5886 6.01344 18.2186C5.48344 16.5486 5.17344 14.6286 5.11344 12.5586L5.10344 12.5686Z" fill="url(#paint11_linear_9005_9442)"/>
<path d="M5.89 5.94922C4.63 5.55922 3.5 5.04922 2.56 4.44922C1 6.44922 0.06 8.93922 0 11.6492H5.09C5.11 9.57922 5.39 7.64922 5.89 5.94922Z" fill="url(#paint12_linear_9005_9442)"/>
<path d="M16.5897 21.6797V23.1597C15.8897 23.4497 15.1797 23.6597 14.4297 23.8097C15.2297 23.3197 15.9597 22.6097 16.5897 21.6797Z" fill="url(#paint13_linear_9005_9442)"/>
<path d="M18.0419 5.01C19.1719 4.66 20.1719 4.2 21.0119 3.67C19.2919 1.82 17.0119 0.5 14.4219 0C15.9319 0.91 17.2019 2.67 18.0419 5.01Z" fill="url(#paint14_linear_9005_9442)"/>
<path d="M6.31969 19.1484C5.23969 19.4684 4.25969 19.8884 3.42969 20.3684C5.11969 22.1084 7.32969 23.3384 9.80969 23.8084C8.37969 22.9484 7.15969 21.3184 6.31969 19.1484Z" fill="url(#paint15_linear_9005_9442)"/>
<path d="M17.2891 16.1016V40.0016H39.0591V16.1016H17.2891ZM28.1791 17.6116C29.8991 17.6116 31.3091 19.0216 31.3091 20.7616C31.3091 21.7816 30.8091 22.7116 30.0291 23.2816C29.5091 23.6716 28.8791 23.9016 28.1791 23.9016C27.4791 23.9016 26.8491 23.6716 26.3291 23.2816C25.5491 22.7116 25.0491 21.7916 25.0491 20.7616C25.0491 19.0216 26.4491 17.6116 28.1791 17.6116ZM28.5491 25.3616L28.6991 27.0016L28.1791 27.7316L27.6391 27.0316L27.7891 25.3616H28.5491ZM27.7891 25.2816V24.3416H28.5491V25.2816H27.7891ZM23.9291 27.3716C23.9291 25.7616 24.9191 24.3816 26.3291 23.8016C26.3591 24.4016 26.5091 25.3816 27.0791 26.4316C27.4391 27.0816 27.8391 27.5716 28.1791 27.9116C28.4991 27.5216 28.8591 27.0316 29.1891 26.4016C29.7091 25.4116 29.9191 24.4816 30.0291 23.8016C30.4191 23.9616 30.7591 24.1916 31.0691 24.4516C31.4891 24.8116 31.8291 25.2616 32.0591 25.7716C32.2891 26.2616 32.4191 26.7916 32.4191 27.3816V32.0216H23.9291V27.3816V27.3716ZM34.8591 37.7716H21.4891V37.0916H34.8591V37.7716ZM34.8591 36.1316H21.4891V35.4516H34.8591V36.1316ZM34.8591 34.4916H21.4891V33.8116H34.8591V34.4916Z" fill="url(#paint16_linear_9005_9442)"/>
</g>
<defs>
<linearGradient id="paint0_linear_9005_9442" x1="8.83687" y1="-2.87125" x2="8.83687" y2="27.7587" gradientUnits="userSpaceOnUse">
<stop stop-color="white"/>
<stop offset="0.49" stop-color="#969696"/>
</linearGradient>
<linearGradient id="paint1_linear_9005_9442" x1="15.3894" y1="-2.45969" x2="15.3894" y2="27.3603" gradientUnits="userSpaceOnUse">
<stop stop-color="white"/>
<stop offset="0.49" stop-color="#969696"/>
</linearGradient>
<linearGradient id="paint2_linear_9005_9442" x1="14.8516" y1="-2.86969" x2="14.8516" y2="27.7603" gradientUnits="userSpaceOnUse">
<stop stop-color="white"/>
<stop offset="0.49" stop-color="#969696"/>
</linearGradient>
<linearGradient id="paint3_linear_9005_9442" x1="6.51313" y1="-2.87" x2="6.51313" y2="27.76" gradientUnits="userSpaceOnUse">
<stop stop-color="white"/>
<stop offset="0.49" stop-color="#969696"/>
</linearGradient>
<linearGradient id="paint4_linear_9005_9442" x1="14.5994" y1="-2.91844" x2="14.5994" y2="27.7716" gradientUnits="userSpaceOnUse">
<stop stop-color="white"/>
<stop offset="0.49" stop-color="#969696"/>
</linearGradient>
<linearGradient id="paint5_linear_9005_9442" x1="9.45344" y1="-2.87062" x2="9.45344" y2="27.7594" gradientUnits="userSpaceOnUse">
<stop stop-color="white"/>
<stop offset="0.49" stop-color="#969696"/>
</linearGradient>
<linearGradient id="paint6_linear_9005_9442" x1="8.85031" y1="-2.87188" x2="8.85031" y2="27.7581" gradientUnits="userSpaceOnUse">
<stop stop-color="white"/>
<stop offset="0.49" stop-color="#969696"/>
</linearGradient>
<linearGradient id="paint7_linear_9005_9442" x1="9.37719" y1="-2.86969" x2="9.37719" y2="27.7603" gradientUnits="userSpaceOnUse">
<stop stop-color="white"/>
<stop offset="0.49" stop-color="#969696"/>
</linearGradient>
<linearGradient id="paint8_linear_9005_9442" x1="15.3894" y1="-2.87078" x2="15.3894" y2="27.7592" gradientUnits="userSpaceOnUse">
<stop stop-color="white"/>
<stop offset="0.49" stop-color="#969696"/>
</linearGradient>
<linearGradient id="paint9_linear_9005_9442" x1="21.5584" y1="5.46031" x2="21.5584" y2="19.5703" gradientUnits="userSpaceOnUse">
<stop stop-color="white"/>
<stop offset="0.49" stop-color="#969696"/>
</linearGradient>
<linearGradient id="paint10_linear_9005_9442" x1="21.2916" y1="-2.87031" x2="21.2916" y2="27.7597" gradientUnits="userSpaceOnUse">
<stop stop-color="white"/>
<stop offset="0.49" stop-color="#969696"/>
</linearGradient>
<linearGradient id="paint11_linear_9005_9442" x1="3.01344" y1="-2.8714" x2="3.01344" y2="27.7586" gradientUnits="userSpaceOnUse">
<stop stop-color="white"/>
<stop offset="0.49" stop-color="#969696"/>
</linearGradient>
<linearGradient id="paint12_linear_9005_9442" x1="2.94" y1="-2.87078" x2="2.94" y2="27.7592" gradientUnits="userSpaceOnUse">
<stop stop-color="white"/>
<stop offset="0.49" stop-color="#969696"/>
</linearGradient>
<linearGradient id="paint13_linear_9005_9442" x1="15.5097" y1="11.5897" x2="15.5097" y2="25.6097" gradientUnits="userSpaceOnUse">
<stop stop-color="white"/>
<stop offset="0.49" stop-color="#969696"/>
</linearGradient>
<linearGradient id="paint14_linear_9005_9442" x1="17.7219" y1="-2.87" x2="17.7219" y2="27.76" gradientUnits="userSpaceOnUse">
<stop stop-color="white"/>
<stop offset="0.49" stop-color="#969696"/>
</linearGradient>
<linearGradient id="paint15_linear_9005_9442" x1="6.61969" y1="-2.87156" x2="6.61969" y2="27.7584" gradientUnits="userSpaceOnUse">
<stop stop-color="white"/>
<stop offset="0.49" stop-color="#969696"/>
</linearGradient>
<linearGradient id="paint16_linear_9005_9442" x1="28.1691" y1="45.6216" x2="28.1691" y2="10.6016" gradientUnits="userSpaceOnUse">
<stop stop-color="white"/>
<stop offset="0.49" stop-color="#FF7928"/>
</linearGradient>
<clipPath id="clip0_9005_9442">
<rect width="39.06" height="40" fill="white"/>
</clipPath>
</defs>
</svg>
