<svg width="459" height="349" viewBox="0 0 459 349" fill="none" xmlns="http://www.w3.org/2000/svg">
<g clip-path="url(#clip0_9005_8896)">
<path d="M41.8496 26.0547V271.784L115.06 348.617H459V142.588L378.735 67.097H187.216L145.5 26.0547H41.8496Z" fill="#F37021"/>
<path d="M290.876 67.0977L459 242.839V216.011L316.54 67.0977H290.876Z" fill="#EDAA6F"/>
<path d="M209.071 67.0977L459 328.35V257.93L276.439 67.0977H209.071Z" fill="#EDAA6F"/>
<path d="M41.8452 93.5078V204.086L180.114 348.618H285.898L41.8452 93.5078Z" fill="#EDAA6F"/>
<path d="M13.9297 194.441L0.222367 175.163V167.082L13.9297 186.359V194.441Z" fill="#CBCBCB"/>
<path d="M13.9297 180.769L0.222367 161.491V153.41L13.9297 172.687V180.769Z" fill="#CBCBCB"/>
<path d="M13.9297 167.085L0.222367 147.809V139.727L13.9297 159.003V167.085Z" fill="#CBCBCB"/>
<path d="M13.9297 153.405L0.222367 134.129V126.047L13.9297 145.323V153.405Z" fill="#CBCBCB"/>
<path d="M13.9297 139.726L0.222367 120.449V112.367L13.9297 131.644V139.726Z" fill="#CBCBCB"/>
<path d="M13.9297 126.042L0.222367 106.766V98.6836L13.9297 117.961V126.042Z" fill="#CBCBCB"/>
<path d="M13.9297 112.366L0.222367 93.0898V85.0078L13.9297 104.285V112.366Z" fill="#CBCBCB"/>
<path d="M13.9297 98.6905L0.222367 79.414V71.332L13.9297 90.6097V98.6905Z" fill="#CBCBCB"/>
<path d="M13.9297 85.0109L0.222367 65.7343V57.6523L13.9297 76.93V85.0109Z" fill="#CBCBCB"/>
<path d="M13.9297 71.33L0.222367 52.0535V43.9727L13.9297 63.2492V71.33Z" fill="#CBCBCB"/>
<path d="M342.596 65.413L320.808 43.831L328.071 43.8242L349.859 65.4051L342.596 65.413Z" fill="#CBCBCB"/>
<path d="M331.08 65.413L309.291 43.831L316.556 43.8242L338.344 65.4051L331.08 65.413Z" fill="#CBCBCB"/>
<path d="M319.565 65.413L297.777 43.831L305.04 43.8242L326.828 65.4051L319.565 65.413Z" fill="#CBCBCB"/>
<path d="M308.056 65.413L286.268 43.831L293.532 43.8242L315.32 65.4051L308.056 65.413Z" fill="#CBCBCB"/>
<path d="M296.542 65.413L274.753 43.831L282.016 43.8242L303.805 65.4051L296.542 65.413Z" fill="#CBCBCB"/>
<path d="M285.026 65.413L263.237 43.831L270.501 43.8242L292.289 65.4051L285.026 65.413Z" fill="#CBCBCB"/>
<path d="M273.509 65.413L251.721 43.831L258.984 43.8242L280.773 65.4051L273.509 65.413Z" fill="#CBCBCB"/>
<path d="M261.995 65.413L240.206 43.831L247.47 43.8242L269.258 65.4051L261.995 65.413Z" fill="#CBCBCB"/>
<path d="M250.486 65.413L228.698 43.831L235.962 43.8242L257.75 65.4051L250.486 65.413Z" fill="#CBCBCB"/>
<path d="M238.971 65.413L217.183 43.831L224.446 43.8242L246.234 65.4051L238.971 65.413Z" fill="#CBCBCB"/>
<path d="M227.454 65.413L205.666 43.831L212.931 43.8242L234.719 65.4051L227.454 65.413Z" fill="#CBCBCB"/>
<path d="M215.948 65.413L194.16 43.831L201.423 43.8242L223.211 65.4051L215.948 65.413Z" fill="#CBCBCB"/>
<path d="M204.432 65.413L182.643 43.831L189.907 43.8242L211.695 65.4051L204.432 65.413Z" fill="#CBCBCB"/>
<path d="M192.915 65.413L171.127 43.831L178.39 43.8242L200.18 65.4051L192.915 65.413Z" fill="#CBCBCB"/>
<path d="M74.2213 323.711H419.102V124.91L331.978 39.2388H146.574L105.572 0.371094H0.810006V32.7395L17.7976 56.8355V207.934L0.625889 182.717L0.810006 246.3L74.2213 323.711Z" stroke="#CBCBCB" stroke-width="0.91984" stroke-miterlimit="10"/>
<path d="M378.008 67.0598L338.181 26.0547H144.784L159.121 39.4623L331.106 39.5919L359.429 67.2852L378.008 67.0598Z" fill="#CBCBCB"/>
<path d="M358.519 332.262H427.906V264.639L418.895 255.066V323.243H351.067L358.519 332.262Z" fill="#CBCBCB"/>
<mask id="path-32-inside-1_9005_8896" fill="white">
<path d="M427.938 270.45V84.1733L340.225 -0.0351562H101.544"/>
</mask>
<path d="M427.938 84.1733L428.575 83.5098L428.857 83.7813V84.1733H427.938ZM340.225 -0.0351562V-0.954996H340.595L340.862 -0.698702L340.225 -0.0351562ZM427.938 270.45H427.018V84.1733H427.938H428.857V270.45H427.938ZM427.938 84.1733L427.3 84.8369L339.588 0.628389L340.225 -0.0351562L340.862 -0.698702L428.575 83.5098L427.938 84.1733ZM340.225 -0.0351562V0.884683H101.544V-0.0351562V-0.954996H340.225V-0.0351562Z" fill="#CBCBCB" mask="url(#path-32-inside-1_9005_8896)"/>
</g>
<defs>
<clipPath id="clip0_9005_8896">
<rect width="459" height="348.619" fill="white" transform="matrix(-1 0 0 1 459 0)"/>
</clipPath>
</defs>
</svg>
