<svg width="42" height="40" viewBox="0 0 42 40" fill="none" xmlns="http://www.w3.org/2000/svg">
<g clip-path="url(#clip0_9005_9479)">
<path d="M41.2426 3.875H36.0451V6.12956H39.7621V12.3428C38.2501 13.3061 36.7276 14.2693 35.2156 15.2431C35.1841 15.6241 35.1106 16.1005 34.9426 16.6297C34.6696 17.4447 34.2811 18.0481 33.9766 18.4397C36.6541 16.852 39.3211 15.2537 41.9986 13.6659H42.0091V3.875H41.2531H41.2426Z" fill="url(#paint0_linear_9005_9479)"/>
<path d="M0.756 3.875H5.9535V6.12956H2.2365V12.3428L6.6255 15.1055C6.7095 15.5606 6.846 16.111 7.0875 16.7144C7.308 17.2754 7.56 17.7411 7.791 18.1116C5.1975 16.6297 2.604 15.1478 0.0105 13.6554H0V3.875H0.756Z" fill="url(#paint1_linear_9005_9479)"/>
<path d="M7.14844 0V10.3731C7.14844 10.3731 7.14844 10.426 7.14844 10.4472C7.17994 11.8973 7.38994 13.5168 7.91494 15.2104C9.95194 21.773 15.3594 25.2024 18.5934 26.7266C20.1474 27.457 21.9324 27.457 23.4864 26.7266C26.7204 25.2024 32.1279 21.773 34.1649 15.2104C34.6899 13.5168 34.8999 11.8973 34.9314 10.4472C34.9314 10.426 34.9314 10.3943 34.9314 10.3731V0H7.14844Z" fill="url(#paint2_linear_9005_9479)"/>
<path d="M24.8 32.9725H17.1875V27.9023C17.9225 28.2305 19.2665 28.7385 21.0305 28.728C22.7525 28.728 24.0755 28.2305 24.8 27.9023V32.9725Z" fill="url(#paint3_linear_9005_9479)"/>
<path d="M31.4179 34.1992H10.5859V39.9997H31.4179V34.1992Z" fill="url(#paint4_linear_9005_9479)"/>
</g>
<defs>
<linearGradient id="paint0_linear_9005_9479" x1="37.9876" y1="29.0245" x2="37.9876" y2="-25.4026" gradientUnits="userSpaceOnUse">
<stop stop-color="white"/>
<stop offset="0.49" stop-color="#969696"/>
</linearGradient>
<linearGradient id="paint1_linear_9005_9479" x1="3.8955" y1="29.0245" x2="3.8955" y2="-25.4026" gradientUnits="userSpaceOnUse">
<stop stop-color="white"/>
<stop offset="0.49" stop-color="#969696"/>
</linearGradient>
<linearGradient id="paint2_linear_9005_9479" x1="21.0609" y1="31.2781" x2="21.0609" y2="-7.48346" gradientUnits="userSpaceOnUse">
<stop stop-color="white"/>
<stop offset="0.49" stop-color="#FF7928"/>
</linearGradient>
<linearGradient id="paint3_linear_9005_9479" x1="20.999" y1="36.4549" x2="20.999" y2="19.1381" gradientUnits="userSpaceOnUse">
<stop stop-color="white"/>
<stop offset="0.49" stop-color="#FF7928"/>
</linearGradient>
<linearGradient id="paint4_linear_9005_9479" x1="2.24894" y1="37.0995" x2="76.9879" y2="37.0995" gradientUnits="userSpaceOnUse">
<stop stop-color="white"/>
<stop offset="0.49" stop-color="#969696"/>
</linearGradient>
<clipPath id="clip0_9005_9479">
<rect width="42" height="40" fill="white"/>
</clipPath>
</defs>
</svg>
