<svg width="164" height="31" viewBox="0 0 164 31" fill="none" xmlns="http://www.w3.org/2000/svg">
<path d="M163.586 8L142.629 22.9019L133.844 22.9019L154.8 8L163.586 8Z" fill="#F37021"/>
<path d="M148.719 8L127.762 22.9019L118.977 22.9019L139.933 8L148.719 8Z" fill="#F37021"/>
<path d="M133.844 8L112.888 22.9019L104.102 22.9019L125.058 8L133.844 8Z" fill="#F37021"/>
<path d="M118.969 8L98.0128 22.9019L89.2266 22.9019L110.183 8L118.969 8Z" fill="#F37021"/>
<path d="M104.102 8L83.1457 22.9019L74.3594 22.9019L95.3158 8L104.102 8Z" fill="#F37021"/>
<path d="M89.2271 8L68.2707 22.9019L59.4844 22.9019L80.442 8L89.2271 8Z" fill="#F37021"/>
<path d="M74.3599 8L53.4035 22.9019L44.6172 22.9019L65.5748 8L74.3599 8Z" fill="#F37021"/>
<path d="M59.4849 8L38.5285 22.9019L29.7422 22.9019L50.6998 8L59.4849 8Z" fill="#F37021"/>
<path d="M44.6177 8L23.6613 22.9019L14.875 22.9019L35.8326 8L44.6177 8Z" fill="#F37021"/>
<path d="M29.7415 8L8.78506 22.9019L6.51381e-07 22.9019L20.9564 8L29.7415 8Z" fill="#F37021"/>
</svg>
