<svg width="329" height="32" viewBox="0 0 329 32" fill="none" xmlns="http://www.w3.org/2000/svg">
<path d="M0 16H157.421" stroke="#CCCCCC"/>
<path d="M329.001 9.09765L308.043 23.9995L299.258 23.9995L320.214 9.09766L329.001 9.09765Z" fill="#CBCBCB"/>
<path d="M314.133 9.09765L293.176 23.9995L284.391 23.9995L305.347 9.09766L314.133 9.09765Z" fill="#CBCBCB"/>
<path d="M299.258 9.09765L278.302 23.9995L269.516 23.9995L290.472 9.09766L299.258 9.09765Z" fill="#CBCBCB"/>
<path d="M284.387 9.09765L263.431 23.9995L254.645 23.9995L275.601 9.09766L284.387 9.09765Z" fill="#CBCBCB"/>
<path d="M269.516 9.09765L248.56 23.9995L239.773 23.9995L260.73 9.09766L269.516 9.09765Z" fill="#CBCBCB"/>
<path d="M254.641 9.09765L233.685 23.9995L224.898 23.9995L245.856 9.09766L254.641 9.09765Z" fill="#CBCBCB"/>
<path d="M239.774 9.09765L218.818 23.9995L210.031 23.9995L230.989 9.09766L239.774 9.09765Z" fill="#CBCBCB"/>
<path d="M224.903 9.09765L203.946 23.9995L195.16 23.9995L216.118 9.09766L224.903 9.09765Z" fill="#CBCBCB"/>
<path d="M210.032 9.09765L189.075 23.9995L180.289 23.9995L201.247 9.09766L210.032 9.09765Z" fill="#CBCBCB"/>
<path d="M195.159 9.09765L174.203 23.9995L165.418 23.9995L186.374 9.09766L195.159 9.09765Z" fill="#CBCBCB"/>
</svg>
