<svg width="762" height="491" viewBox="0 0 762 491" fill="none" xmlns="http://www.w3.org/2000/svg">
<path d="M400.758 11.3726L401.175 0.285156H406.721" stroke="#FF5800" stroke-width="0.57" stroke-miterlimit="10"/>
<path d="M474.236 44.3952L396.145 10.0977" stroke="#FF5800" stroke-width="0.52" stroke-miterlimit="10"/>
<path d="M396.146 10.0977L0.261719 59.4837" stroke="#FF5800" stroke-width="0.52" stroke-miterlimit="10"/>
<path d="M0.261719 58.1133V165.126" stroke="#FF5800" stroke-width="0.52" stroke-miterlimit="10"/>
<path d="M235.867 147.289L456.428 126.727" stroke="#FF5800" stroke-width="0.52" stroke-miterlimit="10"/>
<path d="M456.438 126.727L638.618 189.828" stroke="#FF5800" stroke-width="0.52" stroke-miterlimit="10"/>
<path d="M675.602 204.918L800.262 248.83L799.964 490.167" stroke="#FF5800" stroke-width="0.52" stroke-miterlimit="10"/>
<path d="M419.438 475.197L800.256 490.286" stroke="#FF5800" stroke-width="0.52" stroke-miterlimit="10"/>
<path d="M638.617 189.83V158.279" stroke="#FF5800" stroke-width="0.52" stroke-miterlimit="10"/>
<path d="M638.606 158.279L567.371 161.026" stroke="#FF5800" stroke-width="0.52" stroke-miterlimit="10"/>
<path d="M638.617 158.279L675.606 174.741" stroke="#FF5800" stroke-width="0.52" stroke-miterlimit="10"/>
<path d="M675.602 174.742V204.919" stroke="#FF5800" stroke-width="0.52" stroke-miterlimit="10"/>
<path d="M456.438 126.727V176.113" stroke="#FF5800" stroke-width="0.52" stroke-miterlimit="10"/>
<path d="M456.426 176.113L419.438 177.487" stroke="#FF5800" stroke-width="0.52" stroke-miterlimit="10"/>
<path d="M419.438 177.486V254.302" stroke="#FF5800" stroke-width="0.52" stroke-miterlimit="10"/>
<path d="M419.438 254.301L456.426 252.928" stroke="#FF5800" stroke-width="0.52" stroke-miterlimit="10"/>
<path d="M456.438 252.928V288.599" stroke="#FF5800" stroke-width="0.52" stroke-miterlimit="10"/>
<path d="M456.426 288.6H419.438" stroke="#FF5800" stroke-width="0.52" stroke-miterlimit="10"/>
<path d="M419.438 288.6V344.853" stroke="#FF5800" stroke-width="0.52" stroke-miterlimit="10"/>
<path d="M419.438 344.854H456.426" stroke="#FF5800" stroke-width="0.52" stroke-miterlimit="10"/>
<path d="M456.438 344.854V379.151" stroke="#FF5800" stroke-width="0.52" stroke-miterlimit="10"/>
<path d="M456.426 379.152H419.438" stroke="#FF5800" stroke-width="0.52" stroke-miterlimit="10"/>
<path d="M419.438 379.152V475.197" stroke="#FF5800" stroke-width="0.52" stroke-miterlimit="10"/>
<path d="M419.44 475.197H0.261719" stroke="#FF5800" stroke-width="0.52" stroke-miterlimit="10"/>
<path d="M729.203 257.746L766.709 268.953" stroke="#FF5800" stroke-width="0.52" stroke-miterlimit="10"/>
<path d="M645.406 232.664L710.678 252.192" stroke="#FF5800" stroke-width="0.52" stroke-miterlimit="10"/>
<path d="M624.617 226.436L633.283 229.023" stroke="#FF5800" stroke-width="0.52" stroke-miterlimit="10"/>
<path d="M566.781 209.137L602.438 219.806" stroke="#FF5800" stroke-width="0.52" stroke-miterlimit="10"/>
<path d="M539.324 200.918L551.945 204.7" stroke="#FF5800" stroke-width="0.52" stroke-miterlimit="10"/>
<path d="M511.582 192.615L523.13 196.079" stroke="#FF5800" stroke-width="0.52" stroke-miterlimit="10"/>
<path d="M456.438 176.113L494.46 187.479" stroke="#FF5800" stroke-width="0.52" stroke-miterlimit="10"/>
<path d="M729.242 267.877L766.827 278.845" stroke="#FF5800" stroke-width="0.52" stroke-miterlimit="10"/>
<path d="M645.586 243.473L710.52 262.423" stroke="#FF5800" stroke-width="0.52" stroke-miterlimit="10"/>
<path d="M624.617 237.363L633.263 239.871" stroke="#FF5800" stroke-width="0.52" stroke-miterlimit="10"/>
<path d="M566.781 220.486L602.319 230.837" stroke="#FF5800" stroke-width="0.52" stroke-miterlimit="10"/>
<path d="M539.688 212.561L551.613 216.044" stroke="#FF5800" stroke-width="0.52" stroke-miterlimit="10"/>
<path d="M511.582 204.357L523.209 207.761" stroke="#FF5800" stroke-width="0.52" stroke-miterlimit="10"/>
<path d="M419.438 177.486L494.369 199.343" stroke="#FF5800" stroke-width="0.52" stroke-miterlimit="10"/>
<path d="M728.949 316.01L767.23 324.868" stroke="#FF5800" stroke-width="0.52" stroke-miterlimit="10"/>
<path d="M646.398 296.9L710.597 311.75" stroke="#FF5800" stroke-width="0.52" stroke-miterlimit="10"/>
<path d="M625.609 292.082L634.375 294.112" stroke="#FF5800" stroke-width="0.52" stroke-miterlimit="10"/>
<path d="M566.781 278.469L603.174 286.889" stroke="#FF5800" stroke-width="0.52" stroke-miterlimit="10"/>
<path d="M539.707 272.217L551.593 274.964" stroke="#FF5800" stroke-width="0.52" stroke-miterlimit="10"/>
<path d="M511.32 265.65L523.365 268.437" stroke="#FF5800" stroke-width="0.52" stroke-miterlimit="10"/>
<path d="M456.438 252.928L494.142 261.666" stroke="#FF5800" stroke-width="0.52" stroke-miterlimit="10"/>
<path d="M511.32 299.787L523.504 302.255" stroke="#FF5800" stroke-width="0.52" stroke-miterlimit="10"/>
<path d="M456.438 288.6L494.062 296.263" stroke="#FF5800" stroke-width="0.52" stroke-miterlimit="10"/>
<path d="M728.949 351.365L767.607 358.989" stroke="#FF5800" stroke-width="0.52" stroke-miterlimit="10"/>
<path d="M646.977 335.16L710.499 347.721" stroke="#FF5800" stroke-width="0.52" stroke-miterlimit="10"/>
<path d="M626.145 331.057L635.009 332.808" stroke="#FF5800" stroke-width="0.52" stroke-miterlimit="10"/>
<path d="M570.441 320.051L603.833 326.659" stroke="#FF5800" stroke-width="0.52" stroke-miterlimit="10"/>
<path d="M540.359 314.119L555.445 317.105" stroke="#FF5800" stroke-width="0.52" stroke-miterlimit="10"/>
<path d="M728.949 343.121L767.468 350.725" stroke="#FF5800" stroke-width="0.52" stroke-miterlimit="10"/>
<path d="M646.977 326.938L710.718 339.518" stroke="#FF5800" stroke-width="0.52" stroke-miterlimit="10"/>
<path d="M626.145 322.816L634.771 324.528" stroke="#FF5800" stroke-width="0.52" stroke-miterlimit="10"/>
<path d="M567.676 311.295L603.869 318.421" stroke="#FF5800" stroke-width="0.52" stroke-miterlimit="10"/>
<path d="M540.359 305.898L552.722 308.327" stroke="#FF5800" stroke-width="0.52" stroke-miterlimit="10"/>
<path d="M508.148 307.768L523.751 310.833" stroke="#FF5800" stroke-width="0.52" stroke-miterlimit="10"/>
<path d="M418.07 289.973L491.372 304.444" stroke="#FF5800" stroke-width="0.52" stroke-miterlimit="10"/>
<path d="M729 393.801L767.778 400.748" stroke="#FF5800" stroke-width="0.52" stroke-miterlimit="10"/>
<path d="M650.262 379.648L710.406 390.457" stroke="#FF5800" stroke-width="0.52" stroke-miterlimit="10"/>
<path d="M627.277 375.529L638.209 377.5" stroke="#FF5800" stroke-width="0.52" stroke-miterlimit="10"/>
<path d="M586.852 368.26L604.501 371.445" stroke="#FF5800" stroke-width="0.52" stroke-miterlimit="10"/>
<path d="M541.059 360.043L570.435 365.338" stroke="#FF5800" stroke-width="0.52" stroke-miterlimit="10"/>
<path d="M490.555 350.986L524.125 357.018" stroke="#FF5800" stroke-width="0.52" stroke-miterlimit="10"/>
<path d="M456.438 344.854L473.928 347.999" stroke="#FF5800" stroke-width="0.52" stroke-miterlimit="10"/>
<path d="M488.961 384.088L800.254 431.284" stroke="#FF5800" stroke-width="0.52" stroke-miterlimit="10"/>
<path d="M456.438 379.152L470.768 381.322" stroke="#FF5800" stroke-width="0.52" stroke-miterlimit="10"/>
<path d="M488.961 390.793L800.254 436.775" stroke="#FF5800" stroke-width="0.52" stroke-miterlimit="10"/>
<path d="M419.438 380.523L470.399 388.048" stroke="#FF5800" stroke-width="0.52" stroke-miterlimit="10"/>
<path d="M53.6797 202.169L115.314 198.049" stroke="#FF5800" stroke-width="0.52" stroke-miterlimit="10"/>
<path d="M222.168 189.828L244.091 195.322" stroke="#FF5800" stroke-width="0.52" stroke-miterlimit="10"/>
<path d="M244.094 150.037V195.323L173.734 200.12L173.814 192.576L222.171 189.829V143.189" stroke="#FF5800" stroke-width="0.52" stroke-miterlimit="10"/>
<path d="M222.168 143.189L244.091 150.037" stroke="#FF5800" stroke-width="0.52" stroke-miterlimit="10"/>
<path d="M239.984 303.69V270.766" stroke="#FF5800" stroke-width="0.52" stroke-miterlimit="10"/>
<path d="M239.981 270.767L219.43 265.293" stroke="#FF5800" stroke-width="0.52" stroke-miterlimit="10"/>
<path d="M219.43 265.293V300.964" stroke="#FF5800" stroke-width="0.52" stroke-miterlimit="10"/>
<path d="M219.43 300.963L239.981 303.69" stroke="#FF5800" stroke-width="0.52" stroke-miterlimit="10"/>
<path d="M53.0352 275.783L112.603 272.141" stroke="#FF5800" stroke-width="0.52" stroke-miterlimit="10"/>
<path d="M19.4375 277.631L36.789 276.775" stroke="#FF5800" stroke-width="0.52" stroke-miterlimit="10"/>
<path d="M0.261719 279.007L1.33418 278.928" stroke="#FF5800" stroke-width="0.52" stroke-miterlimit="10"/>
<path d="M36.7904 310.1L18.6836 311.015" stroke="#FF5800" stroke-width="0.52" stroke-miterlimit="10"/>
<path d="M120.446 305.922L53.0078 309.286" stroke="#FF5800" stroke-width="0.52" stroke-miterlimit="10"/>
<path d="M219.431 300.963L176.977 302.316" stroke="#FF5800" stroke-width="0.52" stroke-miterlimit="10"/>
<path d="M36.7925 313.023L18.7852 313.84" stroke="#FF5800" stroke-width="0.52" stroke-miterlimit="10"/>
<path d="M122.175 309.182L53.0078 312.287" stroke="#FF5800" stroke-width="0.52" stroke-miterlimit="10"/>
<path d="M239.982 303.688L178.348 305.061" stroke="#FF5800" stroke-width="0.52" stroke-miterlimit="10"/>
<path d="M113.943 204.918L53.6797 209.038" stroke="#FF5800" stroke-width="0.52" stroke-miterlimit="10"/>
<path d="M36.5426 159.992L35.8867 378.477H53.6953V158.439L36.5426 159.992Z" stroke="#FF5800" stroke-width="0.52" stroke-miterlimit="10"/>
<path d="M177.094 303.069L172.861 295.465L174.232 147.287L115.321 152.781L112.598 294.092L164.632 379.149H219.43L177.094 303.069Z" stroke="#FF5800" stroke-width="0.52" stroke-miterlimit="10"/>
<path d="M36.3964 202.168L19.3828 203.243V210.25L36.3964 209.314V202.168Z" stroke="#FF5800" stroke-width="0.52" stroke-miterlimit="10"/>
<path d="M0.261719 73.0628L45.4591 69.1016V158.279" stroke="#FF5800" stroke-width="0.52" stroke-miterlimit="10"/>
<path d="M60.544 66.3543L148.216 56.7598V149.719L59.8086 157.881L60.544 66.3543Z" stroke="#FF5800" stroke-width="0.52" stroke-miterlimit="10"/>
<path d="M235.868 147.292L256.837 145.341L256.42 43.0254L164.634 52.6399V148.386L222.174 143.191L115.561 152.825L0.261719 163.276V378.477H19.4418L19.3821 161.544" stroke="#FF5800" stroke-width="0.52" stroke-miterlimit="10"/>
<path d="M274.445 143.705L274.227 38.9211L396.144 25.5246L412.581 32.0537V130.806L396.144 132.199V10.0977" stroke="#FF5800" stroke-width="0.52" stroke-miterlimit="10"/>
<path d="M416.779 130.412L416.699 33.4316L433.136 40.2792V128.899L416.779 130.412Z" stroke="#FF5800" stroke-width="0.52" stroke-miterlimit="10"/>
<path d="M438.621 43.0254L437.926 128.441L455.536 126.709L455.059 49.8929L438.621 43.0254Z" stroke="#FF5800" stroke-width="0.52" stroke-miterlimit="10"/>
<path d="M474.239 44.3984V58.8699V132.203L457.961 127.246L459.173 52.6394L474.239 58.1334" stroke="#FF5800" stroke-width="0.52" stroke-miterlimit="10"/>
<path d="M204.345 352.418L222.234 351.721V372.284C222.929 405.905 222.929 438.829 222.929 473.126C222.929 474.5 220.186 475.873 218.815 475.873H0.937493C0.937493 372.98 0.937493 268.714 0.261719 165.125" stroke="#FF5800" stroke-width="0.52" stroke-miterlimit="10"/>
<path d="M53.6797 358.566L149.56 354.445" stroke="#FF5800" stroke-width="0.52" stroke-miterlimit="10"/>
<path d="M19.4375 359.703C24.9828 359.703 30.5281 359.584 36.1132 359.365" stroke="#FF5800" stroke-width="0.52" stroke-miterlimit="10"/>
<path d="M244.091 475.178V365.438L222.168 351.723V475.178H244.091Z" stroke="#FF5800" stroke-width="0.52" stroke-miterlimit="10"/>
<path d="M493.968 139.727L493.412 298.216L470.117 355.823V477.188L490.669 477.925L489.297 355.823L512.075 299.928V145.997L493.968 139.727Z" stroke="#FF5800" stroke-width="0.52" stroke-miterlimit="10"/>
<path d="M67.3828 73.2212V86.9362L81.0772 85.5627V71.8477L67.3828 73.2212Z" stroke="#FF5800" stroke-width="0.52" stroke-miterlimit="10"/>
<path d="M86.5664 71.1508V84.8659L100.261 83.5123V69.7773L86.5664 71.1508Z" stroke="#FF5800" stroke-width="0.52" stroke-miterlimit="10"/>
<path d="M105.742 69.1001V82.8151L119.437 81.4416V67.7266L105.742 69.1001Z" stroke="#FF5800" stroke-width="0.52" stroke-miterlimit="10"/>
<path d="M124.918 67.0473V80.7624L138.612 79.3889V65.6738L124.918 67.0473Z" stroke="#FF5800" stroke-width="0.52" stroke-miterlimit="10"/>
<path d="M67.3828 99.2778V112.993L81.0772 111.619V97.9043L67.3828 99.2778Z" stroke="#FF5800" stroke-width="0.52" stroke-miterlimit="10"/>
<path d="M86.5664 97.2251V110.94L100.261 109.567V95.8516L86.5664 97.2251Z" stroke="#FF5800" stroke-width="0.52" stroke-miterlimit="10"/>
<path d="M105.742 95.1567V108.892L119.437 107.518V93.7832L105.742 95.1567Z" stroke="#FF5800" stroke-width="0.52" stroke-miterlimit="10"/>
<path d="M124.918 93.1059V106.821L138.612 105.447V91.7324L124.918 93.1059Z" stroke="#FF5800" stroke-width="0.52" stroke-miterlimit="10"/>
<path d="M67.3828 128.079V141.814L81.0772 140.44V126.705L67.3828 128.079Z" stroke="#FF5800" stroke-width="0.52" stroke-miterlimit="10"/>
<path d="M86.5664 126.032V139.747L100.261 138.373V124.658L86.5664 126.032Z" stroke="#FF5800" stroke-width="0.52" stroke-miterlimit="10"/>
<path d="M105.742 123.981V137.696L119.437 136.322V122.607L105.742 123.981Z" stroke="#FF5800" stroke-width="0.52" stroke-miterlimit="10"/>
<path d="M124.918 121.911V135.646L138.612 134.272V120.537L124.918 121.911Z" stroke="#FF5800" stroke-width="0.52" stroke-miterlimit="10"/>
<path d="M172.863 60.8598V74.5749L187.214 73.2213V59.4863L172.863 60.8598Z" stroke="#FF5800" stroke-width="0.52" stroke-miterlimit="10"/>
<path d="M192.957 58.811V72.526L207.327 71.1525V57.4375L192.957 58.811Z" stroke="#FF5800" stroke-width="0.52" stroke-miterlimit="10"/>
<path d="M213.07 56.7583V70.4733L227.421 69.0998V55.3848L213.07 56.7583Z" stroke="#FF5800" stroke-width="0.52" stroke-miterlimit="10"/>
<path d="M233.168 54.6879V68.403L247.518 67.0494V53.3145L233.168 54.6879Z" stroke="#FF5800" stroke-width="0.52" stroke-miterlimit="10"/>
<path d="M172.863 86.934V100.649L187.214 99.2756V85.5605L172.863 86.934Z" stroke="#FF5800" stroke-width="0.52" stroke-miterlimit="10"/>
<path d="M192.957 84.8673V98.6022L207.327 97.2287V83.5137L192.957 84.8673Z" stroke="#FF5800" stroke-width="0.52" stroke-miterlimit="10"/>
<path d="M213.07 82.8149V96.5299L227.421 95.1564V81.4414L213.07 82.8149Z" stroke="#FF5800" stroke-width="0.52" stroke-miterlimit="10"/>
<path d="M233.168 80.7641V94.4792L247.518 93.1057V79.3906L233.168 80.7641Z" stroke="#FF5800" stroke-width="0.52" stroke-miterlimit="10"/>
<path d="M172.863 115.739V129.454L187.214 128.08V114.365L172.863 115.739Z" stroke="#FF5800" stroke-width="0.52" stroke-miterlimit="10"/>
<path d="M192.957 113.686V127.401L207.327 126.028V112.312L192.957 113.686Z" stroke="#FF5800" stroke-width="0.52" stroke-miterlimit="10"/>
<path d="M213.07 111.617V125.352L227.421 123.979V110.264L213.07 111.617Z" stroke="#FF5800" stroke-width="0.52" stroke-miterlimit="10"/>
<path d="M233.168 109.569V123.284L247.518 121.91V108.195L233.168 109.569Z" stroke="#FF5800" stroke-width="0.52" stroke-miterlimit="10"/>
<path d="M4.375 80.0688L18.0694 78.6953V92.4303L4.375 93.7838V80.0688Z" stroke="#FF5800" stroke-width="0.52" stroke-miterlimit="10"/>
<path d="M24.9297 78.6938L38.624 77.3203V91.0553L24.9297 92.4288V78.6938Z" stroke="#FF5800" stroke-width="0.52" stroke-miterlimit="10"/>
<path d="M4.375 106.143L18.0694 104.77V118.485L4.375 119.858V106.143Z" stroke="#FF5800" stroke-width="0.52" stroke-miterlimit="10"/>
<path d="M24.9297 104.772L38.624 103.398V117.113L24.9297 118.487V104.772Z" stroke="#FF5800" stroke-width="0.52" stroke-miterlimit="10"/>
<path d="M5.75 132.202L19.4444 130.828V144.563L5.75 145.917V132.202Z" stroke="#FF5800" stroke-width="0.52" stroke-miterlimit="10"/>
<path d="M26.2773 130.831L39.9916 129.457V143.192L26.2773 144.565V130.831Z" stroke="#FF5800" stroke-width="0.52" stroke-miterlimit="10"/>
<path d="M407.113 14.2189V0.503906L464.634 27.934V40.1959L407.113 14.2189Z" stroke="#FF5800" stroke-width="0.52" stroke-miterlimit="10"/>
<path d="M422.184 58.1338L427.649 60.8609V45.7724L422.184 43.0254V58.1338Z" stroke="#FF5800" stroke-width="0.52" stroke-miterlimit="10"/>
<path d="M422.184 85.5612L427.649 88.3082V73.2196L422.184 70.4727V85.5612Z" stroke="#FF5800" stroke-width="0.52" stroke-miterlimit="10"/>
<path d="M422.184 114.366L427.649 117.113V102.024L422.184 99.2773V114.366Z" stroke="#FF5800" stroke-width="0.52" stroke-miterlimit="10"/>
<path d="M444.406 121.552L449.256 123.981V110.624L444.406 108.195V121.552Z" stroke="#FF5800" stroke-width="0.52" stroke-miterlimit="10"/>
<path d="M444.406 94.1005L449.256 96.529V83.1922L444.406 80.7637V94.1005Z" stroke="#FF5800" stroke-width="0.52" stroke-miterlimit="10"/>
<path d="M444.406 68.0462L449.256 70.4747V57.118L444.406 54.6895V68.0462Z" stroke="#FF5800" stroke-width="0.52" stroke-miterlimit="10"/>
<path d="M196.893 266.644V265.868L196.158 222.752H226.289V267.122L219.432 265.29L172.863 268.018" stroke="#FF5800" stroke-width="0.52" stroke-miterlimit="10"/>
<path d="M194.766 334.802L194.785 314.678H224.917L225.454 353.773" stroke="#FF5800" stroke-width="0.52" stroke-miterlimit="10"/>
<path d="M53.6797 322.76C55.0511 322.859 81.0684 322.859 81.0684 322.859V357.396L53.6797 358.073V322.76Z" stroke="#FF5800" stroke-width="0.52" stroke-miterlimit="10"/>
<path d="M80.0945 274.127L79.697 233.719L53.6797 235.092V276.257L80.0945 274.127Z" stroke="#FF5800" stroke-width="0.52" stroke-miterlimit="10"/>
<path d="M282.457 47.1411L296.151 45.7676V59.4826L282.457 60.8561V47.1411Z" stroke="#FF5800" stroke-width="0.52" stroke-miterlimit="10"/>
<path d="M304.359 45.0922L318.074 43.7188V57.4338L304.359 58.8073V45.0922Z" stroke="#FF5800" stroke-width="0.52" stroke-miterlimit="10"/>
<path d="M329.027 42.3442L342.722 40.9707V54.6857L329.027 56.0592V42.3442Z" stroke="#FF5800" stroke-width="0.52" stroke-miterlimit="10"/>
<path d="M350.949 39.6001L364.644 38.2266V51.9416L350.949 53.3151V39.6001Z" stroke="#FF5800" stroke-width="0.52" stroke-miterlimit="10"/>
<path d="M374.242 36.852L387.937 35.4785V49.1936L374.242 50.5671V36.852Z" stroke="#FF5800" stroke-width="0.52" stroke-miterlimit="10"/>
<path d="M329.027 69.7797L342.722 68.4062V82.1412L329.027 83.5147V69.7797Z" stroke="#FF5800" stroke-width="0.52" stroke-miterlimit="10"/>
<path d="M350.949 67.0473L364.644 65.6738V79.3889L350.949 80.7624V67.0473Z" stroke="#FF5800" stroke-width="0.52" stroke-miterlimit="10"/>
<path d="M374.242 64.3032L387.937 62.9297V76.6447L374.242 78.0182V64.3032Z" stroke="#FF5800" stroke-width="0.52" stroke-miterlimit="10"/>
<path d="M329.027 97.2251L342.722 95.8516V109.567L329.027 110.94V97.2251Z" stroke="#FF5800" stroke-width="0.52" stroke-miterlimit="10"/>
<path d="M350.949 94.4809L364.644 93.1074V106.822L350.949 108.196V94.4809Z" stroke="#FF5800" stroke-width="0.52" stroke-miterlimit="10"/>
<path d="M374.242 91.7309L387.937 90.3574V104.072L374.242 105.446V91.7309Z" stroke="#FF5800" stroke-width="0.52" stroke-miterlimit="10"/>
<path d="M282.457 74.5743L296.151 73.2207V86.9357L282.457 88.3092V74.5743Z" stroke="#FF5800" stroke-width="0.52" stroke-miterlimit="10"/>
<path d="M304.359 72.5219L318.074 71.1484V84.8635L304.359 86.237V72.5219Z" stroke="#FF5800" stroke-width="0.52" stroke-miterlimit="10"/>
<path d="M282.457 102.022L296.151 100.648V114.363L282.457 115.737V102.022Z" stroke="#FF5800" stroke-width="0.52" stroke-miterlimit="10"/>
<path d="M304.359 99.9751L318.074 98.6016V112.317L304.359 113.69V99.9751Z" stroke="#FF5800" stroke-width="0.52" stroke-miterlimit="10"/>
<path d="M522.496 149.596L523.55 388.743L541.756 392.087L539.649 155.548L522.496 149.596Z" stroke="#FF5800" stroke-width="0.52" stroke-miterlimit="10"/>
<path d="M551.47 159.652L550.934 305.064L579.972 397.884L598.317 400.671L567.371 309.184V166.5V161.026" stroke="#FF5800" stroke-width="0.52" stroke-miterlimit="10"/>
<path d="M601.145 176.85L604.364 401.107L628.335 405.228L624.22 184.832L601.145 176.85Z" stroke="#FF5800" stroke-width="0.52" stroke-miterlimit="10"/>
<path d="M632.168 187.6L634.513 364.064L643.219 407.478L657.509 409.648L648.208 365.437L645.465 192.576L632.168 187.6Z" stroke="#FF5800" stroke-width="0.52" stroke-miterlimit="10"/>
<path d="M710.043 217.037V417.607L729.72 420.593V223.984L710.043 217.037Z" stroke="#FF5800" stroke-width="0.52" stroke-miterlimit="10"/>
</svg>
