<svg width="834" height="572" viewBox="0 0 834 572" fill="none" xmlns="http://www.w3.org/2000/svg">
<g clip-path="url(#clip0_3692_75459)">
<path d="M507.996 288.924V297.738" stroke="#FF5800" stroke-width="0.75" stroke-miterlimit="10"/>
<path d="M415.238 507.567L252.121 588.637V439.32L415.238 370.053V507.567Z" stroke="#FF5800" stroke-width="0.75" stroke-miterlimit="10"/>
<path d="M193.947 546.32L175.156 561.748V405.789L192.179 395.145L193.947 546.32Z" stroke="#FF5800" stroke-width="0.75" stroke-miterlimit="10"/>
<path d="M561.979 433.23L438.777 493.432V363.415L561.979 313.492V433.23Z" stroke="#FF5800" stroke-width="0.75" stroke-miterlimit="10"/>
<path d="M174.967 561.308L22.418 474.127L24.9813 333.881L174.967 405.583V561.308Z" stroke="#FF5800" stroke-width="0.75" stroke-miterlimit="10"/>
<path d="M193.947 554.256L175.156 569.684V413.725L192.179 403.08L193.947 554.256Z" stroke="#FF5800" stroke-width="0.75" stroke-miterlimit="10"/>
<path d="M175.373 569.24L22.8242 482.064L25.3876 341.818L175.373 413.515V569.24Z" stroke="#FF5800" stroke-width="0.75" stroke-miterlimit="10"/>
<path d="M252.333 588.636L193.559 554.98L192.18 403.08L252.333 445.248V588.636Z" stroke="#FF5800" stroke-width="0.75" stroke-miterlimit="10"/>
<path d="M252.333 580.7L193.559 547.05L192.18 395.145L252.333 437.319V580.7Z" stroke="#FF5800" stroke-width="0.75" stroke-miterlimit="10"/>
<path d="M24.9827 333.881L41.7934 327.712L0.21875 303.914V431.73L22.9057 447.598" stroke="#FF5800" stroke-width="0.75" stroke-miterlimit="10"/>
<path d="M32.9475 330.358L0.21875 311.846V439.662L22.9057 455.529" stroke="#FF5800" stroke-width="0.75" stroke-miterlimit="10"/>
<path d="M0.21875 303.915L153.254 264.243V259.682L149.718 257.191L181.566 247.498L199.257 253.667L296.568 226.34L338.143 241.329L354.953 237.8L507.995 288.925L499.149 295.1L561.98 313.493" stroke="#FF5800" stroke-width="0.75" stroke-miterlimit="10"/>
<path d="M550.114 318.304L499.15 302.146V295.099L352.3 246.613L338.144 250.143L296.57 234.275L208.992 256.312L227.565 263.364L228.451 266.01L222.26 266.888L224.028 268.65L294.801 262.481L419.531 307.437V310.083H414.221V318.304L391.225 324.188L434.568 340.933V344.463L393.875 360.324L346.109 340.055V342.695L267.377 371.784L144.41 318.013V309.929L139.105 307.437L181.567 285.401L153.255 274.825V261.044" stroke="#FF5800" stroke-width="0.75" stroke-miterlimit="10"/>
<path d="M192.18 274.826L208.99 266.012L222.259 266.89" stroke="#FF5800" stroke-width="0.75" stroke-miterlimit="10"/>
<path d="M181.566 247.498L227.564 263.365" stroke="#FF5800" stroke-width="0.75" stroke-miterlimit="10"/>
<path d="M149.719 257.191L192.18 274.826" stroke="#FF5800" stroke-width="0.75" stroke-miterlimit="10"/>
<path d="M171.832 251.021L208.927 265.999" stroke="#FF5800" stroke-width="0.75" stroke-miterlimit="10"/>
<path d="M181.566 285.402L211.646 269.535" stroke="#FF5800" stroke-width="0.75" stroke-miterlimit="10"/>
<path d="M224.913 268.65L211.645 269.534" stroke="#FF5800" stroke-width="0.75" stroke-miterlimit="10"/>
<path d="M188.645 273.941V281.872" stroke="#FF5800" stroke-width="0.75" stroke-miterlimit="10"/>
<path d="M211.645 269.535L344.339 318.899" stroke="#FF5800" stroke-width="0.75" stroke-miterlimit="10"/>
<path d="M267.375 362.971V371.785" stroke="#FF5800" stroke-width="0.75" stroke-miterlimit="10"/>
<path d="M262.953 364.738L346.108 321.543" stroke="#FF5800" stroke-width="0.75" stroke-miterlimit="10"/>
<path d="M414.222 310.084L346.109 321.544" stroke="#FF5800" stroke-width="0.75" stroke-miterlimit="10"/>
<path d="M417.762 306.555L344.34 318.898" stroke="#FF5800" stroke-width="0.75" stroke-miterlimit="10"/>
<path d="M262.066 362.093L344.34 318.898" stroke="#FF5800" stroke-width="0.75" stroke-miterlimit="10"/>
<path d="M262.066 362.092L262.953 364.737" stroke="#FF5800" stroke-width="0.75" stroke-miterlimit="10"/>
<path d="M139.105 307.438L262.067 362.092" stroke="#FF5800" stroke-width="0.75" stroke-miterlimit="10"/>
<path d="M144.41 312.729L262.955 364.738" stroke="#FF5800" stroke-width="0.75" stroke-miterlimit="10"/>
<path d="M352.299 342.695L335.488 335.643" stroke="#FF5800" stroke-width="0.75" stroke-miterlimit="10"/>
<path d="M404.494 329.475L382.379 320.66" stroke="#FF5800" stroke-width="0.75" stroke-miterlimit="10"/>
<path d="M362.032 321.543L335.488 335.643" stroke="#FF5800" stroke-width="0.75" stroke-miterlimit="10"/>
<path d="M382.378 320.66L362.031 321.544" stroke="#FF5800" stroke-width="0.75" stroke-miterlimit="10"/>
<path d="M395.648 359.447V376.193" stroke="#FF5800" stroke-width="0.75" stroke-miterlimit="10"/>
<path d="M423.953 348.871V361.209" stroke="#FF5800" stroke-width="0.75" stroke-miterlimit="10"/>
<path d="M346.109 355.917V340.934" stroke="#FF5800" stroke-width="0.75" stroke-miterlimit="10"/>
<path d="M395.649 376.193L346.109 355.918" stroke="#FF5800" stroke-width="0.75" stroke-miterlimit="10"/>
<path d="M414.668 369.585L401.84 367.379" stroke="#FF5800" stroke-width="0.75" stroke-miterlimit="10"/>
<path d="M401.84 376.193V366.939" stroke="#FF5800" stroke-width="0.75" stroke-miterlimit="10"/>
<path d="M438.989 363.855L421.297 360.326" stroke="#FF5800" stroke-width="0.75" stroke-miterlimit="10"/>
<path d="M401.84 367.379L421.3 360.326" stroke="#FF5800" stroke-width="0.75" stroke-miterlimit="10"/>
<path d="M438.989 493.433L421.297 487.264" stroke="#FF5800" stroke-width="0.75" stroke-miterlimit="10"/>
<path d="M415.105 489.909L421.296 487.264" stroke="#FF5800" stroke-width="0.75" stroke-miterlimit="10"/>
<path d="M421.297 360.326V487.265" stroke="#FF5800" stroke-width="0.75" stroke-miterlimit="10"/>
<path d="M395.648 376.193L400.953 373.553" stroke="#FF5800" stroke-width="0.75" stroke-miterlimit="10"/>
<path d="M10.832 310.083L153.253 270.418" stroke="#FF5800" stroke-width="0.75" stroke-miterlimit="10"/>
<path d="M252.332 444.954L415.106 376.193" stroke="#FF5800" stroke-width="0.75" stroke-miterlimit="10"/>
<path d="M252.332 455.53L415.106 386.775" stroke="#FF5800" stroke-width="0.75" stroke-miterlimit="10"/>
<path d="M252.332 499.601L414.219 428.201" stroke="#FF5800" stroke-width="0.75" stroke-miterlimit="10"/>
<path d="M438.988 423.794L561.956 366.5" stroke="#FF5800" stroke-width="0.75" stroke-miterlimit="10"/>
<path d="M438.988 452.883L561.069 398.234" stroke="#FF5800" stroke-width="0.75" stroke-miterlimit="10"/>
<path d="M438.988 482.857L561.956 423.795" stroke="#FF5800" stroke-width="0.75" stroke-miterlimit="10"/>
<path d="M252.332 533.097L415.106 459.936" stroke="#FF5800" stroke-width="0.75" stroke-miterlimit="10"/>
<path d="M252.332 565.717L415.106 489.91" stroke="#FF5800" stroke-width="0.75" stroke-miterlimit="10"/>
<path d="M421.299 365.617L412.453 369.146" stroke="#FF5800" stroke-width="0.75" stroke-miterlimit="10"/>
<path d="M438.991 369.146L420.418 365.617" stroke="#FF5800" stroke-width="0.75" stroke-miterlimit="10"/>
<path d="M561.956 319.781L438.988 369.145" stroke="#FF5800" stroke-width="0.75" stroke-miterlimit="10"/>
<path d="M198.371 459.938L239.951 483.736" stroke="#FF5800" stroke-width="0.75" stroke-miterlimit="10"/>
<path d="M198.371 422.918L239.951 447.6" stroke="#FF5800" stroke-width="0.75" stroke-miterlimit="10"/>
<path d="M198.371 502.248L239.951 526.052" stroke="#FF5800" stroke-width="0.75" stroke-miterlimit="10"/>
<path d="M198.371 465.229L239.951 489.91" stroke="#FF5800" stroke-width="0.75" stroke-miterlimit="10"/>
<path d="M198.371 542.797L239.951 567.479" stroke="#FF5800" stroke-width="0.75" stroke-miterlimit="10"/>
<path d="M198.371 506.656L239.951 530.46" stroke="#FF5800" stroke-width="0.75" stroke-miterlimit="10"/>
<path d="M239.953 447.6V567.48" stroke="#FF5800" stroke-width="0.75" stroke-miterlimit="10"/>
<path d="M198.371 422.473V542.358" stroke="#FF5800" stroke-width="0.75" stroke-miterlimit="10"/>
<path d="M234.641 444.953V481.095" stroke="#FF5800" stroke-width="0.75" stroke-miterlimit="10"/>
<path d="M229.336 441.869V478.005" stroke="#FF5800" stroke-width="0.75" stroke-miterlimit="10"/>
<path d="M224.027 438.779V474.921" stroke="#FF5800" stroke-width="0.75" stroke-miterlimit="10"/>
<path d="M218.719 435.695V471.837" stroke="#FF5800" stroke-width="0.75" stroke-miterlimit="10"/>
<path d="M213.414 432.609V468.751" stroke="#FF5800" stroke-width="0.75" stroke-miterlimit="10"/>
<path d="M208.105 429.525V465.667" stroke="#FF5800" stroke-width="0.75" stroke-miterlimit="10"/>
<path d="M202.793 426.441V462.583" stroke="#FF5800" stroke-width="0.75" stroke-miterlimit="10"/>
<path d="M234.641 486.381V522.523" stroke="#FF5800" stroke-width="0.75" stroke-miterlimit="10"/>
<path d="M229.336 483.297V519.439" stroke="#FF5800" stroke-width="0.75" stroke-miterlimit="10"/>
<path d="M224.027 480.211V516.353" stroke="#FF5800" stroke-width="0.75" stroke-miterlimit="10"/>
<path d="M218.719 477.127V513.269" stroke="#FF5800" stroke-width="0.75" stroke-miterlimit="10"/>
<path d="M213.414 474.043V510.185" stroke="#FF5800" stroke-width="0.75" stroke-miterlimit="10"/>
<path d="M208.105 470.959V507.095" stroke="#FF5800" stroke-width="0.75" stroke-miterlimit="10"/>
<path d="M202.793 467.867V504.009" stroke="#FF5800" stroke-width="0.75" stroke-miterlimit="10"/>
<path d="M234.641 527.814V563.956" stroke="#FF5800" stroke-width="0.75" stroke-miterlimit="10"/>
<path d="M229.336 524.729V560.87" stroke="#FF5800" stroke-width="0.75" stroke-miterlimit="10"/>
<path d="M224.027 521.645V557.781" stroke="#FF5800" stroke-width="0.75" stroke-miterlimit="10"/>
<path d="M218.719 518.555V554.697" stroke="#FF5800" stroke-width="0.75" stroke-miterlimit="10"/>
<path d="M213.414 515.471V551.613" stroke="#FF5800" stroke-width="0.75" stroke-miterlimit="10"/>
<path d="M208.105 512.385V548.527" stroke="#FF5800" stroke-width="0.75" stroke-miterlimit="10"/>
<path d="M202.793 509.301V545.443" stroke="#FF5800" stroke-width="0.75" stroke-miterlimit="10"/>
<path d="M4.64062 351.512L21.7202 364.312" stroke="#FF5800" stroke-width="0.75" stroke-miterlimit="10"/>
<path d="M4.64062 314.492L21.7202 328.17" stroke="#FF5800" stroke-width="0.75" stroke-miterlimit="10"/>
<path d="M4.64062 393.828L21.7202 406.622" stroke="#FF5800" stroke-width="0.75" stroke-miterlimit="10"/>
<path d="M4.64062 356.803L21.7202 370.481" stroke="#FF5800" stroke-width="0.75" stroke-miterlimit="10"/>
<path d="M4.64062 434.371L21.7202 448.055" stroke="#FF5800" stroke-width="0.75" stroke-miterlimit="10"/>
<path d="M4.64062 398.236L21.7202 411.031" stroke="#FF5800" stroke-width="0.75" stroke-miterlimit="10"/>
<path d="M21.7188 328.17V448.056" stroke="#FF5800" stroke-width="0.75" stroke-miterlimit="10"/>
<path d="M4.64062 314.053V433.933" stroke="#FF5800" stroke-width="0.75" stroke-miterlimit="10"/>
<path d="M19.5391 326.932V363.068" stroke="#FF5800" stroke-width="0.75" stroke-miterlimit="10"/>
<path d="M17.3594 325.25V361.392" stroke="#FF5800" stroke-width="0.75" stroke-miterlimit="10"/>
<path d="M15.1797 323.568V359.71" stroke="#FF5800" stroke-width="0.75" stroke-miterlimit="10"/>
<path d="M13 321.887V358.029" stroke="#FF5800" stroke-width="0.75" stroke-miterlimit="10"/>
<path d="M10.8125 320.211V356.347" stroke="#FF5800" stroke-width="0.75" stroke-miterlimit="10"/>
<path d="M8.63281 318.529V354.671" stroke="#FF5800" stroke-width="0.75" stroke-miterlimit="10"/>
<path d="M6.45312 316.846V352.988" stroke="#FF5800" stroke-width="0.75" stroke-miterlimit="10"/>
<path d="M19.5391 368.359V404.501" stroke="#FF5800" stroke-width="0.75" stroke-miterlimit="10"/>
<path d="M17.3594 366.678V402.82" stroke="#FF5800" stroke-width="0.75" stroke-miterlimit="10"/>
<path d="M15.1797 365.002V401.138" stroke="#FF5800" stroke-width="0.75" stroke-miterlimit="10"/>
<path d="M13 363.32V399.462" stroke="#FF5800" stroke-width="0.75" stroke-miterlimit="10"/>
<path d="M10.8125 361.637V397.779" stroke="#FF5800" stroke-width="0.75" stroke-miterlimit="10"/>
<path d="M8.63281 359.955V396.097" stroke="#FF5800" stroke-width="0.75" stroke-miterlimit="10"/>
<path d="M6.45312 358.279V394.415" stroke="#FF5800" stroke-width="0.75" stroke-miterlimit="10"/>
<path d="M19.5391 409.793V445.929" stroke="#FF5800" stroke-width="0.75" stroke-miterlimit="10"/>
<path d="M17.3594 408.111V444.253" stroke="#FF5800" stroke-width="0.75" stroke-miterlimit="10"/>
<path d="M15.1797 406.428V442.57" stroke="#FF5800" stroke-width="0.75" stroke-miterlimit="10"/>
<path d="M13 404.746V440.888" stroke="#FF5800" stroke-width="0.75" stroke-miterlimit="10"/>
<path d="M10.8125 403.07V439.206" stroke="#FF5800" stroke-width="0.75" stroke-miterlimit="10"/>
<path d="M8.63281 401.389V437.531" stroke="#FF5800" stroke-width="0.75" stroke-miterlimit="10"/>
<path d="M6.45312 399.707V435.849" stroke="#FF5800" stroke-width="0.75" stroke-miterlimit="10"/>
<path d="M311.457 446.641L318.546 450.666" stroke="#FF5800" stroke-width="0.75" stroke-miterlimit="10"/>
<path d="M260.198 488.422L253 483.73V472.27L260.198 476.962V488.422Z" stroke="#FF5800" stroke-width="0.75" stroke-miterlimit="10"/>
<path d="M260.086 488.416L318.546 461.909V450.449L260.086 476.956V488.416Z" stroke="#FF5800" stroke-width="0.75" stroke-miterlimit="10"/>
<path d="M252.984 472.486L311.456 446.641" stroke="#FF5800" stroke-width="0.75" stroke-miterlimit="10"/>
<path d="M263.743 520.156L256.539 515.464V504.004L263.743 508.696V520.156Z" stroke="#FF5800" stroke-width="0.75" stroke-miterlimit="10"/>
<path d="M263.625 520.15L322.079 493.644V482.184L263.625 508.69V520.15Z" stroke="#FF5800" stroke-width="0.75" stroke-miterlimit="10"/>
<path d="M314.996 478.375L322.08 482.4" stroke="#FF5800" stroke-width="0.75" stroke-miterlimit="10"/>
<path d="M256.527 504.22L314.998 478.375" stroke="#FF5800" stroke-width="0.75" stroke-miterlimit="10"/>
<path d="M263.743 551.891L256.539 547.198V535.738L263.743 540.431V551.891Z" stroke="#FF5800" stroke-width="0.75" stroke-miterlimit="10"/>
<path d="M263.625 551.884L322.079 525.378V513.918L263.625 540.424V551.884Z" stroke="#FF5800" stroke-width="0.75" stroke-miterlimit="10"/>
<path d="M314.996 510.109L322.08 514.135" stroke="#FF5800" stroke-width="0.75" stroke-miterlimit="10"/>
<path d="M256.527 535.954L314.998 510.109" stroke="#FF5800" stroke-width="0.75" stroke-miterlimit="10"/>
<path d="M353.877 450.94L346.645 446.134V434.674L353.877 439.48V450.94Z" stroke="#FF5800" stroke-width="0.75" stroke-miterlimit="10"/>
<path d="M353.758 450.927L412.452 425.339V413.879L353.758 439.473V450.927Z" stroke="#FF5800" stroke-width="0.75" stroke-miterlimit="10"/>
<path d="M405.34 409.963L412.452 414.096" stroke="#FF5800" stroke-width="0.75" stroke-miterlimit="10"/>
<path d="M346.629 434.89L405.34 409.963" stroke="#FF5800" stroke-width="0.75" stroke-miterlimit="10"/>
<path d="M353.877 481.79L346.645 476.984V465.529L353.877 470.336V481.79Z" stroke="#FF5800" stroke-width="0.75" stroke-miterlimit="10"/>
<path d="M353.758 481.785L412.452 456.19V444.73L353.758 470.325V481.785Z" stroke="#FF5800" stroke-width="0.75" stroke-miterlimit="10"/>
<path d="M405.34 440.814L412.452 444.954" stroke="#FF5800" stroke-width="0.75" stroke-miterlimit="10"/>
<path d="M346.629 465.747L405.34 440.814" stroke="#FF5800" stroke-width="0.75" stroke-miterlimit="10"/>
<path d="M353.877 512.647L346.645 507.841V496.381L353.877 501.187V512.647Z" stroke="#FF5800" stroke-width="0.75" stroke-miterlimit="10"/>
<path d="M353.758 512.636L412.452 487.048V475.588L353.758 501.176V512.636Z" stroke="#FF5800" stroke-width="0.75" stroke-miterlimit="10"/>
<path d="M405.34 471.664L412.452 475.803" stroke="#FF5800" stroke-width="0.75" stroke-miterlimit="10"/>
<path d="M346.629 496.597L405.34 471.664" stroke="#FF5800" stroke-width="0.75" stroke-miterlimit="10"/>
<path d="M486.262 376.951L491.4 381.598" stroke="#FF5800" stroke-width="0.75" stroke-miterlimit="10"/>
<path d="M449.163 411.929L443.91 406.308V394.848L449.163 400.475V411.929Z" stroke="#FF5800" stroke-width="0.75" stroke-miterlimit="10"/>
<path d="M449.078 411.907L491.723 392.939V381.479L449.078 400.447V411.907Z" stroke="#FF5800" stroke-width="0.75" stroke-miterlimit="10"/>
<path d="M443.898 395.065L486.554 376.758" stroke="#FF5800" stroke-width="0.75" stroke-miterlimit="10"/>
<path d="M449.163 442.787L443.91 437.165V425.705L449.163 431.327V442.787Z" stroke="#FF5800" stroke-width="0.75" stroke-miterlimit="10"/>
<path d="M449.078 442.763L491.723 423.788V412.328L449.078 431.303V442.763Z" stroke="#FF5800" stroke-width="0.75" stroke-miterlimit="10"/>
<path d="M486.555 407.607L491.721 412.545" stroke="#FF5800" stroke-width="0.75" stroke-miterlimit="10"/>
<path d="M443.898 425.921L486.554 407.607" stroke="#FF5800" stroke-width="0.75" stroke-miterlimit="10"/>
<path d="M449.163 473.638L443.91 468.017V456.557L449.163 462.178V473.638Z" stroke="#FF5800" stroke-width="0.75" stroke-miterlimit="10"/>
<path d="M449.078 473.614L491.723 454.64V443.18L449.078 462.154V473.614Z" stroke="#FF5800" stroke-width="0.75" stroke-miterlimit="10"/>
<path d="M486.555 438.459L491.721 443.396" stroke="#FF5800" stroke-width="0.75" stroke-miterlimit="10"/>
<path d="M443.898 456.772L486.554 438.459" stroke="#FF5800" stroke-width="0.75" stroke-miterlimit="10"/>
<path d="M516.285 380.873L511.066 375.269V363.809L516.285 369.413V380.873Z" stroke="#FF5800" stroke-width="0.75" stroke-miterlimit="10"/>
<path d="M516.203 380.85L558.585 361.722V350.262L516.203 369.39V380.85Z" stroke="#FF5800" stroke-width="0.75" stroke-miterlimit="10"/>
<path d="M553.449 345.564L558.587 350.485" stroke="#FF5800" stroke-width="0.75" stroke-miterlimit="10"/>
<path d="M511.055 364.026L553.448 345.564" stroke="#FF5800" stroke-width="0.75" stroke-miterlimit="10"/>
<path d="M516.285 411.725L511.066 406.12V394.66L516.285 400.265V411.725Z" stroke="#FF5800" stroke-width="0.75" stroke-miterlimit="10"/>
<path d="M516.203 411.702L558.585 392.579V381.119L516.203 400.242V411.702Z" stroke="#FF5800" stroke-width="0.75" stroke-miterlimit="10"/>
<path d="M553.449 376.416L558.587 381.336" stroke="#FF5800" stroke-width="0.75" stroke-miterlimit="10"/>
<path d="M511.055 394.878L553.448 376.416" stroke="#FF5800" stroke-width="0.75" stroke-miterlimit="10"/>
<path d="M516.285 442.576L511.066 436.972V425.512L516.285 431.116V442.576Z" stroke="#FF5800" stroke-width="0.75" stroke-miterlimit="10"/>
<path d="M516.203 442.554L558.585 423.431V411.971L516.203 431.094V442.554Z" stroke="#FF5800" stroke-width="0.75" stroke-miterlimit="10"/>
<path d="M553.449 407.266L558.587 412.186" stroke="#FF5800" stroke-width="0.75" stroke-miterlimit="10"/>
<path d="M511.055 425.727L553.448 407.266" stroke="#FF5800" stroke-width="0.75" stroke-miterlimit="10"/>
<path d="M119.142 418.641L112.539 422.535" stroke="#FF5800" stroke-width="0.75" stroke-miterlimit="10"/>
<path d="M164.473 460.918L171.213 456.362L171.608 444.977L164.873 449.532L164.473 460.918Z" stroke="#FF5800" stroke-width="0.75" stroke-miterlimit="10"/>
<path d="M164.579 460.912L112.145 433.699L112.545 422.318L164.974 449.526L164.579 460.912Z" stroke="#FF5800" stroke-width="0.75" stroke-miterlimit="10"/>
<path d="M171.613 445.193L119.145 418.641" stroke="#FF5800" stroke-width="0.75" stroke-miterlimit="10"/>
<path d="M163.402 491.568L170.137 487.013L170.537 475.627L163.797 480.182L163.402 491.568Z" stroke="#FF5800" stroke-width="0.75" stroke-miterlimit="10"/>
<path d="M163.503 491.562L111.074 464.349L111.469 452.969L163.904 480.176L163.503 491.562Z" stroke="#FF5800" stroke-width="0.75" stroke-miterlimit="10"/>
<path d="M118.074 449.291L111.465 453.185" stroke="#FF5800" stroke-width="0.75" stroke-miterlimit="10"/>
<path d="M170.543 475.843L118.074 449.291" stroke="#FF5800" stroke-width="0.75" stroke-miterlimit="10"/>
<path d="M162.324 522.221L169.065 517.665L169.459 506.279L162.725 510.835L162.324 522.221Z" stroke="#FF5800" stroke-width="0.75" stroke-miterlimit="10"/>
<path d="M162.435 522.214L110 495.001L110.401 483.615L162.829 510.829L162.435 522.214Z" stroke="#FF5800" stroke-width="0.75" stroke-miterlimit="10"/>
<path d="M116.997 479.943L110.395 483.832" stroke="#FF5800" stroke-width="0.75" stroke-miterlimit="10"/>
<path d="M169.465 506.495L116.996 479.943" stroke="#FF5800" stroke-width="0.75" stroke-miterlimit="10"/>
<path d="M80.0352 423.18L86.7754 418.624L87.1702 407.238L80.4357 411.794L80.0352 423.18Z" stroke="#FF5800" stroke-width="0.75" stroke-miterlimit="10"/>
<path d="M80.1417 423.174L27.707 395.96L28.1076 384.58L80.5365 411.788L80.1417 423.174Z" stroke="#FF5800" stroke-width="0.75" stroke-miterlimit="10"/>
<path d="M34.7102 380.902L28.1016 384.796" stroke="#FF5800" stroke-width="0.75" stroke-miterlimit="10"/>
<path d="M87.1742 407.454L34.7109 380.902" stroke="#FF5800" stroke-width="0.75" stroke-miterlimit="10"/>
<path d="M78.9648 453.83L85.6994 449.275L86.0999 437.889L79.3654 442.444L78.9648 453.83Z" stroke="#FF5800" stroke-width="0.75" stroke-miterlimit="10"/>
<path d="M79.0656 453.824L26.6367 426.611L27.0315 415.23L79.4661 442.438L79.0656 453.824Z" stroke="#FF5800" stroke-width="0.75" stroke-miterlimit="10"/>
<path d="M33.636 411.553L27.0273 415.447" stroke="#FF5800" stroke-width="0.75" stroke-miterlimit="10"/>
<path d="M86.1057 438.105L33.6367 411.553" stroke="#FF5800" stroke-width="0.75" stroke-miterlimit="10"/>
<path d="M77.8867 484.482L84.627 479.927L85.0218 468.541L78.2873 473.097L77.8867 484.482Z" stroke="#FF5800" stroke-width="0.75" stroke-miterlimit="10"/>
<path d="M77.9971 484.476L25.5625 457.263L25.963 445.877L78.3919 473.09L77.9971 484.476Z" stroke="#FF5800" stroke-width="0.75" stroke-miterlimit="10"/>
<path d="M32.5657 442.205L25.957 446.093" stroke="#FF5800" stroke-width="0.75" stroke-miterlimit="10"/>
<path d="M85.0296 468.757L32.5664 442.205" stroke="#FF5800" stroke-width="0.75" stroke-miterlimit="10"/>
<path d="M421.297 375.314L438.989 379.722" stroke="#FF5800" stroke-width="0.75" stroke-miterlimit="10"/>
<path d="M421.297 419.387L438.989 423.794" stroke="#FF5800" stroke-width="0.75" stroke-miterlimit="10"/>
<path d="M421.297 448.477L438.989 452.884" stroke="#FF5800" stroke-width="0.75" stroke-miterlimit="10"/>
<path d="M421.297 478.449L438.989 482.857" stroke="#FF5800" stroke-width="0.75" stroke-miterlimit="10"/>
<path d="M415.105 481.095L422.183 478.449" stroke="#FF5800" stroke-width="0.75" stroke-miterlimit="10"/>
<path d="M415.105 451.122L422.183 448.477" stroke="#FF5800" stroke-width="0.75" stroke-miterlimit="10"/>
<path d="M415.105 422.032L422.183 419.387" stroke="#FF5800" stroke-width="0.75" stroke-miterlimit="10"/>
<path d="M415.105 377.96L422.183 375.314" stroke="#FF5800" stroke-width="0.75" stroke-miterlimit="10"/>
<path d="M860.058 90.9163L737.113 124.966V52.6877L860.075 28.0059L860.058 90.9163Z" stroke="#FF5800" stroke-width="0.75" stroke-miterlimit="10"/>
<path d="M537.205 90.9163L737.113 124.966V52.6877L537.188 28.0059L537.205 90.9163Z" stroke="#FF5800" stroke-width="0.75" stroke-miterlimit="10"/>
<path d="M508.892 138.52L653.957 170.807V110.867L508.875 87.9473L508.892 138.52Z" stroke="#FF5800" stroke-width="0.75" stroke-miterlimit="10"/>
<path d="M511.99 136.849L648.649 163.703V113.849L511.973 94.7832L511.99 136.849Z" stroke="#FF5800" stroke-width="0.75" stroke-miterlimit="10"/>
<path d="M517.74 188.766L716.767 239.561V201.144L517.723 159.717L517.74 188.766Z" stroke="#FF5800" stroke-width="0.75" stroke-miterlimit="10"/>
<path d="M568.59 194.166L650.063 212.24V195.061L568.979 176.537L568.59 194.166Z" stroke="#FF5800" stroke-width="0.75" stroke-miterlimit="10"/>
<path d="M508.013 231.077L556.649 243.968V212.604L507.996 202.027L508.013 231.077Z" stroke="#FF5800" stroke-width="0.75" stroke-miterlimit="10"/>
<path d="M646.009 268.981L716.765 288.047V256.677L645.992 239.932L646.009 268.981Z" stroke="#FF5800" stroke-width="0.75" stroke-miterlimit="10"/>
<path d="M544.283 284.385L655.726 317.551V271.665L544.266 240.814L544.283 284.385Z" stroke="#FF5800" stroke-width="0.75" stroke-miterlimit="10"/>
<path d="M547.801 279.232L649.534 310.966L650.416 274.824L547.801 246.613V279.232Z" stroke="#FF5800" stroke-width="0.75" stroke-miterlimit="10"/>
<path d="M851.656 139.688L765.863 167.722V138.154L851.667 113.951L851.656 139.688Z" stroke="#FF5800" stroke-width="0.75" stroke-miterlimit="10"/>
<path d="M873.773 212.85L756.133 261.159V231.591L873.79 187.113L873.773 212.85Z" stroke="#FF5800" stroke-width="0.75" stroke-miterlimit="10"/>
<path d="M870.243 208.488L804.785 235.365V218.911L870.248 194.166L870.243 208.488Z" stroke="#FF5800" stroke-width="0.75" stroke-miterlimit="10"/>
<path d="M826.003 293.07L719.863 340.496V310.922L826.02 267.328L826.003 293.07Z" stroke="#FF5800" stroke-width="0.75" stroke-miterlimit="10"/>
<path d="M833.966 332.735L749.055 381.044V351.47L833.978 306.998L833.966 332.735Z" stroke="#FF5800" stroke-width="0.75" stroke-miterlimit="10"/>
<path d="M655.725 306.998L696.418 319.781V341.817L706.151 345.341L705.264 378.592L561.069 327.712L438.988 379.721" stroke="#FF5800" stroke-width="0.75" stroke-miterlimit="10"/>
<path d="M551.344 301.268L640.69 331.235" stroke="#FF5800" stroke-width="0.75" stroke-miterlimit="10"/>
<path d="M558.414 299.506L640.688 326.827" stroke="#FF5800" stroke-width="0.75" stroke-miterlimit="10"/>
<path d="M640.688 347.987V331.236" stroke="#FF5800" stroke-width="0.75" stroke-miterlimit="10"/>
<path d="M640.688 327.274V313.607" stroke="#FF5800" stroke-width="0.75" stroke-miterlimit="10"/>
<path d="M551.344 310.084V300.83" stroke="#FF5800" stroke-width="0.75" stroke-miterlimit="10"/>
<path d="M551.602 301.336L575.227 294.215" stroke="#FF5800" stroke-width="0.75" stroke-miterlimit="10"/>
<path d="M561.957 319.781L640.689 347.987" stroke="#FF5800" stroke-width="0.75" stroke-miterlimit="10"/>
<path d="M696.418 319.781L708.8 312.729" stroke="#FF5800" stroke-width="0.75" stroke-miterlimit="10"/>
<path d="M719.42 314.49L708.801 312.729" stroke="#FF5800" stroke-width="0.75" stroke-miterlimit="10"/>
<path d="M719.42 310.961L708.801 309.199" stroke="#FF5800" stroke-width="0.75" stroke-miterlimit="10"/>
<path d="M708.801 336.527V309.199" stroke="#FF5800" stroke-width="0.75" stroke-miterlimit="10"/>
<path d="M696.418 319.781V314.49" stroke="#FF5800" stroke-width="0.75" stroke-miterlimit="10"/>
<path d="M708.8 309.199L696.418 315.374" stroke="#FF5800" stroke-width="0.75" stroke-miterlimit="10"/>
<path d="M655.727 303.029L697.307 315.373" stroke="#FF5800" stroke-width="0.75" stroke-miterlimit="10"/>
<path d="M696.418 341.818L708.8 336.527" stroke="#FF5800" stroke-width="0.75" stroke-miterlimit="10"/>
<path d="M706.152 345.342L719.421 340.057" stroke="#FF5800" stroke-width="0.75" stroke-miterlimit="10"/>
<path d="M705.266 378.837L731.803 363.854" stroke="#FF5800" stroke-width="0.75" stroke-miterlimit="10"/>
<path d="M719.42 340.057L708.801 336.527" stroke="#FF5800" stroke-width="0.75" stroke-miterlimit="10"/>
<path d="M749.497 381.483L731.805 377.959" stroke="#FF5800" stroke-width="0.75" stroke-miterlimit="10"/>
<path d="M749.497 351.51L731.805 347.986" stroke="#FF5800" stroke-width="0.75" stroke-miterlimit="10"/>
<path d="M834.422 307.438L816.73 303.914" stroke="#FF5800" stroke-width="0.75" stroke-miterlimit="10"/>
<path d="M731.805 348.426V378.838" stroke="#FF5800" stroke-width="0.75" stroke-miterlimit="10"/>
<path d="M732.25 348.425L817.173 303.469" stroke="#FF5800" stroke-width="0.75" stroke-miterlimit="10"/>
<path d="M716.324 288.486L849.019 232.953" stroke="#FF5800" stroke-width="0.75" stroke-miterlimit="10"/>
<path d="M756.132 261.158L735.785 255.873" stroke="#FF5800" stroke-width="0.75" stroke-miterlimit="10"/>
<path d="M717.207 256.75L734.899 251.465" stroke="#FF5800" stroke-width="0.75" stroke-miterlimit="10"/>
<path d="M735.785 226.783V255.872" stroke="#FF5800" stroke-width="0.75" stroke-miterlimit="10"/>
<path d="M756.132 232.068L735.785 226.783" stroke="#FF5800" stroke-width="0.75" stroke-miterlimit="10"/>
<path d="M734.898 251.465V277.908" stroke="#FF5800" stroke-width="0.75" stroke-miterlimit="10"/>
<path d="M734.898 277.91L841.942 232.953" stroke="#FF5800" stroke-width="0.75" stroke-miterlimit="10"/>
<path d="M826.019 267.328H818.055" stroke="#FF5800" stroke-width="0.75" stroke-miterlimit="10"/>
<path d="M818.055 246.174V267.326" stroke="#FF5800" stroke-width="0.75" stroke-miterlimit="10"/>
<path d="M716.324 239.121L735.784 232.068" stroke="#FF5800" stroke-width="0.75" stroke-miterlimit="10"/>
<path d="M717.207 201.219L831.328 162.432" stroke="#FF5800" stroke-width="0.75" stroke-miterlimit="10"/>
<path d="M873.79 187.113H831.328" stroke="#FF5800" stroke-width="0.75" stroke-miterlimit="10"/>
<path d="M831.328 161.553V187.113" stroke="#FF5800" stroke-width="0.75" stroke-miterlimit="10"/>
<path d="M851.668 113.951H827.785" stroke="#FF5800" stroke-width="0.75" stroke-miterlimit="10"/>
<path d="M827.785 99.8457V113.951" stroke="#FF5800" stroke-width="0.75" stroke-miterlimit="10"/>
<path d="M747.285 135.987L827.785 113.951" stroke="#FF5800" stroke-width="0.75" stroke-miterlimit="10"/>
<path d="M765.864 137.75L747.285 135.988" stroke="#FF5800" stroke-width="0.75" stroke-miterlimit="10"/>
<path d="M766.745 167.723L747.285 165.961" stroke="#FF5800" stroke-width="0.75" stroke-miterlimit="10"/>
<path d="M747.285 135.988V165.961" stroke="#FF5800" stroke-width="0.75" stroke-miterlimit="10"/>
<path d="M653.516 136.871L681.821 142.156" stroke="#FF5800" stroke-width="0.75" stroke-miterlimit="10"/>
<path d="M696.861 136.871L681.824 142.156" stroke="#FF5800" stroke-width="0.75" stroke-miterlimit="10"/>
<path d="M654.398 171.246L682.71 176.537" stroke="#FF5800" stroke-width="0.75" stroke-miterlimit="10"/>
<path d="M697.748 171.246L682.711 176.537" stroke="#FF5800" stroke-width="0.75" stroke-miterlimit="10"/>
<path d="M696.859 136.871L697.746 171.245" stroke="#FF5800" stroke-width="0.75" stroke-miterlimit="10"/>
<path d="M681.824 142.156L682.711 176.536" stroke="#FF5800" stroke-width="0.75" stroke-miterlimit="10"/>
<path d="M696.86 136.872L668.555 132.465" stroke="#FF5800" stroke-width="0.75" stroke-miterlimit="10"/>
<path d="M653.516 136.872L668.553 132.465" stroke="#FF5800" stroke-width="0.75" stroke-miterlimit="10"/>
<path d="M668.555 113.951V132.464" stroke="#FF5800" stroke-width="0.75" stroke-miterlimit="10"/>
<path d="M517.281 159.786L542.938 157.146" stroke="#FF5800" stroke-width="0.75" stroke-miterlimit="10"/>
<path d="M542.938 146.564V165.077" stroke="#FF5800" stroke-width="0.75" stroke-miterlimit="10"/>
<path d="M539.395 194.166V209.15" stroke="#FF5800" stroke-width="0.75" stroke-miterlimit="10"/>
<path d="M557.086 217.086L646.438 240.006" stroke="#FF5800" stroke-width="0.75" stroke-miterlimit="10"/>
<path d="M704.824 236.477V254.106" stroke="#FF5800" stroke-width="0.75" stroke-miterlimit="10"/>
<path d="M704.824 192.405V120.121" stroke="#FF5800" stroke-width="0.75" stroke-miterlimit="10"/>
<path d="M735.786 226.784L725.172 224.139" stroke="#FF5800" stroke-width="0.75" stroke-miterlimit="10"/>
<path d="M716.324 226.784L725.17 224.139" stroke="#FF5800" stroke-width="0.75" stroke-miterlimit="10"/>
<path d="M717.207 233.831L726.053 231.191" stroke="#FF5800" stroke-width="0.75" stroke-miterlimit="10"/>
<path d="M735.784 232.069L726.051 231.191" stroke="#FF5800" stroke-width="0.75" stroke-miterlimit="10"/>
<path d="M734.898 7.28711H672.09V34.6144H734.898V7.28711Z" stroke="#FF5800" stroke-width="0.75" stroke-miterlimit="10"/>
<path d="M650.861 0.240234H610.168V27.5676H650.861V0.240234Z" stroke="#FF5800" stroke-width="0.75" stroke-miterlimit="10"/>
<path d="M659.709 24.9221L650.863 27.5619V0.240234L659.846 1.17528L659.709 24.9221Z" stroke="#FF5800" stroke-width="0.75" stroke-miterlimit="10"/>
<path d="M860.521 28.4454L734.898 17.8691" stroke="#FF5800" stroke-width="0.75" stroke-miterlimit="10"/>
<path d="M537.629 27.5626L610.17 18.748" stroke="#FF5800" stroke-width="0.75" stroke-miterlimit="10"/>
<path d="M659.707 13.4619L665.011 12.5781" stroke="#FF1D63" stroke-width="0.75" stroke-miterlimit="10"/>
<path d="M672.09 12.5781H665.012" stroke="#FF1D63" stroke-width="0.75" stroke-miterlimit="10"/>
<path d="M565.938 31.9689L610.167 24.9219" stroke="#FF5800" stroke-width="0.75" stroke-miterlimit="10"/>
<path d="M659.707 20.5146L665.011 19.6309" stroke="#FF5800" stroke-width="0.75" stroke-miterlimit="10"/>
<path d="M672.09 19.6309H665.012" stroke="#FF5800" stroke-width="0.75" stroke-miterlimit="10"/>
<path d="M665.012 12.5781V19.6309" stroke="#FF5800" stroke-width="0.75" stroke-miterlimit="10"/>
<path d="M860.521 27.5618L734.898 16.1074" stroke="#FF5800" stroke-width="0.75" stroke-miterlimit="10"/>
<path d="M734.898 24.0391L834.864 32.8536" stroke="#FF5800" stroke-width="0.75" stroke-miterlimit="10"/>
<path d="M542.938 159.785L704.824 192.403" stroke="#FF5800" stroke-width="0.75" stroke-miterlimit="10"/>
<path d="M827.785 147.447V163.315" stroke="#FF5800" stroke-width="0.75" stroke-miterlimit="10"/>
<path d="M704.824 192.405L827.786 151.855" stroke="#FF5800" stroke-width="0.75" stroke-miterlimit="10"/>
<path d="M725.172 224.139L831.329 187.113" stroke="#FF5800" stroke-width="0.75" stroke-miterlimit="10"/>
<path d="M645.476 159.9L591.125 149.323V130.811L645.476 141.393V159.9Z" stroke="#FF5800" stroke-width="0.75" stroke-miterlimit="10"/>
<path d="M645.112 138.193L590.777 127.765V109.258L645.083 115.991L645.112 138.193Z" stroke="#FF5800" stroke-width="0.75" stroke-miterlimit="10"/>
<path d="M586.281 147.562L537.131 137.995L536.965 120.035L586.115 129.602L586.281 147.562Z" stroke="#FF5800" stroke-width="0.75" stroke-miterlimit="10"/>
<path d="M585.874 126.329L537.188 117.919V101.607L585.932 109.088L585.874 126.329Z" stroke="#FF5800" stroke-width="0.75" stroke-miterlimit="10"/>
<path d="M534.974 136.871L513.981 131.603L513.746 115.713L534.974 119.932V136.871Z" stroke="#FF5800" stroke-width="0.75" stroke-miterlimit="10"/>
<path d="M534.985 117.549L513.746 112.19V97.0977L534.974 100.678L534.985 117.549Z" stroke="#FF5800" stroke-width="0.75" stroke-miterlimit="10"/>
<path d="M574.183 46.793L557.492 89.064L561.291 89.674L577.982 47.4087L574.183 46.793Z" stroke="#FF5800" stroke-width="0.75" stroke-miterlimit="10"/>
<path d="M581.776 48.0176L565.086 90.2829L568.885 90.8986L585.576 48.6276L581.776 48.0176Z" stroke="#FF5800" stroke-width="0.75" stroke-miterlimit="10"/>
<path d="M577.983 47.4082L561.293 89.6735L565.087 90.2835L581.777 48.0183L577.983 47.4082Z" stroke="#FF5800" stroke-width="0.75" stroke-miterlimit="10"/>
<path d="M585.577 48.6289L568.887 90.8999L572.68 91.5099L589.371 49.2447L585.577 48.6289Z" stroke="#FF5800" stroke-width="0.75" stroke-miterlimit="10"/>
<path d="M596.96 50.4629L580.27 92.7282L584.069 93.3439L600.759 51.073L596.96 50.4629Z" stroke="#FF5800" stroke-width="0.75" stroke-miterlimit="10"/>
<path d="M589.37 49.2441L572.68 91.5094L576.479 92.1195L593.17 49.8542L589.37 49.2441Z" stroke="#FF5800" stroke-width="0.75" stroke-miterlimit="10"/>
<path d="M600.761 51.0742L584.07 93.3452L587.864 93.9553L604.554 51.69L600.761 51.0742Z" stroke="#FF5800" stroke-width="0.75" stroke-miterlimit="10"/>
<path d="M593.167 49.8535L576.477 92.1188L580.27 92.7289L596.961 50.4636L593.167 49.8535Z" stroke="#FF5800" stroke-width="0.75" stroke-miterlimit="10"/>
<path d="M542.902 41.752V57.0035L548.561 42.6642L542.902 41.752Z" stroke="#FF5800" stroke-width="0.75" stroke-miterlimit="10"/>
<path d="M551.411 43.127L542.902 64.673V74.8958L555.204 43.737L551.411 43.127Z" stroke="#FF5800" stroke-width="0.75" stroke-miterlimit="10"/>
<path d="M570.39 46.1816L553.699 88.4469L557.493 89.0627L574.183 46.7917L570.39 46.1816Z" stroke="#FF5800" stroke-width="0.75" stroke-miterlimit="10"/>
<path d="M604.554 51.6895L587.863 93.9547L591.663 94.5648L608.353 52.2995L604.554 51.6895Z" stroke="#FF5800" stroke-width="0.75" stroke-miterlimit="10"/>
<path d="M548.561 42.6641L542.902 57.0034V64.6719L551.411 43.1259L548.561 42.6641Z" stroke="#FF5800" stroke-width="0.75" stroke-miterlimit="10"/>
<path d="M562.796 44.9609L546.105 87.2262L549.905 87.8363L566.595 45.571L562.796 44.9609Z" stroke="#FF5800" stroke-width="0.75" stroke-miterlimit="10"/>
<path d="M555.204 43.7363L542.902 74.8951V85.1236L559.003 44.3464L555.204 43.7363Z" stroke="#FF5800" stroke-width="0.75" stroke-miterlimit="10"/>
<path d="M559.003 44.3457L542.902 85.1229V86.7079L546.107 87.2267L562.797 44.9615L559.003 44.3457Z" stroke="#FF5800" stroke-width="0.75" stroke-miterlimit="10"/>
<path d="M566.597 45.5723L549.906 87.8375L553.7 88.4476L570.39 46.1823L566.597 45.5723Z" stroke="#FF5800" stroke-width="0.75" stroke-miterlimit="10"/>
<path d="M652.04 64.3633L637.215 101.908L641.014 102.518L652.04 74.5861V64.3633Z" stroke="#FF5800" stroke-width="0.75" stroke-miterlimit="10"/>
<path d="M652.041 59.3409L650.112 59.0273L633.422 101.293L637.215 101.908L652.041 64.364V59.3409Z" stroke="#FF5800" stroke-width="0.75" stroke-miterlimit="10"/>
<path d="M646.312 58.418L629.621 100.683L633.42 101.293L650.111 59.028L646.312 58.418Z" stroke="#FF5800" stroke-width="0.75" stroke-miterlimit="10"/>
<path d="M642.519 57.8066L625.828 100.072L629.622 100.682L646.312 58.4167L642.519 57.8066Z" stroke="#FF5800" stroke-width="0.75" stroke-miterlimit="10"/>
<path d="M652.041 74.5879L641.016 102.52L644.809 103.13L652.041 84.8164V74.5879Z" stroke="#FF5800" stroke-width="0.75" stroke-miterlimit="10"/>
<path d="M638.726 57.1914L622.035 99.4624L625.829 100.072L642.519 57.8072L638.726 57.1914Z" stroke="#FF5800" stroke-width="0.75" stroke-miterlimit="10"/>
<path d="M652.039 95.0391L648.605 103.745L652.039 104.298V95.0391Z" stroke="#FF5800" stroke-width="0.75" stroke-miterlimit="10"/>
<path d="M652.041 84.8164L644.809 103.13L648.608 103.745L652.041 95.0392V84.8164Z" stroke="#FF5800" stroke-width="0.75" stroke-miterlimit="10"/>
<path d="M612.147 52.9102L595.457 95.1811L599.256 95.7912L615.947 53.5259L612.147 52.9102Z" stroke="#FF5800" stroke-width="0.75" stroke-miterlimit="10"/>
<path d="M615.948 53.5254L599.258 95.7907L603.051 96.4007L619.742 54.1355L615.948 53.5254Z" stroke="#FF5800" stroke-width="0.75" stroke-miterlimit="10"/>
<path d="M608.355 52.2988L591.664 94.5641L595.458 95.1799L612.148 52.9089L608.355 52.2988Z" stroke="#FF5800" stroke-width="0.75" stroke-miterlimit="10"/>
<path d="M619.741 54.1348L603.051 96.4L606.85 97.0101L623.541 54.7448L619.741 54.1348Z" stroke="#FF5800" stroke-width="0.75" stroke-miterlimit="10"/>
<path d="M631.132 55.9707L614.441 98.236L618.235 98.846L634.925 56.5808L631.132 55.9707Z" stroke="#FF5800" stroke-width="0.75" stroke-miterlimit="10"/>
<path d="M623.538 54.7461L606.848 97.0114L610.641 97.6271L627.332 55.3562L623.538 54.7461Z" stroke="#FF5800" stroke-width="0.75" stroke-miterlimit="10"/>
<path d="M634.925 56.582L618.234 98.8473L622.034 99.4631L638.724 57.1921L634.925 56.582Z" stroke="#FF5800" stroke-width="0.75" stroke-miterlimit="10"/>
<path d="M627.335 55.3555L610.645 97.6264L614.444 98.2365L631.134 55.9712L627.335 55.3555Z" stroke="#FF5800" stroke-width="0.75" stroke-miterlimit="10"/>
<path d="M795.272 284.158L810.566 296.884L807.087 298.463L791.793 285.738L795.272 284.158Z" stroke="#FF5800" stroke-width="0.75" stroke-miterlimit="10"/>
<path d="M788.313 287.318L803.607 300.044L800.128 301.623L784.828 288.898L788.313 287.318Z" stroke="#FF5800" stroke-width="0.75" stroke-miterlimit="10"/>
<path d="M791.791 285.738L807.086 298.464L803.607 300.043L788.312 287.318L791.791 285.738Z" stroke="#FF5800" stroke-width="0.75" stroke-miterlimit="10"/>
<path d="M784.826 288.896L800.127 301.622L796.648 303.202L781.348 290.476L784.826 288.896Z" stroke="#FF5800" stroke-width="0.75" stroke-miterlimit="10"/>
<path d="M774.393 293.641L789.693 306.366L786.214 307.946L770.914 295.22L774.393 293.641Z" stroke="#FF5800" stroke-width="0.75" stroke-miterlimit="10"/>
<path d="M781.35 290.477L796.65 303.202L793.171 304.782L777.871 292.056L781.35 290.477Z" stroke="#FF5800" stroke-width="0.75" stroke-miterlimit="10"/>
<path d="M770.912 295.219L786.213 307.945L782.734 309.524L767.434 296.798L770.912 295.219Z" stroke="#FF5800" stroke-width="0.75" stroke-miterlimit="10"/>
<path d="M777.869 292.055L793.17 304.78L789.691 306.365L774.391 293.64L777.869 292.055Z" stroke="#FF5800" stroke-width="0.75" stroke-miterlimit="10"/>
<path d="M823.944 271.131V277.807L818.754 273.491L823.944 271.131Z" stroke="#FF5800" stroke-width="0.75" stroke-miterlimit="10"/>
<path d="M816.143 274.678L823.942 281.16V285.636L812.664 276.257L816.143 274.678Z" stroke="#FF5800" stroke-width="0.75" stroke-miterlimit="10"/>
<path d="M798.748 282.574L814.043 295.3L810.564 296.885L795.27 284.159L798.748 282.574Z" stroke="#FF5800" stroke-width="0.75" stroke-miterlimit="10"/>
<path d="M767.436 296.799L782.736 309.525L779.251 311.104L763.957 298.378L767.436 296.799Z" stroke="#FF5800" stroke-width="0.75" stroke-miterlimit="10"/>
<path d="M818.754 273.492L823.943 277.808V281.161L816.145 274.678L818.754 273.492Z" stroke="#FF5800" stroke-width="0.75" stroke-miterlimit="10"/>
<path d="M805.705 279.416L821 292.142L817.521 293.721L802.227 280.995L805.705 279.416Z" stroke="#FF5800" stroke-width="0.75" stroke-miterlimit="10"/>
<path d="M812.666 276.256L823.944 285.635V290.111L809.188 277.835L812.666 276.256Z" stroke="#FF5800" stroke-width="0.75" stroke-miterlimit="10"/>
<path d="M809.186 277.836L823.942 290.111V290.807L821.001 292.141L805.707 279.415L809.186 277.836Z" stroke="#FF5800" stroke-width="0.75" stroke-miterlimit="10"/>
<path d="M802.229 280.994L817.523 293.72L814.044 295.299L798.75 282.573L802.229 280.994Z" stroke="#FF5800" stroke-width="0.75" stroke-miterlimit="10"/>
<path d="M723.914 318.762L737.498 330.068L734.019 331.647L723.914 323.237V318.762Z" stroke="#FF5800" stroke-width="0.75" stroke-miterlimit="10"/>
<path d="M723.914 316.566L725.682 315.762L740.976 328.487L737.498 330.067L723.914 318.761V316.566Z" stroke="#FF5800" stroke-width="0.75" stroke-miterlimit="10"/>
<path d="M729.162 314.184L744.463 326.909L740.978 328.489L725.684 315.763L729.162 314.184Z" stroke="#FF5800" stroke-width="0.75" stroke-miterlimit="10"/>
<path d="M732.639 312.604L747.939 325.324L744.46 326.909L729.16 314.183L732.639 312.604Z" stroke="#FF5800" stroke-width="0.75" stroke-miterlimit="10"/>
<path d="M723.914 323.236L734.019 331.646L730.54 333.225L723.914 327.712V323.236Z" stroke="#FF5800" stroke-width="0.75" stroke-miterlimit="10"/>
<path d="M736.119 311.02L751.42 323.745L747.941 325.325L732.641 312.605L736.119 311.02Z" stroke="#FF5800" stroke-width="0.75" stroke-miterlimit="10"/>
<path d="M723.914 332.188L727.061 334.804L723.914 336.236V332.188Z" stroke="#FF5800" stroke-width="0.75" stroke-miterlimit="10"/>
<path d="M723.914 327.713L730.54 333.226L727.061 334.806L723.914 332.189V327.713Z" stroke="#FF5800" stroke-width="0.75" stroke-miterlimit="10"/>
<path d="M760.475 299.957L775.769 312.683L772.29 314.262L756.996 301.536L760.475 299.957Z" stroke="#FF5800" stroke-width="0.75" stroke-miterlimit="10"/>
<path d="M756.998 301.537L772.293 314.263L768.814 315.842L753.52 303.122L756.998 301.537Z" stroke="#FF5800" stroke-width="0.75" stroke-miterlimit="10"/>
<path d="M763.955 298.379L779.25 311.105L775.771 312.684L760.477 299.958L763.955 298.379Z" stroke="#FF5800" stroke-width="0.75" stroke-miterlimit="10"/>
<path d="M753.518 303.121L768.812 315.841L765.333 317.426L750.039 304.7L753.518 303.121Z" stroke="#FF5800" stroke-width="0.75" stroke-miterlimit="10"/>
<path d="M743.077 307.859L758.377 320.585L754.898 322.164L739.598 309.439L743.077 307.859Z" stroke="#FF5800" stroke-width="0.75" stroke-miterlimit="10"/>
<path d="M750.039 304.701L765.334 317.427L761.855 319.006L746.555 306.281L750.039 304.701Z" stroke="#FF5800" stroke-width="0.75" stroke-miterlimit="10"/>
<path d="M739.596 309.439L754.896 322.165L751.417 323.745L736.117 311.019L739.596 309.439Z" stroke="#FF5800" stroke-width="0.75" stroke-miterlimit="10"/>
<path d="M746.557 306.281L761.857 319.007L758.378 320.586L743.078 307.861L746.557 306.281Z" stroke="#FF5800" stroke-width="0.75" stroke-miterlimit="10"/>
<path d="M795.608 55.498L806.994 99.2172L804.408 99.9299L793.016 56.2164L795.608 55.498Z" stroke="#FF5800" stroke-width="0.75" stroke-miterlimit="10"/>
<path d="M790.424 56.9297L801.816 100.649L799.224 101.362L787.832 57.6481L790.424 56.9297Z" stroke="#FF5800" stroke-width="0.75" stroke-miterlimit="10"/>
<path d="M793.014 56.2168L804.406 99.9303L801.814 100.649L790.422 56.9295L793.014 56.2168Z" stroke="#FF5800" stroke-width="0.75" stroke-miterlimit="10"/>
<path d="M787.83 57.6484L799.222 101.362L796.63 102.08L785.238 58.3611L787.83 57.6484Z" stroke="#FF5800" stroke-width="0.75" stroke-miterlimit="10"/>
<path d="M780.061 59.793L791.447 103.512L788.861 104.225L777.469 60.5114L780.061 59.793Z" stroke="#FF5800" stroke-width="0.75" stroke-miterlimit="10"/>
<path d="M785.24 58.3613L796.633 102.08L794.041 102.793L782.648 59.0797L785.24 58.3613Z" stroke="#FF5800" stroke-width="0.75" stroke-miterlimit="10"/>
<path d="M777.471 60.5098L788.863 104.223L786.271 104.942L774.879 61.2225L777.471 60.5098Z" stroke="#FF5800" stroke-width="0.75" stroke-miterlimit="10"/>
<path d="M782.649 59.0801L794.041 102.794L791.449 103.512L780.062 59.7928L782.649 59.0801Z" stroke="#FF5800" stroke-width="0.75" stroke-miterlimit="10"/>
<path d="M816.956 49.6035V65.4993L813.094 50.6697L816.956 49.6035Z" stroke="#FF5800" stroke-width="0.75" stroke-miterlimit="10"/>
<path d="M811.154 51.2051L816.956 73.4923V84.1484L808.562 51.9178L811.154 51.2051Z" stroke="#FF5800" stroke-width="0.75" stroke-miterlimit="10"/>
<path d="M798.192 54.7871L809.584 98.5006L806.992 99.219L795.605 55.4998L798.192 54.7871Z" stroke="#FF5800" stroke-width="0.75" stroke-miterlimit="10"/>
<path d="M774.877 61.2227L786.269 104.942L783.677 105.655L772.285 61.941L774.877 61.2227Z" stroke="#FF5800" stroke-width="0.75" stroke-miterlimit="10"/>
<path d="M813.092 50.6699L816.954 65.4995V73.4931L811.152 51.2059L813.092 50.6699Z" stroke="#FF5800" stroke-width="0.75" stroke-miterlimit="10"/>
<path d="M803.377 53.3496L814.769 97.0688L812.177 97.7872L800.785 54.068L803.377 53.3496Z" stroke="#FF5800" stroke-width="0.75" stroke-miterlimit="10"/>
<path d="M808.561 51.918L816.955 84.1486V94.8104L805.969 52.6364L808.561 51.918Z" stroke="#FF5800" stroke-width="0.75" stroke-miterlimit="10"/>
<path d="M805.971 52.6367L816.957 94.8108V96.4642L814.771 97.0686L803.379 53.3494L805.971 52.6367Z" stroke="#FF5800" stroke-width="0.75" stroke-miterlimit="10"/>
<path d="M800.787 54.0684L812.179 97.7875L809.587 98.5002L798.195 54.7867L800.787 54.0684Z" stroke="#FF5800" stroke-width="0.75" stroke-miterlimit="10"/>
<path d="M742.469 75.4141L752.585 114.241L749.993 114.96L742.469 86.0702V75.4141Z" stroke="#FF5800" stroke-width="0.75" stroke-miterlimit="10"/>
<path d="M742.469 70.1754L743.785 69.8105L755.177 113.53L752.585 114.242L742.469 75.4151V70.1754Z" stroke="#FF5800" stroke-width="0.75" stroke-miterlimit="10"/>
<path d="M746.377 69.0977L757.769 112.811L755.177 113.53L743.785 69.8103L746.377 69.0977Z" stroke="#FF5800" stroke-width="0.75" stroke-miterlimit="10"/>
<path d="M748.967 68.3789L760.359 112.098L757.767 112.811L746.375 69.0973L748.967 68.3789Z" stroke="#FF5800" stroke-width="0.75" stroke-miterlimit="10"/>
<path d="M742.469 86.0703L749.993 114.96L747.401 115.678L742.469 96.7321V86.0703Z" stroke="#FF5800" stroke-width="0.75" stroke-miterlimit="10"/>
<path d="M751.561 67.666L762.947 111.379L760.361 112.098L748.969 68.3787L751.561 67.666Z" stroke="#FF5800" stroke-width="0.75" stroke-miterlimit="10"/>
<path d="M742.469 107.389L744.815 116.391L742.469 117.041V107.389Z" stroke="#FF5800" stroke-width="0.75" stroke-miterlimit="10"/>
<path d="M742.469 96.7324L747.401 115.679L744.815 116.391L742.469 107.389V96.7324Z" stroke="#FF5800" stroke-width="0.75" stroke-miterlimit="10"/>
<path d="M769.692 62.6543L781.084 106.373L778.492 107.086L767.105 63.3727L769.692 62.6543Z" stroke="#FF5800" stroke-width="0.75" stroke-miterlimit="10"/>
<path d="M767.108 63.373L778.494 107.087L775.908 107.805L764.516 64.0857L767.108 63.373Z" stroke="#FF5800" stroke-width="0.75" stroke-miterlimit="10"/>
<path d="M772.283 61.9414L783.676 105.655L781.084 106.373L769.691 62.6541L772.283 61.9414Z" stroke="#FF5800" stroke-width="0.75" stroke-miterlimit="10"/>
<path d="M764.514 64.0859L775.906 107.805L773.314 108.518L761.922 64.8043L764.514 64.0859Z" stroke="#FF5800" stroke-width="0.75" stroke-miterlimit="10"/>
<path d="M756.74 66.2344L768.132 109.948L765.541 110.666L754.148 66.9471L756.74 66.2344Z" stroke="#FF5800" stroke-width="0.75" stroke-miterlimit="10"/>
<path d="M761.924 64.8047L773.316 108.518L770.724 109.237L759.332 65.5174L761.924 64.8047Z" stroke="#FF5800" stroke-width="0.75" stroke-miterlimit="10"/>
<path d="M754.149 66.9473L765.541 110.666L762.949 111.379L751.562 67.6657L754.149 66.9473Z" stroke="#FF5800" stroke-width="0.75" stroke-miterlimit="10"/>
<path d="M759.33 65.5156L770.722 109.235L768.13 109.947L756.738 66.234L759.33 65.5156Z" stroke="#FF5800" stroke-width="0.75" stroke-miterlimit="10"/>
<path d="M497.222 223.124V217.833L505.135 215.615V205.916L497.222 208.14V202.849L505.135 200.631V190.933L497.222 193.151V187.865L505.135 185.642V175.949L497.222 178.167V172.876L505.135 170.658V161.844L455.035 175.904V183.834L462.285 181.799V187.09L455.035 189.125V198.824L462.285 196.788V202.074L455.035 204.109V213.807L462.285 211.772V217.063L455.035 219.098V228.791L462.285 226.755V232.046L455.035 234.082V253.473L505.135 239.413V220.906L497.222 223.124Z" stroke="#FF5800" stroke-width="0.75" stroke-miterlimit="10"/>
<path d="M471.512 181.855L467.559 182.967V177.676L471.512 176.564V181.855Z" stroke="#FF5800" stroke-width="0.75" stroke-miterlimit="10"/>
<path d="M471.512 195.961L467.559 197.067V191.782L471.512 190.67V195.961Z" stroke="#FF5800" stroke-width="0.75" stroke-miterlimit="10"/>
<path d="M471.512 210.061L467.559 211.172V205.881L471.512 204.775V210.061Z" stroke="#FF5800" stroke-width="0.75" stroke-miterlimit="10"/>
<path d="M471.512 224.166L467.559 225.278V219.987L471.512 218.875V224.166Z" stroke="#FF5800" stroke-width="0.75" stroke-miterlimit="10"/>
<path d="M471.512 238.273L467.559 239.385V234.094L471.512 232.982V238.273Z" stroke="#FF5800" stroke-width="0.75" stroke-miterlimit="10"/>
<path d="M491.29 176.309L487.336 177.415V172.129L491.29 171.018V176.309Z" stroke="#FF5800" stroke-width="0.75" stroke-miterlimit="10"/>
<path d="M491.29 190.408L487.336 191.52V186.229L491.29 185.123V190.408Z" stroke="#FF5800" stroke-width="0.75" stroke-miterlimit="10"/>
<path d="M491.29 204.514L487.336 205.625V200.334L491.29 199.223V204.514Z" stroke="#FF5800" stroke-width="0.75" stroke-miterlimit="10"/>
<path d="M491.29 218.619L487.336 219.725V214.44L491.29 213.328V218.619Z" stroke="#FF5800" stroke-width="0.75" stroke-miterlimit="10"/>
<path d="M491.29 232.719L487.336 233.831V228.54L491.29 227.434V232.719Z" stroke="#FF5800" stroke-width="0.75" stroke-miterlimit="10"/>
<path d="M446.524 231.659L446.536 227.28L454.786 229.669V219.149L446.536 216.761L446.558 211.612L454.809 214.001L454.786 203.818L446.536 201.429V196.332L454.786 198.721V189.371L446.536 186.982V181.884L454.786 184.273V175.772L402.523 160.641V168.292L410.088 170.481V175.579L402.523 173.389V182.74L410.088 184.929V190.026L402.523 187.837V197.187L410.088 199.377V204.474L402.523 202.284V211.635L410.088 213.824V218.921L402.523 216.732L402.632 238.238L454.895 253.37L454.775 234.048L446.524 231.659Z" stroke="#FF5800" stroke-width="0.75" stroke-miterlimit="10"/>
<path d="M419.719 175.818L415.594 174.626V169.523L419.719 170.721V175.818Z" stroke="#FF5800" stroke-width="0.75" stroke-miterlimit="10"/>
<path d="M419.719 189.416L415.594 188.218V183.121L419.719 184.318V189.416Z" stroke="#FF5800" stroke-width="0.75" stroke-miterlimit="10"/>
<path d="M419.719 203.015L415.594 201.818V196.721L419.719 197.918V203.015Z" stroke="#FF5800" stroke-width="0.75" stroke-miterlimit="10"/>
<path d="M419.719 216.613L415.594 215.416V210.318L419.719 211.516V216.613Z" stroke="#FF5800" stroke-width="0.75" stroke-miterlimit="10"/>
<path d="M419.719 230.21L415.594 229.013V223.916L419.719 225.108V230.21Z" stroke="#FF5800" stroke-width="0.75" stroke-miterlimit="10"/>
<path d="M440.35 181.793L436.219 180.595V175.498L440.35 176.69V181.793Z" stroke="#FF5800" stroke-width="0.75" stroke-miterlimit="10"/>
<path d="M440.35 195.392L436.219 194.195V189.098L440.35 190.289V195.392Z" stroke="#FF5800" stroke-width="0.75" stroke-miterlimit="10"/>
<path d="M440.35 208.99L436.219 207.792V202.695L440.35 203.887V208.99Z" stroke="#FF5800" stroke-width="0.75" stroke-miterlimit="10"/>
<path d="M440.35 222.587L436.219 221.39V216.293L440.35 217.485V222.587Z" stroke="#FF5800" stroke-width="0.75" stroke-miterlimit="10"/>
<path d="M440.35 236.179L436.219 234.988V229.891L440.35 231.082V236.179Z" stroke="#FF5800" stroke-width="0.75" stroke-miterlimit="10"/>
<path d="M504.941 162.157L455.035 152.105" stroke="#FF5800" stroke-width="0.75" stroke-miterlimit="10"/>
<path d="M402.234 160.333L455.035 152.105" stroke="#FF5800" stroke-width="0.75" stroke-miterlimit="10"/>
<path d="M410.188 163.599L455.756 155.686" stroke="#FF5800" stroke-width="0.75" stroke-miterlimit="10"/>
<path d="M494.811 164.893L455.754 155.686" stroke="#FF5800" stroke-width="0.75" stroke-miterlimit="10"/>
<path d="M753.982 294.347L728.445 304.821V284.986L753.982 274.518V294.347Z" stroke="#FF5800" stroke-width="0.75" stroke-miterlimit="10"/>
<path d="M784.38 281.882L758.844 292.35V272.521L784.38 262.047V281.882Z" stroke="#FF5800" stroke-width="0.75" stroke-miterlimit="10"/>
<path d="M814.783 269.414L789.246 279.887V260.052L814.783 249.578V269.414Z" stroke="#FF5800" stroke-width="0.75" stroke-miterlimit="10"/>
<path d="M708.801 286.285V309.2" stroke="#FF5800" stroke-width="0.75" stroke-miterlimit="10"/>
<path d="M671.648 277.465V297.739" stroke="#FF5800" stroke-width="0.75" stroke-miterlimit="10"/>
<path d="M655.727 303.029L671.65 297.738" stroke="#FF5800" stroke-width="0.75" stroke-miterlimit="10"/>
<path d="M708.8 309.198L671.648 297.738" stroke="#FF5800" stroke-width="0.75" stroke-miterlimit="10"/>
</g>
<defs>
<clipPath id="clip0_3692_75459">
<rect width="874" height="589" fill="white"/>
</clipPath>
</defs>
</svg>
