<svg width="32" height="32" viewBox="0 0 32 32" fill="none" xmlns="http://www.w3.org/2000/svg">
<path d="M24.5601 7.61395C23.0521 6.63095 21.9631 5.05695 21.6241 3.22295C21.5511 2.82695 21.5101 2.41895 21.5101 2.00195H16.6961L16.6881 21.294C16.6071 23.454 14.8291 25.188 12.6491 25.188C11.9721 25.188 11.3341 25.019 10.7721 24.723C9.48406 24.045 8.60306 22.695 8.60306 21.141C8.60306 18.91 10.4181 17.094 12.6491 17.094C13.0661 17.094 13.4651 17.163 13.8431 17.281V12.367C13.4521 12.314 13.0551 12.28 12.6491 12.28C7.76306 12.28 3.78906 16.255 3.78906 21.14C3.78906 24.138 5.28706 26.79 7.57206 28.394C9.01106 29.404 10.7621 30 12.6501 30C17.5361 30 21.5101 26.025 21.5101 21.14V11.358C23.3981 12.713 25.7111 13.512 28.2071 13.512V8.69795C26.8621 8.69795 25.6101 8.29895 24.5601 7.61395Z" fill="#F37021"/>
</svg>
