<svg width="924" height="32" viewBox="0 0 924 32" fill="none" xmlns="http://www.w3.org/2000/svg">
<path d="M0 16H752.421" stroke="#F37021"/>
<path d="M924.001 9.09765L903.043 23.9995L894.258 23.9995L915.214 9.09766L924.001 9.09765Z" fill="#F37021"/>
<path d="M909.133 9.09765L888.176 23.9995L879.391 23.9995L900.347 9.09766L909.133 9.09765Z" fill="#F37021"/>
<path d="M894.258 9.09765L873.302 23.9995L864.516 23.9995L885.472 9.09766L894.258 9.09765Z" fill="#F37021"/>
<path d="M879.387 9.09765L858.431 23.9995L849.645 23.9995L870.601 9.09766L879.387 9.09765Z" fill="#F37021"/>
<path d="M864.516 9.09765L843.56 23.9995L834.773 23.9995L855.73 9.09766L864.516 9.09765Z" fill="#F37021"/>
<path d="M849.641 9.09765L828.685 23.9995L819.898 23.9995L840.856 9.09766L849.641 9.09765Z" fill="#F37021"/>
<path d="M834.774 9.09765L813.818 23.9995L805.031 23.9995L825.989 9.09766L834.774 9.09765Z" fill="#F37021"/>
<path d="M819.903 9.09765L798.946 23.9995L790.16 23.9995L811.118 9.09766L819.903 9.09765Z" fill="#F37021"/>
<path d="M805.032 9.09765L784.075 23.9995L775.289 23.9995L796.247 9.09766L805.032 9.09765Z" fill="#F37021"/>
<path d="M790.159 9.09765L769.203 23.9995L760.418 23.9995L781.374 9.09766L790.159 9.09765Z" fill="#F37021"/>
</svg>
